<svg id="Layer_1" data-name="Layer 1" xmlns="http://www.w3.org/2000/svg" xmlns:xlink="http://www.w3.org/1999/xlink" width="761.75" height="549.61" viewBox="0 0 761.75 549.61">
  <defs>
    <style>
      .cls-1, .cls-2 {
        opacity: 0.3;
      }

      .cls-1 {
        fill: url(#linear-gradient);
      }

      .cls-2 {
        fill: url(#linear-gradient-2);
      }

      .cls-3 {
        fill: url(#linear-gradient-3);
      }

      .cls-4, .cls-7 {
        opacity: 0.5;
      }

      .cls-4 {
        fill: url(#linear-gradient-4);
      }

      .cls-5 {
        fill: url(#linear-gradient-5);
      }

      .cls-6 {
        fill: url(#linear-gradient-6);
      }

      .cls-7 {
        fill: url(#linear-gradient-7);
      }

      .cls-8 {
        fill: url(#linear-gradient-8);
      }

      .cls-12, .cls-36, .cls-43, .cls-44, .cls-64, .cls-9 {
        fill: #fff;
      }

      .cls-9 {
        opacity: 0.62;
      }

      .cls-10 {
        opacity: 0.79;
      }

      .cls-11 {
        fill: url(#linear-gradient-9);
      }

      .cls-12 {
        opacity: 0.86;
      }

      .cls-13 {
        opacity: 0.67;
      }

      .cls-14 {
        fill: url(#linear-gradient-10);
      }

      .cls-15 {
        opacity: 0.94;
      }

      .cls-16 {
        fill: url(#linear-gradient-11);
      }

      .cls-17 {
        fill: url(#linear-gradient-12);
      }

      .cls-18 {
        fill: url(#linear-gradient-13);
      }

      .cls-19 {
        fill: url(#linear-gradient-14);
      }

      .cls-20 {
        fill: url(#linear-gradient-15);
      }

      .cls-21 {
        fill: url(#linear-gradient-16);
      }

      .cls-22 {
        fill: url(#linear-gradient-17);
      }

      .cls-23 {
        fill: url(#linear-gradient-18);
      }

      .cls-24 {
        fill: url(#linear-gradient-19);
      }

      .cls-25 {
        fill: url(#linear-gradient-20);
      }

      .cls-26 {
        fill: url(#linear-gradient-21);
      }

      .cls-27 {
        fill: url(#linear-gradient-22);
      }

      .cls-28 {
        fill: #f79e6d;
      }

      .cls-29 {
        fill: url(#linear-gradient-23);
      }

      .cls-30 {
        fill: url(#linear-gradient-24);
      }

      .cls-31 {
        fill: url(#linear-gradient-25);
      }

      .cls-32 {
        fill: url(#linear-gradient-26);
      }

      .cls-33 {
        fill: url(#linear-gradient-27);
      }

      .cls-34 {
        fill: url(#linear-gradient-28);
      }

      .cls-35 {
        fill: url(#linear-gradient-29);
      }

      .cls-37 {
        fill: url(#linear-gradient-30);
      }

      .cls-38 {
        fill: url(#linear-gradient-31);
      }

      .cls-39 {
        fill: url(#linear-gradient-32);
      }

      .cls-40 {
        fill: url(#linear-gradient-33);
      }

      .cls-41 {
        fill: url(#linear-gradient-34);
      }

      .cls-42 {
        fill: url(#linear-gradient-35);
      }

      .cls-43, .cls-45 {
        opacity: 0.6;
      }

      .cls-44 {
        opacity: 0.53;
      }

      .cls-46 {
        fill: url(#linear-gradient-36);
      }

      .cls-47 {
        fill: url(#linear-gradient-37);
      }

      .cls-48 {
        fill: url(#linear-gradient-38);
      }

      .cls-49 {
        fill: url(#linear-gradient-39);
      }

      .cls-50 {
        fill: url(#linear-gradient-40);
      }

      .cls-51 {
        fill: url(#linear-gradient-41);
      }

      .cls-52 {
        fill: url(#linear-gradient-42);
      }

      .cls-53 {
        fill: url(#linear-gradient-43);
      }

      .cls-54 {
        fill: url(#linear-gradient-44);
      }

      .cls-55 {
        fill: url(#linear-gradient-45);
      }

      .cls-56 {
        fill: url(#linear-gradient-46);
      }

      .cls-57 {
        fill: url(#linear-gradient-47);
      }

      .cls-58 {
        fill: url(#linear-gradient-48);
      }

      .cls-59 {
        fill: url(#linear-gradient-49);
      }

      .cls-60 {
        fill: url(#linear-gradient-50);
      }

      .cls-61 {
        fill: url(#linear-gradient-51);
      }

      .cls-62 {
        fill: url(#linear-gradient-52);
      }

      .cls-63 {
        fill: url(#linear-gradient-53);
      }

      .cls-64 {
        opacity: 0.23;
      }

      .cls-65 {
        fill: url(#linear-gradient-54);
      }

      .cls-66 {
        fill: url(#linear-gradient-55);
      }

      .cls-67 {
        fill: url(#linear-gradient-56);
      }

      .cls-68 {
        fill: url(#linear-gradient-57);
      }

      .cls-69 {
        fill: url(#linear-gradient-58);
      }

      .cls-70 {
        fill: url(#linear-gradient-59);
      }

      .cls-71 {
        fill: url(#linear-gradient-60);
      }

      .cls-72 {
        fill: url(#linear-gradient-61);
      }

      .cls-73 {
        fill: url(#linear-gradient-62);
      }

      .cls-74 {
        fill: url(#linear-gradient-63);
      }

      .cls-75 {
        fill: url(#linear-gradient-64);
      }

      .cls-76 {
        fill: url(#linear-gradient-65);
      }

      .cls-77 {
        fill: url(#linear-gradient-66);
      }

      .cls-78 {
        fill: url(#linear-gradient-67);
      }

      .cls-79 {
        fill: url(#linear-gradient-68);
      }

      .cls-80 {
        fill: url(#linear-gradient-69);
      }

      .cls-81 {
        fill: url(#linear-gradient-70);
      }

      .cls-82 {
        fill: url(#linear-gradient-71);
      }

      .cls-83 {
        fill: url(#linear-gradient-72);
      }

      .cls-84 {
        fill: url(#linear-gradient-73);
      }

      .cls-85 {
        fill: url(#linear-gradient-74);
      }

      .cls-86 {
        fill: url(#linear-gradient-75);
      }

      .cls-87 {
        fill: url(#linear-gradient-76);
      }
    </style>
    <linearGradient id="linear-gradient" x1="171.39" y1="208.95" x2="701.3" y2="324.57" gradientUnits="userSpaceOnUse">
      <stop offset="0" stop-color="#b37cff"/>
      <stop offset="1" stop-color="#f895e7"/>
    </linearGradient>
    <linearGradient id="linear-gradient-2" x1="114.87" y1="221.56" x2="610.33" y2="329.67" xlink:href="#linear-gradient"/>
    <linearGradient id="linear-gradient-3" x1="-623.33" y1="193.51" x2="-291.54" y2="626.87" gradientTransform="matrix(-0.99, 0.16, 0.16, 0.99, -344.07, -15.39)" xlink:href="#linear-gradient"/>
    <linearGradient id="linear-gradient-4" x1="-511.48" y1="390.96" x2="-457.29" y2="390.96" gradientTransform="matrix(-0.99, 0.16, 0.16, 0.99, -344.07, -15.39)" gradientUnits="userSpaceOnUse">
      <stop offset="0" stop-color="#2b3582"/>
      <stop offset="1" stop-color="#150e42"/>
    </linearGradient>
    <linearGradient id="linear-gradient-5" x1="-555.6" y1="141.65" x2="-223.81" y2="575.01" gradientTransform="matrix(-0.99, 0.16, 0.16, 0.99, -344.07, -15.39)" xlink:href="#linear-gradient"/>
    <linearGradient id="linear-gradient-6" x1="-819.28" y1="235.81" x2="-915.74" y2="546.64" gradientTransform="matrix(-1, 0, 0, 1, -724.23, 0)" gradientUnits="userSpaceOnUse">
      <stop offset="0" stop-color="#ce1567"/>
      <stop offset="1" stop-color="#7a1dbc"/>
    </linearGradient>
    <linearGradient id="linear-gradient-7" x1="-131.39" y1="465.72" x2="-89.88" y2="465.72" gradientTransform="matrix(-0.93, 0.38, 0.38, 0.93, -142.26, -32.23)" xlink:href="#linear-gradient-4"/>
    <linearGradient id="linear-gradient-8" x1="-1278.17" y1="494.73" x2="-1150.35" y2="63.84" gradientTransform="matrix(-1, 0, 0, 1, -724.23, 0)" xlink:href="#linear-gradient"/>
    <linearGradient id="linear-gradient-9" x1="1657.66" y1="-3507.11" x2="1940.69" y2="-3507.11" gradientTransform="matrix(-0.36, -0.93, -0.93, 0.36, -2067.84, 3235.07)" gradientUnits="userSpaceOnUse">
      <stop offset="0" stop-color="#a737d5"/>
      <stop offset="1" stop-color="#ef497a"/>
    </linearGradient>
    <linearGradient id="linear-gradient-10" x1="1091.68" y1="-4207.63" x2="1433.39" y2="-4207.63" gradientTransform="matrix(-0.42, -0.56, -0.52, 0.39, -1203.4, 2654.42)" gradientUnits="userSpaceOnUse">
      <stop offset="0" stop-color="#53d8ff"/>
      <stop offset="1" stop-color="#3840f7"/>
    </linearGradient>
    <linearGradient id="linear-gradient-11" x1="1981.75" y1="-4253.68" x2="2130.84" y2="-4253.68" gradientTransform="matrix(0.05, -0.97, -0.89, -0.04, -3318.1, 2227.09)" xlink:href="#linear-gradient-10"/>
    <linearGradient id="linear-gradient-12" x1="-2448.15" y1="1388.97" x2="-2416.7" y2="1388.97" gradientTransform="matrix(-0.8, 0.6, 0.6, 0.8, -2437.33, 837.54)" xlink:href="#linear-gradient-10"/>
    <linearGradient id="linear-gradient-13" x1="-2457.03" y1="1388.59" x2="-2418.22" y2="1388.59" gradientTransform="matrix(-0.8, 0.6, 0.6, 0.8, -2437.33, 837.54)" xlink:href="#linear-gradient-4"/>
    <linearGradient id="linear-gradient-14" x1="-2644.3" y1="1335.31" x2="-2448.12" y2="1335.31" gradientTransform="matrix(-0.8, 0.6, 0.6, 0.8, -2437.33, 837.54)" gradientUnits="userSpaceOnUse">
      <stop offset="0" stop-color="#f9b776"/>
      <stop offset="1" stop-color="#f47960"/>
    </linearGradient>
    <linearGradient id="linear-gradient-15" x1="-3040.5" y1="4776.4" x2="-3004.59" y2="4776.4" gradientTransform="matrix(0.41, 0.91, 0.91, -0.41, -2534.27, 5152.51)" xlink:href="#linear-gradient-10"/>
    <linearGradient id="linear-gradient-16" x1="-3048.64" y1="4776.14" x2="-3006.03" y2="4776.14" gradientTransform="matrix(0.41, 0.91, 0.91, -0.41, -2534.27, 5152.51)" xlink:href="#linear-gradient-4"/>
    <linearGradient id="linear-gradient-17" x1="-3237.04" y1="4732.37" x2="-3038.69" y2="4732.37" gradientTransform="matrix(0.41, 0.91, 0.91, -0.41, -2534.27, 5152.51)" xlink:href="#linear-gradient-14"/>
    <linearGradient id="linear-gradient-18" x1="-1182.2" y1="331.23" x2="-1088.64" y2="331.23" gradientTransform="matrix(-1, 0, 0, 1, -724.23, 0)" gradientUnits="userSpaceOnUse">
      <stop offset="0" stop-color="#cb236d"/>
      <stop offset="1" stop-color="#4c246d"/>
    </linearGradient>
    <linearGradient id="linear-gradient-19" x1="-1203.77" y1="334.8" x2="-1120.85" y2="334.8" xlink:href="#linear-gradient-18"/>
    <linearGradient id="linear-gradient-20" x1="-1041.47" y1="218.77" x2="-1174.61" y2="145.4" gradientTransform="matrix(-1, 0, 0, 1, -724.23, 0)" gradientUnits="userSpaceOnUse">
      <stop offset="0" stop-color="#fdf53f"/>
      <stop offset="1" stop-color="#d93c65"/>
    </linearGradient>
    <linearGradient id="linear-gradient-21" x1="-975.22" y1="205.02" x2="-1135.71" y2="282.77" gradientTransform="matrix(-1, 0, 0, 1, -724.23, 0)" xlink:href="#linear-gradient-14"/>
    <linearGradient id="linear-gradient-22" x1="-974.87" y1="204.82" x2="-1136.91" y2="283.31" gradientTransform="matrix(-1, 0, 0, 1, -724.23, 0)" xlink:href="#linear-gradient-14"/>
    <linearGradient id="linear-gradient-23" x1="-1126.13" y1="181.17" x2="-1249.52" y2="377.82" xlink:href="#linear-gradient-20"/>
    <linearGradient id="linear-gradient-24" x1="-1171.4" y1="259.56" x2="-1273.66" y2="78.82" gradientTransform="matrix(-1, 0, 0, 1, -724.23, 0)" xlink:href="#linear-gradient-14"/>
    <linearGradient id="linear-gradient-25" x1="-1113.1" y1="181.45" x2="-1102.35" y2="150.78" gradientTransform="matrix(-1, 0, 0, 1, -724.23, 0)" xlink:href="#linear-gradient-14"/>
    <linearGradient id="linear-gradient-26" x1="-7864.47" y1="123.99" x2="-7908.41" y2="157.61" gradientTransform="matrix(-1, 0, 0, 1, -7506.21, 0)" xlink:href="#linear-gradient-14"/>
    <linearGradient id="linear-gradient-27" x1="-7895.26" y1="96.8" x2="-7854.31" y2="149.53" gradientTransform="matrix(-1, 0, 0, 1, -7506.21, 0)" xlink:href="#linear-gradient-4"/>
    <linearGradient id="linear-gradient-28" x1="-7869.23" y1="116.85" x2="-7913.33" y2="150.59" gradientTransform="matrix(-1, 0, 0, 1, -7506.21, 0)" xlink:href="#linear-gradient-14"/>
    <linearGradient id="linear-gradient-29" x1="-1098.14" y1="204.5" x2="-1197.22" y2="301.3" gradientTransform="matrix(-1, 0, 0, 1, -724.23, 0)" xlink:href="#linear-gradient-10"/>
    <linearGradient id="linear-gradient-30" x1="-1153.93" y1="151.16" x2="-1199.41" y2="205.98" xlink:href="#linear-gradient-20"/>
    <linearGradient id="linear-gradient-31" x1="-1153.93" y1="151.16" x2="-1199.41" y2="205.98" xlink:href="#linear-gradient-20"/>
    <linearGradient id="linear-gradient-32" x1="-1030.89" y1="315.01" x2="-1076.37" y2="369.83" xlink:href="#linear-gradient-20"/>
    <linearGradient id="linear-gradient-33" x1="-1030.89" y1="315.01" x2="-1076.37" y2="369.83" gradientTransform="matrix(-0.38, -0.92, -0.92, 0.38, 280.56, -765.99)" xlink:href="#linear-gradient-20"/>
    <linearGradient id="linear-gradient-34" x1="-1021.14" y1="126.19" x2="-1066.62" y2="181.01" xlink:href="#linear-gradient-20"/>
    <linearGradient id="linear-gradient-35" x1="-1021.14" y1="126.19" x2="-1066.62" y2="181.01" gradientTransform="matrix(-0.38, -0.92, -0.92, 0.38, 100.09, -873.55)" xlink:href="#linear-gradient-20"/>
    <linearGradient id="linear-gradient-36" x1="-1966.86" y1="393.03" x2="-1948.62" y2="441.37" gradientTransform="matrix(-1, 0, 0, 1, -1715.24, 0)" xlink:href="#linear-gradient-14"/>
    <linearGradient id="linear-gradient-37" x1="-1965.66" y1="408.83" x2="-1956.77" y2="392.75" gradientTransform="matrix(-1, 0, 0, 1, -1715.24, 0)" gradientUnits="userSpaceOnUse">
      <stop offset="0" stop-color="#53eac9"/>
      <stop offset="1" stop-color="#45aed8"/>
    </linearGradient>
    <linearGradient id="linear-gradient-38" x1="8014.06" y1="489.06" x2="8032.17" y2="489.06" gradientTransform="translate(-7798.45)" xlink:href="#linear-gradient-4"/>
    <linearGradient id="linear-gradient-39" x1="8014.06" y1="492.32" x2="8032.17" y2="492.32" gradientTransform="translate(-7798.45)" xlink:href="#linear-gradient-10"/>
    <linearGradient id="linear-gradient-40" x1="7982.24" y1="489.11" x2="7990.72" y2="489.11" gradientTransform="translate(-7798.45)" xlink:href="#linear-gradient-4"/>
    <linearGradient id="linear-gradient-41" x1="7982.24" y1="492.96" x2="7990.47" y2="492.96" gradientTransform="translate(-7798.45)" xlink:href="#linear-gradient-10"/>
    <linearGradient id="linear-gradient-42" x1="7985.83" y1="483.26" x2="7991.33" y2="483.26" gradientTransform="translate(-7798.45)" xlink:href="#linear-gradient-14"/>
    <linearGradient id="linear-gradient-43" x1="8014.98" y1="482.9" x2="8019.57" y2="482.9" gradientTransform="translate(-7798.45)" xlink:href="#linear-gradient-14"/>
    <linearGradient id="linear-gradient-44" x1="-1923.55" y1="464.8" x2="-1886.14" y2="616.54" gradientTransform="matrix(-1, 0, 0, 1, -1715.24, 0)" gradientUnits="userSpaceOnUse">
      <stop offset="0" stop-color="#50e7b7"/>
      <stop offset="1" stop-color="#323992"/>
    </linearGradient>
    <linearGradient id="linear-gradient-45" x1="8026.39" y1="412.38" x2="8007.61" y2="436.66" gradientTransform="translate(-7798.45)" xlink:href="#linear-gradient-44"/>
    <linearGradient id="linear-gradient-46" x1="-1948.89" y1="381.57" x2="-1828.21" y2="467.68" xlink:href="#linear-gradient-37"/>
    <linearGradient id="linear-gradient-47" x1="8028.78" y1="368.67" x2="8030.95" y2="355.29" gradientTransform="translate(-7798.45)" xlink:href="#linear-gradient-14"/>
    <linearGradient id="linear-gradient-48" x1="8259.28" y1="399.07" x2="8244.66" y2="410.26" gradientTransform="translate(-7988 -478.3) rotate(2.97)" xlink:href="#linear-gradient-14"/>
    <linearGradient id="linear-gradient-49" x1="8249.01" y1="390.25" x2="8262.24" y2="407.29" gradientTransform="translate(-7988 -478.3) rotate(2.97)" xlink:href="#linear-gradient-4"/>
    <linearGradient id="linear-gradient-50" x1="8257.46" y1="396.7" x2="8242.84" y2="407.89" gradientTransform="translate(-7988 -478.3) rotate(2.97)" xlink:href="#linear-gradient-14"/>
    <linearGradient id="linear-gradient-51" x1="-1915.4" y1="396" x2="-1893.21" y2="428.04" gradientTransform="matrix(-1, 0, 0, 1, -1715.24, 0)" xlink:href="#linear-gradient-14"/>
    <linearGradient id="linear-gradient-52" x1="-1938.12" y1="366.47" x2="-1817.43" y2="452.57" xlink:href="#linear-gradient-37"/>
    <linearGradient id="linear-gradient-53" x1="1834.03" y1="213.81" x2="1978.41" y2="213.81" gradientTransform="translate(-1683.69 258.62) rotate(-1.84)" xlink:href="#linear-gradient-4"/>
    <linearGradient id="linear-gradient-54" x1="1961.65" y1="154.68" x2="2099.93" y2="154.68" gradientTransform="translate(-1683.69 258.62) rotate(-1.84)" xlink:href="#linear-gradient-4"/>
    <linearGradient id="linear-gradient-55" x1="-1977.91" y1="394.31" x2="-1959.67" y2="442.66" gradientTransform="matrix(-1, 0, 0, 1, -1715.24, 0)" xlink:href="#linear-gradient-14"/>
    <linearGradient id="linear-gradient-56" x1="-1923.68" y1="403.34" x2="-1902.91" y2="433.33" gradientTransform="matrix(-1, 0, 0, 1, -1715.24, 0)" xlink:href="#linear-gradient-14"/>
    <linearGradient id="linear-gradient-57" x1="-476.33" y1="306.44" x2="-482.63" y2="327.04" gradientTransform="translate(1085.84)" xlink:href="#linear-gradient-37"/>
    <linearGradient id="linear-gradient-58" x1="332.95" y1="300.81" x2="325.55" y2="324.99" gradientTransform="matrix(-1, 0, 0, 1, 917.66, 0)" xlink:href="#linear-gradient-14"/>
    <linearGradient id="linear-gradient-59" x1="-469.07" y1="298.15" x2="-432.43" y2="348.71" gradientTransform="translate(1085.84)" xlink:href="#linear-gradient-18"/>
    <linearGradient id="linear-gradient-60" x1="-423.52" y1="436.18" x2="-427.96" y2="416.39" gradientTransform="translate(1085.84)" xlink:href="#linear-gradient-18"/>
    <linearGradient id="linear-gradient-61" x1="-4481.38" y1="474.73" x2="-4469.46" y2="335.4" gradientTransform="translate(5106.05)" xlink:href="#linear-gradient-14"/>
    <linearGradient id="linear-gradient-62" x1="-459.22" y1="437.6" x2="-452.88" y2="457.23" gradientTransform="translate(1085.84)" xlink:href="#linear-gradient-18"/>
    <linearGradient id="linear-gradient-63" x1="-4457.4" y1="476.8" x2="-4445.48" y2="337.44" gradientTransform="translate(5106.05)" xlink:href="#linear-gradient-14"/>
    <linearGradient id="linear-gradient-64" x1="-4481.07" y1="334.38" x2="-4475.15" y2="389.28" gradientTransform="translate(5106.05)" xlink:href="#linear-gradient-37"/>
    <linearGradient id="linear-gradient-65" x1="-451.15" y1="357.68" x2="-453.68" y2="397.26" gradientTransform="translate(1085.84)" xlink:href="#linear-gradient-37"/>
    <linearGradient id="linear-gradient-66" x1="-4482.69" y1="337.4" x2="-4480.45" y2="321.02" gradientTransform="translate(5106.05)" xlink:href="#linear-gradient-14"/>
    <linearGradient id="linear-gradient-67" x1="-4592.73" y1="-161.75" x2="-4573.2" y2="-196.52" gradientTransform="translate(5155.82 -416.04) rotate(-11.2)" xlink:href="#linear-gradient-14"/>
    <linearGradient id="linear-gradient-68" x1="-465.56" y1="291.96" x2="-427.29" y2="344.76" gradientTransform="translate(1085.84)" xlink:href="#linear-gradient-18"/>
    <linearGradient id="linear-gradient-69" x1="-4588.57" y1="-159.41" x2="-4569.04" y2="-194.19" gradientTransform="translate(5155.82 -416.04) rotate(-11.2)" xlink:href="#linear-gradient-14"/>
    <linearGradient id="linear-gradient-70" x1="-456.03" y1="341.43" x2="-440.73" y2="341.43" gradientTransform="translate(1085.84)" xlink:href="#linear-gradient-37"/>
    <linearGradient id="linear-gradient-71" x1="327.43" y1="329.96" x2="344.36" y2="400.5" gradientTransform="matrix(-1, 0, 0, 1, 946.91, 0)" xlink:href="#linear-gradient-4"/>
    <linearGradient id="linear-gradient-72" x1="338.03" y1="318.84" x2="334.43" y2="334.68" gradientTransform="matrix(-1, 0, 0, 1, 946.91, 0)" xlink:href="#linear-gradient-10"/>
    <linearGradient id="linear-gradient-73" x1="336.15" y1="325.48" x2="334.42" y2="335.83" gradientTransform="matrix(-1, 0, 0, 1, 946.91, 0)" xlink:href="#linear-gradient-10"/>
    <linearGradient id="linear-gradient-74" x1="315.83" y1="348.62" x2="325.42" y2="348.62" gradientTransform="matrix(-1, 0, 0, 1, 946.91, 0)" xlink:href="#linear-gradient-14"/>
    <linearGradient id="linear-gradient-75" x1="-1384.4" y1="442.14" x2="-1312.56" y2="537.53" gradientTransform="matrix(1, 0, 0, -1, 1998.91, 939.4)" xlink:href="#linear-gradient-6"/>
    <linearGradient id="linear-gradient-76" x1="-1311.29" y1="455.87" x2="-1249.75" y2="537.58" gradientTransform="matrix(1, 0, 0, -1, 1859.13, 958.28)" xlink:href="#linear-gradient-20"/>
  </defs>
  <g>
    <path class="cls-1" d="M690.07,342.13c0,153.32-94,207.48-248.48,207.48S161.8,425.31,161.8,272,362.51,0,517,0,690.07,188.8,690.07,342.13Z"/>
    <path class="cls-2" d="M614.21,284.57C614.21,429.5,491.37,547,339.84,547S86.37,517.32,86.37,372.39,276.67,4,498.83,16C650.14,24.17,614.21,139.64,614.21,284.57Z"/>
    <g>
      <g>
        <g>
          <g>
            <path class="cls-3" d="M164.36,252.86c2.84-9.46,4.41-19.14,3.54-29.27-2.2-25.53-20.54-46.48-34.74-66.53-13-18.42-25.1-47,8.76-49.65,27-2.07,62.47,19.55,70.4,46.68,9.38,32.1-.07,75.94,23.53,102.73,33,37.48,50.59,24.94,61.64,95.21,4.72,30-9.3,49.21-26.92,61.32a80.72,80.72,0,0,1-92.18-.46c-24.38-17.16-41.6-44.62-42-74.86C136,307.5,155.86,281.18,164.36,252.86Z"/>
            <path class="cls-4" d="M222.1,475.39a1.05,1.05,0,0,0,1-.95c6.17-68.78,5.76-130.18-1.22-182.5-5.59-41.9-15.38-78.12-29.11-107.64-23.44-50.44-49.87-63.67-51-64.21a1,1,0,0,0-.91,1.87c.27.13,27,13.58,50.13,63.48,21.37,46.12,43.93,133.67,30,288.81a1,1,0,0,0,.95,1.13Z"/>
          </g>
          <path class="cls-5" d="M126.16,183a11.44,11.44,0,0,1,4.17-.95c8.48-.35,13.29,7.9,16.82,14.39,3,5.55,6.61,12.31,6.38,18.88-.26,7.1-6.69,13.88-13.11,7.71-7.29-7-18.27-17.79-20-28.33C119.59,189.42,121.89,184.86,126.16,183Z"/>
        </g>
        <g>
          <path class="cls-6" d="M88.38,385.36c-6.95-21.92-2.84-49-2.5-73.38.18-12.9-.78-25.52-4.79-37.85s-12-24.94-8.55-38.33c7-27,34.92-19.59,52.86-2.93,20.82,19.33,31.23,54.62,42.19,81.34,6.6,16.11,15.28,32.33,20.06,49.05,7.92,27.69,4.61,48.31-6.82,63.67a41.39,41.39,0,0,1-47.52,14.15C117.73,435.35,99.57,420.73,88.38,385.36Z"/>
          <path class="cls-7" d="M164.35,480.36a1,1,0,0,0,1-1c0-.35.29-35.5-7-82.81-6.72-43.67-21.47-106.94-53.52-160.37a1,1,0,0,0-1.43-.36,1,1,0,0,0-.36,1.43c31.87,53.13,46.55,116.1,53.25,159.58,7.26,47.14,7,82.16,7,82.51a1.05,1.05,0,0,0,1,1.05Z"/>
        </g>
      </g>
      <g>
        <path class="cls-8" d="M640.26,486.45s48.4-60.81,40.53-118.29-47.14-50.63-64.62-16.64-33.18,29.33-22.8-2.63,23.4-52.76,1.88-84.57S571.51,219,583.6,190.6s27.26-68.61-20.83-83-96,29.75-84.8,87.46,17.95,64,2.5,85.37-9,30.15-6.82,44.07-21.41,17.17-20.91-2.43,30.53-65.85,10-87.43-60.66-21.81-70.95,28.08,22.68,72.32,21,90.37-19.34-9.32-34.75,9.08,5.34,32.85,20.61,42.82,38.31,27.83,16.39,40.81-42.66.56-29.24,40.62Z"/>
        <path class="cls-9" d="M540.77,149.25a25.14,25.14,0,0,0-4.32,3,34.47,34.47,0,0,0-3.74,3.71,41.93,41.93,0,0,0-5.9,8.8,55.65,55.65,0,0,0-5.51,20.51c-.1.89-.13,1.77-.17,2.66s-.09,1.78-.07,2.66l0,2.67.13,2.65.07,1.33.13,1.32.26,2.64c.27,1.75.46,3.51.79,5.24s.64,3.48,1,5.18l.59,2.58.62,2.49,2.47,9.93c3.27,13.25,6.43,26.48,8.9,39.79s4.08,26.74,3.71,40a95.52,95.52,0,0,1-.74,9.88,74.13,74.13,0,0,1-1.81,9.64,63.35,63.35,0,0,1-3.13,9.19,69.62,69.62,0,0,0-3.44,10.24,163.68,163.68,0,0,0-3.37,20.68c-.73,6.87-1.29,13.72-1.73,20.56-.94,13.66-1.75,27.28-3.72,40.72-.25,1.68-.51,3.35-.83,5s-.64,3.33-1,5-.77,3.29-1.15,4.94c-.22.81-.46,1.62-.69,2.43s-.45,1.64-.74,2.43l-.81,2.4c-.27.79-.61,1.56-.92,2.35-.59,1.59-1.36,3.08-2.06,4.62a42.09,42.09,0,0,1-5.67,8.35l.55.54a42.82,42.82,0,0,0,6.47-8.14,62.74,62.74,0,0,0,4.56-9.36,117.23,117.23,0,0,0,5.67-20c2.78-13.55,4.1-27.26,5.6-40.86.76-6.79,1.44-13.58,2.37-20.29A160.88,160.88,0,0,1,537,347.07a68.71,68.71,0,0,1,3.26-9.14A68.87,68.87,0,0,0,544,327.77a80.91,80.91,0,0,0,2.17-10.48,104.85,104.85,0,0,0,1-10.57c.59-14.12-1.17-28-3.52-41.64s-5.66-27-9.3-40.29c-.92-3.31-1.84-6.62-2.8-9.91l-.72-2.47-.66-2.4c-.46-1.6-.81-3.22-1.2-4.84s-.66-3.24-1-4.86l-.38-2.46c-.13-.81-.25-1.63-.33-2.45a75.8,75.8,0,0,1-.6-9.87,56.68,56.68,0,0,1,.82-9.82,53.28,53.28,0,0,1,2.54-9.52,49.58,49.58,0,0,1,2-4.53,41.18,41.18,0,0,1,2.51-4.3,33.53,33.53,0,0,1,6.66-7.45Z"/>
        <path class="cls-9" d="M643.8,355.23c-1.45,10.76-3.5,21.43-6,32q-1.89,7.89-4.18,15.66c-.37,1.3-.8,2.58-1.19,3.87s-.83,2.57-1.25,3.85c-.82,2.57-1.75,5.11-2.65,7.65s-1.9,5-3,7.51-2.1,5-3.19,7.42c-2.27,4.87-4.68,9.68-7.35,14.35a157.11,157.11,0,0,1-8.73,13.56,149.16,149.16,0,0,1-10.36,12.47l.52.57a93.46,93.46,0,0,0,11.81-11.48A125,125,0,0,0,618,449.31a150.64,150.64,0,0,0,7.91-14.5c1.13-2.51,2.31-5,3.33-7.55s2-5.12,3-7.69,1.82-5.18,2.63-7.81c.42-1.3.81-2.62,1.18-3.94s.78-2.63,1.11-4c1.46-5.28,2.66-10.64,3.7-16a199.46,199.46,0,0,0,3.71-32.57Z"/>
        <path class="cls-9" d="M435.36,253.61a36.6,36.6,0,0,0-5.08,5.26,50.38,50.38,0,0,0-4.19,6c-.63,1-1.23,2.13-1.8,3.22s-1.08,2.22-1.55,3.36a54.88,54.88,0,0,0-2.49,7,64.52,64.52,0,0,0-1.08,29.6c.24,1.21.52,2.42.78,3.64s.64,2.39,1,3.59c.71,2.37,1.49,4.75,2.31,7l4.93,13.48q5,13.44,9.53,26.91c3,9,5.73,18.08,8,27.26,1.18,4.58,2.15,9.2,3,13.84.4,2.32.84,4.65,1.16,7s.66,4.67.95,7c.49,4.69.9,9.4.94,14.11.09,2.36,0,4.71,0,7.07s-.18,4.71-.45,7.06a109.06,109.06,0,0,1-2.13,14,107.67,107.67,0,0,1-4,13.65l.71.3a96.64,96.64,0,0,0,8.3-27.61c.42-2.39.6-4.8.88-7.21l.25-3.62c0-.6.09-1.21.11-1.81l0-1.81c.18-4.85,0-9.69-.3-14.52-1.36-19.34-6-38.23-11.76-56.55-2.84-9.19-6.09-18.22-9.32-27.22l-4.82-13.47c-.81-2.27-1.54-4.42-2.22-6.62-.3-1.11-.63-2.21-.92-3.32l-.79-3.35a68.74,68.74,0,0,1-.48-27.26,63.06,63.06,0,0,1,4-13.25,57.43,57.43,0,0,1,7-12.17Z"/>
      </g>
      <g>
        <g class="cls-10">
          <path class="cls-11" d="M669.47,97.81c4.76,47.33,21.24,323.9-235.51,386,0,0-57.72-179.28,229.13-388.83A4,4,0,0,1,669.47,97.81Z"/>
          <path class="cls-12" d="M643.82,138.52c-2,7.73-4.18,15.43-6.45,23.09s-4.68,15.29-7.16,22.89q-7.46,22.8-16,45.21a849.73,849.73,0,0,1-39,87.58c-14.73,28.34-31.32,55.79-50.71,81.16-4.83,6.36-9.9,12.53-15.12,18.56-1.32,1.49-2.6,3-3.95,4.49l-4,4.41c-2.75,2.89-5.47,5.8-8.32,8.59a257.21,257.21,0,0,1-36.63,30.57h0a1.18,1.18,0,1,0,1.33,1.95h0a260,260,0,0,0,36.85-31c2.86-2.81,5.59-5.75,8.35-8.67l4-4.46c1.35-1.48,2.64-3,4-4.53,5.23-6.09,10.3-12.31,15.13-18.71,19.39-25.56,35.93-53.16,50.6-81.62a852.21,852.21,0,0,0,38.73-87.87q8.49-22.47,15.86-45.33,3.69-11.43,7.09-22.94c2.25-7.69,4.43-15.38,6.38-23.16a.5.5,0,0,0-.36-.61.51.51,0,0,0-.61.37Z"/>
        </g>
        <g class="cls-13">
          <path class="cls-14" d="M511.18,128.63c15.2,37.09,95.27,256-87.62,355.38,0,0-88.18-132.82,82-356.44C507.06,125.61,510.18,126.21,511.18,128.63Z"/>
          <path class="cls-12" d="M501.22,166.28c.11,6.41,0,12.84-.13,19.25s-.4,12.84-.74,19.25q-1,19.23-2.94,38.41t-4.78,38.22c-.5,3.17-.95,6.35-1.48,9.51l-1.6,9.5c-1.16,6.31-2.28,12.63-3.6,18.91s-2.69,12.55-4.07,18.82-3,12.48-4.67,18.67-3.42,12.37-5.17,18.54l-2.86,9.19c-.48,1.53-.95,3.07-1.44,4.59l-1.55,4.55c-4,12.19-8.65,24.16-13.6,36l-3.83,8.82c-.61,1.48-1.34,2.91-2,4.37l-2.05,4.34-2.05,4.35c-.7,1.45-1.46,2.86-2.18,4.29l-4.39,8.55v0a1.18,1.18,0,1,0,2.1,1.08h0l4.38-8.62c.72-1.44,1.48-2.87,2.17-4.32l2-4.38,2-4.38c.67-1.46,1.4-2.9,2-4.39l3.81-8.88c4.92-11.9,9.52-23.95,13.49-36.19l1.53-4.58c.5-1.53.95-3.08,1.43-4.61l2.83-9.24c1.73-6.2,3.55-12.37,5.11-18.62s3.1-12.49,4.59-18.74,2.8-12.57,4-18.89,2.39-12.64,3.53-19l1.55-9.52c.53-3.18,1-6.36,1.44-9.54q2.78-19.1,4.62-38.31t2.78-38.48q.47-9.65.66-19.28c.12-6.44.18-12.86,0-19.31a.52.52,0,0,0-.51-.49.5.5,0,0,0-.49.52Z"/>
        </g>
        <g class="cls-15">
          <path class="cls-16" d="M656.35,348c-7.11,23.21-53.51,156.5-175.43,132.5,0,0,9.94-96.14,173.25-135.16A2,2,0,0,1,656.35,348Z"/>
          <path class="cls-12" d="M637.28,361.62c-4.58,6.11-9.41,12.05-14.32,17.91s-10,11.61-15.12,17.25S597.4,408,592,413.35,581.06,424,575.37,429.14s-11.47,10.09-17.47,14.8-12.11,9.31-18.47,13.51c-.79.52-1.57,1.08-2.38,1.58l-2.41,1.53c-1.62,1-3.2,2.07-4.86,3l-4.93,2.89-5,2.69a157.31,157.31,0,0,1-20.89,9h0a1.19,1.19,0,0,0-.73,1.51,1.17,1.17,0,0,0,1.5.73h0a158.27,158.27,0,0,0,21.15-9.33l5.07-2.76,5-2.95c1.67-.95,3.25-2,4.88-3.07l2.43-1.55c.81-.52,1.59-1.08,2.38-1.62,6.39-4.29,12.5-8.94,18.49-13.74s11.79-9.84,17.46-15,11.17-10.5,16.55-16,10.64-11,15.78-16.73,10.14-11.5,15-17.41,9.66-11.89,14.23-18.06a.5.5,0,0,0-.81-.6Z"/>
        </g>
      </g>
      <g>
        <g>
          <path class="cls-17" d="M365.82,490.81a4.76,4.76,0,0,1-4.73,2.94c-8-.54-29.4-3-43.22-14.45a2.11,2.11,0,0,1-.35-2.89c3.56,2.88,9.47,6.24,19.25,9.77C351.79,491.6,360.68,491.75,365.82,490.81Z"/>
          <path class="cls-18" d="M364.11,473.78s5.22,7.89,1.74,17l0,.06c-5.14.94-14,.79-29.05-4.63-9.78-3.53-15.69-6.89-19.25-9.77a2.13,2.13,0,0,1,.82-.68C325.89,472.15,347.07,463.86,364.11,473.78Z"/>
        </g>
        <path class="cls-19" d="M442.59,273.9l13.3,10.43s20.84,29.74-24.53,57.66-55.42,33.82-55.42,33.82,13.42,33.57-12.75,98.18c0,0-5.22,3.75-11.15-1.44l-7.25-100.42c-.75-11.09,4-13.57,10.94-21.65,16.63-19.25,52.24-55.06,56.62-60.14Z"/>
        <g>
          <path class="cls-20" d="M579.55,403.09a5.58,5.58,0,0,1,1.59,5.7c-2.23,8.47-9.11,30.74-22.31,43a1.72,1.72,0,0,1-2.66-.26c3.35-3.18,7.64-8.75,12.92-18.42C577.2,418.25,579.26,408.79,579.55,403.09Z"/>
          <path class="cls-21" d="M564,401.21s8.17-3.85,15.51,1.84l0,0c-.29,5.7-2.35,15.16-10.46,30-5.28,9.67-9.57,15.24-12.92,18.42a2.42,2.42,0,0,1-.42-1C554.21,441.67,551.43,417.25,564,401.21Z"/>
        </g>
        <path class="cls-22" d="M402.85,273.81l12.2-11.93s31.07-15.77,46.08,38.77,14.15,73.81,14.15,73.81S512.06,360.2,564,402.24a11.12,11.12,0,0,1-3.71,11.59l-91.13-14.15c-10.06-1.62-11.25-7.18-16.93-16.41-13.53-22-37.7-67.79-41.28-73.58Z"/>
        <path class="cls-23" d="M457.8,288.19s2.47,18.2-11.7,35.73c-11.7,14.48-36.75,41.73-46.61,49.38a4.44,4.44,0,0,1-6.1-.54l-27.42-30a6.25,6.25,0,0,1-.11-8.12L403,291.56Z"/>
        <path class="cls-24" d="M460.86,288.19l18.39,68.54a5.8,5.8,0,0,1-1.87,6.37c-5.38,4.06-17,12.28-29.51,17.84a5.63,5.63,0,0,1-7.24-2.66l-19.76-43.46c-1.71-5-21.44-30.82-24.25-35.15l4.59-7.17Z"/>
        <path class="cls-25" d="M339.69,172.58l21.08,35.48C351,229,340.08,240.5,329.18,246c-1.94-13-8.89-23.83-14-30.25C334.62,203.64,339.69,172.58,339.69,172.58Z"/>
        <path class="cls-26" d="M267.29,209.36c21.57,14,37,13.16,47.89,6.37,5.11,6.42,12.06,17.23,14,30.25-34.63,17.44-69.31-26.45-69.31-26.45Z"/>
        <path class="cls-27" d="M266.11,215.44s5.83-11.11-2.55-19.64c0,0-2.7-3.38-5.66,1.58,0,0-9-8.95-11.48-5.35s-9,12.54-2.62,22.72S263.27,220.46,266.11,215.44Z"/>
        <path class="cls-28" d="M257.27,208.69a4.44,4.44,0,0,0,2.22-.54,4.28,4.28,0,0,0,2-3.47.59.59,0,0,0-1.18-.13,3.17,3.17,0,0,1-1.37,2.57,4.8,4.8,0,0,1-3.59.06l2.21-7.67a.6.6,0,0,0-.41-.74.59.59,0,0,0-.73.41l-2.36,8.2a.59.59,0,0,0,.33.71A8.09,8.09,0,0,0,257.27,208.69Z"/>
        <path class="cls-29" d="M416.82,154.06c15,.84,38.8,8.66,54.15,24.13a201.11,201.11,0,0,0-17.39,24.12c-4.83-5-11.78-9.1-21.56-11.75,8.45,34.56,18.44,67.5,30.62,98.11a3.69,3.69,0,0,1-1.91,4.82c-9.42,3.59-37.2,12.15-59.48-1.63l-49.4-77.41a70,70,0,0,1-10.21-27.91l-1.95-14S384.06,152.24,416.82,154.06Z"/>
        <path class="cls-30" d="M443.76,271.2c2.15-5.19,9.5-10,13-12.12,3.05-6.88,15.23-37.85-3.19-56.77A201.11,201.11,0,0,1,471,178.19c17.72,17.84,24.2,45.88-6.86,85.13,1.69,9.67-3.84,20.92-6.83,22.5C455.9,286.55,440.91,278.09,443.76,271.2Z"/>
        <path class="cls-31" d="M383.45,133.5l12.91,27.65a4.91,4.91,0,0,1-.6,5.13c-3.13,3.81-10.51,10-23.35,5.56a4.2,4.2,0,0,1-2.65-3.45l-3.36-25.11Z"/>
        <g>
          <path class="cls-32" d="M360.57,107.53s-7.31,18.36-7.8,28-2.39,15.89,7.8,17.83,18.75-3.61,23.4-13.21c0,0,7.28-14.79,5.65-20.84S360.57,107.53,360.57,107.53Z"/>
          <path class="cls-33" d="M380.49,133.24H379.2s5.31-11.9.65-14-23.12-6.21-27.1-13.38c-3.84-6.91-.42-15.83,4.71-18.33a.66.66,0,0,1,.87.35l.42.88a.68.68,0,0,0,1.28-.14h0a.67.67,0,0,1,1.24-.21c1.22,2.14,4.52,5.63,13.37,7.42,12.56,2.53,20.86,8.1,21.07,17.6a.69.69,0,0,0,1.07.62c.93-.62,2.41-.91,4.39.91,3.45,3.18,2,11.41-5.52,18.18a.8.8,0,0,0,0,1.22c1.37,1,3.42,3.3-1.88,6.39s-8.62,2.83-9.83,2.49a.76.76,0,0,1-.52-.78l.47-8.42a.73.73,0,0,0-.69-.81Z"/>
          <path class="cls-34" d="M380.17,135s2.79-11.72,7.59-8.43-2.49,13.13-6.35,13.57Z"/>
        </g>
        <path class="cls-35" d="M410.41,200l9.67,46.8c.79,3.79-1.5,7.53-5,8.18l-24.27,4.51a6,6,0,0,1-6.24-3l-25-42.44c-2.36-4-.31-9.36,4-10.31l39.6-8.88A6.22,6.22,0,0,1,410.41,200Z"/>
        <g>
          <path class="cls-36" d="M375.72,217.15h-.08l-1.46,1.18a2.72,2.72,0,0,1-4.21-1.54h0a2.78,2.78,0,0,1,.84-3l4.12-3.26a2.39,2.39,0,0,1,1.25-.51l1.63-.16a2.93,2.93,0,0,1,3.05,2.55l4.26,28.17a2.58,2.58,0,0,1-2.2,3.07l-.53.05a2.91,2.91,0,0,1-3.05-2.54Z"/>
          <path class="cls-36" d="M388.59,240.18l-.14-.9a2.83,2.83,0,0,1,.39-1.94l2.15-3.42c4.58-7.16,6.71-11.23,6.19-15.18-.41-2.76-2-4.82-4.94-4.52a5.77,5.77,0,0,0-2.74,1.07,2.7,2.7,0,0,1-3.95-1.27l-.06-.13a2.84,2.84,0,0,1,.56-3.3,11.37,11.37,0,0,1,6.44-2.83c5.78-.58,9.63,3.57,10.56,9.7.86,5.67-1.56,10.5-4.59,15.24l-2,2.83v.11l7-.7a2.91,2.91,0,0,1,3.05,2.54l.13.88a2.58,2.58,0,0,1-2.2,3.07l-12.85,1.3A2.92,2.92,0,0,1,388.59,240.18Z"/>
        </g>
      </g>
      <g>
        <path class="cls-37" d="M474.4,231.54A26.5,26.5,0,1,0,447.9,205,26.53,26.53,0,0,0,474.4,231.54Zm0-46.91A20.41,20.41,0,1,1,454,205,20.43,20.43,0,0,1,474.4,184.63Z"/>
        <circle class="cls-38" cx="474.4" cy="205.04" r="15.23"/>
      </g>
      <g>
        <path class="cls-39" d="M351.36,395.39a26.5,26.5,0,1,0-26.5-26.5A26.52,26.52,0,0,0,351.36,395.39Zm0-46.9A20.41,20.41,0,1,1,331,368.89,20.42,20.42,0,0,1,351.36,348.49Z"/>
        <circle class="cls-40" cx="351.36" cy="368.89" r="15.23" transform="translate(-123.91 552.33) rotate(-67.5)"/>
      </g>
      <g>
        <path class="cls-41" d="M341.61,206.56a26.5,26.5,0,1,0-26.5-26.49A26.52,26.52,0,0,0,341.61,206.56Zm0-46.9a20.41,20.41,0,1,1-20.4,20.41A20.43,20.43,0,0,1,341.61,159.66Z"/>
        <circle class="cls-42" cx="341.61" cy="180.07" r="15.23" transform="translate(44.52 426.77) rotate(-67.5)"/>
      </g>
      <g>
        <path class="cls-36" d="M279.88,176.71h27.91a3.47,3.47,0,0,0,3.47-3.48h0a3.47,3.47,0,0,0-3.47-3.47H279.88a3.47,3.47,0,0,0-3.47,3.47h0A3.47,3.47,0,0,0,279.88,176.71Z"/>
        <path class="cls-43" d="M173.87,176.71h89.72a3.47,3.47,0,0,0,3.47-3.48h0a3.47,3.47,0,0,0-3.47-3.47H173.87a3.47,3.47,0,0,0-3.47,3.47h0A3.47,3.47,0,0,0,173.87,176.71Z"/>
        <path class="cls-44" d="M173.87,190.3h89.72a3.47,3.47,0,0,0,3.47-3.47h0a3.47,3.47,0,0,0-3.47-3.47H173.87a3.47,3.47,0,0,0-3.47,3.47h0A3.47,3.47,0,0,0,173.87,190.3Z"/>
        <path class="cls-43" d="M173.87,203.9h89.72a3.47,3.47,0,0,0,3.47-3.47h0a3.47,3.47,0,0,0-3.47-3.47H173.87a3.47,3.47,0,0,0-3.47,3.47h0A3.47,3.47,0,0,0,173.87,203.9Z"/>
      </g>
      <g class="cls-45">
        <path class="cls-36" d="M542.28,210.82H514.37a3.47,3.47,0,0,1-3.47-3.48h0a3.47,3.47,0,0,1,3.47-3.47h27.91a3.47,3.47,0,0,1,3.47,3.47h0A3.47,3.47,0,0,1,542.28,210.82Z"/>
        <path class="cls-43" d="M648.29,210.82H558.57a3.47,3.47,0,0,1-3.47-3.48h0a3.47,3.47,0,0,1,3.47-3.47h89.72a3.48,3.48,0,0,1,3.47,3.47h0A3.48,3.48,0,0,1,648.29,210.82Z"/>
        <path class="cls-44" d="M648.29,224.41H558.57a3.47,3.47,0,0,1-3.47-3.47h0a3.47,3.47,0,0,1,3.47-3.47h89.72a3.48,3.48,0,0,1,3.47,3.47h0A3.47,3.47,0,0,1,648.29,224.41Z"/>
        <path class="cls-43" d="M648.29,238H558.57a3.47,3.47,0,0,1-3.47-3.47h0a3.47,3.47,0,0,1,3.47-3.47h89.72a3.48,3.48,0,0,1,3.47,3.47h0A3.47,3.47,0,0,1,648.29,238Z"/>
      </g>
      <g>
        <g>
          <g>
            <path class="cls-46" d="M256.37,401.4l-3.59,3.54a25.69,25.69,0,0,1-12-4.09,28.21,28.21,0,0,1,5.1-8.74A29.51,29.51,0,0,0,256.37,401.4Z"/>
            <path class="cls-47" d="M231.42,388.17,239.88,375a33.29,33.29,0,0,0,6,17.16,28.21,28.21,0,0,0-5.1,8.74A23.22,23.22,0,0,1,231.42,388.17Z"/>
          </g>
          <path class="cls-48" d="M222.42,492.71c4.22.2,8.3.08,11-.07-2.49-1.76-8.2-5.61-13-7.14l-3.28-.19a13.22,13.22,0,0,0-1.51,5.56C216.21,491.55,217.8,492.5,222.42,492.71Z"/>
          <path class="cls-49" d="M233.48,492.67l0,0c-2.73.15-6.81.27-11,.07-4.62-.21-6.21-1.16-6.75-1.84l-.06.55a1.55,1.55,0,0,0,1.42,1.66c3.45.26,12,.85,16.15.63A.57.57,0,0,0,233.48,492.67Z"/>
          <path class="cls-50" d="M192.25,491.58a32.22,32.22,0,0,0-1.18-5.57c-.6-1.15-2.66,0-2.66,0a5.49,5.49,0,0,0-2.11,1.79l-2.38,4.13a.9.9,0,0,0-.13.49l8.23.29A1.61,1.61,0,0,0,192.25,491.58Z"/>
          <path class="cls-51" d="M183.79,492.42a1,1,0,0,0,.91.92l5.87.16a1.67,1.67,0,0,0,1.45-.79Z"/>
          <path class="cls-52" d="M192.88,479.43c-.07.24-1.13,5.39-1.6,7.65a1.3,1.3,0,0,1-1.33,1c-.35,0-.75-.05-1.18-.11a1.55,1.55,0,0,1-1.35-1.48c-.08-2-.12-5.79.61-7.27C189,477.23,192.88,479.43,192.88,479.43Z"/>
          <path class="cls-53" d="M216.53,480.9c.46,0-.18,2.36.51,4.69a1.19,1.19,0,0,0,1.1.94c.35,0,.77,0,1.2,0a1.33,1.33,0,0,0,1.22-1.2l.56-6Z"/>
          <path class="cls-54" d="M229.29,416.7c-.21,1-7.39,42.9-7.83,64.58a.72.72,0,0,1-.63.72,14.39,14.39,0,0,1-4.41,0,.51.51,0,0,1-.43-.47c-.25-4.05-2.27-38.22.2-54.3,0,0-20.43,43-23.53,54.85a.61.61,0,0,1-.63.47,15.56,15.56,0,0,1-4.14-.73,1.08,1.08,0,0,1-.68-1.28c1.73-7.09,13.85-56,22.08-66.75Z"/>
          <path class="cls-55" d="M216.19,427.47a.29.29,0,0,1-.19-.08.28.28,0,0,1,0-.38l2.74-2.8a.27.27,0,0,1,.37,0,.27.27,0,0,1,0,.38l-2.74,2.8A.27.27,0,0,1,216.19,427.47Z"/>
          <path class="cls-56" d="M241,364.22c-5.25-1.37-14.93-3.52-22.64-3.06a3.48,3.48,0,0,0-3.29,3.27c-1.16,20.52-2.75,38.74-5.75,49.33,6.74,2.67,13.41,3.9,20,2.94a221,221,0,0,0,12.93-36.63s2.16-11.05.06-14.73A2.17,2.17,0,0,0,241,364.22Z"/>
          <path class="cls-57" d="M230.66,350.77s-2.73,6.84-4,10.64a1.28,1.28,0,0,0,.78,1.43,10.46,10.46,0,0,0,7.91.84,1.33,1.33,0,0,0,.91-1.3L236,351.83Z"/>
          <g>
            <path class="cls-58" d="M238.78,342.85s2.25,6,2.26,9.09.57,5.12-3,5.55a7.58,7.58,0,0,1-8-4.64s-2.3-4.86-1.63-6.76S238.78,342.85,238.78,342.85Z"/>
            <path class="cls-59" d="M231.38,350.71l.45,0s-1.65-3.9,0-4.48,8.19-1.57,9.7-3.79a4.27,4.27,0,0,0-1.35-5.94.25.25,0,0,0-.31.1l-.16.27a.24.24,0,0,1-.44-.07h0a.24.24,0,0,0-.43-.09c-.46.67-1.68,1.72-4.8,2.13-4.44.58-7.43,2.21-7.66,5.24a.24.24,0,0,1-.38.18c-.32-.21-.83-.33-1.56.22-1.26.95-.9,3.6,1.63,5.9a.24.24,0,0,1,0,.39c-.49.29-1.25,1,.55,2.08s3,1.06,3.4,1a.24.24,0,0,0,.2-.24l0-2.7a.23.23,0,0,1,.25-.24Z"/>
            <path class="cls-60" d="M231.46,351.28s-.78-3.8-2.51-2.84.65,4.25,2,4.46Z"/>
          </g>
          <g>
            <path class="cls-61" d="M201.46,391.56c-2.59,7.28.06,17.46.06,17.46l-3.42.91a30.26,30.26,0,0,1-4.6-19.29A16.71,16.71,0,0,1,201.46,391.56Z"/>
            <path class="cls-62" d="M193.5,390.64c.12-1.31.29-2.7.56-4.18,2.31-12.86,18.8-22.76,22.68-24.92a.53.53,0,0,1,.79.48L217,379.51c-9.19,1.23-13.53,6.49-15.52,12.05A16.71,16.71,0,0,0,193.5,390.64Z"/>
          </g>
        </g>
        <g>
          <path class="cls-63" d="M296.1,374.3,163.51,427.44a10.28,10.28,0,0,0-5.39,14.1l.43.88a9.55,9.55,0,0,0,12.85,4.3l128.34-64.44Z"/>
          <ellipse class="cls-64" cx="351.05" cy="348.03" rx="62.14" ry="61.02" transform="matrix(1, -0.03, 0.03, 1, -11.02, 11.48)"/>
          <path class="cls-65" d="M420.15,345.81c1.21,37.48-28.76,68.86-66.92,70.08s-70.08-28.16-71.29-65.64,28.76-68.85,66.93-70.08S419,308.34,420.15,345.81Zm-10.15.33c-1-32-28.25-57-60.81-56s-58.12,27.81-57.1,59.79,28.26,57,60.82,56S411,378.11,410,346.14Z"/>
          <path class="cls-36" d="M287.45,358.32h.05a.29.29,0,0,0,.24-.34c-.25-1.58-.45-3.19-.58-4.79a.3.3,0,0,0-.59,0c.14,1.62.33,3.25.59,4.84A.29.29,0,0,0,287.45,358.32Zm-.13-19a.29.29,0,0,0,.29-.25,61.3,61.3,0,0,1,3.28-12.72h0A63.84,63.84,0,0,1,349,285.14a64.65,64.65,0,0,1,34.71,8.72.3.3,0,0,0,.41-.11.29.29,0,0,0-.11-.4,65.45,65.45,0,0,0-35-8.81,64.46,64.46,0,0,0-58.68,41.61A62.78,62.78,0,0,0,287,339a.3.3,0,0,0,.25.34Z"/>
          <path class="cls-36" d="M166.7,444.8a.3.3,0,0,0,.29-.21.29.29,0,0,0-.2-.37c-3.91-1.22-6-3.33-6.23-6.28a7.18,7.18,0,0,1,4.48-7.07l15.9-6.8a.3.3,0,1,0-.23-.55l-15.91,6.8A7.79,7.79,0,0,0,160,438c.24,3.22,2.48,5.51,6.65,6.8Z"/>
          <path class="cls-36" d="M185.73,422l.12,0,2.06-.88a.3.3,0,1,0-.24-.54l-2.06.88a.29.29,0,0,0-.15.39A.28.28,0,0,0,185.73,422Z"/>
        </g>
        <path class="cls-66" d="M261.81,404.26a2.21,2.21,0,0,0,1.43-1.24c.52-1.18,1.12-3.06-.15-3.64-1.88-.85-5.3,2.66-5.3,2.66l-1.67,2.7-1.53.75C256,405.87,258.69,405.23,261.81,404.26Z"/>
        <path class="cls-67" d="M201.29,407.85h4.23s-3.43,2-3.55,4.22,1.36,6.64,2.05,7.86-9.57-2-5.92-12.08Z"/>
      </g>
      <g>
        <g>
          <path class="cls-68" d="M620.6,320.28s-14.61,5.29-21.46,2.78a7.77,7.77,0,0,1-.88-.38c-6.39-3.38-7.17-12.51-7.17-12.51l-2.87.57s-.94,14.69,9.12,21c5,3.11,12.57,4.19,24.27.49Z"/>
          <path class="cls-69" d="M590.94,311l.15-.8a4.34,4.34,0,0,0-1-3.85c-2.28-2.77-4-1.75-4-1.75a6,6,0,0,1,.11,1.11.49.49,0,0,1-.82.35l-3.74-3.43s-1.05,5.45,7,9.2Z"/>
        </g>
        <path class="cls-70" d="M632.67,301.28s-.61,1.22,3.36,3.12c2.21,1.06,6.51,2.63,7.08,7.22a5.25,5.25,0,0,0,4.4,4.62c5.87.9,14.92,3.95,16.36,14.14,1.11,7.77-2.86,10.72-7,11.75a5.88,5.88,0,0,0-4.47,6.8c.59,3-.29,6.39-5.42,9.09-11.49,6.06-23-14.36-23-14.36L621.64,308Z"/>
        <path class="cls-71" d="M659.69,440.08l.47,3.87a1.6,1.6,0,0,0,1.4,1.4,24.6,24.6,0,0,0,5.18.08,1.37,1.37,0,0,0,1.15-1.78,14.09,14.09,0,0,0-2.59-5.06H661A1.32,1.32,0,0,0,659.69,440.08Z"/>
        <path class="cls-72" d="M626,394.7l-.72,4.27s2.42,24.6,2.86,34.44a7.78,7.78,0,0,1-1.14,4.38l-4.23,6.86,10.74-6.34.21-1.31L632,434.59l2.3-27.56a8.46,8.46,0,0,0-1-4.68l-2.22-4.17Z"/>
        <path class="cls-73" d="M622.1,445.64h3.42a2.06,2.06,0,0,0,1.64-.8c1.07-1.39,3.28-4.1,4.34-4.17,1.42-.09,1.24,5,1.24,5h.8l1-6.29a3.73,3.73,0,0,0-2-3.89h0a5.23,5.23,0,0,1-2.09,3.47c-1.76,1.06-7.18,4.88-7.18,4.88a4.6,4.6,0,0,0-1.39,0A.9.9,0,0,0,622.1,445.64Z"/>
        <path class="cls-74" d="M640.73,396.73s14.23,27,16.49,33.15a59.45,59.45,0,0,1,3.09,11.79c0,.76,1,1.49,3.6,1.49a2.49,2.49,0,0,0,2.32-1.06,1.53,1.53,0,0,0,.06-1.48c-.82-1.66-3.43-7-4.4-9.4-1.16-2.88-3.64-15.94-5-20.49s-2.9-9.46-8.84-14C648.05,396.73,644,392.74,640.73,396.73Z"/>
        <path class="cls-75" d="M631.74,352.51c-3.67-15.56,5.63-24.35,5.63-24.35-4.71-4.53-12.54-7.07-15.43-7.89a2.26,2.26,0,0,0-2.05.41c-2.48,2-9,7.83-8.06,12.58.71,3.42,7.17,20.49,7.17,20.49A14.21,14.21,0,0,0,631.74,352.51Z"/>
        <path class="cls-76" d="M639.88,360.2c-1.49-4.49-8.14-7.69-8.14-7.69A14.21,14.21,0,0,1,619,353.75a25.62,25.62,0,0,0-.42,9.88c.93,4.76,6.73,35.34,6.73,35.34,9.14,1.85,23.19-1.87,23.19-1.87C642.68,386.77,641.37,364.7,639.88,360.2Z"/>
        <path class="cls-77" d="M627.48,309.69l3,13.4c.28,1.18-.79,1-2,.76-2-.37-4.47-1.12-5.31-2.65a1.46,1.46,0,0,1-.16-.5l-1.28-9.29a1.68,1.68,0,0,1,1-1.76l2.47-1.1A1.67,1.67,0,0,1,627.48,309.69Z"/>
        <g>
          <path class="cls-78" d="M621.77,297.47s-3.18,2.15-4.54,7.63.85,7.44,3.12,7.32a10.56,10.56,0,0,0,8.43-4.76C631.64,303.74,625.93,294.84,621.77,297.47Z"/>
          <path class="cls-79" d="M625.9,305.45s1.16-7.84-5.35-6.64l-1.32,1.37s-3.19-3.59.34-6.31,8.43-2,11.14,2.93,3.69,8.41,1.42,11.48-4,.44-4,.44,1-2.66.18-3.8-2,.66-2,.66Z"/>
          <path class="cls-80" d="M626.79,306.13s.58-4,2.64-2.89-.75,3.78-1.87,4.67Z"/>
        </g>
        <path class="cls-81" d="M637.41,328.39s6.34,10.13,7.6,17.73-10.76,10.77-15.2,6.33l.64-3.16s7,1.26,7.6-2.54-5.7-11.4-5.7-11.4S634.25,329.65,637.41,328.39Z"/>
        <g>
          <path class="cls-82" d="M632.12,359l-7.2-25.14a.71.71,0,0,0-.62-.53c-1.3-.15-5.08-.58-9.45-1a109,109,0,0,0-15-.5.74.74,0,0,0-.6,1.06c2.08,4.2,10.61,21.27,14.88,26.86a.7.7,0,0,0,.6.29l16.7-.15A.73.73,0,0,0,632.12,359Z"/>
          <path class="cls-83" d="M614.11,330.16l-5.22-.87a.38.38,0,0,0-.42.49l.52,1.56a.37.37,0,0,0,.3.26l5,.67a.37.37,0,0,0,.41-.46l-.32-1.36A.37.37,0,0,0,614.11,330.16Z"/>
          <path class="cls-84" d="M618,334.58l-.43-2.24a.54.54,0,0,0-.46-.42l-10.54-1.07a.52.52,0,0,0-.56.64l.67,2.79a.53.53,0,0,0,.48.4l10.3.52A.53.53,0,0,0,618,334.58Z"/>
          <path class="cls-85" d="M630.38,352.89s1-4.13.6-5.59-1.19-3.35-3.8-2.93a38.39,38.39,0,0,0-5.69,1.52,1.49,1.49,0,0,0,2.14,1.29l-1.23,1s.17,1.52,1.85.71l-1.15,1.26a1.34,1.34,0,0,0,2,.45C626.29,349.76,626.88,353.38,630.38,352.89Z"/>
        </g>
        <path class="cls-36" d="M655.42,337.59a1.09,1.09,0,0,0,.56-.2,8.74,8.74,0,0,0,3.5-8.8,8.28,8.28,0,0,0-2.87-5,12.77,12.77,0,0,0-3.46-1.78c-2-.75-4-1.41-6.07-2l-.5-.14a17.79,17.79,0,0,1-3.54-1.2,5.81,5.81,0,0,1-2.93-2.92,8.67,8.67,0,0,1-.45-2.32,7,7,0,0,0-.69-2.82.08.08,0,0,0-.1,0,.08.08,0,0,0,0,.11,7,7,0,0,1,.67,2.75,8.52,8.52,0,0,0,.46,2.36,6,6,0,0,0,3,3,19,19,0,0,0,3.57,1.21l.5.14c2.05.55,4.08,1.21,6.06,1.95a12.67,12.67,0,0,1,3.41,1.75,8.15,8.15,0,0,1,2.82,4.9,8.63,8.63,0,0,1-3.43,8.66c-.19.12-.55.27-.7.06a.08.08,0,0,0-.11,0,.07.07,0,0,0,0,.1A.4.4,0,0,0,655.42,337.59Z"/>
        <path class="cls-36" d="M656.11,334.37a.08.08,0,0,0,.07,0,8.37,8.37,0,0,0,1.56-4.71,5.31,5.31,0,0,0-2.18-4.36.07.07,0,0,0-.08.12,5.2,5.2,0,0,1,2.11,4.24,8.36,8.36,0,0,1-1.54,4.63.08.08,0,0,0,0,.1Z"/>
      </g>
      <path class="cls-86" d="M586.48,445.64H688.2a0,0,0,0,1,0,0v39.84a8.28,8.28,0,0,1-8.28,8.28H594.76a8.28,8.28,0,0,1-8.28-8.28V445.64A0,0,0,0,1,586.48,445.64Z" transform="translate(1274.68 939.4) rotate(180)"/>
      <path class="cls-87" d="M515.53,464.52H619.37a0,0,0,0,1,0,0v21a8.28,8.28,0,0,1-8.28,8.28H523.82a8.28,8.28,0,0,1-8.28-8.28v-21A0,0,0,0,1,515.53,464.52Z" transform="translate(1134.9 958.28) rotate(180)"/>
      <g class="cls-45">
        <path class="cls-36" d="M134.31,308.22c3-14.24,10.46-9.35,23-13.73s8.84-20,16.6-24.83c10.34-6.43,19.84-.47,26.27,8,10.69,14,18,2.62,30.79,8.3,7.32,3.26,4.2,7.81,14.1,9.65,6.92,1.28,14.41-1.74,21.23.11,5.05,1.37,8.72,3.76,9.83,8.66-1.42.67-2.9,1.28-4.42,1.82-19.1,6.89-45.14,4.59-64.44,5.6C200.66,312.12,132.18,318.31,134.31,308.22Z"/>
        <path class="cls-36" d="M106.68,223.61a12.58,12.58,0,0,1,13-4.46c5.22,1.31,8.18,6.3,13,8.3,8.49,3.49,20.23-3.4,26.67,5.58,7.89,11,14,2.75,14,10.21s-54.47,2-81.35,2.35c-3.88.06-20.74-.22-13.48-8.28,2.25-2.51,5.47-2.92,8.46-3.51,3.91-.76,13.2-1.18,16-4.22,1.53-1.64,2.11-4,3.49-5.74A2.11,2.11,0,0,1,106.68,223.61Z"/>
      </g>
      <g>
        <path class="cls-36" d="M589.2,299.12a6.94,6.94,0,0,0,1.93.17.6.6,0,0,0-.06-1.2h0a5.76,5.76,0,0,1-1.6-.12.59.59,0,0,0-.26,1.15Z"/>
        <path class="cls-36" d="M595.29,297.79a9.89,9.89,0,0,0,1.44-1.22.63.63,0,1,0-.9-.88h0a8,8,0,0,1-1.25,1.08.63.63,0,0,0-.15.87A.62.62,0,0,0,595.29,297.79Z"/>
        <path class="cls-36" d="M599.06,292.86a9.74,9.74,0,0,0,.47-1.84.64.64,0,0,0-.54-.74.65.65,0,0,0-.75.54h0a8,8,0,0,1-.39,1.59.63.63,0,0,0,.39.82A.64.64,0,0,0,599.06,292.86Z"/>
        <path class="cls-36" d="M599.22,286.64a13.65,13.65,0,0,0-.63-1.76.68.68,0,0,0-.9-.35.67.67,0,0,0-.34.89h0a12.29,12.29,0,0,1,.58,1.57.66.66,0,0,0,.82.46A.67.67,0,0,0,599.22,286.64Z"/>
        <path class="cls-36" d="M596.27,281.22,595,279.88a.7.7,0,0,0-1,1h0l0,0,1.18,1.23,0,.05a.69.69,0,0,0,1,0A.69.69,0,0,0,596.27,281.22Z"/>
        <path class="cls-36" d="M591.59,277.27c-.53-.32-1.07-.59-1.6-.88a.73.73,0,0,0-.71,1.27h0l.05,0c.5.28,1,.53,1.51.82h0a.72.72,0,1,0,.73-1.24Z"/>
        <path class="cls-36" d="M586.07,274.76l-1.71-.55a.76.76,0,0,0-1,.49.77.77,0,0,0,.49.95h0l1.66.52h0a.75.75,0,0,0,.45-1.43Z"/>
        <path class="cls-36" d="M580.32,273.12l-1.73-.42a.79.79,0,0,0-1,.58.78.78,0,0,0,.58.94h0l1.72.4h0a.78.78,0,0,0,.93-.58A.78.78,0,0,0,580.32,273.12Z"/>
        <path class="cls-36" d="M574.59,271.7l-1.71-.46h0a.82.82,0,0,0-1,.57.8.8,0,0,0,.57,1h0l1.72.45a.8.8,0,0,0,1-.57.81.81,0,0,0-.56-1Z"/>
        <path class="cls-36" d="M569,270.06l-1.68-.55h0a.83.83,0,0,0-1,.54.82.82,0,0,0,.53,1h0l1.71.55a.84.84,0,0,0,1-.54.83.83,0,0,0-.53-1Z"/>
        <path class="cls-36" d="M563.41,268.11l-1.63-.65h0a.86.86,0,1,0-.64,1.6h0l1.67.65a.85.85,0,1,0,.63-1.58Z"/>
        <path class="cls-36" d="M558,265.79l-1.57-.77h0a.89.89,0,0,0-.79,1.59h0l1.62.78a.87.87,0,0,0,1.17-.41.88.88,0,0,0-.4-1.17Z"/>
        <path class="cls-36" d="M552.89,263.06l-1.5-.91,0,0a.91.91,0,0,0-1,1.56h0l1.54.93a.91.91,0,0,0,.94-1.55Z"/>
        <path class="cls-36" d="M548,259.85l-1.38-1.06,0,0a.93.93,0,0,0-1.31.17.94.94,0,0,0,.17,1.32h0l1.44,1.09a.93.93,0,0,0,1.13-1.48Z"/>
        <path class="cls-36" d="M543.57,256.13c-.42-.4-.84-.8-1.24-1.21a1,1,0,0,0-1.37,0,1,1,0,0,0,0,1.36h0c.43.43.87.84,1.31,1.25a1,1,0,0,0,1.31-1.39Z"/>
        <path class="cls-36" d="M539.59,251.91l-1.1-1.35,0,0a1,1,0,1,0-1.53,1.24h0l1.15,1.39a1,1,0,1,0,1.52-1.24Z"/>
        <path class="cls-36" d="M536.09,247.27l-1-1.46,0,0a1,1,0,1,0-1.69,1.12h0l1,1.49a1,1,0,0,0,1.4.28,1,1,0,0,0,.28-1.4Z"/>
        <path class="cls-36" d="M533,242.32l-.85-1.54v0a1,1,0,0,0-1.82,1h0l.89,1.57a1,1,0,1,0,1.8-1Z"/>
        <path class="cls-36" d="M530.29,237.13l-.76-1.58v0a1.06,1.06,0,0,0-1.42-.5,1.07,1.07,0,0,0-.51,1.43h0l.79,1.61a1.05,1.05,0,0,0,1.42.49,1.07,1.07,0,0,0,.49-1.41Z"/>
        <path class="cls-36" d="M527.84,231.8l-.68-1.62v0a1.1,1.1,0,0,0-2,.86h0l.71,1.64a1.09,1.09,0,0,0,2-.86Z"/>
        <path class="cls-36" d="M525.66,226.36l-.6-1.65v0a1.12,1.12,0,0,0-1.43-.67,1.13,1.13,0,0,0-.68,1.44h0l.62,1.69a1.11,1.11,0,0,0,2.09-.77Z"/>
        <path class="cls-36" d="M523.78,220.82l-.49-1.68v0a1.15,1.15,0,1,0-2.2.65h0l.52,1.72a1.14,1.14,0,0,0,2.19-.66Z"/>
        <path class="cls-36" d="M522.27,215.18l-.38-1.7v0a1.18,1.18,0,0,0-2.3.5h0l.4,1.76a1.16,1.16,0,0,0,2.27-.51Z"/>
        <path class="cls-36" d="M521.18,209.47l-.23-1.73v0a1.2,1.2,0,0,0-2.38.31h0l.26,1.79a1.17,1.17,0,0,0,1.34,1,1.19,1.19,0,0,0,1-1.33Z"/>
        <path class="cls-36" d="M520.6,203.69l-.06-1.73v0a1.23,1.23,0,0,0-2.45.09h0l.08,1.81a1.22,1.22,0,0,0,2.43-.1Z"/>
        <path class="cls-36" d="M520.61,197.91l.13-1.72v-.05a1.25,1.25,0,1,0-2.49-.18h0l-.12,1.81a1.25,1.25,0,0,0,2.49.18Z"/>
        <path class="cls-36" d="M521.28,192.19l.35-1.69v-.05a1.28,1.28,0,0,0-2.51-.5h0l-.35,1.79a1.27,1.27,0,0,0,2.49.49Z"/>
        <path class="cls-36" d="M522.69,186.63c.17-.55.37-1.09.56-1.63l0,0a1.3,1.3,0,0,0-2.46-.87h0c-.2.58-.41,1.15-.59,1.73h0a1.28,1.28,0,0,0,.85,1.62A1.29,1.29,0,0,0,522.69,186.63Z"/>
        <path class="cls-36" d="M524.83,181.3l.78-1.54,0,0a1.33,1.33,0,1,0-2.37-1.2h0l-.81,1.64a1.32,1.32,0,0,0,2.37,1.18Z"/>
        <path class="cls-36" d="M527.64,176.28l1-1.45,0,0a1.36,1.36,0,0,0-2.26-1.5h0l-1,1.53a1.34,1.34,0,0,0,2.25,1.47Z"/>
        <path class="cls-36" d="M531,171.57l1.09-1.35,0,0a1.38,1.38,0,0,0-2.15-1.74h0l-1.12,1.42A1.37,1.37,0,0,0,531,171.6Z"/>
        <path class="cls-36" d="M534.76,167.16,536,165.9l0,0a1.42,1.42,0,0,0,0-2,1.4,1.4,0,0,0-2,.05h0l-1.24,1.32a1.4,1.4,0,0,0,2,1.92Z"/>
        <path class="cls-36" d="M538.87,163l1.29-1.18,0,0a1.43,1.43,0,0,0-1.94-2.11h0L536.91,161a1.43,1.43,0,0,0,2,2.09Z"/>
        <path class="cls-36" d="M543.16,159.08l1.35-1.12h0a1.32,1.32,0,0,0-1.69-2l-1.38,1.14a1.33,1.33,0,0,0,1.68,2h0Z"/>
        <path class="cls-36" d="M547.73,155.44l1.41-1h0a1.31,1.31,0,0,0-1.55-2.11l-1.45,1.06a1.31,1.31,0,1,0,1.55,2.12h0Z"/>
        <path class="cls-36" d="M552.5,152.07l1.47-1v0a1.29,1.29,0,0,0-1.41-2.17l-1.51,1a1.3,1.3,0,0,0,1.41,2.18h0Z"/>
        <path class="cls-36" d="M557.45,149l1.52-.88h0a1.29,1.29,0,0,0,.47-1.75,1.27,1.27,0,0,0-1.74-.47l-1.57.89a1.29,1.29,0,1,0,1.28,2.23h0Z"/>
        <path class="cls-36" d="M562.57,146.15l1.57-.78h0a1.27,1.27,0,1,0-1.13-2.27l-1.61.8a1.27,1.27,0,1,0,1.13,2.28h0Z"/>
        <path class="cls-36" d="M567.85,143.64l1.61-.69h0a1.26,1.26,0,0,0-1-2.31l-1.65.7a1.27,1.27,0,0,0-.67,1.66,1.25,1.25,0,0,0,1.65.66h0Z"/>
        <path class="cls-36" d="M573.26,141.44l1.65-.6h0a1.23,1.23,0,0,0,.74-1.59,1.25,1.25,0,0,0-1.59-.75l-1.69.61a1.25,1.25,0,0,0,.84,2.35h0Z"/>
        <path class="cls-36" d="M578.79,139.56l1.68-.5h0a1.23,1.23,0,0,0-.69-2.36l-1.73.5a1.23,1.23,0,0,0,.69,2.37h0Z"/>
        <path class="cls-36" d="M584.43,138l1.7-.39h0a1.22,1.22,0,0,0-.55-2.37l-1.75.4a1.21,1.21,0,0,0-.92,1.46,1.22,1.22,0,0,0,1.46.92h0Z"/>
        <path class="cls-36" d="M590.14,136.84l1.73-.29h0a1.21,1.21,0,0,0-.39-2.38l-1.78.29a1.21,1.21,0,1,0,.39,2.38h0Z"/>
        <path class="cls-36" d="M595.92,136l1.74-.17h0a1.2,1.2,0,0,0,1.07-1.3,1.18,1.18,0,0,0-1.3-1.07l-1.79.16a1.2,1.2,0,1,0,.22,2.38h0Z"/>
        <path class="cls-36" d="M601.74,135.59l1.75-.05h0a1.18,1.18,0,1,0-.06-2.36l-1.8,0a1.19,1.19,0,0,0,.06,2.37h0Z"/>
        <path class="cls-36" d="M607.58,135.55l1.74.07h0a1.17,1.17,0,0,0,.1-2.33l-1.8-.08a1.18,1.18,0,0,0-1.22,1.12,1.17,1.17,0,0,0,1.12,1.22h0Z"/>
        <path class="cls-36" d="M613.4,135.93l1.73.19h0a1.15,1.15,0,0,0,.26-2.29l-1.79-.21a1.16,1.16,0,0,0-1.28,1,1.15,1.15,0,0,0,1,1.28h0Z"/>
        <path class="cls-36" d="M619.17,136.72l1.72.32h0a1.15,1.15,0,0,0,1.34-.91,1.14,1.14,0,0,0-.91-1.33l-1.77-.34a1.14,1.14,0,1,0-.43,2.24h0Z"/>
        <path class="cls-36" d="M624.87,138l1.68.46h0a1.13,1.13,0,0,0,.59-2.18l-1.73-.48a1.14,1.14,0,1,0-.6,2.19h0Z"/>
        <path class="cls-36" d="M630.45,139.62l1.65.59h0a1.11,1.11,0,1,0,.75-2.1l-1.69-.61a1.12,1.12,0,1,0-.76,2.1h0Z"/>
        <path class="cls-36" d="M635.9,141.71l1.6.71h0a1.12,1.12,0,0,0,1.46-.57,1.1,1.1,0,0,0-.57-1.45l-1.64-.73a1.11,1.11,0,0,0-.9,2h0Z"/>
        <path class="cls-36" d="M641.18,144.2l1.54.82h0a1.09,1.09,0,0,0,1-1.92l-1.59-.85a1.09,1.09,0,1,0-1,1.92h0Z"/>
        <path class="cls-36" d="M646.26,147.06l1.48.93,0,0a1.09,1.09,0,0,0,1.49-.34,1.07,1.07,0,0,0-.34-1.48l-1.52-1a1.08,1.08,0,1,0-1.15,1.83h0Z"/>
        <path class="cls-36" d="M651.12,150.29l1.41,1,0,0a1.07,1.07,0,0,0,1.27-1.71l-1.45-1.07a1.06,1.06,0,0,0-1.49.21,1.08,1.08,0,0,0,.22,1.5h0Z"/>
        <path class="cls-36" d="M655.73,153.88l1.33,1.14h0a1,1,0,1,0,1.37-1.59l-1.36-1.17a1.05,1.05,0,1,0-1.38,1.59h0Z"/>
        <path class="cls-36" d="M660.05,157.8l1.24,1.24h0a1,1,0,0,0,1.47-1.46l-1.27-1.28a1,1,0,0,0-1.47,0,1.05,1.05,0,0,0,0,1.48h0Z"/>
        <path class="cls-36" d="M664.06,162l1.14,1.33,0,0a1,1,0,0,0,1.56-1.33l-1.17-1.37A1,1,0,0,0,664,162h0Z"/>
        <path class="cls-36" d="M667.72,166.58l1,1.42v0a1,1,0,0,0,1.64-1.18l-1-1.46a1,1,0,1,0-1.65,1.18h0Z"/>
        <path class="cls-36" d="M671,171.41l.91,1.5v0a1,1,0,0,0,1.37.34,1,1,0,0,0,.34-1.37l-.92-1.54a1,1,0,1,0-1.72,1h0Z"/>
        <path class="cls-36" d="M673.84,176.49l.77,1.57v0a1,1,0,0,0,1.78-.86l-.79-1.63a1,1,0,1,0-1.78.86h0Z"/>
        <path class="cls-36" d="M676.23,181.81l.62,1.63v0a1,1,0,0,0,1.26.56,1,1,0,0,0,.56-1.25l-.63-1.69a1,1,0,1,0-1.83.69h0Z"/>
        <path class="cls-36" d="M678.13,187.31c.16.56.31,1.13.47,1.69h0a1,1,0,1,0,1.85-.49c-.15-.58-.3-1.17-.47-1.74a1,1,0,1,0-1.85.53Z"/>
        <path class="cls-36" d="M679.5,193l.31,1.72v0a1,1,0,0,0,1.1.77.94.94,0,0,0,.77-1.09l-.31-1.78a.95.95,0,1,0-1.87.32h0Z"/>
        <path class="cls-36" d="M680.33,198.74l.13,1.74v0a.94.94,0,0,0,1,.86.92.92,0,0,0,.86-1l-.13-1.8a.93.93,0,0,0-1-.87,1,1,0,0,0-.87,1h0Z"/>
        <path class="cls-36" d="M680.55,204.55l-.06,1.74v0a.92.92,0,1,0,1.84.07l.07-1.81a.93.93,0,0,0-1.85-.07h0Z"/>
        <path class="cls-36" d="M680.11,210.34l-.27,1.72v0a.91.91,0,1,0,1.79.28l.29-1.78a.92.92,0,1,0-1.81-.29h0Z"/>
        <path class="cls-36" d="M679,216c-.15.56-.32,1.11-.49,1.67v0a.9.9,0,1,0,1.72.51c.17-.58.36-1.16.52-1.74a.91.91,0,0,0-.63-1.11.89.89,0,0,0-1.1.63h0Z"/>
        <path class="cls-36" d="M677.06,221.48l-.72,1.59,0,0a.89.89,0,0,0,.44,1.17.88.88,0,0,0,1.17-.44l.76-1.64a.89.89,0,0,0-.44-1.18.88.88,0,0,0-1.17.44h0Z"/>
        <path class="cls-36" d="M674.4,226.62l-.94,1.46,0,0a.87.87,0,0,0,1.46.94l1-1.52a.87.87,0,0,0-.26-1.21.86.86,0,0,0-1.2.26h0Z"/>
        <path class="cls-36" d="M671,231.31l-1.15,1.3,0,0a.86.86,0,0,0,1.29,1.14l1.21-1.35a.88.88,0,0,0-.07-1.22.86.86,0,0,0-1.22.07h0Z"/>
        <path class="cls-36" d="M667,235.41l-1.35,1.09,0,0a.85.85,0,0,0,1.06,1.32l1.41-1.14a.85.85,0,1,0-1.06-1.32h0Z"/>
        <path class="cls-36" d="M662.27,238.75l-1.52.83,0,0a.83.83,0,1,0,.8,1.46l1.6-.87a.84.84,0,0,0-.8-1.47h0Z"/>
        <path class="cls-36" d="M657.05,241.22l-1.64.57,0,0a.82.82,0,0,0-.51,1,.81.81,0,0,0,1,.5l1.72-.59a.82.82,0,0,0,.51-1,.83.83,0,0,0-1-.51h0Z"/>
        <path class="cls-36" d="M651.49,242.84l-1.71.34h0a.81.81,0,1,0,.31,1.58l1.77-.33a.82.82,0,0,0,.65-1,.81.81,0,0,0-1-.64h0Z"/>
        <path class="cls-36" d="M645.74,243.7l-1.74.13h0a.79.79,0,0,0-.73.85.78.78,0,0,0,.84.73l1.8-.12a.8.8,0,1,0-.11-1.59h0Z"/>
        <path class="cls-36" d="M639.91,243.91l-1.75,0h0a.78.78,0,0,0-.8.76.77.77,0,0,0,.75.8l1.8.06a.79.79,0,1,0,.05-1.57h0Z"/>
        <path class="cls-36" d="M634.07,243.58l-1.75-.2h0a.77.77,0,0,0-.17,1.53l1.79.2a.77.77,0,1,0,.17-1.53h0Z"/>
        <path class="cls-36" d="M628.26,242.79l-1.73-.32h0a.75.75,0,0,0-.87.61.74.74,0,0,0,.6.87l1.76.33a.76.76,0,0,0,.89-.6.78.78,0,0,0-.61-.89h0Z"/>
        <path class="cls-36" d="M622.52,241.59l-1.7-.44h0a.73.73,0,0,0-.9.53.74.74,0,0,0,.53.9l1.73.46a.74.74,0,0,0,.91-.53.74.74,0,0,0-.53-.91h0Z"/>
        <path class="cls-36" d="M616.9,240l-1.66-.58h0a.74.74,0,0,0-.93.45.72.72,0,0,0,.45.92l1.69.6a.73.73,0,0,0,.49-1.38h0Z"/>
        <path class="cls-36" d="M611.44,237.87l-1.6-.73h0a.73.73,0,0,0-1,.36.71.71,0,0,0,.35.94l1.64.75a.71.71,0,0,0,.95-.35.72.72,0,0,0-.35-1h0Z"/>
        <path class="cls-36" d="M606.2,235.26l-1.51-.88h0a.7.7,0,1,0-.71,1.21l1.55.91a.7.7,0,1,0,.72-1.21h0Z"/>
        <path class="cls-36" d="M601.28,232.12l-1.4-1,0,0a.68.68,0,0,0-1,.14.68.68,0,0,0,.13,1l1.44,1.09a.69.69,0,0,0,1-.14.7.7,0,0,0-.13-1h0Z"/>
        <path class="cls-36" d="M596.77,228.43l-1.26-1.21,0,0a.68.68,0,0,0-1,0,.67.67,0,0,0,0,.95l1.29,1.26a.68.68,0,0,0,.95-1h0Z"/>
        <path class="cls-36" d="M592.79,224.19l-1.07-1.38,0,0a.67.67,0,0,0-.93-.12.66.66,0,0,0-.12.93l1.1,1.43a.66.66,0,0,0,.94.12.67.67,0,0,0,.12-.93h0Z"/>
        <path class="cls-36" d="M589.45,219.43l-.86-1.52v0a.65.65,0,0,0-1.14.64l.89,1.58a.65.65,0,0,0,.89.24.64.64,0,0,0,.25-.89h0Z"/>
        <path class="cls-36" d="M586.84,214.23l-.64-1.63v0a.65.65,0,0,0-.83-.37.64.64,0,0,0-.36.83l.65,1.68a.64.64,0,0,0,.83.37.65.65,0,0,0,.37-.83h0Z"/>
        <path class="cls-36" d="M585,208.71l-.37-1.71v0a.62.62,0,0,0-1.22.27l.38,1.77a.63.63,0,0,0,1.23-.27h0Z"/>
        <path class="cls-36" d="M584.09,203l-.08-1.73v0a.62.62,0,0,0-.64-.58.61.61,0,0,0-.58.64l.07,1.8a.62.62,0,0,0,.65.59.62.62,0,0,0,.59-.64h0Z"/>
        <path class="cls-36" d="M584.19,197.18l.24-1.72v0a.6.6,0,0,0-.51-.67.59.59,0,0,0-.68.5l-.26,1.8a.6.6,0,1,0,1.19.17h0Z"/>
      </g>
    </g>
  </g>
</svg>
