<svg id="Слой_1" data-name="Слой 1" xmlns="http://www.w3.org/2000/svg" width="3200" height="1632.67" viewBox="0 0 3200 1632.67">
  <defs>
    <style>
      .cls-1 {
        fill: #ebf3fa;
      }

      .cls-2 {
        fill: #d9e7fa;
      }

      .cls-3 {
        fill: #dce9fa;
      }

      .cls-4 {
        fill: #dceaf9;
      }

      .cls-5, .cls-7 {
        fill: #f8fbff;
      }

      .cls-5 {
        opacity: 0.5;
      }

      .cls-6 {
        fill: #c7dcf9;
      }

      .cls-8 {
        fill: #82b378;
      }

      .cls-9 {
        fill: #f99746;
      }

      .cls-10 {
        fill: #ed7d2b;
      }

      .cls-11 {
        fill: #ffb27d;
      }

      .cls-12 {
        fill: #233862;
      }

      .cls-13 {
        fill: #2a4e96;
      }

      .cls-14 {
        fill: #ed985f;
      }

      .cls-15 {
        fill: #2c3a64;
      }

      .cls-16 {
        fill: #fff;
      }

      .cls-17 {
        fill: #a2c5f9;
      }

      .cls-18 {
        fill: #afcdfb;
      }

      .cls-19 {
        fill: #d2e4f9;
      }

      .cls-20 {
        fill: #ed975d;
      }

      .cls-21 {
        fill: #a8d29f;
      }

      .cls-22 {
        fill: #2e3552;
      }

      .cls-23 {
        fill: #d36d1a;
      }

      .cls-24 {
        fill: #f49540;
      }

      .cls-25 {
        fill: #ffa255;
      }
    </style>
  </defs>
  <g>
    <path class="cls-1" d="M370.58,1572.64c-66.76-178.07-118.16-385.36-110.85-575.11,6.25-146.69,44.21-304,236.38-484.68,377.51-353.18,810.33-12.39,1078.14-249.45,261.85-231.56,751.81-235,971-21.35,111.31,111.24,132.76,248.5,92.72,397.25-12.38,45.56-28.78,86.51-48.65,128.74-59.9,125.31-10.56,200.35,64.94,269,65.79,60,138,105.41,192.54,180.83,76.78,108.66,57.12,235.09-3.21,355.48Z"/>
    <g>
      <rect class="cls-2" x="1579.25" y="898.8" width="155.84" height="572.93" transform="translate(3314.35 2370.53) rotate(180)"/>
      <rect class="cls-3" x="1544.25" y="898.8" width="155.84" height="572.93" transform="translate(3244.35 2370.53) rotate(180)"/>
      <rect class="cls-2" x="1544.25" y="935.27" width="155.8" height="41.35"/>
      <rect class="cls-2" x="1544.25" y="1024.96" width="155.8" height="41.36"/>
      <rect class="cls-2" x="1544.25" y="1114.65" width="155.8" height="41.35"/>
      <rect class="cls-2" x="1544.25" y="1204.35" width="155.8" height="41.35"/>
      <rect class="cls-2" x="1544.25" y="1294.04" width="155.8" height="41.35"/>
      <rect class="cls-2" x="1544.25" y="1383.73" width="155.8" height="41.35"/>
      <rect class="cls-2" x="1330.12" y="964.54" width="155.84" height="507.19" transform="translate(2816.09 2436.27) rotate(180)"/>
      <rect class="cls-3" x="1295.12" y="964.54" width="155.84" height="507.19" transform="translate(2746.09 2436.27) rotate(180)"/>
      <rect class="cls-2" x="1295.12" y="1011.18" width="155.8" height="35.5"/>
      <rect class="cls-2" x="1295.12" y="1088.18" width="155.8" height="35.5"/>
      <rect class="cls-2" x="1295.12" y="1165.18" width="155.8" height="35.5"/>
      <rect class="cls-2" x="1295.12" y="1242.18" width="155.8" height="35.5"/>
      <rect class="cls-2" x="1295.12" y="1319.18" width="155.8" height="35.5"/>
      <rect class="cls-2" x="1295.12" y="1396.18" width="155.8" height="35.5"/>
      <rect class="cls-4" x="1754.18" y="1449.78" width="65.26" height="89.87"/>
      <path class="cls-3" d="M2843.56,1573.32c60.33-120.39,80-246.82,3.21-355.48-54.53-75.39-126.68-120.84-192.44-180.75H2511.45V881.58h-98.69v101h-22.51V862h-98.7v226H2166.73v131.78h-46.62v33.18H2013v-57.16h-61.5V1040.44h-76v286.73h-76V1573Z"/>
      <rect class="cls-2" x="2291.5" y="877.26" width="98.75" height="23.02"/>
      <rect class="cls-2" x="2291.5" y="920.51" width="98.75" height="23.02"/>
      <rect class="cls-2" x="2291.5" y="959.43" width="98.75" height="23.02"/>
      <rect class="cls-2" x="2412.67" y="959.43" width="98.75" height="23.02"/>
      <rect class="cls-2" x="2412.67" y="920.51" width="98.75" height="23.02"/>
      <rect class="cls-2" x="2412.67" y="881.66" width="98.75" height="23.02"/>
      <rect class="cls-2" x="2291.5" y="997.16" width="219.95" height="23.02"/>
      <rect class="cls-2" x="2291.5" y="1034.89" width="219.95" height="23.02"/>
      <rect class="cls-2" x="1875.53" y="1040.47" width="76.64" height="35.54"/>
      <rect class="cls-2" x="1875.53" y="1093.32" width="76.64" height="35.54"/>
      <rect class="cls-2" x="1875.53" y="1146.17" width="76.64" height="35.54"/>
      <rect class="cls-2" x="1875.53" y="1201.58" width="76.64" height="35.54"/>
      <rect class="cls-2" x="1875.53" y="1255.26" width="76.64" height="35.54"/>
      <rect class="cls-2" x="1875.53" y="1308.95" width="76.64" height="35.54"/>
      <rect class="cls-2" x="1875.53" y="1365.11" width="76.64" height="35.54"/>
      <rect class="cls-2" x="2291.5" y="1071.76" width="219.95" height="14.62"/>
      <rect class="cls-2" x="1951.11" y="1040.47" width="28.26" height="155.31"/>
      <rect class="cls-2" x="2012.97" y="1195.78" width="56.85" height="57.16"/>
      <path class="cls-2" d="M2511.42,881.66v23l0,92.46v39.94H2531V883.49l-2.64-1.83Z"/>
      <rect class="cls-2" x="2390.25" y="862.01" width="12.04" height="120.44"/>
      <g>
        <g>
          <g>
            <g>
              <rect class="cls-2" x="2187.13" y="1110.65" width="16.73" height="22.27"/>
              <rect class="cls-2" x="2218.42" y="1110.65" width="16.73" height="22.27"/>
              <rect class="cls-2" x="2249.01" y="1110.65" width="16.73" height="22.27"/>
              <rect class="cls-2" x="2278.01" y="1110.65" width="16.73" height="22.27"/>
              <rect class="cls-2" x="2307.56" y="1110.65" width="16.73" height="22.27"/>
            </g>
            <g>
              <rect class="cls-2" x="2337.46" y="1110.65" width="16.73" height="22.27"/>
              <rect class="cls-2" x="2368.75" y="1110.65" width="16.73" height="22.27"/>
              <rect class="cls-2" x="2399.33" y="1110.65" width="16.73" height="22.27"/>
              <rect class="cls-2" x="2428.34" y="1110.65" width="16.73" height="22.27"/>
              <rect class="cls-2" x="2457.89" y="1110.65" width="16.73" height="22.27"/>
            </g>
          </g>
          <g>
            <g>
              <rect class="cls-2" x="2488.7" y="1110.65" width="16.73" height="22.27"/>
              <rect class="cls-2" x="2519.98" y="1110.65" width="16.73" height="22.27"/>
              <rect class="cls-2" x="2550.57" y="1110.65" width="16.73" height="22.27"/>
              <rect class="cls-2" x="2579.57" y="1110.65" width="16.73" height="22.27"/>
              <rect class="cls-2" x="2609.13" y="1110.65" width="16.73" height="22.27"/>
            </g>
            <rect class="cls-2" x="2639.02" y="1110.65" width="16.73" height="22.27"/>
          </g>
        </g>
        <g>
          <g>
            <g>
              <rect class="cls-2" x="2187.13" y="1149.95" width="16.73" height="22.27"/>
              <rect class="cls-2" x="2218.42" y="1149.95" width="16.73" height="22.27"/>
              <rect class="cls-2" x="2249.01" y="1149.95" width="16.73" height="22.27"/>
              <rect class="cls-2" x="2278.01" y="1149.95" width="16.73" height="22.27"/>
              <rect class="cls-2" x="2307.56" y="1149.95" width="16.73" height="22.27"/>
            </g>
            <g>
              <rect class="cls-2" x="2337.46" y="1149.95" width="16.73" height="22.27"/>
              <rect class="cls-2" x="2368.75" y="1149.95" width="16.73" height="22.27"/>
              <rect class="cls-2" x="2399.33" y="1149.95" width="16.73" height="22.27"/>
              <rect class="cls-2" x="2428.34" y="1149.95" width="16.73" height="22.27"/>
              <rect class="cls-2" x="2457.89" y="1149.95" width="16.73" height="22.27"/>
            </g>
          </g>
          <g>
            <g>
              <rect class="cls-2" x="2488.7" y="1149.95" width="16.73" height="22.27"/>
              <rect class="cls-2" x="2519.98" y="1149.95" width="16.73" height="22.27"/>
              <rect class="cls-2" x="2550.57" y="1149.95" width="16.73" height="22.27"/>
              <rect class="cls-2" x="2579.57" y="1149.95" width="16.73" height="22.27"/>
              <rect class="cls-2" x="2609.13" y="1149.95" width="16.73" height="22.27"/>
            </g>
            <rect class="cls-2" x="2639.02" y="1149.95" width="16.73" height="22.27"/>
          </g>
        </g>
        <g>
          <g>
            <g>
              <rect class="cls-2" x="2187.13" y="1188.64" width="16.73" height="22.27"/>
              <rect class="cls-2" x="2218.42" y="1188.64" width="16.73" height="22.27"/>
              <rect class="cls-2" x="2249.01" y="1188.64" width="16.73" height="22.27"/>
              <rect class="cls-2" x="2278.01" y="1188.64" width="16.73" height="22.27"/>
              <rect class="cls-2" x="2307.56" y="1188.64" width="16.73" height="22.27"/>
            </g>
            <g>
              <rect class="cls-2" x="2337.46" y="1188.64" width="16.73" height="22.27"/>
              <rect class="cls-2" x="2368.75" y="1188.64" width="16.73" height="22.27"/>
              <rect class="cls-2" x="2399.33" y="1188.64" width="16.73" height="22.27"/>
              <rect class="cls-2" x="2428.34" y="1188.64" width="16.73" height="22.27"/>
              <rect class="cls-2" x="2457.89" y="1188.64" width="16.73" height="22.27"/>
            </g>
          </g>
          <g>
            <g>
              <rect class="cls-2" x="2488.7" y="1188.64" width="16.73" height="22.27"/>
              <rect class="cls-2" x="2519.98" y="1188.64" width="16.73" height="22.27"/>
              <rect class="cls-2" x="2550.57" y="1188.64" width="16.73" height="22.27"/>
              <rect class="cls-2" x="2579.57" y="1188.64" width="16.73" height="22.27"/>
              <rect class="cls-2" x="2609.13" y="1188.64" width="16.73" height="22.27"/>
            </g>
            <rect class="cls-2" x="2639.02" y="1188.64" width="16.73" height="22.27"/>
          </g>
        </g>
        <g>
          <g>
            <g>
              <g>
                <rect class="cls-2" x="2187.13" y="1229.75" width="16.73" height="22.27"/>
                <rect class="cls-2" x="2218.42" y="1229.75" width="16.73" height="22.27"/>
                <rect class="cls-2" x="2249.01" y="1229.75" width="16.73" height="22.27"/>
                <rect class="cls-2" x="2278.01" y="1229.75" width="16.73" height="22.27"/>
                <rect class="cls-2" x="2307.56" y="1229.75" width="16.73" height="22.27"/>
              </g>
              <g>
                <rect class="cls-2" x="2337.46" y="1229.75" width="16.73" height="22.27"/>
                <rect class="cls-2" x="2368.75" y="1229.75" width="16.73" height="22.27"/>
                <rect class="cls-2" x="2399.33" y="1229.75" width="16.73" height="22.27"/>
                <rect class="cls-2" x="2428.34" y="1229.75" width="16.73" height="22.27"/>
                <rect class="cls-2" x="2457.89" y="1229.75" width="16.73" height="22.27"/>
              </g>
            </g>
            <g>
              <g>
                <rect class="cls-2" x="2488.7" y="1229.75" width="16.73" height="22.27"/>
                <rect class="cls-2" x="2519.98" y="1229.75" width="16.73" height="22.27"/>
                <rect class="cls-2" x="2550.57" y="1229.75" width="16.73" height="22.27"/>
                <rect class="cls-2" x="2579.57" y="1229.75" width="16.73" height="22.27"/>
                <rect class="cls-2" x="2609.13" y="1229.75" width="16.73" height="22.27"/>
              </g>
              <rect class="cls-2" x="2639.02" y="1229.75" width="16.73" height="22.27"/>
            </g>
          </g>
          <g>
            <g>
              <g>
                <rect class="cls-2" x="2187.13" y="1269.05" width="16.73" height="22.27"/>
                <rect class="cls-2" x="2218.42" y="1269.05" width="16.73" height="22.27"/>
                <rect class="cls-2" x="2249.01" y="1269.05" width="16.73" height="22.27"/>
                <rect class="cls-2" x="2278.01" y="1269.05" width="16.73" height="22.27"/>
                <rect class="cls-2" x="2307.56" y="1269.05" width="16.73" height="22.27"/>
              </g>
              <g>
                <rect class="cls-2" x="2337.46" y="1269.05" width="16.73" height="22.27"/>
                <rect class="cls-2" x="2368.75" y="1269.05" width="16.73" height="22.27"/>
                <rect class="cls-2" x="2399.33" y="1269.05" width="16.73" height="22.27"/>
                <rect class="cls-2" x="2428.34" y="1269.05" width="16.73" height="22.27"/>
                <rect class="cls-2" x="2457.89" y="1269.05" width="16.73" height="22.27"/>
              </g>
            </g>
            <g>
              <g>
                <rect class="cls-2" x="2488.7" y="1269.05" width="16.73" height="22.27"/>
                <rect class="cls-2" x="2519.98" y="1269.05" width="16.73" height="22.27"/>
                <rect class="cls-2" x="2550.57" y="1269.05" width="16.73" height="22.27"/>
                <rect class="cls-2" x="2579.57" y="1269.05" width="16.73" height="22.27"/>
                <rect class="cls-2" x="2609.13" y="1269.05" width="16.73" height="22.27"/>
              </g>
              <rect class="cls-2" x="2639.02" y="1269.05" width="16.73" height="22.27"/>
            </g>
          </g>
          <g>
            <g>
              <g>
                <rect class="cls-2" x="2187.13" y="1307.75" width="16.73" height="22.27"/>
                <rect class="cls-2" x="2218.42" y="1307.75" width="16.73" height="22.27"/>
                <rect class="cls-2" x="2249.01" y="1307.75" width="16.73" height="22.27"/>
                <rect class="cls-2" x="2278.01" y="1307.75" width="16.73" height="22.27"/>
                <rect class="cls-2" x="2307.56" y="1307.75" width="16.73" height="22.27"/>
              </g>
              <g>
                <rect class="cls-2" x="2337.46" y="1307.75" width="16.73" height="22.27"/>
                <rect class="cls-2" x="2368.75" y="1307.75" width="16.73" height="22.27"/>
                <rect class="cls-2" x="2399.33" y="1307.75" width="16.73" height="22.27"/>
                <rect class="cls-2" x="2428.34" y="1307.75" width="16.73" height="22.27"/>
                <rect class="cls-2" x="2457.89" y="1307.75" width="16.73" height="22.27"/>
              </g>
            </g>
            <g>
              <g>
                <rect class="cls-2" x="2488.7" y="1307.75" width="16.73" height="22.27"/>
                <rect class="cls-2" x="2519.98" y="1307.75" width="16.73" height="22.27"/>
                <rect class="cls-2" x="2550.57" y="1307.75" width="16.73" height="22.27"/>
                <rect class="cls-2" x="2579.57" y="1307.75" width="16.73" height="22.27"/>
                <rect class="cls-2" x="2609.13" y="1307.75" width="16.73" height="22.27"/>
              </g>
              <rect class="cls-2" x="2639.02" y="1307.75" width="16.73" height="22.27"/>
            </g>
          </g>
        </g>
      </g>
      <rect class="cls-2" x="2069.82" y="1377.52" width="387.79" height="197.56"/>
      <rect class="cls-2" x="1775.77" y="1476.3" width="387.79" height="98.78"/>
      <rect class="cls-3" x="2095.72" y="1400.65" width="72.25" height="36.59"/>
      <rect class="cls-3" x="2188.47" y="1400.65" width="72.25" height="36.59"/>
      <rect class="cls-3" x="2279.45" y="1400.65" width="72.25" height="36.59"/>
      <rect class="cls-3" x="2368.68" y="1400.65" width="72.25" height="36.59"/>
      <rect class="cls-4" x="1890.78" y="1025" width="2.02" height="15.47"/>
      <rect class="cls-4" x="1963.2" y="1025" width="2.02" height="15.47"/>
      <rect class="cls-3" x="1566.93" y="1404.38" width="266.26" height="169.1"/>
      <rect class="cls-2" x="1566.93" y="1382.28" width="266.26" height="54.96"/>
      <g>
        <g>
          <g>
            <rect class="cls-2" x="1585.06" y="1453.53" width="13.67" height="18.2"/>
            <rect class="cls-2" x="1610.63" y="1453.53" width="13.67" height="18.2"/>
            <rect class="cls-2" x="1635.63" y="1453.53" width="13.67" height="18.2"/>
            <rect class="cls-2" x="1659.33" y="1453.53" width="13.67" height="18.2"/>
            <rect class="cls-2" x="1683.49" y="1453.53" width="13.67" height="18.2"/>
          </g>
          <g>
            <rect class="cls-2" x="1707.92" y="1453.53" width="13.67" height="18.2"/>
            <rect class="cls-2" x="1733.5" y="1453.53" width="13.67" height="18.2"/>
            <rect class="cls-2" x="1758.49" y="1453.53" width="13.67" height="18.2"/>
            <rect class="cls-2" x="1782.2" y="1453.53" width="13.67" height="18.2"/>
            <rect class="cls-2" x="1806.36" y="1453.53" width="13.67" height="18.2"/>
          </g>
        </g>
        <g>
          <g>
            <rect class="cls-2" x="1585.06" y="1485.65" width="13.67" height="18.2"/>
            <rect class="cls-2" x="1610.63" y="1485.65" width="13.67" height="18.2"/>
            <rect class="cls-2" x="1635.63" y="1485.65" width="13.67" height="18.2"/>
            <rect class="cls-2" x="1659.33" y="1485.65" width="13.67" height="18.2"/>
            <rect class="cls-2" x="1683.49" y="1485.65" width="13.67" height="18.2"/>
          </g>
          <g>
            <rect class="cls-2" x="1707.92" y="1485.65" width="13.67" height="18.2"/>
            <rect class="cls-2" x="1733.5" y="1485.65" width="13.67" height="18.2"/>
            <rect class="cls-2" x="1758.49" y="1485.65" width="13.67" height="18.2"/>
            <rect class="cls-2" x="1782.2" y="1485.65" width="13.67" height="18.2"/>
            <rect class="cls-2" x="1806.36" y="1485.65" width="13.67" height="18.2"/>
          </g>
        </g>
        <g>
          <g>
            <rect class="cls-2" x="1585.06" y="1517.28" width="13.67" height="18.2"/>
            <rect class="cls-2" x="1610.63" y="1517.28" width="13.67" height="18.2"/>
            <rect class="cls-2" x="1635.63" y="1517.28" width="13.67" height="18.2"/>
            <rect class="cls-2" x="1659.33" y="1517.28" width="13.67" height="18.2"/>
            <rect class="cls-2" x="1683.49" y="1517.28" width="13.67" height="18.2"/>
          </g>
          <g>
            <rect class="cls-2" x="1707.92" y="1517.28" width="13.67" height="18.2"/>
            <rect class="cls-2" x="1733.5" y="1517.28" width="13.67" height="18.2"/>
            <rect class="cls-2" x="1758.49" y="1517.28" width="13.67" height="18.2"/>
            <rect class="cls-2" x="1782.2" y="1517.28" width="13.67" height="18.2"/>
            <rect class="cls-2" x="1806.36" y="1517.28" width="13.67" height="18.2"/>
          </g>
        </g>
      </g>
      <rect class="cls-3" x="1299.93" y="1404.38" width="266.26" height="169.1"/>
      <rect class="cls-2" x="1299.93" y="1382.28" width="266.26" height="54.96"/>
      <g>
        <g>
          <g>
            <rect class="cls-2" x="1318.06" y="1453.53" width="13.67" height="18.2"/>
            <rect class="cls-2" x="1343.63" y="1453.53" width="13.67" height="18.2"/>
            <rect class="cls-2" x="1368.63" y="1453.53" width="13.67" height="18.2"/>
            <rect class="cls-2" x="1392.33" y="1453.53" width="13.67" height="18.2"/>
            <rect class="cls-2" x="1416.49" y="1453.53" width="13.67" height="18.2"/>
          </g>
          <g>
            <rect class="cls-2" x="1440.93" y="1453.53" width="13.67" height="18.2"/>
            <rect class="cls-2" x="1466.5" y="1453.53" width="13.67" height="18.2"/>
            <rect class="cls-2" x="1491.5" y="1453.53" width="13.67" height="18.2"/>
            <rect class="cls-2" x="1515.2" y="1453.53" width="13.67" height="18.2"/>
            <rect class="cls-2" x="1539.36" y="1453.53" width="13.67" height="18.2"/>
          </g>
        </g>
        <g>
          <g>
            <rect class="cls-2" x="1318.06" y="1485.65" width="13.67" height="18.2"/>
            <rect class="cls-2" x="1343.63" y="1485.65" width="13.67" height="18.2"/>
            <rect class="cls-2" x="1368.63" y="1485.65" width="13.67" height="18.2"/>
            <rect class="cls-2" x="1392.33" y="1485.65" width="13.67" height="18.2"/>
            <rect class="cls-2" x="1416.49" y="1485.65" width="13.67" height="18.2"/>
          </g>
          <g>
            <rect class="cls-2" x="1440.93" y="1485.65" width="13.67" height="18.2"/>
            <rect class="cls-2" x="1466.5" y="1485.65" width="13.67" height="18.2"/>
            <rect class="cls-2" x="1491.5" y="1485.65" width="13.67" height="18.2"/>
            <rect class="cls-2" x="1515.2" y="1485.65" width="13.67" height="18.2"/>
            <rect class="cls-2" x="1539.36" y="1485.65" width="13.67" height="18.2"/>
          </g>
        </g>
        <g>
          <g>
            <rect class="cls-2" x="1318.06" y="1517.28" width="13.67" height="18.2"/>
            <rect class="cls-2" x="1343.63" y="1517.28" width="13.67" height="18.2"/>
            <rect class="cls-2" x="1368.63" y="1517.28" width="13.67" height="18.2"/>
            <rect class="cls-2" x="1392.33" y="1517.28" width="13.67" height="18.2"/>
            <rect class="cls-2" x="1416.49" y="1517.28" width="13.67" height="18.2"/>
          </g>
          <g>
            <rect class="cls-2" x="1440.93" y="1517.28" width="13.67" height="18.2"/>
            <rect class="cls-2" x="1466.5" y="1517.28" width="13.67" height="18.2"/>
            <rect class="cls-2" x="1491.5" y="1517.28" width="13.67" height="18.2"/>
            <rect class="cls-2" x="1515.2" y="1517.28" width="13.67" height="18.2"/>
            <rect class="cls-2" x="1539.36" y="1517.28" width="13.67" height="18.2"/>
          </g>
        </g>
      </g>
      <rect class="cls-3" x="1016.32" y="1404.38" width="266.26" height="169.1"/>
      <rect class="cls-2" x="1016.32" y="1382.28" width="266.26" height="54.96"/>
      <g>
        <g>
          <g>
            <rect class="cls-2" x="1034.45" y="1453.53" width="13.67" height="18.2"/>
            <rect class="cls-2" x="1060.02" y="1453.53" width="13.67" height="18.2"/>
            <rect class="cls-2" x="1085.02" y="1453.53" width="13.67" height="18.2"/>
            <rect class="cls-2" x="1108.72" y="1453.53" width="13.67" height="18.2"/>
            <rect class="cls-2" x="1132.88" y="1453.53" width="13.67" height="18.2"/>
          </g>
          <g>
            <rect class="cls-2" x="1157.32" y="1453.53" width="13.67" height="18.2"/>
            <rect class="cls-2" x="1182.89" y="1453.53" width="13.67" height="18.2"/>
            <rect class="cls-2" x="1207.89" y="1453.53" width="13.67" height="18.2"/>
            <rect class="cls-2" x="1231.59" y="1453.53" width="13.67" height="18.2"/>
            <rect class="cls-2" x="1255.75" y="1453.53" width="13.67" height="18.2"/>
          </g>
        </g>
        <g>
          <g>
            <rect class="cls-2" x="1034.45" y="1485.65" width="13.67" height="18.2"/>
            <rect class="cls-2" x="1060.02" y="1485.65" width="13.67" height="18.2"/>
            <rect class="cls-2" x="1085.02" y="1485.65" width="13.67" height="18.2"/>
            <rect class="cls-2" x="1108.72" y="1485.65" width="13.67" height="18.2"/>
            <rect class="cls-2" x="1132.88" y="1485.65" width="13.67" height="18.2"/>
          </g>
          <g>
            <rect class="cls-2" x="1157.32" y="1485.65" width="13.67" height="18.2"/>
            <rect class="cls-2" x="1182.89" y="1485.65" width="13.67" height="18.2"/>
            <rect class="cls-2" x="1207.89" y="1485.65" width="13.67" height="18.2"/>
            <rect class="cls-2" x="1231.59" y="1485.65" width="13.67" height="18.2"/>
            <rect class="cls-2" x="1255.75" y="1485.65" width="13.67" height="18.2"/>
          </g>
        </g>
        <g>
          <g>
            <rect class="cls-2" x="1034.45" y="1517.28" width="13.67" height="18.2"/>
            <rect class="cls-2" x="1060.02" y="1517.28" width="13.67" height="18.2"/>
            <rect class="cls-2" x="1085.02" y="1517.28" width="13.67" height="18.2"/>
            <rect class="cls-2" x="1108.72" y="1517.28" width="13.67" height="18.2"/>
            <rect class="cls-2" x="1132.88" y="1517.28" width="13.67" height="18.2"/>
          </g>
          <g>
            <rect class="cls-2" x="1157.32" y="1517.28" width="13.67" height="18.2"/>
            <rect class="cls-2" x="1182.89" y="1517.28" width="13.67" height="18.2"/>
            <rect class="cls-2" x="1207.89" y="1517.28" width="13.67" height="18.2"/>
            <rect class="cls-2" x="1231.59" y="1517.28" width="13.67" height="18.2"/>
            <rect class="cls-2" x="1255.75" y="1517.28" width="13.67" height="18.2"/>
          </g>
        </g>
      </g>
    </g>
    <path class="cls-5" d="M2637.94,639.3c40-148.75,18.59-286-92.72-397.25-1.44-1.41-2.91-2.81-4.38-4.2L280.12,850.55c-13,50.41-18.36,99.26-20.39,147q-.93,24.36-.6,49.08l2336.14-291.5C2612.47,717.38,2626.83,680.19,2637.94,639.3Z"/>
    <path class="cls-6" d="M1746.17,1567.15H368.4c-4.44-11.28-15.27-39.64-28.48-80.14-9.54-29.22-20.3-64.76-30.8-104.77-7.32-27.9-14.5-58-21.05-89.6V1273l137.61-112s284.86-9.22,402.24,125.36,445.29,19.9,534.61,96.52,163.47,144.71,249,125.78S1746.17,1567.15,1746.17,1567.15Z"/>
    <path class="cls-7" d="M1060,462.39,404.75,614.17c30-38.89,60.54-72.43,91.44-101.34Z"/>
    <circle class="cls-7" cx="2055.34" cy="241.95" r="36.67" transform="translate(1347.64 2186.72) rotate(-76.72)"/>
    <path class="cls-8" d="M2708.15,1566.44h-108.6c-5.82-4.94,4-16.15,14.32-16.9,4.47-.34,10.12.59,16.57,2,1.5-19.85,10-109.08,42.2-105.5,36.16,4,0,39.3-10.23,60.19-7.57,15.47-15.56,37.66-19.21,48.13,2.94.63,6,1.26,9.08,1.83,4.79-14.72,22.63-64.23,45.31-61.34,26.63,3.38,15.93,23.22-3,35-13.85,8.66-30.85,21-38.93,26.92a115,115,0,0,0,21.24,1.71C2695.55,1558,2704.63,1563.49,2708.15,1566.44Z"/>
    <path class="cls-8" d="M1060.14,1564.45c-3.37-5.3-13.52-19-27.05-17.23-14.73,2,16.28,11.69,25.77,17.27a15.82,15.82,0,0,1-5.25-.61c-6.35-2.27-17.22,2.07-20.69,3.59h60.41A9.52,9.52,0,0,0,1089,1562c-1-.61-3-.69-5.56-.5,3.6-4.23,6.09-17.76-3.91-14.28-7.31,2.55-7.29,10.81-6.57,15.7-1.55.25-3.13.49-4.69.71-3-15.32-13.64-60.25-35.21-61.45-21.86-1.22,18.54,46.59,32,61.88C1063.34,1564.22,1061.68,1564.38,1060.14,1564.45Z"/>
    <g>
      <path class="cls-9" d="M1795.08,1152.51c-12.6,13.72-31.49,27.87-1.46,59.26,38.51,40.22,98.08,213.53,98.08,213.53-2,6.62.06,15.81-4.65,18.51-7.62,4.37-27.07-9-27.07-9s-176.88-183.23-191.23-224.43c-10.6-30.42,43.57-177.79,76-255,11.48-27.36,20.23-45.91,22.41-47.35.33-.22.67-.43,1-.63,19.06-12.08,37-10.54,53-1.28a77.68,77.68,0,0,1,10,7c39.57,32.1,65,108.26,62.36,124.09-1.83,11-21.13,34.36-42.32,57.34-4.4,4.77-8.87,9.52-13.29,14.15C1818.64,1128.87,1800.48,1146.63,1795.08,1152.51Z"/>
      <path class="cls-10" d="M1851.19,1094.54c-4.4,4.77-8.87,9.52-13.29,14.15l-93.17-153.27c11.48-27.36,20.23-45.91,22.41-47.35.33-.22.67-.43,1-.63l53-1.28,9.58-.22.41,7.17Z"/>
      <path class="cls-11" d="M1798.46,561.38s19.82,48.44,14.68,77.27-73.36,172.43-98.24,197-189.75-80-189.75-80l16.23-15.51S1671.8,773.39,1678.71,763,1718.81,547.92,1798.46,561.38Z"/>
      <path class="cls-9" d="M1794.55,941s33.83,169.17,119.2,288.19c82.5,115,125.42,291.29,125.42,291.29s5.47,4.27,16.25-.31,18,1,20.18-4.26c0,0-15.59-278.24-58.4-339.16-24.19-34.42-37.08-160.77-36.26-195.16s-14.22-76.53-14.22-76.53Z"/>
      <g>
        <path class="cls-12" d="M2074.8,1565.94l-20,.14c-6.69-1-11.64-2.91-18.51-3.76-10.42-1.29-15.18,3-16.13,4a1.85,1.85,0,0,0-.18.2l-84.79.6c-2.16-3-.16-10.11,1.81-15.31a12,12,0,0,1,7.89-7.31c9-2.67,26.68-5.11,42.81-19.92,9.08-8.32,43.89-30.66,43.89-30.66l.18,0c.77,0,4.44,1.11,20.44,14.42,8.27,6.87,22.16-9.94,22.16-9.94a19.94,19.94,0,0,1,4.64,6.2,21.09,21.09,0,0,1,1.92,13c-1.22,7.65,3,21.82,6.29,31.4,2,5.81,3.71,9.92,3.71,9.92S2092,1563.67,2074.8,1565.94Z"/>
        <path class="cls-12" d="M2079.05,1504.56c-4.74,3.39-14.75,10.08-21.42,11-9,1.24-26-21.63-26-21.63l.18,0c.77,0,4.44,1.11,20.44,14.42,8.27,6.87,22.16-9.94,22.16-9.94A19.94,19.94,0,0,1,2079.05,1504.56Z"/>
        <path class="cls-12" d="M2074.8,1565.94l-20,.14c-6.69-1-11.64-2.91-18.51-3.76-10.42-1.29-15.18,3-16.13,4a1.85,1.85,0,0,0-.18.2l-84.79.6c-2.16-3-.16-10.11,1.81-15.31,2.56-2.31,3.37,9.92,4.81,11.86s69.17.23,73.06-2.65,15.6-7.93,32-4.13c14.26,3.3,35.18-5.57,40.36-7.93,2,5.81,3.71,9.92,3.71,9.92S2092,1563.67,2074.8,1565.94Z"/>
      </g>
      <path class="cls-13" d="M1971.89,798.71c.07-94.85-17.29-231.73-41-242.25-20.15-8.93-64.12-21.7-109.44-21-35.77.55-112,17.27-119.77,76.38-4.91,37.41-6.89,68.24-6.89,68.24s8.2,23.87,30.8,30.28c2.82,10.56,4.11,21,7.47,29.91,37.55,98.88,19.11,197.82,19.11,197.82,34.56,28.75,206.55,11.92,223.88.61C2004.27,920.27,1971.82,893.56,1971.89,798.71Z"/>
      <g>
        <path class="cls-12" d="M1930.67,1449l-14.32,13.91c-5.53,3.9-10.42,6-16,10.09-8.42,6.27-8.89,12.68-8.89,14,0,.18,0,.28,0,.28l-60.84,59.07c-3.65-.7-7.09-7.19-9.27-12.31a12.06,12.06,0,0,1,.64-10.74c4.63-8.13,15.74-22.14,17.14-44,.81-12.28,10.5-52.49,10.5-52.49l.11-.16c.56-.53,4-2.27,24.73-3.71,10.73-.76,9.14-22.52,9.14-22.52a20,20,0,0,1,7.63,1.27,21.07,21.07,0,0,1,10.38,8.07c4.41,6.37,17.23,13.71,26.26,18.33,5.47,2.79,9.54,4.59,9.54,4.59S1941.5,1435.53,1930.67,1449Z"/>
        <path class="cls-12" d="M1891.29,1401.76c-1.08,5.73-3.68,17.48-7.87,22.76-5.63,7.12-33.74,2.36-33.74,2.36l.11-.16c.56-.53,4-2.27,24.73-3.71,10.73-.76,9.14-22.52,9.14-22.52A20,20,0,0,1,1891.29,1401.76Z"/>
        <path class="cls-12" d="M1930.67,1449l-14.32,13.91c-5.53,3.9-10.42,6-16,10.09-8.42,6.27-8.89,12.68-8.89,14,0,.18,0,.28,0,.28l-60.84,59.07c-3.65-.7-7.09-7.19-9.27-12.31.25-3.44,9.29,4.83,11.67,5.24s50.12-47.68,51-52.45,5.77-16.51,20.24-25.1c12.58-7.48,21.56-28.36,23.67-33.64,5.47,2.79,9.54,4.59,9.54,4.59S1941.5,1435.53,1930.67,1449Z"/>
      </g>
      <path class="cls-11" d="M1881.57,569s52.33-.57,77.23,14.84,133.25,131.76,146.93,163.94-112.06,123.93-112.06,123.93l-17.73-28.22s56-78.6,48.88-88.85S1839.7,638.05,1881.57,569Z"/>
      <path class="cls-11" d="M1982.55,839.13l20.88,16.09s-18.37,39.65-28.4,43.38l-1,.2c-10.78,2.16-37.55-15.34-42-33.41a10.06,10.06,0,0,1,.25-5.22c4.14-10.93,29.23-17.14,42.34-19.68C1979.36,839.57,1982.55,839.13,1982.55,839.13Z"/>
      <path class="cls-11" d="M1555.77,743.69l-10.46,24.2s-43-8.06-49-16.87l-.45-.95c-4.74-9.92,5.64-40.16,22.06-48.94a10,10,0,0,1,5.12-1c11.61,1.32,23.8,24.12,29.48,36.21C1554.56,740.71,1555.77,743.69,1555.77,743.69Z"/>
      <path class="cls-13" d="M1861.77,538.07s48.53,2.18,83.37,23.81c16,10,77.68,68.36,77.68,68.36s-6.83,61-80.24,77.56c-74.72,16.84-86.73-108-86.73-108Z"/>
      <path class="cls-11" d="M1848.47,539a10.41,10.41,0,0,1,.19,11.41c-6.51,10.33-24.75,28.19-72.27,24.92-16.28-1.12-20-13.43-9.71-26.09,2.51-3.08,1.66-20.81,1.39-27.92a232.14,232.14,0,0,1-.33-25.67l33.67-23.05,31.94-22.07C1828.09,502.11,1841.74,529.09,1848.47,539Z"/>
      <path class="cls-14" d="M1832.19,476.41s-23.5,36.82-64.12,44.86a232.14,232.14,0,0,1-.33-25.67l33.67-23.05Z"/>
      <path class="cls-11" d="M1753.22,493.53s78.27,18.19,88.92-30,27.93-78.23-21.59-91.88-63.33,2.62-70.86,17.83S1733.14,487.56,1753.22,493.53Z"/>
      <path class="cls-15" d="M1877.26,369.6c.77-.78,2.47-1.33,6.17-1.29a15,15,0,0,0-6.76-2.4c-.43-5.17-2.56-14.43-11.23-17.22a11.08,11.08,0,0,1,4.83,8.33c-9.53-11.17-30.92-20.26-91.88-19.49-80.33,1-57.39,53.92-47.44,60.71s37.09-8.21,56.27-5.41,21,30.91,27.28,35.16,4.16-2.67,13.27-6.08,9,11.3,5.8,20.67,8.13,22.74,8.13,22.74l13.17-12.42c13.16-12.41,28.45-67.69,23.66-80Z"/>
      <path class="cls-16" d="M1746.49,463.09a12.1,12.1,0,0,0,10.06,8.06,16.4,16.4,0,0,0,13.13-4.73S1756.67,460.37,1746.49,463.09Z"/>
    </g>
    <g>
      <path class="cls-17" d="M2217.1,882.51h-6.45l.06-.51,1.94-17.21a1.11,1.11,0,0,1,1.09-1l.21,0a1.79,1.79,0,0,1,1,.43,1.74,1.74,0,0,1,.55,1.11Z"/>
      <path class="cls-18" d="M2211.27,878.6H2211l1.61-13.82a1.11,1.11,0,0,1,1.09-1l.21,0a1.29,1.29,0,0,1,.17.16,1.73,1.73,0,0,1,.46,1.15l.09,9.94A3.48,3.48,0,0,1,2211.27,878.6Z"/>
      <rect class="cls-17" x="2208.77" y="959.12" width="12.45" height="549.6"/>
      <rect class="cls-18" x="2208.77" y="959.12" width="5.75" height="549.6"/>
      <rect class="cls-17" x="2195.17" y="1421.02" width="39.64" height="145.42"/>
      <rect class="cls-18" x="2195.17" y="1421.02" width="23.63" height="145.42"/>
      <path class="cls-17" d="M2236.66,890.8c0,6.8-10.2,12.3-22.78,12.3-1,0-1.91,0-2.84-.1-11.24-.75-19.95-5.92-19.95-12.2s8.71-11.44,19.95-12.19c.93-.07,1.88-.1,2.84-.1C2226.46,878.51,2236.66,884,2236.66,890.8Z"/>
      <path class="cls-18" d="M2224.86,890.8c0,5.48-5.69,10.18-13.82,12.2-11.24-.75-19.95-5.92-19.95-12.2s8.71-11.44,19.95-12.19C2219.17,880.63,2224.86,885.33,2224.86,890.8Z"/>
      <polygon class="cls-18" points="2234.77 969.96 2195.12 969.96 2181.15 902.66 2246.6 902.66 2234.77 969.96"/>
      <rect class="cls-17" x="2177.61" y="897.59" width="72.53" height="6.46"/>
      <rect class="cls-18" x="2177.61" y="897.59" width="45.59" height="6.46"/>
      <path class="cls-17" d="M2201.66,1421H2227l-3.71-11.25a2.44,2.44,0,0,0-2.31-1.67h-11.87a3.18,3.18,0,0,0-2.94,2Z"/>
      <polygon class="cls-6" points="2185.83 905.94 2241.74 905.94 2230.82 966.43 2198.72 966.43 2185.83 905.94"/>
      <path class="cls-6" d="M2192.6,891.53s4.26-9.3,12.67-9c0,0-5.35,4.76-4.86,9S2192.6,891.53,2192.6,891.53Z"/>
      <polygon class="cls-17" points="2245.51 897.59 2182.25 897.59 2187.43 890.22 2240.59 890.22 2245.51 897.59"/>
      <polygon class="cls-18" points="2229.93 897.59 2182.25 897.59 2187.43 890.22 2225.01 890.22 2229.93 897.59"/>
      <polygon class="cls-19" points="2189.54 908.05 2202.36 908.05 2206.09 964.54 2202.36 964.54 2189.54 908.05"/>
    </g>
    <g>
      <path class="cls-17" d="M943.64,882.51h-6.45l0-.51,2-17.21a1.11,1.11,0,0,1,1.09-1l.21,0a1.79,1.79,0,0,1,1,.43,1.74,1.74,0,0,1,.55,1.11Z"/>
      <path class="cls-18" d="M937.81,878.6h-.23l1.61-13.82a1.11,1.11,0,0,1,1.09-1l.21,0a1.29,1.29,0,0,1,.17.16,1.73,1.73,0,0,1,.46,1.15l.09,9.94A3.48,3.48,0,0,1,937.81,878.6Z"/>
      <rect class="cls-17" x="935.31" y="959.12" width="12.45" height="549.6"/>
      <rect class="cls-18" x="935.31" y="959.12" width="5.75" height="549.6"/>
      <rect class="cls-17" x="921.71" y="1421.02" width="39.64" height="145.42"/>
      <rect class="cls-18" x="921.71" y="1421.02" width="23.63" height="145.42"/>
      <path class="cls-17" d="M963.2,890.8c0,6.8-10.2,12.3-22.78,12.3-1,0-1.91,0-2.84-.1-11.24-.75-20-5.92-20-12.2s8.71-11.44,20-12.19c.93-.07,1.87-.1,2.84-.1C953,878.51,963.2,884,963.2,890.8Z"/>
      <path class="cls-18" d="M951.4,890.8c0,5.48-5.69,10.18-13.82,12.2-11.24-.75-20-5.92-20-12.2s8.71-11.44,20-12.19C945.71,880.63,951.4,885.33,951.4,890.8Z"/>
      <polygon class="cls-18" points="961.31 969.96 921.66 969.96 907.69 902.66 973.14 902.66 961.31 969.96"/>
      <rect class="cls-17" x="904.15" y="897.59" width="72.53" height="6.46"/>
      <rect class="cls-18" x="904.15" y="897.59" width="45.59" height="6.46"/>
      <path class="cls-17" d="M928.2,1421h25.34l-3.71-11.25a2.44,2.44,0,0,0-2.31-1.67H935.65a3.18,3.18,0,0,0-2.94,2Z"/>
      <polygon class="cls-6" points="912.37 905.94 968.28 905.94 957.36 966.43 925.25 966.43 912.37 905.94"/>
      <path class="cls-6" d="M919.14,891.53s4.26-9.3,12.67-9c0,0-5.35,4.76-4.86,9S919.14,891.53,919.14,891.53Z"/>
      <polygon class="cls-17" points="972.04 897.59 908.79 897.59 913.97 890.22 967.13 890.22 972.04 897.59"/>
      <polygon class="cls-18" points="956.47 897.59 908.79 897.59 913.97 890.22 951.55 890.22 956.47 897.59"/>
      <polygon class="cls-19" points="916.08 908.05 928.89 908.05 932.63 964.54 928.89 964.54 916.08 908.05"/>
    </g>
    <path class="cls-11" d="M1309.15,715.21l-.08.06C1308.9,715.3,1308.93,715.28,1309.15,715.21Z"/>
    <g>
      <path class="cls-13" d="M1310.23,1014.93v.18c0,.09,0,.21,0,.36-.42,16.09-1.56,32.9-3.21,49.88-2.38,24.48-5.8,49.27-9.58,72.68v0c-.66,4.06-1.34,8.09-2,12.06-.54,3.27-1.09,6.53-1.67,9.71-1.3,7.28-2.6,14.36-3.89,21.18-1.07,5.59-2.13,11-3.17,16.22-6.71,33.44-12.68,58.17-14.52,65.57,0,0,0,0,0,0-.36,1.44,1.41,6.21,2,7.57,18.51,42.54,14.23,59.65,10.51,101.15-7.49,83.44-26.88,158.45-26.88,158.45l-32.8,30.84s10.38-57.45-2.43-160.48a1042.34,1042.34,0,0,0-19.83-109.57c-10.64-45.33-36.34-163.29-39.51-250.07-.33-9,2.38-99.54,19.87-136.24,4.53-9.53,40.12,13,40.12,13l36.59.28,36.47.28c.29.56.58,1.13.86,1.71,6.21,12.79,9.93,29.7,11.8,49.2A393.13,393.13,0,0,1,1310.23,1014.93Z"/>
      <path class="cls-12" d="M1310.23,1014.93v.18c0,.09,0,.21,0,.36-.42,16.09-1.56,32.9-3.21,49.88-2.38,24.48-5.8,49.27-9.58,72.68v0c-.66,4.06-1.34,8.09-2,12.06-.54,3.27-1.09,6.53-1.67,9.71-1.3,7.28-2.6,14.36-3.89,21.18-1.07,5.59-2.13,11-3.17,16.22,0,0-99.73-235.62-100.76-238.72l73.87-40.72,36.47.28c.29.56.58,1.13.86,1.71,6.21,12.79,9.93,29.7,11.8,49.2A393.13,393.13,0,0,1,1310.23,1014.93Z"/>
      <path class="cls-9" d="M1221.38,1569.09l.13-.14c.65-.66,3.93-3.54,11-2.56,4.66.63,8,2,12.54,2.71l13.55.09c11.68-1.39,11.05-4.65,11.05-4.65s-1.11-2.81-2.43-6.77c-2.17-6.53-4.89-16.19-4-21.38a14.39,14.39,0,0,0-1.18-8.85,13.59,13.59,0,0,0-3.1-4.25s-9.59,11.3-15.14,6.55c-10.75-9.18-13.23-10-13.75-10l-.12,0s-23.85,14.86-30.09,20.42c-11.08,9.92-23.13,11.41-29.25,13.14a8.19,8.19,0,0,0-5.42,4.9c-1.39,3.52-2.81,8.3-1.37,10.38Z"/>
      <path class="cls-11" d="M1197,650s-22.86,145.19-59.71,200.77C1118.81,878.74,991,770.61,991,770.61l14.72-8.77s100.11,49,103.39,43.36,14.38-122,34.45-138.29S1197,650,1197,650Z"/>
      <path class="cls-12" d="M1206.72,582.62s-28.9-1.69-41.89-48c-10-35.8,10.08-79.86,61.7-75.94,0,0,34.14-3.34,45.9,24.68,5.19,12.38,13.64,17.27-1.31,62.86l-3.65,15.31Z"/>
      <path class="cls-12" d="M1264.84,540.16s17.54,20.54,37.47,16.65,59.44-16.77,74.74,1.42-6.1,59.63,9,75.13,3,63-66.07,47.23-66.61-92.14-65.34-102.6S1264.84,540.16,1264.84,540.16Z"/>
      <path class="cls-13" d="M1591.58,1318.42l-3.1,20.82s-82.84-25.7-175.67-50.32c-29.27-7.77-59.54-15.43-88.51-22.14-29.68-6.88-117.8-385.8-117.8-385.8s130.25-13,164,51c52.75,100.1-6.34,268.32,35,274.53a148.84,148.84,0,0,1,30.23,8.31C1507.07,1241.82,1591.58,1318.42,1591.58,1318.42Z"/>
      <path class="cls-9" d="M1166.88,649.4s40-19.21,78.73-22.09,84.73,1.75,94.83,12c5.22,5.31,22.24,47,15,80.2-8.2,37.5-11.12,55.77-11.76,79.4-1.26,46.48,12.67,71.27,31.3,123.59,12.23,34.34-114,106.16-205.78,37.8,2.92-38.06,16.61-129.61,6.64-146.53C1147,764.84,1148,662.86,1166.88,649.4Z"/>
      <path class="cls-11" d="M1340.89,639.59s96.11,110,106.62,141.81-135.69,95.17-135.69,95.17l-6.11-23s84-67.55,81.51-73.59-64.54-61.72-65.35-87.58S1340.89,639.59,1340.89,639.59Z"/>
      <path class="cls-11" d="M1223.06,666c-38.24,1.21-23.61-17.66-18.72-24.37a10.8,10.8,0,0,0,1.55-3c2.68-8.1,2.43-24.23,1.67-35.16-.82-11.74-2.37-24-2.9-28.14h0l-.2-1.42,47.87-12.85,8.54,15.24,1.78,3.2a165.91,165.91,0,0,0,4.56,25.24c2.34,9,5.51,17.78,9.4,21.91C1279.28,629.47,1281.23,664.19,1223.06,666Z"/>
      <path class="cls-20" d="M1267.21,604.73c-36.68-.91-61.9-28.67-62.55-29.4h0c15.15-4.68,37.27-2.76,56.21,1l1.78,3.2A165.91,165.91,0,0,0,1267.21,604.73Z"/>
      <g>
        <path class="cls-11" d="M1265.2,593s-64.18,5.35-66.89-34.67-12.82-66.28,28-71.39,49.87,9.63,54,22.77S1281.83,590.54,1265.2,593Z"/>
        <path class="cls-12" d="M1255.55,484s-14.46,48.13-41,56.87-38.73,2.29-38.73,2.29,19.62-17.83,22-46.83C1197.82,496.3,1240.79,462.51,1255.55,484Z"/>
        <path class="cls-12" d="M1251.44,488.07s13.84,9.61,17.72,19.59,6.72,30.86,12.79,29.74c0,0,11.13-32.8-5-49.86C1259.91,469.45,1251.44,488.07,1251.44,488.07Z"/>
        <path class="cls-16" d="M1248,572.52s2.62,5.35,6.64,5.47,14.3-.68,15.06-1.6,2.84-6.48,2.84-6.48S1255.68,569.22,1248,572.52Z"/>
      </g>
      <path class="cls-9" d="M1333.55,635.11s31.6,11,57.15,56c0,0-4.59,29.93-44,50.87S1311,678.64,1311,678.64Z"/>
      <path class="cls-9" d="M1172.54,646.86s-30.73,12.73-35.84,25.46c-7.82,19.45-16.78,51.62-16.78,51.62s12.51,30,54.92,37.6C1214.57,768.64,1172.54,646.86,1172.54,646.86Z"/>
      <path class="cls-11" d="M1312.41,850.8l14.42,13.4s-16.4,28.23-24.11,30.31l-.79.08c-8.16.86-26.87-14-29-27.75a7.59,7.59,0,0,1,.55-3.86c3.83-7.85,22.92-10.74,32.85-11.72C1310,850.9,1312.41,850.8,1312.41,850.8Z"/>
      <path class="cls-11" d="M1014.13,765.94l-5.22,15.74S992.3,780,982.43,776.5c-3.77-1.34-9.21-5.12-9.84-9.08-1.38-8.73-.18-25.32,7.87-31.53a7.48,7.48,0,0,1,3.65-1.4C992.82,734,1014.13,765.94,1014.13,765.94Z"/>
      <path class="cls-9" d="M1619,1333.87l-.15-.11c-.73-.57-4-3.5-3.82-10.63.1-4.69,1-8.17,1.25-12.76l-1.48-13.48c-2.72-11.43-5.89-10.43-5.89-10.43s-2.66,1.43-6.44,3.19c-6.24,2.92-15.53,6.73-20.78,6.44a14.28,14.28,0,0,0-8.65,2.19,13.67,13.67,0,0,0-3.87,3.57s12.33,8.22,8.26,14.28c-7.89,11.74-8.37,14.29-8.33,14.81l.05.12s17.5,22,23.75,27.52c11.13,9.87,14,21.67,16.43,27.55a8.2,8.2,0,0,0,5.49,4.82c3.65,1,8.57,1.83,10.47.16Z"/>
    </g>
    <path class="cls-21" d="M786.33,1572.7l-415.76-.13S357.3,1540.3,339.92,1487c19.39-4.64,72.94-14.73,110.25,4.29,46.3,23.6,40.24,55,97.58,43.49s104.65-16.34,130.33,0,44.53,9.84,76.47,9.74C781,1544.45,785.56,1565.5,786.33,1572.7Z"/>
    <rect class="cls-22" x="194.57" y="1566.44" width="2842.43" height="7.54" rx="3.22"/>
    <g>
      <polygon class="cls-23" points="813.38 1454.84 434.02 1454.84 416.49 1365.68 795.16 1365.68 813.38 1454.84"/>
      <polygon class="cls-24" points="819.86 1454.84 440.5 1454.84 422.97 1365.68 801.64 1365.68 819.86 1454.84"/>
      <path class="cls-23" d="M434,1454.85H546a0,0,0,0,1,0,0v10.91a0,0,0,0,1,0,0H442.32a8.3,8.3,0,0,1-8.3-8.3v-2.61A0,0,0,0,1,434,1454.85Z"/>
      <rect class="cls-25" x="545.15" y="1454.85" width="344.54" height="10.91"/>
      <path class="cls-25" d="M456.66,1465.76l-6.49,25.54v0L430.94,1567a2.22,2.22,0,0,1-2.15,1.67,3.1,3.1,0,0,1-3.05-3.69l17.15-88.25,2.14-11Z"/>
      <path class="cls-23" d="M450.17,1491.3c.62-13.07-7.28-14.58-7.28-14.58l2.14-11h11.63Z"/>
      <path class="cls-25" d="M539,1465.76l-6.49,25.54v0L513.23,1567a2.22,2.22,0,0,1-2.15,1.67A3.1,3.1,0,0,1,508,1565l17.16-88.25,2.13-11Z"/>
      <path class="cls-23" d="M532.46,1491.3c.62-13.07-7.27-14.58-7.27-14.58l2.13-11H539Z"/>
      <path class="cls-25" d="M858.25,1465.76l6.5,25.54v0L884,1567a2.23,2.23,0,0,0,2.15,1.67,3.1,3.1,0,0,0,3-3.69L872,1476.72l-2.14-11Z"/>
      <path class="cls-23" d="M864.75,1491.3c-.63-13.07,7.27-14.58,7.27-14.58l-2.14-11H858.25Z"/>
      <path class="cls-25" d="M776,1465.76l6.49,25.54v0L801.68,1567a2.22,2.22,0,0,0,2.15,1.67,3.1,3.1,0,0,0,3-3.69l-17.15-88.25-2.14-11Z"/>
      <path class="cls-23" d="M782.45,1491.3c-.62-13.07,7.28-14.58,7.28-14.58l-2.14-11H776Z"/>
    </g>
    <path class="cls-8" d="M488.3,882.1c-7.11,63.57-59.43,47.73-112.45,80.09-2.52,1.61-5.27,3.44-8,5.28-21.8,15.6-48.88,23.41-73.21,27.08a287.33,287.33,0,0,1-34.88,3c.46-10.79,1.15-21.57,1.84-32.36,1.83-22.95,4.59-45.89,8.49-68.15,2.52-15.15,5.73-30.3,9.41-45a510.17,510.17,0,0,1,37.17-103c44.75,3.44,94.32,28.22,128.75,58.29C472.93,831.61,490.83,859.15,488.3,882.1Z"/>
    <path class="cls-21" d="M660.19,1190.76A104.22,104.22,0,0,1,615,1204.31c-73.43,4.59-98.91,31.89-158.34,89.72-47.74,46.36-122.55,38.33-159.73,38.56-3-12.85-6-26.39-8.72-39.93-18.82-90.65-32.36-193.92-28.46-295.13.46-10.79,1.15-21.57,1.84-32.36,1.83-22.95,4.59-45.89,8.49-68.15,33,10.32,67.93,39.93,105.79,65.17,40.4,27.08,84.23,49.11,132.19,37.41,48.19-11.7,85.37-11,114.52-1.61,37.17,11.7,61.5,37.18,78.94,68.39C725.6,1109.29,704.71,1165.29,660.19,1190.76Z"/>
  </g>
</svg>
