<svg xmlns="http://www.w3.org/2000/svg" width="3348" height="2000" viewBox="0 0 3348 2000">
  <defs>
    <style>
      .cls-1 {
        isolation: isolate;
      }

      .cls-2 {
        fill: #eafcfc;
      }

      .cls-3 {
        fill: #9bc1f9;
      }

      .cls-4 {
        fill: #c5ddf9;
      }

      .cls-25, .cls-5 {
        fill: #fff;
      }

      .cls-5 {
        mix-blend-mode: soft-light;
      }

      .cls-6, .cls-7 {
        fill: #f7cc7f;
      }

      .cls-7 {
        opacity: 0.5;
        mix-blend-mode: multiply;
      }

      .cls-8 {
        fill: #fae0b2;
      }

      .cls-9 {
        fill: #327f6b;
      }

      .cls-10 {
        fill: #3c8f7c;
      }

      .cls-11 {
        fill: #184655;
      }

      .cls-12 {
        fill: #f47458;
      }

      .cls-13 {
        fill: #0e2e35;
      }

      .cls-14 {
        fill: #b75742;
      }

      .cls-15 {
        fill: #f7a491;
      }

      .cls-16 {
        fill: #466eb6;
      }

      .cls-17 {
        fill: #50bfa5;
      }

      .cls-18 {
        fill: #2d4972;
      }

      .cls-19 {
        fill: #e59588;
      }

      .cls-20 {
        fill: #13375b;
      }

      .cls-21 {
        fill: #e59f39;
      }

      .cls-22 {
        fill: #f48c7f;
      }

      .cls-23 {
        fill: #355389;
      }

      .cls-24 {
        fill: #07345a;
      }
    </style>
  </defs>
  <g class="cls-1">
    <g id="Layer_1" data-name="Layer 1">
      <g>
        <path class="cls-2" d="M1336,149c535,6,737.26,94.26,663.71,290s393.21-69.51,579.48,1c132.61,50.23,79.6,203.14,143.76,264.75C2870.05,846,2871.78,732.26,3059,839s52.57,1035.43-143,1041l-2490,1S80,1640,244.15,1422.56c124.27-164.62,60.07-244,36.77-308.7-26.74-74.3-159.15-438.06,112.76-533.28s181.55-304.05,195-345.33C672-20,1144.32,146.85,1336,149Z"/>
        <rect class="cls-3" x="508.19" y="291.16" width="694.56" height="1582.25"/>
        <rect class="cls-4" x="532.74" y="314.2" width="645.21" height="1534.41"/>
        <polygon class="cls-5" points="807.73 1848.61 884.35 1848.61 1139.18 314.2 1062.56 314.2 807.73 1848.61"/>
        <polygon class="cls-5" points="910.3 314.2 752.37 314.2 532.74 1636.67 532.74 1848.61 655.47 1848.61 910.3 314.2"/>
        <rect class="cls-3" x="1851.65" y="291.16" width="694.56" height="1582.25"/>
        <rect class="cls-4" x="1876.19" y="314.2" width="645.21" height="1534.41"/>
        <polygon class="cls-5" points="2151.19 1848.61 2227.81 1848.61 2482.64 314.2 2406.02 314.2 2151.19 1848.61"/>
        <polygon class="cls-5" points="2253.75 314.2 2095.82 314.2 1876.19 1636.67 1876.19 1848.61 1998.93 1848.61 2253.75 314.2"/>
        <g>
          <path class="cls-6" d="M1863.05,1140.06h989.17a75.4,75.4,0,0,1,75.4,75.4V1461.7a231.12,231.12,0,0,1-231.12,231.12H2018.77a231.12,231.12,0,0,1-231.12-231.12V1215.46A75.4,75.4,0,0,1,1863.05,1140.06Z" transform="translate(4715.28 2832.88) rotate(180)"/>
          <path class="cls-7" d="M2001.12,1467.62h713c93.38,0,172.74-68.45,201.72-163.78a274.8,274.8,0,0,1,11.75,79.88V1668.6c0,13.37-9.51,24.22-21.22,24.22H1808.88c-11.72,0-21.23-10.85-21.23-24.22V1383.72a274.46,274.46,0,0,1,11.76-79.88C1828.38,1399.17,1907.74,1467.62,2001.12,1467.62Z"/>
          <path class="cls-8" d="M1880,1599.84c117.49-68.62,270-70.71,371.13-61.88a1247.49,1247.49,0,0,0,217.29,0c101.18-8.83,253.64-6.74,371.13,61.88l22.42,61.42s-40.35,99.8-47.08,99.8-455.11-6.4-455.11-6.4-448.39,6.4-455.12,6.4-47.08-99.8-47.08-99.8Z"/>
          <path class="cls-6" d="M1685.59,1430c14.18-36.63,47.16-59.45,82.13-56.27,121.85,11.08,117,266.4,116.89,267.23h951.52c-.13-.83-5-256.15,116.89-267.23,35-3.18,67.95,19.64,82.13,56.27,9.44,24.39,13.55,58.38-1.93,102-35.12,99-131.52,168-145,290.89-2.08,19-4.77,29-7.83,32.27-7.88,15.39-22.49,25.73-39.22,25.73H1878.27c-25.08,0-45.4-23.2-45.4-51.82v-2.94c-.13-1.05-.25-2.13-.38-3.24C1819,1700.07,1722.64,1631,1687.51,1532,1672,1488.42,1676.15,1454.43,1685.59,1430Z"/>
          <path class="cls-7" d="M1723.48,1498.33c0,25.44,18.07,46.06,40.35,46.06s40.36-20.62,40.36-46.06-18.07-46.07-40.36-46.07S1723.48,1472.89,1723.48,1498.33Z"/>
          <path class="cls-7" d="M2908.73,1498.33c0,25.44,18.06,46.06,40.35,46.06s40.36-20.62,40.36-46.06-18.07-46.07-40.36-46.07S2908.73,1472.89,2908.73,1498.33Z"/>
        </g>
        <g>
          <g>
            <path class="cls-9" d="M1687.56,315.05c1.14,1.58,2.85,3.77,5.35,6.8l.1.13c-.1.36-31.75,115-6.82,123.7,22.86,8,24.79-76.06,15.52-111.29A174.28,174.28,0,0,1,1715.07,359c6.42,14.69,10.82,33.63,13.72,54.76-4.65,7.61-33,55.44-18.82,65.29,11.53,8,19.09-23.46,21.17-44.24,1.67,18.78,2.39,38.63,2.47,58.33-15.36,3.77-61.75,17.09-62.62,40.89-1,26.6,38.9,18.75,62.61-30.58-.13,19.6-.85,38.83-1.85,56.48-11,10-56.45,52.79-49.13,77.54,7.42,25.06,35.9-3.65,47.91-58.4-2.23,31.35-5.06,55.16-6.31,62.67-.42,2.48-.88,5.67-1.37,9.42h0c-.18,1.37-.37,2.83-.56,4.35h0s-70.58,95.1-50.37,117c14.33,15.52,35.78-48,47-86.31-3.9,40.66-7.32,93.69-4,110l.25,0c-2.49,36.67-4.2,103.33,16,106.7,27.94,4.65,0-69.85,0-69.85s34.1,13.61,37.25,0c5.29-22.78-42.47-54.86-50.18-59.87.09-20.25,1.94-49,4.23-75,2.57,55.88,16.54,72.5,22,74.34,6.73,2.28,20.6-11.39,15.85-54.59-3.7-33.56-24.25-55.26-33.24-63.28.62-4.77,1.21-8.88,1.75-12.13,1.2-7.21,3.84-29.32,6-58.72,5.46,46,18.38,83.55,30,60.27,11.36-22.7-18.3-66.13-28.71-80.24,1.2-20.49,2-43.28,2-66.41,8.67,22.71,46.67,65.42,51.42,41,4.66-24-42.51-49-51.5-53.57-.27-19.8-1.23-39.6-3.17-58.17,10.55,18.72,42.73,57.09,46.55,36.38,4.36-23.64-49.59-59.94-49.59-59.94l-.08.09c-2.9-17.58-7-33.37-12.51-46a175.53,175.53,0,0,0-12.62-23.59c20,13.53,50.46,25.56,49.23,11.44-1.33-15.32-48.26-27.71-63.23-31.27-.51-.74-.85-1.05-1.07-1-5.36-6.6-11-12.82-16.76-18.68h-6.54A264.68,264.68,0,0,1,1687.56,315.05Z"/>
            <path class="cls-9" d="M1647,354.93c14.89,8.39,9.44-33.5,4.49-60.9H1636.9C1634.21,316.94,1633.57,347.38,1647,354.93Z"/>
          </g>
          <g>
            <path class="cls-9" d="M1666.42,352.58c19.78-2.77,2-32.64-25.87-58.55h-29.2C1626.07,321,1648.46,355.09,1666.42,352.58Z"/>
            <path class="cls-9" d="M1587.35,294h-29.93c-15.35,19.14-26.94,42.71-16.51,63.85C1555.64,387.72,1575.49,334.14,1587.35,294Z"/>
            <path class="cls-10" d="M1605.65,294h-5c1.27,8.86,2.65,18.69,4.09,29.32-12,23.64-73.16,148.36-44,175.11,32.24,29.59,43.72-121.89,43.72-121.89l1.7-42.66c4.88,36.8,10.28,81.66,14.53,128-11.09,9.14-57,49.39-37.87,75.88,17.76,24.64,33.45-43.49,38.51-68.75,2.72,30.64,4.91,61.76,6.09,91.47-11.72,5.44-61.13,30-47.58,51.47,13.13,20.78,40.4-25.33,48-39.1.55,18.21.68,35.76.29,52.21-12.8,6-70.06,34-55.91,47.4,15.89,15,48.57-25.19,48.57-25.19s-25.61,102.91,2.24,91.87,9.25-98,10.13-100.25l-.48-2.8c.55-13.52.69-27.91.5-42.88,5.17,13.24,15.16,35.31,21.18,25.81,7.08-11.18-14.53-34-21.47-40.85-.52-20.41-1.59-41.7-3-63.21,10,25.39,31.06,62.09,41.73,44.88,12-19.3-33-69.21-44.53-81.49-2.68-31.62-6-62.93-9.37-91.88,14.14,37,60.21,115.3,75.1,88.58,15.5-27.83-64.37-115-80.5-132.15C1610,324.66,1607.67,308.13,1605.65,294Z"/>
          </g>
          <path class="cls-10" d="M1444.25,321.33c12.08,32.21,36,86.54,59.37,85.91,31.6-.85-13.5-71.33-60-104.19-.08-2.28-.17-4.4-.25-6.4a175,175,0,0,0-22.4,5.46c-26.51,18.46-71.43,57.08-57.64,95.3,16.26,45,59.2-62.14,72-96.26.63,16,1.43,39.47,2.06,67.82-19,29.06-98,154.74-69.61,187.36,32.16,37,63.92-130.15,63.92-130.15l6-39.49c.72,40.26,1,88.17,0,137.35-15.5,10.27-67.65,47.9-50.28,78.79,15.83,28.16,40.08-37.08,50-67.23-.83,33.16-2.29,66.66-4.61,98.56-15.83,5.42-70,26.06-58,50.85,11.46,23.66,44.94-19,56.79-35.38-1.65,19.76-3.67,38.75-6.12,56.5-17.35,6-80.4,29.08-66.73,45.25,15.81,18.7,57.21-21.94,57.21-21.94s-41.4,111.3-9,102.51c28.53-7.76,24.31-85.65,23.76-105.65,2.67-16.14,4.92-33.58,6.8-51.89,4.35,15.44,12,36.89,19.35,27.8,8.79-10.94-9.75-36.71-17.56-46.62,1.92-22,3.38-44.9,4.47-68.17,8.54,29.24,26.28,68.11,39.67,51.1,15.19-19.28-25.09-77-38.06-94.52,1-34.31,1.26-68.41,1.15-100.18,12.79,44.7,51.94,129.84,71.12,103,20.19-28.25-53.19-130.44-71.65-155.29C1445.56,364.2,1444.89,340.17,1444.25,321.33Z"/>
          <path class="cls-9" d="M1476.86,374.52c17,19.84,34.47-45.26,42.22-79.33.26,23.37.55,54.65.73,90.89-10.47,10.73-42.88,46.48-38.36,72.95,4.39,25.7,29.39-27.84,38.46-48.45.06,18.93.09,38.9.06,59.56-13.1,11.39-44.76,42.27-29.65,63.23,12.23,17,23.33-16.65,29.61-42.3-.06,23.53-.2,47.76-.43,72.2-15.83,12.68-59.87,51.89-43.8,84.47,14.27,28.9,34.06-32.15,43.62-66.84-.29,26.06-.69,52.21-1.23,77.86-8.69,14.54-40.36,70.23-23,82.23,9.37,6.49,16.71-7.16,21.54-24.87-.75,23.92-1.64,46.92-2.72,68.46-11.55,7.65-59.28,40.91-53.73,64.82,3.47,14.94,40.89,0,40.89,0s-30.67,81.77,0,76.66c21.74-3.62,20.36-74,17.71-114.71q.69-11.22,1.29-23.1c4.53,17,12.22,29.36,20.93,18.94,15.3-18.32-13-61.8-18.73-70.13.8-22.39,1.46-45.76,2-69.63,11.77,22.91,56.52,77.61,61.65,49.78,4.93-26.75-47.87-66-61.12-75.41.44-23.76.77-47.82,1-71.73,8.49,18.11,37.49,76.09,59.12,73.06,25.09-3.52-19.29-57.15-59.08-77.16.22-23.45.36-46.72.44-69.37.08.59.16,1.18.26,1.81,2.38,15.37,29.12,73.39,41,54.18s-41-73.3-41-73.3a3.6,3.6,0,0,0-.22.48c0-21.88,0-43.07,0-63.14,8.42,21.28,37.86,68.5,47.29,52.66,9-15-33-59.7-47.37-74.34-.12-29.05-.32-55.21-.53-77,10,21.88,40.28,82.11,49.54,60.29,9.87-23.27-38.51-68-49.72-77.93,0-2.15,0-4.22-.07-6.25h-24C1483.56,320.34,1462.81,358.07,1476.86,374.52Z"/>
        </g>
        <path class="cls-11" d="M747.29,607.44h3.17V307.73a238.45,238.45,0,0,0,105.81,41.33c31.48,4.23,64.88,2.63,99.28-4.78,50.53-10.88,88.55-31.31,98.25-36.85V430H1057V301.83l-2.41,1.48c-.41.26-41.76,25.42-99.78,37.89-53.43,11.49-132.36,14.25-205-37.82l-2.51-1.8Z"/>
        <rect class="cls-6" x="477.48" y="286.48" width="778.06" height="15.09"/>
        <path class="cls-12" d="M1055.39,408.26h0a29,29,0,0,1,29,29v61.84h-58V437.24A29,29,0,0,1,1055.39,408.26Z"/>
        <path class="cls-6" d="M748.88,596.13h0a29,29,0,0,1,29,29V687h-58V625.12A29,29,0,0,1,748.88,596.13Z"/>
        <g>
          <path class="cls-11" d="M2324.33,607.44h-3.17V307.73a238.45,238.45,0,0,1-105.81,41.33c-31.48,4.23-64.88,2.63-99.28-4.78-50.53-10.88-88.55-31.31-98.25-36.85V430h-3.17V301.83l2.41,1.48c.41.26,41.76,25.42,99.78,37.89,53.43,11.49,132.36,14.25,205-37.82l2.51-1.8Z"/>
          <path class="cls-12" d="M2016.23,408.26h0a29,29,0,0,0-29,29v61.84h58V437.24A29,29,0,0,0,2016.23,408.26Z"/>
          <path class="cls-6" d="M2322.75,596.13h0a29,29,0,0,0-29,29V687h58V625.12A29,29,0,0,0,2322.75,596.13Z"/>
        </g>
        <g>
          <polygon class="cls-13" points="371.02 1872.87 353.5 1872.87 418.81 1546.29 433.38 1548.96 371.02 1872.87"/>
          <polygon class="cls-13" points="882.32 1872.87 900.71 1872.87 835.58 1546.29 821 1548.96 882.32 1872.87"/>
          <polygon class="cls-13" points="721.59 1872.87 704.06 1872.87 769.37 1546.29 783.94 1548.96 721.59 1872.87"/>
          <polygon class="cls-13" points="530.7 1872.87 544.93 1873.03 482.32 1547.76 467.75 1550.43 530.7 1872.87"/>
          <path class="cls-12" d="M594.27,1090.82c-57.7,6.17-132.36,12.69-207.32,139.89-81.92,139-38.79,346.68,25.87,404.39s275.83,129,453.35,22.29c0,0,129.91-66.19,74.9-173.47-84.66-165.1-95.41-198-133.26-262.69S716.73,1077.7,594.27,1090.82Z"/>
          <path class="cls-14" d="M387,1230.71c51.16-86.82,102.19-117.41,147.77-130-17.63,18.25-35.51,41.72-53.4,72.08-81.92,139-29,253.47,35.68,311.18,57.35,51.17,165.25,95.33,390.13,144.43a224.18,224.18,0,0,1-41,29c-177.52,106.67-388.7,35.41-453.35-22.29S305,1369.73,387,1230.71Z"/>
        </g>
        <rect class="cls-12" x="267.03" y="1869.21" width="2791.97" height="18.3"/>
        <g>
          <path class="cls-15" d="M1064.26,1771.7s3.5,44.66.66,59.18c-1.53,7.77-10,23.77-6.12,31.08s8.34,9.14,8.34,9.14l100.88,1.64c5.49.09,1.86-3.47-2.57-6.75-7.25-5.36-13.1-8.9-36.27-20.17-1.51-.74-7-4.26-9-5.47-5-3.09-10.08-7.95-14.43-12.82-7.25-8.11-7.88-47.44-7.88-47.44Z"/>
          <path class="cls-16" d="M1120.17,1840.34c-26.67,6.88-46.4,2.2-57.43-2.27-2.84,8.11-6.61,18.28-4.61,24.15,2.45,7.18,5.93,8.8,9,8.88,24.37.65,89.26,1.52,107.84,1.77a3.06,3.06,0,0,0,2.36-5C1172.73,1862.31,1122.16,1841.56,1120.17,1840.34Z"/>
          <path class="cls-15" d="M893.37,1753.58s-5.68,39.61-15.45,52.39c-3.28,4.29-9.27,9.72-13.2,17.47-6.12,12.07-2.73,30,1.78,39.93,2.32,5.08-.16,5.07,5.11,6.7,15.63,4.85,32.25-3.31,38.9-18.36a93.53,93.53,0,0,0,7.63-33.75c1.67-36,12.79-54.25,12.79-54.25Z"/>
          <path class="cls-10" d="M1143.1,1178s12.7,72.52,4.36,120-48.37,488.2-48.37,488.2l-44.49,2.52s-9.32-184.07-7.65-209.67,14.87-68.43,14.87-68.43l-4.43-148.62,56.14-195.24Z"/>
          <path class="cls-17" d="M1012.35,1162.79s-35,53-43.37,96.91,6.12,178.74-9.92,236.25c-8.68,31.12-41.6,79.2-46.61,119.42S887.82,1761,887.82,1761l44.47,8.87,103.34-263.15,81.06-237.85,20.77-122.49Z"/>
          <path class="cls-16" d="M913.54,1843.79c-24.23,4.45-40.36-9.81-48.75-20.48-6.16,12.09-9.16,30.13-4.63,40.06,4,8.75,15.65,8.5,24.83,8.84,9.71.37,17.22-5.06,22-13.56A81.06,81.06,0,0,0,913.54,1843.79Z"/>
          <g>
            <path class="cls-15" d="M789.05,924.16c.73-1.25.81-4.13,1.63-5.28,8.31,4,14.56,19.38,15.77,18.15,1.56-1.6.35-2.28-.38-4.11s-.39-1.23-1.12-3.06,2.51-3.07,4.73-4.14,3.21,2,4.3,4.58c3.4,8.1,11.7,28,12.35,30.7l89.47,59.83s16.38-26.74,30.05-51.65c3.78,3.71,7.27,5.64,9.81,4.11,5.09-3.08,31.71-13.09,56-24.3a616.34,616.34,0,0,1-38,70.93c-19.33,30.54-50.66,66.56-57.75,64.26-8.07-2.63-104.17-95.05-104.18-95.06s-18.6-12.08-25.9-16.21c-6.41-3.62-11.55-8.7-15.1-12.42C780,949.89,782.61,936.59,789.05,924.16Z"/>
            <path class="cls-18" d="M721.14,958.64a31.93,31.93,0,0,1,41.1,1.08L805.79,925a32,32,0,1,1,6.82,8.54l-43.56,34.76a31.94,31.94,0,1,1-47.91-9.62Z"/>
            <path class="cls-19" d="M792.13,960.86a7.83,7.83,0,0,1-9.33,4.61c-7.19-2-18.72-6.67-17.52-16.05,1.73-13.55,23.14-34.28,26.31-30.15s10,32,5.15,34.79C794,955.68,793.21,958.18,792.13,960.86Z"/>
          </g>
          <path class="cls-20" d="M1170.82,912c4.11-38.92-18.07-74.84-54.58-85.47-2-21.71-12.91-42.58-29.53-55.89C1053.93,744.41,997,734,978.86,773.59c-27.33,19-46.59,56-34.75,86.84-25.18,31.32-9.31,81.77,34.08,102,2.59,32,23,62,52.94,72.8,7.18,2.58,18.35,6.07,19.85,7.35-2-1.48,27.29,58.7,95.56,22.89C1216.2,1028.89,1222,945.31,1170.82,912Z"/>
          <g>
            <path class="cls-15" d="M1289.1,887.89c-1-1-1.74-3.84-2.8-4.77-7.17,5.79-9.73,22.2-11.18,21.28-1.89-1.2-.86-2.13-.57-4.08s.09-1.29.38-3.24-3.14-2.41-5.55-2.94-2.67,2.65-3.14,5.44c-1.44,8.67-5,29.91-5,32.72l-73.35,78.76s-22.08-22.27-41.1-43.37c-2.83,4.47-5.79,7.15-8.61,6.25-5.66-1.82-33.86-5.47-60.06-10.8a615.55,615.55,0,0,0,53.29,60.3c25.82,25.3,64.58,53.17,71,49.3,7.26-4.42,79.57-116.42,79.58-116.43s15.33-16,21.49-21.73c5.41-5,9.25-11.12,11.85-15.55C1303.86,910.84,1298.22,898.5,1289.1,887.89Z"/>
            <path class="cls-18" d="M1363.11,905.85a31.93,31.93,0,0,0-39.75,10.49L1273,892.51a31.95,31.95,0,1,0-4.67,9.87l50.37,23.84a31.93,31.93,0,1,0,44.42-20.37Z"/>
            <path class="cls-19" d="M1294.53,924.31a7.82,7.82,0,0,0,10.14,2.34c6.54-3.58,16.68-10.78,13.36-19.64-4.79-12.78-30.38-28-32.52-23.3s-2.35,33.43,3,35C1291.57,919.68,1292.86,922,1294.53,924.31Z"/>
          </g>
          <path class="cls-21" d="M1176.93,984.7l-39.22,46.91s-39.37-32.89-58.35-43.15c-23.79-12.86-14.83-76.05-2-76.36C1106,911.42,1176.93,984.7,1176.93,984.7Z"/>
          <path class="cls-6" d="M975.23,922.9c10.24-6.21,68.63-8.74,85.23-10.37,3.49-.34,10.32-2.19,10.62-2.19,8.36,2.79,38.09,10.57,55.84,47.78,21.5,45,11.16,73.09,8.48,125.08-1.75,33.87,10.06,110.58,10.06,110.58-26.22,35.31-122.39,37.91-156.39,10.34l23.57-103.44c.05-26.68-22.31-77.5-24.67-85.14-3.33,3.6-11.67,20-11.67,20-15.71.08-54.73-39.77-54.73-39.77S965,929.11,975.23,922.9Z"/>
          <path class="cls-15" d="M1030.42,869.63s6.27,33.74,5,47,4.78,56.2,31.83,56.34,5.14-54.53,2.59-67.57S1066.7,852,1066.7,852Z"/>
          <path class="cls-12" d="M1067.26,872.29c-.42-11-.56-20.25-.56-20.25l-36.28,17.59s1.28,6.9,2.57,15.69C1048.87,888.64,1060.38,882.52,1067.26,872.29Z"/>
          <path class="cls-15" d="M1017.16,776.52a46.35,46.35,0,0,0-19.09,25.58c-5.11,17.5.71,62.66,36.82,73.56s51.75-24.86,44.31-52.82S1055.59,759.47,1017.16,776.52Z"/>
          <path class="cls-15" d="M1083.72,812c-.71,7.51-4.69,13.25-8.89,12.82s-7-6.86-6.32-14.37,4.68-13.25,8.88-12.82S1084.43,804.49,1083.72,812Z"/>
          <ellipse class="cls-15" cx="1000.76" cy="846.35" rx="9.41" ry="14.16" transform="translate(-293.59 640.21) rotate(-31.17)"/>
          <path class="cls-20" d="M1055.53,762.11s-31.89,74.53-56.9,71.18-6.17-44.53-6.17-45.61,15.22-22.87,19.18-22.87,28.46-2.7,28.46-2.7Z"/>
        </g>
        <g>
          <g>
            <path class="cls-15" d="M2477.16,786.85c-1.61-.23-4.21-2.15-5.8-2.23-2.25,10.11,7,26.34,5.08,26.55-2.5.27-2.25-1.27-3.36-3.19s-.82-1.19-1.94-3.11-4.45.08-6.93,1.3-.5,4.2,1.05,7c4.8,8.63,16.6,29.78,18.56,32.25l-9.29,120.68s-35-4.11-66.55-9.33c.64,5.92-.07,10.35-3.19,11.53-6.25,2.36-33.61,18.93-60.39,32.6a692.4,692.4,0,0,0,89.13,15.68c40.44,4.14,94.06,1.48,96.95-6.39,3.28-9-11.63-158.15-11.63-158.17s2.25-24.84,3.67-34.16c1.26-8.19.34-16.27-.48-22C2506.23,796.69,2492.62,789.79,2477.16,786.85Z"/>
            <path class="cls-18" d="M2554.84,750.77a35.91,35.91,0,0,0-27.61,37.09l-61,14.35a35.94,35.94,0,1,0,2.81,12l61-14.35a35.91,35.91,0,1,0,24.79-49.05Z"/>
            <path class="cls-19" d="M2507.47,815.07a8.79,8.79,0,0,0,10.55-5c3.24-7.74,7.11-21.18-2-26.64-13.18-7.89-46.39-3.37-44.94,2.31s21.37,31,27.18,28.73C2501.62,813.08,2504.34,814.17,2507.47,815.07Z"/>
          </g>
          <g>
            <path class="cls-15" d="M2058,806.47c1.55-.44,3.88-2.7,5.44-3,3.59,9.72-3.39,27.06-1.45,27,2.51-.07,2.06-1.56,2.9-3.61s.65-1.3,1.5-3.35,4.42-.52,7,.35,1.06,4.1-.1,7.07c-3.6,9.2-12.43,31.75-14,34.47l25.5,118.31s34.15-8.8,64.68-18.23c.15,5.95,1.47,10.24,4.72,11,6.51,1.5,35.86,14.22,64.23,24.15a692.4,692.4,0,0,1-86.19,27.57c-39.51,9.57-93,14.17-96.92,6.77-4.47-8.44-9.85-158.27-9.85-158.29s-5.58-24.31-8.25-33.36c-2.35-7.94-2.53-16.07-2.48-21.85C2030.55,820.15,2043.1,811.47,2058,806.47Z"/>
            <path class="cls-18" d="M1976.18,781.21a35.9,35.9,0,0,1,32.36,33l62.38,6a35.93,35.93,0,1,1-1.17,12.23l-62.38-6a35.91,35.91,0,1,1-31.19-45.25Z"/>
            <path class="cls-19" d="M2031.8,838.53a8.8,8.8,0,0,1-11.14-3.57c-4.25-7.23-9.9-20-1.6-26.67,12-9.59,45.5-9.6,44.84-3.78s-17,33.64-23.05,32.13C2037.33,835.77,2034.78,837.21,2031.8,838.53Z"/>
          </g>
          <path class="cls-22" d="M2415.57,1778.75s12.79,12.52,13.08,17.11,1.13,53.81-4.09,58.41-20.55,7.85-15.62,13c3.73,3.91,32.39,3.07,51.39,2,5.54-.3,12.5-44.7,14.69-51.22,3.19-9.48,10.95-30.83,8.05-37.43-1.41-3.22-8.17-9.83-17.7-16-10-6.49-19.6-21-19.6-21Z"/>
          <path class="cls-15" d="M2283.12,1807.9s11.44,32.43,11.45,32.52c.85,5.14,4.2,17.83,4.2,22.5,0,17.55-78.87-14.89-61.2-22.67,1.6-.71,6.62-6.33,7.15-12.3.81-9.2-6.64-20.75-6.64-20.75Z"/>
          <g>
            <path class="cls-23" d="M2159.38,1203.91s-5.76,58.14-5.76,59c0,94.06-18.58,277.79-15,295.48,8.62,43.13,101.41,263.17,101.41,263.17l50.15-6-65.35-263.44,24-106,34-209.61Z"/>
            <path class="cls-16" d="M2327.68,1255.34l9.52,55.11L2363,1537.26l98,221.68s-13.79,32.26-34.13,36.79l-156.06-227.6-96.93-291.23,3.4-64.7Z"/>
          </g>
          <path class="cls-24" d="M2464.75,1764.34s-29.47,83.26-41,87.28c-3.06,1.07-17.76,3.78-20.53,10.3-.83,2,0,8.53,0,8.53h61.43s7.77-36.69,10.84-52.81c0,0,16.26-39.38,14.45-43S2464.75,1764.34,2464.75,1764.34Z"/>
          <path class="cls-24" d="M2303.26,1868.71l-9-28.63s-19,8.05-28.46,6.71-28-6.71-28-6.71c-37.86,12.51-68.88,18.58-63.23,28.63h128.72Z"/>
          <path class="cls-12" d="M2299.87,914.67s62.91,6.66,79.59,24.25l-32.09,162.41a171.35,171.35,0,0,0-3.2,37.34c.83,33.94,2.15,104.47-.5,127.41-7.33,63.53-172.25,2.52-196.68-5.89,0,0,36.67-282.79,61.76-326.32,8.37-14.5,46.49-15.1,46.49-15.1Z"/>
          <path class="cls-12" d="M2219.13,925.59l36.64,44.57s-53.23,35.89-101.14,56.94c-4.4-18.55-15.23-47.64-18.57-66.54C2175.64,940.57,2219.13,925.59,2219.13,925.59Z"/>
          <path class="cls-12" d="M2340.25,921.77l-6.71,100.73s25.91-21,73.82,0c4.39-18.55,15.23-47.64,18.57-66.54C2386.35,936,2340.25,921.77,2340.25,921.77Z"/>
          <path class="cls-15" d="M2300.84,856.54l8.93,59.51s-32.59,70.85-52,64.71c-16.32-5.16-6.28-67.85-6.28-67.85s8.89-33.67,6.23-50.51S2300.84,856.54,2300.84,856.54Z"/>
          <path class="cls-12" d="M2257.68,862.4c-2.67-16.85,43.16-5.86,43.16-5.86l.74,4.94a27.38,27.38,0,0,1-5,8.29c-10.24,11.15-26.24,17.85-40.07,18.35C2257.92,879,2258.77,869.3,2257.68,862.4Z"/>
          <g>
            <path class="cls-15" d="M2308.36,772.36c1.3-.48,10.39,67.77-6.86,86.55s-50.85,24.93-62.9,10.14c-13.33-16.36-12.66-89.71,14.15-109S2308.36,772.36,2308.36,772.36Z"/>
            <path class="cls-20" d="M2263,723.51c20.72,4.28,34.15,17.09,39.08,22.55,9.41,1.13,22.2,6.39,35.41,28.52,16.24,27.21,4.25,57.35-14.66,72.14s-18.69,32-18.69,32l-2.94-8.92a50,50,0,0,1-2.37-20.81,41.41,41.41,0,0,1,3.06-12.52c4.55-9.88-9.77-16.44-13.78-24.66-3.09-6.32-3.24-20.8-8.11-31.26l-5.82-8s-13.41-10.57-26.54-7.59S2236.37,718,2263,723.51Z"/>
            <path class="cls-15" d="M2289,823.92c-.14,8.33,3.6,15.14,8.36,15.23s8.71-6.61,8.85-14.93-3.61-15.15-8.36-15.23S2289.09,815.59,2289,823.92Z"/>
          </g>
          <path class="cls-25" d="M2239.42,845.71l22.53,4.67s-2.3,8.45-12.26,6.68C2237.54,854.91,2239.42,845.71,2239.42,845.71Z"/>
        </g>
        <g>
          <path class="cls-12" d="M1650.79,1140.26c-7.37-11.17-5.94-26,3.25-33.69,8.34-7,20.48-10,34.22-8.33,8,.94,15.65,3.38,23.08,5.74,3.44,1.09,7,2.22,10.5,3.17,60.46,16.45,110.88,17,149.86,1.67,29-11.42,43.75-29,47.91-37.62,12-24.73,10.84-50.5-3.21-74.52-20.44-34.93-66.73-61.31-112.55-64.15a283.14,283.14,0,0,0-57.45,1.81c-20.88,2.94-41.31,9.69-61.07,16.21-27.73,9.15-123.62,64.81-144,81a578.23,578.23,0,0,1-128.62,77.12l-1.7-3.9a573.72,573.72,0,0,0,127.68-76.55c21.14-16.76,116.54-72.19,145.34-81.7,19.94-6.58,40.55-13.39,61.8-16.38a286.64,286.64,0,0,1,58.32-1.84c47.9,3,94.5,29.59,115.94,66.24,14.81,25.3,16,52.45,3.38,78.52-.4.83-41.74,82-202.71,38.21-3.6-1-7.19-2.12-10.67-3.22-7.25-2.3-14.74-4.68-22.3-5.58-7.26-.86-21-1-31,7.37-7.44,6.24-8.53,18.85-2.44,28.09Z"/>
          <path class="cls-15" d="M1405,1232.43c-3.46-14.9.93-76.58,1.84-81.43a3.25,3.25,0,0,1,.2-.54l-22.13-5.36c-2.88,19.1-19.52,79.2-17.47,96.06,2.36,19.38,37.69,83.88,37.69,83.88l28.13-31.46S1408.42,1247.33,1405,1232.43Z"/>
          <path class="cls-15" d="M1646.74,1171c-6.84,13.13-27.48,52.38-37.34,63.72-11.69,13.46-67.82,73.9-67.82,73.9l36.39,27.49s40-49.62,58.11-72c14.83-18.32,32.84-75.29,33-75.47Z"/>
          <path class="cls-15" d="M1670.2,1135.44c-.84-.89-1.47-3.26-2.38-4-6.1,4.92-8.27,18.89-9.51,18.1-1.61-1-.63-3.42-.39-5.08s-.79-7.74-2.84-8.19-3.93,6.79-4.32,9.17c-1.23,7.38-4.22,25.45-4.24,27.84l-.94,1,22.6,15.22c4.28-4.42,10.62-13,14-16.17a85.61,85.61,0,0,0,12.6-15.51A128.9,128.9,0,0,1,1670.2,1135.44Z"/>
          <path class="cls-11" d="M1530.42,1209.83c11.08,19.76,6.25,58.81-3,71.38s-31.14,16.52-31.14,16.52l-32.17,9.88s-23.15-32-29.55-52.14c-2.47-7.8-2.89-12.87,0-29.42,3.74-21.39,9.27-32.46,32.61-35C1489.86,1188.51,1517,1186,1530.42,1209.83Z"/>
          <path class="cls-15" d="M1427.77,1262.5c1.12,7.18,6.08,12.41,11.07,11.67s8.15-7.15,7-14.33-6.08-12.4-11.07-11.67S1426.65,1255.32,1427.77,1262.5Z"/>
          <path class="cls-15" d="M1560.59,1752.82c3.2,6.25,18.47,17,18.47,17-13,15.54-54.93,48.53-54.93,48.53s-5.3-5.48-2.92-10.52,14-36.2,8.74-46.45c-1.37-2.67-11.45-22.55-20.25-33.59,11.76-4,23.14-9.63,34.07-14.74C1550.64,1727.27,1559.52,1750.75,1560.59,1752.82Z"/>
          <path class="cls-24" d="M1563.3,1756.51s-30.76,32.75-36.71,36.24c-4.84,2.84-11.21,37.57-4.25,38.61s58.87-51.94,60.39-59.15S1563.3,1756.51,1563.3,1756.51Z"/>
          <path class="cls-15" d="M1411.48,1678.56c3.75,6,19.94,15.84,19.94,15.84-11.64,16.32-50.46,51.84-50.46,51.84s-5.78-5.14-3.84-10.31,10.73-37,4.57-46.86c-1.6-2.58-13.42-21.77-23.17-32.23,11.37-4.68,22.21-11.06,32.66-16.83C1399.29,1653.7,1410.24,1676.57,1411.48,1678.56Z"/>
          <path class="cls-24" d="M1417.55,1684.72s-30.43,32.51-36.36,36c-4.83,2.86-11,37.61-4.07,38.62s61.24-48.39,62.73-55.6S1417.55,1684.72,1417.55,1684.72Z"/>
          <path class="cls-21" d="M1432.34,1482.45S1324,1529,1316,1564.26c-4.37,19.07,50.74,119.94,50.74,119.94l43-17.91s-9-37.09-20.27-61.53c-5.24-11.34-8.77-18-8.77-18,8.85-7.43,110.7-38.17,110.7-38.17l-18.22-60.28Z"/>
          <path class="cls-6" d="M1559.72,1482.45s8.73,13.81-7.26,50.68c-10.48,24.17-43.64,94.86-42.8,96.28,23.45,39.69,54.35,98.69,54.35,98.69l-50.91,24.84c-.74,1.29-64.66-85.94-67.15-112.33-1.91-20.22,15.11-153.62,15.11-153.62Z"/>
          <path class="cls-16" d="M1559.68,1282.18s38.88,34,38.6,34.86c-2.07,6.06-42,32.68-42,48.82,0,18.31,12.69,142.54,12.69,142.54s-35,11.55-77.91,5.09-72.36-26.43-72.36-26.43,2.64-33.8,2.64-65a373.09,373.09,0,0,0-4.77-58.11l-32.68-73.34,40.65-22.42s28.16,54.08,35.6,54.08c21.15,0,45.2-3.66,45.2-3.66Z"/>
          <path class="cls-15" d="M1463.07,1295s4.81,34-5.39,43.23c-10.77,9.72,39,7,42.49-9,1.9-8.68-4.9-47-4.9-47Z"/>
          <path class="cls-22" d="M1495.27,1282.25l-32.2,12.75a138.29,138.29,0,0,1,1.13,17.88c7.88,1.12,16.83-.52,26.5-6a55.17,55.17,0,0,0,7.62-5.22C1496.88,1291.32,1495.27,1282.25,1495.27,1282.25Z"/>
          <path class="cls-15" d="M1483,1210.31s15.21,3.9,24.15,18.27,13.87,55.93-18,74.11-55.14-10-54.54-36.6S1447.39,1205.42,1483,1210.31Z"/>
          <path class="cls-15" d="M1483,1210.31s15.21,3.9,24.15,18.27,13.87,55.93-18,74.11-55.14-10-54.54-36.6S1447.39,1205.42,1483,1210.31Z"/>
          <path class="cls-15" d="M1506.29,1265.59c-2.53,6.84-.71,13.72,4,15.38s10.66-2.54,13.19-9.38.71-13.72-4-15.38S1508.81,1258.75,1506.29,1265.59Z"/>
          <path class="cls-11" d="M1691.62,1169.79l-7.07,7.06a1.78,1.78,0,0,1-2.51,0l-35.58-35.58a1.78,1.78,0,0,1,0-2.51l7.06-7.07a1.79,1.79,0,0,1,2.52,0l35.58,35.58A1.79,1.79,0,0,1,1691.62,1169.79Z"/>
          <path class="cls-19" d="M1674.82,1166.43a6.66,6.66,0,0,0,8.63,2c5.56-3.05,14.19-9.17,11.37-16.71-4.08-10.87-25.86-23.86-27.67-19.82s-2,28.44,2.52,29.81C1672.3,1162.49,1673.4,1164.42,1674.82,1166.43Z"/>
          <path class="cls-15" d="M1397.78,1098.46c1-.65,2.24-2.79,3.32-3.33,4.66,6.3,3.25,20.37,4.65,19.92,1.81-.59,1.47-3.16,1.65-4.82s2.72-7.29,4.81-7.22,2.1,7.57,1.88,10c-.67,7.45-2.32,25.69-2.91,28l-5.81,26.59-19.23-16.32c-3-5.36-7-15.31-9.47-19.17a85.52,85.52,0,0,1-8.29-18.18A129.48,129.48,0,0,0,1397.78,1098.46Z"/>
          <rect class="cls-11" x="1387.39" y="1090.04" width="13.55" height="53.87" rx="1.78" transform="translate(1136.95 2884.79) rotate(-120.42)"/>
          <path class="cls-19" d="M1385.5,1127.29a6.65,6.65,0,0,1-8.84-.25c-4.62-4.35-11.43-12.45-6.8-19,6.68-9.5,31-16.59,31.77-12.22s-5.22,28-10,28.21C1388.94,1124.11,1387.38,1125.7,1385.5,1127.29Z"/>
        </g>
        <rect class="cls-6" x="1226.69" y="286.48" width="1387.33" height="15.09"/>
        <path class="cls-25" d="M1042.71,851.53l22.81-2.9s.58,8.73-9.42,10.3C1043.91,860.84,1042.71,851.53,1042.71,851.53Z"/>
        <path class="cls-25" d="M1456.26,1278.44l22.53,4.66s-2.29,8.45-12.26,6.69C1454.38,1287.63,1456.26,1278.44,1456.26,1278.44Z"/>
      </g>
    </g>
  </g>
</svg>
