<svg id="Слой_2" data-name="Слой 2" xmlns="http://www.w3.org/2000/svg" width="3200" height="1626.44" viewBox="0 0 3200 1626.44">
  <defs>
    <style>
      .cls-1 {
        fill: #fcecdb;
      }

      .cls-2 {
        fill: #f8fbff;
      }

      .cls-3 {
        fill: #f9ddbf;
      }

      .cls-4 {
        fill: #a8d29f;
      }

      .cls-5 {
        fill: #e8c6a7;
      }

      .cls-6 {
        fill: #599dad;
      }

      .cls-7 {
        fill: #c48e6a;
      }

      .cls-8 {
        fill: #6bb7bf;
      }

      .cls-9 {
        fill: #f99746;
      }

      .cls-10 {
        fill: #db6f26;
      }

      .cls-11 {
        fill: #ffa969;
      }

      .cls-12 {
        fill: #ed7d2b;
      }

      .cls-13 {
        fill: #efcbab;
      }

      .cls-14 {
        fill: #2c3a64;
      }

      .cls-15 {
        fill: #ed985f;
      }

      .cls-16 {
        fill: #2b478b;
      }

      .cls-17 {
        fill: #233862;
      }

      .cls-18 {
        fill: #ffb27d;
      }

      .cls-19 {
        fill: #8ad8db;
      }

      .cls-20 {
        fill: #ed9f4a;
      }

      .cls-21 {
        fill: #ffb278;
      }

      .cls-22 {
        fill: #b5453c;
      }

      .cls-23 {
        fill: #9e3530;
      }

      .cls-24 {
        fill: #ed975d;
      }

      .cls-25 {
        fill: #f99f46;
      }

      .cls-26 {
        fill: #afcdfb;
      }

      .cls-27 {
        fill: #f38e38;
      }

      .cls-28 {
        fill: #d3671e;
      }

      .cls-29 {
        fill: #35488b;
      }

      .cls-30 {
        fill: #5ea7aa;
      }

      .cls-31 {
        fill: #ea9c68;
      }

      .cls-32 {
        fill: #fff;
      }

      .cls-33 {
        fill: #2e3552;
      }
    </style>
  </defs>
  <g>
    <path class="cls-1" d="M3058.62,1118.67q-.16,9.16-.59,18.19t-1,17.77a772.59,772.59,0,0,1-12.84,95.39c-.31,1.57-.62,3.14-1,4.69l-.16.89c-.87,4.2-1.74,8.38-2.66,12.51q-.74,3.32-1.49,6.6-1.77,7.74-3.63,15.28c-.34,1.31-.66,2.62-1,3.92-4.72,18.68-30.73,92.87-30.73,92.87-9.1,24.19-18,44-25,59.14-7.22,15.45-12.5,26.47-15.05,31.72-.81,1.7-1.31,7.41-1.31,7.41s-2634.56.4-2634.7.31c-136.95-104.47-82-308.25,88.78-459.29,127.94-113.18,230.2-142.73,163-380.19-19-67.12-14.45-127.58,4.37-181.14,59.59-169.68,262.67-270,316.56-292.42,5.25-2.17,10.57-4.3,15.95-6.35,18.91-7.22,38.6-13.64,58.91-19.29q17.3-4.85,35.17-8.92,10.75-2.47,21.7-4.65A1007.56,1007.56,0,0,1,1147.62,117q7.52-.63,15.05-1.15,11.57-.8,23.2-1.39,15.59-.78,31.22-1.19c2.07,0,4.13-.1,6.19-.13,7.6-.17,15.22-.25,22.82-.27h5.57q13.35,0,26.66.29,22.17.47,44.26,1.65c1.24,0,2.48.13,3.72.2q14.28.8,28.43,1.9c2.94.22,5.86.45,8.79.69a1334.88,1334.88,0,0,1,162.24,23.39c4.79,1,9.53,2,14.22,3.1h0q39.66,8.91,74.91,20.16,19.26,6.11,37.3,12.78l0,0,.11,0,.39.15q25.71,9.52,49.08,20.11c2.45,1.1,4.87,2.21,7.28,3.33A704.69,704.69,0,0,1,1864.67,299c12.6,10.48,24.46,21,35.7,31.58,1.56,1.44,3.09,2.91,4.61,4.36,3.47,3.28,6.88,6.58,10.21,9.86,1.56,1.52,3.08,3,4.61,4.57,9.89,9.84,19.28,19.61,28.27,29.24q6.81,7.29,13.31,14.42c23.76,26.12,44.69,50.65,64.59,71.67,2.52,2.66,5,5.26,7.51,7.8q7.57,7.75,15,14.73c21.53,20.09,42.69,35,65.95,42.05,3.18,1,6.41,1.79,9.68,2.47a104.15,104.15,0,0,0,14.22,1.91c24.43,1.59,52.88-2.52,84.93-8.74,3.15-.61,6.35-1.25,9.58-1.9,41.91-8.48,89.63-19.85,142.16-26.64q10-1.31,20.32-2.36c2.53-.27,5.07-.51,7.61-.75,60.18-5.54,126.07-3.85,196.38,15.3,7.44,2,14.94,4.24,22.49,6.68a533.56,533.56,0,0,1,56.87,22.07q4.8,2.19,9.59,4.48,22,10.53,44.46,23.71,4.66,2.73,9.32,5.6,22.88,14,46.18,31.07c.37.29.76.57,1.14.85q10.05,7.39,20.2,15.43,11.82,9.36,23.75,19.6,28.93,24.78,58.41,54.93,21.28,21.83,39.35,44.22,12.43,15.38,23.4,31c1.34,1.86,2.64,3.71,3.93,5.6A568.13,568.13,0,0,1,2992,829q1.86,3.47,3.62,6.92a552.75,552.75,0,0,1,32.62,77.16c.73,2.16,1.43,4.32,2.12,6.46s1.46,4.55,2.16,6.83c.44,1.41.87,2.83,1.29,4.24q2.67,8.82,5,17.61.79,3,1.56,6,1.59,6.24,3,12.47c.13.54.25,1.08.37,1.62.8,3.4,1.53,6.79,2.24,10.19q2.38,11.49,4.28,22.92A634.26,634.26,0,0,1,3058.62,1118.67Z"/>
    <g>
      <path class="cls-2" d="M2114.46,529.33V950.85H1147.62V117q7.5-.61,15.05-1.15,11.57-.8,23.2-1.39,15.59-.78,31.22-1.18c2.07-.06,4.12-.11,6.19-.14,7.6-.16,15.22-.25,22.82-.27h5.57q13.35,0,26.66.29,22.17.47,44.26,1.65c1.24.06,2.48.14,3.72.21q14.28.78,28.43,1.89c2.94.22,5.86.45,8.79.7a1332.67,1332.67,0,0,1,162.24,23.38q7.18,1.51,14.22,3.1h0q39.66,8.93,74.91,20.17,19.26,6.09,37.3,12.78h0l.11,0,.39.15q25.71,9.52,49.08,20.11c2.45,1.1,4.87,2.22,7.28,3.33A704.69,704.69,0,0,1,1864.67,299c12.6,10.48,24.46,21,35.7,31.59,1.56,1.44,3.09,2.9,4.61,4.35q5.2,4.92,10.21,9.87c1.56,1.52,3.08,3,4.61,4.56,9.89,9.84,19.28,19.61,28.27,29.24q6.81,7.29,13.31,14.43c23.76,26.11,44.69,50.64,64.59,71.66,2.52,2.66,5,5.26,7.51,7.8q7.57,7.75,15,14.73C2070,507.37,2091.2,522.25,2114.46,529.33Z"/>
      <path class="cls-3" d="M1223.28,113.1V928.39h-75.66V117q7.5-.61,15.05-1.15,11.57-.8,23.2-1.39,15.59-.78,31.22-1.18C1219.16,113.18,1221.21,113.13,1223.28,113.1Z"/>
      <path class="cls-3" d="M2124.14,531.79v396.6h-75.63V487.27c21.53,20.1,42.69,35,65.95,42.06C2117.64,530.3,2120.87,531.11,2124.14,531.79Z"/>
      <path class="cls-4" d="M2048.51,487.27V617.75S1829,579.43,1799.46,435.56c-23.84-116.33-70-144.72-146.73-196-11.86-7.89-24.44-16.36-37.82-25.81q-10.65-7.47-21.93-15.86A238.3,238.3,0,0,1,1540,144q39.66,8.93,74.91,20.17,19.26,6.09,37.3,12.78h0l.11,0,.39.15q25.71,9.52,49.08,20.11c2.45,1.1,4.87,2.22,7.28,3.33A704.69,704.69,0,0,1,1864.67,299c12.6,10.48,24.46,21,35.7,31.59,1.56,1.44,3.09,2.9,4.61,4.35q5.2,4.92,10.21,9.87c1.56,1.52,3.08,3,4.61,4.56,9.89,9.84,19.28,19.61,28.27,29.24q6.81,7.29,13.31,14.43c23.76,26.11,44.69,50.64,64.59,71.66,2.52,2.66,5,5.26,7.51,7.8Q2041.05,480.29,2048.51,487.27Z"/>
      <path class="cls-3" d="M2187.1,967.27h-1122a.27.27,0,0,1-.27-.27h0a53.74,53.74,0,0,1,53.74-53.74H2133.63A53.74,53.74,0,0,1,2187.37,967h0A.27.27,0,0,1,2187.1,967.27Z"/>
      <path class="cls-4" d="M1223.28,432.8s145,48.78,154.12,225.22,181.54,66.28,192.89,255.24h-347Z"/>
      <path class="cls-3" d="M1652.73,177.18V928.39h-37.82V164.21q19.26,6.09,37.3,12.78h0l.11,0Z"/>
    </g>
    <g>
      <path class="cls-5" d="M2618.32,625.52,2621,832.63l8.26,629.83a16.14,16.14,0,0,1-16.19,16.37h-1.41a17.21,17.21,0,0,1-17.16-17.47l9.68-666,2.48-169.9Z"/>
      <path class="cls-6" d="M2725,1480.9l-226.18-.63h0a50.72,50.72,0,0,1,50.87-50.59l126.52.35a48.94,48.94,0,0,1,48.8,49.07Z"/>
      <path class="cls-7" d="M2618.32,625.52,2621,832.63a336.87,336.87,0,0,0-16.82-37.24l2.48-169.9Z"/>
      <path class="cls-8" d="M2757.44,750.07l-284.27-.79A20.73,20.73,0,0,1,2453,724.07l8.77-39.72,52.8-239a27.17,27.17,0,0,1,26.61-21.31l141,.39,19.63,0a19.24,19.24,0,0,1,18.84,15.59L2776,727.63A18.87,18.87,0,0,1,2757.44,750.07Z"/>
      <path class="cls-6" d="M2758.93,750.07l-291.73-.81a15.91,15.91,0,0,1-15.5-19.36l10.06-45.55c177.44-72,213.21-210.47,220.41-259.88l19.14,0a19.82,19.82,0,0,1,19.42,16.07l55.57,288.5A17.64,17.64,0,0,1,2758.93,750.07Z"/>
    </g>
    <g>
      <path class="cls-9" d="M2743.44,1185.69S2799.57,957,2803.62,937.8c1.8-8.57,7.37-11.67,13-12.46-9.86-1-17-1.09-17-1.09-19.42,0-36.68,13.9-42.91,34.56-13.6,45.06-66.27,120.49-91.63,205.13C2666.29,1163.9,2743.44,1185.69,2743.44,1185.69Z"/>
      <path class="cls-9" d="M2411.75,1387.91c9,57.37,67.49,93.9,127.53,93.9H2658.2l-8.37-330.19s-114.4-40.57-142.89-5.93c-25,30.35-92.67,150.49-96.23,221.6A100.62,100.62,0,0,0,2411.75,1387.91Z"/>
      <path class="cls-10" d="M2727.43,1182.87S2567,1101,2536.62,1154.48c-16.13,28.4-60.53,141.7-63.8,212.8-3.19,69.09,56.67,114.52,118.24,114.52h109.36Z"/>
      <path class="cls-11" d="M3038.84,948.23c-11.92,41.88-43.4,151.43-69.05,231.46-16.26,50.7-30.18,89.56-35.3,91.84s-33.38,1.5-68.63-1.75c-25.45-2.33-54.58-5.93-81.39-10.54-15.43-2.64-30.09-5.62-42.84-8.87-3.43-.89-6.73-1.78-9.86-2.7l-.89-.26q-4.78-1.41-9-2.9c-14.23-5-23.46-10.42-24.59-16.23-1-5.27,1.47-17.76,6.27-34.74,1.31-4.66,2.8-9.66,4.44-14.94.27-.88.55-1.77.84-2.66.17-.56.34-1.12.53-1.68,4.92-15.6,11-33.41,17.69-52.06.84-2.33,1.68-4.68,2.53-7,3-8.34,6.11-16.81,9.26-25.3,12.22-32.95,25.1-66.14,35.59-92.73,10.62-26.9,13.46-51.24,24.92-63.56a25.68,25.68,0,0,1,15.85-8.11q.58-.09,1.2-.15c1.33-.14,2.73-.21,4.2-.22,15.71-.05,37.91.31,62.27.86,50.94,1.18,111.32,3.24,141.57,4.32h0l9.4.34Q3036.51,939.44,3038.84,948.23Z"/>
      <path class="cls-10" d="M2411.75,1387.91c9,57.37,67.49,93.9,127.53,93.9h58.33C2558.71,1455.44,2523.54,1374.19,2411.75,1387.91Z"/>
      <path class="cls-11" d="M2505.39,1430.43c23,31.9,58.17,52.34,97.39,51.71l168.61.08,80.79,0-90.89-299.34s-230.05-22.89-258.42,7.63c-13.17,14.17-20.56,78.34-24.7,143C2475.83,1370,2486.44,1404.14,2505.39,1430.43Z"/>
      <path class="cls-9" d="M2505.39,1430.43c23,31.9,58.17,52.34,97.39,51.71l168.61.08c-19.84-16.65-82.24-63.92-149-61.68C2571.69,1422.23,2531.48,1421.51,2505.39,1430.43Z"/>
      <path class="cls-9" d="M2645.12,1390.92c9.65,55.63,62.56,90.89,116.8,90.89h109.36l-8.55-334.34s-104.34-36.42-130.55-1.78c-23,30.35-85.22,150.49-88.5,221.6A108.31,108.31,0,0,0,2645.12,1390.92Z"/>
      <path class="cls-10" d="M2645.12,1390.92c9.65,55.63,62.56,90.89,116.8,90.89h87.52C2808.47,1454,2753.32,1377.33,2645.12,1390.92Z"/>
      <path class="cls-12" d="M3050.29,1001.43q-1.9-11.41-4.28-22.92c-.71-3.4-1.44-6.79-2.24-10.19-.12-.54-.24-1.08-.37-1.62q-1.41-6.24-3-12.47-.77-3-1.56-6-2.34-8.79-5-17.61c-.42-1.41-.85-2.83-1.29-4.24q-1,.36-2,.78c-.52.22-1.05.44-1.57.68a42.61,42.61,0,0,0-4.5,2.44h0q-.91.56-1.8,1.17c-.55.38-1.1.77-1.64,1.18a50.76,50.76,0,0,0-17.71,26c-12.7,42.2-35.36,117.62-58.94,196.52-.11.39-.24.79-.36,1.18q-2,6.81-4.06,13.63-.21.7-.42,1.38l-.2.7-4.14-1.84a.52.52,0,0,0-.15-.06c-5.65-2.51-12.05-5.25-19-8q-5.39-2.18-11.12-4.39c-10.8-4.13-22.44-8.23-34.25-11.74-5.24-1.57-10.51-3-15.76-4.32-6.73-1.67-13.42-3.09-19.93-4.13-.22,0-.41-.07-.57-.1l-2.3-.35c-4.57-.67-9.06-1.16-13.4-1.42h-.06c-22.22-1.36-40.63,3.07-49.07,17.94a308.92,308.92,0,0,0-13.58,28.79c-7.5,17.7-16.21,40.6-24.25,65.26-5.44,16.67-10.57,34.15-14.83,51.36v0s0,0,0,.06a0,0,0,0,1,0,0c-6,24.1-10.19,47.71-11.11,67.9a107.85,107.85,0,0,0,1.9,26.19c.15.8.31,1.57.5,2.36v0c11.08,49.82,57.21,82.24,106.44,85.94l2.46.15,1.86.09h.21c1,0,2.09.07,3.13.09h111.1v-.06l6.31.09c7.1.09,14.4.17,21.55.24,2.77-5.7,9.41-19.49,17.25-36.26,7.68-16.43,17.19-38.24,27.07-64.5h0q2.74-7.31,5.55-15.1c2.58-7.28,5.2-14.83,7.78-22.67,1-2.9,1.92-5.84,2.87-8.82,5.72-17.85,11.28-37,16.41-57.28.23-.94.47-1.89.71-2.83q.75-3.29,1.49-6.6c.92-4.13,1.79-8.31,2.66-12.51l.16-.89c.33-1.55.64-3.12,1-4.69a772.59,772.59,0,0,0,12.84-95.39q.63-8.81,1-17.77t.59-18.19A634.26,634.26,0,0,0,3050.29,1001.43Z"/>
      <path class="cls-9" d="M3040.4,954.23q-.77-3-1.56-6-2.34-8.79-5-17.61c-.42-1.41-.85-2.83-1.29-4.24q-1,.36-2,.78c-.52.22-1.05.44-1.57.68a39.25,39.25,0,0,0-4.5,2.44h0q-.91.56-1.8,1.17c-.55.38-1.1.77-1.64,1.18a50.45,50.45,0,0,0-17.71,25.94c-13.6,45.06-38.63,128.16-64,212.79l.2,0c2.07.4,17.14,4.6,30.29,8.31,10.78,3,20.29,5.76,20.29,5.76s37.37-152.28,53.32-218.75Q3042,960.46,3040.4,954.23Z"/>
    </g>
    <g>
      <g>
        <g>
          <path class="cls-5" d="M840.89,1212.81,829.5,1264h0L782,1477.13h-5l27.42-176.8c0-.18.07-.35.09-.54l13.57-87.44Z"/>
          <path class="cls-7" d="M840.89,1212.81,829.5,1264h0c-.65.39-21.4,13.11-24.92,35.77l13.57-87.44Z"/>
          <path class="cls-5" d="M1065,1477.13h-5l-38.65-173.6v0l-8.79-39.48h0l-11.39-51.2,22.76-.46,7.76,50,5.81,37.45c0,.19.06.36.09.54Z"/>
          <path class="cls-7" d="M1031.63,1262.34c-4.2,7.25-10,20.88-10.32,41.16l-8.79-39.48h0l-11.39-51.2,22.76-.46Z"/>
        </g>
        <rect class="cls-13" x="718.61" y="1178.4" width="391.74" height="45.1" rx="9.19"/>
      </g>
      <g>
        <g>
          <path class="cls-14" d="M801.54,825.77c-16.69-8.39-30.37-39.08-28.92-44.56a42.47,42.47,0,0,1,2.19-4.9l79.38-33.58s-8.51-49.62-33.9-56.39c-.73-9.67-5.83-30.64-36.28-30.64,0,0,12,3.25,18.2,9.76,0,0-25.25-14.83-52.73,7.95s-10.4,79.9-18.76,90.74-40.89,13-36.91,48.08,103.26,79,96.89,108c0,0,36.44-53.58,13.56-80.69,4,4.49,11.46,14.27,12.46,25.35C816.72,864.9,820.4,835.25,801.54,825.77Zm.24,11.17.66.65C802.22,837.37,802,837.15,801.78,836.94Z"/>
          <g>
            <path class="cls-15" d="M764,841c-15.74-25.56-54.68-21.16-63.47,7.55a31.83,31.83,0,0,0-.64,16.65c7.49,32.77,103.9,142.4,115.28,151.37,20.7,16.34,123.85,60.67,123.85,60.67l11.08-13.74s-88.1-72.7-99.69-78.3C837,978.77,793.85,889.56,764,841Z"/>
            <path class="cls-15" d="M930.48,1070.66s15.79-21.1,23.95-23.06,33.22-3.65,34.71-.41-23.33,14.57-24.39,17-14.22,20.32-21.83,19S930.48,1070.66,930.48,1070.66Z"/>
          </g>
          <path class="cls-16" d="M709.15,1457.19l-19.68-2.89s-66.17-52.59-76-150.71a176.39,176.39,0,0,1-.47-30.34,5.25,5.25,0,0,0-.69-3.35s0,0,0,0c-2.12-3.25-7.39-11.38-14.52-22.95-7-11.4-19.08-32.94-32.32-57.12-23.86-43.54-51.64-95.61-61.17-112.2-30.36-52.86-15.73-88.41-15.73-88.41s84.7-8.37,107.91-28.67l8.36,12.88s18.35,81.24,17.48,81.62q1.35,4.14,2.75,8.44c14.49,44.69,31.15,100.56,40.23,146.06,5.1,25.61,7.81,47.91,6.35,63.11-.5,5.22.11,13.23,1.5,23.12C681.3,1354.05,709.15,1457.19,709.15,1457.19Z"/>
          <path class="cls-17" d="M750.43,1482.09H668.32s-2-12.52,2.33-22c4.1-9.11,10-9.4.74-23.68,5.22,5.37,22,7.59,33.86,6,1.46,2.36,9.38,18.18,14.24,21.67C724.85,1467.92,748.78,1466.55,750.43,1482.09Z"/>
          <path class="cls-17" d="M625,1063.46c-7.17,39.55-24.11,105.39-59.6,126.34-23.86-43.54-51.64-95.61-61.17-112.2-30.36-52.86-15.73-88.41-15.73-88.41s84.7-8.37,107.91-28.67l8.36,12.88s18.35,81.24,17.48,81.62Q623.62,1059.16,625,1063.46Z"/>
          <path class="cls-12" d="M775.61,839.57s11.61,12.07,16.91,26.53c0,0-18.52,53.18-61.8,59.85C730.72,926,765,839.55,775.61,839.57Z"/>
          <path class="cls-16" d="M567.44,995.3l.28-15.36c-30.6,3.86-105.5-36.56-105.5-36.56s-32,21.29-36.39,82.09c-2.14,29.68-15.67,155.18-17.17,192.66-.54,13.58-.73,23.27-.79,27.15a.08.08,0,0,1,0,0,5.41,5.41,0,0,1-1.3,3.16A174.64,174.64,0,0,0,390,1273.89c-46.69,86.87-22.28,204.9-22.28,204.9l10.85-2.76s39.47-122.36,65.27-175.29c4.38-9,8.36-16,11.69-20,9.7-11.78,19.93-31.79,30-55.87,19.06-45.53,37.57-105.61,50.76-152.12C537.23,1072.92,567.44,995.3,567.44,995.3Z"/>
          <path class="cls-18" d="M746.49,892.81c-50-11.48-18.06-81.77-15.17-80.53,6.93-1.41,22.16-13.58,35.77-37.35l1.84,1.6,30.72,26.93s-7.1,10.48-13.07,20.74c-4.67,8-8.64,15.95-8,18.66C781,844.81,759.83,895.87,746.49,892.81Z"/>
          <path class="cls-15" d="M799.65,803.47s-7.1,10.46-13.07,20.73c-19.1-11.77-19.12-35.42-17.65-47.67Z"/>
          <path class="cls-18" d="M800.5,817s-46.37-25.81-29.86-54.44,21.65-51.25,52-36,29.71,29.48,26.52,40.38S813,822.93,800.5,817Z"/>
          <path class="cls-14" d="M857,750.21c-2.13-12.71-8.58-13.92-13.09-13.07-17.12-28.33-45.11-17.27-45.11-17.27-14.94,18.75-36.55,22-36.55,22s5.38,10,27.56,16.21c6.77,1.9,14.46.75,21.87-1.74a124,124,0,0,1-31.47,11.86c29.22,2.67,57-24,59.91-26.9,1.34,4.14,3.71,12.81,2.29,19.14-1.92,8.62-9.56,24.21-4.9,26.23C837.47,786.62,860.14,769.28,857,750.21Z"/>
          <path class="cls-17" d="M433,1482.09H350.91s-2-12.52,2.32-22c4.11-9.11,10.55-13.25,9-24.27,5.21,5.37,13.72,11.38,25.59,9.79,1.45,2.36,9.39,15,14.24,18.47C407.44,1467.92,431.37,1466.55,433,1482.09Z"/>
          <path class="cls-9" d="M752.37,948.53c-10.56,3.69-25.39,5.7-40.56,7.35-21.59,2.36-43.88,4-55.56,8.63-4.26,1.7-7.1,3.79-8,6.48-5.07,15.22-27.37,38.7-27.37,38.7-143-6.51-158.67-66.31-158.67-66.31,96.19-111.85,259.06-144.23,259.06-144.23s11.64-4.93,40.93,18.35c19.56,15.54,17,21.51,17,21.51S783.46,937.68,752.37,948.53Z"/>
          <path class="cls-12" d="M711.81,955.88c-21.59,2.36-43.88,4-55.56,8.63-4.77-71.31,28.88-124.94,28.88-124.94S707.08,928.9,711.81,955.88Z"/>
          <path class="cls-18" d="M734,825.77s-54.11,5.35-58.45,40.51,51.88,178.37,59.93,191.33c14.66,23.61,101,104.53,101,104.53l15.9-9.64s-61.22-103.63-70.69-113.33C766.81,1023.94,752.36,838,734,825.77Z"/>
          <path class="cls-9" d="M677.15,887.43c.14.8,49.93,16.27,82,0,0,0,6.86-73.94-31.4-69.93s-60.92,16.06-61.88,34.38S677.15,887.43,677.15,887.43Z"/>
        </g>
        <path class="cls-18" d="M852.38,1152.5s22.58-2.45,28.39,3.74,19.73,15.48,16.25,18.58-31.73-3-36.76-3-15.48,7.74-18.18,3.87-5.6-13.55-5.6-13.55Z"/>
        <path class="cls-8" d="M818.09,1179.07s44.22-12,52.48-10.44,25.68,6.24,37.86,8.15,22.64,1.91,23.51,3.65Z"/>
      </g>
      <g>
        <g>
          <path class="cls-8" d="M994.55,1113.1s-23.46,9.52-40.14-14.41C954.41,1098.69,981.48,1094.1,994.55,1113.1Z"/>
          <path class="cls-8" d="M996.2,1103.28s1.64-8.38,11.48-8.67C1007.68,1094.61,1004,1103.1,996.2,1103.28Z"/>
          <path class="cls-8" d="M991.25,1054.21s-11.37,1.22-15.63-11.24C975.62,1043,987.94,1044.34,991.25,1054.21Z"/>
          <g>
            <path class="cls-8" d="M964.26,889.44c23-4.92,23.34-23.7,23.34-23.7C960.57,874.28,964.26,889.44,964.26,889.44Z"/>
            <path class="cls-8" d="M962.69,885.16s-14.32,5.81-24.5-8.8C938.19,876.36,954.71,873.56,962.69,885.16Z"/>
            <path class="cls-8" d="M994.1,1168.15l3,3.42a.75.75,0,0,0,1.31-.5c-.17-96.62-12.44-182.47-22.74-233.12-11.25-55.28-22.65-88-22.77-88.28h0c.12.32,10.4,33.53,21.61,88.65,10.32,50.73,22.13,117,19.14,228.53A2,2,0,0,0,994.1,1168.15Z"/>
            <path class="cls-9" d="M953.06,836.5c3.66,2.94,17.67,15.48,4.08,25.14,0,0-10.42,3.3-13.88-4.72a51.2,51.2,0,0,1-3.53-15.86A1.39,1.39,0,0,1,941,839.6a11.08,11.08,0,0,0,2.94-.66c1.29-.5,1.95-2.45,3.69-2.88a10.28,10.28,0,0,1,3.47-.39A3.74,3.74,0,0,1,953.06,836.5Z"/>
            <path class="cls-8" d="M960.84,858.15a8.43,8.43,0,0,0-2.62,8.64l0,2a9.31,9.31,0,0,0-6.2-6.43S956.66,862.83,960.84,858.15Z"/>
            <path class="cls-19" d="M964.26,889.44c23-4.92,23.34-23.7,23.34-23.7S969.42,875.73,964.26,889.44Z"/>
          </g>
          <g>
            <path class="cls-8" d="M986.31,876.58s14.43,5.52,24.31-9.28C1010.62,867.3,994.05,864.83,986.31,876.58Z"/>
            <path class="cls-8" d="M960.57,1160.15l-2.9,3.47a.74.74,0,0,1-1.31-.47c-1.77-96.61,8.78-182.68,18.07-233.53,10.13-55.49,20.88-88.39,21-88.72h0c-.11.33-9.73,33.73-19.83,89.06-9.3,50.94-19.78,117.47-14.56,228.87A1.94,1.94,0,0,1,960.57,1160.15Z"/>
            <path class="cls-9" d="M995,827.74c-3.6,3-17.36,15.83-3.58,25.22,0,0,10.49,3.09,13.78-5a51,51,0,0,0,3.22-15.92,1.38,1.38,0,0,0-1.3-1.43,11,11,0,0,1-3-.61c-1.3-.47-2-2.41-3.74-2.8a10.15,10.15,0,0,0-3.48-.32A3.62,3.62,0,0,0,995,827.74Z"/>
            <path class="cls-8" d="M987.61,849.54a8.42,8.42,0,0,1,2.79,8.58v2a9.28,9.28,0,0,1,6.06-6.56S991.88,854.13,987.61,849.54Z"/>
          </g>
          <g>
            <path class="cls-8" d="M980.19,859.66s-15.24,2.55-22-13.93C958.2,845.73,974.94,846.6,980.19,859.66Z"/>
            <path class="cls-8" d="M949.14,1142.69l2.14,4a.75.75,0,0,0,1.38-.2c20.91-94.33,27.66-180.79,28.65-232.47,1.08-56.4-2.93-90.78-3-91.12h0c0,.34,2.84,35,1.76,91.23-1,51.76-3.93,119.05-31.16,227.2A2,2,0,0,0,949.14,1142.69Z"/>
            <path class="cls-9" d="M981.41,810.07c2.93,3.67,13.87,19-1.51,25.43,0,0-10.89,1-12.5-7.64a51.14,51.14,0,0,1,0-16.24,1.38,1.38,0,0,1,1.56-1.15,11.28,11.28,0,0,0,3,0c1.37-.21,2.43-2,4.22-2a10.09,10.09,0,0,1,3.48.38A3.69,3.69,0,0,1,981.41,810.07Z"/>
            <path class="cls-8" d="M984.28,832.89a8.43,8.43,0,0,0-4.44,7.86l-.38,1.93a9.31,9.31,0,0,0-4.65-7.63S979.18,836.55,984.28,832.89Z"/>
          </g>
          <path class="cls-8" d="M967.61,842.68s0-12.06-10.39-15.85C957.22,826.83,954.93,836.9,967.61,842.68Z"/>
          <path class="cls-20" d="M992,823.29s-.31-9.21,8.21-11.86C1000.25,811.43,1002.3,820,992,823.29Z"/>
          <path class="cls-20" d="M964.09,878.69c-.31.27-4.44-9,4-16.37C968.06,862.32,971.57,872.19,964.09,878.69Z"/>
          <path class="cls-8" d="M958.2,878c.23.06.07-4.59-4.3-5.26C953.9,872.71,953.16,876.59,958.2,878Z"/>
          <path class="cls-8" d="M1001.76,862.32s3.69-7.64,15.49-6.31C1017.25,856,1015.48,864.2,1001.76,862.32Z"/>
        </g>
        <path class="cls-9" d="M936.53,1179.46h75.65a8.34,8.34,0,0,0,8.26-9.54l-35.22-242.7a4.6,4.6,0,0,0-4.55-4H969.42a4.92,4.92,0,0,0-4.86,4.2l-36,242.69A8.11,8.11,0,0,0,936.53,1179.46Z"/>
        <path class="cls-21" d="M995.43,1172.12l-18.7-248.79a4.59,4.59,0,0,1,3.95,3.89l35.21,242.7a8.34,8.34,0,0,1-8.25,9.54H992.52A8.94,8.94,0,0,0,995.43,1172.12Z"/>
      </g>
    </g>
    <g id="man">
      <g>
        <path class="cls-14" d="M1784.6,1387.66s19,17.65,15.32,30.18-20.9,20.9-23.22,36.22-11.61,23.68-20,23.68h-39.84s-6.16-10.78,8.7-14,20.46-21.26,19.54-38,1.39-39,1.39-39l31.57-7.43Z"/>
        <path class="cls-14" d="M1551,1435.77s4.64,37.15-3.72,41.33-108.19,2.78-108.19,2.78,0-12.53,17.18-15.32,47.36-13,52.47-35.76S1551,1435.77,1551,1435.77Z"/>
        <path class="cls-22" d="M1460.72,868.52s5.64,70.39,12.27,155c9,114.94,19.85,256.13,20.92,282.87,1.86,46.45,9.3,120.74,9.3,120.74s17.63,17.65,52.93,10.21c0,0,31.46-106,40.44-218.26q.21-2.76.42-5.55c8.36-114.23,21.36-354.76,21.36-354.76Z"/>
        <path class="cls-23" d="M1460.72,868.52s5.64,70.39,12.27,155l123.59,195.56q.21-2.76.42-5.55c8.36-114.23,21.36-354.76,21.36-354.76Z"/>
        <path class="cls-22" d="M1486.48,876.88s101.7,254.92,168.56,374.73,87.76,153.23,87.76,153.23,38.31-15.32,41.8-25.77c0,0-25.57-231.28-70.35-287.67-25.31-31.85-55-127.46-56.42-160.89s-9.06-99.61-9.06-99.61Z"/>
      </g>
      <g>
        <path class="cls-18" d="M1358.8,960s-23,32.49-25.07,38.7-2,31-.36,32,3.4.56,5.15-3,5.16-16.2,6.31-14.83-6.33,38.76.48,42,27.56-10.36,35-26,1.85-54.82,2.73-57.62C1390.51,947.46,1358.8,960,1358.8,960Z"/>
        <path class="cls-12" d="M1366.35,976.89c-12.92-2.74-14.21-4.53-14.21-4.53s2.15-127.09,1.83-139-50.81-172.94-50.81-172.94l86.44-87.16s31.75,228,32,258.28c.36,50-36.66,144.41-36.66,144.41A36.87,36.87,0,0,1,1366.35,976.89Z"/>
      </g>
      <path class="cls-18" d="M1360.18,551.42s-23,80.76-60.16,99.63c0,0-4.17-24.22,1.45-42.86-5.06-3.68-9.55-7.1-13.46-10.18a244.18,244.18,0,0,1-19.63-16.92l4.6-39.21,3.13-26.6a120.91,120.91,0,0,0,19.16,17C1328.33,555.64,1360.18,551.42,1360.18,551.42Z"/>
      <path class="cls-24" d="M1295.27,532.25s13.48,34.37-7.26,65.76a244.18,244.18,0,0,1-19.63-16.92l4.6-39.21C1286.26,534,1295.27,532.25,1295.27,532.25Z"/>
      <path class="cls-18" d="M1259,588.92s54.51-38.17,30.22-71.74-33.62-61.12-69.45-38.17-33.24,40.6-27.86,53.78S1244.23,598,1259,588.92Z"/>
      <path class="cls-9" d="M1656,864.9C1640.19,905.75,1469.9,996.72,1466.18,972a271.53,271.53,0,0,0-11.65-47.68q-2.6-7.62-6-16c-12.38-30.66-33.29-68.82-69.28-110.15q-4-4.65-8.34-9.34a378.49,378.49,0,0,1-39-50.45c-21.46-33.3-35-66.86-34.21-91.16a1,1,0,0,1,0-.34c33.68-26.81,31.79-98.49,31.79-98.49s135.22-8.34,249.9,146.63c0,0,11.59,17.26,25.83,41.06,17.28,28.85,38.46,67.28,47.55,96.16C1657.2,846,1658.79,857.54,1656,864.9Z"/>
      <path class="cls-16" d="M1281,445.81c.22-.93,1.23-2.12,4-3.76a12.91,12.91,0,0,0-6.12,1.25c-2.7-3.72-8.52-9.74-16.24-7.91a9.77,9.77,0,0,1,7.41,4.1c-12.2-4.12-32.26-1.29-77.17,26.91-59.2,37.17-17.89,66.73-7.39,67.34s23.78-23,39.3-29.58,29.77,13.82,36.39,14.19,1.87-3.91,7.07-10.61,11.85,4.46,13.78,13,16.47,13.49,16.47,13.49l4.08-15.34c4.08-15.34-9.91-64-19.12-71.13Z"/>
      <path class="cls-12" d="M1652.86,832.26c-167.82-9-238.14-189.34-238.14-189.34s105.59,46.31,190.59,93.18C1622.59,765,1643.77,803.38,1652.86,832.26Z"/>
      <g>
        <g>
          <path class="cls-25" d="M2133.83,1456.44a22.39,22.39,0,1,1,22.39,22.38A22.38,22.38,0,0,1,2133.83,1456.44Z"/>
          <path class="cls-12" d="M2142.54,1456.44a13.68,13.68,0,1,1,13.68,13.67A13.68,13.68,0,0,1,2142.54,1456.44Z"/>
        </g>
        <path class="cls-26" d="M1976.73,1433.81c-4.16,0-87.79-.82-145.35-62.84-39.51-42.57-56.58-102.89-50.75-179.28,11.91-156-13.58-282.23-69.92-346.31-25.37-28.86-56.46-44.45-92.41-46.33-61.53-3.22-119.21,67.38-119.79,68.1l-20.78-16.77c2.7-3.35,67-81.9,142-78,43.4,2.27,80.77,20.9,111.07,55.36,31.15,35.42,53.57,86.17,66.65,150.82,12.65,62.55,16,134.94,9.84,215.15-5.24,68.67,9.46,122.19,43.7,159.09,49.88,53.74,124.86,54.3,125.78,54.3h0l0,26.7Z"/>
        <path class="cls-25" d="M2208.75,1445.72a32.19,32.19,0,0,1-22.86,9.37H1948.38a19.52,19.52,0,0,1-18.8-24.83c9.7-34.25,30.56-94,62.18-113.44a63.52,63.52,0,0,1,19.2-7.41c56-12.72,164.57,19.4,202.51,95.43,0,0,.91,1.65,2.2,4.52A32.33,32.33,0,0,1,2208.75,1445.72Z"/>
        <g>
          <polygon class="cls-16" points="1511.35 869.8 1190.05 1294.93 1068.1 1456.32 1047.46 1441.27 1164.47 1276.27 1472.71 841.62 1511.35 869.8"/>
          <polygon class="cls-25" points="1190.05 1294.93 1068.1 1456.32 1047.46 1441.27 1164.47 1276.27 1190.05 1294.93"/>
        </g>
        <path class="cls-12" d="M1109.4,1451.49v13.66a12.37,12.37,0,0,1-12.32,12.33H977.57a12.35,12.35,0,0,1-12.31-12.33v-13.66a12.33,12.33,0,0,1,12.31-12.31h119.51A12.35,12.35,0,0,1,1109.4,1451.49Z"/>
        <path class="cls-25" d="M1080.08,1451.49v13.66a12.36,12.36,0,0,1-12.32,12.33H977.57a12.35,12.35,0,0,1-12.31-12.33v-13.66a12.33,12.33,0,0,1,12.31-12.31h90.19A12.34,12.34,0,0,1,1080.08,1451.49Z"/>
        <path class="cls-27" d="M2208.75,1445.72a32.19,32.19,0,0,1-22.86,9.37H1948.38a19.52,19.52,0,0,1-18.8-24.83c9.7-34.25,30.56-94,62.18-113.44a63.52,63.52,0,0,1,19.2-7.41C2032.62,1350.38,2091.71,1437.84,2208.75,1445.72Z"/>
        <g>
          <path class="cls-25" d="M1966.68,1425.33a53.5,53.5,0,1,1,53.5,53.49A53.49,53.49,0,0,1,1966.68,1425.33Z"/>
          <path class="cls-12" d="M1987.5,1425.33a32.68,32.68,0,1,1,32.68,32.68A32.68,32.68,0,0,1,1987.5,1425.33Z"/>
        </g>
      </g>
      <path class="cls-18" d="M1668.52,769.57s-7.22,29.79-6.94,34.83,4.27,20.39,5.7,20.64,5.74,1,6-2.08-1.38-6.1-.18-5.45.2,12.1,6,12.5,23.52-4,24.42-17.3-14.26-39.77-14.43-42C1687.66,751.6,1668.52,769.57,1668.52,769.57Z"/>
      <path class="cls-9" d="M1680.88,772.25c-13.85,2.29-23.37,0-23.37,0s-77.86-78.83-88.76-85.33-160.16-12.16-160.16-12.16-59.8.14-74-30.69c-12.36-26.8-3.26-49.68,9.9-66.44a61.79,61.79,0,0,1,66.45-20.78c54.59,16.46,163.16,50,183.42,62.67,45.09,28.14,102.81,139.26,102.81,139.26S1692.2,770.38,1680.88,772.25Z"/>
    </g>
    <g>
      <path class="cls-18" d="M2252.65,1020.82s-40.42,65.91-38.87,85.25c.92,11.51,18.3,8,34.52-9,11-11.56,21.48-32.26,26.08-47.59C2285.74,1011.66,2252.65,1020.82,2252.65,1020.82Z"/>
      <path class="cls-18" d="M2360,998.27l-39.71,20.29-8-27.55s5.06-9.53,7.35-25.15a104.69,104.69,0,0,0,.82-22.67l32.36,16.56a59.37,59.37,0,0,0-1.29,7.41,53.75,53.75,0,0,0,.56,17.31C2353.26,989.72,2355.6,994.73,2360,998.27Z"/>
      <path class="cls-18" d="M2387.58,1001.72s52.4,60.12,72.06,64.76,67.27,8.92,67.27,8.92l-5.15,14.29s-60.27,5.81-69.55,3.87-76.49-38.7-76.49-38.7Z"/>
      <path class="cls-28" d="M2399.75,1450.34s4.14,8.08,13.31,10.08a22.9,22.9,0,0,1,13.8,8.48,5.39,5.39,0,0,1-4.32,8.58H2376a6.71,6.71,0,0,1-6.67-7.37c.35-3.45.71-7.47.87-10.55.35-6.72,7.08-12.13,7.08-12.13Z"/>
      <path class="cls-29" d="M2400.87,1452.37s-11.17,6.6-30.07,2.62c0,0-32.13-82.17-34-120.83-.08-1.55-.11-3-.08-4.44.65-36.37-32.93-131.06-23.88-150.47S2395,1188,2395,1188l1.46,66Z"/>
      <path class="cls-14" d="M2396.5,1254l-59.74,80.2c-.08-1.55-.11-3-.08-4.44.65-36.37-32.93-131.06-23.88-150.47S2395,1188,2395,1188Z"/>
      <path class="cls-28" d="M2279.54,1450.34s4.14,8.08,13.31,10.08a22.9,22.9,0,0,1,13.8,8.48,5.38,5.38,0,0,1-4.32,8.58h-46.56a6.71,6.71,0,0,1-6.67-7.37c.35-3.45.71-7.47.87-10.55.35-6.72,7.08-12.13,7.08-12.13Z"/>
      <path class="cls-29" d="M2352.24,1189.54s-64.68,241.36-66.66,265c0,0-12.61,6.47-33.09-5,0,0-11.89-108.18,0-137.74s-2.36-118.92,27.88-139.08S2352.24,1189.54,2352.24,1189.54Z"/>
      <path class="cls-9" d="M2416.61,1026.62l-29-24.9s-10.94-5.94-31.89-9.39c.18,5.71-2.1,10.92-12.12,12.23-13.33,1.73-25.24-7.36-31.28-13.54-15.76,2.26-25.07,3.6-44,13.22,0,0-25.71,13.87-35.87,41.73,0,0,15.11,18,35.65,25.94l.54,4.47,4.4,36.5-13.1,72.7a11.27,11.27,0,0,0-.17,1.9,10.72,10.72,0,0,0,8.21,10.41s1.12.19,3.19.47c13.88,2,70.22,8.67,114.4-3.32a21.45,21.45,0,0,0,15.65-22.45L2393,1069.15C2414.59,1060.29,2416.61,1026.62,2416.61,1026.62Z"/>
      <path class="cls-12" d="M2289,1143.47c-.87,25.36-3.36,46.86-17.88,54.89-2.07-.28-3.19-.47-3.19-.47a10.72,10.72,0,0,1-8.21-10.41,11.27,11.27,0,0,1,.17-1.9l13.1-72.7-4.4-36.5.32-1S2290.14,1111,2289,1143.47Z"/>
      <g>
        <path class="cls-30" d="M2290.71,1155s7.81,26.65,25.4,43.35a64.06,64.06,0,0,0,39.43,17Z"/>
        <path class="cls-8" d="M2353.51,1085.63s-49.72,35.95-62.8,69.34c0,0,27.16,45,64.83,60.37,0,0,39.39-50.95,58.23-59.94C2413.77,1155.4,2400.28,1113.46,2353.51,1085.63Z"/>
      </g>
      <path class="cls-31" d="M2352.09,984.47c-18.4-.49-32.45-18.61-32.45-18.61l31.89,1.3A53.75,53.75,0,0,0,2352.09,984.47Z"/>
      <g>
        <path class="cls-18" d="M2361,974.22s-36.7,9.69-49.36-19.49c-13.66-31.5,1.33-54.44,13.79-56,24.85-3.09,39.29,6.39,43.66,16.41S2381.26,969.06,2361,974.22Z"/>
        <path class="cls-32" d="M2346.46,957.79s1.54,3.79,11.22,1.66c0,0,8.13-1.78,7.21-6.06C2364.89,953.39,2356.45,951.56,2346.46,957.79Z"/>
        <g>
          <path class="cls-14" d="M2318.21,964.94s-4.31-12.63-3.79-19.37c0,0-9.58-12.22-4-15.24s8.59,4.2,9.87,2.79,3.27-25.42,10.05-24.66,31.85,8.53,42.84-1S2357.5,861,2312.32,875.3,2276.36,939.85,2318.21,964.94Z"/>
          <path class="cls-14" d="M2290,895s-2-6.11.15-10.47c0,0,.11,6,2.47,8.68S2290,895,2290,895Z"/>
          <path class="cls-14" d="M2291,890.74s-5.58-.64-8.22,3.66a7.18,7.18,0,0,1,7.91.16Z"/>
        </g>
      </g>
      <path class="cls-18" d="M2314.59,1121a32.16,32.16,0,0,0,11.27-2c5.12-2.1,18.57-1.22,17.87,1.33s-5.55,1.52-4.92,4.35,16.32,7,15,10.74-6.52,6.51-17.89,5.62-22.74-5.88-22.74-5.88Z"/>
      <path class="cls-18" d="M2526.91,1075.4s18.55-15.5,28.61-12.79-9.48,32.11-33.76,27.08S2526.91,1075.4,2526.91,1075.4Z"/>
      <path class="cls-18" d="M2318,1120.8s-72.21-31.55-85.3-33.49-19,18.76-19,18.76-2.37,21.34,103.26,30.61Z"/>
      <g>
        <path class="cls-30" d="M2647.16,1098.23s6.85,46-5,64.51-40.62,35.32-40.62,35.32Z"/>
        <path class="cls-8" d="M2541.14,1063.43s84.46,14.87,106,34.8c0,0-8.17,70.81-45.66,99.83,0,0-107.69-33-111.43-43C2487.75,1148.92,2541.14,1063.43,2541.14,1063.43Z"/>
      </g>
    </g>
    <rect class="cls-33" x="120.93" y="1477.64" width="2974.73" height="7.89" rx="3.37"/>
  </g>
</svg>
