<svg id="Layer_1" data-name="Layer 1" xmlns="http://www.w3.org/2000/svg" xmlns:xlink="http://www.w3.org/1999/xlink" width="3000" height="1590.89" viewBox="0 0 3000 1590.89">
  <defs>
    <style>
      .cls-1 {
        fill: none;
      }

      .cls-2 {
        fill: #ebf3fa;
      }

      .cls-3 {
        fill: #ddeaf4;
      }

      .cls-4 {
        fill: #acd29a;
      }

      .cls-5 {
        fill: #88b374;
      }

      .cls-6 {
        fill: #7a3909;
      }

      .cls-7 {
        clip-path: url(#clip-path);
      }

      .cls-8 {
        fill: #a2c5f9;
      }

      .cls-9 {
        fill: #afcdfb;
      }

      .cls-10 {
        fill: #c7dcf9;
      }

      .cls-11 {
        fill: #d2e4f9;
      }

      .cls-12 {
        fill: #1c468a;
      }

      .cls-13 {
        fill: #4a75cb;
      }

      .cls-14 {
        fill: #e49963;
      }

      .cls-15 {
        fill: #c65447;
      }

      .cls-16 {
        fill: #aa413e;
      }

      .cls-17 {
        fill: #163560;
      }

      .cls-18 {
        fill: #d68d5d;
      }

      .cls-19 {
        fill: #699dee;
      }

      .cls-20 {
        fill: #fff;
      }

      .cls-21, .cls-22 {
        fill: #e37970;
      }

      .cls-22 {
        opacity: 0.2;
      }

      .cls-23 {
        fill: #80bdcc;
      }

      .cls-24 {
        fill: #283250;
      }

      .cls-25 {
        fill: #415da5;
      }

      .cls-26 {
        fill: #2c3a64;
      }

      .cls-27 {
        fill: #1e3d70;
      }

      .cls-28 {
        fill: #ee9849;
      }

      .cls-29 {
        fill: #d57912;
      }

      .cls-30 {
        fill: #a86337;
      }

      .cls-31 {
        fill: #b77446;
      }

      .cls-32 {
        fill: #2a4e96;
      }

      .cls-33 {
        fill: #739cf3;
      }
    </style>
    <clipPath id="clip-path">
      <path class="cls-1" d="M2560.52,1474.86l-454.35,2.57-39-.13-1266.94-4.14-417.89-1.37s-158-278-63.81-557.89a543.19,543.19,0,0,1,35.61-82.63,560.21,560.21,0,0,1,33-54.26q1.9-2.76,3.85-5.5a607.58,607.58,0,0,1,61.67-73.87C632,513.81,797.36,488.87,933,501.37c108.26,10,197.6,43.77,260,39.68,140.69-9.17,185.8-298.64,602-385.95,83-17.42,176.25-27.55,269.35-27.65,260.22-.3,519.61,77.58,553.78,292.6,4.92,31,5.16,64.88,0,101.78a503.67,503.67,0,0,1-19.12,82.82c-17.07,54.14-44.2,113.7-82.87,179.08-123.5,208.73-22.48,304,123.54,386.76q9,5.1,17.91,10.46C2759.23,1242.17,2560.52,1473.79,2560.52,1474.86Z"/>
    </clipPath>
  </defs>
  <g>
    <g>
      <path class="cls-2" d="M2705.52,1253.91c26.84,114.82-61.83,224.32-179.73,224.14l-419.62-.62-39-.13-1266.94-4.14-417.89-1.37s-158-278-63.81-557.89a543.19,543.19,0,0,1,35.61-82.63c24.44-45.85,56.75-90.8,98.55-133.63C632,513.81,797.36,488.87,933,501.37c108.26,10,197.6,43.77,260,39.68,140.69-9.17,185.8-298.64,602-385.95,83-17.42,176.25-27.55,269.35-27.65,260.22-.3,519.61,77.58,553.78,292.6,9.76,61.46-.31,125.23-19.08,184.6-17.07,54.14-44.2,113.7-82.87,179.08-123.5,208.73-22.48,304,123.54,386.76q9,5.1,17.91,10.46C2683.75,1196.66,2698.32,1223.09,2705.52,1253.91Z"/>
      <path class="cls-3" d="M2533.38,1475.27c98.17,0,176.76-80.59,176.76-178.76h0l-462.08-221V960.29h-8.64V720.81H2106.55V960.29H1949.11V806H1709.38V517.44h-151v375.2h-47.12V573.19H1390.09V892.64H1110.87v292.23H969.14V987.3H837v197.57H798.76V773.47H653.23v411.4H601V1476.8Z"/>
      <g>
        <path class="cls-4" d="M747.8,818.21a74.69,74.69,0,0,1-2.52-19.42c0-30.52,17.67-55.25,39.47-55.25a28.77,28.77,0,0,1,9.28,1.55c3.54-82.59,39.71-147.51,83.8-147.51,42,0,76.81,58.89,83.08,135.85,31.25,21.21,52.67,64.65,52.67,114.8a162.3,162.3,0,0,1-13.36,65.46c29,17.87,47.46,44.81,47.46,74.95,0,53.79-58.8,97.39-131.33,97.39-54.3,0-100.9-24.43-120.9-59.28a74.28,74.28,0,0,1-17.18,2c-49.37,0-89.39-48.58-89.39-108.51C688.88,873.31,713.43,833.33,747.8,818.21Z"/>
        <path class="cls-5" d="M747.8,818.21s87-33.86,153.24,25.8,112.4-34.43,90.27-78.15c13.9,22.31,22.27,51,22.27,82.37a162.3,162.3,0,0,1-13.36,65.46c29,17.87,47.46,44.81,47.46,74.95,0,53.79-58.8,97.39-131.33,97.39-54.3,0-100.9-24.43-120.9-59.28a74.28,74.28,0,0,1-17.18,2c-49.37,0-89.39-48.58-89.39-108.51C688.88,873.31,713.43,833.33,747.8,818.21Z"/>
        <path class="cls-6" d="M850,1456c3.42,0,6.19-.92,6.19-4.34V780.65a6.2,6.2,0,1,0-12.39,0V1451.7C843.82,1455.12,846.59,1456,850,1456Z"/>
        <path class="cls-6" d="M850,1019c17.57,0,32.44-6.26,44.18-18.62,32.85-34.54,29.7-105.1,29.55-108.09a6.2,6.2,0,0,0-12.38.62h0c0,.68,3,68.28-26.16,99-9.44,9.92-21,14.75-35.19,14.75a6.2,6.2,0,1,0,0,12.39Z"/>
        <path class="cls-6" d="M849.15,1159.49c.41,0,.83,0,1.25,0a6.19,6.19,0,1,0-.76-12.36c-2.37.14-4.73-.87-7.21-3.1-7.66-6.85-22.18-31-33.47-115.58-6.53-48.91-8.78-94.53-8.8-95a6.19,6.19,0,1,0-12.37.6c0,.46,2.29,46.6,8.89,96,3.89,29.15,8.51,53.77,13.72,73.17,6.85,25.46,14.62,41.82,23.76,50C838.8,1157.38,843.84,1159.49,849.15,1159.49Z"/>
      </g>
      <g>
        <path class="cls-4" d="M467.09,690.2c18.51-36.25,27.15-76.69,26.24-117.37-2.18-97.4,27.08-231.74,99-231.74,86.58,0,93.44,169.66,66.45,265.15a44.44,44.44,0,0,0,18.78,49.84,7.39,7.39,0,0,0,2.7,1.28c21.8,0,39.47,23.72,39.47,53A69.28,69.28,0,0,1,717.21,729c34.36,14.5,58.91,52.82,58.91,97.82,0,57.45-40,104-89.38,104-39.59,0-73.17-30-84.91-71.47C586.36,873,567.63,881,547.43,881c-53,0-96-55.2-96-123.3C451.43,732.8,457.19,709.6,467.09,690.2Z"/>
        <path class="cls-5" d="M523.59,703.82c89.64-12.08,103,85.49,103,85.49C732.74,741,779.89,816.79,779.89,816.79l2.65,22.67c-2.37,55-48,91.33-95.8,91.33-39.59,0-73.17-30-84.91-71.47C586.36,873,567.63,881,547.42,881c-31.85,0-60.08-19.93-77.54-50.62C469.28,828.48,434.71,715.8,523.59,703.82Z"/>
        <path class="cls-6" d="M598,1456c3.42,0,6.7,2.17,6.7-1.25v-671a6.2,6.2,0,1,0-12.39,0v671.05C592.32,1458.21,594.59,1456,598,1456Z"/>
        <path class="cls-6" d="M598.52,1022.09c19.12,0,35.53-11.26,48.76-33.47,10-16.74,18.23-39.9,24.54-68.84,10.63-48.71,12.18-98.07,12.2-98.57a6.2,6.2,0,0,0-12.39-.36c0,.48-1.54,48.83-11.94,96.43-9.21,42.16-27.31,92.42-61.17,92.42a6.2,6.2,0,1,0,0,12.39Z"/>
        <path class="cls-6" d="M597.94,1162.57q.49,0,1,0a6.2,6.2,0,0,0-.76-12.37c-.79,0-2.06-.09-3.94-1.89-7.73-7.41-21.53-38.08-27.09-160.26-3.21-70.43-2-137.52-2-138.19a6.2,6.2,0,0,0-12.39-.23c0,.67-1.21,68.16,2,139,1.9,41.7,4.94,76.42,9,103.2,5.36,35.08,12.51,56.48,21.86,65.43C590.14,1161.55,594.67,1162.57,597.94,1162.57Z"/>
      </g>
      <g class="cls-7">
        <g>
          <path class="cls-4" d="M553,880.91a107.62,107.62,0,0,0,2.51-23.35c0-36.7-17.67-66.45-39.46-66.45a24.51,24.51,0,0,0-9.28,1.86c-3.55-99.33-39.71-177.41-83.81-177.41-42,0-76.8,70.83-83.08,163.38-31.24,25.52-52.66,77.77-52.66,138.08,0,28.75,4.87,55.67,13.35,78.73-29,21.49-47.46,53.89-47.46,90.14,0,64.69,58.8,117.14,131.34,117.14,54.3,0,100.89-29.39,120.9-71.3a62.64,62.64,0,0,0,17.18,2.41c49.37,0,89.38-58.43,89.38-130.5C611.86,947.18,587.31,899.1,553,880.91Z"/>
          <path class="cls-5" d="M274,1022.38a90.32,90.32,0,0,0,16.09-67.18A244.84,244.84,0,0,1,287.17,917q0-10.86.91-21.32c121.33,8.34,116.5,130,116.5,130S504.93,983.43,538.39,1043s-33.09,88.77-33.09,88.77c-20,41.91-66.6,71.3-120.9,71.3-72.54,0-131.34-52.45-131.34-117.14A107.62,107.62,0,0,1,274,1022.38Z"/>
          <path class="cls-6" d="M424.22,1455.12c3.43,0,6.2,0,6.2-3.42V930.27a6.2,6.2,0,0,0-12.39,0V1451.7C418,1455.12,420.8,1455.12,424.22,1455.12Z"/>
          <path class="cls-6" d="M424.22,1104.31c17.58,0,32.45-6.26,44.19-18.61,32.85-34.55,29.7-105.11,29.55-108.1a6.2,6.2,0,0,0-12.38.63c0,.73,3,68.29-26.16,98.94-9.44,9.93-21,14.75-35.2,14.75a6.2,6.2,0,0,0,0,12.39Z"/>
          <path class="cls-6" d="M419.24,1307c.42,0,.83,0,1.25,0a6.2,6.2,0,0,0-.76-12.37c-2.36.15-4.73-.86-7.21-3.09-7.65-6.85-22.18-31-33.47-115.58-6.53-48.92-8.77-94.53-8.79-95a6.2,6.2,0,0,0-12.38.6c0,.46,2.29,46.6,8.89,96,3.89,29.15,8.51,53.76,13.73,73.17,6.85,25.46,14.62,41.81,23.75,50C408.9,1304.86,413.94,1307,419.24,1307Z"/>
        </g>
      </g>
    </g>
    <g>
      <path class="cls-8" d="M1542.8,145.85h12.39l-.11-1-3.73-32.94a2.12,2.12,0,0,0-2.1-1.86l-.39,0a3.33,3.33,0,0,0-1.84.84,3.26,3.26,0,0,0-1.06,2.12Z"/>
      <path class="cls-9" d="M1554,138.37l.44,0-3.09-26.45a2.12,2.12,0,0,0-2.1-1.86l-.39,0a3.3,3.3,0,0,0-1.21,2.52l-.18,19A6.68,6.68,0,0,0,1554,138.37Z"/>
      <rect class="cls-8" x="1534.91" y="292.42" width="23.89" height="1051.48"/>
      <rect class="cls-9" x="1547.77" y="292.42" width="11.03" height="1051.48"/>
      <rect class="cls-8" x="1508.81" y="1176.11" width="76.09" height="278.21"/>
      <rect class="cls-9" x="1539.55" y="1176.11" width="45.35" height="278.21"/>
      <path class="cls-8" d="M1505.28,161.72c0,13,19.57,23.52,43.72,23.52,1.84,0,3.65-.06,5.44-.19,21.58-1.43,38.28-11.34,38.28-23.33s-16.7-21.9-38.28-23.33c-1.79-.13-3.6-.19-5.44-.19C1524.85,138.2,1505.28,148.73,1505.28,161.72Z"/>
      <polygon class="cls-9" points="1508.9 313.16 1584.99 313.16 1611.81 184.4 1486.19 184.4 1508.9 313.16"/>
      <rect class="cls-8" x="1479.4" y="174.7" width="139.2" height="12.35"/>
      <path class="cls-8" d="M1572.44,1176.11h-48.62l7.11-21.52a4.67,4.67,0,0,1,4.44-3.19h22.77a6.09,6.09,0,0,1,5.64,3.76Z"/>
      <path class="cls-9" d="M1527.63,160.59h.33c.75-10,11.44-18.48,26.48-22.2,20.89,1.39,37.22,10.71,38.23,22.2h7.09l10,14.11h8.89v12.35h-87.51V174.7h-12.9Z"/>
      <polygon class="cls-10" points="1602.82 190.68 1495.53 190.68 1516.48 306.41 1578.1 306.41 1602.82 190.68"/>
      <path class="cls-10" d="M1589.83,163.1s-8.17-17.79-24.31-17.25c0,0,10.27,9.11,9.33,17.25S1589.83,163.1,1589.83,163.1Z"/>
      <polygon class="cls-8" points="1488.29 174.7 1609.7 174.7 1599.76 160.59 1497.73 160.59 1488.29 174.7"/>
      <polygon class="cls-11" points="1595.7 194.72 1571.11 194.72 1563.95 302.79 1571.11 302.79 1595.7 194.72"/>
    </g>
    <path class="cls-5" d="M2313.87,1380.49c-79.53,27-225.94,96.43-394.09,49.29s-367.3-6.06-617.42,44.9c-1.22.25-2.45.47-3.68.71l1388.26-2C2580.21,1352.84,2436.19,1338.93,2313.87,1380.49Z"/>
    <path class="cls-4" d="M1160.65,1437.1c-136.65,42.57-280.2-8.8-542.93-49.9s-367.49,88.31-367.49,88.31l1277.49-.12C1488.09,1435.89,1297.29,1394.54,1160.65,1437.1Z"/>
    <g>
      <g>
        <path class="cls-9" d="M766.6,1475.51l-254.43-1.07,36.46-154.57a150.94,150.94,0,0,1,146.92-116.3h330.14v67.89H838.83Z"/>
        <path class="cls-12" d="M1119.84,1204.15v-.58h126.45q6.56,0,13.06.58H1434a150.94,150.94,0,0,1,146.92,116.3l36.44,154.49-257.18-.5-33-139c-8.13-34.46-36.84-60-71.26-64H1103.81v-67.31Z"/>
        <path class="cls-13" d="M1577.85,1477.28l-33.45-141.83a82.75,82.75,0,0,0-80.84-64H912.81a82.75,82.75,0,0,0-80.84,64l-33.45,141.83H728.77l37.12-157.41a150.94,150.94,0,0,1,146.92-116.3h550.75a150.94,150.94,0,0,1,146.92,116.3l37.12,157.41Z"/>
      </g>
      <g>
        <g>
          <path class="cls-14" d="M1087.05,1395.18a8.24,8.24,0,0,0-1.46,8.8l0,0c2.12,5.86,9.13,12.41,17.27,18.94,1,.84,2,1.61,2.77,2.31l.62.56.48.43c7.59,7,4.74,8.6,18.37,22.8,15.55,16.18,26.26,16.47,29.3,15,2.58-1.26-2.65-9.84-8.46-19.48-.28-.47-.55-.94-.84-1.41l-2.31-3.87c-6.8-11.61-5-17-3.44-34.33,1.31-14,21.84-78.42,21.84-78.42l-29.8-5.13s-9,51.26-18.86,59.16c-5.29,4.21-11.2,4.26-16.29,7.38-.35.22-.71.44-1,.67A39.19,39.19,0,0,0,1087.05,1395.18Z"/>
          <path class="cls-15" d="M1087.05,1395.18a8.24,8.24,0,0,0-1.46,8.8l0,0c2.6,5.86,9.43,12.37,17.3,18.88,1,.86,1.93,1.64,2.74,2.37l.62.56.48.43c7.59,7,4.74,8.6,18.37,22.8,15.55,16.18,26.26,16.47,29.3,15,2.58-1.26-2.65-9.84-8.46-19.48a66.28,66.28,0,0,1-27.71-20.43c-9.37-11.94-15.61-27.3-22-36.19-.35.22-.71.44-1,.67A39.19,39.19,0,0,0,1087.05,1395.18Z"/>
          <path class="cls-14" d="M1327.33,1376.57c1.84,9.2,15,7.66,29.6,4.09s11.17.67,32-1.64,27.16-10.08,27.8-13.18c.56-2.75-9.74-3.72-20.79-5l-4.18-.5c-12.47-1.57-21.61-9.62-32.94-16.23-10.73-6.26-26.75-31.77-26.75-31.77l-28.59,2.26s15,22.79,20.81,32.7c3.41,5.83,3.23,13.53,2.8,19.48A36.84,36.84,0,0,0,1327.33,1376.57Z"/>
          <path class="cls-15" d="M1356.93,1380.66c14.65-3.58,11.17.67,32-1.64s27.16-10.08,27.8-13.18c.56-2.75-9.74-3.72-20.79-5l-.1.21a58.7,58.7,0,0,1-29.86,9.28c-14.14.35-29.12-3.71-38.89-3.55a36.84,36.84,0,0,0,.22,9.78C1329.17,1385.77,1342.28,1384.23,1356.93,1380.66Z"/>
          <path class="cls-14" d="M1263.71,956.64s6.82-16.69,14.31-17.37,31.34-4.43,33-1,0,15.67-5.11,20.09-36.78,11.58-36.78,11.58Z"/>
          <path class="cls-16" d="M1217.76,1193.75l-61.61,165.83a56.33,56.33,0,0,1-18.55-1.7c-8.35-2.4-17.92-8.72-17.92-8.72S1135,1189.93,1163,1156.81,1217.76,1193.75,1217.76,1193.75Z"/>
          <path class="cls-15" d="M974.05,1126.67s135.47-63.55,216.54-47.13c40.67,8.23,158.05,248.62,158.05,248.62s-2.67,3.56-10,6.3c-6.79,2.54-23.24,2.38-23.24,2.38s-107-91.71-119.73-118.46-17.84-52.22-30.57-49.68-164.32,62.42-198.71,26.75-25.4-82-25.4-82Z"/>
          <path class="cls-17" d="M1082.25,848.16c2.82-5.84,6-16.21,7.53-34.7-.24,1.84-3.42,25.15-12.39,38.35C1040.57,876,970,956.71,971.39,972c0,0-24.86-42.16-25.29-42.41,0,0-45.86-58.32,8.49-91.72,27.63-17,27.49-38.77,26.33-57.69S997,679.66,1052.35,701c0,0,8.88-4,12.86-3.36,0,0-3.25.62-4.9,2.33,6.42-.38,23.13,3.8,31.63,19.39C1101.55,737,1113.43,819.46,1082.25,848.16Z"/>
          <path class="cls-14" d="M1075.21,853c.19.08-17.77,9.41-31.29,5.72-12.71-3.47-21-20-20.83-20,5.38-1.07,6.93-8.46,6.81-40.24l2.44.47,40.91,8.11s-.93,12.87-1,25C1072.27,842.27,1072.88,851.92,1075.21,853Z"/>
          <path class="cls-18" d="M1073.25,807.08s-.93,12.87-1,25c-22.89-.64-35-21.53-40-33.11Z"/>
          <path class="cls-17" d="M1028.11,794.52s-12-19-14.87-35.17c-2.06-11.57,3.83-54.47,46.94-48.29a58.7,58.7,0,0,1,24.29,9.18c9.36,6.32,22.87,20,7.76,57.4l-3.92,12.65Z"/>
          <path class="cls-14" d="M1072.85,822.65s-53.22-10.11-46.41-43.16,4.52-56.61,38.79-51.55,38.26,19,38.67,30.61S1086.87,824.43,1072.85,822.65Z"/>
          <path class="cls-17" d="M1089.56,732.14s-22.56,35.75-46,36.87-31.9-6.86-31.9-6.86A144,144,0,0,0,1035,722.08S1082.43,711.42,1089.56,732.14Z"/>
          <path class="cls-17" d="M1085.31,734.54s9,10.9,10,19.86,1.21,26.53,6.38,27c0,0,13.69-24.08,4.48-41.53C1096.36,721.35,1085.31,734.54,1085.31,734.54Z"/>
          <path class="cls-19" d="M954.59,998.74c-5.34-22.4,12.84-65.88,31.81-101.87,17.21-32.62,35.08-59.08,36.69-58.13,45.39,27,49.5,4.55,49.5,4.55s41.24,5.47,52.91,25.58c16.15,27.79,33.74,111.2,51,110,7.93-.57,87.75-30.57,87.75-30.57s13.3,12.46,10.76,27.74c0,0-39.42,26.4-72.75,43.24-17.63,8.91-33.56,15.14-41,13.37-15.19-3.57-38.9-38.77-51.72-59.49l-.09-.14c-16.35,92.59,5.89,113.67-5.37,123.44-11.89,10.31-28.88-4.91-66.24,11.28-24.51,10.63-58.52,26-81.42,28.68-12,1.41-21-.68-23.89-8.79C924,1104,964.78,1041.45,954.59,998.74Z"/>
          <path class="cls-20" d="M1065.21,800.18s.12,4.41,10.7,5.92c0,0,8.87,1.28,9.56-3.39C1085.47,802.71,1077.65,797.66,1065.21,800.18Z"/>
          <path class="cls-13" d="M932.51,1127.6c2.93,8.11,11.89,10.2,23.89,8.79,15.85-6.9,84.31-33.42,83.54-51.39-1.14-26.61-13.16-27.46-4.67-60.3,6.82-26.37-56.43-75.4-66.52-86.06-19,36-19.5,37.7-14.16,60.1C964.78,1041.45,924,1104,932.51,1127.6Z"/>
          <path class="cls-13" d="M1109.52,973.13c12.82,20.72,36.53,55.92,51.72,59.49,7.49,1.77,23.42-4.46,41-13.37-12.87,3.32-25.37,3.22-37.51,2-13.16-1.27-17-17.41-37.79-41.61C1113.49,964,1110.18,968,1109.52,973.13Z"/>
          <path class="cls-14" d="M1046.1,1024.06s11.46-8.91,22.29-6.79,16.14,9.55,15.71,13-6.15,13-14.43,13.8-31.85-5.1-31.85-5.1Z"/>
          <path class="cls-19" d="M1023.09,838.74s-44.15,2.72-59.44,24c-21.51,30-58.88,152.51-48.69,180.53l134.32-.56s3.26-15.22-1.27-22.58-78.13-19.25-81.53-22.65,42.46-66.23,42.46-76.43S1023.09,838.74,1023.09,838.74Z"/>
        </g>
        <g>
          <g>
            <polygon class="cls-12" points="1087.19 981.81 1249.55 981.81 1220.24 1084.04 1057.62 1084.04 1087.19 981.81"/>
            <rect class="cls-17" x="1007.09" y="1080.05" width="212.59" height="3.98"/>
          </g>
          <path class="cls-17" d="M1155.59,1031.26a9.32,9.32,0,0,1,8.37-6.5c3.59,0,5.67,2.91,4.64,6.5a9.32,9.32,0,0,1-8.37,6.51C1156.64,1037.77,1154.56,1034.86,1155.59,1031.26Z"/>
        </g>
      </g>
      <g>
        <path class="cls-21" d="M1281.85,922l.22,5.07.17,3.74,1,23.78.09,2,.52,11.89h32.77l.75-11.89.12-2,1.48-23.78.24-3.74.41-6.74-.09-.21s-7.63-1.39-12.22,1.53-9.59-2.78-13.76-1.11-4.45,3.75-7.79,2.36A16.31,16.31,0,0,0,1281.85,922Z"/>
        <polygon class="cls-22" points="1281.7 918.49 1281.85 922.03 1282.07 927.1 1282.24 930.84 1283.27 954.62 1283.36 956.66 1283.88 968.55 1316.65 968.55 1317.39 956.66 1317.52 954.62 1319 930.84 1319.24 927.1 1319.65 920.36 1319.77 918.49 1281.7 918.49"/>
        <path class="cls-22" d="M1281.5,918.48c0-.19,0-.38,0-.58a19.08,19.08,0,0,1,38.15,0c0,.2,0,.39,0,.58Z"/>
        <path class="cls-23" d="M1303.86,965.53l1.67-.21c-.1-1-5.44-71.6-6.27-76.31-.91-5.17-5.93-6.71-6.14-6.77l-.09,0-26.69-4.72-.29,1.64,26.63,4.71c.45.15,4.24,1.48,4.94,5.45C1298.44,893.94,1303.84,965.27,1303.86,965.53Z"/>
        <polygon class="cls-17" points="1282.07 927.1 1282.24 930.84 1283.27 954.62 1317.52 954.62 1319 930.84 1319.24 927.1 1282.07 927.1"/>
      </g>
    </g>
    <rect class="cls-24" x="128.7" y="1470.06" width="2742.59" height="8.75" rx="3.27"/>
    <g>
      <g>
        <path class="cls-25" d="M2452.15,1321.38c0-.84,0-1.68.12-2.51l-109.22-18.32.58-3.42,109.22,18.32a25.56,25.56,0,0,1,8.82-14l-66.29-94.7,2.85-2,63.6,90.86-34.3-102.9,3.29-1.1,35.6,106.79a25.45,25.45,0,0,1,9.57-2.57V1181.8h3.47v114.07a25.41,25.41,0,0,1,5.74,1.05l35.4-98.66,3.26,1.17-33.69,93.89,67.74-78,2.62,2.27-70.61,81.29a25.71,25.71,0,0,1,9.14,8.38l4-.68,98.73-50,1.57,3.09-88.69,45,98.88-17,.59,3.42-110,18.92-2.89,1.46a25.4,25.4,0,0,1,2,10c0,.69,0,1.36-.09,2l109.15,16.2-.51,3.43-109.14-16.2a25.45,25.45,0,0,1-.85,3l99.66,42.82-1.37,3.18-99.67-42.81-.05.1,78.23,78.91-2.46,2.44-77.63-78.3a25.83,25.83,0,0,1-5.69,5.79l57.4,90.31-2.92,1.86L2490,1343.85c-.5.28-1,.53-1.54.77,14.34,37.76,40.6,106.93,41.25,108.86l-3.29,1.1c-.57-1.71-23.71-62.66-41.2-108.73a25.49,25.49,0,0,1-7.45,1.11l-1.26,0,9.06,109.56-3.45.29-9.13-110.28a23,23,0,0,1-3.22-.83c-18,44.38-41.74,102.71-42.37,104.58l-3.29-1.1c.65-1.94,27.55-68.15,42.44-104.78-.32-.16-.64-.32-.95-.49l-60.92,96.34-2.93-1.85,60.92-96.35a25.81,25.81,0,0,1-6.2-6.48l-90.42,62.7-2-2.86,90.66-62.86A25.52,25.52,0,0,1,2452.15,1321.38Z"/>
        <path class="cls-26" d="M2477.72,1471.37c82.71,0,150-67.28,150-150s-67.29-150-150-150-150,67.29-150,150a149.92,149.92,0,0,0,150,150Zm0-279.17a129.21,129.21,0,1,1-129.18,129.18A129.33,129.33,0,0,1,2477.72,1192.2Z"/>
      </g>
      <g>
        <path class="cls-25" d="M1969.52,1321.38a23.31,23.31,0,0,1,.13-2.51l-109.22-18.32.57-3.42,109.22,18.32a25.52,25.52,0,0,1,8.83-14l-66.29-94.7,2.84-2,63.6,90.86-34.3-102.9,3.29-1.1,35.6,106.79a25.45,25.45,0,0,1,9.57-2.57V1181.8h3.47v114.07a25.41,25.41,0,0,1,5.74,1.05l35.4-98.66,3.27,1.17-33.7,93.89,67.75-78,2.61,2.27-70.61,81.29a25.74,25.74,0,0,1,9.15,8.38l4-.68,98.73-50,1.57,3.09-88.69,45,98.88-17,.59,3.42-110,18.92-2.88,1.46a25.57,25.57,0,0,1,2,10c0,.69,0,1.36-.08,2l109.15,16.2-.51,3.43-109.15-16.2a25.45,25.45,0,0,1-.85,3l99.66,42.82-1.36,3.18-99.67-42.81-.06.1,78.23,78.91-2.46,2.44-77.63-78.3a25.83,25.83,0,0,1-5.69,5.79l57.4,90.31-2.92,1.86-57.41-90.31c-.5.28-1,.53-1.54.77,14.34,37.76,40.6,106.93,41.25,108.86l-3.29,1.1c-.57-1.71-23.7-62.66-41.2-108.73a25.42,25.42,0,0,1-7.44,1.11c-.43,0-.85,0-1.27,0l9.06,109.56-3.45.29-9.13-110.28a23,23,0,0,1-3.22-.83c-18,44.38-41.73,102.71-42.37,104.58l-3.29-1.1c.65-1.94,27.55-68.15,42.45-104.78l-1-.49L1922,1440.22l-2.93-1.85L1980,1342a25.64,25.64,0,0,1-6.2-6.48l-90.42,62.7-2-2.86,90.67-62.86A25.52,25.52,0,0,1,1969.52,1321.38Z"/>
        <path class="cls-26" d="M1995.1,1471.37c82.7,0,150-67.28,150-150s-67.29-150-150-150-150,67.29-150,150a149.91,149.91,0,0,0,150,150Zm0-279.17a129.22,129.22,0,1,1-129.18,129.18A129.33,129.33,0,0,1,1995.1,1192.2Z"/>
      </g>
      <path class="cls-27" d="M2287.45,1297.51l17.2-3.36s-41.12-162.62-35.48-176c4.57-11.15,52-19.2,75.19-38.67,5-4.16,8.73-8.73,10.88-14,12.35-30.21-7.79-52.63-7.79-52.63s-42.16,9.67-80.43,26.05c-27.25,11.68-52.5,26.85-59.48,44.44C2190.76,1125.9,2287.45,1297.51,2287.45,1297.51Z"/>
      <path class="cls-25" d="M2240.64,1322.58a5.88,5.88,0,0,1,3.06-4.13c4.09-2.25,12.47-5.48,18.74-13.86,3.53-4.7,18.1-18.62,18.1-18.62l.09,0c.38-.09,2.28-.07,11.53,3.71,4.77,1.95,9.74-7,9.74-7a9.07,9.07,0,0,1,2.93,2.1,8.4,8.4,0,0,1,2.34,5.38c.23,3.45,3.8,9.05,6.46,12.78,1.61,2.26,2.88,3.82,2.88,3.82s1,2-7.13,5l-9.72,2.51c-3.38.39-6,.18-9.44.65-5.22.73-7.08,3.17-7.44,3.71l-.07.11-41.3,10.68C2240,1328.37,2240.24,1325.07,2240.64,1322.58Z"/>
      <path class="cls-28" d="M2098.63,1087.51l17.39-18-1.53-3.13,2.76,1.86,0,0,0,.07,197,133.15,43.9-137.33,14.87,4.75-45.3,141.69,151.63,102.52a9,9,0,0,1-4.25,16.37l-182.82,15.9-1.36-15.55,164.19-14.27L2321.52,1230l-36.64,114.59-14.86-4.76,4.19-13.11-10,6.43Zm209.29,133.76-158.41-101.41L2275.71,1322Z"/>
      <path class="cls-29" d="M2065.08,1127.38a15.11,15.11,0,0,1,18-9c22.74-59,30.3-78.41,33-85.09l-18.51-11.78a15.82,15.82,0,1,1,16.37-11.43l36.79,23.42a15.83,15.83,0,1,1-7.53,17l-13.86-8.81c-5,12.33-21.85,53.87-32.68,82l-93.38,201.7a8,8,0,0,1-10.3,4.06h0a8,8,0,0,1-4.42-10.4Z"/>
      <path class="cls-25" d="M2195.66,1367.62H2210l68.21-31.08,2.52,5.52-56.09,25.56h4.83a7.23,7.23,0,1,1,0,14.45h-33.81a7.23,7.23,0,0,1,0-14.45Z"/>
      <path class="cls-29" d="M2325.45,1150.43h0a9.48,9.48,0,0,1,12.09-5.8l8.64,3a26.62,26.62,0,0,0,20.69-1.28c31.52-15.71,69.89-23.66,114.31-23.66h1.6c19.84.08,55.33,4.94,70.52,7.2a8.46,8.46,0,0,1,7.22,8.38v5.48a2.49,2.49,0,0,1-3,2.44h-.05c-28.08-5.9-125.18-21.83-195.35,20.57a7.78,7.78,0,0,1-6.63.68l-26.3-9.24A6.11,6.11,0,0,1,2325.45,1150.43Z"/>
      <path class="cls-25" d="M2314.73,1050.88c7.15-6.94,47.9-.22,55.7.65s37.07-5.42,45.09-4.55,5.2,13.65,5.2,13.65c-12.35,30.78-51.59,17.34-57,12.79s-24.49-6.93-38.79-8.23S2307.58,1057.82,2314.73,1050.88Z"/>
      <path class="cls-26" d="M2277.45,1303.17a39,39,0,1,1-39,39A39,39,0,0,1,2277.45,1303.17Z"/>
      <path class="cls-30" d="M2121.73,997.3l.19,0c13-7.1,82.13-45.17,85.18-54.29,1.87-5.64,10.6-29.41,20.14-50.49,2.41-5.24,5.62-4.7,8-9.4,5.23-10.07,24.91-1.75,28.67-3.5,12.35-5.64,26-10.46,26,1.89,0,0-3.49,9-8.86,21.49-2.15,5-4.57,10.47-7.12,16.24-10.74,23.5-24.7,50.35-34.37,55.19-15.67,7.71-75,32.83-98.13,37.05a.07.07,0,0,0,0,0s-11.14,11-13.62,13-8,4.4-13.39,2.51-5.21-10.75-5.5-13S2109.67,1000.79,2121.73,997.3Z"/>
      <path class="cls-31" d="M2229.12,837.23s3.82,8.53,9.33,18.2c.3.5.6,1,.9,1.55,4.26,7.33,9.43,15.09,14.56,20.08l46.32-21.63s-21.15-16.41-31.1-32.72a39.31,39.31,0,0,1-2.67-5l-9-.32Z"/>
      <path class="cls-30" d="M2229.12,837.23s3.82,8.53,9.33,18.2c.3.5.6,1,.9,1.55,16.13-8.68,25.84-25.86,29.78-34.27a39.31,39.31,0,0,1-2.67-5l-9-.32Z"/>
      <path class="cls-31" d="M2215.49,836.58s53.31,8.36,58-24.92,14.74-54.62-19.11-61.36-42.26,5-46.53,15.74S2201.74,833.55,2215.49,836.58Z"/>
      <path class="cls-26" d="M2290.66,744.23a9.24,9.24,0,0,0-4.37,2.53l0,0c-.14-7.18-7.18-14.44-7.18-14.44,3.38,4.26,2.28,12.13,2.28,12.13-10-17.17-58.92-3.66-63.5-2.52s-7.82-5.74-7.82-5.74c-7.23,6.27-10,21.61-4,31.64s25.45,24.78,31,22,5.61,3,5.32,11.14,13.82,21.83,23.77,23.82c8,1.61,8.64-3.88,10.82-7.38A10.75,10.75,0,0,1,2279,815c10.91-9.85,16.92-29.54,14.48-48.94a48.7,48.7,0,0,0-5.94-17.31A24.51,24.51,0,0,1,2290.66,744.23Z"/>
      <path class="cls-29" d="M2226.74,890c4.16,1.34,14.23,5.1,16.92,9.67s32.36-8.19,35.85-20.14c-8.46-9.26-23-17.19-31.42-14.5C2243.12,866.49,2235.07,877.09,2226.74,890Z"/>
      <path class="cls-32" d="M2242.14,1137.57c4.8-9.6,61.11-115.73,61.11-115.73.57,0,84.87-53,84.87-53a95.22,95.22,0,0,1,19,41.93,132.65,132.65,0,0,1,3.68,21.58c2.52,29.37-124.06,146.9-127,163.21-6.88,38.61-48.52,118.13-68.11,157.58l-15.6-6S2231,1159.94,2242.14,1137.57Z"/>
      <path class="cls-28" d="M2243,909l13.44,19.15,1.08,2.41,27.93,63.78,7.59,29.91a3,3,0,0,0,2.42,2.22c10.51,1.78,32,.86,39.4-1.78a183.45,183.45,0,0,0,64.42-38.32,8.1,8.1,0,0,0,1.94-8.91c-25.23-62.83-64.4-104-71.33-111.75-12.35-13.43-44.71-24.44-44.71-24.44-8.86,9.13-40.55,25.11-40.55,25.11C2237.62,871.86,2243,909,2243,909Z"/>
      <path class="cls-29" d="M2257.49,930.53l27.93,63.78c21.21-42.83,7.78-105,7.78-105s-34.1,29.54-35.31,31.82A71.33,71.33,0,0,0,2257.49,930.53Z"/>
      <path class="cls-31" d="M2131.17,1006.75l.17,0c13-7.07,82.16-45.18,85.2-54.3,1.88-5.64,10.6-29.41,20.14-50.49,2.41-5.23,4.83-10.34,7.25-15,5.23-10.08,10.2-17.73,14-19.47,12.35-5.64,41.49,11.14,41.49,23.49,0,0-3.49,9-8.86,21.49-2.15,5-4.57,10.47-7.12,16.24-10.74,23.5-24.7,50.35-34.37,55.19-15.67,7.71-75,32.83-98.13,37l0,0s-11.14,11-13.62,13.05-8,4.41-13.39,2.51-6.53-9.13-6.82-11.38S2114.57,1010.9,2131.17,1006.75Z"/>
      <path class="cls-28" d="M2235.44,902.11c11.72,5.3,32.8,15.63,48.57,27.77,2.65-6,5.16-11.72,7.4-16.89,5.58-13,9.21-22.33,9.21-22.33,0-12.84-30.29-30.28-43.13-24.42-3.91,1.81-9.07,9.77-14.51,20.24C2240.47,891.36,2238,896.67,2235.44,902.11Z"/>
      <g>
        <path class="cls-33" d="M2222.86,1368.61h-10c-3.37-.46-5.85-1.33-9.3-1.72-5.24-.61-7.65,1.29-8.13,1.72l-.1.09h-42.66c-1.07-1.35,0-4.49,1-6.8a5.86,5.86,0,0,1,4-3.23c4.52-1.16,13.44-2.19,21.61-8.73,4.6-3.67,22.19-13.5,22.19-13.5l.1,0c.38,0,2.22.51,10.22,6.48,4.14,3.08,11.19-4.35,11.19-4.35a8.9,8.9,0,0,1,2.31,2.77,8.37,8.37,0,0,1,.92,5.79c-.64,3.4,1.42,9.72,3.06,14,1,2.59,1.83,4.42,1.83,4.42S2231.5,1367.66,2222.86,1368.61Z"/>
        <path class="cls-25" d="M2225.21,1341.32c-2.39,1.49-7.45,4.44-10.81,4.82-4.53.53-13-9.7-13-9.7l.1,0c.38,0,2.22.51,10.22,6.48,4.14,3.08,11.19-4.35,11.19-4.35A8.9,8.9,0,0,1,2225.21,1341.32Z"/>
        <path class="cls-25" d="M2222.86,1368.61h-10c-3.37-.46-5.85-1.33-9.3-1.72-5.24-.61-7.65,1.29-8.13,1.72l-.1.09h-42.66c-1.07-1.35,0-4.49,1-6.8,1.29-1,1.66,4.42,2.37,5.29s34.81.32,36.78-1,7.87-3.48,16.1-1.74c7.17,1.51,17.72-2.37,20.34-3.4,1,2.59,1.83,4.42,1.83,4.42S2231.5,1367.66,2222.86,1368.61Z"/>
      </g>
    </g>
  </g>
</svg>
