<svg id="Ñëîé_1" data-name="Ñëîé 1" xmlns="http://www.w3.org/2000/svg" xmlns:xlink="http://www.w3.org/1999/xlink" width="2000" height="1314.67" viewBox="0 0 2000 1314.67">
  <defs>
    <style>
      .cls-1 {
        fill: #cff4fa;
        opacity: 0.7;
      }

      .cls-2 {
        fill: url(#linear-gradient);
      }

      .cls-3 {
        fill: #bdd4e5;
      }

      .cls-4 {
        fill: url(#linear-gradient-2);
      }

      .cls-5, .cls-6, .cls-7 {
        opacity: 0.6;
      }

      .cls-5 {
        fill: url(#linear-gradient-3);
      }

      .cls-6 {
        fill: url(#linear-gradient-4);
      }

      .cls-7 {
        fill: url(#linear-gradient-5);
      }

      .cls-8 {
        fill: url(#linear-gradient-6);
      }

      .cls-9 {
        fill: url(#linear-gradient-7);
      }

      .cls-10 {
        fill: url(#linear-gradient-8);
      }

      .cls-11 {
        fill: #476589;
      }

      .cls-12 {
        fill: url(#linear-gradient-9);
      }

      .cls-13 {
        fill: #fff;
      }

      .cls-14, .cls-42 {
        fill: none;
      }

      .cls-14 {
        stroke: #c1272d;
        stroke-miterlimit: 10;
      }

      .cls-15 {
        fill: url(#linear-gradient-10);
      }

      .cls-16 {
        fill: url(#linear-gradient-11);
      }

      .cls-17 {
        fill: url(#linear-gradient-12);
      }

      .cls-18 {
        fill: #9baed2;
      }

      .cls-19 {
        fill: url(#linear-gradient-13);
      }

      .cls-20 {
        fill: url(#linear-gradient-14);
      }

      .cls-21 {
        fill: url(#linear-gradient-15);
      }

      .cls-22 {
        fill: url(#linear-gradient-16);
      }

      .cls-23 {
        fill: #d1e6f2;
      }

      .cls-24 {
        fill: url(#linear-gradient-17);
      }

      .cls-25 {
        fill: url(#linear-gradient-18);
      }

      .cls-26 {
        fill: url(#linear-gradient-19);
      }

      .cls-27, .cls-41 {
        opacity: 0.1;
      }

      .cls-27 {
        fill: url(#linear-gradient-20);
      }

      .cls-28 {
        fill: url(#linear-gradient-21);
      }

      .cls-29 {
        fill: url(#linear-gradient-22);
      }

      .cls-30 {
        fill: url(#linear-gradient-23);
      }

      .cls-31 {
        fill: url(#linear-gradient-24);
      }

      .cls-32 {
        fill: url(#linear-gradient-25);
      }

      .cls-33 {
        fill: url(#linear-gradient-26);
      }

      .cls-34 {
        fill: url(#linear-gradient-27);
      }

      .cls-35 {
        fill: url(#linear-gradient-28);
      }

      .cls-36 {
        fill: url(#linear-gradient-29);
      }

      .cls-37 {
        fill: url(#linear-gradient-30);
      }

      .cls-38 {
        fill: url(#linear-gradient-31);
      }

      .cls-39 {
        fill: url(#linear-gradient-32);
      }

      .cls-40 {
        fill: url(#linear-gradient-33);
      }

      .cls-41 {
        fill: #1a1a1a;
      }

      .cls-43 {
        fill: url(#linear-gradient-34);
      }

      .cls-44 {
        fill: url(#linear-gradient-35);
      }

      .cls-45 {
        fill: url(#linear-gradient-36);
      }

      .cls-46 {
        fill: url(#linear-gradient-37);
      }

      .cls-47 {
        fill: url(#linear-gradient-38);
      }

      .cls-48 {
        fill: url(#linear-gradient-39);
      }

      .cls-49 {
        fill: url(#linear-gradient-40);
      }

      .cls-50 {
        fill: url(#linear-gradient-41);
      }

      .cls-51 {
        fill: url(#linear-gradient-42);
      }

      .cls-52 {
        fill: url(#linear-gradient-43);
      }

      .cls-53 {
        fill: url(#linear-gradient-44);
      }

      .cls-54 {
        fill: url(#linear-gradient-45);
      }

      .cls-55 {
        fill: url(#linear-gradient-46);
      }

      .cls-56 {
        fill: url(#linear-gradient-47);
      }

      .cls-57 {
        fill: url(#linear-gradient-48);
      }

      .cls-58 {
        fill: url(#linear-gradient-49);
      }

      .cls-59 {
        fill: url(#linear-gradient-50);
      }

      .cls-60 {
        fill: url(#linear-gradient-51);
      }

      .cls-61 {
        fill: url(#linear-gradient-52);
      }

      .cls-62 {
        fill: url(#linear-gradient-53);
      }

      .cls-63 {
        fill: url(#linear-gradient-54);
      }

      .cls-64 {
        fill: url(#linear-gradient-55);
      }

      .cls-65 {
        fill: url(#linear-gradient-56);
      }

      .cls-66 {
        fill: url(#linear-gradient-57);
      }

      .cls-67 {
        fill: url(#linear-gradient-58);
      }

      .cls-68 {
        fill: url(#linear-gradient-59);
      }

      .cls-69 {
        fill: url(#linear-gradient-60);
      }

      .cls-70 {
        fill: url(#linear-gradient-61);
      }

      .cls-71 {
        fill: url(#linear-gradient-62);
      }

      .cls-72 {
        fill: url(#linear-gradient-63);
      }

      .cls-73 {
        fill: url(#linear-gradient-64);
      }

      .cls-74 {
        fill: url(#linear-gradient-65);
      }

      .cls-75 {
        fill: url(#linear-gradient-66);
      }

      .cls-76 {
        fill: url(#linear-gradient-67);
      }

      .cls-77 {
        fill: url(#linear-gradient-68);
      }

      .cls-78 {
        fill: url(#linear-gradient-69);
      }

      .cls-79 {
        fill: url(#linear-gradient-70);
      }

      .cls-80 {
        fill: url(#linear-gradient-71);
      }

      .cls-81 {
        fill: url(#linear-gradient-72);
      }

      .cls-82 {
        fill: url(#linear-gradient-73);
      }

      .cls-83 {
        fill: url(#linear-gradient-74);
      }

      .cls-84 {
        fill: url(#linear-gradient-75);
      }

      .cls-85 {
        fill: url(#linear-gradient-76);
      }

      .cls-86 {
        fill: url(#linear-gradient-77);
      }

      .cls-87 {
        fill: url(#linear-gradient-78);
      }

      .cls-88 {
        fill: url(#linear-gradient-79);
      }

      .cls-89 {
        fill: url(#linear-gradient-80);
      }

      .cls-90 {
        fill: url(#linear-gradient-81);
      }

      .cls-91 {
        fill: url(#linear-gradient-82);
      }

      .cls-92 {
        fill: url(#linear-gradient-83);
      }

      .cls-93 {
        fill: url(#linear-gradient-84);
      }

      .cls-94 {
        fill: url(#linear-gradient-85);
      }

      .cls-95 {
        fill: url(#linear-gradient-86);
      }

      .cls-96 {
        fill: url(#linear-gradient-87);
      }

      .cls-97 {
        fill: url(#linear-gradient-88);
      }

      .cls-98 {
        fill: url(#linear-gradient-89);
      }

      .cls-99 {
        fill: url(#linear-gradient-90);
      }

      .cls-100 {
        fill: url(#linear-gradient-91);
      }

      .cls-101 {
        fill: url(#linear-gradient-92);
      }

      .cls-102 {
        fill: url(#linear-gradient-93);
      }

      .cls-103 {
        fill: url(#linear-gradient-94);
      }

      .cls-104 {
        fill: url(#linear-gradient-95);
      }

      .cls-105 {
        fill: url(#linear-gradient-96);
      }

      .cls-106 {
        fill: url(#linear-gradient-97);
      }

      .cls-107 {
        fill: url(#linear-gradient-98);
      }
    </style>
    <linearGradient id="linear-gradient" x1="1481.54" y1="1027.31" x2="1469.37" y2="-26.02" gradientUnits="userSpaceOnUse">
      <stop offset="0" stop-color="#d9ecfd"/>
      <stop offset="1" stop-color="#b7d1e5"/>
    </linearGradient>
    <linearGradient id="linear-gradient-2" x1="691.04" y1="786.93" x2="2000" y2="786.93" gradientUnits="userSpaceOnUse">
      <stop offset="0" stop-color="#bad9f4"/>
      <stop offset="1" stop-color="#a7c8e9"/>
    </linearGradient>
    <linearGradient id="linear-gradient-3" x1="-80.83" y1="670.34" x2="1604.04" y2="1087.97" xlink:href="#linear-gradient-2"/>
    <linearGradient id="linear-gradient-4" x1="1018.44" y1="848.69" x2="2000" y2="848.69" gradientUnits="userSpaceOnUse">
      <stop offset="0" stop-color="#8dabdb"/>
      <stop offset="1" stop-color="#728cc0"/>
    </linearGradient>
    <linearGradient id="linear-gradient-5" x1="21.31" y1="730.43" x2="1671.38" y2="1244.28" xlink:href="#linear-gradient-4"/>
    <linearGradient id="linear-gradient-6" x1="1588.46" y1="49.53" x2="1523.71" y2="236.75" gradientUnits="userSpaceOnUse">
      <stop offset="0" stop-color="#cff4fa"/>
      <stop offset="1" stop-color="#a3e2e8"/>
    </linearGradient>
    <linearGradient id="linear-gradient-7" x1="537.93" y1="100.63" x2="487.42" y2="286.27" xlink:href="#linear-gradient-6"/>
    <linearGradient id="linear-gradient-8" x1="511.83" y1="425.22" x2="270.22" y2="677.94" gradientUnits="userSpaceOnUse">
      <stop offset="0" stop-color="#45c1cd"/>
      <stop offset="1" stop-color="#3ca1b5"/>
    </linearGradient>
    <linearGradient id="linear-gradient-9" x1="2023.44" y1="975.46" x2="1833.14" y2="1146.34" xlink:href="#linear-gradient-8"/>
    <linearGradient id="linear-gradient-10" x1="1862.56" y1="1058.52" x2="1679.56" y2="1234.52" xlink:href="#linear-gradient-8"/>
    <linearGradient id="linear-gradient-11" x1="250.3" y1="1125.28" x2="117.62" y2="1234.85" xlink:href="#linear-gradient-8"/>
    <linearGradient id="linear-gradient-12" x1="295.07" y1="1179.48" x2="162.39" y2="1289.05" xlink:href="#linear-gradient-8"/>
    <linearGradient id="linear-gradient-13" x1="775.88" y1="1144.57" x2="701.21" y2="1215.24" xlink:href="#linear-gradient-8"/>
    <linearGradient id="linear-gradient-14" x1="760.74" y1="1189.26" x2="788.19" y2="1189.26" xlink:href="#linear-gradient-8"/>
    <linearGradient id="linear-gradient-15" x1="1415.82" y1="1222.42" x2="1343.82" y2="1299.75" xlink:href="#linear-gradient-8"/>
    <linearGradient id="linear-gradient-16" x1="355.44" y1="233.58" x2="79.18" y2="570.54" xlink:href="#linear-gradient-8"/>
    <linearGradient id="linear-gradient-17" x1="315.6" y1="857.19" x2="183.6" y2="979.19" xlink:href="#linear-gradient-8"/>
    <linearGradient id="linear-gradient-18" x1="1884.33" y1="659.06" x2="1550.75" y2="1100.63" xlink:href="#linear-gradient-8"/>
    <linearGradient id="linear-gradient-19" x1="1917.91" y1="409.77" x2="1555.53" y2="781.75" xlink:href="#linear-gradient-8"/>
    <linearGradient id="linear-gradient-20" x1="-222.6" y1="1334.94" x2="1355.32" y2="1033.45" gradientUnits="userSpaceOnUse">
      <stop offset="0" stop-color="#1a1a1a"/>
      <stop offset="1" stop-color="#4d4d4d"/>
    </linearGradient>
    <linearGradient id="linear-gradient-21" x1="1283.59" y1="1051.99" x2="1240.08" y2="1119.12" gradientUnits="userSpaceOnUse">
      <stop offset="0" stop-color="#3c3475"/>
      <stop offset="1" stop-color="#5732cb"/>
    </linearGradient>
    <linearGradient id="linear-gradient-22" x1="933.56" y1="993.36" x2="955.94" y2="1030.65" xlink:href="#linear-gradient-21"/>
    <linearGradient id="linear-gradient-23" x1="1246.28" y1="982.86" x2="1018.16" y2="1011.46" gradientUnits="userSpaceOnUse">
      <stop offset="0" stop-color="#ba4372"/>
      <stop offset="1" stop-color="#aa2e61"/>
    </linearGradient>
    <linearGradient id="linear-gradient-24" x1="1251.07" y1="776.47" x2="1173.69" y2="841.27" gradientUnits="userSpaceOnUse">
      <stop offset="0" stop-color="#fec0aa"/>
      <stop offset="1" stop-color="#dd998a"/>
    </linearGradient>
    <linearGradient id="linear-gradient-25" x1="1187.23" y1="782.32" x2="1156.16" y2="803.14" gradientUnits="userSpaceOnUse">
      <stop offset="0" stop-color="#22fdfc"/>
      <stop offset="1" stop-color="#677feb"/>
    </linearGradient>
    <linearGradient id="linear-gradient-26" x1="1204.44" y1="734.82" x2="1305.84" y2="714.19" xlink:href="#linear-gradient-24"/>
    <linearGradient id="linear-gradient-27" x1="1200.74" y1="770.67" x2="1024.52" y2="868.57" xlink:href="#linear-gradient-25"/>
    <linearGradient id="linear-gradient-28" x1="1075.27" y1="687.74" x2="1097.53" y2="687.74" xlink:href="#linear-gradient-21"/>
    <linearGradient id="linear-gradient-29" x1="1148.98" y1="711.9" x2="1083.25" y2="705.06" xlink:href="#linear-gradient-24"/>
    <linearGradient id="linear-gradient-30" x1="1071.94" y1="655.29" x2="1140.22" y2="655.29" xlink:href="#linear-gradient-21"/>
    <linearGradient id="linear-gradient-31" x1="1102.99" y1="760.18" x2="1007.89" y2="798.41" xlink:href="#linear-gradient-25"/>
    <linearGradient id="linear-gradient-32" x1="1048.19" y1="853.79" x2="966.14" y2="830.17" xlink:href="#linear-gradient-24"/>
    <linearGradient id="linear-gradient-33" x1="1041.27" y1="910.69" x2="1047.17" y2="950.63" xlink:href="#linear-gradient-24"/>
    <linearGradient id="linear-gradient-34" x1="1051.45" y1="1107.08" x2="991.78" y2="1073.52" gradientUnits="userSpaceOnUse">
      <stop offset="0" stop-color="#0d5688"/>
      <stop offset="1" stop-color="#0b4c70"/>
    </linearGradient>
    <linearGradient id="linear-gradient-35" x1="737.42" y1="1083.47" x2="688.31" y2="1058.61" xlink:href="#linear-gradient-34"/>
    <linearGradient id="linear-gradient-36" x1="1002.19" y1="954.13" x2="804.52" y2="1000.13" gradientUnits="userSpaceOnUse">
      <stop offset="0" stop-color="#653772"/>
      <stop offset="1" stop-color="#542d60"/>
    </linearGradient>
    <linearGradient id="linear-gradient-37" x1="793.46" y1="796.56" x2="833.87" y2="812.72" gradientUnits="userSpaceOnUse">
      <stop offset="0" stop-color="#8484fa"/>
      <stop offset="1" stop-color="#6262e2"/>
    </linearGradient>
    <linearGradient id="linear-gradient-38" x1="929.75" y1="802.24" x2="823.46" y2="815.29" xlink:href="#linear-gradient-37"/>
    <linearGradient id="linear-gradient-39" x1="829.58" y1="691.46" x2="930.9" y2="653.54" xlink:href="#linear-gradient-21"/>
    <linearGradient id="linear-gradient-40" x1="956.56" y1="696.11" x2="841.57" y2="716" xlink:href="#linear-gradient-24"/>
    <linearGradient id="linear-gradient-41" x1="1002.92" y1="738.5" x2="956.92" y2="777.66" xlink:href="#linear-gradient-24"/>
    <linearGradient id="linear-gradient-42" x1="928.69" y1="780.13" x2="879.27" y2="809.34" xlink:href="#linear-gradient-37"/>
    <linearGradient id="linear-gradient-43" x1="1603.91" y1="891.45" x2="1475.55" y2="949.57" xlink:href="#linear-gradient-23"/>
    <linearGradient id="linear-gradient-44" x1="1591" y1="743.39" x2="1577.25" y2="779.52" xlink:href="#linear-gradient-24"/>
    <linearGradient id="linear-gradient-45" x1="1590.18" y1="835.24" x2="1515.83" y2="824.29" xlink:href="#linear-gradient-24"/>
    <linearGradient id="linear-gradient-46" x1="1591.29" y1="758.22" x2="1485" y2="784.32" xlink:href="#linear-gradient-25"/>
    <linearGradient id="linear-gradient-47" x1="1467.5" y1="730.32" x2="1452.27" y2="637.08" xlink:href="#linear-gradient-21"/>
    <linearGradient id="linear-gradient-48" x1="1530.24" y1="703.98" x2="1516.25" y2="643.07" xlink:href="#linear-gradient-21"/>
    <linearGradient id="linear-gradient-49" x1="1570.24" y1="703.81" x2="1506.21" y2="703.81" xlink:href="#linear-gradient-24"/>
    <linearGradient id="linear-gradient-50" x1="1472.82" y1="851.98" x2="1478.42" y2="898.59" xlink:href="#linear-gradient-24"/>
    <linearGradient id="linear-gradient-51" x1="1503.33" y1="830.66" x2="1465.57" y2="762.13" xlink:href="#linear-gradient-24"/>
    <linearGradient id="linear-gradient-52" x1="1615.97" y1="714.74" x2="1650.24" y2="685.37" xlink:href="#linear-gradient-24"/>
    <linearGradient id="linear-gradient-53" x1="1617.67" y1="1023.4" x2="1570.12" y2="1013.14" xlink:href="#linear-gradient-24"/>
    <linearGradient id="linear-gradient-54" x1="1617.05" y1="1079.32" x2="1555.51" y2="1082.43" xlink:href="#linear-gradient-23"/>
    <linearGradient id="linear-gradient-55" x1="1450.72" y1="1036.02" x2="1430.68" y2="995.69" xlink:href="#linear-gradient-24"/>
    <linearGradient id="linear-gradient-56" x1="1409.84" y1="995.02" x2="1380.62" y2="1050.96" xlink:href="#linear-gradient-23"/>
    <linearGradient id="linear-gradient-57" x1="1167.49" y1="1027.83" x2="1214.2" y2="1076.35" xlink:href="#linear-gradient-21"/>
    <linearGradient id="linear-gradient-58" x1="1438.5" y1="1081.23" x2="1476.93" y2="1081.23" xlink:href="#linear-gradient-21"/>
    <linearGradient id="linear-gradient-59" x1="1421.03" y1="946.01" x2="1285.67" y2="999.31" gradientUnits="userSpaceOnUse">
      <stop offset="0" stop-color="#e038ce"/>
      <stop offset="1" stop-color="#8f34d0"/>
    </linearGradient>
    <linearGradient id="linear-gradient-60" x1="1441.56" y1="759.77" x2="1375.08" y2="819.06" gradientUnits="userSpaceOnUse">
      <stop offset="0" stop-color="#fc8282"/>
      <stop offset="1" stop-color="#e86d6d"/>
    </linearGradient>
    <linearGradient id="linear-gradient-61" x1="1386.89" y1="813.55" x2="1304.75" y2="815.35" xlink:href="#linear-gradient-60"/>
    <linearGradient id="linear-gradient-62" x1="1280.97" y1="678.91" x2="1297.28" y2="678.91" xlink:href="#linear-gradient-59"/>
    <linearGradient id="linear-gradient-63" x1="1284.49" y1="690.81" x2="1339" y2="690.81" xlink:href="#linear-gradient-21"/>
    <linearGradient id="linear-gradient-64" x1="1368.92" y1="719.73" x2="1291.65" y2="731.11" xlink:href="#linear-gradient-24"/>
    <linearGradient id="linear-gradient-65" x1="1252.32" y1="677.89" x2="1294.38" y2="677.89" xlink:href="#linear-gradient-21"/>
    <linearGradient id="linear-gradient-66" x1="1311.7" y1="816.46" x2="1268.58" y2="789.51" gradientUnits="userSpaceOnUse">
      <stop offset="0" stop-color="#fc8282"/>
      <stop offset="0.94" stop-color="#e96e6e"/>
      <stop offset="1" stop-color="#e86d6d"/>
    </linearGradient>
    <linearGradient id="linear-gradient-67" x1="1350" y1="829.21" x2="1306.87" y2="854.97" xlink:href="#linear-gradient-24"/>
    <linearGradient id="linear-gradient-68" x1="1421.52" y1="700.57" x2="1409.54" y2="761.66" xlink:href="#linear-gradient-24"/>
    <linearGradient id="linear-gradient-69" x1="775.23" y1="1041.54" x2="733.58" y2="1070.76" xlink:href="#linear-gradient-24"/>
    <linearGradient id="linear-gradient-70" x1="806.38" y1="1084.32" x2="762.25" y2="1114.15" xlink:href="#linear-gradient-59"/>
    <linearGradient id="linear-gradient-71" x1="607.18" y1="1035.9" x2="581.69" y2="1010.41" xlink:href="#linear-gradient-24"/>
    <linearGradient id="linear-gradient-72" x1="577.22" y1="1064.15" x2="530.6" y2="1044.88" xlink:href="#linear-gradient-59"/>
    <linearGradient id="linear-gradient-73" x1="783.85" y1="746.55" x2="824.87" y2="724.64" xlink:href="#linear-gradient-24"/>
    <linearGradient id="linear-gradient-74" x1="769.98" y1="920.55" x2="597.81" y2="963.44" xlink:href="#linear-gradient-59"/>
    <linearGradient id="linear-gradient-75" x1="745.37" y1="782.35" x2="739.77" y2="822.21" xlink:href="#linear-gradient-24"/>
    <linearGradient id="linear-gradient-76" x1="734.1" y1="784.36" x2="632.93" y2="835.65" xlink:href="#linear-gradient-37"/>
    <linearGradient id="linear-gradient-77" x1="628.84" y1="706.22" x2="737.61" y2="648.41" xlink:href="#linear-gradient-21"/>
    <linearGradient id="linear-gradient-78" x1="734.59" y1="716.1" x2="663.73" y2="723.1" xlink:href="#linear-gradient-24"/>
    <linearGradient id="linear-gradient-79" x1="653.22" y1="842.54" x2="614.76" y2="860.25" xlink:href="#linear-gradient-24"/>
    <linearGradient id="linear-gradient-80" x1="626.46" y1="799.67" x2="585.9" y2="820.18" xlink:href="#linear-gradient-24"/>
    <linearGradient id="linear-gradient-81" x1="625.12" y1="1038.48" x2="577.26" y2="1096.29" xlink:href="#linear-gradient-34"/>
    <linearGradient id="linear-gradient-82" x1="580.32" y1="996.86" x2="521.89" y2="1039.13" xlink:href="#linear-gradient-24"/>
    <linearGradient id="linear-gradient-83" x1="284.08" y1="1089.89" x2="230.62" y2="1070.62" xlink:href="#linear-gradient-34"/>
    <linearGradient id="linear-gradient-84" x1="354.83" y1="1061.7" x2="295.78" y2="1008.24" xlink:href="#linear-gradient-24"/>
    <linearGradient id="linear-gradient-85" x1="547.07" y1="932.13" x2="374.27" y2="941.46" xlink:href="#linear-gradient-34"/>
    <linearGradient id="linear-gradient-86" x1="333.46" y1="761.39" x2="371.38" y2="794.95" xlink:href="#linear-gradient-24"/>
    <linearGradient id="linear-gradient-87" x1="408.47" y1="707.55" x2="424.63" y2="748.57" xlink:href="#linear-gradient-37"/>
    <linearGradient id="linear-gradient-88" x1="525.77" y1="803.53" x2="378.46" y2="838.96" xlink:href="#linear-gradient-37"/>
    <linearGradient id="linear-gradient-89" x1="467.19" y1="674.02" x2="506.7" y2="674.02" xlink:href="#linear-gradient-21"/>
    <linearGradient id="linear-gradient-90" x1="485.84" y1="669.65" x2="514.16" y2="669.65" xlink:href="#linear-gradient-21"/>
    <linearGradient id="linear-gradient-91" x1="426.9" y1="732.73" x2="546.24" y2="720.3" xlink:href="#linear-gradient-21"/>
    <linearGradient id="linear-gradient-92" x1="554.39" y1="673.25" x2="502.8" y2="713.03" xlink:href="#linear-gradient-24"/>
    <linearGradient id="linear-gradient-93" x1="534.06" y1="731.08" x2="460.72" y2="739.16" xlink:href="#linear-gradient-24"/>
    <linearGradient id="linear-gradient-94" x1="574.91" y1="790.17" x2="520.84" y2="854.81" xlink:href="#linear-gradient-24"/>
    <linearGradient id="linear-gradient-95" x1="497.96" y1="782.3" x2="455.69" y2="821.46" xlink:href="#linear-gradient-37"/>
    <linearGradient id="linear-gradient-96" x1="613.62" y1="755.8" x2="585.03" y2="779.42" xlink:href="#linear-gradient-24"/>
    <linearGradient id="linear-gradient-97" x1="562.81" y1="800.29" x2="594.55" y2="800.29" xlink:href="#linear-gradient-37"/>
    <linearGradient id="linear-gradient-98" x1="1844.77" y1="918.5" x2="1772.77" y2="984.5" xlink:href="#linear-gradient-8"/>
  </defs>
  <path class="cls-1" d="M.25,897.76h1625q20.31-1.75,40.57-3.94c47.49-5.13,100.7-15.75,126.56-55.91,25.11-39,14-91.33-7.53-132.41-36.69-70.08-101.7-124.81-177-149-41.52-13.34-87.46-18.53-121.64-45.61-35.88-28.43-51.23-75-78-112.08-56.81-78.63-172-108.39-259.8-67.1-30.76,14.47-59,36.71-92.72,41C1014,378,974.8,354.8,934.31,343.89c-66.86-18-137.62-2.35-205.09,13.21C647,376.06,564,394.93,479.63,396s-171.3-17.19-239.82-66.42c-46.21-33.2-83.11-79.63-134-105C73.79,208.59,32.31,205.3.25,218V499.56c9.3,21.13,16.78,42.68,19.64,65.1,5.41,42.36-6,84-19.64,125.47Z"/>
  <polygon class="cls-2" points="2000 500.04 1922.21 500.04 1922.21 323.57 1830.08 323.57 1830.08 460.02 1787.09 460.02 1787.09 353.57 1664.26 353.57 1664.26 480.57 1594.65 480.57 1594.65 280.82 1484.1 280.82 1484.1 407.65 1402.21 407.65 1402.21 353.57 1328.51 353.57 1328.51 540.98 1252.76 540.98 1252.76 597.9 1185.2 597.9 1185.2 460.02 1093.08 460.02 1093.08 571.54 1016.42 571.54 1016.42 647.08 955.49 647.08 955.49 651.66 955.49 887.53 955.49 897.74 1998.99 897.74 1998.99 875.46 2000 875.46 2000 500.04"/>
  <rect class="cls-3" x="1577.56" y="280.82" width="17.09" height="616.92"/>
  <rect class="cls-3" x="1395.11" y="353.06" width="8.54" height="54.59"/>
  <rect class="cls-3" x="1244.99" y="598.3" width="8.54" height="269.63"/>
  <rect class="cls-3" x="1007.25" y="648.32" width="8.54" height="249.42"/>
  <rect class="cls-3" x="1913.42" y="323.81" width="8.54" height="424.92"/>
  <path class="cls-4" d="M2000,713.57c-15.69-19.65-37-34.42-61.63-37.77-74.12-10.09-127.31,80.27-201.79,87.3-37.31,3.53-72.72-14.64-107-29.73s-73.94-27.54-108.44-12.92c-33.93,14.36-53.63,51.24-86.6,67.7-35.9,17.92-79.13,7.89-116.81-5.91s-76.13-31.34-116.06-27.37-74.36,28.86-112,42.85c-63.42,23.58-133.52,15.54-201,10.25S749.13,801.52,691,836.22l19.41,34.21c.4,9.27,1,18.9,2.18,28.41H2000Z"/>
  <path class="cls-5" d="M0,898.84H1652.61a522.25,522.25,0,0,0-171.54-41.63c-86.08-5.8-172.79,9.86-258.59.88-53.55-5.61-106.49-20.78-160.25-17.8-56.14,3.11-111.23,26-167,19-74.38-9.37-135.52-70.16-210.27-75.8-58.26-4.4-115,25.75-173.29,21.23-52.42-4.07-100.51-35.89-153.09-35.26-42.93.51-83.24,22.74-126.15,24.1-43.54,1.38-84.46-18.67-126.5-30.08-35-9.5-76.24-11.29-105.91,7Z"/>
  <path class="cls-6" d="M2000,848.53c-16.07-7.24-34.9-9.64-52.06-6-32.71,7-62.82,30.16-96,25.66-11-1.49-21.31-6-32.21-7.84-22.06-3.72-44.41,3.66-66.78,4.11-72.45,1.45-132.16-68.39-204.58-65.87-35.56,1.24-67.88,20-102.22,29.28-65.61,17.79-134.82.61-202.39-7s-180,27.27-225.36,77.91H2000Z"/>
  <path class="cls-7" d="M0,898.84H1124.21c-69.92-21.63-151.5-11.24-225.92-23.67-49.25-8.23-96.41-26.9-145.9-33.44-56.71-7.48-114.76,1.2-171.25-7.77-56.95-9.05-111.77-35.91-169.3-31.92-50.79,3.52-97.19,30.83-147.63,37.74-53.15,7.27-106.41-8.51-159.79-13.91-34.91-3.53-73-1.12-104.42,12.85Z"/>
  <path class="cls-8" d="M1823.08,109.39c-11.25-5.69-86.82-6.08-99.62-6.57A743,743,0,0,1,1569.81,80.7c-19.72-5-40.75-10.76-60-4.08-13.64,4.74-25.72,15.6-40.16,15.1-13.65-.47-25.44-11.21-39.1-11.31-14.55-.11-26.3,11.65-40.2,16s-28.56.93-43,.47c-12.85-.41-27.45,2.71-35,12.56Z"/>
  <path class="cls-9" d="M183.19,180.14H858.42L648.89,173C621,172,593,171,565.14,169.06q-31.64-2.24-63.13-6.23a32.26,32.26,0,0,0-51.75-25.74c-8.07,6.11-13.52,16.14-23.18,19.16-11.88,3.73-23.75-4.79-33.65-12.35-19.91-15.21-42-28.86-66.77-32.73s-52.63,4-66.93,24.52c-3.92,5.65-6.78,12.11-11.65,17s-12.76,7.73-18.67,4.21c-3.19-1.9-5.18-5.27-7.71-8-8.44-9.13-24.14-10.26-33.81-2.43s-11.83,23.41-4.65,33.58Z"/>
  <g>
    <path class="cls-10" d="M490.32,561.9C489.09,592.39,453.47,613,452,643.45c-.5,9.95,2.83,19.76,2.73,29.72-.23,22.93-19.84,42.87-42.28,47.58s-46.22-3.77-64-18.31c-31.62-25.92-45.41-71.65-33.39-110.73,6.15-20,18.23-37.79,24.2-57.85,11.6-39-1.16-81.5,6.53-121.47,4.23-21.94,17-44.62,38.58-50.57,20.83-5.75,43.39,6.56,55.72,24.32S456.55,426,459.27,447.4s4.4,43.42,12.76,63.36C479.11,527.63,491.05,543.62,490.32,561.9Z"/>
    <g>
      <path class="cls-11" d="M397,958.73c-8.17-43.66.75-85.84,7.91-119.74,2.53-12,4.91-23.27,6.15-32.94,4.57-35.92-17.92-92.57-18.15-93.14-11.78-23.54-16.49-87.14,0-120.91,15-30.59,26.54-80.36,9.88-119.92-16.3-38.71-7.66-95.51-7.57-96.07l2,.31c-.08.57-8.63,56.8,7.44,95,16.92,40.19,5.23,90.63-9.93,121.61-16.27,33.26-11.64,95.91,0,119.17.26.65,22.95,57.79,18.31,94.24-1.25,9.75-3.64,21.09-6.18,33.1-7.12,33.72-16,75.69-7.89,118.94Z"/>
      <path class="cls-11" d="M404.43,472.49l-1.26-1.61c30-23.33,32.67-65.35,32.7-65.78l2,.12C437.89,405.65,435.14,448.6,404.43,472.49Z"/>
      <path class="cls-11" d="M411.72,516.64c-47-18.41-59.3-80.3-59.42-80.92l2-.39c.12.61,12.27,61.41,58.16,79.41Z"/>
      <path class="cls-11" d="M407.35,557.6l-1-1.78c34.78-19.66,51.62-53.88,51.79-54.22l1.84.89C459.81,502.84,442.69,537.63,407.35,557.6Z"/>
      <path class="cls-11" d="M390.76,600c-32.83-11.16-52.48-46.27-52.68-46.62l1.8-1c.19.35,19.47,34.77,51.54,45.67Z"/>
      <path class="cls-11" d="M383.54,645.31l-.39-2c53.54-10.37,86-57.77,86.32-58.25l1.7,1.15C470.84,586.68,437.93,634.77,383.54,645.31Z"/>
      <path class="cls-11" d="M384,672.53c-39.86-14.32-66.43-61.71-66.7-62.19l1.8-1c.26.47,26.47,47.2,65.59,61.25Z"/>
    </g>
  </g>
  <g>
    <path class="cls-12" d="M1831.05,1082.22c12.7-3.75,27.37,1,39.06-5.19,4.94-2.63,9.11-7.15,14.66-7.87,4.66-.6,9.4,1.8,12.27,5.52a20.84,20.84,0,0,1,3.9,13.24,28.38,28.38,0,0,1-7.71,18.68c-3.77,4-8.66,6.81-12.17,11-7.09,8.5-7.19,20.62-7.24,31.69-.07,14.13-1.18,29.59-10.84,39.9-5.8,6.19-13.94,9.6-22.06,12-12,3.62-24.9,5.49-37.2,2.88s-24-10.22-29.24-21.62-2.87-26.53,7.13-34.16c6.09-4.65,14.28-6.31,19.6-11.83,4.42-4.6,6.13-11.16,7-17.48s1.17-12.82,3.42-18.8A30.25,30.25,0,0,1,1831.05,1082.22Z"/>
    <path class="cls-13" d="M1802.41,1200.75l-1.23-1.46c.25-.2,24.65-20.84,39.16-50.37l1.86-3.79c13.72-28,25.56-52.17,52.06-67.57l1,1.65c-26,15.11-37.17,37.9-51.31,66.76l-1.86,3.79C1827.36,1179.67,1802.65,1200.55,1802.41,1200.75Z"/>
    <path class="cls-13" d="M1848,1134.69c-14.13-17.31-8.85-48.61-8.62-49.93l1.88.33c-.06.32-5.36,31.77,8.22,48.4Z"/>
    <path class="cls-13" d="M1863,1109.86,1863,1108c19.45-.73,29.09-6.62,29.18-6.68l1,1.62C1892.75,1103.14,1883.05,1109.11,1863,1109.86Z"/>
    <path class="cls-13" d="M1837.87,1175a49.6,49.6,0,0,1-10.89-2l.61-1.81c.19.07,19,6.23,37.94-2.94l.83,1.72A54.7,54.7,0,0,1,1837.87,1175Z"/>
    <path class="cls-14" d="M1830.33,1181.57s-17.21-7.13-21.87-32.53"/>
    <path class="cls-15" d="M1757.54,1104c2.86-10.62-1.7-22.16,1-32.81,2-7.88,7.79-14.23,13.92-19.57s12.87-10.1,18-16.46c4.49-5.62,7.54-12.35,12.5-17.57s12.94-8.7,19.39-5.51c7.06,3.5,8.69,13.08,6.94,20.76s-5.89,14.72-7.09,22.5c-3.91,25.5,24.3,47.74,20.37,73.24-1.5,9.77-7.67,18.41-8.83,28.22-.8,6.79.86,13.7-.17,20.45-2.2,14.4-16.85,24.66-31.4,25.33s-28.51-6.45-39.63-15.85c-8.28-7-15.52-15.53-19.57-25.6s-4.62-21.79-.09-31.65C1747,1120.55,1755,1113.52,1757.54,1104Z"/>
    <g>
      <path class="cls-13" d="M1798.81,1202.63l-2.14-.15c.1-.17,9.8-17.86-1.59-40.63-13.13-26.27-22.28-53.8,9.61-101.47.23-.31,19.94-26.87,14.76-48.81l2,.12c5.4,22.82-14.35,48.68-15.19,49.8-31.28,46.77-22.32,73.76-9.45,99.5C1808.65,1184.71,1798.92,1202.45,1798.81,1202.63Z"/>
      <path class="cls-13" d="M1788.23,1144.4l-.21-1.9c27.46-3,49.62-26,49.84-26.26l1.39,1.31C1839,1117.79,1816.38,1141.38,1788.23,1144.4Z"/>
      <path class="cls-13" d="M1801.08,1178.26c-29.94-1-57.56-39.46-58.72-41.1l1.56-1.1c.28.39,28.24,39.35,57.22,40.3Z"/>
      <path class="cls-13" d="M1783.56,1107.79c-18.56-9.76-20.62-39.21-20.7-40.46l1.9-.12c0,.3,2.08,29.63,19.69,38.89Z"/>
      <path class="cls-13" d="M1789.74,1091.68l-.13-1.9c.19,0,18.6-1.32,31-12.71l1.29,1.4C1809,1090.33,1790.52,1091.63,1789.74,1091.68Z"/>
      <path class="cls-13" d="M1804.65,1061.38c-.29-.51-7.12-12.84-7.44-32.58l1.91,0c.31,19.22,7.12,31.55,7.19,31.68Z"/>
      <path class="cls-13" d="M1818,1038.66l-.61-1.81a19.91,19.91,0,0,0,9.49-8.55l1.64,1C1824.3,1036.5,1818.29,1038.58,1818,1038.66Z"/>
    </g>
  </g>
  <g>
    <path class="cls-16" d="M148.59,1226.89a23.14,23.14,0,0,1-7.55-6.45c-7.8-9.58-11.51-21.93-12.89-34.2-.46-4.13-.66-8.42.76-12.32s4.81-7.35,8.94-7.67c3.58-.28,7.11,1.73,10.63,1.08,4.16-.77,6.75-4.86,8.54-8.68,1-2.22,2.24-4.72,4.57-5.49,3.35-1.11,6.66,2.06,10.19,2.15,3.69.08,6.49-3.09,9.25-5.55a25.51,25.51,0,0,1,16.34-6.72,19.17,19.17,0,0,1,15.67,7.51c3.51,4.88,4,11.93.73,17-2.61,4-7.37,6.76-8.3,11.43-.71,3.53,1,7,2.13,10.44,4.24,13-1.47,28.78-13.35,35.65-10.18,5.87-22.73,5.11-34.44,4.18C156,1228.91,152,1228.58,148.59,1226.89Z"/>
    <path class="cls-13" d="M164.24,1226.59c-5.48-23.64-26.09-47.94-26.3-48.18l1.8-1.53c.21.24,21.19,25,26.8,49.17Z"/>
    <path class="cls-13" d="M181,1226.34l-2.36,0c.58-35.57,21.17-74.49,21.38-74.88l2.08,1.11C201.92,1152.92,181.6,1191.35,181,1226.34Z"/>
    <path class="cls-13" d="M182.12,1207.17l-.1-2.35c12.21-.54,20.48-9.31,20.56-9.39l1.73,1.6C204,1197.42,195.29,1206.6,182.12,1207.17Z"/>
    <path class="cls-13" d="M185.36,1188.4c-15.53-5.57-15.92-23.3-15.92-23.47l2.36,0c0,.66.39,16.27,14.36,21.28Z"/>
    <path class="cls-13" d="M159.76,1209.37l-1.72-1.62c.08-.09,8.1-8.76,6.2-17.46l2.3-.51C168.72,1199.72,160.13,1209,159.76,1209.37Z"/>
    <path class="cls-13" d="M142.73,1192.12a26,26,0,0,1-11.6-2.49l1.13-2.08a26.06,26.06,0,0,0,16.63,1.54l.51,2.3A30.93,30.93,0,0,1,142.73,1192.12Z"/>
    <g>
      <path class="cls-17" d="M241.94,1241.29a12.11,12.11,0,0,0,4.8-4.72c1.3-2.38,1.78-5.14,2.94-7.59,1.59-3.33,4.36-5.92,7-8.48s5.34-5.28,6.68-8.72,1-7.81-1.83-10.21a10.05,10.05,0,0,0-7.08-2c-9,.47-16.58,7.87-19.65,16.37-2.91,8-2.5,16.85-1.22,25.33Z"/>
      <path class="cls-13" d="M239.14,1239.78l-2.36-.12c.06-1.1,1.59-26.88,20.15-34.71l.92,2.18C240.66,1214.38,239.15,1239.52,239.14,1239.78Z"/>
    </g>
    <path class="cls-18" d="M273.31,1246.09a13.25,13.25,0,0,0-2.65-5.89,13.89,13.89,0,0,0-14.79-4.31c-3.5,1.18-6.88,3.82-10.46,2.94-3.78-.94-5.46-5.18-7.69-8.37a19.42,19.42,0,0,0-23.44-6.26c-4.2,2-8.46,5.6-12.85,4.1-2.87-1-4.55-3.85-6.42-6.23a30,30,0,0,0-17.41-10.46,38.38,38.38,0,0,0-20.41,1.67c-6.84,2.43-13.2,6.69-17.15,12.77-3.81,5.87-5.09,13.52-2.61,20Z"/>
  </g>
  <g>
    <g>
      <path class="cls-19" d="M736.49,1196.34c4.17,3.25,8.58,6.53,11.18,11.1h9.19a5.08,5.08,0,0,0,.62-.61,8.29,8.29,0,0,0,1.38-4.26,71.86,71.86,0,0,0-8.12-42.66c-3.48-6.42-8.74-12.78-16-13.79-7.57-1-15,4.65-17.49,11.89s-.6,15.41,3.36,22S730.46,1191.64,736.49,1196.34Z"/>
      <path class="cls-13" d="M753.37,1206.09l-2.06,0c.5-24.16-24.82-51.63-25.08-51.9l1.51-1.41C728.8,1153.89,753.89,1181.1,753.37,1206.09Z"/>
    </g>
    <g>
      <path class="cls-20" d="M768.87,1207.44a10.62,10.62,0,0,0,4.19-4.11c1.13-2.08,1.54-4.48,2.56-6.62,1.38-2.9,3.79-5.16,6.11-7.39s4.65-4.6,5.81-7.6.85-6.8-1.59-8.9a8.72,8.72,0,0,0-6.17-1.72c-7.86.4-14.45,6.85-17.13,14.26-2.53,7-2.17,14.69-1.06,22.08Z"/>
      <path class="cls-13" d="M766.43,1206.12l-2.06-.11c0-1,1.39-23.42,17.57-30.24l.8,1.9C767.75,1184,766.44,1205.9,766.43,1206.12Z"/>
    </g>
    <path class="cls-18" d="M786.45,1211.51c-1.94-2.73-4.89-4.92-8.23-5.15-2.26-.16-4.55.58-6.78.18-4.64-.82-7-5.92-10.66-8.89-4.06-3.3-10.86-3.48-14,.66-2,2.63-2.92,6.88-6.21,7.28s-5.1-3.34-7.42-5.6c-3.29-3.2-8.65-3.63-12.85-1.77s-7.31,5.62-9.28,9.77a52.38,52.38,0,0,0-3.54,11.7h82.73A29.68,29.68,0,0,0,786.45,1211.51Z"/>
  </g>
  <g>
    <path class="cls-18" d="M1403.42,1280.07l-14-19.47c-2.11-2.93-4.76-6.15-8.36-6.21-4.33-.07-7.57,4.51-11.89,4.76-3.72.21-6.74-2.79-10.12-4.35-7.19-3.31-16,.31-21.17,6.33-4.56,5.35-6.86,12.15-8.81,18.94Z"/>
    <g>
      <path class="cls-21" d="M1379.29,1279.71h24.21c.39-.22.79-.43,1.17-.66,5.49-3.34,10.09-8,14.38-12.73,2.38-2.64,4.79-5.58,5.17-9.12A8.9,8.9,0,0,0,1409,1250c-1.47,1.49-2.37,3.44-3.55,5.16s-2.84,3.35-4.92,3.56q-.39-14.78-.77-29.55c-.09-3.47-.28-7.21-2.46-9.91-2.44-3-6.68-3.85-10.55-3.8a19.59,19.59,0,0,0-10.84,2.91c-4.49,3-6.79,8.47-7.79,13.8-2.86,15.38,3.23,30.91,9.83,45.09A20.62,20.62,0,0,0,1379.29,1279.71Z"/>
      <path class="cls-13" d="M1389.16,1279.71c-7.68-27-3.41-58-3.37-58.28l-2-.29c0,.32-4.33,31.25,3.26,58.57Z"/>
      <path class="cls-13" d="M1394.47,1279.71c14.23-8.82,23.19-25.47,23.61-26.26l-1.82-1c-.1.2-10.44,19.41-26,27.22Z"/>
    </g>
  </g>
  <g>
    <path class="cls-22" d="M13.58,523.35C-.1,498,13.22,466.51,30.52,443.51S69.89,399.15,75.88,371c4.35-20.49-.57-41.75.36-62.67,1.51-34,20.87-68.1,52.12-81.48s73-.91,87.1,30c8.8,19.26,6.5,41.72,12.27,62.08,6.76,23.85,24,43,38.28,63.26s26.6,44.72,21.34,68.95c-2.92,13.42-11.05,25.57-12,39.27-1.38,19.35,11.56,36.46,17.25,55,6.81,22.2,2.87,46.84-7.74,67.49s-27.45,37.6-46.23,51.25c-29.26,21.29-65.5,35.46-101.38,30.76s-70-31.77-75.18-67.58c-2.66-18.3,1.89-38-5.72-54.83C47.32,552.58,24,542.58,13.58,523.35Z"/>
    <path class="cls-11" d="M165.91,361.33c-17,69.7-38.26,226.74,3.16,322.2,29.06,67,22.78,152.5,16.71,235.19-.84,11.38-1.66,22.58-2.38,33.61h2.06c.72-11,1.54-22.13,2.37-33.46,6.09-82.94,12.39-168.71-16.88-236.16-41.2-95-20-251.42-3-320.89,14.33-58.68-25.75-130.3-26.16-131l-1.79,1C140.37,232.53,180,303.45,165.91,361.33Z"/>
    <path class="cls-11" d="M147.45,505.88l-.65-1.95c79-26.26,116.85-104.31,117.22-105.09l1.86.88C265.5,400.52,227.25,479.35,147.45,505.88Z"/>
    <path class="cls-11" d="M147.53,581.3c-71.6-9.53-124.84-70.35-125.37-71L23.71,509c.53.61,53.28,60.84,124.09,70.27Z"/>
    <path class="cls-11" d="M161.78,661l-.5-2c72.8-18,102.43-88.67,102.72-89.38l1.9.77C265.61,571.11,235.58,642.74,161.78,661Z"/>
    <path class="cls-11" d="M162.08,383.73c-58.73-9.69-77.56-59-77.75-59.51l1.93-.71c.18.48,18.63,48.7,76.16,58.19Z"/>
    <path class="cls-11" d="M167.05,301.64l-1.3-1.6c27.6-22.47,28.92-54.73,28.93-55.05l2,.06C196.72,245.39,195.37,278.58,167.05,301.64Z"/>
  </g>
  <rect class="cls-23" x="1594.65" y="477.52" width="69.61" height="6.15"/>
  <path class="cls-24" d="M388.89,954.71c-1.5-2.85-2.24-6-4.79-8.36-5.79-5.32-16.6-3.37-25.25-1.6s-20.58,1.57-23.38-5.06c-1.59-3.77.84-8-.54-11.82-1.76-4.88-9.12-7.25-15.62-7.07s-12.65,2.19-19.07,3-13.91,0-17.74-4.11c-3.45-3.68-2.82-8.69-2.83-13.25s-1.57-9.94-7-11.68c-5.82-1.88-12.28,1.79-15.43,6s-4.56,9.29-8.52,13.1-12.25,5.7-16.33,2c-2-1.84-2.35-4.46-2-6.86,1.14-8.17,8.84-15.11,10-23.28,1.11-7.71-4.4-15.75-13.24-19.31s-20.42-2.41-27.84,2.77c-4.89,3.41-7.84,8.17-12.08,12.08s-10.88,7.07-17.13,5.52c-7.4-1.83-11.09-9.47-18.79-10.21-7.14-.67-12.55,5.16-14.17,10.62s-1.31,11.46-5,16.26c-3.6,4.63-11.22,7.34-17.88,5.81s-11.26-7.6-9.06-12.74a33.94,33.94,0,0,0-27,17c-4.87,8.7-5.55,18.43-6.16,27.91-6.92-4-17.88-1.11-21.89,4.84a12.36,12.36,0,0,0-2,8.43Z"/>
  <g>
    <path class="cls-25" d="M1831.35,830.58c24.68,10.13,53.2,16.91,77.55,6,23.89-10.67,38.61-38.73,33.82-64.44-5.52-29.65-33.35-54-30.32-84,1.21-12,7.33-22.79,11-34.24,6.4-19.9,5.26-41.78-1.08-61.7s-17.69-38-31.21-53.92c-8.74-10.31-19.43-20.35-32.82-22.21-17.51-2.44-33.45,9.66-46.51,21.59-7.3,6.66-14.56,13.67-19.19,22.4s-6.31,19.58-2.08,28.52c6.08,12.84,22.57,19,26.85,32.5,3.24,10.25-1.8,21.38-8.61,29.71s-15.47,15.11-21.42,24.07-8.68,21.4-2.59,30.26c3,4.27,7.72,7.41,9.27,12.36,3,9.5-7.07,17.39-13.13,25.29-11.93,15.56-8.81,38.93,2.71,54.8S1813.2,823.14,1831.35,830.58Z"/>
    <g>
      <path class="cls-11" d="M1840.53,970.06h1.77c-2-46.61,3.31-111,26-196.59,32.13-120.94-21.9-244.85-22.45-246.09l-1.62.72c.55,1.23,54.33,124.59,22.36,244.92C1843.86,858.74,1838.57,923.29,1840.53,970.06Z"/>
      <path class="cls-11" d="M1881.81,802.16a71.24,71.24,0,0,1-21-2.84l.59-1.67c.35.13,35.83,12,71-14.51l1.06,1.41A84.82,84.82,0,0,1,1881.81,802.16Z"/>
      <path class="cls-11" d="M1874.28,738.87c-.51-.17-51.25-17.77-72.4-53l1.52-.91c20.81,34.7,70.94,52.08,71.45,52.25Z"/>
      <path class="cls-11" d="M1878.18,691.48l-.86-1.55c.3-.16,29.73-16.74,43-47.92l1.63.69C1908.44,674.45,1878.48,691.31,1878.18,691.48Z"/>
      <path class="cls-11" d="M1871.22,617.33l-.9-1.52c28-16.6,39.28-44.25,39.39-44.53l1.65.65C1911.24,572.22,1899.77,600.43,1871.22,617.33Z"/>
      <path class="cls-11" d="M1864.17,587.44c-35-4-57.26-29.53-57.49-29.79l1.35-1.15c.21.25,22.07,25.23,56.34,29.18Z"/>
    </g>
    <path class="cls-26" d="M1672.48,725.11c.72-10,6.12-19.31,6.78-29.36,1.84-28.3-32.75-47.3-35.6-75.52-1.81-18,9.8-34.35,21.47-48.15s24.62-28.4,26.3-46.4c1.73-18.5-8.89-35.56-15-53.12-6.15-17.79-7.66-37.5-2.12-55.49s18.58-34,36-41.11c16-6.54,34.22-5.32,50.82-.57,22.36,6.39,43.27,19.41,56.58,38.49s18.26,44.45,10.44,66.36c-8.41,23.58-30.6,42.89-29.83,67.91.49,16.28,11,30.55,22.53,42s24.85,21.55,33.69,35.24,12.25,32.64,2.81,45.92c-5.8,8.17-15.25,12.73-23.65,18.18s-16.65,13.23-17.27,23.22c-.77,12.41,10.46,23,10.34,35.45-.13,13.47-13.25,23-25.79,27.92a116.43,116.43,0,0,1-98.41-7C1686.27,759.87,1671.15,743.84,1672.48,725.11Z"/>
    <g>
      <path class="cls-11" d="M1734.52,970.06h1.81c-4.59-74.45-1.74-166.72,14-192.82,20.12-33.28,14.81-142,.05-175.62-15.89-36.19-19-77-9.41-124.77a514,514,0,0,0,9.45-100.42l-1.77,0a512.38,512.38,0,0,1-9.42,100c-9.62,48.14-6.51,89.29,9.53,125.82,14.64,33.33,20,141.07.06,174C1732.38,803.57,1729.85,895.9,1734.52,970.06Z"/>
      <path class="cls-11" d="M1759.77,743.6c-39.08-4.57-71.23-36-71.55-36.35l1.25-1.26c.31.32,32,31.36,70.5,35.85Z"/>
      <path class="cls-11" d="M1752,609.39c-46.24-5.51-75.84-36.87-76.13-37.18l1.29-1.21c.29.31,29.47,31.2,75.05,36.64Z"/>
      <path class="cls-11" d="M1762.77,686.26l-.41-1.72c46.27-11,71.7-52.25,72-52.66l1.51.91C1835.57,633.22,1809.77,675.1,1762.77,686.26Z"/>
      <path class="cls-11" d="M1739.85,477.52c-37.73-13-51.72-62-51.86-62.51l1.71-.47c.13.48,13.88,48.64,50.73,61.3Z"/>
      <path class="cls-11" d="M1748.31,427.42l-.45-1.71c23.8-6.31,37.37-28.85,37.51-29.07l1.52.9C1786.75,397.77,1772.83,420.92,1748.31,427.42Z"/>
      <path class="cls-11" d="M1735.32,542.42l-.3-1.74c.47-.08,47.42-8.71,76.92-50.36l1.44,1C1783.45,533.6,1735.8,542.34,1735.32,542.42Z"/>
    </g>
  </g>
  <g>
    <ellipse class="cls-27" cx="938.09" cy="1113.17" rx="761.96" ry="15.77"/>
    <g>
      <g>
        <path class="cls-28" d="M1251.25,1077.5a100.26,100.26,0,0,1,13.41,0c5.82.42,13.66-2.52,21.09-8.47a4.24,4.24,0,0,1,6.74,2.4,21.63,21.63,0,0,1-.1,9.14c-2.09,10.14-10,14.8-14.1,15.73s-21.33,7.46-25.87,10.72c0,0-14.22,7.34-15.73-5.36-1.32-11.07-4.39-15.46-4.39-15.46S1241.46,1074.08,1251.25,1077.5Z"/>
        <path class="cls-29" d="M968,1028.07a101.55,101.55,0,0,1-10.73,8c-4.92,3.15-9.42,10.2-11.81,19.42a4.22,4.22,0,0,1-6.83,2.11,21.6,21.6,0,0,1-5.4-7.36c-4.4-9.38-.85-17.86,1.86-21s12.6-18.75,14.29-24.09c0,0,7-14.4,15.8-5.14,7.69,8.07,12.79,9.75,12.79,9.75S977.92,1024.94,968,1028.07Z"/>
        <path class="cls-30" d="M1048.38,939.24s-1.63,4.93,1.48,13.32c0,0-12.12,9.63-14.61,42.27,0,0-12.43,2.17-21.75,7.77s-28,7.77-40.72,3.73c0,0-7.77,5.59-4.35,22.06,0,0,20.52,1.56,33.41,6.22s35.28,9.63,55.48,4c0,0,36.36-21.76,48.79-50.35a261.58,261.58,0,0,0,44.45,6.84c22.69,1.24,23.25,8.39,23.25,8.39s13.08,34.46,34.87,52.52c20.43,16.94,23.62,30.15,23.62,30.15s11.81-.31,19-8.7c0,0-22.5-68.07-38-97.9,0,0-42.56-51.75-66.16-65.66l-83.43-9.84-18,12.88Z"/>
        <path class="cls-31" d="M1185.52,796.77a41.47,41.47,0,0,1,4.51,4.9s16.16-18.76,22.84-49.16l15.39-8.42,15.69,5.68s-2.49,44.44-12,73.81c-6.81,20.91-8.29,26.23-9.26,30.16a9.86,9.86,0,0,1-6.51,7c-11.23,3.7-38,9.83-56.73-7.81l7.23-48.47Z"/>
        <path class="cls-32" d="M1158.87,772.14s16.63,10,26.65,24.63c0,0-11.65,11.66-16.32,26.81C1169.2,823.58,1115.82,811.39,1158.87,772.14Z"/>
        <path class="cls-33" d="M1212.87,752.51a15.87,15.87,0,0,0-5.79-5.15c-2.13-1.07-5.62-4.07-8.23-6.45a5.64,5.64,0,0,1-.8-7.43,36.08,36.08,0,0,1,6.1-6.87s-.41-6.32-.3-12.53a5,5,0,0,1,6.14-4.81c7.55,1.79,21,6.3,31.25,17.12a11.3,11.3,0,0,1,2.83,5.35,41.78,41.78,0,0,1-.12,18l-12.63,4.47Z"/>
        <path class="cls-34" d="M1164.39,776c-14.92-24.7-26.89-28.9-26.89-28.9l-3.65-1.37s-23.29-5.88-43.8-9l-11.29-2.47-3.56.72a48.08,48.08,0,0,0-11.2.2,47.61,47.61,0,0,1-5.28,3.11s-5.93,0-8.64,2.54L1030,823.58l7,12.43s11.15,42.56,8.33,73.33c0,0,57.12,17.92,101.26,5.24,0,0,4-3.36,4-13.15s7.77-45.22,15.54-62.93S1179.31,800.73,1164.39,776Z"/>
        <path class="cls-35" d="M1075.27,674.34a129,129,0,0,1,10.37,32.79l11.89-20.26L1088,668.34Z"/>
        <path class="cls-36" d="M1130.51,663.15,1114,657.43l-20.28,3.81-3,18.6s0,.63,0,1.75a3.17,3.17,0,0,0-2.08-.66c-3,0-7.21,1.05-7.21,5.36s4.25,5.37,7.21,5.37a3.73,3.73,0,0,0,1.17-.18c-1.92,12.14-7.82,31.12-25.83,43.68,0,0,39.32,3.11,68.07,25.8C1132.07,761,1140.3,709.71,1130.51,663.15Z"/>
        <path class="cls-37" d="M1099.65,668.22s24.68,3.5,34.59-4.19,9.79-35-18.18-37.3a12.08,12.08,0,0,1,4.66,11.12c-.7,5.08-9.8,3.21-14.33,2.4-3.65-.65-30.77-4.43-33.8,12.47s5.39,26.82,9.45,31.13c0,0,4-5.34,9.9,0C1091.94,683.85,1098.86,680.23,1099.65,668.22Z"/>
        <path class="cls-38" d="M1014.43,766s11.66-25.68,42-25.53,28,43.72,24.55,52.86-15.69,30.28-35.74,30.28h-14.14l-26.73-25.1Z"/>
        <path class="cls-39" d="M1014.43,766s-18.65,8.72-27.74,21.28-19.81,25.07-24.71,28-4.42,21.36,0,29.52,30.54,59.91,55.71,78.32l16.09-6.13,3.15-15.55s-13.87-13.86-15-23.48.93-22.94-3.5-33.41a27.17,27.17,0,0,0,18.54-5.11,19.93,19.93,0,0,0,8.27-15.85S1011.17,814.41,1014.43,766Z"/>
        <path class="cls-40" d="M1017.69,923.11a160.9,160.9,0,0,0,12.9,17.1,10,10,0,0,0,9.07,3.26c7-1.15,19.44-4.07,27.45-10.9a5.88,5.88,0,0,0,1.08-7.74c-3.25-4.84-8.72-13.63-12-22.35a7.38,7.38,0,0,0-10-4c-3.47,1.63-7.24,3.11-9.22,3Z"/>
        <path class="cls-41" d="M1049.86,952.56s16.71,24.59,56.25,35.74l-1.93,4s-39.4-11.77-55.57-38.55Z"/>
        <path class="cls-42" d="M1250.35,1078.45l.9-1c-.28.34-.59.64-.9,1Z"/>
      </g>
      <g>
        <path class="cls-43" d="M1002.28,1063.15l-14.76,11.34a9.05,9.05,0,0,0-3.42,8.55c.93,5.44,7.3,6.52,7.3,6.52s15.54,3.89,23,10.1c5.35,4.46,14.85,5.56,22.26,2.68a3.84,3.84,0,0,0-.07-7.16,18.75,18.75,0,0,1-5.41-3C1026.52,1088.32,1015.8,1066.88,1002.28,1063.15Z"/>
        <path class="cls-44" d="M722.25,1044.65s-3.57-1.39-5-3.88-8.23-9.63-13.21-.62-8.85,16.78-13.83,24.55c-3.93,6.14-7.18,19.67-1.61,28a4.14,4.14,0,0,0,7.42-1.28c.91-3.62,2.66-7.91,6-10.6,6.69-5.38,13.68-8.8,23.62-18C725.67,1062.84,721.48,1053.36,722.25,1044.65Z"/>
        <path class="cls-45" d="M835.69,877.28s-11,15.21-3.25,38.14c0,0-6.38,44.16-15.47,60.71s-14.22,17-24.24,19.57-24.71,8.86-43.36,25.18-20,20.74-27.12,23.77c0,0-3,12.36,3.42,18.19,0,0,63.9-30.27,103.46-44.46a32.93,32.93,0,0,0,10.42-6c9.23-8,28.39-27.91,45.24-67,0,0,23.78,12.58,40.8,17.25s31,10.95,32.87,18.18,2.09,20.74,10.72,36.36,20.07,45.32,18.34,57.34c0,0,14.2-3,18.23-10,0,0-11.63-65-20.27-105.63a24.51,24.51,0,0,0-6.61-12.21c-11.53-11.6-40.79-39.78-68.43-56.32C910.44,890.35,869.09,860.48,835.69,877.28Z"/>
        <path class="cls-46" d="M824,771.78s-12.61,14-19.47,26a13.53,13.53,0,0,0-.81,11.92c4.09,9.86,13.72,30.45,35.35,43.66l7.46-20.67s-10.25-9.24-16.32-28.2a38,38,0,0,1,12.9-15.19S834.92,769.6,824,771.78Z"/>
        <path class="cls-47" d="M866.07,722.55s-24.77-11.45-46.15,5.89a5.2,5.2,0,0,0,.9,8.63l.11.06s-5.75,46.46,15.23,51.28c0,0,10,31.68,8.08,42.92S835.62,861,828.86,867c0,0,15.61,29.31,41,34s40.56-10.69,40.56-10.69,1.63-30.54,0-56.65-1.87-39.15-1.87-50.58-5.2-34.57-19.73-42.11Z"/>
        <path class="cls-48" d="M917.9,660.52c-.7-9-14.51-20.16-36-15.53h0s-12.42,0-19.8,3.72A85.6,85.6,0,0,1,874.9,647l0,0a68.83,68.83,0,0,0-13.11,6.08h0S850.61,656,846,662.46a61.26,61.26,0,0,1,10.84-5.85c-8.94,7.49-9.91,15.81-7.89,22.4,3,9.63,12,24.71,14.61,30.46l26.12-10.42,22.81-25.22S918.67,670.46,917.9,660.52Z"/>
        <path class="cls-41" d="M863.51,732s-10.59-3.34-12.13-3.93a68.59,68.59,0,0,1,14.69-1.86Z"/>
        <path class="cls-49" d="M912.44,673.83s.49,14.88,10,23.7L913.7,702s.78,10.83-1.4,14.12-23.46,5.07-23.46,5.07V741l-13.21-5-12.12-4v-25.5s-7.77-1.58-6.53-8.11,12.9-4.19,18.42.47a56.54,56.54,0,0,1-1.17-21.73S903.58,679.49,912.44,673.83Z"/>
        <path class="cls-50" d="M961.37,777l4.39-5.06a6,6,0,0,0,.88-6.49,64.37,64.37,0,0,0-3.49-6.35,6.5,6.5,0,0,1,.31-7.47,78.61,78.61,0,0,0,6-8.9,4.5,4.5,0,0,1,7.38-.62,66.28,66.28,0,0,1,9.89,16.71,9.77,9.77,0,0,1,0,7.56,84.28,84.28,0,0,1-14.48,23Z"/>
        <path class="cls-51" d="M961.37,777s-29.49,24.2-40.36,32c0,0-18.32-15.38-31.38-36S865.84,759.5,862,763.08s-5.91,13.67,2.17,25.33c7.73,11.15,26.42,41.23,53.07,52.1a7.38,7.38,0,0,0,6.88-.66c7.86-5.21,28.75-20.8,48.13-50.55A70.5,70.5,0,0,0,961.37,777Z"/>
        <path class="cls-41" d="M884.79,945.51a128.87,128.87,0,0,1,7.56-15.6c4.32-7.34,8.63-15.38,9.45-20.39,0,0,.87,8.1-6.12,21.27s-7.45,16.49-7.45,16.49Z"/>
      </g>
      <g>
        <path class="cls-52" d="M1508.2,842.6s-19.38,14.91-9.83,45.19c0,0-8.53,54.06-14.83,71.54,0,0-15,4.68-21.14,10.57,0,0-7.93,18.29,10.36,25.61A163.76,163.76,0,0,0,1490,988.6s26.42-13,49.79-70.93c0,0,37.2,17.68,58.74,23.37a122.64,122.64,0,0,0-10.94,26s2.41,13.41,26,12.19c0,0,7.64-19,14.43-33a17.45,17.45,0,0,0-.63-16.34c-7.19-12.44-25.59-36.42-70.28-64.63,0,0,0-5.55-.56-15.38l-22.26-8.5Z"/>
        <path class="cls-53" d="M1546.47,736s7.54-1.48,16.72,11c0,0,19.33,16.53,39.65,26.94a138.19,138.19,0,0,0,12.67-19c5.28-9.86,7.72-34.87,7.72-34.87l8.54-4.39,6.13,5.42s-3.42,58.9-27,74.84c0,0-22.4-.85-39.79-18.06l-23.89-34.42Z"/>
        <path class="cls-54" d="M1517.18,807.37s-1.53,25.94-9,35.23c0,0,19.1,15,48.37,7.25,0,0-.27-25.07,3.86-39.5l-31.5-9Z"/>
        <path class="cls-55" d="M1517.07,735.05a70.66,70.66,0,0,0-12.19-.51l2.3,35.23-.88,7.46s9,19,10.88,30.14c0,0,21,11.32,43.25,3,0,0,2.07-7.92,5.83-13.11s10.36-13.41,9.14-21.84c-1.12-7.77-19.91-24.94-26.69-37a6.3,6.3,0,0,0-5.38-3.25,45.38,45.38,0,0,0-4.61.16Z"/>
        <path class="cls-56" d="M1495.79,673.47s-26.07.2-32.68-13.06c0,0,9.65-5.84,8.54-18.95s-21.55-21.55-41.36-18.7c0,0,14.43,8,7.11,16.16s-19,17-18.09,33.74,17.07,28.75,37.5,28.15,33.13-14.15,39.84-21.15C1496.65,679.66,1499.5,677,1495.79,673.47Z"/>
        <path class="cls-57" d="M1548.79,662.85s-2.35-17-25.62-15.19c-16.27,1.23-31.2,13.1-26.52,32s13.51,22.57,20.62,32.73l19.92-33.94Z"/>
        <path class="cls-58" d="M1547.63,712.73c2.28-5.17,7.79-31.2,1.89-48.21-2.45-7.07-10.13-9.41-17.41-7.68-8.84,2.1-19.45,12.06-17.41,31.09,0,0-1.55-4.73-6.57-4.6s-7.2,1.77-6.84,6.36c.33,4.41,4.6,6.78,9.48,6.37a58.43,58.43,0,0,0,5.87,9.2h0s.95,16.29.44,29.8c0,0,8.74,11.18,17.68,14.94s12.71-1.22,10.67-5.69-8.58-8.19-6.17-24.22l0,0C1543.9,719.77,1546.16,716,1547.63,712.73Z"/>
        <path class="cls-59" d="M1461.18,852.83s0,13.31,1.73,18.9c1.33,4.32,9.15,6.94,14.56,9a2.76,2.76,0,0,0,3.77-2.64c-.11-4.8-.08-12.32,1-16.35,0,0,3.26,1.12,4.17-.1s-2.23-6.09-2.84-10.46-8-4.65-12.2-8.61l-6.71.78Z"/>
        <path class="cls-60" d="M1471.34,842.6s-13.31-21.47-17.58-44.34c0,0,29.47-22.36,46-30.59a76.26,76.26,0,0,1,6.5,9.56s11.18-3.05,10.87-17-6.5-23.06-12.29-25.71c0,0-14.7,1-22.16,13.58,0,0-33.83,24.28-48.65,38.53a11.1,11.1,0,0,0-3,11c2.89,10.33,10.8,32.23,30.13,55.19Z"/>
        <path class="cls-42" d="M1557.13,811.45l.41-.13-.4.12Z"/>
        <path class="cls-61" d="M1630.25,720.66s-10.2,1.42-12-4.15-1.37-6.89-4.8-11.38,2.84-6.15,5.49-2.42a20.43,20.43,0,0,0-.58-11.89,3.94,3.94,0,0,1,4-5.24,10.22,10.22,0,0,1,4.77,1.79c4,2.74,7.06,5.51,10,7.27a7.41,7.41,0,0,1,3.5,5.57c.62,5.59-.27,15.69-2.83,20.92C1637.9,721.13,1632.41,722.82,1630.25,720.66Z"/>
        <path class="cls-62" d="M1579.47,1057.5a120.81,120.81,0,0,0,1.22-16.06c0-8-1.35-52.84,6.94-74.38,0,0,6.47,13,26,12.19,0,0-12.6,35.16-15,43.29s-6.91,31.5-7.31,43.29C1591.26,1065.83,1581.7,1070.3,1579.47,1057.5Z"/>
        <path class="cls-63" d="M1579.47,1057.5a11.88,11.88,0,0,1-4.88,4.88c-3.46,1.83-9.76,7.52-5.28,13.82s13,12.6,18.69,22.56c3,5.32,11.3,5.59,17.14,4.69a2.78,2.78,0,0,0,1.67-4.59c-2.06-2.3-4.43-5.5-5.19-8.64-1.42-5.89-5.28-16.87-10.36-24.39C1591.26,1065.83,1581.5,1066,1579.47,1057.5Z"/>
        <path class="cls-64" d="M1404.77,1017s5.6-3.43,15.35-15.22,30.29-27.64,42.28-31.91c0,0-2.24,18.29,10.36,25.61,0,0-47.92,22.32-68.37,36C1404.39,1031.47,1397.75,1024.74,1404.77,1017Z"/>
        <path class="cls-65" d="M1404.77,1017a11.74,11.74,0,0,1-6.76-1.34c-3.44-1.86-11.68-3.94-14.43,3.28s-3.25,17.82-8.37,28.08c-2.74,5.49,1.62,12.5,5.61,16.86a2.78,2.78,0,0,0,4.75-1.16c.77-3,2.11-6.74,4.3-9.12,4.11-4.45,11.09-13.76,14.52-22.16C1404.39,1031.47,1398.8,1023.47,1404.77,1017Z"/>
        <path class="cls-41" d="M1498.37,887.79s4.25,14.25,41.46,29.88l-.64,1.55s-31.89-11.17-41.38-27.93Z"/>
        <polygon class="cls-41" points="1557.13 865.23 1548.89 859.67 1556 861.57 1557.03 861.77 1557.13 865.23"/>
        <path class="cls-42" d="M1469.86,993.41a17.94,17.94,0,0,0,2.9,2.1Z"/>
      </g>
      <g>
        <path class="cls-66" d="M1201.79,1030.32a5.48,5.48,0,0,1-4.34-1.64c-1.8-2-6-3.41-7.49,1.66a34.61,34.61,0,0,1-13.33,17.65c-5.12,3.49-6.6,10.4-5.15,16.44a3.3,3.3,0,0,0,6.15.74,13.79,13.79,0,0,1,5-5.65c5.69-3.29,14.23-11.08,18.42-18.42A41.21,41.21,0,0,1,1201.79,1030.32Z"/>
        <path class="cls-67" d="M1441.22,1065.66s.89,3.44-1.2,5.84-2.85,7.19,3.29,9.58,10.63,8.24,14.23,13.48c2.57,3.75,9,6.51,16.49,5.46a3.4,3.4,0,0,0,1.28-6.25c-2-1.16-4.21-2.54-5.46-4.75-3.85-6.8-10-20.1-19.8-26.8A40.11,40.11,0,0,1,1441.22,1065.66Z"/>
        <path class="cls-68" d="M1304.64,862.69s-19.6,13-11.06,43.68a294.31,294.31,0,0,0-7.64,28.57c-2.7,13.48-11.08,45.56-23.06,47.94s-23.66,15-27.55,22.14-21.11,18.86-33.54,25.3c0,0-2.85,6.14-.75,10.78,0,0,54.5-23.35,79.06-42.07,0,0,39.83-26.8,51.81-58.55,0,0,22,15.43,35.79,22.16s19,18.27,21.11,28.75,7.19,28,26,43.58,26.36,30.69,26.36,30.69,6.13,1,8.83-3.44c0,0-35-67.61-43.72-91.6,0,0-44.92-81.65-56.6-92.2C1349.73,878.42,1318,857.53,1304.64,862.69Z"/>
        <path class="cls-69" d="M1370.11,782.65s11.51,15.88,26.78,22.7a152.2,152.2,0,0,0,14.23-45.75s4,7.43,10.78,6c0,0,.4,45.23-10.78,61.87a6.08,6.08,0,0,1-5.51,2.63c-7.52-.56-26.59-7.59-35.5-15.3C1370.11,814.84,1356.14,797.16,1370.11,782.65Z"/>
        <path class="cls-70" d="M1311.54,751.07s-10.93-.9-18,7.78l3.74,18.87,4,3.93s17,11.19,14,39.94-10.72,41.1-10.72,41.1a58.43,58.43,0,0,0,45.09,15.73S1346,852.89,1372.48,814a23.88,23.88,0,0,0,2.49-22.27c-4-10.09-12.41-24.08-29.49-35.9Z"/>
        <path class="cls-71" d="M1281.75,690.81a4.61,4.61,0,0,0,4.41,1.3l11.12-24.48a4.3,4.3,0,0,0-3.4-2.06S1277.22,673.5,1281.75,690.81Z"/>
        <path class="cls-72" d="M1338.5,663.77s2.39-6.75-3.3-9.81-23.45.83-32,7.12c-7.51,5.5-17.67,18-18.57,31.14s4.49,26.35,9.59,31.3,12.42,6.43,16.32,4.19l23.06-38.65Z"/>
        <path class="cls-73" d="M1338.5,663.77s-18.27,3.45-23.51,37c0,0-11.16-6.72-13.26,2.11s4.31,9.61,7.6,9.32c0,0-1.83,8.6,1.17,15.56a13,13,0,0,1,4.64,11.23,25.14,25.14,0,0,1-3.6,12.13s25,14.48,37.59,25.45c10,8.76,10.93,5.09,10.18,0s-8.09-15.82-18-24.68-8.23-17.09-4.94-20.69,17.52-6,16.32-23l6.81-6s-11.75-8.36-12.2-16S1345.68,668.41,1338.5,663.77Z"/>
        <path class="cls-74" d="M1293.88,665.57s2.84-11.08-5-16.62-27.1-1.19-33.84,14.08-1.58,41.77,19.65,46.11c0,0-9.61-3.59-12.46-13.47,0,0,11.23,5.71,19.47-4.86C1281.75,690.81,1282.05,678.75,1293.88,665.57Z"/>
        <path class="cls-75" d="M1303.76,841.51s-24.86-13.7-34-29.69c0,0,16.38-19.05,31.55-30.17,0,0,2.74-16.81-7.74-22.8,0,0-31.73,29.49-45.78,44.82a9,9,0,0,0-1.17,10.52c5,8.71,18.8,23.42,52.34,37.65Z"/>
        <path class="cls-76" d="M1303.76,841.51s5.85,3.18,13.94-2.06a93.4,93.4,0,0,1,10.71-6,4,4,0,0,1,5.71,3.25c.51,5.41-.22,11.62-4.5,18.87a7.75,7.75,0,0,1-6.63,3.78c-5.69.05-13.8,0-24-7.56A16.58,16.58,0,0,1,1303.76,841.51Z"/>
        <path class="cls-77" d="M1411.12,759.6s-3.71-7.74-8.69-12.74a10,10,0,0,1-2.86-6c-.61-5.94-1.32-16.57,1.37-17.32,3.74-1,5.54,6.73,5.54,6.73a68.25,68.25,0,0,1,.76-10.32,3,3,0,0,1,5.34-1.4c3.19,3.9,8,9.35,12.93,13a10.54,10.54,0,0,1,4.12,8c.2,4.27,0,10.17-2,14.62-3.59,7.85-4.79,7.49-5.69,11.49C1421.9,765.64,1414.71,768.14,1411.12,759.6Z"/>
        <path class="cls-41" d="M1293.58,906.37s4.68,15.66,38.33,34.11l-.74,1.85s-28.11-12.46-38.24-33.92Z"/>
      </g>
      <g>
        <path class="cls-78" d="M719.27,1036A65.54,65.54,0,0,0,741,1061.2c15.23,10.26,20.36,20,20.36,20s15.54,12.58,15.07.77c0,0-8.23-13.2-12.27-21.75s-17.56-36.83-17.56-36.83S730.61,1027.33,719.27,1036Z"/>
        <path class="cls-79" d="M761.38,1081.25a11.41,11.41,0,0,1-1.09,5.75c-1.4,2.64-5.44,9,2.33,14.14s16.47,10.56,21.45,15.07a19.07,19.07,0,0,0,20.8,2.59,3.72,3.72,0,0,0-.1-6.66,19.68,19.68,0,0,1-5.63-4c-4.35-4.66-15.54-21.29-22.69-26.11C776.45,1082,774.43,1090,761.38,1081.25Z"/>
        <path class="cls-80" d="M614.22,987.7s-18.65,11-27,20.2-21.45,19-26.42,20.76c0,0-5.12,10.63,1.4,17.47,0,0,46.62-22.69,68.22-32.48C630.38,1013.65,624,1004.17,614.22,987.7Z"/>
        <path class="cls-81" d="M560.76,1028.66a18.71,18.71,0,0,1-5.12-.09c-2.18-.47-9-.47-9.79,7.77s-3.89,20.51-6.53,26.26c-1.92,4.17-1,11.19,3.75,15.69a5.83,5.83,0,0,0,9.78-3.33,28.21,28.21,0,0,0,.3-3.19c.31-7.62-.62-9.17,1.71-14.3s4.35-6.21,7.3-11.34C562.16,1046.13,556.76,1039.17,560.76,1028.66Z"/>
        <path class="cls-82" d="M784.69,757.4a34.12,34.12,0,0,0-7.28-9.49,7.76,7.76,0,0,1-2.2-8.1c1-3.27,2.41-7.82,3.51-12.64a4.92,4.92,0,0,1,7.13-3.28,49.39,49.39,0,0,1,18,17.43,8.08,8.08,0,0,1,1.16,5.55c-.6,3.83-2.11,10.56-5.69,15.51L787.64,768Z"/>
        <path class="cls-83" d="M619.13,859.52s-14.54,44.11,12,82.34c0,0,.76,23.42-3.12,29.95s-7.14,9.67-13.82,15.89c0,0,.93,19.11,16.16,25.95,0,0,31.86-11.19,43.2-29.84,0,0,16.32,10.73,28.9,22.69s8.55,20.36,16.79,30.15c0,0,18,.93,27.35-13.21,0,0-10-24.16-18.42-41.26S712,947.45,712,947.45s16.2-36.88,9.95-74.36l-60.6-25.52-27.9,2.29Z"/>
        <path class="cls-84" d="M784.69,757.4s-8.7,22.54-33.41,44.29c0,0-37.75-31.17-53-48.22l3.42,24.76,18.15,36.52s18.84,10.83,34.82,14.16a7.57,7.57,0,0,0,6-1.24c8.25-6,27.74-22.56,38.62-65.29C799.3,762.38,792.15,754.76,784.69,757.4Z"/>
        <path class="cls-85" d="M662.86,738.6s-14.38,1.86-24.86,27S619.65,829.33,622.76,852c0,0,50,26.89,99.15,21.06,0,0-1.12-13.59-.81-32.68,0,0,1.4-13.07.93-19.13-.5-6.58,1.72-29.2-26.24-71.67Z"/>
        <path class="cls-86" d="M726.57,665.72c-5.64-4.58-18.29-8.57-30.94-9.43,2.93-5.86.37-11-4.18-16.37-5.13-6.06-24.71-3.41-34.34,4.35s-16.94,14.92-14.61,25.33S659,678.84,659,678.84h0a52.06,52.06,0,0,0-.78,15.47C659.75,712,670.32,713,670.32,713l16.16.78,39.11-11.49C744.19,685,734.81,672.4,726.57,665.72Z"/>
        <path class="cls-87" d="M724.86,686.23s-12.12,16.32-38.15,11.52c0,0,2.51-7.28-6.45-8.26-8.26-.89-9.32,5.6-7.61,9S679,704.1,679,704.1s-2,5.13-8.7,8.86c0,0,1.24,16.63-7.46,25.64,0,0,17.4,19.27,32.48,12.9,0,0,3.56-14.17,4.35-25,0,0,16,5.28,18.65-12.74l6.52-.31A122.73,122.73,0,0,0,724.86,686.23Z"/>
        <path class="cls-42" d="M725.13,688.77l-.27-2.54c.11.85.19,1.7.27,2.54Z"/>
        <path class="cls-88" d="M628.21,842.33a40.51,40.51,0,0,1,10.59-1.92,7.35,7.35,0,0,1,4.79,1.66,53.54,53.54,0,0,1,6.11,5.72,5.18,5.18,0,0,1-.45,7.25c-3.14,2.87-8,7.23-12.7,11.11A7.57,7.57,0,0,1,628,867a32.29,32.29,0,0,1-12.15-12.21l2.1-12.21Z"/>
        <path class="cls-89" d="M628.21,842.33s-12.13-14-21.92-51.75c0,0,33.57-9.79,48-18.18S664.57,751,659.44,747s-20.51-2.85-41,5.8a135.8,135.8,0,0,0-41,27.59,11.61,11.61,0,0,0-2.53,12.56c5.86,14.44,21.11,48,41,61.83C615.85,854.77,622.61,857.48,628.21,842.33Z"/>
        <path class="cls-41" d="M631.16,941.86s17.05,24.94,42.42,41.95l-1.49,2.25s-23.61-14.6-40.9-39.89Z"/>
        <path class="cls-42" d="M745.12,1025.45v0l1.49-2A23.86,23.86,0,0,1,745.12,1025.45Z"/>
        <path class="cls-41" d="M693,905c1.19-1.63,3.78-5.23,5.58-7.9l-7,5.61a160.39,160.39,0,0,0-9.11-13.83s23,45,28.12,55.86c.35.75.79,1.67,1.3,2.74l1.89-4.74S703,921.74,693,905Z"/>
      </g>
      <g>
        <path class="cls-90" d="M582,1064.34a127.94,127.94,0,0,1,13,2.33c4.53,1.17,16.61,2.66,28.78-.11a3.89,3.89,0,0,1,4.29,5.64,21.53,21.53,0,0,1-9.6,9.24c-10.41,4.81-27.35,9.32-33.41,13.83s-22.07,9.94-23.31-18.18C561.75,1077.09,574.18,1073.05,582,1064.34Z"/>
        <path class="cls-91" d="M499.59,997.08s12.74,10.39,17.09,20,16.16,25.8,25,35.12,17.72,15.23,20,24.87c0,0,12.9-3.58,20.2-12.75,0,0-26.78-65.88-35.42-85.49a16,16,0,0,0-2.91-4.44c-3-3.32-9.17-9.84-12-12C531.6,962.4,509.22,975.34,499.59,997.08Z"/>
        <path class="cls-92" d="M260.44,1046.59s-2.22,14.68,4.66,25.17c0,0-3.85,10-7.58,16.09-2.8,4.54-4.54,12.56-1.28,18.06a3.83,3.83,0,0,1-3.34,5.66,23.63,23.63,0,0,1-14.26-4.14c-9.79-7.11-4.43-22-4.43-22s3.38-16.78,3.85-26.46S240,1043.33,260.44,1046.59Z"/>
        <path class="cls-93" d="M336.11,970s-5.12,12.9-13.52,16.78-21.91,16.32-30,29.06-25.33,31.31-32.16,30.73c0,0-2.8,16.9,4.66,25.17,0,0,62.31-32.59,76.61-39.27a124.68,124.68,0,0,0,43.51-33S365,972.35,336.11,970Z"/>
        <path class="cls-94" d="M341.55,871.65s-6.84,23.32-2.91,59.1a10.57,10.57,0,0,1-2.82,8.41c-4.46,4.7-12.32,12.81-17.58,17.11,0,0,35.43,36.36,80.42,48.25,0,0,20.27-18.42,36.36-25.88,0,0,42.72,21.68,49.45,33.1,0,0,30.27-24.32,51.72-49.34,0,0-12.83-30.14-42.66-52,0,0,1.4-8,2.1-11.72L415,863Z"/>
        <path class="cls-95" d="M391.2,739.5s-15.41,3.71-24.86,8.15a10.26,10.26,0,0,0-4.75,4.57c-4.86,9.44-18.58,41.51-13.54,95.07l57.37-68.64Z"/>
        <path class="cls-96" d="M458.65,733.18s-37.15-2.52-67.45,6.32c0,0-2.33,21.06,5.6,40.13l54.07-31.28Z"/>
        <path class="cls-97" d="M472.55,732.17l-.05,0a8.51,8.51,0,0,0-9.3-1.2c-11.73,5.69-46.53,23.7-73.63,49.1-33.1,31-45.69,77.18-48,91.63,0,0,100.47,40.91,154.08,27,0,0,6.71-25.11,9.3-61.71s-2.95-56.38-9.3-67C491.5,756.46,483.62,743.94,472.55,732.17Z"/>
        <path class="cls-98" d="M505.3,678.65s-11.19-10.95-38.11-7.92c0,0,23.08-6.18,39.51,7.92Z"/>
        <path class="cls-99" d="M513.23,680.84s-8.4-16.55-27.39-22.38c0,0,19.58,3.38,28.32,22.38Z"/>
        <path class="cls-100" d="M518.7,748.42S540,760.7,546.21,765.36a195.47,195.47,0,0,0,.62-42.11l-37.76-37.79-16.47-4.62-8.86,2.78s-18.8-.18-28,7.52c0,0,13.21,9.35,11.34,25.71,0,0,11.62-.79,19.11,1.92l9.41,17.38,10.49,13.67Z"/>
        <path class="cls-101" d="M483.74,683.62s12.28-13.36,41.8,0c0,0,19.74,9.6,34.34,27.72,0,0-6.83,7.56-13,11.91,0,0-39.39,2.55-40-29.07a10.86,10.86,0,0,0-9.46-10.35A52.29,52.29,0,0,0,483.74,683.62Z"/>
        <path class="cls-102" d="M472.55,732.17s8.86-6.59,14.61-14.67a9.36,9.36,0,0,1-4.35-11.65c2.64-8.24,19.11-4.08,21.29,5.49s-5.29,23.56-5.29,23.56,14.76,9.33,19.89,13.52a146.81,146.81,0,0,0-23.07,21.45S482.65,747.77,472.55,732.17Z"/>
        <path class="cls-103" d="M517.94,817.18s12.88,8.55,17.31,11.12c0,0,18.88-15.15,28.67-24.48,0,0,21-12.63,21.68,10.47,0,0-17.25,51.58-41.26,63.91,0,0-36.53-2.2-59.87-24.77C484.47,853.43,492.46,815.85,517.94,817.18Z"/>
        <path class="cls-104" d="M476.28,859.07s30.77-18.7,43.12-44.78c0,0-27.5-24.51-35.66-34.27s-21.68-18.46-39.86-7.12S435,827.13,476.28,859.07Z"/>
        <path class="cls-105" d="M572.26,785.93a37.51,37.51,0,0,0-2.78-12.7,7.63,7.63,0,0,1,1.76-8.52,52.72,52.72,0,0,1,12.58-9,6.49,6.49,0,0,1,7.56,1.14,66.93,66.93,0,0,1,14.66,22,8.92,8.92,0,0,1-1.11,8.47,49.74,49.74,0,0,1-10.57,10.54S573.86,795.4,572.26,785.93Z"/>
        <path class="cls-106" d="M564.19,804.49c4.45,1.47,13.9,4.92,20.47,9.59a4.33,4.33,0,0,0,6.38-1.63,38.59,38.59,0,0,0,3.48-12.62,5.12,5.12,0,0,0-1.07-3.71A27.93,27.93,0,0,0,574,785.72a4.14,4.14,0,0,0-4.18,2.46,131.88,131.88,0,0,1-6.69,13.37A2,2,0,0,0,564.19,804.49Z"/>
        <path class="cls-42" d="M503.25,1000.32c-1.06-1-2-1.8-2.61-2.35Z"/>
        <path class="cls-41" d="M493.36,910.3c-.61,4.62-1.78,12.77-3.06,17.94a39.5,39.5,0,0,0,7.06-15l-4-3Z"/>
        <path class="cls-41" d="M474.42,944.49c-5.95,10-18.3,21.68-26.11,25.53A68,68,0,0,0,435,978.64l8.72,4.62C466.49,970.1,474.42,944.49,474.42,944.49Z"/>
      </g>
    </g>
  </g>
  <path class="cls-107" d="M1916.34,975.23c.25-6.93-6.53-13.58-13.77-15-8.39-1.69-16.92,1.17-25.31,2.86s-18.1,1.86-24.38-4c-3.44-3.2-5.61-8-10-9.78-8.37-3.39-16.87,6.93-25.81,5.64s-11.86-12-15.62-20.05c-2.4-5.14-5.92-9.93-10.82-12.79s-11.3-3.5-16.22-.68c-6.66,3.82-8.72,12.19-11.77,19.23s-10.07,14.24-17.27,11.6c-3.47-1.27-6.23-4.71-9.93-4.64-7.91.16-7.44,14.07-14.7,17.2-8.37,3.6-16.57-10.46-25.11-7.3-6.1,2.26-7.18,11.88-13.49,13.44-7,1.73-13.05-8.4-20.05-6.5-4.31,1.18-5.55,6.44-4.11,10.76Z"/>
  <rect class="cls-23" x="1328.51" y="401.5" width="155.59" height="6.15"/>
  <rect class="cls-23" x="1016.91" y="571.49" width="76.09" height="6.15"/>
</svg>
