<svg xmlns="http://www.w3.org/2000/svg" width="1500" height="1200" viewBox="0 0 1500 1200">
  <defs>
    <style>
      .cls-1 {
        isolation: isolate;
      }

      .cls-2 {
        fill: #f79673;
      }

      .cls-3 {
        fill: #663a22;
      }

      .cls-20, .cls-4 {
        fill: #a1b1b7;
      }

      .cls-4 {
        opacity: 0.43;
        mix-blend-mode: multiply;
      }

      .cls-5 {
        fill: #242d22;
      }

      .cls-6 {
        fill: #1b60ab;
      }

      .cls-7 {
        fill: #2f80c9;
      }

      .cls-8 {
        fill: #dcdfe2;
      }

      .cls-9 {
        fill: #003054;
      }

      .cls-10 {
        fill: #1993ff;
      }

      .cls-11 {
        fill: #178de5;
      }

      .cls-12 {
        fill: #ebeff2;
      }

      .cls-13 {
        fill: #ea8668;
      }

      .cls-14 {
        fill: #0b4d75;
      }

      .cls-15 {
        fill: #e5e1e1;
      }

      .cls-16 {
        fill: #dce1e5;
      }

      .cls-17 {
        fill: #c9ced1;
      }

      .cls-18 {
        fill: #eac5ca;
      }

      .cls-19 {
        fill: #ea2877;
      }

      .cls-21 {
        fill: #b8c5cc;
      }

      .cls-22 {
        fill: #774315;
      }

      .cls-23 {
        fill: #bdc5c6;
      }

      .cls-24 {
        fill: #5d6a6d;
      }

      .cls-25 {
        fill: #fff;
      }

      .cls-26 {
        fill: #fbd738;
      }

      .cls-27 {
        fill: #eab92d;
      }

      .cls-28 {
        fill: #ffaa82;
      }

      .cls-29 {
        fill: #f29268;
      }

      .cls-30 {
        fill: #8c531b;
      }

      .cls-31 {
        fill: #a0621f;
      }

      .cls-32 {
        fill: #dd805f;
      }

      .cls-33 {
        fill: #af6c28;
      }

      .cls-34 {
        fill: #d38462;
      }

      .cls-35 {
        fill: #e28061;
      }

      .cls-36 {
        fill: #ea8a6c;
      }

      .cls-37 {
        fill: #744628;
      }

      .cls-38 {
        fill: #a4434c;
      }

      .cls-39 {
        fill: #e8425e;
      }

      .cls-40 {
        fill: #f49f7d;
      }

      .cls-41 {
        fill: #e4eeef;
      }
    </style>
  </defs>
  <g class="cls-1">
    <g id="image">
      <g>
        <path class="cls-2" d="M121.66,632.33s23.67,153.34,129,99.34l-4.66-38s-67.34,52.66-100.67-64Z"/>
        <path class="cls-3" d="M829.56,254.39s-27.22,16.37-18.7,52.79S830.2,435.1,830.2,435.1l72.24-16.36-8.94-167Z"/>
        <path class="cls-4" d="M1331.31,1104.73H124.25a8.25,8.25,0,0,1-8.25-8.25h0a8.25,8.25,0,0,1,8.25-8.25H1331.31a8.25,8.25,0,0,1,8.25,8.25h0A8.25,8.25,0,0,1,1331.31,1104.73Z"/>
        <path class="cls-2" d="M463.33,542.67s39-18.67,66-86.7l-34.76-20.13L448,511Z"/>
        <path class="cls-2" d="M717.6,408.61c29,77.76,15.25,212.31,18,266.89l-31.1-1.14c5.75-70-9.42-163.41-35.23-248.91Z"/>
        <path class="cls-2" d="M707.71,671.33l-19.88,24.15a5.19,5.19,0,0,0-.63,7.24h0a5.09,5.09,0,0,0,7.17.77l8.64-7.17a55.32,55.32,0,0,0,.63,16h0a4.7,4.7,0,0,0,.09,1.39l6.64,29.82a5.11,5.11,0,0,0,6,3.92,5,5,0,0,0,3.76-6l-5.61-25.16.37.05a4.7,4.7,0,0,0,.12,1l6.64,29.83a5.11,5.11,0,0,0,6,3.92,5,5,0,0,0,3.76-6l-6.65-29.82,0-.09.74-.28,5,22.18a5.1,5.1,0,0,0,6,3.9,5,5,0,0,0,3.75-6l-.81-3.61a4.89,4.89,0,0,0,7.15-5.44l-5.06-22.48h0l-4.65-28.38C734.33,665.71,712.8,664.79,707.71,671.33Z"/>
        <path class="cls-2" d="M595.4,1049.79l-32.55-.08c-10.43-82.54-30-287.73-27.63-377.65l53.07-1C588.12,765.32,590.69,976,595.4,1049.79Z"/>
        <path class="cls-2" d="M724.62,1057.79l-34.52-3S607.61,675,613,675l57.6-9.6C670.71,677.64,724.62,1057.79,724.62,1057.79Z"/>
        <polygon class="cls-5" points="675.16 1097.61 737.9 1097.61 737.86 1090.62 675.12 1090.62 675.16 1097.61"/>
        <path class="cls-6" d="M732.32,1074.15c.22.53-3.58-24-3.58-24L686.12,1049l-1,25,8.14-10.56,25,3.25Z"/>
        <path class="cls-6" d="M675.14,1091.31h62.74l0-12c0-10.76-7.55-19.48-16.79-19.48H691.79c-9.25,0-16.72,8.72-16.68,19.48Z"/>
        <path class="cls-7" d="M675.14,1091.31h62.74l.06-8.68c0-7.75-7.4-14-16.65-14H692c-9.24,0-16.78,6.28-16.83,14Z"/>
        <polygon class="cls-8" points="718.81 1066.5 692.88 1066.5 692.67 1060.21 718.61 1060.21 718.81 1066.5"/>
        <path class="cls-9" d="M708.56,841.06c-23.15,11.88-47.78,11.27-73.67,0L605,656l72.5-9.5Z"/>
        <path class="cls-9" d="M604.82,843.25c-24.34,12.33-48.91,12-73.66.88l2.57-202.8,63.53,9Z"/>
        <path class="cls-6" d="M602,1091.26l-114.84.41h0c-2-18.61,9.87-33.7,26.54-33.7h88.91Z"/>
        <path class="cls-7" d="M540.54,1091.26l-53.42.41h0c-1.91-18.61,9.39-33.7,25.25-33.7h5.08c12.75,0,23.09,12.76,23.09,28.5Z"/>
        <polygon class="cls-5" points="486.84 1097.21 601.59 1097.21 601.72 1090 486.97 1090 486.84 1097.21"/>
        <path class="cls-6" d="M543.07,1063l13.41-13.3,42.06.18a4.05,4.05,0,0,1,4,4.07v9Z"/>
        <path class="cls-8" d="M525.78,1058.11s15.46,3.27,17.61,19.66l9,.5s-1.5-18.65-15.67-20.67Z"/>
        <path class="cls-8" d="M543,1057.89s15.46,3.28,17.6,19.66l9,.5s-1.5-18.65-15.67-20.66Z"/>
        <ellipse class="cls-9" cx="603" cy="639.69" rx="70.58" ry="53.97"/>
        <polygon class="cls-10" points="534.26 610.28 675.49 607.92 684.93 375.47 528.68 375.47 534.26 610.28"/>
        <path class="cls-10" d="M678.07,579,682,648s-107.45,40-148.82-7.24l-1.89-170.65,14.13-51.5,92.1,1.67,44.61,31Z"/>
        <path class="cls-11" d="M678.07,579,682,648s-107.45,40-148.82-7.24c94.05,12.9,129.3-74.93,149-189.47Z"/>
        <path class="cls-10" d="M632.94,326.42c-5.68-3.83-21-7.22-22.91-6.35-1.95-.87-17.23,2.52-22.91,6.35-34.56,23.33-87.91,38.22-87.95,73.71,0,0,.7,25.43,18.86,25.43H702c18.16,0,18.86-25.43,18.86-25.43C720.85,364.64,667.51,349.75,632.94,326.42Z"/>
        <path class="cls-12" d="M631.7,325.9c-5.74-3.84-20.91-6.7-22.88-5.83-2-.87-17.42,2.52-23.16,6.35-5.9,3.93-12.33,7.63-19,11.22-5.09,2.77,3.09,39,35.84,39.88,35.51,1,47-40.6,42.72-43.57S635.81,328.64,631.7,325.9Z"/>
        <path class="cls-10" d="M717.18,384.35c7.14,19.79,17.38,65.73,21.15,116.65l-51.23,4.67c-6.11-31.36-16.36-70.56-25.31-103.46Z"/>
        <path class="cls-10" d="M500.67,391c-11,30.33-16,43.33-33.16,77.29l46.35,41c9.91-27.33,24.7-62.33,39-91.76Z"/>
        <rect class="cls-13" x="380.54" y="381.96" width="16.77" height="35.43" rx="7.85" transform="translate(104.89 -80.25) rotate(13.6)"/>
        <ellipse class="cls-9" cx="340.82" cy="419.97" rx="21.53" ry="36.01"/>
        <rect class="cls-9" x="339.7" y="384.11" width="27.54" height="71.87" transform="translate(706.94 840.09) rotate(180)"/>
        <ellipse class="cls-14" cx="366.66" cy="419.97" rx="21.53" ry="36.01"/>
        <rect class="cls-15" x="357.33" y="412.67" width="85.2" height="16.67" rx="7.43" transform="translate(799.87 842) rotate(180)"/>
        <polygon class="cls-2" points="371.64 413.43 413.92 412.63 428.61 454.7 438.67 476.24 419.35 482.68 367.82 434.97 371.64 413.43"/>
        <path class="cls-2" d="M377,423.81h0a7.36,7.36,0,0,1-5.41-8.87l4.87-20.15a7.38,7.38,0,0,1,8.87-5.42h0a7.37,7.37,0,0,1,5.42,8.87l-4.88,20.15A7.37,7.37,0,0,1,377,423.81Z"/>
        <path class="cls-2" d="M391.53,425.82h0a7.37,7.37,0,0,1-5.41-8.87L391,396.8a7.36,7.36,0,0,1,8.87-5.41h0a7.37,7.37,0,0,1,5.41,8.87l-4.88,20.15A7.37,7.37,0,0,1,391.53,425.82Z"/>
        <path class="cls-2" d="M404.82,429h0a7.36,7.36,0,0,1-5.41-8.87L404.28,400a7.36,7.36,0,0,1,8.87-5.41h0a7.36,7.36,0,0,1,5.41,8.87l-4.87,20.15A7.36,7.36,0,0,1,404.82,429Z"/>
        <path class="cls-2" d="M376.85,428.52l63.58,99.9c10.52,13.16,18.38,16.88,24.16,13.28l19.08-23.39-71.21-88.52Z"/>
        <ellipse class="cls-9" cx="433.23" cy="419.97" rx="21.53" ry="36.01"/>
        <rect class="cls-9" x="432.12" y="384.11" width="27.54" height="71.87" transform="translate(891.77 840.09) rotate(180)"/>
        <ellipse class="cls-14" cx="459.08" cy="419.97" rx="21.53" ry="36.01"/>
        <rect class="cls-15" x="454.85" y="412.12" width="20.47" height="17.03" rx="8.24" transform="translate(930.18 841.27) rotate(180)"/>
        <polygon class="cls-2" points="973.78 393.19 1041.07 494.05 1018.56 519.04 939.67 427 973.78 393.19"/>
        <path class="cls-2" d="M957.32,484.68l3.22,65.47,3.32,67.62-111,.19a15.48,15.48,0,0,1-14.41-21.21l15.14-38-9.53-67.29Z"/>
        <path class="cls-13" d="M924.86,578.44c0,3.75,1.26,6.78,2.82,6.78s2.82-3,2.82-6.78-1.26-6.79-2.82-6.79S924.86,574.69,924.86,578.44Z"/>
        <path class="cls-2" d="M900.35,353.25s20.77,45.6,3.14,49.95-48-36-48-36L868,357.45Z"/>
        <path class="cls-2" d="M862.31,360.26c4.2-3.22,16.08-7.05,17.71-6.62,1.48-.8,13.93.1,18.77,2.23,29.47,13,73.19,18.27,76.2,43,0,0,1.57,17.82-12.89,19.56l-73.24,8.8-73.24,8.8c-14.45,1.74-17.15-15.95-17.15-15.95C795.53,395.35,836.75,379.85,862.31,360.26Z"/>
        <path class="cls-16" d="M941.74,366.93,957,416.33l11.3,29.08a36.76,36.76,0,0,1-.35,27.45l-10.87,26-112.32,6.69L825,457.36s31.63-41,13.33-81l15-12.83s12.87,38.8,43.72,34,18.58-37,18.58-37Z"/>
        <path class="cls-17" d="M957.09,498.84l-112.32,6.69L825,457.36a97.85,97.85,0,0,0,16.71-35.31c.5-2.13.92-4.31,1.25-6.56,1.68-11.36-1.1,6.62-1.1,6.62C850.64,459.14,877.42,505.34,957.09,498.84Z"/>
        <path class="cls-18" d="M885.39,455.25l52.48-3.56a5.5,5.5,0,0,0,5.11-5.84h0a5.52,5.52,0,0,0-5.85-5.11l-52.48,3.56a5.49,5.49,0,0,0-5.1,5.84h0A5.5,5.5,0,0,0,885.39,455.25Z"/>
        <path class="cls-2" d="M1107.71,418.21l-55.88,99.4c-9.42,13.2-19.11,16.82-24.83,13.64l-16.67-23.92,63.34-86.13Z"/>
        <path class="cls-19" d="M812.84,1059.93l34.32-3.06s55.06-384.24,49.62-384.24l-58.32-9.72C839.27,675.35,812.84,1059.93,812.84,1059.93Z"/>
        <polygon class="cls-5" points="859.86 1097.92 804.7 1097.92 804.74 1090.92 859.9 1090.92 859.86 1097.92"/>
        <path class="cls-20" d="M809.6,1074.45c-.19.54,3.15-24,3.15-24l37.48-1.17.87,25L844,1063.76l-22,3.25Z"/>
        <path class="cls-20" d="M859.88,1091.62H804.72l0-12.06c0-10.76,6.64-19.48,14.77-19.48h25.72c8.13,0,14.7,8.72,14.67,19.48Z"/>
        <path class="cls-21" d="M859.88,1091.62H804.72l-.06-8.68c0-7.75,6.51-14,14.64-14H845c8.13,0,14.75,6.29,14.8,14Z"/>
        <polygon class="cls-8" points="821.48 1066.8 844.28 1066.8 844.46 1060.52 821.66 1060.52 821.48 1066.8"/>
        <path class="cls-19" d="M973.5,663.06s11.16,98.43,12.11,188.62,6,214.12,6,214.12l-31-1.85S940,950.86,939.36,903c-.78-64.21-21.85-236.69-21.85-236.69Z"/>
        <path class="cls-19" d="M965,588s14.31,98.39,13,137.11l-53.4,2-6.9-61.34H906l-16.21,75.07L838,744s-20-118,5-159C888,595.1,933.19,600.64,965,588Z"/>
        <g>
          <path class="cls-20" d="M955.12,1092.05l114.84.41h0c2-18.61-10.31-26-27-26l-88.47-7.75Z"/>
          <path class="cls-21" d="M1016.55,1092.14l53.43.32h0c1.91-14.46-9.4-26.18-25.26-26.18h-5.07c-12.76,0-23.1,9.91-23.1,22.14Z"/>
          <polygon class="cls-5" points="1070.25 1098 955.5 1098 955.37 1090.79 1070.12 1090.79 1070.25 1098"/>
          <path class="cls-20" d="M1006.23,1063.75l-11.65-13.3-36.56.18a3.83,3.83,0,0,0-3.51,4.07v9Z"/>
          <path class="cls-8" d="M1031.31,1065s-15.46,2.29-17.61,13.75l-9,.35s1.5-13,15.67-14.46Z"/>
          <path class="cls-8" d="M1014.82,1064.12s-15.46,2.29-17.6,13.75l-9,.35s1.5-13,15.67-14.45Z"/>
        </g>
        <path class="cls-2" d="M813.67,533.67l26-108-25.93-9.23a20.38,20.38,0,0,0-4.59-7,11.43,11.43,0,0,0-5.36,3.48l-4.32-1.54s-1.63,7-3.8,17.85c-3.39,11-5.79,26-7.35,43.43-3,22.13-4.87,45.8-2.65,62.69l.36.36c.18,45.91,3.62,95.68,8.75,133.26L818,662.71C810.14,629,823,585,813.67,533.67Z"/>
        <path class="cls-2" d="M820.41,652.46l17.86,24.29a5,5,0,0,1,.23,7h0a4.9,4.9,0,0,1-6.94.37l-7.94-7.35a53.49,53.49,0,0,1-1.44,15.32h0a5.17,5.17,0,0,1-.16,1.34l-8,28.36a4.93,4.93,0,0,1-5.95,3.46,4.77,4.77,0,0,1-3.31-5.94l6.72-23.93-.36,0a4.36,4.36,0,0,1-.17,1l-8,28.37a4.92,4.92,0,0,1-5.95,3.46,4.77,4.77,0,0,1-3.3-5.94l8-28.37,0-.08-.7-.3-6,21.08a4.93,4.93,0,0,1-6,3.45,4.78,4.78,0,0,1-3.29-6l1-3.43a4.72,4.72,0,0,1-6.6-5.62l6-21.37h0l6-27.08C795.07,645.65,815.84,645.9,820.41,652.46Z"/>
        <path class="cls-2" d="M255.57,1065.73l-24.11,2,17.08-226.48,37.81-8.84C276.79,891.89,260.15,1019.21,255.57,1065.73Z"/>
        <path class="cls-22" d="M276.8,964.83c-16.48,7.24-29.86,4.21-44.49-3l16.49-123.3h46.66Z"/>
        <path class="cls-2" d="M354.73,1069.7l-23.68,2L300.61,850.38l35.95-8.63C339.47,899.83,349.56,1024.24,354.73,1069.7Z"/>
        <path class="cls-22" d="M352.56,962.47c-13.5,7.61-27.71,7.89-42.61.95L298.63,839.2l42.61-1Z"/>
        <rect class="cls-23" x="228.71" y="1050.46" width="29.86" height="20.91"/>
        <ellipse class="cls-22" cx="293.38" cy="863.73" rx="44.59" ry="34.1"/>
        <g>
          <path class="cls-24" d="M260.19,1095l-77.5.28h0c-1.36-12.57,6.66-22.75,17.91-22.75h60Z"/>
          <path class="cls-23" d="M218.73,1095l-36,.28h0c-1.29-12.57,6.34-22.75,17-22.75h3.43c8.61,0,15.58,8.61,15.58,19.23Z"/>
          <polygon class="cls-5" points="182.49 1098.97 259.94 1098.97 260.03 1094.1 182.58 1094.1 182.49 1098.97"/>
          <path class="cls-24" d="M220.44,1075.85l9.05-9,28.39.13a2.74,2.74,0,0,1,2.73,2.74v6.11Z"/>
          <path class="cls-8" d="M208.77,1072.57s10.44,2.21,11.89,13.27l6.08.34s-1-12.59-10.58-14Z"/>
          <path class="cls-8" d="M220.37,1072.43s10.43,2.21,11.88,13.26l6.08.35s-1-12.59-10.57-14Z"/>
        </g>
        <rect class="cls-23" x="327.04" y="1050.46" width="29.86" height="20.91" transform="translate(683.93 2121.82) rotate(180)"/>
        <g>
          <path class="cls-24" d="M325.41,1095l77.51.28h0c1.35-12.57-6.67-22.75-17.92-22.75H325Z"/>
          <path class="cls-23" d="M366.87,1095l36.05.28h0c1.29-12.57-6.34-22.75-17-22.75h-3.43c-8.6,0-15.58,8.61-15.58,19.23Z"/>
          <polygon class="cls-5" points="403.11 1098.97 325.66 1098.97 325.57 1094.1 403.02 1094.1 403.11 1098.97"/>
          <path class="cls-24" d="M365.16,1075.85l-9.05-9-28.39.13a2.74,2.74,0,0,0-2.73,2.74v6.11Z"/>
          <path class="cls-8" d="M376.83,1072.57s-10.44,2.21-11.88,13.27l-6.09.34s1-12.59,10.58-14Z"/>
          <path class="cls-8" d="M365.24,1072.43s-10.44,2.21-11.89,13.26l-6.08.35s1-12.59,10.58-14Z"/>
        </g>
        <rect class="cls-25" x="335.52" y="836.94" width="5.37" height="128.58" transform="translate(-104.64 46.54) rotate(-6.82)"/>
        <path class="cls-26" d="M341.5,818.75l3.07,50s-75.2,24.41-100.84-4.72L243,757.14l9.68-30.86,58.51,2.35,30.65-3.92Z"/>
        <path class="cls-27" d="M341.5,818.75l3.07,50s-75.2,24.41-100.84-4.72c63.72,3.54,83.47-63.75,98.07-139.35Z"/>
        <path class="cls-26" d="M311.53,672c-3.37-2.39-12.54-4.64-13.73-4.14-1.16-.56-10.43,1.27-13.91,3.51-21.17,13.59-53.56,21.84-54.08,43.25,0,0,.08,15.36,11,15.61l55.5,1.27,55.5,1.26c11,.26,11.74-15.08,11.74-15.08C364,696.25,332.06,686.53,311.53,672Z"/>
        <path class="cls-25" d="M270.34,679.15s-4.34,24.33,23.09,25.41,31.77-24.48,31.77-24.48L303,666.6l-16.89,1.08Z"/>
        <path class="cls-28" d="M310,682.72c-.29,12.68-27.47,12.06-27.18-.62l1-42.2,27.18.62Z"/>
        <path class="cls-29" d="M283.17,669.32c12.79.62,27.55,5.22,26.87,13.64,0,0,.49-16.63,2.18-22.15A64.08,64.08,0,0,1,283.17,669.32Z"/>
        <g>
          <path class="cls-9" d="M182.85,629.68c.38,8.7-3.52,15.94-8.72,16.17s-9.73-6.64-10.12-15.34,3.52-15.94,8.72-16.17S182.46,621,182.85,629.68Z"/>
          <rect class="cls-9" x="161.87" y="614.64" width="12.06" height="31.47" transform="translate(-27.75 8.05) rotate(-2.54)"/>
          <path class="cls-14" d="M171.54,630.18c.39,8.7-3.52,15.94-8.72,16.17s-9.73-6.64-10.11-15.34,3.51-15.94,8.72-16.17S171.16,621.48,171.54,630.18Z"/>
          <rect class="cls-15" x="102.92" y="625.82" width="61.88" height="13.55" rx="5.71" transform="translate(-27.88 6.55) rotate(-2.54)"/>
          <ellipse class="cls-9" cx="112.05" cy="632.76" rx="9.63" ry="16.1" transform="translate(-27.91 5.58) rotate(-2.54)"/>
          <rect class="cls-9" x="100.24" y="616.97" width="12.31" height="32.14" transform="translate(-27.93 5.33) rotate(-2.54)"/>
          <path class="cls-14" d="M110.12,632.84c.39,8.89-3.59,16.28-8.91,16.52s-9.93-6.78-10.33-15.66,3.6-16.28,8.91-16.52S109.72,624,110.12,632.84Z"/>
          <rect class="cls-15" x="93.25" y="629.88" width="9.15" height="7.61" rx="3.68" transform="translate(-27.97 4.95) rotate(-2.54)"/>
        </g>
        <path class="cls-30" d="M236.74,600.42s2.95,3.73,5.65-7.69C246,577.42,249.07,542,256.72,541c2.12-.27,16.9-2.15,9.31-6.35-12.68-7-24.64,1.63-27.79,15.21C235.58,565.9,233.69,582.69,236.74,600.42Z"/>
        <rect class="cls-29" x="242.44" y="521.27" width="95.86" height="147.66" rx="46.3" transform="translate(105.98 -40.87) rotate(9.84)"/>
        <path class="cls-28" d="M271,666.68h0a44.08,44.08,0,0,1-35.89-50.95l10.18-58.65a44.06,44.06,0,0,1,50.95-35.89h0a44.07,44.07,0,0,1,35.89,50.95L322,630.79A44.06,44.06,0,0,1,271,666.68Z"/>
        <path class="cls-5" d="M252.83,596.18c-.82,4.85,1,9.19,4,9.7s6.16-3,7-7.85-1-9.19-4-9.7S253.65,591.33,252.83,596.18Z"/>
        <path class="cls-5" d="M297,604.57c-.81,4.84,1,9.19,4,9.7s6.15-3,7-7.85-1-9.19-4-9.7S297.84,599.72,297,604.57Z"/>
        <path class="cls-31" d="M246.54,576.13A55,55,0,0,1,268.68,579l1.21-7a44.56,44.56,0,0,0-22.9-2.85Z"/>
        <path class="cls-31" d="M292.81,585.19a59.56,59.56,0,0,1,23.59,4.24l1.67-7.39a48.11,48.11,0,0,0-24.41-4.29Z"/>
        <path class="cls-30" d="M237.21,550.5c24.28-18.54,86.07,3.19,95.28,14.61-2.1,25.38-18.69,53.91-3.58,63.76l14.69-5.09,16-44.09c3.56-9.81,5.3-25.35-12.19-29.07Z"/>
        <ellipse class="cls-29" cx="342.04" cy="621.65" rx="20.07" ry="13.53" transform="translate(-364.84 683.06) rotate(-66.14)"/>
        <polygon class="cls-30" points="326.97 627.38 340.97 600.94 325.94 611.62 326.97 627.38"/>
        <path class="cls-32" d="M334.67,619.05c-1.34,2.89,4.09,4.17,4.08,6.66,0,3.81-4.63,8.35-1.83,9.23,4.64,1.45,11.14-3.31,14.53-10.63s2.38-14.44-2.25-15.89S338.06,611.72,334.67,619.05Z"/>
        <path class="cls-25" d="M288.2,631l-35.54-6.35a2.55,2.55,0,0,0-3,2.69c.44,6.12,3,19,16.91,21.45s20.88-8.61,23.5-14.19A2.56,2.56,0,0,0,288.2,631Z"/>
        <path class="cls-31" d="M238.26,552a25.18,25.18,0,0,0,4.25,4.4c4.22,2.07,8.52,3.92,12.86,5.59,30.37,11.64,62.5,13.84,82.75,13.8,12.47,0,20.43-.9,20.69-.93h0s.86-14.11-3.25-24.55c-16-40.59-63.48-41.49-80.82-35.89-28,9-37.8,6.71-41,4.81-.67.43-1.34.88-2,1.33C229.39,534.15,233,545.19,238.26,552Zm60.66-32.33c11-3.54,41-3,51.1,22.69,2.6,6.6,2.05,15.52,2.05,15.52s-94.23,4.92-115.73-34.5C236.34,523.41,274.73,527.5,298.92,519.7Z"/>
        <path class="cls-33" d="M352.07,557.91s.55-8.92-2.05-15.52c-10.09-25.66-40.14-26.23-51.1-22.69-24.19,7.8-62.58,3.71-62.58,3.71C257.84,562.83,352.07,557.91,352.07,557.91Z"/>
        <path class="cls-34" d="M261.48,613.49s1.26,8.93,8,9.34,10.75-5.91,10.75-5.91a66.76,66.76,0,0,1-10.33-.61A39.79,39.79,0,0,1,261.48,613.49Z"/>
        <g>
          <path class="cls-2" d="M1295.27,780.47h0a6.72,6.72,0,0,0,8.93-3.18l11.14-23.43a6.72,6.72,0,0,0-3.17-8.93h0a6.72,6.72,0,0,0-8.93,3.18l-11.14,23.43A6.72,6.72,0,0,0,1295.27,780.47Z"/>
          <g>
            <rect class="cls-23" x="1309.97" y="690.02" width="14.92" height="124.53" rx="5.84" transform="translate(2453.8 1757.38) rotate(-168.24)"/>
            <path class="cls-9" d="M1308.33,747.35h6.38a4.27,4.27,0,0,1,4.27,4.27v62.32a0,0,0,0,1,0,0h-14.92a0,0,0,0,1,0,0V751.62A4.27,4.27,0,0,1,1308.33,747.35Z" transform="translate(2436.33 1812.29) rotate(-168.24)"/>
            <path class="cls-23" d="M1322.38,705.07l1.89,2a5.27,5.27,0,0,0,7.85.11L1376,658.65a6.42,6.42,0,0,0-.24-8.51l2.55-1.11c-2.23-2.37-24,14.79-26.09,17.1l-30.13,30.42A6.42,6.42,0,0,0,1322.38,705.07Z"/>
            <path class="cls-23" d="M1332.13,707.1l-2.53,1.09a5.28,5.28,0,0,1-7.25-3l-20.89-62a6.43,6.43,0,0,1,3.63-7.71l-1.19,2.09c3-1.28,17.64,20.48,18.64,23.43l13.22,38.46A6.43,6.43,0,0,1,1332.13,707.1Z"/>
            <path class="cls-26" d="M1334.72,664.46h0a1.31,1.31,0,0,0,1.54-1l26-124.77a1.31,1.31,0,0,0-1-1.54h0a1.31,1.31,0,0,0-1.54,1l-26,124.77A1.28,1.28,0,0,0,1334.72,664.46Z"/>
            <rect class="cls-26" x="1348.06" y="553.1" width="2.59" height="95.99" rx="1.11" transform="translate(2212.89 -597.4) rotate(101.76)"/>
            <rect class="cls-26" x="1352.36" y="532.46" width="2.59" height="95.99" rx="1.11" transform="translate(2197.92 -626.4) rotate(101.77)"/>
            <rect class="cls-26" x="1342.7" y="578.81" width="2.59" height="95.99" rx="1.11" transform="translate(2231.62 -561.2) rotate(101.76)"/>
            <rect class="cls-26" x="1357.59" y="518.7" width="2.59" height="80.64" rx="1.02" transform="translate(2183.19 -657.38) rotate(101.76)"/>
            <path class="cls-26" d="M1320.12,661.42h0a1.29,1.29,0,0,0,1.53-1l26-124.78a1.3,1.3,0,0,0-1-1.53h0a1.29,1.29,0,0,0-1.53,1l-26,124.78A1.31,1.31,0,0,0,1320.12,661.42Z"/>
            <rect class="cls-26" x="1315.52" y="543.6" width="2.59" height="105.07" rx="1.17" transform="matrix(-0.98, -0.2, 0.2, -0.98, 2484.38, 1448.32)"/>
            <rect class="cls-26" x="1377.36" y="551.23" width="2.59" height="109.94" rx="1.19" transform="translate(2604.8 1480.7) rotate(-168.24)"/>
            <path class="cls-26" d="M1349,667.44h0a1.3,1.3,0,0,0,1.53-1l26-124.77a1.3,1.3,0,0,0-1-1.53h0a1.28,1.28,0,0,0-1.53,1L1348,665.9A1.31,1.31,0,0,0,1349,667.44Z"/>
            <path class="cls-9" d="M1296.32,591.21c-8.09,38.83,9.09,75.26,38.37,81.36s59.58-20.44,67.67-59.28-9.1-75.27-38.38-81.36S1304.4,552.37,1296.32,591.21Zm8.7-.46c6.81-32.68,32.29-55,56.93-49.88s39.09,35.78,32.29,68.46-32.3,55-56.93,49.87S1298.22,623.42,1305,590.75Z"/>
          </g>
          <path class="cls-2" d="M1321.15,766.2l10.15-4.83a6.94,6.94,0,0,0,3.28-9.22h0a6.94,6.94,0,0,0-9.22-3.28l-10.15,4.83a6.94,6.94,0,0,0-3.28,9.22h0A7,7,0,0,0,1321.15,766.2Z"/>
          <path class="cls-2" d="M1321.5,778l10.15-4.83a6.94,6.94,0,0,0,3.28-9.22h0a6.94,6.94,0,0,0-9.22-3.27l-10.15,4.82a7,7,0,0,0-3.28,9.22h0A6.94,6.94,0,0,0,1321.5,778Z"/>
          <path class="cls-2" d="M1320.3,789.58l10.16-4.83a6.94,6.94,0,0,0,3.27-9.22h0a6.94,6.94,0,0,0-9.22-3.27l-10.15,4.83a6.93,6.93,0,0,0-3.27,9.21h0A6.92,6.92,0,0,0,1320.3,789.58Z"/>
        </g>
        <path class="cls-30" d="M1142,536.38s-7.49,124.73-78.3,128.71l22.45-43.94s-25,37.47-33.6,38.69c9.92-19.26,19.74-38.39,23.13-48.85a218.73,218.73,0,0,0,9.86-39.22C1104.33,545.84,1123.63,528.25,1142,536.38Z"/>
        <path class="cls-30" d="M1155.8,524.81s-5.82-27.81-38.89-13.6c-22.09,9.5-31.52,60.78-31.52,60.78Z"/>
        <path class="cls-26" d="M1137.49,536.81l20.32-11.56a5.74,5.74,0,0,0,2.15-8l-1.21-2a6.15,6.15,0,0,0-8.23-2.06l-20.33,11.56a5.74,5.74,0,0,0-2.14,8l1.2,2A6.16,6.16,0,0,0,1137.49,536.81Z"/>
        <path class="cls-2" d="M1130.85,1075.75l23.93.5,24.16-222-34.68-.69C1142.2,912,1135.3,1030,1130.85,1075.75Z"/>
        <path class="cls-2" d="M1193.59,1074.11l24,.49,9.11-219.16-34.73-.68C1193.84,912.46,1194.94,1029,1193.59,1074.11Z"/>
        <path class="cls-19" d="M1245.48,932c-32.79,7.13-91.18,4.51-124.39-2.59l16.63-130.36a197,197,0,0,0,87.83-.45Z"/>
        <path class="cls-2" d="M1240,704.91s-3.38,77.92,64.56,58.5l-1.07,20.66s-55,17.47-70.73-8.54c-15-24.92-23.24-60.15-23.24-60.15Z"/>
        <path class="cls-2" d="M125.83,649h0a6.06,6.06,0,0,1,3.36-7.85l21.7-8.69a6.06,6.06,0,0,1,7.85,3.36h0a6.06,6.06,0,0,1-3.36,7.85l-21.7,8.69A6.06,6.06,0,0,1,125.83,649Z"/>
        <path class="cls-2" d="M142.24,626.74l4.58-9A6.26,6.26,0,0,1,155.2,615h0a6.25,6.25,0,0,1,2.74,8.38l-4.59,9a6.24,6.24,0,0,1-8.38,2.73h0A6.24,6.24,0,0,1,142.24,626.74Z"/>
        <path class="cls-2" d="M131.61,626.15l4.59-9a6.26,6.26,0,0,1,8.38-2.73h0a6.24,6.24,0,0,1,2.73,8.38l-4.58,9a6.26,6.26,0,0,1-8.38,2.73h0A6.25,6.25,0,0,1,131.61,626.15Z"/>
        <path class="cls-2" d="M121.15,627l4.59-9a6.26,6.26,0,0,1,8.38-2.74h0a6.26,6.26,0,0,1,2.74,8.38l-4.59,9a6.24,6.24,0,0,1-8.38,2.73h0A6.24,6.24,0,0,1,121.15,627Z"/>
        <path class="cls-2" d="M468,632.33s-23.66,153.34-129,99.34l4.67-38s67.33,52.66,100.67-64Z"/>
        <g>
          <ellipse class="cls-9" cx="416.27" cy="630.1" rx="15.77" ry="9.43" transform="translate(-231.64 1018.05) rotate(-87.46)"/>
          <rect class="cls-9" x="415.77" y="614.64" width="12.06" height="31.47" transform="translate(815.27 1278.81) rotate(-177.46)"/>
          <ellipse class="cls-14" cx="427.57" cy="630.6" rx="15.77" ry="9.43" transform="translate(-221.34 1029.83) rotate(-87.46)"/>
          <rect class="cls-15" x="424.9" y="625.82" width="61.88" height="13.55" rx="5.71" transform="translate(883.21 1284.76) rotate(-177.46)"/>
          <ellipse class="cls-9" cx="477.65" cy="632.76" rx="16.1" ry="9.63" transform="translate(-175.64 1081.92) rotate(-87.46)"/>
          <rect class="cls-9" x="477.14" y="616.97" width="12.31" height="32.14" transform="translate(938.09 1286.86) rotate(-177.46)"/>
          <ellipse class="cls-14" cx="489.2" cy="633.27" rx="16.1" ry="9.63" transform="translate(-165.12 1093.94) rotate(-87.46)"/>
          <rect class="cls-15" x="487.29" y="629.88" width="9.15" height="7.61" rx="3.68" transform="translate(955.19 1288.53) rotate(-177.46)"/>
        </g>
        <path class="cls-2" d="M463.87,649h0a6.05,6.05,0,0,0-3.37-7.85l-21.69-8.69a6.06,6.06,0,0,0-7.85,3.36h0a6,6,0,0,0,3.36,7.85L456,652.4A6.06,6.06,0,0,0,463.87,649Z"/>
        <path class="cls-2" d="M447.46,626.74l-4.59-9a6.26,6.26,0,0,0-8.38-2.73h0a6.26,6.26,0,0,0-2.73,8.38l4.59,9a6.24,6.24,0,0,0,8.38,2.73h0A6.26,6.26,0,0,0,447.46,626.74Z"/>
        <path class="cls-2" d="M458.08,626.15l-4.58-9a6.26,6.26,0,0,0-8.38-2.73h0a6.25,6.25,0,0,0-2.74,8.38l4.59,9a6.26,6.26,0,0,0,8.38,2.73h0A6.24,6.24,0,0,0,458.08,626.15Z"/>
        <path class="cls-2" d="M468.54,627l-4.59-9a6.25,6.25,0,0,0-8.38-2.74h0a6.26,6.26,0,0,0-2.73,8.38l4.59,9a6.24,6.24,0,0,0,8.38,2.73h0A6.25,6.25,0,0,0,468.54,627Z"/>
        <g>
          <path class="cls-2" d="M1123.64,854.88l9.92,9.77,8.73,8.28s-2,6-10.26-.25c-5.36-4-10.12-8.36-10.65-5.39C1121,869.33,1114.42,846.91,1123.64,854.88Z"/>
          <path class="cls-2" d="M1119,863.88h-.42a4.14,4.14,0,0,0-4.07,4.19l1.86,32.57c0,2.27.54,4.34,2.82,4.3h.41c2.27,0,2.59-2.12,2.55-4.39l1-32.61A4.15,4.15,0,0,0,1119,863.88Z"/>
          <path class="cls-2" d="M1115,866.69l-.41,0a4.14,4.14,0,0,0-4.49,3.74L1108.54,903c-.2,2.26.1,4.37,2.36,4.57l.41,0c2.27.2,2.79-1.83,3-4.1l4.42-32.32A4.16,4.16,0,0,0,1115,866.69Z"/>
          <path class="cls-2" d="M1111.28,859.38l-.41-.06a4.14,4.14,0,0,0-4.68,3.5l-3.27,32.45c-.33,2.25-.15,4.38,2.1,4.7l.42.06c2.24.32,2.88-1.68,3.2-3.93l6.14-32.05A4.13,4.13,0,0,0,1111.28,859.38Z"/>
          <path class="cls-2" d="M1105.59,851.16l-.41-.06a4.16,4.16,0,0,0-4.68,3.5l-3.28,32.46c-.32,2.25-.14,4.37,2.11,4.7l.41.06c2.25.32,2.89-1.69,3.21-3.94l6.14-32A4.14,4.14,0,0,0,1105.59,851.16Z"/>
          <path class="cls-2" d="M1099.1,868.45l2.63-22.57,7.63-4.71s17,13.43,18.45,18.61-6.59,9.48-5.62,18.48S1099.1,868.45,1099.1,868.45Z"/>
        </g>
        <path class="cls-2" d="M1117.05,703.55c-17,40.94-12.87,116.3-16.13,146.72l20.12.05a399.87,399.87,0,0,1,21.73-131.81Z"/>
        <path class="cls-18" d="M1189.91,663.9c-3.2-2.11-11.7-3.84-12.77-3.32-1.09-.47-9.51,1.65-12.6,3.9-18.83,13.68-48.16,22.81-47.72,43,0,0,.72,14.43,10.77,14.2l9.13,2.9.51,12.08.17,66s68.48,14.84,88.15-4l-4.22-72.43.47-3.64,7.63-3.2c10-.23,10.11-14.69,10.11-14.69C1239.06,684.49,1209.34,676.71,1189.91,663.9Z"/>
        <g>
          <path class="cls-28" d="M1163.66,674.37c.64,13.43,29.43,12.08,28.79-1.35l-2.1-44.71-28.79,1.36Z"/>
          <path class="cls-29" d="M1191.77,659.48c-13.54,1-29.07,6.23-28.14,15.14,0,0-.94-17.61-2.88-23.41A68,68,0,0,0,1191.77,659.48Z"/>
          <rect class="cls-29" x="1137.01" y="520.21" width="90.96" height="140.11" rx="43.93" transform="translate(2454.81 947.9) rotate(169.17)"/>
          <rect class="cls-28" x="1147.01" y="518.73" width="86.41" height="140.11" rx="42.82" transform="translate(2469.86 943.49) rotate(169.17)"/>
          <path class="cls-5" d="M1221.36,590.37c.85,4.59-.78,8.74-3.65,9.27s-5.89-2.75-6.75-7.33.78-8.74,3.65-9.27S1220.5,585.79,1221.36,590.37Z"/>
          <path class="cls-5" d="M1175.61,599.12c.86,4.58-.78,8.73-3.65,9.27s-5.89-2.75-6.74-7.33.78-8.74,3.65-9.27S1174.76,594.54,1175.61,599.12Z"/>
          <path class="cls-30" d="M1226.15,571.5a52.39,52.39,0,0,0-21,3.06l-1.26-6.61a42.26,42.26,0,0,1,21.68-3.08Z"/>
          <path class="cls-30" d="M1180,580.89a56.59,56.59,0,0,0-22.32,4.42l-1.7-7a45.54,45.54,0,0,1,23.08-4.48Z"/>
          <path class="cls-25" d="M1185.14,624.25l33.62-6.61a2.42,2.42,0,0,1,2.89,2.51c-.32,5.8-2.58,18-15.69,20.62s-20-7.83-22.53-13.08A2.42,2.42,0,0,1,1185.14,624.25Z"/>
          <path class="cls-31" d="M1141.3,539.31c-1.77,34.83,67.19-21.42,93.35,43.6,0,0,4.09-85.18-60.23-75C1174.42,507.89,1138.76,513.93,1141.3,539.31Z"/>
          <path class="cls-31" d="M1166.83,539.4s-10,66.45-49.33,72.86c0,0-35.31-69.61,36.77-91.3C1156,520.44,1166.83,539.4,1166.83,539.4Z"/>
          <ellipse class="cls-29" cx="1133.91" cy="616.3" rx="12.84" ry="19.05" transform="translate(-154 533.4) rotate(-24.84)"/>
          <path class="cls-35" d="M1140.86,613.7c1.32,2.73-3.81,4-3.76,6.39.08,3.62,4.53,7.85,1.88,8.72-4.37,1.46-10.62-2.95-14-9.84s-2.5-13.66,1.88-15.11S1137.53,606.81,1140.86,613.7Z"/>
          <path class="cls-34" d="M1208.9,606.46s-1.71,9-8.38,9.36-9.91-6-9.91-6a23.08,23.08,0,0,0,8.58.56C1203.21,609.69,1208.9,606.46,1208.9,606.46Z"/>
        </g>
        <rect class="cls-13" x="1097.26" y="363.29" width="16.77" height="35.43" rx="7.85" transform="translate(2269.87 491.36) rotate(166.4)"/>
        <ellipse class="cls-9" cx="1153.74" cy="401.31" rx="21.53" ry="36.01"/>
        <rect class="cls-9" x="1127.33" y="365.44" width="27.54" height="71.87"/>
        <ellipse class="cls-14" cx="1127.9" cy="401.31" rx="21.53" ry="36.01"/>
        <rect class="cls-15" x="1052.03" y="394" width="85.2" height="16.67" rx="7.43"/>
        <polygon class="cls-2" points="1122.92 394.77 1080.65 393.96 1065.95 436.03 1055.89 457.57 1075.21 464.01 1126.74 416.31 1122.92 394.77"/>
        <path class="cls-2" d="M1117.52,405.14h0a7.37,7.37,0,0,0,5.42-8.87l-4.88-20.15a7.36,7.36,0,0,0-8.87-5.41h0a7.36,7.36,0,0,0-5.41,8.87l4.87,20.15A7.37,7.37,0,0,0,1117.52,405.14Z"/>
        <path class="cls-2" d="M1103,407.15h0a7.36,7.36,0,0,0,5.41-8.87l-4.87-20.15a7.37,7.37,0,0,0-8.87-5.41h0a7.37,7.37,0,0,0-5.42,8.87l4.88,20.15A7.36,7.36,0,0,0,1103,407.15Z"/>
        <path class="cls-2" d="M1089.75,410.37h0a7.37,7.37,0,0,0,5.41-8.87l-4.88-20.15a7.37,7.37,0,0,0-8.87-5.41h0a7.36,7.36,0,0,0-5.41,8.87l4.88,20.15A7.36,7.36,0,0,0,1089.75,410.37Z"/>
        <ellipse class="cls-9" cx="1061.33" cy="401.31" rx="21.53" ry="36.01"/>
        <rect class="cls-9" x="1034.91" y="365.44" width="27.54" height="71.87"/>
        <ellipse class="cls-14" cx="1035.49" cy="401.31" rx="21.53" ry="36.01"/>
        <rect class="cls-15" x="1019.24" y="393.46" width="20.47" height="17.03" rx="8.24"/>
        <path class="cls-3" d="M947.53,336.56h0c3.38-.34,5.93-2.78,5.65-5.41.91-30.83-1.91-61-9.34-90.51-.27-2.63-3.26-4.49-6.64-4.14h0c-3.38.35-5.92,2.78-5.65,5.41,6.76,32,10.28,62.41,9.34,90.51C941.17,335.05,944.15,336.91,947.53,336.56Z"/>
        <path class="cls-2" d="M884.68,322.72h2.72a17.92,17.92,0,0,1,17.92,17.92V390a0,0,0,0,1,0,0H866.75a0,0,0,0,1,0,0V340.64A17.92,17.92,0,0,1,884.68,322.72Z" transform="translate(1783.01 684.24) rotate(178.17)"/>
        <path class="cls-36" d="M911.8,342.76s7.29-50.16,2.62-64.64l-7.3-59.37c-4.67-14.48-16.48-27.32-30.24-25.32l-33.73,4.9c-13.75,2-24,19-19.35,33.49L854.25,316C858.92,330.46,876.41,347.58,911.8,342.76Z"/>
        <path class="cls-28" d="M912.26,342.73l.91-.05c19.86-2.88,36.8-22.06,33.91-41.92L937,231.1a32.61,32.61,0,0,0-36.86-27.51L855.7,210c-5.08.74-14.85,6.44-14.11,11.52l16.2,77.49C861.77,326.39,884.92,346.71,912.26,342.73Z"/>
        <ellipse class="cls-5" cx="925" cy="264.91" rx="5.92" ry="9.46" transform="translate(-34.5 193.02) rotate(-11.7)"/>
        <path class="cls-5" d="M885,272.31c1.31,5.06-.19,9.83-3.35,10.65s-6.8-2.61-8.11-7.66.19-9.83,3.35-10.65S883.7,267.26,885,272.31Z"/>
        <path class="cls-37" d="M935.62,245.85a52.16,52.16,0,0,0-20.87,3.47l-1.38-6.57a42.1,42.1,0,0,1,21.57-3.51Z"/>
        <path class="cls-37" d="M889.49,255.5a56.49,56.49,0,0,0-22.19,4.85l-1.84-6.93a45.58,45.58,0,0,1,22.95-4.93Z"/>
        <path class="cls-34" d="M920.76,284.33s-.54,8.66-7,9.56S903,289,903,289a63.9,63.9,0,0,0,9.87-1.36A38,38,0,0,0,920.76,284.33Z"/>
        <path class="cls-36" d="M907.42,343.32c-18.89.35-41.25,6-40.4,20.85,0,0-2.11-32.05-4.52-41.82C862.5,322.35,886.93,347.57,907.42,343.32Z"/>
        <g>
          <path class="cls-38" d="M912.63,303.13l-17.56,6.18,3,5.49s16.67,9,16.44,8.72,9.87-6,9.87-6,5.36-11.76,5.4-12.22a37.34,37.34,0,0,0-.69-3.79Z"/>
          <path class="cls-25" d="M911.54,305.76l-16.11,2.72,0,2s2.29,1.6,13.16,1.77c14.24.23,21-5.29,21.06-9.81,0,0-9.78,0-10,.06S911.54,305.76,911.54,305.76Z"/>
          <path class="cls-39" d="M896.05,308.47s4.84-7.15,19.33-6.83c0,0,2.72-4.23,14.25.76,0,0-9.06,2.91-12.61,3.77C910.8,307.67,896.05,308.47,896.05,308.47Z"/>
          <path class="cls-39" d="M895.19,310s8.19,19.89,22.71,15.76c11.47-3.25,12-20.77,12-20.77C921.6,332.76,896.71,313.51,895.19,310Z"/>
          <path class="cls-39" d="M929.56,306a10.06,10.06,0,0,0,2.32-3.75,2.07,2.07,0,0,0-1.54-2.53,2.34,2.34,0,0,0-2.74,1.54c-.06.27-.13.53-.2.79-.11.49,0-.18-.12.3l-.12.19.16-.2a1.37,1.37,0,0,1-.2.22c-.79.88,2.35,3.74,3.14,2.86Z"/>
          <path class="cls-39" d="M895.61,307.82a10.14,10.14,0,0,1-1.19-.39,7.46,7.46,0,0,1-1.57-1.09,2.38,2.38,0,0,0-3.13.52,2,2,0,0,0,.44,2.89,10.11,10.11,0,0,0,4.93,2.22,2.33,2.33,0,0,0,2.49-1.91,2.09,2.09,0,0,0-2-2.24Z"/>
        </g>
        <path class="cls-3" d="M886.64,201.72s-13.3,31.57-27.33,56.74c-13.38,24-8.2,39.54-6,56,0,0-83.47-107.31,9-124Z"/>
        <path class="cls-36" d="M831.37,299.49c6,8.83,15.38,12.9,21,9.09a7.45,7.45,0,0,0,1.49-1.31c4-4.5,3.25-13.62-2.13-21.58-6-8.83-15.39-12.9-21-9.09S825.39,290.65,831.37,299.49Z"/>
        <path class="cls-35" d="M847.3,289.4c1.22,2.54-3.56,3.74-3.52,6,.07,3.36,4.21,7.31,1.75,8.13-4.07,1.35-9.89-2.77-13-9.19s-2.32-12.73,1.76-14.08S844.19,283,847.3,289.4Z"/>
        <path class="cls-3" d="M883.75,208.5S927.42,221.41,945,246c0,0-3.59-85.15-82.57-55.66Z"/>
        <path class="cls-3" d="M857.85,343.79h0a6.2,6.2,0,0,0,5.25-7c-1.49-39.47-6.66-78.12-16.4-115.75a6.19,6.19,0,0,0-7-5.25h0a6.19,6.19,0,0,0-5.25,7c9.26,40.94,15.15,79.79,16.39,115.75A6.2,6.2,0,0,0,857.85,343.79Z"/>
        <path class="cls-40" d="M632.85,340.83c-.75,28.12-48.84,30.46-48.09,2.34L588.55,287l44.92-3.27C630.12,308.07,629.36,328.65,632.85,340.83Z"/>
        <path class="cls-37" d="M543.12,255.42s2.92,3.88,6.36-8.15c4.61-16.14,9.68-53.43,17.8-54.55,2.26-.31,17.93-2.46,10.14-6.78-13-7.22-31.8,11.29-32.55,16.16C541.23,219,540.84,236.82,543.12,255.42Z"/>
        <path class="cls-36" d="M581.18,325.51s-10.59-51.55-6.64-66.83l4-62c4-15.28,15.42-29.31,29.79-28.07l35.27,3c14.37,1.24,26,18.25,22.09,33.54L639.2,294.26C635.24,309.55,618.15,328.35,581.18,325.51Z"/>
        <path class="cls-28" d="M580.7,325.51h-.94c-20.76-1.79-39.48-20.63-37.69-41.39l8.33-96.81a9.72,9.72,0,0,1,10.48-8.82l70.39,6.06c5.31.46,15.78,5.78,15.32,11.08L634.5,276.92C632,305.5,609.28,328,580.7,325.51Z"/>
        <path class="cls-5" d="M556.69,244.73c-.79,5.37,1.3,10.12,4.66,10.61s6.72-3.46,7.5-8.82-1.29-10.12-4.65-10.61S557.48,239.37,556.69,244.73Z"/>
        <path class="cls-5" d="M604.67,250.87c-1,5.32.79,10.17,4.12,10.83s6.88-3.12,7.94-8.44-.79-10.16-4.12-10.82S605.73,245.55,604.67,250.87Z"/>
        <path class="cls-37" d="M544.73,201.89c25.22-19.71,87.57,3.3,97.35,15.16-1.9,26.61-16,51-.06,61.12l15-.76L673.24,231a37.22,37.22,0,0,0-3-31.11l-5.69-9.74s-.11-1.08-.14-1.74c-.74-16.53-19.43-29-39-33.79C542.74,134.29,544.73,201.89,544.73,201.89Z"/>
        <path class="cls-37" d="M550.62,226.51a54.16,54.16,0,0,1,21.83,2.33l1-6.89a43.73,43.73,0,0,0-22.58-2.32Z"/>
        <path class="cls-37" d="M599,233.72a58.49,58.49,0,0,1,23.29,3.68l1.48-7.3a47.17,47.17,0,0,0-24.08-3.71Z"/>
        <path class="cls-25" d="M596.84,285l-35.74-5.87a2.56,2.56,0,0,0-3,2.74c.53,6.13,3.32,19,17.26,21.28s20.82-8.94,23.37-14.57A2.56,2.56,0,0,0,596.84,285Z"/>
        <path class="cls-37" d="M546.56,192c-7.72-2.63-10.42-13.26-4.68-18.79,14.11-13.55,42.56-31,88.86-18C698.67,174.33,673.6,235.14,546.56,192Z"/>
        <path class="cls-34" d="M568.35,265.49s1.08,8.95,7.86,9.49,10.85-5.7,10.85-5.7a66.54,66.54,0,0,1-10.31-.81A39.42,39.42,0,0,1,568.35,265.49Z"/>
        <path class="cls-36" d="M585.76,325.82c19.59-.79,46.43,4.83,46.45,20.23,0,0-2.68-28.76-.79-39C631.42,307,607.25,329,585.76,325.82Z"/>
        <path class="cls-36" d="M661.92,275.78c-5.66,9.51-15.16,14.3-21.22,10.7a8.4,8.4,0,0,1-1.63-1.27c-4.43-4.43-4.19-13.92.91-22.49,5.66-9.52,15.16-14.31,21.22-10.71S667.58,266.26,661.92,275.78Z"/>
        <path class="cls-35" d="M644.8,266.28c-1.12,2.72,3.91,3.67,4,6,.13,3.49-3.92,7.83-1.32,8.53,4.3,1.15,10.08-3.46,12.91-10.31S662,257.13,657.71,256,647.62,259.44,644.8,266.28Z"/>
        <path class="cls-37" d="M638.61,275.87l24.91-56.15L642.65,185l-9.22,89.53A2.71,2.71,0,0,0,638.61,275.87Z"/>
        <polygon class="cls-19" points="1192.4 1080.02 1219.85 1083.92 1219.85 1047.6 1193.48 1047.6 1192.4 1080.02"/>
        <polygon class="cls-19" points="1129.4 1080.02 1156.85 1083.92 1156.85 1047.6 1130.48 1047.6 1129.4 1080.02"/>
        <g>
          <path class="cls-18" d="M1191.69,1094.54l84,.3h0c1.47-13.62-7.22-24.67-19.42-24.67h-65.06Z"/>
          <path class="cls-8" d="M1236.64,1094.54l39.09.3h0c1.4-13.62-6.87-24.67-18.48-24.67h-3.71c-9.34,0-16.9,9.34-16.9,20.86Z"/>
          <polygon class="cls-5" points="1275.93 1098.89 1191.96 1098.89 1191.86 1093.61 1275.84 1093.61 1275.93 1098.89"/>
          <path class="cls-18" d="M1234.79,1073.83l-9.82-9.74-30.78.14a3,3,0,0,0-3,3v6.63Z"/>
          <path class="cls-25" d="M1247.44,1070.27s-11.32,2.4-12.89,14.39l-6.59.37s1.09-13.65,11.46-15.12Z"/>
          <path class="cls-25" d="M1234.87,1070.12s-11.31,2.39-12.89,14.38l-6.59.37s1.1-13.65,11.47-15.12Z"/>
        </g>
        <path class="cls-18" d="M1119.62,697s-13.41,14.92-20.63,67.19l35.76,7.36,6.85-41.5,2.66-25.25Z"/>
        <polygon class="cls-41" points="1099.49 752.65 1135.65 761.07 1135.22 764.76 1099.3 756.59 1099.49 752.65"/>
        <path class="cls-18" d="M1230,687.4s15.28,13,29.41,63.84l-34.46,12.06-12.33-40.21-6-24.68Z"/>
        <polygon class="cls-41" points="1257.34 739.87 1222.62 753.03 1223.54 756.63 1258.06 743.75 1257.34 739.87"/>
        <path class="cls-26" d="M257,686l-58.34,9L205,756c19.35.22,25.61,2,44.5-4Z"/>
        <path class="cls-26" d="M329.16,684l58.34,9-6.34,61c-19.35.22-25.61,2-44.5-4Z"/>
        <polygon class="cls-5" points="1165.91 1099.29 1119.85 1099.29 1119.88 1094.15 1165.95 1094.15 1165.91 1099.29"/>
        <path class="cls-18" d="M1124,1082.06c-.16.39,2.63-17.59,2.63-17.59l31.29-.86.73,18.35-6-7.75-18.4,2.38Z"/>
        <path class="cls-18" d="M1165.93,1094.66h-46.06l0-8.85c0-7.9,5.55-14.31,12.34-14.31h21.48c6.79,0,12.27,6.41,12.25,14.31Z"/>
        <path class="cls-8" d="M1165.93,1094.66h-46.06l0-6.38c0-5.69,5.43-10.3,12.22-10.3h21.48c6.79,0,12.32,4.61,12.36,10.3Z"/>
        <polygon class="cls-25" points="1133.87 1076.44 1152.91 1076.44 1153.06 1071.82 1134.02 1071.82 1133.87 1076.44"/>
      </g>
    </g>
  </g>
</svg>
