<svg id="_Layer_" data-name="&lt;Layer&gt;" xmlns="http://www.w3.org/2000/svg" width="3052.67" height="1529.67" viewBox="0 0 3052.67 1529.67">
  <defs>
    <style>
      .cls-1 {
        fill: #ede7df;
      }

      .cls-2 {
        fill: #f8fbff;
      }

      .cls-3 {
        fill: #c4d9ed;
      }

      .cls-4 {
        fill: #d5e7f7;
      }

      .cls-5 {
        fill: #dceaf9;
      }

      .cls-6 {
        opacity: 0.8;
      }

      .cls-7 {
        fill: #adc9e0;
      }

      .cls-8 {
        fill: #b9e0ad;
      }

      .cls-9 {
        fill: #acd29a;
      }

      .cls-10 {
        fill: #82b378;
      }

      .cls-11 {
        fill: #8ebf82;
      }

      .cls-12 {
        fill: #2e3552;
      }

      .cls-13 {
        fill: #eaad75;
      }

      .cls-14 {
        fill: #1b74a5;
      }

      .cls-15 {
        fill: #f9c38a;
      }

      .cls-16 {
        fill: #e8e8e8;
      }

      .cls-17 {
        fill: #a12b27;
      }

      .cls-18 {
        fill: #e28305;
      }

      .cls-19 {
        fill: #7a180f;
      }

      .cls-20 {
        fill: #262626;
      }

      .cls-21 {
        fill: #444;
      }

      .cls-22 {
        fill: #ffa21a;
      }

      .cls-23 {
        fill: #fff;
      }

      .cls-24 {
        fill: #318cc9;
      }

      .cls-25 {
        fill: #d8d8d8;
      }

      .cls-26 {
        fill: #0092ff;
      }
    </style>
  </defs>
  <path class="cls-1" d="M2868.46,1389.53h0c-.09.49-.18,1-.29,1.45l-43.05-.13-667.4-2-440.39-1.35-13.41,0-31-.09L1270,1386.08l-640.38-2-117.94-.36-31.34-.1-11,0h-5.35l-122.33-.38h0l-34.09-.09h-3.71l-19.93-.06h0l-13.64,0-6,0-.76-1.27-.6-1c-.34-.57-.73-1.26-1.17-2-.15-.27-.32-.55-.49-.86-.6-1.06-1.27-2.26-2-3.64q-1.38-2.51-3.08-5.69h0c-4.21-7.9-9.81-18.87-16.16-32.48-2.09-4.47-4.25-9.24-6.48-14.27-.89-2-1.78-4-2.69-6.14h0q-1.32-3-2.63-6.19l-.09-.21q-.92-2.16-1.84-4.4t-1.92-4.63c-3.28-8.06-6.64-16.62-10-25.65-.08-.23-.17-.48-.26-.71h0q-3.28-8.87-6.52-18.29c-1.19-3.46-2.36-7-3.53-10.53-.07-.21-.15-.42-.22-.66-.52-1.58-1-3.16-1.54-4.76-.43-1.35-.86-2.7-1.28-4q-1.32-4.2-2.63-8.47c-1.11-3.66-2.21-7.38-3.29-11.13q-2.2-7.66-4.3-15.58-.63-2.38-1.25-4.77-1.84-7.15-3.61-14.49c-.38-1.57-.75-3.15-1.11-4.73-.24-1-.46-2-.69-2.93q-2.64-11.61-5-23.66-2.6-13.26-4.75-27-2-12.69-3.53-25.78-1.47-12.33-2.48-25c-1.6-19.71-2.33-40-2-60.55A562.71,562.71,0,0,1,178.79,901c.29-1.37.59-2.73.89-4.09q3-13.39,6.75-26.81,2.85-10.23,6.18-20.49,2.41-7.43,5.07-14.86,6-16.85,13.42-33.67,2-4.65,4.2-9.31c26.81-57.84,66.32-115.13,122.55-169.32l3.16-3a865.74,865.74,0,0,1,82.68-70c1-.75,2-1.48,3-2.21,298.62-218.94,551-70.37,685-78.6,26.35-1.61,49.5-12.08,72.25-28.66,41.69-30.38,82-81.32,138.3-136,84.37-82,204.52-172.31,418.65-214.53,265-52.26,629-37.6,786.46,119.43,95.26,95,114.94,242.09-8.59,458q-11.25,19.68-24.13,40.16-10.83,17.19-18.91,32.84c-13.59,26.23-21.63,49.37-25,70-8.15,49.54,10.57,84.63,44.12,113.47A271.21,271.21,0,0,0,2525,945.52l2.11,1.34c39.2,24.78,88.74,46,138.13,71,27.26,13.78,54.49,28.66,79.91,45.88,23.6,16,45.64,34,64.71,54.94a259.06,259.06,0,0,1,33.17,45.14c.55.93,1.08,1.85,1.59,2.78a251.71,251.71,0,0,1,27.24,74.52c.28,1.41.55,2.84.81,4.27C2880.13,1286,2879.61,1333.4,2868.46,1389.53Z"/>
  <path class="cls-2" d="M2518.74,666.84,604.82,997.69l64.53-121.15,1858-667.71C2622.58,303.83,2642.26,450.93,2518.74,666.84Z"/>
  <path class="cls-2" d="M1959.64,184,1183.91,439.92c41.69-30.39,82-81.32,138.3-136Z"/>
  <path class="cls-2" d="M1935.7,269.37a34.11,34.11,0,1,0,34.11,34.11A34.11,34.11,0,0,0,1935.7,269.37Z"/>
  <g>
    <g>
      <rect class="cls-3" x="1328.28" y="396.03" width="177.12" height="861.31"/>
      <rect class="cls-4" x="1368.06" y="396.03" width="177.12" height="861.31"/>
      <rect class="cls-3" x="1368.11" y="395.81" width="177.07" height="49.77" transform="translate(2913.29 841.38) rotate(180)"/>
      <rect class="cls-3" x="1368.11" y="503.75" width="177.07" height="49.77" transform="translate(2913.29 1057.27) rotate(180)"/>
      <rect class="cls-3" x="1368.11" y="611.7" width="177.07" height="49.77" transform="translate(2913.29 1273.17) rotate(180)"/>
      <rect class="cls-3" x="1368.11" y="719.64" width="177.07" height="49.77"/>
      <rect class="cls-3" x="1368.11" y="827.59" width="177.07" height="49.77"/>
      <rect class="cls-3" x="1368.11" y="935.54" width="177.07" height="49.77"/>
      <rect class="cls-3" x="1368.11" y="1043.48" width="177.07" height="49.77"/>
      <rect class="cls-3" x="1368.11" y="1151.43" width="177.07" height="49.77" transform="translate(2913.29 2352.63) rotate(180)"/>
    </g>
    <g>
      <rect class="cls-3" x="1611.42" y="517.91" width="177.12" height="739.43"/>
      <rect class="cls-4" x="1651.2" y="517.91" width="177.12" height="739.43"/>
      <rect class="cls-3" x="1651.25" y="517.71" width="177.07" height="42.73"/>
      <rect class="cls-3" x="1651.25" y="610.39" width="177.07" height="42.73"/>
      <rect class="cls-3" x="1651.25" y="703.06" width="177.07" height="42.73"/>
      <rect class="cls-3" x="1651.25" y="795.73" width="177.07" height="42.73"/>
      <rect class="cls-3" x="1651.25" y="888.4" width="177.07" height="42.73"/>
      <rect class="cls-3" x="1651.25" y="981.07" width="177.07" height="42.73"/>
      <rect class="cls-3" x="1651.25" y="1073.74" width="177.07" height="42.73"/>
      <rect class="cls-3" x="1651.25" y="1166.42" width="177.07" height="42.73" transform="translate(3479.56 2375.56) rotate(180)"/>
    </g>
    <rect class="cls-5" x="1232.42" y="1230.92" width="74.17" height="108.15" transform="translate(2539.01 2570) rotate(180)"/>
    <path class="cls-4" d="M1255.07,1083.38v300.27H469.42l-5.35-.05-200.51-1.88-.6-1c-.34-.57-.73-1.26-1.17-2-.15-.27-.32-.55-.49-.86-.6-1.06-1.27-2.26-2-3.64q-1.38-2.51-3.08-5.69h0c-4.21-7.9-9.81-18.87-16.16-32.48-2.09-4.47-4.25-9.24-6.48-14.27-.89-2-1.78-4-2.69-6.14h0q-1.32-3-2.63-6.19l-.09-.21q-.92-2.16-1.84-4.4t-1.92-4.63c-3.28-8.06-6.64-16.62-10-25.65-.08-.23-.17-.48-.26-.71h0q-3.28-8.87-6.52-18.29c-1.19-3.46-2.36-7-3.53-10.53-.07-.21-.15-.42-.22-.66-.52-1.58-1-3.16-1.54-4.76-.43-1.35-.86-2.7-1.28-4q-1.32-4.2-2.63-8.47c-1.11-3.66-2.21-7.38-3.29-11.13q-2.2-7.66-4.3-15.58-.63-2.38-1.25-4.77-1.84-7.15-3.61-14.49c-.38-1.57-.75-3.15-1.11-4.73-.24-1-.46-2-.69-2.93q-2.64-11.61-5-23.66-2.6-13.26-4.75-27-2-12.69-3.53-25.78-1.47-12.33-2.48-25c-1.6-19.71-2.33-40-2-60.55A562.71,562.71,0,0,1,178.79,901c.29-1.37.59-2.73.89-4.09q3-13.39,6.75-26.81,2.85-10.23,6.18-20.49,2.41-7.43,5.07-14.86,6-16.85,13.42-33.67l4.2-9.31c26.81-57.84,66.32-115.13,122.55-169.32l3.16-3h3.29V734.24H446V547.08H558.12v121.5h25.57V523.53H695.86v272H837.72V954.07h53V994h121.76v-68.8h69.9V738.29h86.34v345.09Z"/>
    <rect class="cls-3" x="583.69" y="541.89" width="112.23" height="27.71" transform="translate(1279.62 1111.48) rotate(180)"/>
    <rect class="cls-3" x="583.69" y="593.94" width="112.23" height="27.71" transform="translate(1279.62 1215.59) rotate(180)"/>
    <rect class="cls-3" x="583.69" y="640.77" width="112.23" height="27.71" transform="translate(1279.62 1309.26) rotate(180)"/>
    <rect class="cls-3" x="445.98" y="640.77" width="112.23" height="27.71" transform="translate(1004.19 1309.26) rotate(180)"/>
    <rect class="cls-3" x="445.98" y="593.94" width="112.23" height="27.71" transform="translate(1004.19 1215.59) rotate(180)"/>
    <rect class="cls-3" x="445.98" y="547.18" width="112.23" height="27.71" transform="translate(1004.19 1122.07) rotate(180)"/>
    <rect class="cls-3" x="445.95" y="686.18" width="249.97" height="27.71" transform="translate(1141.87 1400.08) rotate(180)"/>
    <rect class="cls-3" x="445.95" y="731.59" width="249.97" height="27.71" transform="translate(1141.87 1490.9) rotate(180)"/>
    <rect class="cls-3" x="1081.58" y="738.31" width="87.11" height="42.77" transform="translate(2250.26 1519.39) rotate(180)"/>
    <rect class="cls-3" x="1081.58" y="801.92" width="87.11" height="42.77" transform="translate(2250.26 1646.6) rotate(180)"/>
    <rect class="cls-3" x="1081.58" y="865.53" width="87.11" height="42.77" transform="translate(2250.26 1773.82) rotate(180)"/>
    <rect class="cls-3" x="1081.58" y="932.2" width="87.11" height="42.77" transform="translate(2250.26 1907.18) rotate(180)"/>
    <rect class="cls-3" x="1081.58" y="996.82" width="87.11" height="42.77" transform="translate(2250.26 2036.4) rotate(180)"/>
    <rect class="cls-3" x="1081.58" y="1061.43" width="87.11" height="42.77" transform="translate(2250.26 2165.63) rotate(180)"/>
    <rect class="cls-3" x="1081.58" y="1129.02" width="87.11" height="42.77" transform="translate(2250.26 2300.82) rotate(180)"/>
    <rect class="cls-3" x="445.95" y="775.97" width="249.97" height="17.59" transform="translate(1141.87 1569.54) rotate(180)"/>
    <rect class="cls-3" x="1050.67" y="738.31" width="32.12" height="186.92"/>
    <rect class="cls-3" x="947.87" y="925.23" width="64.6" height="68.79"/>
    <path class="cls-3" d="M446,547.18v27.71l0,111.29v48.06H423.69V549.39c1-.75,2-1.48,3-2.21Z"/>
    <rect class="cls-3" x="570.01" y="523.53" width="13.69" height="144.96"/>
    <g class="cls-6">
      <g>
        <g>
          <g>
            <rect class="cls-3" x="795.53" y="822.77" width="19.01" height="26.8" transform="translate(1610.07 1672.34) rotate(180)"/>
            <rect class="cls-3" x="759.97" y="822.77" width="19.01" height="26.8" transform="translate(1538.95 1672.34) rotate(180)"/>
            <rect class="cls-3" x="725.2" y="822.77" width="19.01" height="26.8" transform="translate(1469.42 1672.34) rotate(180)"/>
            <rect class="cls-3" x="692.24" y="822.77" width="19.02" height="26.8" transform="translate(1403.5 1672.34) rotate(180)"/>
            <rect class="cls-3" x="658.65" y="822.77" width="19.02" height="26.8" transform="translate(1336.32 1672.34) rotate(180)"/>
          </g>
          <g>
            <rect class="cls-3" x="624.67" y="822.77" width="19.02" height="26.8" transform="translate(1268.36 1672.34) rotate(180)"/>
            <rect class="cls-3" x="589.12" y="822.77" width="19.01" height="26.8" transform="translate(1197.25 1672.34) rotate(180)"/>
            <rect class="cls-3" x="554.35" y="822.77" width="19.02" height="26.8" transform="translate(1127.72 1672.34) rotate(180)"/>
            <rect class="cls-3" x="521.39" y="822.77" width="19.01" height="26.8" transform="translate(1061.8 1672.34) rotate(180)"/>
            <rect class="cls-3" x="487.8" y="822.77" width="19.01" height="26.8" transform="translate(994.62 1672.34) rotate(180)"/>
          </g>
        </g>
        <g>
          <g>
            <rect class="cls-3" x="452.8" y="822.77" width="19.01" height="26.8" transform="translate(924.61 1672.34) rotate(180)"/>
            <rect class="cls-3" x="417.24" y="822.77" width="19.01" height="26.8" transform="translate(853.49 1672.34) rotate(180)"/>
            <rect class="cls-3" x="382.47" y="822.77" width="19.02" height="26.8" transform="translate(783.96 1672.34) rotate(180)"/>
            <rect class="cls-3" x="349.51" y="822.77" width="19.01" height="26.8" transform="translate(718.04 1672.34) rotate(180)"/>
            <rect class="cls-3" x="315.92" y="822.77" width="19.02" height="26.8" transform="translate(650.86 1672.34) rotate(180)"/>
          </g>
          <g>
            <rect class="cls-3" x="281.94" y="822.77" width="19.01" height="26.8" transform="translate(582.9 1672.34) rotate(180)"/>
            <rect class="cls-3" x="246.39" y="822.77" width="19.01" height="26.8" transform="translate(511.79 1672.34) rotate(180)"/>
            <rect class="cls-3" x="211.62" y="822.77" width="19.01" height="26.8" transform="translate(442.26 1672.34) rotate(180)"/>
            <path class="cls-3" d="M197.68,834.71v14.86h-5.07Q195,842.15,197.68,834.71Z"/>
          </g>
        </g>
      </g>
      <g>
        <g>
          <g>
            <rect class="cls-3" x="795.53" y="870.07" width="19.01" height="26.8" transform="translate(1610.07 1766.93) rotate(180)"/>
            <rect class="cls-3" x="759.97" y="870.07" width="19.01" height="26.8" transform="translate(1538.95 1766.93) rotate(180)"/>
            <rect class="cls-3" x="725.2" y="870.07" width="19.01" height="26.8" transform="translate(1469.42 1766.93) rotate(180)"/>
            <rect class="cls-3" x="692.24" y="870.07" width="19.02" height="26.8" transform="translate(1403.5 1766.93) rotate(180)"/>
            <rect class="cls-3" x="658.65" y="870.07" width="19.02" height="26.8" transform="translate(1336.32 1766.93) rotate(180)"/>
          </g>
          <g>
            <rect class="cls-3" x="624.67" y="870.07" width="19.02" height="26.8" transform="translate(1268.36 1766.93) rotate(180)"/>
            <rect class="cls-3" x="589.12" y="870.07" width="19.01" height="26.8" transform="translate(1197.25 1766.93) rotate(180)"/>
            <rect class="cls-3" x="554.35" y="870.07" width="19.02" height="26.8" transform="translate(1127.72 1766.93) rotate(180)"/>
            <rect class="cls-3" x="521.39" y="870.07" width="19.01" height="26.8" transform="translate(1061.8 1766.93) rotate(180)"/>
            <rect class="cls-3" x="487.8" y="870.07" width="19.01" height="26.8" transform="translate(994.62 1766.93) rotate(180)"/>
          </g>
        </g>
        <g>
          <g>
            <rect class="cls-3" x="452.8" y="870.07" width="19.01" height="26.8" transform="translate(924.61 1766.93) rotate(180)"/>
            <rect class="cls-3" x="417.24" y="870.07" width="19.01" height="26.8" transform="translate(853.49 1766.93) rotate(180)"/>
            <rect class="cls-3" x="382.47" y="870.07" width="19.02" height="26.8" transform="translate(783.96 1766.93) rotate(180)"/>
            <rect class="cls-3" x="349.51" y="870.07" width="19.01" height="26.8" transform="translate(718.04 1766.93) rotate(180)"/>
            <rect class="cls-3" x="315.92" y="870.07" width="19.02" height="26.8" transform="translate(650.86 1766.93) rotate(180)"/>
          </g>
          <g>
            <rect class="cls-3" x="281.94" y="870.07" width="19.01" height="26.8" transform="translate(582.9 1766.93) rotate(180)"/>
            <rect class="cls-3" x="246.39" y="870.07" width="19.01" height="26.8" transform="translate(511.79 1766.93) rotate(180)"/>
            <rect class="cls-3" x="211.62" y="870.07" width="19.01" height="26.8" transform="translate(442.26 1766.93) rotate(180)"/>
            <path class="cls-3" d="M197.68,870.06v26.81h-18q3-13.39,6.75-26.81Z"/>
          </g>
        </g>
      </g>
      <g>
        <g>
          <g>
            <rect class="cls-3" x="795.53" y="916.64" width="19.01" height="26.8" transform="translate(1610.07 1860.08) rotate(180)"/>
            <rect class="cls-3" x="759.97" y="916.64" width="19.01" height="26.8" transform="translate(1538.95 1860.08) rotate(180)"/>
            <rect class="cls-3" x="725.2" y="916.64" width="19.01" height="26.8" transform="translate(1469.42 1860.08) rotate(180)"/>
            <rect class="cls-3" x="692.24" y="916.64" width="19.02" height="26.8" transform="translate(1403.5 1860.08) rotate(180)"/>
            <rect class="cls-3" x="658.65" y="916.64" width="19.02" height="26.8" transform="translate(1336.32 1860.08) rotate(180)"/>
          </g>
          <g>
            <rect class="cls-3" x="624.67" y="916.64" width="19.02" height="26.8" transform="translate(1268.36 1860.08) rotate(180)"/>
            <rect class="cls-3" x="589.12" y="916.64" width="19.01" height="26.8" transform="translate(1197.25 1860.08) rotate(180)"/>
            <rect class="cls-3" x="554.35" y="916.64" width="19.02" height="26.8" transform="translate(1127.72 1860.08) rotate(180)"/>
            <rect class="cls-3" x="521.39" y="916.64" width="19.01" height="26.8" transform="translate(1061.8 1860.08) rotate(180)"/>
            <rect class="cls-3" x="487.8" y="916.64" width="19.01" height="26.8" transform="translate(994.62 1860.08) rotate(180)"/>
          </g>
        </g>
        <g>
          <g>
            <rect class="cls-3" x="452.8" y="916.64" width="19.01" height="26.8" transform="translate(924.61 1860.08) rotate(180)"/>
            <rect class="cls-3" x="417.24" y="916.64" width="19.01" height="26.8" transform="translate(853.49 1860.08) rotate(180)"/>
            <rect class="cls-3" x="382.47" y="916.64" width="19.02" height="26.8" transform="translate(783.96 1860.08) rotate(180)"/>
            <rect class="cls-3" x="349.51" y="916.64" width="19.01" height="26.8" transform="translate(718.04 1860.08) rotate(180)"/>
            <rect class="cls-3" x="315.92" y="916.64" width="19.02" height="26.8" transform="translate(650.86 1860.08) rotate(180)"/>
          </g>
          <g>
            <rect class="cls-3" x="281.94" y="916.64" width="19.01" height="26.8" transform="translate(582.9 1860.08) rotate(180)"/>
            <rect class="cls-3" x="246.39" y="916.64" width="19.01" height="26.8" transform="translate(511.79 1860.08) rotate(180)"/>
            <rect class="cls-3" x="211.62" y="916.64" width="19.01" height="26.8" transform="translate(442.26 1860.08) rotate(180)"/>
            <rect class="cls-3" x="178.66" y="916.64" width="19.02" height="26.8" transform="translate(376.34 1860.08) rotate(180)"/>
          </g>
        </g>
      </g>
      <g>
        <g>
          <g>
            <g>
              <rect class="cls-3" x="795.53" y="966.12" width="19.01" height="26.8" transform="translate(1610.07 1959.04) rotate(180)"/>
              <rect class="cls-3" x="759.97" y="966.12" width="19.01" height="26.8" transform="translate(1538.95 1959.04) rotate(180)"/>
              <rect class="cls-3" x="725.2" y="966.12" width="19.01" height="26.8" transform="translate(1469.42 1959.04) rotate(180)"/>
              <rect class="cls-3" x="692.24" y="966.12" width="19.02" height="26.8" transform="translate(1403.5 1959.04) rotate(180)"/>
              <rect class="cls-3" x="658.65" y="966.12" width="19.02" height="26.8" transform="translate(1336.32 1959.04) rotate(180)"/>
            </g>
            <g>
              <rect class="cls-3" x="624.67" y="966.12" width="19.02" height="26.8" transform="translate(1268.36 1959.04) rotate(180)"/>
              <rect class="cls-3" x="589.12" y="966.12" width="19.01" height="26.8" transform="translate(1197.25 1959.04) rotate(180)"/>
              <rect class="cls-3" x="554.35" y="966.12" width="19.02" height="26.8" transform="translate(1127.72 1959.04) rotate(180)"/>
              <rect class="cls-3" x="521.39" y="966.12" width="19.01" height="26.8" transform="translate(1061.8 1959.04) rotate(180)"/>
              <rect class="cls-3" x="487.8" y="966.12" width="19.01" height="26.8" transform="translate(994.62 1959.04) rotate(180)"/>
            </g>
          </g>
          <g>
            <g>
              <rect class="cls-3" x="452.8" y="966.12" width="19.01" height="26.8" transform="translate(924.61 1959.04) rotate(180)"/>
              <rect class="cls-3" x="417.24" y="966.12" width="19.01" height="26.8" transform="translate(853.49 1959.04) rotate(180)"/>
              <rect class="cls-3" x="382.47" y="966.12" width="19.02" height="26.8" transform="translate(783.96 1959.04) rotate(180)"/>
              <rect class="cls-3" x="349.51" y="966.12" width="19.01" height="26.8" transform="translate(718.04 1959.04) rotate(180)"/>
              <rect class="cls-3" x="315.92" y="966.12" width="19.02" height="26.8" transform="translate(650.86 1959.04) rotate(180)"/>
            </g>
            <g>
              <rect class="cls-3" x="281.94" y="966.12" width="19.01" height="26.8" transform="translate(582.9 1959.04) rotate(180)"/>
              <rect class="cls-3" x="246.39" y="966.12" width="19.01" height="26.8" transform="translate(511.79 1959.04) rotate(180)"/>
              <rect class="cls-3" x="211.62" y="966.12" width="19.01" height="26.8" transform="translate(442.26 1959.04) rotate(180)"/>
              <rect class="cls-3" x="178.66" y="966.12" width="19.02" height="26.8" transform="translate(376.34 1959.04) rotate(180)"/>
            </g>
          </g>
        </g>
        <g>
          <g>
            <g>
              <rect class="cls-3" x="795.53" y="1013.41" width="19.01" height="26.8" transform="translate(1610.07 2053.63) rotate(180)"/>
              <rect class="cls-3" x="759.97" y="1013.41" width="19.01" height="26.8" transform="translate(1538.95 2053.63) rotate(180)"/>
              <rect class="cls-3" x="725.2" y="1013.41" width="19.01" height="26.8" transform="translate(1469.42 2053.63) rotate(180)"/>
              <rect class="cls-3" x="692.24" y="1013.41" width="19.02" height="26.8" transform="translate(1403.5 2053.63) rotate(180)"/>
              <rect class="cls-3" x="658.65" y="1013.41" width="19.02" height="26.8" transform="translate(1336.32 2053.63) rotate(180)"/>
            </g>
            <g>
              <rect class="cls-3" x="624.67" y="1013.41" width="19.02" height="26.8" transform="translate(1268.36 2053.63) rotate(180)"/>
              <rect class="cls-3" x="589.12" y="1013.41" width="19.01" height="26.8" transform="translate(1197.25 2053.63) rotate(180)"/>
              <rect class="cls-3" x="554.35" y="1013.41" width="19.02" height="26.8" transform="translate(1127.72 2053.63) rotate(180)"/>
              <rect class="cls-3" x="521.39" y="1013.41" width="19.01" height="26.8" transform="translate(1061.8 2053.63) rotate(180)"/>
              <rect class="cls-3" x="487.8" y="1013.41" width="19.01" height="26.8" transform="translate(994.62 2053.63) rotate(180)"/>
            </g>
          </g>
          <g>
            <g>
              <rect class="cls-3" x="452.8" y="1013.41" width="19.01" height="26.8" transform="translate(924.61 2053.63) rotate(180)"/>
              <rect class="cls-3" x="417.24" y="1013.41" width="19.01" height="26.8" transform="translate(853.49 2053.63) rotate(180)"/>
              <rect class="cls-3" x="382.47" y="1013.41" width="19.02" height="26.8" transform="translate(783.96 2053.63) rotate(180)"/>
              <rect class="cls-3" x="349.51" y="1013.41" width="19.01" height="26.8" transform="translate(718.04 2053.63) rotate(180)"/>
              <rect class="cls-3" x="315.92" y="1013.41" width="19.02" height="26.8" transform="translate(650.86 2053.63) rotate(180)"/>
            </g>
            <g>
              <rect class="cls-3" x="281.94" y="1013.41" width="19.01" height="26.8" transform="translate(582.9 2053.63) rotate(180)"/>
              <rect class="cls-3" x="246.39" y="1013.41" width="19.01" height="26.8" transform="translate(511.79 2053.63) rotate(180)"/>
              <rect class="cls-3" x="211.62" y="1013.41" width="19.01" height="26.8" transform="translate(442.26 2053.63) rotate(180)"/>
              <rect class="cls-3" x="178.66" y="1013.41" width="19.02" height="26.8" transform="translate(376.34 2053.63) rotate(180)"/>
            </g>
          </g>
        </g>
        <g>
          <g>
            <g>
              <rect class="cls-3" x="795.53" y="1059.98" width="19.01" height="26.8" transform="translate(1610.07 2146.77) rotate(180)"/>
              <rect class="cls-3" x="759.97" y="1059.98" width="19.01" height="26.8" transform="translate(1538.95 2146.77) rotate(180)"/>
              <rect class="cls-3" x="725.2" y="1059.98" width="19.01" height="26.8" transform="translate(1469.42 2146.77) rotate(180)"/>
              <rect class="cls-3" x="692.24" y="1059.98" width="19.02" height="26.8" transform="translate(1403.5 2146.77) rotate(180)"/>
              <rect class="cls-3" x="658.65" y="1059.98" width="19.02" height="26.8" transform="translate(1336.32 2146.77) rotate(180)"/>
            </g>
            <g>
              <rect class="cls-3" x="624.67" y="1059.98" width="19.02" height="26.8" transform="translate(1268.36 2146.77) rotate(180)"/>
              <rect class="cls-3" x="589.12" y="1059.98" width="19.01" height="26.8" transform="translate(1197.25 2146.77) rotate(180)"/>
              <rect class="cls-3" x="554.35" y="1059.98" width="19.02" height="26.8" transform="translate(1127.72 2146.77) rotate(180)"/>
              <rect class="cls-3" x="521.39" y="1059.98" width="19.01" height="26.8" transform="translate(1061.8 2146.77) rotate(180)"/>
              <rect class="cls-3" x="487.8" y="1059.98" width="19.01" height="26.8" transform="translate(994.62 2146.77) rotate(180)"/>
            </g>
          </g>
          <g>
            <g>
              <rect class="cls-3" x="452.8" y="1059.98" width="19.01" height="26.8" transform="translate(924.61 2146.77) rotate(180)"/>
              <rect class="cls-3" x="417.24" y="1059.98" width="19.01" height="26.8" transform="translate(853.49 2146.77) rotate(180)"/>
              <rect class="cls-3" x="382.47" y="1059.98" width="19.02" height="26.8" transform="translate(783.96 2146.77) rotate(180)"/>
              <rect class="cls-3" x="349.51" y="1059.98" width="19.01" height="26.8" transform="translate(718.04 2146.77) rotate(180)"/>
              <rect class="cls-3" x="315.92" y="1059.98" width="19.02" height="26.8" transform="translate(650.86 2146.77) rotate(180)"/>
            </g>
            <g>
              <rect class="cls-3" x="281.94" y="1059.98" width="19.01" height="26.8" transform="translate(582.9 2146.77) rotate(180)"/>
              <rect class="cls-3" x="246.39" y="1059.98" width="19.01" height="26.8" transform="translate(511.79 2146.77) rotate(180)"/>
              <rect class="cls-3" x="211.62" y="1059.98" width="19.01" height="26.8" transform="translate(442.26 2146.77) rotate(180)"/>
              <rect class="cls-3" x="178.66" y="1059.98" width="19.02" height="26.8" transform="translate(376.34 2146.77) rotate(180)"/>
            </g>
          </g>
        </g>
      </g>
    </g>
    <rect class="cls-3" x="507.14" y="1143.95" width="440.73" height="237.76" transform="translate(1455.01 2525.67) rotate(180)"/>
    <rect class="cls-3" x="841.33" y="1262.83" width="440.73" height="118.88" transform="translate(2123.39 2644.55) rotate(180)"/>
    <path class="cls-3" d="M471.81,1181v200.72H263.56l-.6-1c-.34-.57-.73-1.26-1.17-2-.15-.27-.32-.55-.49-.86-.6-1.06-1.27-2.26-2-3.64q-1.38-2.51-3.08-5.69h0c-4.21-7.9-9.81-18.87-16.16-32.48-2.09-4.47-4.25-9.24-6.48-14.27-.89-2-1.78-4-2.69-6.14h0q-1.32-3-2.63-6.19l-.09-.21q-.92-2.16-1.84-4.4t-1.92-4.63c-3.28-8.06-6.64-16.62-10-25.65-.08-.23-.17-.48-.26-.71h0q-3.28-8.87-6.52-18.29c-1.19-3.46-2.36-7-3.53-10.53-.07-.21-.15-.42-.22-.66-.52-1.58-1-3.16-1.54-4.76-.43-1.35-.86-2.7-1.28-4q-1.32-4.2-2.63-8.47c-1.11-3.66-2.21-7.38-3.29-11.13q-2.2-7.66-4.3-15.58-.63-2.38-1.25-4.77-1.84-7.15-3.61-14.49Z"/>
    <rect class="cls-4" x="836.31" y="1171.8" width="82.11" height="44.04" transform="translate(1754.74 2387.63) rotate(180)"/>
    <rect class="cls-4" x="730.91" y="1171.8" width="82.11" height="44.04" transform="translate(1543.93 2387.63) rotate(180)"/>
    <rect class="cls-4" x="627.51" y="1171.8" width="82.11" height="44.04" transform="translate(1337.13 2387.63) rotate(180)"/>
    <rect class="cls-4" x="526.1" y="1171.8" width="82.11" height="44.04" transform="translate(1134.31 2387.63) rotate(180)"/>
    <rect class="cls-7" x="469.42" y="1143.95" width="42.3" height="239.81" transform="translate(981.14 2527.71) rotate(180)"/>
    <rect class="cls-5" x="1149.06" y="719.69" width="2.29" height="18.61" transform="translate(2300.4 1458) rotate(180)"/>
    <rect class="cls-5" x="1066.75" y="719.69" width="2.29" height="18.61" transform="translate(2135.79 1458) rotate(180)"/>
    <path class="cls-4" d="M170.9,1096.87q1.53,13.08,3.53,25.78,2.15,13.75,4.75,27,2.34,12.06,5,23.66c.23,1,.45,2,.69,2.93.36,1.58.73,3.16,1.11,4.73q1.76,7.34,3.61,14.49.61,2.38,1.25,4.77,2.1,7.92,4.3,15.58c1.08,3.75,2.18,7.47,3.29,11.13q1.31,4.27,2.63,8.47c.42,1.35.85,2.7,1.28,4,.52,1.6,1,3.18,1.54,4.76.07.24.15.45.22.66,1.17,3.57,2.34,7.07,3.53,10.53q3.24,9.42,6.52,18.29h0c.09.23.18.48.26.71,3.34,9,6.7,17.59,10,25.65q1,2.36,1.92,4.63t1.84,4.4l.09.21V1096.87Z"/>
    <g>
      <path class="cls-4" d="M228.24,1176.27v133.07l-.09-.21q-.92-2.16-1.84-4.4t-1.92-4.63c-3.28-8.06-6.64-16.62-10-25.65-.08-.23-.17-.48-.26-.71h0q-3.28-8.87-6.52-18.29c-1.19-3.46-2.36-7-3.53-10.53-.07-.21-.15-.42-.22-.66-.52-1.58-1-3.16-1.54-4.76-.43-1.35-.86-2.7-1.28-4q-1.32-4.2-2.63-8.47c-1.11-3.66-2.21-7.38-3.29-11.13q-2.2-7.66-4.3-15.58-.63-2.38-1.25-4.77-1.84-7.15-3.61-14.49c-.38-1.57-.75-3.15-1.11-4.73Z"/>
      <path class="cls-3" d="M228.24,1149.68v66.16h-33.1q-2.2-7.66-4.3-15.58-.63-2.38-1.25-4.77-1.84-7.15-3.61-14.49c-.38-1.57-.75-3.15-1.11-4.73-.24-1-.46-2-.69-2.93q-2.64-11.61-5-23.66Z"/>
      <path class="cls-3" d="M207.63,1235.44v20c-1.19-3.46-2.36-7-3.53-10.53-.07-.21-.15-.42-.22-.66-.52-1.58-1-3.16-1.54-4.76-.43-1.35-.86-2.7-1.28-4Z"/>
      <rect class="cls-7" x="192.09" y="1168.27" width="13.06" height="22.59" transform="translate(397.25 2359.13) rotate(180)"/>
    </g>
    <g>
      <rect class="cls-4" x="1198.63" y="1176.28" width="302.61" height="203.51" transform="translate(2699.87 2556.06) rotate(180)"/>
      <rect class="cls-3" x="1198.63" y="1149.69" width="302.61" height="66.14" transform="translate(2699.87 2365.52) rotate(180)"/>
      <g>
        <g>
          <g>
            <rect class="cls-3" x="1465.09" y="1235.43" width="15.54" height="21.91" transform="translate(2945.73 2492.77) rotate(180)"/>
            <rect class="cls-3" x="1436.03" y="1235.43" width="15.54" height="21.91" transform="translate(2887.61 2492.77) rotate(180)"/>
            <rect class="cls-3" x="1407.62" y="1235.43" width="15.54" height="21.91" transform="translate(2830.78 2492.77) rotate(180)"/>
            <rect class="cls-3" x="1380.68" y="1235.43" width="15.54" height="21.91" transform="translate(2776.9 2492.77) rotate(180)"/>
            <rect class="cls-3" x="1353.22" y="1235.43" width="15.54" height="21.91" transform="translate(2721.99 2492.77) rotate(180)"/>
          </g>
          <g>
            <rect class="cls-3" x="1325.45" y="1235.43" width="15.54" height="21.91" transform="translate(2666.45 2492.77) rotate(180)"/>
            <rect class="cls-3" x="1296.39" y="1235.43" width="15.54" height="21.91" transform="translate(2608.32 2492.77) rotate(180)"/>
            <rect class="cls-3" x="1267.98" y="1235.43" width="15.54" height="21.91" transform="translate(2551.5 2492.77) rotate(180)"/>
            <rect class="cls-3" x="1241.04" y="1235.43" width="15.54" height="21.91" transform="translate(2497.62 2492.77) rotate(180)"/>
            <rect class="cls-3" x="1213.59" y="1235.43" width="15.54" height="21.91" transform="translate(2442.71 2492.77) rotate(180)"/>
          </g>
        </g>
        <g>
          <g>
            <rect class="cls-3" x="1465.09" y="1274.09" width="15.54" height="21.91" transform="translate(2945.73 2570.09) rotate(180)"/>
            <rect class="cls-3" x="1436.03" y="1274.09" width="15.54" height="21.91" transform="translate(2887.61 2570.09) rotate(180)"/>
            <rect class="cls-3" x="1407.62" y="1274.09" width="15.54" height="21.91" transform="translate(2830.78 2570.09) rotate(180)"/>
            <rect class="cls-3" x="1380.68" y="1274.09" width="15.54" height="21.91" transform="translate(2776.9 2570.09) rotate(180)"/>
            <rect class="cls-3" x="1353.22" y="1274.09" width="15.54" height="21.91" transform="translate(2721.99 2570.09) rotate(180)"/>
          </g>
          <g>
            <rect class="cls-3" x="1325.45" y="1274.09" width="15.54" height="21.91" transform="translate(2666.45 2570.09) rotate(180)"/>
            <rect class="cls-3" x="1296.39" y="1274.09" width="15.54" height="21.91" transform="translate(2608.32 2570.09) rotate(180)"/>
            <rect class="cls-3" x="1267.98" y="1274.09" width="15.54" height="21.91" transform="translate(2551.5 2570.09) rotate(180)"/>
            <rect class="cls-3" x="1241.04" y="1274.09" width="15.54" height="21.91" transform="translate(2497.62 2570.09) rotate(180)"/>
            <rect class="cls-3" x="1213.59" y="1274.09" width="15.54" height="21.91" transform="translate(2442.71 2570.09) rotate(180)"/>
          </g>
        </g>
        <g>
          <g>
            <rect class="cls-3" x="1465.09" y="1312.15" width="15.54" height="21.91" transform="translate(2945.73 2646.21) rotate(180)"/>
            <rect class="cls-3" x="1436.03" y="1312.15" width="15.54" height="21.91" transform="translate(2887.61 2646.21) rotate(180)"/>
            <rect class="cls-3" x="1407.62" y="1312.15" width="15.54" height="21.91" transform="translate(2830.78 2646.21) rotate(180)"/>
            <rect class="cls-3" x="1380.68" y="1312.15" width="15.54" height="21.91" transform="translate(2776.9 2646.21) rotate(180)"/>
            <rect class="cls-3" x="1353.22" y="1312.15" width="15.54" height="21.91" transform="translate(2721.99 2646.21) rotate(180)"/>
          </g>
          <g>
            <rect class="cls-3" x="1325.45" y="1312.15" width="15.54" height="21.91" transform="translate(2666.45 2646.21) rotate(180)"/>
            <rect class="cls-3" x="1296.39" y="1312.15" width="15.54" height="21.91" transform="translate(2608.32 2646.21) rotate(180)"/>
            <rect class="cls-3" x="1267.98" y="1312.15" width="15.54" height="21.91" transform="translate(2551.5 2646.21) rotate(180)"/>
            <rect class="cls-3" x="1241.04" y="1312.15" width="15.54" height="21.91" transform="translate(2497.62 2646.21) rotate(180)"/>
            <rect class="cls-3" x="1213.59" y="1312.15" width="15.54" height="21.91" transform="translate(2442.71 2646.21) rotate(180)"/>
          </g>
        </g>
      </g>
      <rect class="cls-7" x="1465.09" y="1168.27" width="13.06" height="22.59" transform="translate(2943.25 2359.13) rotate(180)"/>
      <rect class="cls-7" x="1335.44" y="1168.27" width="13.06" height="22.59" transform="translate(2683.94 2359.13) rotate(180)"/>
      <rect class="cls-7" x="1232.3" y="1168.27" width="13.06" height="22.59" transform="translate(2477.66 2359.13) rotate(180)"/>
    </g>
    <g>
      <rect class="cls-4" x="1520.25" y="1176.28" width="302.61" height="203.51" transform="translate(3343.1 2556.06) rotate(180)"/>
      <rect class="cls-3" x="1520.25" y="1149.69" width="302.61" height="66.14" transform="translate(3343.1 2365.52) rotate(180)"/>
      <g>
        <g>
          <g>
            <rect class="cls-3" x="1786.71" y="1235.43" width="15.54" height="21.91" transform="translate(3588.96 2492.77) rotate(180)"/>
            <rect class="cls-3" x="1757.65" y="1235.43" width="15.54" height="21.91" transform="translate(3530.83 2492.77) rotate(180)"/>
            <rect class="cls-3" x="1729.23" y="1235.43" width="15.54" height="21.91" transform="translate(3474.01 2492.77) rotate(180)"/>
            <rect class="cls-3" x="1702.3" y="1235.43" width="15.54" height="21.91" transform="translate(3420.13 2492.77) rotate(180)"/>
            <rect class="cls-3" x="1674.84" y="1235.43" width="15.54" height="21.91" transform="translate(3365.22 2492.77) rotate(180)"/>
          </g>
          <g>
            <rect class="cls-3" x="1647.07" y="1235.43" width="15.54" height="21.91" transform="translate(3309.68 2492.77) rotate(180)"/>
            <rect class="cls-3" x="1618.01" y="1235.43" width="15.54" height="21.91" transform="translate(3251.55 2492.77) rotate(180)"/>
            <rect class="cls-3" x="1589.59" y="1235.43" width="15.54" height="21.91" transform="translate(3194.73 2492.77) rotate(180)"/>
            <rect class="cls-3" x="1562.65" y="1235.43" width="15.54" height="21.91" transform="translate(3140.85 2492.77) rotate(180)"/>
            <rect class="cls-3" x="1535.2" y="1235.43" width="15.54" height="21.91" transform="translate(3085.94 2492.77) rotate(180)"/>
          </g>
        </g>
        <g>
          <g>
            <rect class="cls-3" x="1786.71" y="1274.09" width="15.54" height="21.91" transform="translate(3588.96 2570.09) rotate(180)"/>
            <rect class="cls-3" x="1757.65" y="1274.09" width="15.54" height="21.91" transform="translate(3530.83 2570.09) rotate(180)"/>
            <rect class="cls-3" x="1729.23" y="1274.09" width="15.54" height="21.91" transform="translate(3474.01 2570.09) rotate(180)"/>
            <rect class="cls-3" x="1702.3" y="1274.09" width="15.54" height="21.91" transform="translate(3420.13 2570.09) rotate(180)"/>
            <rect class="cls-3" x="1674.84" y="1274.09" width="15.54" height="21.91" transform="translate(3365.22 2570.09) rotate(180)"/>
          </g>
          <g>
            <rect class="cls-3" x="1647.07" y="1274.09" width="15.54" height="21.91" transform="translate(3309.68 2570.09) rotate(180)"/>
            <rect class="cls-3" x="1618.01" y="1274.09" width="15.54" height="21.91" transform="translate(3251.55 2570.09) rotate(180)"/>
            <rect class="cls-3" x="1589.59" y="1274.09" width="15.54" height="21.91" transform="translate(3194.73 2570.09) rotate(180)"/>
            <rect class="cls-3" x="1562.65" y="1274.09" width="15.54" height="21.91" transform="translate(3140.85 2570.09) rotate(180)"/>
            <rect class="cls-3" x="1535.2" y="1274.09" width="15.54" height="21.91" transform="translate(3085.94 2570.09) rotate(180)"/>
          </g>
        </g>
        <g>
          <g>
            <rect class="cls-3" x="1786.71" y="1312.15" width="15.54" height="21.91" transform="translate(3588.96 2646.21) rotate(180)"/>
            <rect class="cls-3" x="1757.65" y="1312.15" width="15.54" height="21.91" transform="translate(3530.83 2646.21) rotate(180)"/>
            <rect class="cls-3" x="1729.23" y="1312.15" width="15.54" height="21.91" transform="translate(3474.01 2646.21) rotate(180)"/>
            <rect class="cls-3" x="1702.3" y="1312.15" width="15.54" height="21.91" transform="translate(3420.13 2646.21) rotate(180)"/>
            <rect class="cls-3" x="1674.84" y="1312.15" width="15.54" height="21.91" transform="translate(3365.22 2646.21) rotate(180)"/>
          </g>
          <g>
            <rect class="cls-3" x="1647.07" y="1312.15" width="15.54" height="21.91" transform="translate(3309.68 2646.21) rotate(180)"/>
            <rect class="cls-3" x="1618.01" y="1312.15" width="15.54" height="21.91" transform="translate(3251.55 2646.21) rotate(180)"/>
            <rect class="cls-3" x="1589.59" y="1312.15" width="15.54" height="21.91" transform="translate(3194.73 2646.21) rotate(180)"/>
            <rect class="cls-3" x="1562.65" y="1312.15" width="15.54" height="21.91" transform="translate(3140.85 2646.21) rotate(180)"/>
            <rect class="cls-3" x="1535.2" y="1312.15" width="15.54" height="21.91" transform="translate(3085.94 2646.21) rotate(180)"/>
          </g>
        </g>
      </g>
      <rect class="cls-7" x="1786.71" y="1168.27" width="13.06" height="22.59" transform="translate(3586.48 2359.13) rotate(180)"/>
      <rect class="cls-7" x="1657.05" y="1168.27" width="13.06" height="22.59" transform="translate(3327.17 2359.13) rotate(180)"/>
      <rect class="cls-7" x="1553.91" y="1168.27" width="13.06" height="22.59" transform="translate(3120.89 2359.13) rotate(180)"/>
    </g>
    <g>
      <rect class="cls-4" x="1842.57" y="1176.28" width="302.61" height="203.51" transform="translate(3987.75 2556.06) rotate(180)"/>
      <rect class="cls-3" x="1842.57" y="1149.69" width="302.61" height="66.14" transform="translate(3987.75 2365.52) rotate(180)"/>
      <g>
        <g>
          <g>
            <rect class="cls-3" x="2109.03" y="1235.43" width="15.54" height="21.91" transform="translate(4233.61 2492.77) rotate(180)"/>
            <rect class="cls-3" x="2079.97" y="1235.43" width="15.54" height="21.91" transform="translate(4175.49 2492.77) rotate(180)"/>
            <rect class="cls-3" x="2051.56" y="1235.43" width="15.54" height="21.91" transform="translate(4118.66 2492.77) rotate(180)"/>
            <rect class="cls-3" x="2024.62" y="1235.43" width="15.54" height="21.91" transform="translate(4064.78 2492.77) rotate(180)"/>
            <rect class="cls-3" x="1997.17" y="1235.43" width="15.54" height="21.91" transform="translate(4009.87 2492.77) rotate(180)"/>
          </g>
          <g>
            <rect class="cls-3" x="1969.39" y="1235.43" width="15.54" height="21.91" transform="translate(3954.33 2492.77) rotate(180)"/>
            <rect class="cls-3" x="1940.33" y="1235.43" width="15.54" height="21.91" transform="translate(3896.2 2492.77) rotate(180)"/>
            <rect class="cls-3" x="1911.92" y="1235.43" width="15.54" height="21.91" transform="translate(3839.38 2492.77) rotate(180)"/>
            <rect class="cls-3" x="1884.98" y="1235.43" width="15.54" height="21.91" transform="translate(3785.5 2492.77) rotate(180)"/>
            <rect class="cls-3" x="1857.52" y="1235.43" width="15.54" height="21.91" transform="translate(3730.59 2492.77) rotate(180)"/>
          </g>
        </g>
        <g>
          <g>
            <rect class="cls-3" x="2109.03" y="1274.09" width="15.54" height="21.91" transform="translate(4233.61 2570.09) rotate(180)"/>
            <rect class="cls-3" x="2079.97" y="1274.09" width="15.54" height="21.91" transform="translate(4175.49 2570.09) rotate(180)"/>
            <rect class="cls-3" x="2051.56" y="1274.09" width="15.54" height="21.91" transform="translate(4118.66 2570.09) rotate(180)"/>
            <rect class="cls-3" x="2024.62" y="1274.09" width="15.54" height="21.91" transform="translate(4064.78 2570.09) rotate(180)"/>
            <rect class="cls-3" x="1997.17" y="1274.09" width="15.54" height="21.91" transform="translate(4009.87 2570.09) rotate(180)"/>
          </g>
          <g>
            <rect class="cls-3" x="1969.39" y="1274.09" width="15.54" height="21.91" transform="translate(3954.33 2570.09) rotate(180)"/>
            <rect class="cls-3" x="1940.33" y="1274.09" width="15.54" height="21.91" transform="translate(3896.2 2570.09) rotate(180)"/>
            <rect class="cls-3" x="1911.92" y="1274.09" width="15.54" height="21.91" transform="translate(3839.38 2570.09) rotate(180)"/>
            <rect class="cls-3" x="1884.98" y="1274.09" width="15.54" height="21.91" transform="translate(3785.5 2570.09) rotate(180)"/>
            <rect class="cls-3" x="1857.52" y="1274.09" width="15.54" height="21.91" transform="translate(3730.59 2570.09) rotate(180)"/>
          </g>
        </g>
        <g>
          <g>
            <rect class="cls-3" x="2109.03" y="1312.15" width="15.54" height="21.91" transform="translate(4233.61 2646.21) rotate(180)"/>
            <rect class="cls-3" x="2079.97" y="1312.15" width="15.54" height="21.91" transform="translate(4175.49 2646.21) rotate(180)"/>
            <rect class="cls-3" x="2051.56" y="1312.15" width="15.54" height="21.91" transform="translate(4118.66 2646.21) rotate(180)"/>
            <rect class="cls-3" x="2024.62" y="1312.15" width="15.54" height="21.91" transform="translate(4064.78 2646.21) rotate(180)"/>
            <rect class="cls-3" x="1997.17" y="1312.15" width="15.54" height="21.91" transform="translate(4009.87 2646.21) rotate(180)"/>
          </g>
          <g>
            <rect class="cls-3" x="1969.39" y="1312.15" width="15.54" height="21.91" transform="translate(3954.33 2646.21) rotate(180)"/>
            <rect class="cls-3" x="1940.33" y="1312.15" width="15.54" height="21.91" transform="translate(3896.2 2646.21) rotate(180)"/>
            <rect class="cls-3" x="1911.92" y="1312.15" width="15.54" height="21.91" transform="translate(3839.38 2646.21) rotate(180)"/>
            <rect class="cls-3" x="1884.98" y="1312.15" width="15.54" height="21.91" transform="translate(3785.5 2646.21) rotate(180)"/>
            <rect class="cls-3" x="1857.52" y="1312.15" width="15.54" height="21.91" transform="translate(3730.59 2646.21) rotate(180)"/>
          </g>
        </g>
      </g>
      <rect class="cls-7" x="2109.03" y="1168.27" width="13.06" height="22.59" transform="translate(4231.13 2359.13) rotate(180)"/>
      <rect class="cls-7" x="1979.38" y="1168.27" width="13.06" height="22.59" transform="translate(3971.82 2359.13) rotate(180)"/>
      <rect class="cls-7" x="1876.24" y="1168.27" width="13.06" height="22.59" transform="translate(3765.54 2359.13) rotate(180)"/>
    </g>
  </g>
  <path class="cls-8" d="M2868.46,1389.53h0l-1428.73-7.45s42.6-174.45,232.87-174.45,257.36-143.7,479.91-142.42c145.62.84,241.27-75.9,372.52-119.7l2.11,1.34c39.2,24.78,88.74,46,138.13,71,27.26,13.78,54.49,28.66,79.91,45.88,23.6,16,45.64,34,64.71,54.94a259.06,259.06,0,0,1,33.17,45.14c.55.93,1.08,1.85,1.59,2.78a251.71,251.71,0,0,1,27.24,74.52c.28,1.41.55,2.84.81,4.27C2880.13,1286,2879.61,1333.4,2868.46,1389.53Z"/>
  <path class="cls-9" d="M1023.14,1383.91s320.51-85.82,886.93-58.67,957.73-64.17,957.73-64.17v129.78Z"/>
  <path class="cls-10" d="M2871.88,1241.11a251.52,251.52,0,0,0-27.22-74.51c-18.73-12.83-43.09-24.08-61.59-13.58-34.76,19.71,60.59,28.51,74.7,58.3a112,112,0,0,1,9.25,28.13c-5.08-1.5-13.35-3.32-21.09-2.17-8.14,1.21-21.87,11.25-30.22,17.91,3.89-6.58,7.46-14.82,8.36-23.83,2.17-21.83-6.38-46.46-20-30.19-9.91,11.79-5.46,42.92-2.26,59.16-5.28,2.08-10.6,4.33-15.92,6.78-20.34-71.66-68.12-185.57-161.17-189.48,0,0-36.72,14,4,60,34.61,39.14,89.91,54.82,142.33,136.88q-4.86,2.61-9.67,5.45c-25.14-24.07-72.18-62.29-111.54-55.38-42,7.38,49.24,44.37,99.4,63a219.68,219.68,0,0,0-32.57,26.69s-16.39,21.87-88.81,10.93-135.27,64.29-135.27,64.29h376C2880,1331.42,2880.16,1282.61,2871.88,1241.11Z"/>
  <path class="cls-11" d="M467.67,1383.61l-125.93-.39h0l-34.09-.09h-3.71l-19.93-.06h0l-13.64,0-6,0s-.47-.78-1.36-2.32c-.34-.57-.73-1.26-1.17-2-.15-.27-.32-.55-.49-.86-.6-1.06-1.27-2.26-2-3.64q-1.38-2.51-3.08-5.69h0c-4.21-7.9-9.81-18.87-16.16-32.48-2.09-4.47-4.25-9.24-6.48-14.27-.89-2-1.78-4-2.69-6.14h0c-.91-2.09-1.81-4.22-2.72-6.4q-.92-2.16-1.84-4.4t-1.92-4.63c-3.28-8.06-6.64-16.62-10-25.65-.08-.23-.17-.48-.26-.71h0q-5.09-13.73-10.05-28.82c-.07-.21-.15-.42-.22-.66-.52-1.58-1-3.16-1.54-4.76q-2-6.16-3.91-12.52-3.93-13-7.59-26.71-.63-2.38-1.25-4.77a177.62,177.62,0,0,1,23.71-.75,127.8,127.8,0,0,1,32.93,5.38A105,105,0,0,1,282,1219.31c21.25,17.29,34.8,41,47.9,62,7.73,12.44,15.32,24,24.22,32.67,8.63,8.45,18.5,14.28,31,15.77a140.36,140.36,0,0,1,23.31,4.73C451.81,1347.35,465.21,1377.09,467.67,1383.61Z"/>
  <g>
    <path class="cls-10" d="M252,1129c-14.88-1.72-28.11,28.32-38.71,65.72-4.06,14.29-7.73,29.66-11,44.75.52,1.6,1,3.18,1.54,4.76.07.24.15.45.22.66q5,15.09,10.05,28.82h0c.09.23.18.48.26.71,10.85-23.06,22.8-50,31.82-74.33C260.18,1162.38,267.11,1130.76,252,1129Z"/>
    <path class="cls-10" d="M372.72,1153.57c-31-8.6-63.18,23.69-90.75,65.74-20.28,30.92-38.08,67.13-51.1,96.22h0c.91,2.09,1.8,4.13,2.69,6.14,2.23,5,4.39,9.8,6.48,14.27,6.35,13.61,12,24.58,16.16,32.48,22.65-24.93,49.86-56.17,73.67-87.11C375.62,1221.86,408.8,1163.55,372.72,1153.57Z"/>
    <path class="cls-10" d="M447.82,1300.47a12.44,12.44,0,0,0-12.22-10.3c-26.59-.27-54.76,9.53-81.51,23.82-35,18.71-67.64,45.11-91.13,66.68.89,1.54,1.36,2.32,1.36,2.32l6,0,13.64,0h0l19.93.06c36.82-16.79,78.4-36,104.45-48.63,7.8-3.78,14.21-7,18.68-9.38C445.26,1315.41,448.81,1306.72,447.82,1300.47Z"/>
  </g>
  <path class="cls-12" d="M2947.79,1389.92H145.26a3.2,3.2,0,0,1-3.19-3.18v-1.09a3.2,3.2,0,0,1,3.19-3.18H2947.79a3.19,3.19,0,0,1,3.18,3.18v1.09A3.19,3.19,0,0,1,2947.79,1389.92Z"/>
  <g>
    <g>
      <g>
        <polygon class="cls-13" points="1498.57 1204.1 1525.64 1158.98 1500.17 1139.05 1472.43 1187.46 1498.57 1204.1"/>
        <path class="cls-14" d="M1440.08,1012.68s79.31,38.23,103.9,59.75c18.54,16.23,16.46,40,5.82,57.28-9.89,16.09-33.29,56.5-39.67,69.45-26.42,1.83-27.24-30-27.24-30l24-64.46-66.77-27.59Z"/>
        <path class="cls-15" d="M1574.23,963.1s13.21.48,20.64-.3,17-1.56,23.36,0,10.64,9.12,10.28,13.3-5.52,10.09-9.63,13.86c-2.37,2.17-4.84-4.42-4.45-5.62s-5.19-5.29-12-1.88c-5.5,2.76-17.24,7.93-29.72-.88C1564.76,976,1574.23,963.1,1574.23,963.1Z"/>
        <g>
          <path class="cls-16" d="M1502.82,1196l.09.06S1503.13,1195.53,1502.82,1196Z"/>
          <path class="cls-17" d="M1471.7,1219.61c10,8.13,25.44,19,32.32,22.64,3.77,2,8.06,3.92,11.2,5.27,2.78-3.24,3-8-1.19-15.37a19.29,19.29,0,0,1-7.94-1.82c-3.85-1.85-12.33-9-17.19-17.27s5.5-13.9,5.5-13.9l5.74,1.87c1.69-3.28,2.4-4.57,2.68-5-.91-.63-17.84-12.4-24.35-11.49-6.25.88-17.81,13.37-23.17,19.51A167.42,167.42,0,0,0,1471.7,1219.61Z"/>
          <path class="cls-18" d="M1488.9,1213.06c4.86,8.29,13.34,15.42,17.19,17.27a19.29,19.29,0,0,0,7.94,1.82c-.43-.75-.79-1.46-1.31-2.26-7.45-11.5-18.28-17.67-14.15-25.79l1.57-3.07-5.74-1.87S1484,1204.76,1488.9,1213.06Z"/>
          <path class="cls-19" d="M1511.59,1250.43a13.47,13.47,0,0,0,3.63-2.91c-3.14-1.35-7.43-3.28-11.2-5.27-6.88-3.63-22.33-14.51-32.32-22.64a167.42,167.42,0,0,1-16.4-15.57c-1.77,2-2.86,3.36-2.86,3.36S1482.16,1240.5,1511.59,1250.43Z"/>
        </g>
        <g>
          <path class="cls-20" d="M1299.35,1162.54a109.4,109.4,0,1,0,109.4,109.39A109.51,109.51,0,0,0,1299.35,1162.54Zm92.72,106.64H1306l60.83-60.84A92.39,92.39,0,0,1,1392.07,1269.18Zm-95.47,95.47a92.39,92.39,0,0,1-60.84-25.23l60.84-60.83Zm5.51-86.06,60.83,60.83a92.37,92.37,0,0,1-60.83,25.23Zm0-13.31v-86.07a92.35,92.35,0,0,1,60.83,25.24Zm-2.72-86.21h0Zm-2.79,86.21-60.84-60.84a92.44,92.44,0,0,1,60.84-25.23Zm-64.74-56.94,60.84,60.84h-86.07A92.44,92.44,0,0,1,1231.86,1208.34Zm-25.37,63.55v0Zm.14,2.8h86.07l-60.83,60.84A92.4,92.4,0,0,1,1206.63,1274.69Zm160.21,60.83L1306,1274.69h86.06A92.35,92.35,0,0,1,1366.84,1335.52Z"/>
          <polygon class="cls-21" points="1721.16 1276.42 1652.57 1102.54 1634.05 1104.99 1705.37 1285.77 1721.16 1276.42"/>
          <path class="cls-21" d="M1323.81,1271.93a24.46,24.46,0,1,1-24.46-24.45A24.46,24.46,0,0,1,1323.81,1271.93Z"/>
          <path class="cls-21" d="M1472.82,1270.53h0a10.23,10.23,0,0,1-10.32-10.07l-.53-44.34a10.23,10.23,0,0,1,10.07-10.31h0a10.22,10.22,0,0,1,10.32,10.07l.53,44.33A10.22,10.22,0,0,1,1472.82,1270.53Z"/>
          <path class="cls-22" d="M1637.19,1098.57l-20.13-51-16.94,6.46,5.7,14.46-214.25,54.63-32-57.46L1346,1071l32.64,58.57-88.75,146.87h181.88l5.29,4.14,136.77-191.9,6.44,16.33ZM1309.4,1265.4l75.39-124.76,69.53,124.76Zm159.73-3.17-69-123.72,198.7-55Z"/>
          <path class="cls-23" d="M1312.67,1271.93a13.32,13.32,0,1,1-13.32-13.32A13.32,13.32,0,0,1,1312.67,1271.93Z"/>
          <path class="cls-20" d="M1472.43,1300a30.92,30.92,0,1,1,30.92-30.91A31,31,0,0,1,1472.43,1300Zm0-56.32a25.41,25.41,0,1,0,25.41,25.41A25.44,25.44,0,0,0,1472.43,1243.68Z"/>
          <g>
            <path class="cls-20" d="M1485.89,1269.09a13.46,13.46,0,1,1-13.46-13.46A13.46,13.46,0,0,1,1485.89,1269.09Z"/>
            <path class="cls-20" d="M1511.22,1313.31h0a10.21,10.21,0,0,1-14.37-1.09l-28.91-33.61a10.23,10.23,0,0,1,1.08-14.38h0a10.23,10.23,0,0,1,14.38,1.09l28.91,33.61A10.24,10.24,0,0,1,1511.22,1313.31Z"/>
          </g>
          <g>
            <path class="cls-20" d="M1710,1162.54a109.4,109.4,0,1,0,109.39,109.39A109.51,109.51,0,0,0,1710,1162.54Zm92.72,106.64h-86.07l60.84-60.84A92.49,92.49,0,0,1,1802.69,1269.18Zm-95.48,95.48a92.42,92.42,0,0,1-60.83-25.24l60.83-60.83Zm5.51-86.07,60.84,60.83a92.45,92.45,0,0,1-60.84,25.24Zm0-13.31v-86.07a92.45,92.45,0,0,1,60.84,25.24Zm-2.72-86.21h0Zm-2.79,86.21-60.84-60.83a92.45,92.45,0,0,1,60.84-25.24Zm-64.73-56.94,60.84,60.84h-86.08A92.45,92.45,0,0,1,1642.48,1208.34Zm-25.37,63.55v.09s0,0,0,0S1617.11,1271.91,1617.11,1271.89Zm.13,2.8h86.08l-60.84,60.84A92.45,92.45,0,0,1,1617.24,1274.69Zm160.21,60.83-60.83-60.83h86.07A92.4,92.4,0,0,1,1777.45,1335.52Z"/>
            <path class="cls-21" d="M1734.42,1271.93a24.46,24.46,0,1,1-24.45-24.45A24.46,24.46,0,0,1,1734.42,1271.93Z"/>
            <path class="cls-23" d="M1723.28,1271.93a13.32,13.32,0,1,1-13.31-13.31A13.31,13.31,0,0,1,1723.28,1271.93Z"/>
          </g>
          <path class="cls-21" d="M1618.58,1100.78s4.36,11.59,6.25,16.41c4.33-.89,7.21-2.1,10.65-1.8,3.27.29,4.53,4.7,6.1,8.7,4.07,10.31,15.52-10.07,15.52-10.07s-2.69-7.58-5.12-13.15-10.1-8.56-22.13-4.2C1619.87,1100.29,1618.58,1100.78,1618.58,1100.78Z"/>
          <path class="cls-20" d="M1370.58,1075.19a2.93,2.93,0,0,0-3.95-1.21l-.68.36-5.86-13-17.37,8.27,8.09,12.81a2.93,2.93,0,0,0,2.75,5.17l15.81-8.41A2.92,2.92,0,0,0,1370.58,1075.19Z"/>
          <g>
            <path class="cls-17" d="M1317,1063.84c13.43,4.22,19.68,7,28,5.07,6.4-1.49,35.94-15.1,49-21.19-4.46-4.12-12.6-9.53-23.52-7.77-17.07,2.76-52.28,5.62-77.11,13.44-6,1.9-6.1,7.14-5.25,10.9C1295.25,1062.81,1307.87,1061,1317,1063.84Z"/>
            <path class="cls-19" d="M1312.84,1069.07c6,1,15.14,4.53,21.05,7,3.39,1.42,12.39-.31,15.53-1.63,18.31-7.74,48.37-22.47,48.37-22.47a30.73,30.73,0,0,0-3.86-4.24c-13.06,6.09-42.6,19.7-49,21.19-8.27,1.93-14.52-.85-28-5.07-9.11-2.86-21.73-1-28.93.45a19.94,19.94,0,0,0,1.43,4.17S1303.43,1067.51,1312.84,1069.07Z"/>
          </g>
          <path class="cls-20" d="M1605.86,1011.14c2.67-5.86,9.8-10.54,11.71-16.42,1.63-5-.4-13.57-1-16.77-.22-1.06-16.42,4-16.42,4s2.52,5.24,0,10.46c-1.53,3.17-4.54,6.07-7.12,8.73-4,4.13-5,6.93-5,6.93h0c-3.26,7.3,1.36,18.54,1.36,18.54l1.47,3.74-2.1,1a3.55,3.55,0,0,0,2.91,6.47l1.78-.8,6.67,17,16.94-6.46-7.06-18,1.48-.67a3.55,3.55,0,1,0-2.91-6.47l-1.17.52-2.19-5.59C1604.28,1015.08,1605.07,1012.87,1605.86,1011.14Z"/>
          <path class="cls-21" d="M1618.84,977a10.6,10.6,0,1,1-10.6-10.6A10.6,10.6,0,0,1,1618.84,977Z"/>
        </g>
        <path class="cls-13" d="M1422.12,849.24l21.7,7.89a3.46,3.46,0,0,0,4.43-2.07l12.52-34.46a3.47,3.47,0,0,0-2.07-4.43l-24-18.59c-1.79-.65.16,7.89-.49,9.68l-14.13,37.56A3.45,3.45,0,0,0,1422.12,849.24Z"/>
        <g>
          <path class="cls-16" d="M1508.51,1234.67l.1,0S1508.36,1234.11,1508.51,1234.67Z"/>
          <path class="cls-17" d="M1507.4,1278.07c14.25-2,34.89-6.42,43.08-9.29,4.49-1.58,9.32-3.63,12.82-5.18-.55-4.73-4.25-8.53-13.5-10.69a21.68,21.68,0,0,1-7.51,5.13c-4.44,1.74-16.71,3.27-27.2,1s-7.2-15-7.2-15,2.77-1.56,5.88-3.28c-1.4-3.87-1.92-5.44-2.07-6-1.2.26-23.69,5.2-27.89,11.23-4,5.78-2.57,24.73-1.61,33.78A188.1,188.1,0,0,0,1507.4,1278.07Z"/>
          <path class="cls-19" d="M1515.09,1259c10.49,2.31,22.76.78,27.2-1a21.68,21.68,0,0,0,7.51-5.13c-.93-.22-1.79-.46-2.85-.65-15.07-2.62-28.34,1.56-31.86-8l-1.32-3.61c-3.11,1.72-5.88,3.28-5.88,3.28S1504.61,1256.68,1515.09,1259Z"/>
          <path class="cls-19" d="M1562.92,1268.78a15,15,0,0,0,.38-5.18c-3.5,1.55-8.33,3.6-12.82,5.18-8.19,2.87-28.83,7.28-43.08,9.29a188.1,188.1,0,0,1-25.2,1.61c.32,3,.59,4.89.59,4.89S1532.46,1285.35,1562.92,1268.78Z"/>
        </g>
        <path class="cls-24" d="M1360.31,966.43s-20.88,26.84-17.39,63.81c1.49,15.76,18.17,25.5,35.29,39.38,24.17,19.6,54.19,28.55,63.52,57.38,4.29,13.26,27.91,103.52,34.36,125.63,15.26-2.75,25.24-9.41,41.17-12-2.83-12.85-16.65-101.66-21.91-131.4s-65.12-116-65.12-116Z"/>
        <g>
          <path class="cls-17" d="M1420.37,995.22c-14.19.35-33.11-4.51-49.44-4.83s-13.65-10.7-8-12.58c11.41-3.8,26.57-3.51,45.87,1.64,8.73,2.33,12.91-4,11.56-5.79-7.66-10.3-20.89-10-26.44-16.36s13.92-6.49,30,0,14.79,2.52,16.47-15.44,6-53.46,6-53.46,18,9.26,22.38,11.23c.67-8.94,1-17.55.78-25.23-1-36.94-33.39-44.27-53.09-42.35s-27.34,46.05-34.67,73.08-10.63,41-25,56.77-16,27.32-13.9,32.19c4.66,10.89,10.27,14.33,54.87,18.59,18.34,1.75,32.54,4.84,41.71,5,2.29-3.86,4.38-8.37,4.38-12.13C1443.88,997.15,1433.27,994.89,1420.37,995.22Z"/>
          <path class="cls-19" d="M1451.28,1009.05c-.06-8.18-4.78-9.53.49-21.43,6.54-14.77,14.52-54,17.07-88-4.4-2-22.38-11.23-22.38-11.23s-4.38,35.5-6,53.46-.39,21.92-16.47,15.44-35.56-6.39-30,0,18.78,6.06,26.44,16.36c1.35,1.81-2.83,8.12-11.56,5.79-19.3-5.15-34.46-5.44-45.87-1.64-5.66,1.88-8.34,12.26,8,12.58s35.25,5.18,49.44,4.83c12.9-.33,23.51,1.93,23.51,10.29,0,3.76-2.09,8.27-4.38,12.13C1447.18,1017.73,1451.33,1015.75,1451.28,1009.05Z"/>
        </g>
        <path class="cls-15" d="M1465.53,738.05c-22.4-10.09-67,19.19-32.5,68.31l4.51,3.52s15.07,13.5,27.36,15.87,29.43-3.79,30.24-38.57C1495.77,759.67,1487.94,748.13,1465.53,738.05Z"/>
        <g>
          <path class="cls-23" d="M1413,881.16c2.41,14.47,38.32,54.53,47.88,63.7s21.13,17.56,31.51,21.57c8,3.09,59.61,13.31,82.88,17.84l2.34-24.08s-51.68-9.05-81.46-24c-12-6-33-79.7-51.62-89.28-7.33-3.76-15.84-3.35-23.26,2.06C1422.29,849.32,1410.64,866.8,1413,881.16Z"/>
          <path class="cls-25" d="M1405.19,878c-5.9,27.08,54.53,90.34,82.17,99.8s87.35,12.6,87.35,12.6l.59-6.12c-23.27-4.53-74.88-14.75-82.88-17.84-10.38-4-22-12.4-31.51-21.57s-45.47-49.23-47.88-63.7,9.26-31.84,8.27-32.21C1414.36,854,1408.37,863.41,1405.19,878Z"/>
        </g>
      </g>
      <path class="cls-23" d="M1420.37,790.91c.56,2.87,11.45,22.62,11.45,22.62s6.7-4.52,8.26-16,11.69-28.83,11.69-28.83Z"/>
      <path class="cls-24" d="M1460,713.93c-13.49-4.27-46.44,10.16-52.53,22.93-2.82,5.92,3.36,19.53,2.82,26-.66,7.89-5.47,31.46-5.47,31.46s36,4.42,61.59-10.22c27-15.44,35.53-24,39-35.09-8.32-11-24.5-10.14-31.4-16.21C1468.86,728.37,1466.93,716.13,1460,713.93Z"/>
      <path class="cls-19" d="M1417.82,826.21l-4.12,6.52s27.73,4.87,38.91,12.35a85.82,85.82,0,0,1,13.77,12.26,23.13,23.13,0,0,0-11.88-19.49C1442.27,830.8,1417.82,826.21,1417.82,826.21Z"/>
      <path class="cls-23" d="M1486.15,800.2c-2.69,1.39-7.12,8.32-7.12,8.32s3.41,4.87,11,5A23,23,0,0,0,1500.7,811s-3.15-10.94-6.38-12.43C1492.43,797.74,1488,799.24,1486.15,800.2Z"/>
      <path class="cls-14" d="M1409.83,758v8.57s22.68,3.1,41.94-6.31c21.23-10.38,27.26-24.4,27.26-24.4l-6.75-4.8s-9.27,13.46-24.13,21.66S1409.83,758,1409.83,758Z"/>
      <path class="cls-23" d="M1434.18,807.26s26.79,29,44.85,26.6c8.43-1.13,10.38-7.35,8.93-9.23a21.53,21.53,0,0,1-2.56-5.39s-14.94,4.48-21.87.14-28.86-21.8-28.86-21.8Z"/>
    </g>
    <g>
      <path class="cls-18" d="M2128.1,889.25s-5.91,59.68-6.67,87.75,8.22,54.41,8.22,54.41h-39.87S2098.85,913.38,2128.1,889.25Z"/>
      <polygon class="cls-13" points="2164.7 1204.95 2191.77 1159.84 2166.29 1139.9 2138.56 1188.32 2164.7 1204.95"/>
      <path class="cls-19" d="M2106.2,1013.53s79.32,38.24,103.91,59.76c18.54,16.23,16.46,40,5.82,57.27-9.9,16.1-19.07,28.92-25.45,41.87-26.42,1.82-36.23-22.92-36.23-22.92l18.73-43.92L2106.2,1078Z"/>
      <path class="cls-15" d="M2240.36,964s13.2.49,20.63-.29,17-1.56,23.37,0,10.64,9.11,10.28,13.3-5.53,10.09-9.63,13.86c-2.37,2.16-4.85-4.42-4.46-5.62s-5.18-5.3-12-1.88c-5.5,2.75-17.25,7.93-29.72-.88C2230.89,976.82,2240.36,964,2240.36,964Z"/>
      <g>
        <path class="cls-16" d="M2169,1196.88l.08.06S2169.26,1196.39,2169,1196.88Z"/>
        <path class="cls-22" d="M2137.82,1220.47c10,8.13,25.45,19,32.32,22.64,3.78,2,8.06,3.92,11.21,5.27,2.77-3.24,3-8-1.19-15.37a19.37,19.37,0,0,1-7.95-1.82c-3.85-1.85-12.32-9-17.18-17.28s5.5-13.89,5.5-13.89l5.74,1.87c1.69-3.28,2.4-4.57,2.68-5-.91-.63-17.84-12.4-24.35-11.49-6.25.88-17.82,13.36-23.17,19.5A167,167,0,0,0,2137.82,1220.47Z"/>
        <path class="cls-18" d="M2155,1213.91c4.86,8.3,13.33,15.43,17.18,17.28a19.37,19.37,0,0,0,7.95,1.82c-.43-.75-.79-1.46-1.31-2.27-7.46-11.49-18.28-17.66-14.15-25.79.6-1.18,1.12-2.18,1.57-3.06l-5.74-1.87S2150.17,1205.62,2155,1213.91Z"/>
        <path class="cls-18" d="M2177.72,1251.28a13.41,13.41,0,0,0,3.63-2.9c-3.15-1.35-7.43-3.28-11.21-5.27-6.87-3.63-22.33-14.51-32.32-22.64a167,167,0,0,1-16.39-15.58c-1.77,2-2.86,3.37-2.86,3.37S2148.29,1241.36,2177.72,1251.28Z"/>
      </g>
      <g>
        <path class="cls-20" d="M1965.48,1163.39a109.4,109.4,0,1,0,109.39,109.4A109.53,109.53,0,0,0,1965.48,1163.39ZM2058.2,1270h-86.07L2033,1209.2A92.39,92.39,0,0,1,2058.2,1270Zm-95.48,95.47a92.39,92.39,0,0,1-60.83-25.23l60.83-60.84Zm5.52-86.07,60.83,60.84a92.39,92.39,0,0,1-60.83,25.23Zm0-13.3v-86.07a92.37,92.37,0,0,1,60.83,25.23Zm-2.73-86.21h0Zm-2.79,86.21-60.83-60.84a92.37,92.37,0,0,1,60.83-25.23ZM1898,1209.2l60.84,60.84h-86.07A92.37,92.37,0,0,1,1898,1209.2Zm-25.37,63.55v0Zm.14,2.8h86.07L1898,1336.38A92.37,92.37,0,0,1,1872.76,1275.55ZM2033,1336.38l-60.84-60.83h86.07A92.44,92.44,0,0,1,2033,1336.38Z"/>
        <polygon class="cls-21" points="2387.29 1277.28 2318.69 1103.39 2300.17 1105.84 2371.5 1286.63 2387.29 1277.28"/>
        <path class="cls-21" d="M1989.93,1272.79a24.46,24.46,0,1,1-24.45-24.46A24.45,24.45,0,0,1,1989.93,1272.79Z"/>
        <path class="cls-21" d="M2139,1271.39h0a10.24,10.24,0,0,1-10.32-10.07l-.53-44.34a10.21,10.21,0,0,1,10.07-10.31h0a10.21,10.21,0,0,1,10.31,10.07l.54,44.33A10.23,10.23,0,0,1,2139,1271.39Z"/>
        <path class="cls-23" d="M2303.32,1099.43l-20.14-51-16.93,6.45,5.7,14.47-214.25,54.63-32-57.46-13.58,5.36,32.64,58.57L1956,1277.28h181.89l5.29,4.14,136.76-191.91,6.45,16.33Zm-327.8,166.82,75.4-124.75,69.52,124.75Zm159.73-3.16-68.95-123.72,198.7-55Z"/>
        <path class="cls-23" d="M1978.8,1272.79a13.32,13.32,0,1,1-13.32-13.32A13.32,13.32,0,0,1,1978.8,1272.79Z"/>
        <path class="cls-20" d="M2138.56,1300.86a30.92,30.92,0,1,1,30.92-30.91A31,31,0,0,1,2138.56,1300.86Zm0-56.32A25.41,25.41,0,1,0,2164,1270,25.44,25.44,0,0,0,2138.56,1244.54Z"/>
        <g>
          <path class="cls-20" d="M2152,1269.94a13.46,13.46,0,1,1-13.45-13.45A13.46,13.46,0,0,1,2152,1269.94Z"/>
          <path class="cls-20" d="M2177.35,1314.16h0a10.23,10.23,0,0,1-14.38-1.08l-28.9-33.61a10.23,10.23,0,0,1,1.08-14.38h0a10.21,10.21,0,0,1,14.37,1.08l28.91,33.62A10.21,10.21,0,0,1,2177.35,1314.16Z"/>
        </g>
        <g>
          <path class="cls-20" d="M2376.09,1163.4a109.4,109.4,0,1,0,109.4,109.39A109.51,109.51,0,0,0,2376.09,1163.4ZM2468.81,1270h-86.06l60.83-60.84A92.39,92.39,0,0,1,2468.81,1270Zm-95.47,95.47a92.39,92.39,0,0,1-60.84-25.23l60.84-60.83Zm5.51-86.06,60.83,60.83a92.35,92.35,0,0,1-60.83,25.23Zm0-13.31v-86.07a92.4,92.4,0,0,1,60.84,25.24Zm-2.72-86.21h0Zm-2.79,86.21-60.84-60.84a92.39,92.39,0,0,1,60.84-25.23Zm-64.74-56.94,60.84,60.84h-86.07A92.44,92.44,0,0,1,2308.6,1209.2Zm-25.37,63.55v0Zm.14,2.8h86.07l-60.83,60.83A92.4,92.4,0,0,1,2283.37,1275.55Zm160.21,60.83-60.83-60.83h86.06A92.37,92.37,0,0,1,2443.58,1336.38Z"/>
          <path class="cls-21" d="M2400.55,1272.79a24.46,24.46,0,1,1-24.46-24.45A24.46,24.46,0,0,1,2400.55,1272.79Z"/>
          <path class="cls-23" d="M2389.41,1272.79a13.32,13.32,0,1,1-13.32-13.32A13.32,13.32,0,0,1,2389.41,1272.79Z"/>
        </g>
        <path class="cls-21" d="M2284.71,1101.64s4.35,11.59,6.24,16.41c4.34-.9,7.22-2.11,10.66-1.8,3.27.29,4.52,4.7,6.1,8.69,4.07,10.32,15.51-10.06,15.51-10.06s-2.68-7.58-5.11-13.15-10.1-8.56-22.14-4.2C2286,1101.15,2284.71,1101.64,2284.71,1101.64Z"/>
        <path class="cls-20" d="M2036.71,1076.05a2.93,2.93,0,0,0-4-1.21l-.67.36-5.86-13-17.37,8.27,8.09,12.81a2.93,2.93,0,0,0,2.75,5.17l15.81-8.41A2.94,2.94,0,0,0,2036.71,1076.05Z"/>
        <g>
          <path class="cls-24" d="M1983.11,1064.69c13.43,4.22,19.68,7,28,5.08,6.4-1.49,35.94-15.1,49-21.19-4.46-4.12-12.6-9.53-23.52-7.77-17.07,2.76-52.28,5.62-77.11,13.44-6,1.9-6.11,7.14-5.26,10.9C1961.37,1063.67,1974,1061.83,1983.11,1064.69Z"/>
          <path class="cls-14" d="M1979,1069.92c6,1,15.14,4.54,21,7,3.4,1.42,12.4-.31,15.53-1.64,18.31-7.73,48.38-22.46,48.38-22.46a30.73,30.73,0,0,0-3.86-4.24c-13.06,6.09-42.6,19.7-49,21.19-8.27,1.93-14.52-.86-28-5.08-9.11-2.86-21.74-1-28.94.46a20.93,20.93,0,0,0,1.43,4.17S1969.56,1068.37,1979,1069.92Z"/>
        </g>
        <path class="cls-20" d="M2272,1012c2.68-5.85,9.8-10.54,11.72-16.41,1.62-5-.4-13.57-1-16.77-.21-1.07-16.41,4-16.41,4s2.52,5.25,0,10.47c-1.53,3.16-4.54,6.07-7.13,8.73-4,4.13-5,6.93-5,6.93h0c-3.26,7.29,1.36,18.54,1.36,18.54l1.47,3.74-2.1.94a3.55,3.55,0,1,0,2.91,6.48l1.78-.8,6.67,17,16.93-6.45-7-18,1.47-.66a3.55,3.55,0,1,0-2.91-6.48l-1.16.53-2.19-5.59C2270.4,1015.93,2271.19,1013.73,2272,1012Z"/>
        <path class="cls-21" d="M2285,977.88a10.6,10.6,0,1,1-10.59-10.59A10.59,10.59,0,0,1,2285,977.88Z"/>
      </g>
      <path class="cls-13" d="M2100.17,845.61l19.66,12.11a3.45,3.45,0,0,0,4.76-1.12l19.22-31.22a3.46,3.46,0,0,0-1.13-4.76l-19.77-23.06c-1.62-1-1.44,7.75-2.44,9.38L2099,840.86A3.45,3.45,0,0,0,2100.17,845.61Z"/>
      <g>
        <path class="cls-16" d="M2174.64,1235.53l.1,0S2174.49,1235,2174.64,1235.53Z"/>
        <path class="cls-22" d="M2173.53,1278.92c14.24-2,34.88-6.41,43.07-9.29,4.49-1.57,9.33-3.62,12.83-5.17-.55-4.74-4.25-8.53-13.5-10.69a21.73,21.73,0,0,1-7.52,5.13c-4.44,1.74-16.71,3.27-27.19,1s-7.21-15-7.21-15,2.78-1.56,5.89-3.28c-1.4-3.88-1.92-5.44-2.07-6-1.21.26-23.69,5.2-27.89,11.22-4,5.78-2.58,24.73-1.61,33.78A186.42,186.42,0,0,0,2173.53,1278.92Z"/>
        <path class="cls-18" d="M2181.22,1259.86c10.48,2.31,22.75.78,27.19-1a21.73,21.73,0,0,0,7.52-5.13c-.94-.22-1.8-.46-2.85-.65-15.07-2.62-28.34,1.56-31.86-8l-1.32-3.61c-3.11,1.72-5.89,3.28-5.89,3.28S2170.74,1257.54,2181.22,1259.86Z"/>
        <path class="cls-18" d="M2229.05,1269.63a15.15,15.15,0,0,0,.38-5.17c-3.5,1.55-8.34,3.6-12.83,5.17-8.19,2.88-28.83,7.28-43.07,9.29a186.42,186.42,0,0,1-25.2,1.61c.32,3,.58,4.9.58,4.9S2198.58,1286.21,2229.05,1269.63Z"/>
      </g>
      <path class="cls-15" d="M2128.16,1188.48c9,27.21,19.79,65,19.79,65s8.85.49,16.37-3.54c3-1.61,12.33-4.79,12.33-4.79l-10.6-68.89S2149.64,1168.53,2128.16,1188.48Z"/>
      <path class="cls-17" d="M2026.44,967.29s-20.89,26.84-17.39,63.81c1.48,15.75,18.17,25.5,35.29,39.38,24.17,19.59,54.19,28.55,63.51,57.38,4.29,13.25,11.38,41,17.83,63.13,15.25-2.75,30.7-11.06,46.62-13.61-2.82-12.85-5.56-37.51-10.82-67.25s-65.13-116-65.13-116Z"/>
      <g>
        <path class="cls-24" d="M2107.88,1011.82s1.75-34.16,9.24-54.84c4.67-12.87,19.7-32.37,20.79-46.73,2.38-31.29-6.06-54.37-6.7-64.18-5.09-.5-9.39-3.15-12.89-6.32-6,23.11-22.58,69-25.66,87-1.64,9.63-8.31,24.52-14.47,37.31a247.49,247.49,0,0,0-14.27,38.66s3.95,5.21,8.31,7.21C2088.22,1017.26,2107.88,1011.82,2107.88,1011.82Z"/>
        <path class="cls-22" d="M2123.8,849.81c-11.2-7-15.62-23.79-15.62-23.79s-35.47.07-60.2,38.78c-18.91,29.6-25,84.3-64.38,126.51,15.44,25.44,50.23,36.42,75,36,4.5-34.75,30.69-73.13,37.78-96C2103.26,908.91,2119.94,876.22,2123.8,849.81Z"/>
        <path class="cls-18" d="M2111.25,820.24a27.21,27.21,0,0,0-12.72,3.86c-4.22,2.59-4.39,4.42-4.39,4.42s15.78,8.49,19,16.75a165.21,165.21,0,0,1,8.26,31,38.33,38.33,0,0,0,5.6-23.6A51.32,51.32,0,0,0,2111.25,820.24Z"/>
      </g>
      <path class="cls-15" d="M2165.18,745.5c-19.9-14.41-69.54,5.23-45.65,60.33l3.7,4.36s12,16.26,23.59,21.07,29.59,2.23,37.41-31.66C2190.42,772.78,2185.08,759.9,2165.18,745.5Z"/>
      <path class="cls-23" d="M2114.87,778s-11.82,11.1-17.61,1c-4.48-7.83-4.7-7.16-10.89-7.92-8.26-1-12-17-8.58-23.93,4-8,9.56-2.75,13.19-7.72s-1.69-11.1,2.69-16.56c3.36-4.21,12-3.34,16.77-1.83s5.68-6.7,14.4-7.5,14.16-.14,14.89,9.24c.55,7.14,12.3,5.31,8.49,16.5C2147.1,742.53,2114.87,778,2114.87,778Z"/>
      <path class="cls-22" d="M2118.34,755s-.37-19.86,17.28-25.74c17.38-5.8,30.65,4.1,31.13,21S2118.34,755,2118.34,755Z"/>
      <path class="cls-23" d="M2118.88,809.45s7.15-8.57,7.25-16.08c.13-9.66-1.29-16.73,6-17.11,8.32-.44,8.81,10.77,8.81,10.77s15.2,0,32.1-12.16c5.31,3.85,13.64,6,13.64,6s1.56-36-32.71-42.72-41.76,28-40.79,41.75S2114.57,803,2118.88,809.45Z"/>
      <g>
        <path class="cls-22" d="M2079.16,882c2.41,14.48,38.32,54.54,47.87,63.71s21.14,17.56,31.52,21.57c8,3.09,59.61,13.31,82.88,17.84l2.33-24.09s-51.67-9-81.46-24c-12-6-33-79.7-51.61-89.28-7.33-3.77-15.84-3.35-23.26,2.06C2088.41,850.17,2076.76,867.65,2079.16,882Z"/>
        <path class="cls-18" d="M2071.32,878.84c-5.91,27.08,54.53,90.35,82.16,99.81s87.35,12.6,87.35,12.6l.6-6.12c-23.27-4.53-74.89-14.75-82.88-17.84-10.38-4-22-12.4-31.52-21.57s-45.46-49.23-47.87-63.71,9.25-31.84,8.27-32.2C2080.49,854.86,2074.5,864.26,2071.32,878.84Z"/>
      </g>
      <polygon class="cls-18" points="2048.75 967.29 2020.41 977 2020.41 983.12 2050.68 973.71 2048.75 967.29"/>
      <path class="cls-18" d="M2147.26,1256.49l-1.82-5.21s10.82-10.53,20.21-15.75,12.18,0,12.18,0l4.42,11.59S2159.87,1255.86,2147.26,1256.49Z"/>
    </g>
    <g>
      <path class="cls-15" d="M507.37,1054.86c-9.19,6.82-42,40.86-47.34,52.84s-5.27,33.89-9.33,37.29-39.27,13.38-59.6,35.37-38.45,59.87-58.6,73.26,13.93,60.16,13.93,60.16-4.72-19,5.56-28.6c5.51-5.15,30.53-35.71,60.14-60.14,25.66-21.16,53.09-34.57,58.66-37.5,13.71-7.18,21.22-5.33,26.39-18.21,8.56-21.35,14.89-62.93,21.56-72.59C529.43,1081.27,545.19,1026.78,507.37,1054.86Z"/>
      <path class="cls-15" d="M523.49,879.45c-6.17-8.34-16.26-14.46-32.16.74-12.5,11.94-19.24,34-31.25,46.88-10.11,10.82-16.43,21.58-21,29.82-3.76,6.71-7,11.75-5,13.89,0,0,13.23,19.62,45.19,23.45,22.77,2.73,40.72,8.54,53.24,12.09s18.48,3.33,22.65,1.17,14.74-24.13,12-28.85-13.85-4.41-20.12-4.81-13.92,6.91-21.47,6.82-51.06-17.76-51.06-17.76,20.3-31.33,32.68-43.17C522.16,905.43,532.81,892.07,523.49,879.45Z"/>
      <path class="cls-13" d="M536.46,827.83s-8.87,12.71-16.46,21.54c-4.7,5.47-12.31,13.3-12.31,13.3s5.55,10.86,13.78,15.61,20,5.8,20,5.8,1.7-12.37,7.45-21.93c3-4.92,13.28-18.83,13.28-18.83L543.59,819.2Z"/>
      <path class="cls-20" d="M478.16,997.16S461,1030.71,458.59,1060c-3.52,43.11-7.89,85-7.89,85s7.34,8.06,24.55,12.75,25.27,2,25.27,2l27.59-80.68Z"/>
      <path class="cls-15" d="M491.39,1080.81c1.09,11.4,22.46,53.59,29.93,64.39s18.83,24.37,19.64,29.61-9.17,38.41-.86,67.18,30.63,85.57,36.86,109c6.37,23.89,34.12-4.25,31.2-18-1.56-7.38-11.12-48.25-16.71-86.23-4.85-32.91-4.34-70.69-5.31-76.91-2.08-13.4-27.56-86-35.27-103.17S486.92,1033.93,491.39,1080.81Z"/>
      <path class="cls-21" d="M479,1003a134.7,134.7,0,0,0-8.18,49.38c.7,21.67,21,53.72,29.66,69.83s39.59,50.09,39.59,50.09,27.88-6.27,40.63-22.18c-12.58-38.44-25.8-90.66-28.6-109s-10.2-40.76-10.2-40.76Z"/>
      <path class="cls-23" d="M561.51,922.36c-8.54-22.51-7.72-38.28-37.39-56.48-8.31-5.09-14.11-8.58-14.11-8.58a84.05,84.05,0,0,0-16.62,12.83c-8.63,8.82-18.14,24.48-18.14,57.47,0,65.67-14,88-14,88s25.09,9.78,46.47,14.9c12.18,2.91,42.07-1.66,42.07-1.66s-9.34-34.1,1.14-54.8C560,956,567.61,938.44,561.51,922.36Z"/>
      <path class="cls-15" d="M515.07,880.25c-10.29-1.31-21.68,1.75-21.68,23.75,0,17.29,11.3,37.42,12.29,55,.84,14.79,4.25,26.78,7,35.81,2.26,7.35,3.64,13.2,6.6,13.2,0,0,23.32,4,48.17-16.46C585.18,977,601.78,968,613,961.41s15.18-11.06,16.5-15.57S622.24,918.52,617,917.2s-12.76,7-17.38,11.22-4.61,14.84-9.89,20.23-48.13,24.64-48.13,24.64-8.62-36.32-8.62-53.45C532.94,899.16,530.64,882.22,515.07,880.25Z"/>
      <path class="cls-15" d="M581.55,771.6c-19.92-14.42-69.62,5.24-45.7,60.4l3.7,4.37s12.05,16.28,23.62,21.1,29.63,2.23,37.46-31.7C606.82,798.92,601.47,786,581.55,771.6Z"/>
      <path class="cls-23" d="M565.3,763.48c0,12.47-10.72,22.57-23.93,22.57s-23.94-10.1-23.94-22.57,10.72-22.57,23.94-22.57S565.3,751,565.3,763.48Z"/>
      <path class="cls-23" d="M534.26,832.21l17.23-23.65s21,4.62,37.92-7.55c5.32,3.86,13.65,6,13.65,6s1.57-36-32.74-42.76-45,30.74-42.45,44.27C530.1,820.67,532.53,822.41,534.26,832.21Z"/>
      <path class="cls-21" d="M532.76,782.24s20.42,7,36,8.73a188.47,188.47,0,0,0,31.91.53s4.16,2.22,4.68,6.48c1,8.58-2.34,10.21-2.34,10.21s-29.9,2.39-56.82-5a60.3,60.3,0,0,1-18.36-8.4C525.1,785.38,532.76,782.24,532.76,782.24Z"/>
      <path class="cls-15" d="M560,811.35s-2.08-15.78-12.11-11-4.8,23.19-4.8,23.19Z"/>
      <g>
        <path class="cls-23" d="M595.91,1369.12c7.59,4,12.5,4.46,28.58,0s38.4-13.4,42.42-22.78c2.79-6.5,3.88-11.45,5.91-14.5-4.41-.79-10.71.43-18,3.87-8.43,4-42.73,1.58-42.73,1.58L577,1350.94a133.52,133.52,0,0,1,4,16.89C584.87,1366.94,590.86,1366.44,595.91,1369.12Z"/>
        <path class="cls-21" d="M604.84,1380.73c14.29-1.5,41.08-10.48,52.7-18.76s21.68-17.87,21.88-22.33-2.31-7-6.6-7.8c-2,3.05-3.12,8-5.91,14.5-4,9.38-26.34,18.31-42.42,22.78s-21,4-28.58,0c-5-2.68-11-2.18-15-1.29.09.49.18.94.26,1.44C583,1380.15,590.55,1382.22,604.84,1380.73Z"/>
        <path class="cls-21" d="M574.37,1345.21l3.54,9s17-1.28,25.44-6.21,11.32-10.54,11.32-10.54l-6.31-5.83a33.85,33.85,0,0,1-10.67,9.82C587.67,1347.28,574.37,1345.21,574.37,1345.21Z"/>
      </g>
      <g>
        <path class="cls-23" d="M319.68,1283.14c-.51,8.57,1.12,13.23,11.85,26s28.12,29.4,38.32,29.17c7.07-.16,12-1.22,15.65-.64-1.12-4.34-4.84-9.57-11-14.75-7.13-6-19.15-38.22-19.15-38.22l-27-26.34A136.35,136.35,0,0,1,314.64,1269C317.08,1272.19,320,1277.43,319.68,1283.14Z"/>
        <path class="cls-21" d="M312.81,1296.08c7.29,12.38,26.58,33,38.92,40.17s25.26,12.32,29.4,10.66,5.45-5,4.37-9.24c-3.62-.58-8.58.48-15.65.64-10.2.23-27.59-16.39-38.32-29.17s-12.36-17.43-11.85-26c.33-5.71-2.6-11-5-14.15l-1.2.83C304.28,1276,305.53,1283.7,312.81,1296.08Z"/>
        <path class="cls-21" d="M332.5,1253.62l-6.7,7s8.2,14.92,16.2,20.57,14.28,5.94,14.28,5.94l2.7-8.16a33.93,33.93,0,0,1-13.37-5.64C336.13,1266.58,332.5,1253.62,332.5,1253.62Z"/>
      </g>
    </g>
    <g>
      <path class="cls-15" d="M834.67,1009.78c-4.7-4.8-26.32-8.82-34.67-12s-49.5-50.84-49.5-50.84l41-20.77L760,876.3s-22.05,17.58-32.42,30.08c-6.2,5.66-11.48,10.4-13.79,12.23-7.46,5.93-11.93,19.44-14.06,22.91s13.48,18.8,22.43,32.89,50.25,31.82,67.43,47.15c4.61,4.13,13.63,14.77,25.31,15.43C825.08,1037.56,839.37,1014.58,834.67,1009.78Z"/>
      <path class="cls-15" d="M738.8,1166.59c-1.29,2.83,0,16.58-9.17,20.63-19.42,8.58-123.25,85.86-123.25,85.86s0,38.11,24,27.33c47.88-21.54,101.32-60.2,137.2-78,14.31-7.1,17.23-14.08,19.85-26.14.75-3.47,3.37-13.68,4.27-18.47C769.91,1179.22,754.87,1180.85,738.8,1166.59Z"/>
      <g>
        <path class="cls-14" d="M763.58,1184.21c-18-6.41-32-17.23-38.56-22.86a78,78,0,0,0-2.32,7.62c17.41,16.22,49.09,29.32,73.44,27.06.36-2,.73-4.1,1.1-6.22C789.86,1190.11,778.13,1189.4,763.58,1184.21Z"/>
        <path class="cls-14" d="M798.67,1181.48c7.85-46.21,17.05-109.76,17.05-109.76s-61.85-43.34-76.92-32.75c-16.65,40-1.16,58-7.38,101.33a77.86,77.86,0,0,1-3.77,13.58c6.2,4.72,21.13,15.21,38.31,21A120.53,120.53,0,0,0,798.67,1181.48Z"/>
        <path class="cls-21" d="M766,1174.93c-17.18-5.84-32.11-16.33-38.31-21-.89,2.55-1.79,5.07-2.63,7.47,6.55,5.63,20.61,16.45,38.56,22.86,14.55,5.19,26.28,5.9,33.66,5.6q.71-4.05,1.43-8.33A120.53,120.53,0,0,1,766,1174.93Z"/>
      </g>
      <path class="cls-15" d="M902.94,1231.55a253,253,0,0,0-14.76-59.75c-2.35-6-5.17-12.87-8.3-20.34-12.83,20.39-33.27,29.13-57.36,28.73,8.42,12.38,21.76,23.93,23.91,30.76,2.33,7.45,4.72,21.35,5.66,39.52,2.34,45.25,33.44,87.71,44.87,118.35,37.75,1.11,32-14.93,32-14.93S910.54,1297.35,902.94,1231.55Z"/>
      <g>
        <path class="cls-24" d="M878.88,1141.89c-14.8-34.05-33-74.13-47.76-106.1-1-2.12,0-4.53,0-6.53-7.16-7.36-18.22-12.12-30.56-15.13l-54,17.31c-3.22,11.15-13.68,23.33-3.2,55.66,6.83,21,34,59.4,59.73,85.6,2.94,3,5.71,6.14,8.42,9.3,8.69-.37,25.12-2.52,40.59-12.53C862,1163.07,872.27,1150.68,878.88,1141.89Z"/>
        <path class="cls-24" d="M857.66,1175.73c-14.95,11.62-29.41,14.48-39.35,14.73,1,1.3,2.1,2.59,3.06,3.89,26.27,3.18,52.45-12.93,64.55-36.1-.86-2-1.8-4.19-2.69-6.27A179.43,179.43,0,0,1,857.66,1175.73Z"/>
        <path class="cls-21" d="M883.23,1152c-1.43-3.32-2.85-6.63-4.35-10.09-6.61,8.79-16.9,21.18-26.79,27.58-15.47,10-31.9,12.16-40.59,12.53,2.38,2.8,4.61,5.61,6.81,8.46,9.94-.25,24.4-3.11,39.35-14.73A179.43,179.43,0,0,0,883.23,1152Z"/>
      </g>
      <path class="cls-13" d="M822.28,782.26s-12,21.29-39.35,43.13c-5,4,15.73,13.92,19.59,16.37s38.54,26.76,38.54,26.76a249.24,249.24,0,0,0-8.41-25.35c-1.32-3.51.42-9.41,3.9-13.27,6.42-7.12,16.22-16.25,16.22-16.25Z"/>
      <g>
        <path class="cls-21" d="M821.71,1025.52c8.28-1.53,18.17-3.31,26.48-4.78,2.28-31.12,5.21-79.5,3.25-101.51-1.14-12.83-2.89-28.29-7.47-40.61a185.48,185.48,0,0,0-26.21-47.06l-22.9-16s-20.23,13-32.8,32.48c-15.51,24-19.18,57-23.26,100.43-1.63,17.3-8.84,35.54-16.1,50.19,8.54,4.43,21.63,11,37.29,18.31C788.11,1030,801.58,1029.24,821.71,1025.52Z"/>
        <path class="cls-21" d="M762.09,1041.9c-13.93-6-38.2-18.42-49.77-24.39-3.82,6.31-6.5,10.14-6.5,10.14s42,27.45,76.35,32.26c23.92,3.35,63.75-10.76,63.75-10.76s.19-2.17.51-5.91c-8.58,1.22-18.82,2.81-27,4.47C802.2,1051.23,785.76,1052.17,762.09,1041.9Z"/>
        <path class="cls-21" d="M821.48,1032.89c-17.27,3.52-33.71,4.46-57.38-5.81-12.18-5.28-32.22-15.39-44.81-21.84-1.09,2-2.15,4-3.18,5.8,7.94,4.19,23,12,41.87,20.71,28.12,13,41.59,12.3,61.72,8.59,8.58-1.59,18.88-3.44,27.37-4.95q.24-3.15.53-6.85C839.2,1029.74,829.35,1031.28,821.48,1032.89Z"/>
        <path class="cls-24" d="M758,1031.75c-18.83-8.74-33.93-16.52-41.87-20.71-1.35,2.36-2.62,4.54-3.79,6.47,11.57,6,35.84,18.35,49.77,24.39,23.67,10.27,40.11,9.33,57.38,5.81,8.14-1.66,18.38-3.25,27-4.47.17-2.13.39-4.78.64-7.85-8.49,1.51-18.79,3.36-27.37,4.95C799.57,1044.05,786.1,1044.8,758,1031.75Z"/>
        <path class="cls-24" d="M821.48,1032.89c7.87-1.61,17.72-3.15,26.12-4.35q.28-3.68.59-7.8c-8.31,1.47-18.2,3.25-26.48,4.78-20.13,3.72-33.6,4.46-61.72-8.59-15.66-7.27-28.75-13.88-37.29-18.31-1.15,2.3-2.28,4.51-3.41,6.62,12.59,6.45,32.63,16.56,44.81,21.84C787.77,1037.35,804.21,1036.41,821.48,1032.89Z"/>
      </g>
      <path class="cls-15" d="M927.94,916.83c-6.47,1.8-23.43,17.95-30.28,23.71S833,955.78,833,955.78s-3.1-47.39-3.19-57.41c-.45-51.16-18.23-62-37-59.19-19.24,2.88-31.24,24.71-22.39,61.61,7.21,30.06,16,68.71,18,78.24,2,9.33,10.24,17.51,13.1,20.42,3.58,3.64,8,1.82,16.71,1.15,7.16-.56,16.94-2.85,25.64-4.39,16.44-2.9,81.93-34.24,81.93-34.24s20.26-3.92,19.26-15.58S934.42,915,927.94,916.83Z"/>
      <g>
        <path class="cls-15" d="M855.23,716.61c-10.92-4-28.19-.62-38.86,9-13.9,12.57-20.2,35.89,1,66.12l4.9,3.83s16.4,14.68,29.77,17.27,33.65-4.13,32.9-42C884.3,736.61,878.85,725.2,855.23,716.61Z"/>
        <path class="cls-23" d="M804.54,742.24c-11.26,18.54,6.32,31.58,8.37,53.31,0,0,4.69-3.87,6.38-16.34S832,747.83,832,747.83Z"/>
        <path class="cls-23" d="M875.21,785.06c-2.93,1.52-7.74,9.06-7.74,9.06s3.7,5.29,12,5.38A25,25,0,0,0,891,796.86s-3.42-11.91-6.94-13.53C882,782.38,877.22,784,875.21,785.06Z"/>
        <path class="cls-23" d="M814.29,788.17c-4.38-4.58,32.91,35.49,53.18,33.52,9.2-.9,11.29-8,9.71-10a23.9,23.9,0,0,1-2.79-5.87s-16.51,5.27-23.79.15c-18.79-13.18-33.06-30.65-33.06-30.65Z"/>
        <path class="cls-26" d="M811.56,730.85S834.42,741.25,850,743a132.24,132.24,0,0,0,31.83-.74s5.49,2.37,5.51,6.67c0,5.93-3.15,7.58-3.15,7.58s-31,4.46-57.93-2.88c-8.25-2.25-18.62-9-21.76-11.37C803.64,732.76,811.56,730.85,811.56,730.85Z"/>
        <path class="cls-15" d="M823.33,771.66s-11.37-15.58,1.24-20,11.13,6.43,11.13,6.43Z"/>
      </g>
      <path class="cls-24" d="M791.55,818.08s20.65,12.28,27.08,20.7,16.66,35.21,21,37.52l4.34,2.32-2.91-10.1S830,843.32,819.7,831.26a74.83,74.83,0,0,0-23.06-17.9Z"/>
      <g>
        <path class="cls-24" d="M913,1380c7.59,4,12.51,4.47,28.58,0S980,1366.57,984,1357.19c2.79-6.5,3.88-11.46,5.91-14.51-4.41-.78-10.72.43-18,3.88-8.42,4-42.72,1.57-42.72,1.57l-35.17,13.66a135.68,135.68,0,0,1,4,16.89C902,1377.79,908,1377.29,913,1380Z"/>
        <path class="cls-14" d="M922,1391.58c14.3-1.5,41.09-10.49,52.7-18.76s21.68-17.87,21.88-22.33-2.31-7-6.59-7.81c-2,3-3.12,8-5.91,14.51-4,9.38-26.35,18.31-42.43,22.77s-21,4-28.58,0c-5-2.67-11-2.17-15-1.28.08.48.17.94.26,1.44C900.11,1391,907.67,1393.07,922,1391.58Z"/>
        <path class="cls-14" d="M891.49,1356.06l3.54,9s17-1.27,25.45-6.2,11.32-10.54,11.32-10.54l-6.31-5.84a34,34,0,0,1-10.67,9.83C904.79,1358.13,891.49,1356.06,891.49,1356.06Z"/>
      </g>
      <g>
        <path class="cls-24" d="M590.28,1296.49c-2.42,8.24-1.88,13.14,5.69,28s20.77,35,30.76,37c6.93,1.43,12,1.52,15.39,2.9-.1-4.48-2.55-10.41-7.37-16.84-5.59-7.45-10-41.55-10-41.55l-20.39-31.75a134.18,134.18,0,0,1-15.75,7.26C590.22,1285.24,591.9,1291,590.28,1296.49Z"/>
        <path class="cls-14" d="M580.68,1307.55c4.31,13.71,18.45,38.18,28.87,47.92s21.82,17.69,26.24,17,6.44-3.67,6.33-8c-3.39-1.38-8.46-1.47-15.39-2.9-10-2.08-23.18-22.18-30.76-37s-8.11-19.77-5.69-28c1.62-5.48-.06-11.25-1.71-14.92l-1.36.54C576.9,1286,576.37,1293.85,580.68,1307.55Z"/>
        <path class="cls-14" d="M609.43,1270.63l-8.1,5.25s4.63,16.39,11.15,23.7,12.58,9,12.58,9l4.46-7.34a34,34,0,0,1-11.75-8.51C610,1284.07,609.43,1270.63,609.43,1270.63Z"/>
      </g>
    </g>
    <g>
      <path class="cls-25" d="M1158.61,1334.79s8.8,18.11,19.59,35.64,16,21,24.23,21.62,14-2.34,8.47-6.86c-1.52-1.25-9.1-8.22-12.56-14.76s-13.52-28.63-13.52-28.63Z"/>
      <path class="cls-25" d="M1044.15,1315.45s-11.76,17.53-22.27,23.27c-11.55,6.31,6.42,35.69,12.56,42.72s12.42,3.83,9.06-6.87-7-21.24-7-21.24,28-.5,38.57-16.22c4.8-7.18,10.52-29.12,10.52-29.12Z"/>
      <path class="cls-25" d="M1194.55,1224.2s2.62-11,7.88-13.29,7.6,7.3,8.47,13.29,5.54,22.76,5.54,22.76l-12.81,6.61S1191.35,1232.49,1194.55,1224.2Z"/>
      <path class="cls-23" d="M1079.14,1257.66c3.39,1.16,42.43,20.85,52.89,22.68s30.4,9.28,36.11,5.55,12.35-11.52,14.25-19.87,4.11-10.5,13.61-18.3,26.66.66,33.31,7.45,5.89,14.53,15.11,19.89c7.24,4.22,21.59,8.6,21.59,8.6s-10.45,14-13.3,15.51-13.76,3.57-23.76,1.48c-5.17-1.09-22.43-5.6-22.43-5.6s-4.53,12.52-2.63,20.16,4.16,21.9,8,29.59,12.85,13.65,21.4,15.55,24-4.06,29,1.2c2,2.12-.39,4.41-7,9.32s-18.61,4.7-29.06,3.14-26-7.08-39.45-14.1c-6.27-3.27-24.57-24-45.12-25.18-32.3-1.79-67.53-16.12-67.53-16.12s-6.59,15.47-22.74,16.12-36.11,4.63-41.82,7.4-17.1,21.34-24.7,26.16c-3,1.9-12.24,3-5.7-13,3.54-8.66,16.15-32.31,21.85-35.16s18.06,0,24.71-2.85,8.55-25.95,11.4-33.88S1054,1249,1079.14,1257.66Z"/>
      <path class="cls-23" d="M1210.9,1248.25s-14.9-21.56-21-31.2-13.15,5.79-11.4,15.6,11.4,31,11.4,31Z"/>
      <path class="cls-23" d="M1075.1,1194.87c-7.6,0-19.9,5-23.27,22.18-2.48,12.6,6.32,52.2,6.32,52.2l22.16-9.25s-14.5-21-14.72-39.94C1065.41,1203.61,1075.1,1194.87,1075.1,1194.87Z"/>
      <path class="cls-21" d="M1176.1,1278.43l-8,7.46a140.72,140.72,0,0,0,17.7,9.16c10.16,4.39,18.56,7.69,18.56,7.69l2.12-7.69s-8.52-4.18-15.34-7.88C1181.1,1281.69,1176.1,1278.43,1176.1,1278.43Z"/>
    </g>
  </g>
</svg>
