<svg xmlns="http://www.w3.org/2000/svg" xmlns:xlink="http://www.w3.org/1999/xlink" width="3112.67" height="3112.67" viewBox="0 0 3112.67 3112.67">
  <defs>
    <style>
      .cls-1 {
        fill: url(#linear-gradient);
      }

      .cls-2 {
        fill: #91b3fa;
      }

      .cls-3 {
        fill: #fcfcfc;
        opacity: 0.42;
      }

      .cls-4 {
        fill: #bdd0fb;
      }

      .cls-5 {
        fill: url(#linear-gradient-2);
      }

      .cls-6 {
        fill: #7d97f4;
      }

      .cls-7 {
        fill: url(#linear-gradient-3);
      }

      .cls-8 {
        fill: url(#linear-gradient-4);
      }

      .cls-9 {
        fill: url(#linear-gradient-5);
      }

      .cls-10 {
        fill: url(#linear-gradient-6);
      }

      .cls-11 {
        fill: url(#linear-gradient-7);
      }

      .cls-12 {
        fill: url(#linear-gradient-8);
      }

      .cls-13 {
        fill: url(#linear-gradient-9);
      }

      .cls-14 {
        fill: url(#linear-gradient-10);
      }

      .cls-15 {
        fill: url(#linear-gradient-11);
      }

      .cls-16 {
        fill: url(#linear-gradient-12);
      }

      .cls-17 {
        fill: url(#linear-gradient-13);
      }

      .cls-18 {
        fill: url(#linear-gradient-14);
      }

      .cls-19 {
        fill: url(#linear-gradient-15);
      }

      .cls-20 {
        fill: url(#linear-gradient-16);
      }

      .cls-21 {
        fill: url(#linear-gradient-17);
      }

      .cls-22 {
        fill: url(#linear-gradient-18);
      }

      .cls-23 {
        fill: url(#linear-gradient-19);
      }

      .cls-24 {
        fill: url(#linear-gradient-20);
      }

      .cls-25 {
        fill: url(#linear-gradient-21);
      }

      .cls-26 {
        fill: url(#linear-gradient-22);
      }

      .cls-27 {
        fill: url(#linear-gradient-23);
      }

      .cls-28 {
        fill: url(#linear-gradient-24);
      }

      .cls-29 {
        fill: url(#linear-gradient-25);
      }

      .cls-30 {
        fill: url(#linear-gradient-26);
      }

      .cls-31 {
        fill: url(#linear-gradient-27);
      }

      .cls-32 {
        fill: url(#linear-gradient-28);
      }

      .cls-33 {
        fill: url(#linear-gradient-29);
      }

      .cls-34 {
        fill: url(#linear-gradient-30);
      }

      .cls-35 {
        fill: url(#linear-gradient-31);
      }

      .cls-36 {
        fill: url(#linear-gradient-32);
      }

      .cls-37 {
        fill: url(#linear-gradient-33);
      }

      .cls-38 {
        fill: url(#linear-gradient-34);
      }

      .cls-39 {
        fill: url(#linear-gradient-35);
      }

      .cls-40 {
        fill: url(#linear-gradient-36);
      }

      .cls-41 {
        fill: #fff;
        opacity: 0.62;
      }
    </style>
    <linearGradient id="linear-gradient" x1="3287.56" y1="3755.44" x2="820.65" y2="691.69" gradientUnits="userSpaceOnUse">
      <stop offset="0" stop-color="#dae3fe"/>
      <stop offset="1" stop-color="#e9effd"/>
    </linearGradient>
    <linearGradient id="linear-gradient-2" x1="178.68" y1="2432.09" x2="2813.78" y2="2432.09" gradientUnits="userSpaceOnUse">
      <stop offset="0" stop-color="#4f52ff"/>
      <stop offset="1" stop-color="#4042e2"/>
    </linearGradient>
    <linearGradient id="linear-gradient-3" x1="6376.19" y1="12623.16" x2="6419.49" y2="12808.6" gradientTransform="matrix(0.81, 0.6, -0.47, 1, -1001.29, 2470.42)" gradientUnits="userSpaceOnUse">
      <stop offset="0" stop-color="#09005d"/>
      <stop offset="1" stop-color="#1a0f91"/>
    </linearGradient>
    <linearGradient id="linear-gradient-4" x1="2716.18" y1="-2827.4" x2="2801.32" y2="-2827.4" gradientTransform="matrix(0.81, 0.6, -0.47, 1, -1001.29, 2470.42)" xlink:href="#linear-gradient-2"/>
    <linearGradient id="linear-gradient-5" x1="3133.58" y1="6643.31" x2="3176.89" y2="6828.74" gradientTransform="translate(1310.01 -69.47) rotate(26)" xlink:href="#linear-gradient-3"/>
    <linearGradient id="linear-gradient-6" x1="1680.15" y1="628.18" x2="1757.66" y2="628.18" gradientTransform="translate(1310.01 -69.47) rotate(26)" xlink:href="#linear-gradient-2"/>
    <linearGradient id="linear-gradient-7" x1="4476.88" y1="814.1" x2="4942.36" y2="814.1" gradientTransform="translate(-2410.26 503.59) rotate(-1.44)" gradientUnits="userSpaceOnUse">
      <stop offset="0" stop-color="#febbba"/>
      <stop offset="1" stop-color="#ff928e"/>
    </linearGradient>
    <linearGradient id="linear-gradient-8" x1="3199.88" y1="-3666.55" x2="3672.32" y2="-3666.55" gradientTransform="translate(-2053.92 3728.96) rotate(17.36)" xlink:href="#linear-gradient-7"/>
    <linearGradient id="linear-gradient-9" x1="5996.77" y1="4394.55" x2="6963.71" y2="4394.55" gradientTransform="translate(-5366.6 2466.85) rotate(-44.43)" xlink:href="#linear-gradient-3"/>
    <linearGradient id="linear-gradient-10" x1="2198.88" y1="49.05" x2="2188.89" y2="703.6" gradientTransform="matrix(1, 0, 0, 1, 0, 0)" xlink:href="#linear-gradient-3"/>
    <linearGradient id="linear-gradient-11" x1="2543.03" y1="88.17" x2="2453.1" y2="362.98" gradientUnits="userSpaceOnUse">
      <stop offset="0" stop-color="#ff928e"/>
      <stop offset="1" stop-color="#fe7062"/>
    </linearGradient>
    <linearGradient id="linear-gradient-12" x1="7486.23" y1="5816.17" x2="7072.87" y2="6016.42" gradientTransform="matrix(0.47, -0.9, 0.71, 0.37, -5293.27, 5237.43)" xlink:href="#linear-gradient-7"/>
    <linearGradient id="linear-gradient-13" x1="2457.03" y1="60.02" x2="2367.09" y2="334.83" xlink:href="#linear-gradient-11"/>
    <linearGradient id="linear-gradient-14" x1="3201.84" y1="1307.42" x2="3223.32" y2="1246.14" gradientTransform="translate(-1189.92 144.42) rotate(-8.75)" xlink:href="#linear-gradient-7"/>
    <linearGradient id="linear-gradient-15" x1="-5046.15" y1="487.36" x2="-4942.48" y2="487.36" gradientTransform="matrix(-0.99, -0.17, -0.17, 0.99, -2621.66, -512.59)" xlink:href="#linear-gradient-3"/>
    <linearGradient id="linear-gradient-16" x1="-360.82" y1="653.66" x2="-286.82" y2="653.66" gradientTransform="matrix(0.93, 0.36, -0.36, 0.93, 2756.12, 364.81)" xlink:href="#linear-gradient-7"/>
    <linearGradient id="linear-gradient-17" x1="2387.92" y1="37.4" x2="2297.98" y2="312.22" xlink:href="#linear-gradient-11"/>
    <linearGradient id="linear-gradient-18" x1="7406.51" y1="5622.06" x2="6993.15" y2="5822.31" gradientTransform="matrix(0.47, -0.9, 0.71, 0.37, -5293.27, 5237.43)" xlink:href="#linear-gradient-7"/>
    <linearGradient id="linear-gradient-19" x1="7575.65" y1="6207.55" x2="7251.96" y2="6364.35" gradientTransform="matrix(0.46, -0.89, 0.89, 0.46, -6636.91, 4530.93)" xlink:href="#linear-gradient-7"/>
    <linearGradient id="linear-gradient-20" x1="7494.86" y1="6051.77" x2="7171.17" y2="6208.58" gradientTransform="matrix(0.46, -0.89, 0.89, 0.46, -6636.91, 4530.93)" xlink:href="#linear-gradient-7"/>
    <linearGradient id="linear-gradient-21" x1="1546.66" y1="2642.78" x2="1504.28" y2="3036.74" gradientTransform="matrix(1, 0, 0, 1, 0, 0)" xlink:href="#linear-gradient-3"/>
    <linearGradient id="linear-gradient-22" x1="859.9" y1="647.98" x2="749.91" y2="1670.46" gradientTransform="matrix(1, 0, 0, 1, 0, 0)" xlink:href="#linear-gradient-3"/>
    <linearGradient id="linear-gradient-23" x1="251.71" y1="2563.89" x2="932.68" y2="2305.81" gradientTransform="matrix(1, 0, 0, 1, 0, 0)" xlink:href="#linear-gradient-7"/>
    <linearGradient id="linear-gradient-24" x1="784.86" y1="2261.78" x2="1085.81" y2="2147.72" gradientTransform="matrix(1, 0, 0, 1, 0, 0)" xlink:href="#linear-gradient-3"/>
    <linearGradient id="linear-gradient-25" x1="1638.67" y1="1558.42" x2="751.14" y2="1622.97" gradientTransform="translate(140.7 25.28) rotate(-4.23)" xlink:href="#linear-gradient-7"/>
    <linearGradient id="linear-gradient-26" x1="719.23" y1="1979.46" x2="1208.89" y2="1140.04" gradientTransform="matrix(1, 0, 0, 1, 0, 0)" xlink:href="#linear-gradient-7"/>
    <linearGradient id="linear-gradient-27" x1="965" y1="1920.89" x2="1156.81" y2="2310.43" gradientTransform="matrix(1, 0, 0, 1, 0, 0)" xlink:href="#linear-gradient-3"/>
    <linearGradient id="linear-gradient-28" x1="1236.35" y1="2276" x2="2204.46" y2="3502.99" gradientTransform="matrix(1, 0, 0, 1, 0, 0)" xlink:href="#linear-gradient-7"/>
    <linearGradient id="linear-gradient-29" x1="969.9" y1="1973.88" x2="1591.05" y2="2761.13" gradientTransform="matrix(1, 0, 0, 1, 0, 0)" xlink:href="#linear-gradient-3"/>
    <linearGradient id="linear-gradient-30" x1="1186.58" y1="1531.46" x2="-1233.41" y2="3120.34" gradientTransform="matrix(1, 0, 0, 1, 0, 0)" xlink:href="#linear-gradient-3"/>
    <linearGradient id="linear-gradient-31" x1="-1474.74" y1="1603.4" x2="-1509.44" y2="1380.73" gradientTransform="matrix(-1, 0.07, 0.07, 1, -549.04, 75.77)" xlink:href="#linear-gradient-7"/>
    <linearGradient id="linear-gradient-32" x1="-3140.78" y1="533.66" x2="-2906.93" y2="692.5" gradientTransform="matrix(-1, 0.02, 0.02, 1, -1980.35, 714.98)" xlink:href="#linear-gradient-7"/>
    <linearGradient id="linear-gradient-33" x1="4411.15" y1="371.61" x2="3833.25" y2="1064.01" gradientTransform="translate(-3263.34 736.62) rotate(-0.98)" xlink:href="#linear-gradient-3"/>
    <linearGradient id="linear-gradient-34" x1="3312.23" y1="-1988.75" x2="3271.25" y2="-1607.76" gradientTransform="matrix(-0.13, 0.99, -0.98, -0.13, -1091.95, -1021.93)" xlink:href="#linear-gradient-3"/>
    <linearGradient id="linear-gradient-35" x1="2274.17" y1="2713.18" x2="2700.57" y2="2053.6" xlink:href="#linear-gradient-2"/>
    <linearGradient id="linear-gradient-36" x1="2711.83" y1="1777.23" x2="3261.45" y2="578.05" xlink:href="#linear-gradient-2"/>
  </defs>
  <g id="Illustration">
    <g>
      <path class="cls-1" d="M2608.9,2547.21c-56.66,59.65-110.28,98.12-152.64,128.52-497.93,357.27-1087.12,253.13-1212.34,227.7-184.91-37.56-542.34-110.16-800.75-414-391-459.76-330.08-1184.1-26.83-1662.24,55.47-87.46,348.48-572.89,944-650.73,360.41-47.12,780.54,47.9,1084.78,302.8C3083.76,1014.27,3038.3,2095.15,2608.9,2547.21Z"/>
      <g>
        <g>
          <path class="cls-2" d="M238.55,1904.16c-35.33-95.93-88.94-371-30.59-631.74,0,0,2.73-151.06,163.13-318.56,1.78-1.85,7-6.77,13.14-6.55,8,.3,15.51,7,15,17.3-4.14,76.94-2.22,245.9,51.19,545.86,31,173.88,7.92,322.6-31.21,438.82Z"/>
          <path class="cls-3" d="M322,1906l.33.06a2.83,2.83,0,0,0,3.31-2.33c18.63-141.83,25.89-278.76,22.19-418.63-.47-10-1-19.75-1.57-29.18s-1.1-19.17-1.57-29.08c-2.63-36.89-5.94-79.63-12.14-120.64a3,3,0,0,0-3.36-2.47,2.73,2.73,0,0,0-2.52,3.08c6.16,40.82,9.47,83.43,12.08,120.16.47,9.87,1,19.63,1.57,29.06s1.1,19.17,1.57,29.08c3.69,139.54-3.56,276.2-22.15,417.76A2.93,2.93,0,0,0,322,1906Z"/>
        </g>
        <g>
          <path class="cls-4" d="M466.19,1961.29c-177-517.62,103.74-990.39,227.55-1163.9,23.57-33,63.5-31,69.74,3.28,65.77,362.12.44,896.87-52.53,1223.06Z"/>
          <path class="cls-3" d="M612.1,1980.37a3.47,3.47,0,0,0,1,.1,3.06,3.06,0,0,0,3-3.24c-13.09-163.68-14.79-320.91-5-467.33,10.76-161.7,35.82-316.06,74.51-458.78a3.22,3.22,0,0,0-2.4-3.86h-.05a3.22,3.22,0,0,0-4,2.14c-38.78,143.09-63.91,297.83-74.69,459.92-9.76,146.71-8.06,304.23,5.05,468.18A3.32,3.32,0,0,0,612.1,1980.37Z"/>
        </g>
      </g>
      <path class="cls-2" d="M243.32,1848.48c-21.52-.08-38.06,18.37-35,39,30.85,208,112.81,404.15,256.62,566.36,255.63,288.31,609.2,357.58,792.11,393.21,123.87,24.13,706.7,123.13,1199.26-215.83,41.91-28.83,94.94-66,151-122.62,149.73-151.18,258.41-367.32,301.26-617.92,2.91-17.06-10.78-32.55-28.64-32.61Z"/>
      <path class="cls-5" d="M2726.26,1939.65c-4.94-20.45-1109.38,40-1115,168.63-3.81,87.37,405.94,260,404.77,338.36-2.48,165.69-1817.09,17.82-1837.2,211.22-10.28,99,438.92,217.58,750.62,254.24,158.69,18.67,1229,61.92,1777.1-157.4,142.24-56.91,162.14-253.94-58.6-371.63-147.83-78.82-684.09-200.56-686.42-287.08C1959.14,2006.39,2730,1955.27,2726.26,1939.65Z"/>
      <path class="cls-6" d="M2895.9,1897.1c17.8.14,16.11-23.24,2.44-34.91l-173.49-156c-22.44-19.16-51.67-24.22-78-13.52l-108.49,44.1c-27.88,11.33-58.86,5-81.62-16.8L2263,1534.83c-25.86-24.73-62-29.33-91.93-11.7L1713.65,1792.7c-28.44,16.76-62.65,13.49-88.31-8.42l-136.6-116.63c-22.44-19.17-51.66-24.23-78-13.53l-124.35,50.55c-27.87,11.33-58.86,4.95-81.62-16.8L988.89,1481.51c-25.87-24.72-62-29.32-91.93-11.69l-655.07,386a5,5,0,0,0-2.13,5.31,4.3,4.3,0,0,0,4,3.66l1329.18,10.8h0a5.77,5.77,0,0,0,2.88,10.74Z"/>
      <path class="cls-4" d="M1124.09,622.8c22.77-27.82,56.76-39.27,90.07-30.94,36.29,9.07,56.81,43.76,90.58,57.63,58.94,24.21,140.44-23.61,185.2,38.78,54.75,76.31,97,19.07,97,70.86s-378.24,13.62-564.87,16.35c-27,.39-144-1.57-93.64-57.54,15.65-17.38,38-20.29,58.79-24.36,27.14-5.3,91.67-8.21,111.33-29.33,10.58-11.36,14.65-27.69,24.21-39.85C1123.23,623.86,1123.66,623.32,1124.09,622.8Z"/>
      <path class="cls-4" d="M1678.34,483.64c14.24-17.39,35.48-24.54,56.3-19.34,22.69,5.68,35.52,27.36,56.63,36,36.84,15.13,87.79-14.76,115.77,24.24,34.22,47.7,60.67,11.93,60.67,44.3s-236.45,8.52-353.12,10.22c-16.85.24-90-1-58.53-36,9.78-10.87,23.74-12.69,36.75-15.23,17-3.31,57.31-5.13,69.59-18.33,6.62-7.11,9.16-17.31,15.14-24.92Z"/>
      <g>
        <g>
          <g>
            <path class="cls-7" d="M2528,1322.58a9.79,9.79,0,0,0,10.34,5.17c16.22-2.92,59.06-12.92,84.36-40.13a4.6,4.6,0,0,0,0-6.19c-6.54,6.88-17.73,15.3-36.74,24.93C2556.68,1321.15,2538.64,1323.42,2528,1322.58Z"/>
            <path class="cls-8" d="M2527.25,1286.22s-8.68,17.82.62,36.23a.57.57,0,0,0,.08.13c10.69.84,28.73-1.43,58-16.22,19-9.63,30.2-18,36.74-24.93a4.38,4.38,0,0,0-1.83-1.24C2604.58,1274.3,2559.48,1261.46,2527.25,1286.22Z"/>
          </g>
          <g>
            <path class="cls-9" d="M2542.87,1276a9.51,9.51,0,0,0,10.39,4c15.57-4.12,56.51-17.12,79.28-44.77a4.22,4.22,0,0,0-.42-5.81c-5.89,7-16.2,15.85-34,26.49C2570.69,1272.2,2553.31,1275.86,2542.87,1276Z"/>
            <path class="cls-10" d="M2539.75,1241.94s-7.23,17.45,3,33.93l.09.11c10.44-.12,27.82-3.78,55.22-20.12,17.83-10.64,28.14-19.48,34-26.49a4.31,4.31,0,0,0-1.86-1C2614.09,1224.21,2569.4,1216,2539.75,1241.94Z"/>
          </g>
          <path class="cls-11" d="M2092.6,1147l-7.88,32.83s4.3,72.41,110,59.81,154.91-19.3,154.91-19.3,54.62,47.23,193.68,40c0,0,13-8.51,7.12-23.09l-181.47-66.47c-11.15-9.75-24.37-7.76-45.33-11.73-49.93-9.48-150.1-21.33-163.27-23.84Z"/>
          <path class="cls-12" d="M2116,1153.64l-20.68,27.1s-23.69,65.44,88.12,81.89,181.78,11.75,181.78,11.75,51,60,182.22,35.6c0,0,10-9.12,4.51-23.89l-167.32-53.36a30.91,30.91,0,0,0-14.57-5.56c-4.53-.44-6.6.52-12.48.12a27.64,27.64,0,0,1-12.51-2.53c-46.84-21.47-143.62-58.21-156-63.88Z"/>
          <path class="cls-13" d="M2067.83,1204.13s21.94,29.42,66.67,34.61c36.93,4.29,125.41,10.34,150.18,7.47a8.87,8.87,0,0,0,8-9.31l-1.21-75.77a12.45,12.45,0,0,0-10.52-12.35l-130.14-16.51Z"/>
          <path class="cls-14" d="M2071.51,1250c15.3,15.65,36.41,19.39,75.4,26.32,27.4,4.86,111.52,19,127.57,19a46.42,46.42,0,0,0,11.49-2.74,52.81,52.81,0,0,0,13.67-8c13.62-11.56,5.1-37.48,10.22-60,1.3-5.71-2.11-11.3-8-13.18-50.63-16.14-149.51-13.37-152.09-68.37-1.14-24.21-54.52,6.29-79.92-.76l-12.3,11.76C2055.09,1163.29,2041.22,1219,2071.51,1250Z"/>
          <g>
            <path class="cls-15" d="M2232.08,910.52c15.27,17.82,17.79,48.43,33,66.33,40.32-33.31,34.75-61.42,63.58-105.82-19-4.15-32.62-13.3-44.47-29.24C2258.29,882.37,2257.08,882,2232.08,910.52Z"/>
            <path class="cls-16" d="M2351.15,687.8c-10.8,55.16-37.33,105.44-67,154,11.85,15.94,25.47,25.08,44.47,29.24,23.1-41.23,52.14-143.94,43.93-186.44C2365.54,685.51,2358.21,685.69,2351.15,687.8Z"/>
          </g>
          <path class="cls-17" d="M2268.23,944.92l-.39-28.16c-21.74-5.58-40.23-9.16-53.93-11.48-76.76-13-104.22-3.64-116.63,1.75a119.17,119.17,0,0,0-15.16,7.89,47.53,47.53,0,0,0-16.55,14c-11.43,15.76-8.3,42.49-7.14,50.23,2.23,15-.65,73.12-6.42,189.38-.52,10.39-.69,31.85,4.5,25.09,6-7.76,62.32-66.28,111.62-50.71l88.44-139.79A139.49,139.49,0,0,0,2268.23,944.92Z"/>
          <path class="cls-18" d="M2169.56,852.92l-17.07,58.5a9.8,9.8,0,0,0,2.75,10c7.33,6.57,23.78,16.54,47.78,3.88a8.33,8.33,0,0,0,4.18-7.63l-1-50.59Z"/>
          <g>
            <path class="cls-19" d="M2191.46,865.6s-10.13,4.5-14.23.26c-5-5.14-7.27-13.23-8.71-20a113.08,113.08,0,0,1-2.11-22.71c0-4.34.09-8.67.21-13,.18-6.74,0-14.15,2.67-20.46,1.27-2.95,3.4-6.2,6.43-7.54,2.2-1,5.4.22,7.22,1.43,1.13.74,3.13,3.52,4.53,3.6.94.05,3-1.62,3.81-2.22,5-3.68,9.12-7,15.38-8.41a33.09,33.09,0,0,1,14.91.31c23.27,5.37,72.73,33.78,35,42.6S2191.46,865.6,2191.46,865.6Z"/>
            <path class="cls-20" d="M2251.92,848.16c-.77-14.62-.61-22-.28-25.68a3.51,3.51,0,0,0-.89-2.68,3.58,3.58,0,0,0-2.56-1.19c-10.9-.31-39.41-.29-42,8.12a75.4,75.4,0,0,0-3.44,17.27s-7.93-19.47-15.32-12.61-7.28,29.8-1.09,32.89,2.65,32,26.61,39.54S2253.39,876.28,2251.92,848.16Z"/>
          </g>
          <g>
            <path class="cls-21" d="M2056.6,930c-5.2,24.82,3.12,44.87,15.65,49.07,2.21.74,8.18,2.21,17.33-2.25a261.26,261.26,0,0,0,21.94-23,245,245,0,0,0,18-24c6.84-10.64,17.34-29.91,23.65-58.85a70.48,70.48,0,0,1-23-9c-8.08-4.94-15.05-11.6-21.49-20.27A444,444,0,0,0,2056.6,930Z"/>
            <path class="cls-22" d="M2175.67,687.8c-10.81,55.16-37.33,105.44-67,154,11.84,15.94,25.47,25.08,44.46,29.24,23.1-41.23,52.15-143.94,43.94-186.44C2190.05,685.51,2182.72,685.69,2175.67,687.8Z"/>
          </g>
        </g>
        <g>
          <rect class="cls-2" x="1880.96" y="667.71" width="33.38" height="1220.44"/>
          <rect class="cls-2" x="1302.71" y="1304.66" width="33.38" height="583.49"/>
          <rect class="cls-2" x="2824.7" y="667.71" width="40.8" height="1220.44"/>
          <rect class="cls-2" x="1803.07" y="658.4" width="1140.33" height="23.96" rx="11.16"/>
          <rect class="cls-2" x="1321.83" y="1274.01" width="592.52" height="37.09"/>
          <path class="cls-2" d="M1947.31,1862.19H1841.74c-7.79,0-16.42,8.35-16.42,16.14v13.53h137.25v-13.53C1962.57,1870.54,1955.1,1862.19,1947.31,1862.19Z"/>
          <path class="cls-2" d="M1372.78,1862.19H1267.22c-7.79,0-12.73,8.35-12.73,16.14v13.53H1388v-13.53C1388,1870.54,1380.57,1862.19,1372.78,1862.19Z"/>
          <path class="cls-2" d="M2898.34,1862.19H2792.77c-7.79,0-8.87,8.35-8.87,16.14v13.53h129.82v-13.53C2913.72,1870.54,2906.13,1862.19,2898.34,1862.19Z"/>
          <rect class="cls-6" x="1867.98" y="634.14" width="59.35" height="96.44" rx="13.31"/>
          <rect class="cls-6" x="1291.58" y="1233.21" width="59.35" height="96.44" rx="13.31"/>
          <rect class="cls-6" x="1866.13" y="1233.21" width="59.35" height="96.44" rx="13.31"/>
          <rect class="cls-6" x="2817.28" y="634.14" width="59.35" height="96.44" rx="13.31"/>
        </g>
        <g>
          <path class="cls-23" d="M2366,701.18s-25.07.11-32.49-22.59c0,0-3.5-7.89,8-8.59,0,0-7.59-24.22,1.08-25.27s30.5-4.43,42.69,16.26C2397.59,681.9,2377.49,700.75,2366,701.18Z"/>
          <path class="cls-24" d="M2190.48,701.18s-25.06.11-32.49-22.59c0,0-3.49-7.89,8-8.59,0,0-7.59-24.22,1.07-25.27s30.51-4.43,42.7,16.26C2222.11,681.9,2202,700.75,2190.48,701.18Z"/>
        </g>
      </g>
      <g>
        <path class="cls-25" d="M1424.91,2771.93,1419,2791.2a15,15,0,0,0,3.47,14.75c34.41,36,70.25,68,110.88,86.31a80.12,80.12,0,0,0,36.94,6.66c32.21-1.6,65.21-7.25,62.23-17.18l-.86-22.4Z"/>
        <g>
          <path class="cls-26" d="M953.32,1162.4s-115.1-88.86-189.44,43.38S658,1377.63,636,1342.22c-1.13,8.13-1.69,21.44,4.75,34,12.26,23.81,41.05,27.59,56.14,29.57,43.71,5.74,84-8.54,92.83-20C916.72,1221.9,952.61,1216.2,953.32,1162.4Z"/>
          <path class="cls-27" d="M808.47,2333.17c-3.79,22.55.06,44-3.53,66-1.24,7.65-5,16.53-12.71,17.47-4.72.58-9.13-2.16-13.19-4.65-52.52-32.12-117.68-36.38-178.89-29.75s-121,23.17-182.25,29.42c-17.76,1.81-36.52,2.81-54-1.27-21.33-5-26.44-19.73-41.68-27.61-16.13-8.33-8.22-14.44-26-10.57-9.31,2-35.07,20.41-37.28,29.68-4.05,17.06-3.44,16.46-15.18,33.17-8.25,11.75-24.53,15.69-34.86,25.16-25,23-24.25,57-19.9,88.3,1,7.17,7.9,16.58,13,11.42,1.91-1.94,1.87-5,2-7.71,1.18-28.38,29.41-46.82,54.39-60.33,30.43-16.47,62.09-33.3,96.61-35.48,28.91-1.83,57.3,6.78,85.38,13.86,111.86,28.2,228.91,30,342.09,53.45,43.33,9,66.69-11.89,87.83-48.16q33.4-57.32,64-116.17c-39.3-18.76-80.69-31.72-123.84-37.48C809.77,2325.71,809.1,2329.44,808.47,2333.17Z"/>
          <path class="cls-28" d="M1006.54,2038.64c-29.6-11.74-64.31-17.3-95.12-6.91-34.31,11.58-42.21,47.46-52.3,79.11q-24.36,76.45-41.41,155-8.52,39.21-15.17,78.78a160.51,160.51,0,0,0-1.84,25.88c40.12,1.65,80.64,7.81,115.34,23.71q33.54-62.94,63.86-127.5,26.7-57,50.82-115.06C1052.14,2100.36,1072.86,2064.93,1006.54,2038.64Z"/>
          <path class="cls-29" d="M1475.12,1557.13c65.12-16.92,125.41-68.22,163.19-124.08,4.34-6.42,9.27-13.53,16.77-15,7.7-1.47,15.05,3.65,21.22,8.67,12,9.74,44.49,29.49,34.38,49.9-6.58,13.3-40.76,27.08-53.06,35.72,6.86-4.82,6.2-23.13,4-29.64-3.49,5.71-6.92,12.63-11.83,17.59s-11.47,8.43-17.79,11.69c-14.21,7.33-23.55,16-36.23,25-28.52,27.93-56.15,57.91-91.36,77.13-29.65,16.19-63,23.79-96.17,29.66-14.06,2.49-28.36,4.7-42.59,3.3-13.08-1.3-25.7-5.61-38.19-9.9-37.63-12.91-75.58-27.38-108.63-50.46a205.89,205.89,0,0,1-42.45-39c-13.3-16.44-28.11-39.26-29.6-61.13-1.31-19.14,5.41-44.86,27.8-31C1223.73,1486,1266,1526,1320.26,1546,1369.78,1564.39,1423.91,1570.43,1475.12,1557.13Z"/>
          <path class="cls-30" d="M912.48,1575.46c-9.32.74-18.59,1.53-27.76,2.27-36.71,3-63.48,25.17-89,50.42a370.44,370.44,0,0,0-36.3,41.64c-37.19,49.8-58.92,113-50.58,174.65,4.25,31.4,16,61.24,28,90.55,7.64,18.58,15.66,37.43,28.84,52.59,15.77,18.14,38,29.9,53.06,48.64,2.69,3.35,5.25,7.36,4.69,11.62-.58,4.42-4.31,7.66-7.78,10.46l-40.26,32.49c-1.83,1.47-3.82,3-6.16,3.15-3.65.21-6.51-3-8.69-5.9-10.95-14.72-26.12-34.89-28.7-53.32,5.89-1.59,19.82,11.41,23.62,4.64-21.39-47-64-81.63-86.36-128.14-14.48-30-19.83-63.59-24-96.68-4.11-32.83-7.13-66.64,1.46-98.59,4.18-15.57,11-30.29,18.36-44.66,40-78.54,96.59-150.93,168.78-202.29,53.13-37.8,109.76-59.53,174.43-61.44,26-.76,52.33-1.49,77.58,4.68,24.39,6,42.29,16.17,64.33,28,28.84,15.52,63.23,39.87,78.62,69.21-36.32,6.24-34.8,23.75-57.39,40-10.28,7.4-23.12,10.06-35.58,12.32-40,7.25-84.74,16.75-125.18,12.49C978.53,1571,945.17,1572.87,912.48,1575.46Z"/>
          <path class="cls-31" d="M941.5,1835.13c-12.77,32.59-84.09,174-87.2,197.26s8.34,56.77,24.51,73.81c12.3,13,120.72,44.33,163.51,30.46,32.25-10.46,84.27-173.25,77.53-236a218.75,218.75,0,0,1-.79-34.62C1056.82,1862.65,1004.21,1848.43,941.5,1835.13Z"/>
          <path class="cls-32" d="M1551.7,2812.6l-29-32.29c-30.87-31.85-29.53-65.46-33.59-106.46Q1482.28,2605,1474,2536.3q-10.24-84.81-22.72-169.33c-5.09-34.49-2.41-71.1-15.56-104.06-22.87-57.35-111.4-68.19-142.89-109.07-27.31,46.32-46.38,76.18-73.33,121.61,40.09,10.31,80.63,29.5,121.79,38.41-7.4,41.66-3.42,71.91,10.58,112.56,21.19,61.58,41.79,123.42,59,186.24,8.25,30.09,12.35,62.77,22.43,92.15,7.1,20.69,22.88,38.71,2.54,58.92-5.35,5.32-12.61,9.37-10.2,20a19.08,19.08,0,0,0,4.1,8.15c6.25,7.35,15.48,10.23,23.74,14.59,20.39,10.74,34.49,30.11,50,47.18s35.06,33.24,58.09,33.75c19.79.43,59.1-4.79,63.49-28.05C1592.49,2845.8,1577.12,2843.05,1551.7,2812.6Z"/>
          <path class="cls-33" d="M1329.75,2179.3l-188.46-129.87c-60.69-41.83-124.91-84.68-202.33-77.32-33.47,3.19-67.65,20.68-81.31,51.4-13.34,30-4.26,66.16,14.66,93,29.23,41.44,79.41,73.33,125.16,93.56,93.83,41.47,189.14,68.08,287.62,90.77,18.37-38.62,41.38-75.32,68.79-107C1345.36,2189.13,1337.13,2184.39,1329.75,2179.3Z"/>
          <path class="cls-34" d="M890.45,1435.66c28-17.83,31.38,43.61,22,139.8l29.87,267.24c36.87,30.57,136,46.43,176.71,23.32,19.38-115.51,82.81-268.28,71-303.11-20.3-37.94-26.25-77.15-24.86-113.92-11.08-14.76-45.77-25.19-79.47-36.75l-77.58-4.68C972.15,1407.08,938.83,1407.55,890.45,1435.66Z"/>
          <g>
            <path class="cls-35" d="M1114.82,1317.32c-.78,3.51-33.24,114.84-35.13,116.77s-56.32,8.9-83.34-6.77l54.58-129.51Z"/>
            <path class="cls-36" d="M1091.07,1138.92s48.5,19.51,82.43,88.53,10,101.57-20.61,106.5-76.58,5-125.93-39.07S1028.06,1115.89,1091.07,1138.92Z"/>
            <path class="cls-37" d="M1059,1257.18s-38.07-101.18,52.16-103.93l21.49,14.48s11.73-42.73-43.08-68.75-115.08-14.9-137,58.72-7.53,120.67,31.55,155,59.22-3.7,59.22-3.7-26.48-34.33-18.25-52,26.75,9,26.75,9Z"/>
          </g>
        </g>
        <path class="cls-4" d="M1445.67,2745.48l-20.76,26.45a15.69,15.69,0,0,0-1.54,17.09c13.52,25.39,51.82,63.67,107.73,91.9a86.53,86.53,0,0,0,49.16,8.54c46.67-5.57,55.43-16.62,51.43-30.12l-132.35-116.57C1480.83,2752.83,1462.88,2754.62,1445.67,2745.48Z"/>
        <path class="cls-38" d="M321.2,2377l-18.06-8.25a14.59,14.59,0,0,0-14.8,1.56c-40,30-69,57.05-92.15,95.78-10.31,17.24-18.76,47.89-18.58,68,.19,20.53,3,36.31,10,35.12l10.34.92a18.28,18.28,0,0,0,17.46-9.08Z"/>
        <path class="cls-4" d="M344.79,2400.94l-23.59-24c-4.37-4.44-9.65-2.57-15.48-.37-26.91,10.18-65.36,47.94-100.48,99.8-9.52,14.05-18.18,25.81-18.34,42.78-.42,47,7.36,54,21.27,51.75l132.19-112.67C332.73,2438.63,333.54,2416.84,344.79,2400.94Z"/>
      </g>
      <g>
        <g>
          <path class="cls-39" d="M2699,2034.14c.49.37,1.19.91,2.06,1.54,0,0,7.07,5.25,14.2,9.49,6.54,3.9,85.67,35.3,129.53-6.15,12.11-11.45,18.6-28.29,31.57-62a84.2,84.2,0,0,0,6-26.88c2.59-46.29-32.79-55.46-55.85-41.25s-7.44,61.89-11.57,79.24-24.13,9-18.95-2.74,12.88-18,4.27-40.36-1.21-26.36,22.12-74.51-8.53-98.1-54.19-96.7-41.68,40.33-37.67,68.12-1.11,39.16-27.45,62.12-19.75,44.3-18.07,74.83c.63,11.46-1.08,18.67-3.85,21.43A263.12,263.12,0,0,0,2699,2034.14Z"/>
          <path class="cls-6" d="M2784.12,1861.23l-.37,1.16-.42,1.13-.85,2.26c-.64,1.47-1.22,3-1.92,4.42s-1.36,2.91-2.13,4.32l-1.12,2.12-1.12,2-4.49,8.16c-6,10.88-11.83,21.79-17.12,32.92s-9.82,22.56-12.59,34.33a87.56,87.56,0,0,0-1.66,8.87,66.61,66.61,0,0,0-.65,8.9,56.23,56.23,0,0,0,.61,8.81,63.91,63.91,0,0,1,.63,9.82,151.77,151.77,0,0,1-1.85,19q-1.46,9.32-3.28,18.49c-1.74,9-3.55,18.06-4.93,27.11l-3.59-.79c1-9.12,2.42-18.15,3.77-27.14.91-6.16,1.9-12.29,2.65-18.41a144.87,144.87,0,0,0,1.25-18.25,60.85,60.85,0,0,0-.74-8.8,62.13,62.13,0,0,1-.85-9.79,73.24,73.24,0,0,1,.53-9.73,94.75,94.75,0,0,1,1.61-9.53c2.77-12.55,7.56-24.36,12.81-35.8s11.29-22.47,17.58-33.27c1.58-2.69,3.16-5.39,4.77-8.06l1.21-2,1.14-2c.78-1.29,1.47-2.64,2.18-4s1.34-2.7,2-4l.9-2.06c.31-.69.61-1.38.87-2.09a71,71,0,0,0,2.83-8.53,52,52,0,0,0,1.56-8.83,47.27,47.27,0,0,0,0-9,42.07,42.07,0,0,0-.72-4.45,37.75,37.75,0,0,0-1.2-4.37,30.08,30.08,0,0,0-4.13-8.1l.51-.49a23,23,0,0,1,3.09,3.66,30,30,0,0,1,2.42,4.14,38.3,38.3,0,0,1,3.14,9.12,50.24,50.24,0,0,1,.06,19.32c-.12.8-.3,1.59-.47,2.38s-.34,1.59-.56,2.36l-.64,2.34Z"/>
        </g>
        <g>
          <path class="cls-40" d="M2746.91,2045.39s44-55.34,36.88-107.65-42.9-46.08-58.8-15.14-30.2,26.69-20.75-2.4,21.29-48,1.71-77-21.61-41.25-10.61-67.08,24.82-62.44-19-75.5-87.38,27.06-77.17,79.58,16.34,58.24,2.28,77.69-8.2,27.44-6.21,40.11-19.48,15.62-19-2.21,27.78-59.93,9.13-79.57-55.19-19.85-64.55,25.56,20.63,65.81,19.13,82.23-17.6-8.48-31.62,8.27,4.85,29.89,18.76,39,34.85,25.33,14.91,37.14-38.83.51-26.61,37c27.16,12.59,87.45,35.7,161.28,22.91A259.14,259.14,0,0,0,2746.91,2045.39Z"/>
          <path class="cls-6" d="M2656.37,1738.53a22.51,22.51,0,0,0-3.93,2.75,30.14,30.14,0,0,0-3.4,3.38,38.17,38.17,0,0,0-5.37,8,50.42,50.42,0,0,0-5,18.66c-.09.8-.11,1.61-.15,2.42s-.08,1.62-.06,2.42v2.43l.12,2.41.06,1.21.12,1.2.24,2.41c.24,1.58.41,3.19.72,4.77s.58,3.16,1,4.71l.53,2.34.56,2.27,2.25,9c3,12,5.85,24.09,8.1,36.2s3.72,24.33,3.37,36.42a86.64,86.64,0,0,1-.66,9,68,68,0,0,1-1.66,8.78,56.35,56.35,0,0,1-2.84,8.36,63.4,63.4,0,0,0-3.13,9.32,150.66,150.66,0,0,0-3.07,18.81c-.66,6.26-1.17,12.49-1.58,18.71-.85,12.44-1.58,24.84-3.38,37.06-.22,1.53-.46,3.05-.75,4.57s-.58,3-.89,4.53-.71,3-1.05,4.5c-.2.74-.42,1.47-.63,2.21s-.41,1.49-.67,2.21l-.74,2.18c-.25.73-.56,1.43-.84,2.14-.53,1.45-1.23,2.8-1.87,4.2a38.34,38.34,0,0,1-5.16,7.61l.5.49a39.18,39.18,0,0,0,5.89-7.41,57.31,57.31,0,0,0,4.15-8.52,106.69,106.69,0,0,0,5.15-18.16c2.54-12.33,3.74-24.81,5.1-37.18.69-6.19,1.31-12.36,2.16-18.47a144,144,0,0,1,3.47-18,62.12,62.12,0,0,1,3-8.32,61.83,61.83,0,0,0,3.34-9.24,75.17,75.17,0,0,0,2-9.54c.47-3.21.74-6.42.89-9.62.53-12.85-1.06-25.49-3.21-37.9s-5.15-24.6-8.46-36.66c-.84-3-1.67-6-2.54-9l-.66-2.24-.6-2.19c-.42-1.45-.74-2.93-1.09-4.4s-.6-3-.91-4.43l-.35-2.23c-.12-.74-.23-1.49-.3-2.23a69.28,69.28,0,0,1-.55-9,51.46,51.46,0,0,1,.75-8.94,48.43,48.43,0,0,1,2.31-8.67,41.9,41.9,0,0,1,1.84-4.11,34.87,34.87,0,0,1,2.29-3.92,29.86,29.86,0,0,1,6.06-6.78Z"/>
          <path class="cls-41" d="M2750.12,1926a294.33,294.33,0,0,1-5.46,29.08q-1.72,7.17-3.81,14.25c-.33,1.18-.72,2.35-1.08,3.52s-.75,2.34-1.14,3.51c-.74,2.34-1.58,4.64-2.4,7s-1.74,4.59-2.7,6.84-1.91,4.51-2.9,6.75c-2.07,4.44-4.26,8.82-6.69,13.06a143.09,143.09,0,0,1-8,12.34,133.21,133.21,0,0,1-9.42,11.34l.47.52a86.16,86.16,0,0,0,10.75-10.44,113.43,113.43,0,0,0,8.89-12.11,135.88,135.88,0,0,0,7.19-13.2c1-2.28,2.1-4.54,3-6.87s1.82-4.66,2.7-7,1.65-4.71,2.39-7.1c.39-1.19.74-2.38,1.08-3.59s.7-2.39,1-3.6c1.33-4.81,2.42-9.68,3.36-14.57a179.15,179.15,0,0,0,3.37-29.64Z"/>
        </g>
      </g>
    </g>
  </g>
</svg>
