<svg xmlns="http://www.w3.org/2000/svg" width="952" height="144" viewBox="0 0 952 144">
  <g id="Grupo_12531" data-name="Grupo 12531" transform="translate(-2601 2229)">
    <path id="Trazado_14877" data-name="Trazado 14877" d="M0,0H184V68H0Z" transform="translate(2601 -2229)" fill="#80e5f1"/>
    <path id="Trazado_14878" data-name="Trazado 14878" d="M0,0H184V68H0Z" transform="translate(2793 -2229)" fill="#80e5f1"/>
    <path id="Trazado_14885" data-name="Trazado 14885" d="M0,0H184V68H0Z" transform="translate(2985 -2229)" fill="#80e5f1"/>
    <path id="Trazado_14889" data-name="Trazado 14889" d="M0,0H184V68H0Z" transform="translate(3177 -2229)" fill="#80e5f1"/>
    <path id="Trazado_14893" data-name="Trazado 14893" d="M0,0H184V68H0Z" transform="translate(3369 -2229)" fill="#80e5f1"/>
    <path id="Trazado_14879" data-name="Trazado 14879" d="M0,0H184V68H0Z" transform="translate(2601 -2153)" fill="#cbd9e4"/>
    <path id="Trazado_14880" data-name="Trazado 14880" d="M0,0H184V68H0Z" transform="translate(2793 -2153)" fill="#cbd9e4"/>
    <path id="Trazado_14886" data-name="Trazado 14886" d="M0,0H184V68H0Z" transform="translate(2985 -2153)" fill="#cbd9e4"/>
    <path id="Trazado_14890" data-name="Trazado 14890" d="M0,0H184V68H0Z" transform="translate(3177 -2153)" fill="#cbd9e4"/>
    <path id="Trazado_14894" data-name="Trazado 14894" d="M0,0H184V68H0Z" transform="translate(3369 -2153)" fill="#cbd9e4"/>
    <path id="Trazado_14881" data-name="Trazado 14881" d="M76.83,17.176a3.961,3.961,0,0,1-3.415-1.644,8.3,8.3,0,0,1-1.191-4.887,8.3,8.3,0,0,1,1.187-4.887,4.383,4.383,0,0,1,6.829,0,8.3,8.3,0,0,1,1.187,4.887,8.3,8.3,0,0,1-1.191,4.887A3.952,3.952,0,0,1,76.83,17.176Zm0-2.285a1.67,1.67,0,0,0,1.525-1.042,7.251,7.251,0,0,0,.541-3.2,7.2,7.2,0,0,0-.545-3.2A1.673,1.673,0,0,0,76.83,6.4q-2.074,0-2.074,4.245T76.83,14.891Zm6.645-1.512V11.261h6.3v2.118Zm12.938,3.8a4.557,4.557,0,0,1-3.463-1.16,5.031,5.031,0,0,1-1.09-3.551l2.593-.114a9.181,9.181,0,0,0,.04.932A3.22,3.22,0,0,0,94.65,14a1.29,1.29,0,0,0,.334.541,1.517,1.517,0,0,0,.571.312,2.823,2.823,0,0,0,.857.114,2.059,2.059,0,0,0,1.5-.51,1.782,1.782,0,0,0,.523-1.336,1.8,1.8,0,0,0-.5-1.375,1.885,1.885,0,0,0-1.345-.47H96.1V9.31h.457a1.374,1.374,0,0,0,1.05-.448,1.6,1.6,0,0,0,.417-1.134,1.278,1.278,0,0,0-.457-1.055,1.858,1.858,0,0,0-1.2-.369,1.8,1.8,0,0,0-.686.119,1.279,1.279,0,0,0-.461.3,1.341,1.341,0,0,0-.272.466,2.448,2.448,0,0,0-.132.554,5.529,5.529,0,0,0-.031.615L92.22,8.237a4.066,4.066,0,0,1,1.09-3.054,4.156,4.156,0,0,1,3.023-1.059,4.322,4.322,0,0,1,2.9.971,3.042,3.042,0,0,1,1.143,2.413,2.746,2.746,0,0,1-.488,1.635,2.793,2.793,0,0,1-1.112.967,3.13,3.13,0,0,1,.809.36,3.315,3.315,0,0,1,.708.606,2.706,2.706,0,0,1,.523.923,3.713,3.713,0,0,1,.193,1.23,3.589,3.589,0,0,1-1.257,2.87A4.958,4.958,0,0,1,96.412,17.176ZM112.1,12.333v2.259h-1.529V17H108.04V14.592H102.2V12.324L106.7,4.3h3.876v8.033Zm-7.559,0h3.5V5.82Z" transform="translate(2601 -2206)" fill="#002b45"/>
    <path id="Trazado_14882" data-name="Trazado 14882" d="M71.42,17.176a4.557,4.557,0,0,1-3.463-1.16,5.031,5.031,0,0,1-1.09-3.551l2.593-.114a9.181,9.181,0,0,0,.04.932,3.22,3.22,0,0,0,.158.721,1.29,1.29,0,0,0,.334.541,1.517,1.517,0,0,0,.571.312,2.823,2.823,0,0,0,.857.114,2.059,2.059,0,0,0,1.5-.51,1.782,1.782,0,0,0,.523-1.336,1.8,1.8,0,0,0-.5-1.375,1.885,1.885,0,0,0-1.345-.47H71.1V9.31h.457a1.374,1.374,0,0,0,1.05-.448,1.6,1.6,0,0,0,.417-1.134,1.278,1.278,0,0,0-.457-1.055,1.858,1.858,0,0,0-1.2-.369,1.8,1.8,0,0,0-.686.119,1.279,1.279,0,0,0-.461.3,1.341,1.341,0,0,0-.272.466,2.448,2.448,0,0,0-.132.554,5.529,5.529,0,0,0-.031.615l-2.558-.123a4.066,4.066,0,0,1,1.09-3.054,4.156,4.156,0,0,1,3.023-1.059,4.322,4.322,0,0,1,2.9.971,3.042,3.042,0,0,1,1.143,2.413A2.746,2.746,0,0,1,74.9,9.143a2.793,2.793,0,0,1-1.112.967,3.13,3.13,0,0,1,.809.36,3.315,3.315,0,0,1,.708.606,2.706,2.706,0,0,1,.523.923,3.713,3.713,0,0,1,.193,1.23A3.589,3.589,0,0,1,74.76,16.1,4.958,4.958,0,0,1,71.42,17.176ZM81.941,8.765q4.878,0,4.878,4.008a4.281,4.281,0,0,1-1.23,3.212,4.447,4.447,0,0,1-3.243,1.2,5.38,5.38,0,0,1-2.272-.47,3.92,3.92,0,0,1-1.648-1.4,3.742,3.742,0,0,1-.624-2.14,3.951,3.951,0,0,1,.053-.633l2.514-.114a3.715,3.715,0,0,0-.062.563,1.71,1.71,0,0,0,.571,1.4,2.153,2.153,0,0,0,1.415.47,1.95,1.95,0,0,0,1.477-.541,2.013,2.013,0,0,0,.519-1.455,1.811,1.811,0,0,0-.633-1.485,3.389,3.389,0,0,0-2.127-.519H78.2L78.724,4.3h7.5V6.559H81l-.167,2.206Zm6.908,4.614V11.261h6.3v2.118Zm12.709-4.614q4.878,0,4.878,4.008a4.281,4.281,0,0,1-1.23,3.212,4.447,4.447,0,0,1-3.243,1.2,5.38,5.38,0,0,1-2.272-.47,3.92,3.92,0,0,1-1.648-1.4,3.742,3.742,0,0,1-.624-2.14,3.951,3.951,0,0,1,.053-.633l2.514-.114a3.715,3.715,0,0,0-.062.563,1.71,1.71,0,0,0,.571,1.4,2.153,2.153,0,0,0,1.415.47,1.95,1.95,0,0,0,1.477-.541,2.013,2.013,0,0,0,.519-1.455,1.811,1.811,0,0,0-.633-1.485,3.389,3.389,0,0,0-2.127-.519H97.814L98.341,4.3h7.5V6.559h-5.221l-.167,2.206Zm15.917,3.568v2.259h-1.529V17h-2.531V14.592H107.57V12.324l4.5-8.024h3.876v8.033Zm-7.559,0h3.5V5.82Z" transform="translate(2793 -2206)" fill="#002b45"/>
    <path id="Trazado_14887" data-name="Trazado 14887" d="M71.192,8.765q4.878,0,4.878,4.008a4.281,4.281,0,0,1-1.23,3.212,4.447,4.447,0,0,1-3.243,1.2,5.38,5.38,0,0,1-2.272-.47,3.92,3.92,0,0,1-1.648-1.4,3.742,3.742,0,0,1-.624-2.14,3.951,3.951,0,0,1,.053-.633l2.514-.114a3.715,3.715,0,0,0-.062.563,1.71,1.71,0,0,0,.571,1.4,2.153,2.153,0,0,0,1.415.47,1.95,1.95,0,0,0,1.477-.541,2.013,2.013,0,0,0,.519-1.455,1.811,1.811,0,0,0-.633-1.485,3.389,3.389,0,0,0-2.127-.519H67.448L67.975,4.3h7.5V6.559H70.251l-.167,2.206Zm10.749,0q4.878,0,4.878,4.008a4.281,4.281,0,0,1-1.23,3.212,4.447,4.447,0,0,1-3.243,1.2,5.38,5.38,0,0,1-2.272-.47,3.92,3.92,0,0,1-1.648-1.4,3.742,3.742,0,0,1-.624-2.14,3.951,3.951,0,0,1,.053-.633l2.514-.114a3.715,3.715,0,0,0-.062.563,1.71,1.71,0,0,0,.571,1.4,2.153,2.153,0,0,0,1.415.47,1.95,1.95,0,0,0,1.477-.541,2.013,2.013,0,0,0,.519-1.455,1.811,1.811,0,0,0-.633-1.485,3.389,3.389,0,0,0-2.127-.519H78.2L78.724,4.3h7.5V6.559H81l-.167,2.206Zm6.908,4.614V11.261h6.3v2.118Zm17.631-.642a4.14,4.14,0,0,1-.374,1.784,4.21,4.21,0,0,1-1.028,1.411,4.842,4.842,0,0,1-1.507.905,5.111,5.111,0,0,1-3.634-.009,4.513,4.513,0,0,1-1.485-.927,4.366,4.366,0,0,1-1.34-3.155,5.278,5.278,0,0,1,1.125-3.1L102.191,4.3h2.874l-3.3,4.3a4.282,4.282,0,0,1,.58-.035,4.14,4.14,0,0,1,1.56.3,4.224,4.224,0,0,1,1.314.831,3.843,3.843,0,0,1,.91,1.323A4.443,4.443,0,0,1,106.48,12.737ZM104,12.676a2.17,2.17,0,0,0-.615-1.639,2.238,2.238,0,0,0-1.661-.637,2.145,2.145,0,0,0-1.608.642,2.266,2.266,0,0,0-.642,1.6,2.084,2.084,0,0,0,2.224,2.25,2.289,2.289,0,0,0,1.652-.615A2.145,2.145,0,0,0,104,12.676Zm8.578-8.543a4.911,4.911,0,0,1,2.369.576A4.333,4.333,0,0,1,116.631,6.3a4.265,4.265,0,0,1,.615,2.254,5.189,5.189,0,0,1-1.134,3.094L112.158,17h-2.883l3.287-4.3a4.208,4.208,0,0,1-.571.035,4.155,4.155,0,0,1-2.013-.505,3.968,3.968,0,0,1-1.516-1.472,4.163,4.163,0,0,1-.584-2.2,4.072,4.072,0,0,1,1.38-3.168A4.772,4.772,0,0,1,112.58,4.133Zm2.285,4.518a2.076,2.076,0,0,0-2.215-2.241,2.284,2.284,0,0,0-1.648.62,2.141,2.141,0,0,0-.655,1.6,2.172,2.172,0,0,0,.615,1.635,2.229,2.229,0,0,0,1.661.642,2.127,2.127,0,0,0,1.608-.642A2.3,2.3,0,0,0,114.865,8.65Z" transform="translate(2985 -2206)" fill="#002b45"/>
    <path id="Trazado_14891" data-name="Trazado 14891" d="M67.043,4.3h8.938V6.251L70.243,17H67.377L73.134,6.55H67.043ZM82.2,17.176a3.961,3.961,0,0,1-3.415-1.644A8.3,8.3,0,0,1,77.6,10.646a8.3,8.3,0,0,1,1.187-4.887,4.383,4.383,0,0,1,6.829,0A8.3,8.3,0,0,1,86.8,10.646a8.3,8.3,0,0,1-1.191,4.887A3.952,3.952,0,0,1,82.2,17.176Zm0-2.285a1.67,1.67,0,0,0,1.525-1.042,7.251,7.251,0,0,0,.541-3.2,7.2,7.2,0,0,0-.545-3.2A1.673,1.673,0,0,0,82.2,6.4q-2.074,0-2.074,4.245T82.2,14.891Zm6.645-1.512V11.261h6.3v2.118Zm12.981,3.8a5.082,5.082,0,0,1-3.318-1.063,3.494,3.494,0,0,1-1.305-2.856,3.559,3.559,0,0,1,.532-1.947A3.644,3.644,0,0,1,99.211,10a3.217,3.217,0,0,1-1.05-1.081,2.792,2.792,0,0,1-.382-1.441,2.979,2.979,0,0,1,1.134-2.421,4.46,4.46,0,0,1,2.918-.927,4.387,4.387,0,0,1,2.878.927,2.983,2.983,0,0,1,1.129,2.421,2.845,2.845,0,0,1-.369,1.437A3.244,3.244,0,0,1,104.45,10a3.626,3.626,0,0,1,1.459,1.314,3.582,3.582,0,0,1,.527,1.947,3.649,3.649,0,0,1-.606,2.087,3.817,3.817,0,0,1-1.648,1.367A5.7,5.7,0,0,1,101.831,17.176Zm0-7.919a1.689,1.689,0,0,0,1.2-.475,1.537,1.537,0,0,0,.5-1.16,1.5,1.5,0,0,0-.5-1.143,1.806,1.806,0,0,0-2.421,0,1.506,1.506,0,0,0-.5,1.143,1.539,1.539,0,0,0,.5,1.165A1.7,1.7,0,0,0,101.831,9.257Zm0,5.651a2.122,2.122,0,0,0,1.485-.536,1.854,1.854,0,0,0,.589-1.441,1.8,1.8,0,0,0-.593-1.411,2.137,2.137,0,0,0-1.481-.532,2.161,2.161,0,0,0-1.5.532,1.8,1.8,0,0,0-.593,1.411,1.847,1.847,0,0,0,.593,1.441A2.15,2.15,0,0,0,101.831,14.908Zm15.645-2.575v2.259h-1.529V17h-2.531V14.592H107.57V12.324l4.5-8.024h3.876v8.033Zm-7.559,0h3.5V5.82Z" transform="translate(3177 -2206)" fill="#002b45"/>
    <path id="Trazado_14895" data-name="Trazado 14895" d="M66.09,17.176a5.082,5.082,0,0,1-3.318-1.063,3.494,3.494,0,0,1-1.305-2.856A3.559,3.559,0,0,1,62,11.309,3.644,3.644,0,0,1,63.471,10a3.217,3.217,0,0,1-1.05-1.081,2.792,2.792,0,0,1-.382-1.441,2.979,2.979,0,0,1,1.134-2.421,4.46,4.46,0,0,1,2.918-.927,4.387,4.387,0,0,1,2.878.927A2.983,2.983,0,0,1,70.1,7.473a2.845,2.845,0,0,1-.369,1.437A3.244,3.244,0,0,1,68.709,10a3.626,3.626,0,0,1,1.459,1.314,3.582,3.582,0,0,1,.527,1.947,3.649,3.649,0,0,1-.606,2.087,3.817,3.817,0,0,1-1.648,1.367A5.7,5.7,0,0,1,66.09,17.176Zm0-7.919a1.689,1.689,0,0,0,1.2-.475,1.537,1.537,0,0,0,.5-1.16,1.5,1.5,0,0,0-.5-1.143,1.806,1.806,0,0,0-2.421,0,1.506,1.506,0,0,0-.5,1.143,1.539,1.539,0,0,0,.5,1.165A1.7,1.7,0,0,0,66.09,9.257Zm0,5.651a2.122,2.122,0,0,0,1.485-.536,1.854,1.854,0,0,0,.589-1.441,1.8,1.8,0,0,0-.593-1.411,2.137,2.137,0,0,0-1.481-.532,2.161,2.161,0,0,0-1.5.532A1.8,1.8,0,0,0,64,12.931a1.847,1.847,0,0,0,.593,1.441A2.15,2.15,0,0,0,66.09,14.908ZM76.566,8.765q4.878,0,4.878,4.008a4.281,4.281,0,0,1-1.23,3.212,4.447,4.447,0,0,1-3.243,1.2,5.38,5.38,0,0,1-2.272-.47,3.92,3.92,0,0,1-1.648-1.4,3.742,3.742,0,0,1-.624-2.14,3.951,3.951,0,0,1,.053-.633l2.514-.114a3.715,3.715,0,0,0-.062.563,1.71,1.71,0,0,0,.571,1.4,2.153,2.153,0,0,0,1.415.47,1.95,1.95,0,0,0,1.477-.541,2.013,2.013,0,0,0,.519-1.455,1.811,1.811,0,0,0-.633-1.485,3.389,3.389,0,0,0-2.127-.519H72.822L73.35,4.3h7.5V6.559H75.626l-.167,2.206Zm6.908,4.614V11.261h6.3v2.118ZM96.087,4.3H98.5V17H95.973V6.9L93.055,9.617v-2.6ZM107.2,17.176a3.961,3.961,0,0,1-3.415-1.644,8.3,8.3,0,0,1-1.191-4.887,8.3,8.3,0,0,1,1.187-4.887,4.383,4.383,0,0,1,6.829,0,8.3,8.3,0,0,1,1.187,4.887,8.3,8.3,0,0,1-1.191,4.887A3.952,3.952,0,0,1,107.2,17.176Zm0-2.285a1.67,1.67,0,0,0,1.525-1.042,7.251,7.251,0,0,0,.541-3.2,7.2,7.2,0,0,0-.545-3.2A1.673,1.673,0,0,0,107.2,6.4q-2.074,0-2.074,4.245T107.2,14.891Zm10.749,2.285a3.961,3.961,0,0,1-3.415-1.644,8.3,8.3,0,0,1-1.191-4.887,8.3,8.3,0,0,1,1.187-4.887,4.383,4.383,0,0,1,6.829,0,8.3,8.3,0,0,1,1.187,4.887,8.3,8.3,0,0,1-1.191,4.887A3.952,3.952,0,0,1,117.945,17.176Zm0-2.285a1.67,1.67,0,0,0,1.525-1.042,7.251,7.251,0,0,0,.541-3.2,7.2,7.2,0,0,0-.545-3.2A1.673,1.673,0,0,0,117.945,6.4q-2.074,0-2.074,4.245T117.945,14.891Z" transform="translate(3369 -2206)" fill="#002b45"/>
    <path id="Trazado_14883" data-name="Trazado 14883" d="M60.917,4.625h1.564V17H60.821L54.15,6.989V17H52.6V4.625h1.644l6.671,9.967ZM73,6.058H67.975v4.052H72.4v1.415h-4.43v4.043H73V17H66.367V4.625H73Zm7.849,11.109a6.574,6.574,0,0,1-2.435-.444,5.879,5.879,0,0,1-1.956-1.248,5.567,5.567,0,0,1-1.3-2.008,7.263,7.263,0,0,1-.47-2.663,7.144,7.144,0,0,1,.475-2.65A5.556,5.556,0,0,1,78.417,4.9a6.633,6.633,0,0,1,2.435-.439,6.287,6.287,0,0,1,3.292.87,5.421,5.421,0,0,1,2.175,2.417l-1.45.6a4.075,4.075,0,0,0-1.622-1.762,4.654,4.654,0,0,0-2.4-.62,4.921,4.921,0,0,0-1.8.325,4.317,4.317,0,0,0-1.459.932,4.206,4.206,0,0,0-.98,1.529,5.674,5.674,0,0,0-.356,2.057,5.71,5.71,0,0,0,.356,2.061,4.2,4.2,0,0,0,.98,1.534,4.374,4.374,0,0,0,1.459.936,4.863,4.863,0,0,0,1.8.33,4.654,4.654,0,0,0,2.4-.62,4.085,4.085,0,0,0,1.622-1.753l1.45.589A5.394,5.394,0,0,1,84.147,16.3,6.305,6.305,0,0,1,80.851,17.167Zm14.8-11.109H90.625v4.052h4.43v1.415h-4.43v4.043h5.027V17H89.016V4.625h6.636Zm6.838,11.109a5.648,5.648,0,0,1-3.23-.875,3.7,3.7,0,0,1-1.613-2.4l1.591-.378a2.609,2.609,0,0,0,1.116,1.688,3.775,3.775,0,0,0,2.188.615,4.566,4.566,0,0,0,.817-.07,3.127,3.127,0,0,0,.743-.233,2.274,2.274,0,0,0,.611-.4,1.669,1.669,0,0,0,.4-.606,2.076,2.076,0,0,0,.141-.826,1.786,1.786,0,0,0-.11-.584,1.855,1.855,0,0,0-.246-.461,1.657,1.657,0,0,0-.417-.374,5.594,5.594,0,0,0-.5-.3,4.529,4.529,0,0,0-.62-.25q-.391-.132-.655-.207L102,11.3q-.088-.026-.132-.035-.51-.132-.831-.229t-.769-.268a5.06,5.06,0,0,1-.734-.338,4.968,4.968,0,0,1-.6-.422,2.161,2.161,0,0,1-.5-.549,2.9,2.9,0,0,1-.3-.7,3.11,3.11,0,0,1-.119-.879,3.138,3.138,0,0,1,.576-1.9,3.368,3.368,0,0,1,1.485-1.16,5.392,5.392,0,0,1,2.043-.369,5.6,5.6,0,0,1,2.975.76,3.388,3.388,0,0,1,1.578,2.246l-1.529.387a2.328,2.328,0,0,0-1.028-1.521,3.523,3.523,0,0,0-1.934-.51,3.83,3.83,0,0,0-.949.114,2.82,2.82,0,0,0-.822.352,1.706,1.706,0,0,0-.593.646,1.965,1.965,0,0,0-.22.945,1.519,1.519,0,0,0,.088.523,1.605,1.605,0,0,0,.22.417,1.564,1.564,0,0,0,.378.343,3.839,3.839,0,0,0,.461.272,4.676,4.676,0,0,0,.576.224q.36.119.615.193t.677.18a14.318,14.318,0,0,1,2.382.791,3.014,3.014,0,0,1,1.837,2.276,3.924,3.924,0,0,1,.035.536,3.458,3.458,0,0,1-.356,1.6,2.885,2.885,0,0,1-.976,1.107,4.664,4.664,0,0,1-1.389.62A6.368,6.368,0,0,1,102.49,17.167ZM109.837,17V4.625h1.573V17ZM121.764,4.625V6.058h-3.173V17h-1.564V6.058h-3.182V4.625ZM131.168,17,130.1,14.038h-5.6L123.452,17h-1.644L126.37,4.625h1.881L132.812,17Zm-6.161-4.351h4.605l-2.3-6.442ZM65.207,41H63.677l-.826-10.213L58.9,41h-.94L54.027,30.822,53.192,41H51.654l.94-12.375h2.074l3.753,9.65,3.762-9.65h2.092ZM75.261,30.058H70.234v4.052h4.43v1.415h-4.43v4.043h5.027V41H68.625V28.625h6.636Zm4.21,11.109a5.493,5.493,0,0,1-2.707-.729L77.45,39.1a3.318,3.318,0,0,0,1.907.606,1.94,1.94,0,0,0,1.578-.681,2.862,2.862,0,0,0,.567-1.885V28.625h1.573v8.789a3.759,3.759,0,0,1-.984,2.747A3.5,3.5,0,0,1,79.471,41.167Zm12.6,0a6.574,6.574,0,0,1-2.435-.444,5.879,5.879,0,0,1-1.956-1.248,5.567,5.567,0,0,1-1.3-2.008,7.263,7.263,0,0,1-.47-2.663,7.144,7.144,0,0,1,.475-2.65A5.556,5.556,0,0,1,89.64,28.9a6.633,6.633,0,0,1,2.435-.439,6.526,6.526,0,0,1,2.417.444,5.831,5.831,0,0,1,1.951,1.248,5.652,5.652,0,0,1,1.3,2,7.659,7.659,0,0,1,0,5.309,5.638,5.638,0,0,1-1.3,2.013,5.831,5.831,0,0,1-1.951,1.248A6.526,6.526,0,0,1,92.075,41.167Zm0-1.485a4.422,4.422,0,0,0,3.274-1.305,4.847,4.847,0,0,0,1.3-3.573,5.674,5.674,0,0,0-.356-2.057,4.236,4.236,0,0,0-.976-1.529,4.28,4.28,0,0,0-1.45-.932,4.862,4.862,0,0,0-1.789-.325,4.921,4.921,0,0,0-1.8.325,4.317,4.317,0,0,0-1.459.932,4.206,4.206,0,0,0-.98,1.529,5.674,5.674,0,0,0-.356,2.057,5.771,5.771,0,0,0,.356,2.074,4.194,4.194,0,0,0,.98,1.538,4.374,4.374,0,0,0,1.459.936A4.863,4.863,0,0,0,92.075,39.682ZM107.939,41l-3.182-5.581h-1.942V41h-1.573V28.625h4.1a3.7,3.7,0,0,1,2.773.98,3.46,3.46,0,0,1,.954,2.518,3.1,3.1,0,0,1-2.742,3.234L109.776,41Zm-5.124-11V34.18h2.32a2.592,2.592,0,0,0,1.811-.558,1.959,1.959,0,0,0,.606-1.516,1.994,1.994,0,0,0-.611-1.529A2.555,2.555,0,0,0,105.135,30Zm17.631,11-1.063-2.962h-5.6L112.729,41h-1.644l4.562-12.375h1.881L122.089,41Zm-6.161-4.351h4.605l-2.3-6.442ZM131.256,41l-3.182-5.581h-1.942V41h-1.573V28.625h4.1a3.7,3.7,0,0,1,2.773.98,3.46,3.46,0,0,1,.954,2.518,3.1,3.1,0,0,1-2.742,3.234L133.093,41Zm-5.124-11V34.18h2.32a2.592,2.592,0,0,0,1.811-.558,1.959,1.959,0,0,0,.606-1.516,1.994,1.994,0,0,0-.611-1.529A2.555,2.555,0,0,0,128.453,30Z" transform="translate(2601 -2142)" fill="#00223d"/>
    <path id="Trazado_14884" data-name="Trazado 14884" d="M61.229,17l-3.182-5.581H56.105V17H54.532V4.625h4.1a3.7,3.7,0,0,1,2.773.98,3.46,3.46,0,0,1,.954,2.518,3.229,3.229,0,0,1-.725,2.153,3.241,3.241,0,0,1-2.017,1.081L63.066,17ZM56.105,6V10.18h2.32a2.592,2.592,0,0,0,1.811-.558,1.959,1.959,0,0,0,.606-1.516,1.994,1.994,0,0,0-.611-1.529A2.555,2.555,0,0,0,58.426,6Zm16.269.053H67.347v4.052h4.43v1.415h-4.43v4.043h5.027V17H65.738V4.625h6.636Zm7.8,11.109a6.608,6.608,0,0,1-2.413-.435,5.75,5.75,0,0,1-1.942-1.23,5.546,5.546,0,0,1-1.292-2,7.229,7.229,0,0,1-.47-2.659,6.912,6.912,0,0,1,.817-3.419,5.491,5.491,0,0,1,2.206-2.219A6.87,6.87,0,0,1,83.308,5.2a5.348,5.348,0,0,1,2.171,2.145l-1.389.747a3.956,3.956,0,0,0-1.6-1.63,4.671,4.671,0,0,0-2.268-.549,4.921,4.921,0,0,0-1.8.325A4.082,4.082,0,0,0,76,8.721a5.961,5.961,0,0,0-.352,2.1,5.929,5.929,0,0,0,.347,2.083,4.261,4.261,0,0,0,.967,1.551,4.2,4.2,0,0,0,1.468.949,5.04,5.04,0,0,0,1.841.33,4.217,4.217,0,0,0,2.834-.962,4.043,4.043,0,0,0,1.332-2.747H80.258V10.689h5.713V17H84.679V14.68a4.332,4.332,0,0,1-1.771,1.841A5.505,5.505,0,0,1,80.179,17.167Zm13.307,0a4.627,4.627,0,0,1-3.23-1.143A4.01,4.01,0,0,1,88.994,12.9V4.625h1.573v8.051a3.014,3.014,0,0,0,.813,2.276,2.91,2.91,0,0,0,2.1.782,2.947,2.947,0,0,0,2.118-.787,2.99,2.99,0,0,0,.826-2.272V4.625H98V12.9a4,4,0,0,1-1.27,3.129A4.671,4.671,0,0,1,93.485,17.167Zm9.721-1.6h4.3V17h-5.871V4.625h1.573ZM118.033,17l-1.063-2.962h-5.6L110.316,17h-1.644l4.562-12.375h1.881L119.677,17Zm-6.161-4.351h4.605l-2.3-6.442ZM128.844,17l-3.182-5.581H123.72V17h-1.573V4.625h4.1a3.7,3.7,0,0,1,2.773.98,3.46,3.46,0,0,1,.954,2.518,3.229,3.229,0,0,1-.725,2.153,3.241,3.241,0,0,1-2.017,1.081L130.681,17ZM123.72,6V10.18h2.32a2.592,2.592,0,0,0,1.811-.558,1.959,1.959,0,0,0,.606-1.516,1.994,1.994,0,0,0-.611-1.529A2.555,2.555,0,0,0,126.04,6Z" transform="translate(2793 -2130)" fill="#00223d"/>
    <path id="Trazado_14888" data-name="Trazado 14888" d="M69.061,10.54a3.32,3.32,0,0,1,1.789,1.077,3.061,3.061,0,0,1,.655,2.026,3.24,3.24,0,0,1-.954,2.426A3.484,3.484,0,0,1,68.006,17H63.189V4.625h3.753a3.8,3.8,0,0,1,2.65.91A3.044,3.044,0,0,1,70.6,7.9a3.13,3.13,0,0,1-.4,1.591A2.542,2.542,0,0,1,69.061,10.54ZM69.122,8a1.888,1.888,0,0,0-.593-1.433A2.223,2.223,0,0,0,66.934,6H64.71v4.043h2.514a1.752,1.752,0,0,0,1.367-.593A2.1,2.1,0,0,0,69.122,8Zm-1.38,7.6a2.185,2.185,0,0,0,1.63-.611,2.063,2.063,0,0,0,.6-1.507,2.032,2.032,0,0,0-.628-1.534,2.381,2.381,0,0,0-1.718-.6H64.71V15.6Zm10.925,1.564a4.627,4.627,0,0,1-3.23-1.143A4.01,4.01,0,0,1,74.176,12.9V4.625h1.573v8.051a3.014,3.014,0,0,0,.813,2.276,2.91,2.91,0,0,0,2.1.782,2.947,2.947,0,0,0,2.118-.787,2.99,2.99,0,0,0,.826-2.272V4.625h1.573V12.9a4,4,0,0,1-1.27,3.129A4.671,4.671,0,0,1,78.667,17.167ZM93.45,6.058H88.423v4.052h4.43v1.415h-4.43v4.043H93.45V17H86.814V4.625H93.45Zm11.329-1.433h1.564V17h-1.661L98.012,6.989V17H96.465V4.625h1.644l6.671,9.967Zm10.749,12.542a6.574,6.574,0,0,1-2.435-.444,5.879,5.879,0,0,1-1.956-1.248,5.567,5.567,0,0,1-1.3-2.008,7.263,7.263,0,0,1-.47-2.663,7.144,7.144,0,0,1,.475-2.65A5.556,5.556,0,0,1,113.094,4.9a6.633,6.633,0,0,1,2.435-.439,6.526,6.526,0,0,1,2.417.444A5.831,5.831,0,0,1,119.9,6.15a5.652,5.652,0,0,1,1.3,2,7.144,7.144,0,0,1,.475,2.65,7.213,7.213,0,0,1-.475,2.659,5.638,5.638,0,0,1-1.3,2.013,5.831,5.831,0,0,1-1.951,1.248A6.526,6.526,0,0,1,115.528,17.167Zm0-1.485a4.422,4.422,0,0,0,3.274-1.305,4.847,4.847,0,0,0,1.3-3.573,5.674,5.674,0,0,0-.356-2.057,4.236,4.236,0,0,0-.976-1.529,4.28,4.28,0,0,0-1.45-.932,4.862,4.862,0,0,0-1.789-.325,4.921,4.921,0,0,0-1.8.325,4.317,4.317,0,0,0-1.459.932,4.206,4.206,0,0,0-.98,1.529,5.674,5.674,0,0,0-.356,2.057,5.771,5.771,0,0,0,.356,2.074,4.194,4.194,0,0,0,.98,1.538,4.374,4.374,0,0,0,1.459.936A4.863,4.863,0,0,0,115.528,15.682Z" transform="translate(2985 -2130)" fill="#00223d"/>
    <path id="Trazado_14892" data-name="Trazado 14892" d="M54.233,17H52.7L51.878,6.787,47.923,17h-.94L43.054,6.822,42.219,17H40.681l.94-12.375H43.7l3.753,9.65,3.762-9.65H53.3Zm7.655.167a4.627,4.627,0,0,1-3.23-1.143A4.01,4.01,0,0,1,57.4,12.9V4.625h1.573v8.051a3.014,3.014,0,0,0,.813,2.276,2.91,2.91,0,0,0,2.1.782,2.947,2.947,0,0,0,2.118-.787,2.99,2.99,0,0,0,.826-2.272V4.625h1.573V12.9a4,4,0,0,1-1.27,3.129A4.671,4.671,0,0,1,61.889,17.167ZM78.219,4.625,74.149,11.1V17H72.567V11.111L68.489,4.625h1.793l3.076,5.063,3.076-5.062ZM91.1,10.54a3.32,3.32,0,0,1,1.789,1.077,3.061,3.061,0,0,1,.655,2.026,3.24,3.24,0,0,1-.954,2.426A3.484,3.484,0,0,1,90.049,17H85.232V4.625h3.753a3.8,3.8,0,0,1,2.65.91A3.044,3.044,0,0,1,92.642,7.9a3.13,3.13,0,0,1-.4,1.591A2.542,2.542,0,0,1,91.1,10.54ZM91.165,8a1.888,1.888,0,0,0-.593-1.433A2.223,2.223,0,0,0,88.977,6H86.753v4.043h2.514a1.752,1.752,0,0,0,1.367-.593A2.1,2.1,0,0,0,91.165,8Zm-1.38,7.6a2.185,2.185,0,0,0,1.63-.611,2.063,2.063,0,0,0,.6-1.507,2.032,2.032,0,0,0-.628-1.534,2.381,2.381,0,0,0-1.718-.6H86.753V15.6Zm10.925,1.564a4.627,4.627,0,0,1-3.23-1.143A4.01,4.01,0,0,1,96.219,12.9V4.625h1.573v8.051a3.014,3.014,0,0,0,.813,2.276,2.91,2.91,0,0,0,2.1.782,2.947,2.947,0,0,0,2.118-.787,2.99,2.99,0,0,0,.826-2.272V4.625h1.573V12.9a4,4,0,0,1-1.27,3.129A4.671,4.671,0,0,1,100.71,17.167ZM115.493,6.058h-5.027v4.052h4.43v1.415h-4.43v4.043h5.027V17h-6.636V4.625h6.636Zm11.329-1.433h1.564V17h-1.661L120.055,6.989V17h-1.547V4.625h1.644l6.671,9.967Zm10.749,12.542a6.574,6.574,0,0,1-2.435-.444,5.879,5.879,0,0,1-1.956-1.248,5.567,5.567,0,0,1-1.3-2.008,7.263,7.263,0,0,1-.47-2.663,7.144,7.144,0,0,1,.475-2.65A5.556,5.556,0,0,1,135.137,4.9a6.633,6.633,0,0,1,2.435-.439,6.526,6.526,0,0,1,2.417.444,5.831,5.831,0,0,1,1.951,1.248,5.652,5.652,0,0,1,1.3,2,7.144,7.144,0,0,1,.475,2.65,7.213,7.213,0,0,1-.475,2.659,5.638,5.638,0,0,1-1.3,2.013,5.831,5.831,0,0,1-1.951,1.248A6.526,6.526,0,0,1,137.571,17.167Zm0-1.485a4.422,4.422,0,0,0,3.274-1.305,4.847,4.847,0,0,0,1.3-3.573,5.674,5.674,0,0,0-.356-2.057,4.236,4.236,0,0,0-.976-1.529,4.28,4.28,0,0,0-1.45-.932,4.862,4.862,0,0,0-1.789-.325,4.921,4.921,0,0,0-1.8.325,4.317,4.317,0,0,0-1.459.932,4.206,4.206,0,0,0-.98,1.529,5.674,5.674,0,0,0-.356,2.057,5.771,5.771,0,0,0,.356,2.074,4.194,4.194,0,0,0,.98,1.538,4.374,4.374,0,0,0,1.459.936A4.863,4.863,0,0,0,137.571,15.682Z" transform="translate(3177 -2130)" fill="#00223d"/>
    <path id="Trazado_14896" data-name="Trazado 14896" d="M53.1,6.058H48.072v4.052H52.5v1.415h-4.43v4.043H53.1V17H46.464V4.625H53.1ZM54.673,17,59.5,10.54,54.893,4.625H56.8l3.63,4.8,3.621-4.8h1.907l-4.6,5.915L66.178,17H64.191L60.43,11.753,56.668,17Zm18.65.167a6.574,6.574,0,0,1-2.435-.444,5.879,5.879,0,0,1-1.956-1.248,5.567,5.567,0,0,1-1.3-2.008,7.263,7.263,0,0,1-.47-2.663,7.144,7.144,0,0,1,.475-2.65A5.556,5.556,0,0,1,70.889,4.9a6.633,6.633,0,0,1,2.435-.439,6.287,6.287,0,0,1,3.292.87A5.421,5.421,0,0,1,78.79,7.745l-1.45.6a4.075,4.075,0,0,0-1.622-1.762,4.654,4.654,0,0,0-2.4-.62,4.921,4.921,0,0,0-1.8.325,4.317,4.317,0,0,0-1.459.932,4.206,4.206,0,0,0-.98,1.529,5.674,5.674,0,0,0-.356,2.057,5.71,5.71,0,0,0,.356,2.061,4.2,4.2,0,0,0,.98,1.534,4.374,4.374,0,0,0,1.459.936,4.863,4.863,0,0,0,1.8.33,4.654,4.654,0,0,0,2.4-.62,4.085,4.085,0,0,0,1.622-1.753l1.45.589A5.394,5.394,0,0,1,76.619,16.3,6.305,6.305,0,0,1,73.323,17.167Zm14.8-11.109H83.1v4.052h4.43v1.415H83.1v4.043h5.027V17H81.488V4.625h6.636Zm4.588,9.51h4.3V17H91.139V4.625h1.573Zm13.377-9.51h-5.027v4.052h4.43v1.415h-4.43v4.043h5.027V17H99.453V4.625h6.636Zm11.329-1.433h1.564V17h-1.661L110.65,6.989V17H109.1V4.625h1.644l6.671,9.967Zm11.918,0V6.058h-3.173V17H124.6V6.058h-3.182V4.625Zm9.07,1.433h-5.027v4.052h4.43v1.415h-4.43v4.043h5.027V17h-6.636V4.625h6.636Z" transform="translate(3369 -2130)" fill="#00223d"/>
  </g>
</svg>
