<svg xmlns="http://www.w3.org/2000/svg" width="1014.89" height="1014.89" viewBox="0 0 1014.89 1014.89">
  <defs>
    <style>
      .cls-1 {
        fill: #e5f5f9;
      }

      .cls-2 {
        fill: #6188a3;
      }

      .cls-3 {
        opacity: 0.26;
      }

      .cls-4 {
        fill: #fffff1;
      }

      .cls-5 {
        opacity: 0.05;
      }

      .cls-6 {
        opacity: 0.12;
      }

      .cls-7 {
        fill: #c4d3d3;
      }

      .cls-8 {
        opacity: 0.47;
      }

      .cls-11, .cls-9 {
        fill: #8c9498;
      }

      .cls-10 {
        fill: #6bac8f;
      }

      .cls-11 {
        opacity: 0.32;
      }
    </style>
  </defs>
  <g id="background">
    <circle class="cls-1" cx="507.44" cy="507.44" r="454.55"/>
  </g>
  <g id="object">
    <g>
      <g>
        <rect class="cls-2" x="208.05" y="139.65" width="598.78" height="799.06" transform="translate(-3.08 2.92) rotate(-0.33)"/>
        <polygon class="cls-3" points="254.82 905.83 263.79 905.78 792.65 919.15 774.49 163.56 749.95 170.77 254.82 905.83"/>
        <rect class="cls-4" x="238.23" y="165.09" width="538.38" height="739.28" transform="matrix(1, -0.01, 0.01, 1, -3.06, 2.92)"/>
        <polygon class="cls-5" points="233.17 163.84 620.4 161.61 234.4 489.83 233.17 163.84"/>
        <g>
          <rect class="cls-6" x="388.43" y="161.2" width="233.82" height="21.95" transform="translate(-0.98 2.9) rotate(-0.33)"/>
          <path class="cls-7" d="M573.88,94.41l-3.63,0V92c-.13-23-21.7-41.6-48.17-41.45l-34.86.2c-26.47.15-47.82,19-47.69,42l0,2.45-3.63,0c-26.47.15-47.82,19-47.68,42l.26,46.61,233.82-1.34L622,135.86C621.91,112.81,600.35,94.25,573.88,94.41ZM535.7,95.59l-61.6.35A11.45,11.45,0,1,1,474,73l61.6-.35a11.45,11.45,0,1,1,.13,22.9Z"/>
        </g>
      </g>
      <g class="cls-8">
        <path class="cls-9" d="M387.72,372.42l-79.05.46a4.18,4.18,0,0,0-4.09,4.14l.45,79a4.17,4.17,0,0,0,4.14,4.09l79.05-.45a3.8,3.8,0,0,0,2.78-1.12l.14-.13.07-.08a3.77,3.77,0,0,0,1.1-2.81l-.45-79A4.18,4.18,0,0,0,387.72,372.42Zm-3.67,79.07-70.81.41q-.19-35.41-.4-70.81l70.81-.41Q383.85,416.08,384.05,451.49Z"/>
        <path class="cls-9" d="M388.56,518.57l-79.05.45a4.18,4.18,0,0,0-4.09,4.14l.45,79.05A4.18,4.18,0,0,0,310,606.3l79.05-.45a3.82,3.82,0,0,0,2.78-1.12l.13-.13.08-.08a3.77,3.77,0,0,0,1.1-2.81l-.45-79.05A4.18,4.18,0,0,0,388.56,518.57Zm-3.67,79.07-70.81.4q-.19-35.4-.4-70.81l70.81-.4Q384.69,562.23,384.89,597.64Z"/>
        <path class="cls-9" d="M389.39,664.72l-79,.45a4.18,4.18,0,0,0-4.09,4.14l.45,79.05a4.18,4.18,0,0,0,4.14,4.09l79-.45a3.82,3.82,0,0,0,2.77-1.12l.14-.13.08-.08a3.82,3.82,0,0,0,1.1-2.81l-.45-79.05A4.19,4.19,0,0,0,389.39,664.72Zm-3.66,79.07-70.81.4q-.19-35.4-.4-70.81l70.8-.4Q385.53,708.38,385.73,743.79Z"/>
      </g>
      <polygon class="cls-10" points="335.47 402.63 353.6 396.47 363.8 414.58 450.24 351.5 460.34 353.47 359.89 436.81 335.47 402.63"/>
      <polygon class="cls-10" points="329.74 552.52 347.87 546.36 358.07 564.47 444.51 501.4 454.62 503.36 354.16 586.7 329.74 552.52"/>
      <polygon class="cls-10" points="328.89 690.86 347.02 684.7 357.22 702.81 443.66 639.73 453.76 641.69 353.31 725.03 328.89 690.86"/>
      <rect class="cls-11" x="440.46" y="695.74" width="278.85" height="39.52" transform="translate(-4.09 3.34) rotate(-0.33)"/>
      <rect class="cls-11" x="439.58" y="540.95" width="278.85" height="39.52" transform="translate(-3.21 3.33) rotate(-0.33)"/>
      <rect class="cls-11" x="438.69" y="386.15" width="278.85" height="39.52" transform="translate(-2.32 3.32) rotate(-0.33)"/>
    </g>
  </g>
</svg>
