<svg id="Layer_1" data-name="Layer 1" xmlns="http://www.w3.org/2000/svg" width="990.07" height="823.65" viewBox="0 0 990.07 823.65">
  <defs>
    <style>
      .cls-1 {
        fill: #da97b8;
      }

      .cls-1, .cls-17, .cls-5 {
        opacity: 0.3;
      }

      .cls-2 {
        fill: #cae1fc;
      }

      .cls-3 {
        fill: #cbcfff;
      }

      .cls-3, .cls-4 {
        opacity: 0.6;
      }

      .cls-15, .cls-21, .cls-4, .cls-5 {
        fill: #fff;
      }

      .cls-6 {
        fill: #97a6cc;
      }

      .cls-7 {
        fill: #312555;
      }

      .cls-8 {
        fill: #f5b29c;
      }

      .cls-9 {
        fill: #e4a18e;
      }

      .cls-10 {
        fill: #2e3054;
      }

      .cls-11 {
        fill: #fa7071;
      }

      .cls-12 {
        fill: #b7aee0;
      }

      .cls-13 {
        fill: #2a2b7c;
      }

      .cls-14 {
        fill: #7ab6f6;
      }

      .cls-15, .cls-20 {
        opacity: 0.5;
      }

      .cls-16 {
        fill: #ffc5c0;
      }

      .cls-17 {
        fill: #a8bcff;
      }

      .cls-18 {
        fill: #9dafe2;
      }

      .cls-19 {
        fill: #faaab3;
      }
    </style>
  </defs>
  <g>
    <path class="cls-1" d="M632.14,274.41c0,126.22-102.32,228.53-228.54,228.53S175.07,400.63,175.07,274.41,277.39,45.88,403.6,45.88,632.14,148.2,632.14,274.41Z"/>
    <path class="cls-2" d="M549.76,537.92A174.94,174.94,0,1,1,340.84,405.4,174.93,174.93,0,0,1,549.76,537.92Z"/>
    <path class="cls-3" d="M863.37,353.57C896.7,502.52,803,650.29,654,683.62S357.3,623.23,324,474.28s60.39-296.73,209.34-330.06S830,204.61,863.37,353.57Z"/>
    <path class="cls-4" d="M410.05,452.66a17.14,17.14,0,1,1-20.48-13A17.15,17.15,0,0,1,410.05,452.66Z"/>
    <path class="cls-5" d="M393.7,552.94a36.43,36.43,0,1,1-43.51-27.59A36.45,36.45,0,0,1,393.7,552.94Z"/>
    <path class="cls-5" d="M702.94,436.9a68.68,68.68,0,1,1-82-52A68.69,68.69,0,0,1,702.94,436.9Z"/>
    <path class="cls-5" d="M168.41,276.6a38.82,38.82,0,1,0,38.82-38.82A38.82,38.82,0,0,0,168.41,276.6Z"/>
    <path class="cls-2" d="M577.18,76.28a42.87,42.87,0,1,0,42.87-42.86A42.86,42.86,0,0,0,577.18,76.28Z"/>
    <path class="cls-5" d="M282.89,304.85a60,60,0,1,0,60-60A60,60,0,0,0,282.89,304.85Z"/>
    <path class="cls-6" d="M281,205a12.39,12.39,0,1,1,12.39-12.39A12.4,12.4,0,0,1,281,205ZM281,186a6.68,6.68,0,1,0,6.68,6.67A6.68,6.68,0,0,0,281,186Z"/>
    <path class="cls-6" d="M680.08,350.77A21.92,21.92,0,1,1,702,328.85,21.95,21.95,0,0,1,680.08,350.77Zm0-38.12a16.21,16.21,0,1,0,16.21,16.2A16.22,16.22,0,0,0,680.08,312.65Z"/>
    <path class="cls-5" d="M769.59,509.8a19.07,19.07,0,1,0,19.07-19.06A19.07,19.07,0,0,0,769.59,509.8Z"/>
    <g>
      <path class="cls-7" d="M467.32,530.06a11.53,11.53,0,0,0-1.89,1.07c-4.15,2.9-6.26,5.07-11.39,6.88a119.8,119.8,0,0,0-17.76,7.66c-13.07,7.12-26.84,11.9-39.64,19.58-9.77,5.86-19.92,10.82-29.67,16.65-9.18,5.49-24.23,14.43-14.83,26.15,6.71,8.35,18.83,12.91,28.68,16.19,6.37,2.13,9.29,2,14.85-.34,8.41-3.46,18.17-5.24,27.76-7.19a289.52,289.52,0,0,0,31.44-8.52c10.44-3.38,20.68-6.7,30.94-10.44,6.58-2.41,38-11,21.09-20.11-6.94-3.72-12.82-5.16-13.1-13.44-.31-9,.94-16.15-4.65-24.26C484.66,533.43,475.08,526.66,467.32,530.06Z"/>
      <path class="cls-8" d="M734.87,746.75c1.67,3.69,5.56,5.16,8.43,8.14,5,5.15,5.94,20.22-.81,24.66-3.15,2.07-7.87,0-9.77,4.67-3.39,8.37,13.32,5.73,17.11,5.18,12.13-1.81,12.86-5.68,13.33-17.31.31-7.73.65-14.45,3.55-21.52,3.27-8,6.09-12.7-4.05-14.77-6.08-1.25-13-.65-15.58-7.67Z"/>
      <path class="cls-7" d="M496.62,592.93c2.08,1.9,4.19,3.78,6.14,5.79a168.87,168.87,0,0,1,14.16,16.56c10.37,13.93,24,21.42,38.92,30.23,7.19,4.27,14.7,8.38,21.47,13.21,6.55,4.67,13.16,6.56,20.62,9.77,5.3,2.29,11.41,5.1,16.88,7.18,5.72,2.18,11.53,4.27,17.06,6.92,19.66,9.47,38.23,21,56.27,33.24,16.45,11.14,34.9,20.8,49.79,34,4.26-6.41,11.84-11.14,15.27-17.49-5.23-4.7-8-11.11-11.17-17.17-8.28-15.64-23.21-27.32-38.13-36.38s-32.23-12-45.64-23.5c-18.59-15.86-37.43-32-56.65-47.62-9.73-7.89-19.55-18.68-28.19-28-3.75-4.06-10.22-9.61-10.88-14.24-.54-3.92.67-8.58,0-12.85-.71-4.56-1.35-9.14-3.54-13.28-5.93-11.24-15.66-19.7-26.47-26.1-11.69-6.92-23.27-6.47-36.26-2.11-9.52,3.18-13,13.82-13.36,22.85-.39,8.69-.18,17.76-.11,26.62.07,7.82.19,16.33,4.84,22.87A61.29,61.29,0,0,0,496.62,592.93Z"/>
      <path class="cls-9" d="M510.66,352.31c4-12,16.26-20.87,24.49-29.37,10.09-10.43,19.62-24.49,9.84-38.44-17.48-25-59.46-13.43-67.78,11.8-8.82,11.46-14.16,16.42-14.16,16.42,6.61,7.12,4.38,7,2.06,14C460.84,339.82,480,339,483.53,348.38c1.44,3.79-.18,10.55,0,14.65.31,7.5,1.54,7,8.91,7,3.44,0,11.68,1.58,14.63,0,4.48-2.4,1.79-8.27,2.55-13.36A25.43,25.43,0,0,1,510.66,352.31Z"/>
      <path class="cls-10" d="M511.71,296.18s-48.44-1-45.1-17.38,17.74-11.35,17.74-11.35-17.42-14.78,0-14.11S558,258,545.43,300.43c0,0-14.46,26.11-26.6,33.76l-6.68-10.39s21.06-17.36,8.89-17.88S511,308.81,511,308.81,501,305.18,511.71,296.18Z"/>
      <path class="cls-10" d="M567.5,346c9.35,6.22,13.07-4.74,8.56-12-3.34-5.4-8.8-14.78-13.76-18.68-2.24-5.65-2.39-11.55-4.38-19-2.68-10.06-8.24-21-15.77-28.26-14.81-14.2-64.53-23.07-61.12,11,1.36,13.67,18,14.51,29.15,18-3.1.74-6.11,1.41-9.23,2.06,2.18,5.26,6.85,7.62,11.27,10.72,3.13,2.2-28.59,39.44-30.36,44.14-5.54,14.76,13,50.89,24.55,27.72,9,19.06,36.24,28.75,53.26,12.57C572.67,381.88,575.58,360.47,567.5,346Z"/>
      <path class="cls-8" d="M361.34,749.3c0,3.56,2.33,12.41.66,16.55-2.11,5.23-9.83,6.84-14.65,8.29-8.71,2.61-18.31,6.58-27.38,7.62-4.38.5-9.5.38-4.45,5.09,4.53,4.22,19.06,3.28,24.82,2.69,11.11-1.14,22.58-1.46,33.71-2,8.56-.4,14.36-2.14,8.8-12.12-4.09-7.32.47-17.63-5-23.57Z"/>
      <path class="cls-7" d="M348.29,604.26c-1.55,6-.91,12.1-.67,19,.49,13.48.84,26.52,2.51,40,2.53,20.31,7.71,40.21,10.33,60.52,1.48,11.43-2.51,23.28,1,34.33,4.29.68,11.37,2.49,15.62,1.43,5.93-1.48,4.66-3.85,4.71-10.2.09-11.69.24-23.42,2.56-34.94,2.37-11.71,5.24-23.32,6.56-35.2,1.13-10.25,5.41-20,4.75-30.39-.48-7.65-4.8-20.63-1.65-29.25,4.79-13.14,6.82-28.31-7.71-35-12.1-5.61-26.25.21-33.72,10.75A26.91,26.91,0,0,0,348.29,604.26Z"/>
      <path class="cls-11" d="M457.27,537.55c-5-8.12-5.77-19.18-7.46-28.28-1.76-9.38-7-17.78-10.05-26.74-2.14-6.37-2.91-13.16-5.34-19.44-2-5.06-1.87-12.6-4.84-16.85-2.47-3.53-5.45-5.86-7-10-7.58-20.39,9.94-40.09,23.68-52.92,14.54-13.6,36.55-35.62,58.24-23.93,11.4,6.14,18,20.34,15.85,32.6-3.16,18-6.37,36.29-10.11,54.32-2.87,13.85-4.31,27.66,1.33,41.05,2.94,7,7.33,13,10.74,19.69,2.05,4,1.74,3.88-1.09,7.15a61.89,61.89,0,0,1-13.36,11c-9.67,6.24-19.2,11.8-30.56,13.33-7,1-14.34.5-21.47.5Z"/>
      <path class="cls-8" d="M513.52,379.79c3.12-32.2,6.57-67,3.44-100.05.85-23.91,3.21-48.16,3-72.09-.17-15.23-1.62-18.58-.17-25.23,1.73-7.88,4.2-10,6.39-18,1.61-5.85,3.09-14.3,3-20.36-5.94-.42-5.76,9-11.11,10.13a103,103,0,0,0-3.38-19c-1.51-5.78-3.18-12.84-5.77-11.73-1.87.8-2.45,7.27-2.41,8.95-.56-3.11-.82-7.75-3.26-10.21-2.09,2.31-1.6,8.18-1.6,8.18s-2.71-5.85-4.43-5.24-.13,10.72,0,15.51c.11-2.6-2.69-11.27-4.35-11.25s-1.43,3.51-1.32,5.92c.22,4.54.92,9,1.35,13.52,1,10,2.87,16.49,5.32,26.24,2.48,9.9,6,14,3.33,33.39-4.54,32.94-24.1,126.39-30.82,173.91C463.72,431.1,511,405.7,513.52,379.79Z"/>
    </g>
    <g>
      <path class="cls-12" d="M857.24,745.28c0,1.64-16.6,3-37.08,3s-37.08-1.35-37.08-3,16.6-3,37.08-3S857.24,743.62,857.24,745.28Z"/>
      <rect class="cls-13" x="818.13" y="346.64" width="1.95" height="400.08"/>
      <path class="cls-14" d="M819.22,311.19c-.36,1.21-.79,2.43-1.28,3.66-15.14,37.75-87.72,85-34.3,128.51-38.92,22.22-36.52,46.06-2.91,81.13-3.61-3.78-13.71,8.85-14.46,11.46-1.25,4.36.63,13.73,1.86,18.5,3.93,15.24,13.81,28.22,22.89,41.48a452.82,452.82,0,0,1,29,49.15c-3.8-47.88,79.25-103.92,30.43-136.63,13.8-8.1,40.39-21.51,40.58-40.69.24-24.57-27.45-27.83-44.94-26.11,42-45.12,16.91-64.58-12.25-85.94l-1.31-18.1C830.83,328.13,824.23,319.55,819.22,311.19Z"/>
      <path class="cls-15" d="M820.08,537.27v-40.8c.14-.05.29-.05.39-.16L872.78,444c-.7-.23-1.4-.44-2.11-.64l-50.59,50.58V473.05c.14-.05.29-.05.39-.16l31.59-31.58c-1,0-1.93,0-2.87.1l-29.11,29.11v-56c.14-.05.29-.05.39-.16l37.91-37.9c-.43-.49-.87-1-1.32-1.45l-37,37V397.91c.14-.05.29-.05.39-.16L850,368.24l-1.5-1.26-28.4,28.4V312.59c-.29-.46-.58-.93-.86-1.4-.3,1-.69,2.06-1.09,3.1V373l-23.3-23.31-1.21,1.55,24.51,24.52V446.4l-51.51-51.52c-.23.71-.45,1.41-.64,2.12l52.15,52.16v71.4l-57.79-57.79c-.38.56-.73,1.12-1.07,1.69l58.86,58.86V535l-62.32-62.32c-.19.76-.34,1.52-.46,2.29l62.78,62.79v62.38L766.9,548.85c.23,1.23.47,2.41.71,3.48l50.52,50.52v38.74c.61,1.16,1.26,2.32,1.86,3.49a43.47,43.47,0,0,1,.09-7.12V562.34a1,1,0,0,0,.39-.16l41.72-41.72c-.33-.58-.65-1.16-1-1.72l-41.07,41.07V537.4A.29.29,0,0,0,820.08,537.27Z"/>
      <path class="cls-13" d="M816.94,746.08c-7,.83-18.86-14.35-18.76-20.72,10.73-1.58,14.29,14.23,18.11,20.07Z"/>
      <path class="cls-13" d="M819.57,746.62l.19-2.87c.19-3.06,4.93-75.29,26.31-93.11,4.24-3.53,8.91-4.72,13.85-3.53,4.31,1,7.14,3.47,8.41,7.24,7.64,22.59-44.7,87.3-46.94,90Zm38.24-98a13.57,13.57,0,0,0-10.55,3.45c-18.38,15.32-24.29,74.79-25.43,88.84,9.44-12,51.28-66.64,44.76-85.95-1.07-3.17-3.4-5.15-7.11-6C858.92,648.77,858.35,648.67,857.81,648.6Z"/>
    </g>
    <g>
      <path class="cls-16" d="M150.72,780.26c9.34-.07,31.66-.93,28.3-15.77-2.62.12-6.34-1-8.85-.43,15.52-6.15,15.32-22.14,14.55-37.23-6.88,4.51-15.26,14-17.14,22.53-8.3-8-10.48,3.18-12.56,10.14-2.88,9.75-5,15.91-14.55,21.89Z"/>
      <path class="cls-17" d="M178.48,780.07c0,2.79-14.14,5.06-31.59,5.06s-31.59-2.27-31.59-5.06S129.45,775,146.89,775,178.48,777.28,178.48,780.07Z"/>
      <path class="cls-18" d="M146.12,782.69c-2.49-.82,10.57-35.08,10.59-38.36,0-15.14-8.56-18.24-11.43-1.84,3.5-14.42.53-43.56-12.79-52.34-7.93,6.6-6.8,21-4.57,30.44C130.55,731.79,136.27,779.43,146.12,782.69Z"/>
      <path class="cls-13" d="M143.07,775.55c-7.74-23.77-11.44-48-44-45.28-.6,11.34,11.13,17.11,20.13,20.66-7.14-1-12.73,2.6-8.67,8.77,3,4.64,14.46,4.82,19.14,5.71-11.39,7.17,8.75,14.48,14.68,15.34Z"/>
    </g>
    <g>
      <g>
        <path class="cls-5" d="M233.46,630.41c-16.06-4.73-27.41-19.18-26.38-36.33.53-9.12,4.61-8,10.15-13.5,5.88-5.85,2.66-8.05-2.31-14.54-9.12-11.88-17.68-25.24-14-41.06,3.51-15,21.24-14.72,17.32-30.37-5-20.13-3-40.12-.71-60.78,1.36-12.09,5.76-41.61,22.4-42.06,15.69-.43,14.94,28.83,15.24,38.75.3,9.23-1.65,15.62,5.44,20.82,9.06,6.67,19.58,8.88,21.47,22.21,2.23,15.69-15.16,22.3-16,36.24-.71,11.56,15.84,18.25,21.74,27.78,11.05,17.86-10.47,18-12.28,32.25a6.71,6.71,0,0,1-1.12,2.35c6,4.55,14.34,7,17.77,14.31,4,8.54,1.07,17.28-4.82,23.85-11.85,13.2-34.11,24.85-51.91,20.59C234.79,630.77,234.11,630.59,233.46,630.41Z"/>
        <path class="cls-19" d="M233.46,630.41c-16.06-4.73-27.41-19.18-26.38-36.33.53-9.12,4.61-8,10.15-13.5,5.88-5.85,2.66-8.05-2.31-14.54-9.12-11.88-17.68-25.24-14-41.06,3.51-15,21.24-14.72,17.32-30.37-5-20.13-3-40.12-.71-60.78,1.36-12.09,5.76-41.61,22.4-42.06,15.69-.43,14.94,28.83,15.24,38.75.3,9.23-1.65,15.62,5.44,20.82,9.06,6.67,19.58,8.88,21.47,22.21,2.23,15.69-15.16,22.3-16,36.24-.71,11.56,15.84,18.25,21.74,27.78,11.05,17.86-10.47,18-12.28,32.25a6.71,6.71,0,0,1-1.12,2.35c6,4.55,14.34,7,17.77,14.31,4,8.54,1.07,17.28-4.82,23.85-11.85,13.2-34.11,24.85-51.91,20.59C234.79,630.77,234.11,630.59,233.46,630.41Z"/>
        <g class="cls-20">
          <rect class="cls-21" x="239.55" y="391.77" width="0.79" height="333.58"/>
          <g>
            <path class="cls-21" d="M240.23,512.59l41.42-41.4-.24-.91L239.67,512Z"/>
            <path class="cls-21" d="M240.23,500l37.06-37.07c-.17-.19-.35-.39-.54-.57l-37.08,37.08Z"/>
            <path class="cls-21" d="M240.23,557.28l33.5-33.51c-.19-.19-.37-.37-.57-.54l-33.49,33.48Z"/>
            <path class="cls-21" d="M239.67,444.59l.56.57,15-15c0-.35,0-.71,0-1.11Z"/>
            <path class="cls-21" d="M239.67,564.3l.56.56,37.56-37.56c-.21-.16-.41-.33-.61-.5Z"/>
            <polygon class="cls-21" points="282.24 583.27 239.67 625.84 240.23 626.41 282.8 583.84 282.24 583.27"/>
            <polygon class="cls-21" points="239.67 579.48 240.23 580.04 282.8 537.46 282.24 536.91 239.67 579.48"/>
            <path class="cls-21" d="M240.66,533.11l-25.58-25.58a6,6,0,0,1-.57.56l25.57,25.58Z"/>
            <path class="cls-21" d="M240.66,542.38,210.19,511.9c-.22.18-.42.35-.62.54L240.08,543Z"/>
            <path class="cls-21" d="M240.66,599.7l-21.44-21.44c-.16.22-.31.44-.49.66l21.35,21.35Z"/>
            <path class="cls-21" d="M239.67,613.2l.56.56,38.66-38.67c-.23-.15-.47-.27-.7-.41Z"/>
            <path class="cls-21" d="M221.88,411.77,240.08,430l.58-.56-18.51-18.5Z"/>
            <path class="cls-21" d="M240.66,473.26,216,448.63c0,.35-.05.69-.09,1l24.15,24.15Z"/>
            <path class="cls-21" d="M240.66,481.68l-25.22-25.2c0,.36,0,.72-.05,1.07l24.69,24.7Z"/>
          </g>
        </g>
        <rect class="cls-13" x="239.8" y="631.54" width="1.3" height="104.1"/>
      </g>
      <path class="cls-12" d="M265.11,734.58c0,1.21-12.15,2.19-27.14,2.19s-27.14-1-27.14-2.19S223,732.39,238,732.39,265.11,733.36,265.11,734.58Z"/>
      <path class="cls-19" d="M241.34,733s-21.25-76.13-34.86-42.89S241.34,733,241.34,733Z"/>
    </g>
  </g>
</svg>
