<svg id="Layer_1" data-name="Layer 1" xmlns="http://www.w3.org/2000/svg" width="3000" height="1477.11" viewBox="0 0 3000 1477.11">
  <defs>
    <style>
      .cls-1 {
        fill: #ebf3fa;
      }

      .cls-2 {
        fill: #f8fbff;
      }

      .cls-3 {
        fill: #e1efff;
      }

      .cls-4 {
        fill: #d9e9fc;
      }

      .cls-5 {
        fill: #8cb7ea;
      }

      .cls-6 {
        fill: #b4d5ef;
      }

      .cls-7 {
        fill: #afd295;
      }

      .cls-8 {
        fill: #82b378;
      }

      .cls-9 {
        fill: #233862;
      }

      .cls-10 {
        fill: #e8945b;
      }

      .cls-11 {
        fill: #f99f46;
      }

      .cls-12 {
        fill: #d86713;
        opacity: 0.4;
      }

      .cls-13 {
        fill: #c65447;
      }

      .cls-14 {
        fill: #ffb27d;
      }

      .cls-15 {
        fill: #b84c42;
      }

      .cls-16 {
        fill: #aa3e39;
      }

      .cls-17 {
        fill: #2c3a64;
      }

      .cls-18 {
        fill: #c0783d;
      }

      .cls-19 {
        fill: #2b478b;
      }

      .cls-20 {
        fill: #466aa5;
      }

      .cls-21 {
        fill: #fff;
      }

      .cls-22 {
        fill: #2e3552;
      }
    </style>
  </defs>
  <g>
    <g>
      <path class="cls-1" d="M194.22,1384.75c.09.48.18,1,.28,1.43l41.75-.14,647.23-2,427.09-1.3,13,0,30.06-.09,390.71-1.2,900.25-2.77h0l33.05-.09h0l22.92-.07h0l13.23,0,5.84,0s.87-1.43,2.46-4.22c.15-.27.31-.54.48-.83l2-3.53c4.21-7.67,10.85-20.28,18.65-37q3-6.49,6.29-13.84c1.71-3.89,3.47-7.94,5.24-12.16.6-1.4,1.19-2.82,1.79-4.27s1.23-3,1.86-4.48c3.27-8,6.6-16.56,9.93-25.57h0q4.92-13.31,9.75-28c.06-.21.14-.42.21-.64q2.67-8.19,5.28-16.76,3.83-12.55,7.37-25.9,3.38-12.75,6.45-26.11c3.61-15.78,6.81-32.19,9.45-49.15a636.36,636.36,0,0,0,7.8-107.94,547.31,547.31,0,0,0-12-107.06c-19.6-90.9-65.41-184.49-154.27-270.13-326.77-314.89-607.83-140.42-750.42-149.18-25.55-1.56-48-11.72-70.07-27.8C1787.44,434.37,1748.32,385,1693.74,332c-81.81-79.48-198.33-167.1-406-208-257-50.68-610-36.47-762.69,115.82-92.39,92.13-111.48,234.78,8.32,444.17Q544.3,703,556.79,722.85q10.5,16.68,18.33,31.85c13.18,25.45,21,47.88,24.28,67.87,7.91,48-10.26,82.06-42.8,110a268,268,0,0,1-31.37,22.86c-38,24-86.06,44.65-134,68.84-26.44,13.36-52.84,27.79-77.49,44.49-22.89,15.51-44.27,33-62.76,53.28a252.83,252.83,0,0,0-32.17,43.77c-.52.9-1,1.8-1.54,2.71a243.94,243.94,0,0,0-26.41,72.26c-.27,1.37-.54,2.76-.79,4.15C182.91,1284.31,183.41,1330.33,194.22,1384.75Z"/>
      <path class="cls-2" d="M533.38,683.91,1976.76,929.34l103.55-124.17L525.06,239.74C432.67,331.87,413.58,474.52,533.38,683.91Z"/>
      <path class="cls-3" d="M194.5,1386.17l689-2.12,427.09-1.3,13,0,30.07-.09c274.61-152.37,358.3-312.16,358.3-312.16-9.83-2.45-712.6-147.28-1186.7-115-38,24-86.06,44.65-134,68.84-26.44,13.36-52.84,27.8-77.49,44.49C225.93,1128.29,160.36,1216.44,194.5,1386.17Z"/>
      <path class="cls-4" d="M194.5,1386.17l2525.16-7.75s135.43-224.07,83-467.46c-31.1,21.13-66.36,36.43-88.75,19-28.27-22-109.23-86.21-170.53-134.9l0,0c-42.16-33.5-75-59.66-75-59.66s-34.44-33.13-57-23.85c-10.43,4.29-20.58,14.55-29.51,23.94l-.09.08c-10.33,10.85-19,20.51-24.73,18.38-5.14-1.92-42.95-40.58-86.9-83.51-46.73-45.68-100.41-96.22-129.1-112.6,0,0-26.68-27.35-55.64,4-14.84,16-37.66,57-63.15,106.31-58.82,113.67-131.9,271.53-154.08,269.43-31.8-3-81.27-73.69-111.31-80.76S1590,1097,1531.69,1107.56s-169.63-79.52-259.75-53S1036,1229.48,900.84,1203c-108.18-21.21-352.8-140.81-509.57-178.67C270.57,1085.26,150.79,1168.81,194.5,1386.17Z"/>
      <path class="cls-5" d="M190.9,1240.82l4.72-1.61c4.92-1.46,12.95-3.21,20.45-2.1,7.9,1.17,21.21,10.91,29.31,17.37-3.77-6.38-7.24-14.37-8.1-23.11-2.11-21.17,6.18-45.06,19.43-29.28,9.61,11.43,5.29,41.62,2.19,57.37,5.12,2,10.28,4.2,15.44,6.58,6.34-22.35,15.43-48.94,27.87-74.85,5.92-12.36,124.33,9.84,174.52,39.27,80,46.89,328.73-.34,406.48,12s226.91,70.15,371.8,31.28,622-63.61,761.53-88.34c122.84-21.77,565.41-149.69,798.09-167.42a636.28,636.28,0,0,1-7.8,107.94c-22.78,145.94-87.17,252.47-87.17,252.47l-1836.18,5.63L555.43,1381l-362.59-3.42C183,1324.34,183.23,1279.33,190.9,1240.82Z"/>
      <path class="cls-6" d="M193.27,1379.87,555.43,1381l328.05,3.09,427.09-1.31,13,0,30.07-.09,390.71-1.2,975.32-3s64.39-106.53,87.17-252.47c-185.35,16-552.49,50.85-991.52,106.18-630.85,79.52-959.62,132-1302.4,25.85-63.23-19.58-118-37.24-166-52.57q-23.4-7.48-44.68-14.22-21.07-6.64-40.26-12.53c-14.52-4.45-29.71-9.62-42.78-13.36-.92,1.53-1.2,2.09-1.86,3.26a243.83,243.83,0,0,0-26.41,72.26C183.23,1279.33,183.46,1326.67,193.27,1379.87Z"/>
      <path class="cls-7" d="M193.27,1379.87l690.21,4.18,427.09-1.3,13,0,30.07-.09,390.71-1.2,975.84-3.87s1.27-2.09,4.37-7.71c4.22-7.67,10.85-20.28,18.66-37-104-36.33-304.13-156.54-482-99.54-265.06,84.92-1315.3,144.67-1503.49,110.22s-359.22-77.11-427.41-13.81C311.84,1346.81,207.81,1300.16,193.27,1379.87Z"/>
      <path class="cls-8" d="M2722.59,1373.35c.58-1,1.23-2.2,2-3.52,4.22-7.67,10.85-20.28,18.66-37q3-6.49,6.28-13.84c1.72-3.89,3.48-7.94,5.25-12.16.59-1.4,1.2-2.82,1.79-4.26s1.23-3,1.85-4.5c-44.89-105.18-145.89-314.82-240.27-288.67C2425.07,1035.13,2618.94,1261.06,2722.59,1373.35Z"/>
      <path class="cls-8" d="M2783.56,1227.11q3.81-12.57,7.37-25.91c2.25-8.48,4.42-17.19,6.45-26.1-18.6-94.29-48.91-209.37-85.48-205.15C2668.54,975,2738.33,1133.47,2783.56,1227.11Z"/>
      <path class="cls-8" d="M2430.87,1284.78c31.4,16.75,122.1,58.67,199.28,93.87h0l40.75-.12h0l28.25-.09c-65.82-61.29-181-150.76-282-149.77a20,20,0,0,0-19.6,16.54C2396,1255.26,2401.65,1269.2,2430.87,1284.78Z"/>
      <path class="cls-2" d="M2022.2,668.11c14,4.5,33.44,6.91,35.86-11.87,3.54-27.39,82.16,25.62,122.8,37.11s17.67-35.34,18.55-48.59c.54-8.1,40.05,10.21,70.68,25.67-46.73-45.68-100.41-96.22-129.1-112.6,0,0-26.68-27.35-55.64,4C2070.51,577.83,2047.69,618.82,2022.2,668.11Z"/>
      <path class="cls-2" d="M2381.81,735.48c.89-.81,8.47-7,22.27.08,14.72,7.55,34.16,11.68,43,9s96.27,50.48,96.27,50.48l0,0c-42.16-33.5-75-59.66-75-59.66s-34.44-33.13-57-23.85C2400.89,715.83,2390.74,726.09,2381.81,735.48Z"/>
      <path class="cls-2" d="M1075.58,215.65l752.28,248.19C1787.44,434.37,1748.32,385,1693.74,332Z"/>
      <path class="cls-2" d="M1098.8,298.45a33.08,33.08,0,1,1-33.08,33.08A33.08,33.08,0,0,1,1098.8,298.45Z"/>
    </g>
    <g>
      <g>
        <path class="cls-9" d="M1825.62,368.94s-46.86-24.68-114-29.61A78.8,78.8,0,0,0,1631,393.2q-1,3-1.86,6.16C1613.38,456.1,1622,627.85,1675,672.65s150.58,25.9,150.58,25.9Z"/>
        <polygon class="cls-8" points="1743.29 292.6 1857.42 311.89 1848.72 351.12 1744.1 375.89 1743.29 292.6"/>
        <path class="cls-10" d="M2155.33,539.71c-5.14-3.67-9.8,9.61-16.22,9.07-1.49-.12,6.43-7.9,8.32-10.62s1.48-4.21.11-5-19.57,9.15-23.29,13.18c-2.28,2.47-7.21,11.59-10.68,18.25,0-.05,0-.07-.05-.06s-103.55,7.66-124.44,5.87c-15.16-1.19-22.62-108.34-23.79-108.13-19.75,3.26-58.12,11.34-81.81,27.41a7.37,7.37,0,0,1-2.86,1.44c9.05,33.15,22.54,72.08,42.14,108.3A68,68,0,0,0,1987.83,635c36.14-2.79,89.23-12.12,134.45-40.87,0,0,23.41-11.89,34.3-21.5C2171.46,559.53,2160.47,543.38,2155.33,539.71Z"/>
        <path class="cls-11" d="M1973.22,752.52s-7,87.7-13.69,173c-9.09,115.93-43.69,404.8-43.69,404.8s7.33,11.51-28.27,4c0,0-43.63-98.39-52.7-211.57-.14-1.85-.28-3.72-.42-5.59-8.43-115.21-21.54-357.82-21.54-357.82Z"/>
        <path class="cls-12" d="M1973.85,744.69s-7.63,95.53-14.32,180.87L1834.87,1122.8c-.14-1.85-.28-3.72-.42-5.59-8.43-115.21-21.54-357.82-21.54-357.82Z"/>
        <path class="cls-11" d="M1966.51,749.5l-290.7,553.3s-27.06,12.14-30.57,1.6c0,0,25.79-253.5,71-310.37,25.52-32.13,55.5-128.56,56.9-162.28s9.41-105,9.41-105Z"/>
        <g>
          <path class="cls-9" d="M1725.22,1380.75s-42.19.6-54.4-11.37c-1.44-1.4-6.09-15.55-6.13-15.7-.38-1.14-2.52-6.32-11.23-9.24-5.73-1.92-10.49-1.85-16-4a149.24,149.24,0,0,1-15.68-7.63c-13.07-7.62-10.09-11.66-10.09-11.66s2.88-2.61,6.67-6.42c1-1,2.12-2.16,3.23-3.36,5.66-6,12-13.6,13.57-19a18.35,18.35,0,0,1,6.41-9.54,17.39,17.39,0,0,1,6-3.13s4.61,18.5,13.73,16.19c17.64-4.47,20.93-3.94,21.54-3.67l.14.11s14.41,27.94,18.43,37.91c7.14,17.76,16.3,24.47,22,30.31a15.71,15.71,0,0,1,3.26,4.78C1729.71,1372,1727.51,1379.49,1725.22,1380.75Z"/>
          <path class="cls-13" d="M1725.22,1380.75s-42.19.6-54.4-11.37c-1.44-1.4-6.09-15.55-6.13-15.7-.38-1.14-2.52-6.32-11.23-9.24-5.73-1.92-10.49-1.85-16-4a149.24,149.24,0,0,1-15.68-7.63c-13.07-7.62-10.09-11.66-10.09-11.66s2.88-2.61,6.67-6.42c1-1,2.12-2.16,3.23-3.36,1.37,5.37,5.18,14.94,15.27,18.85,14.41,5.59,29.87,15.19,34.41,22.93s7.46,14.66,16.27,17.6,31.73,3.73,33.33,2.93c1.28-.64,2.55-6.33,5.84-8.37C1729.71,1372,1727.51,1379.49,1725.22,1380.75Z"/>
        </g>
        <g>
          <path class="cls-9" d="M1882.46,1380.85h17.44c5.85-.92,10.16-2.61,16.16-3.4,9.1-1.19,13.29,2.54,14.12,3.4l.16.17h74.1c1.87-2.66.08-8.83-1.67-13.36a10.57,10.57,0,0,0-6.94-6.35c-7.86-2.27-23.35-4.3-37.54-17.14-8-7.21-38.54-26.52-38.54-26.52l-.16,0c-.67,0-3.87,1-17.77,12.73-7.19,6.06-19.43-8.55-19.43-8.55a17.47,17.47,0,0,0-4,5.44,18.39,18.39,0,0,0-1.59,11.38c1.1,6.68-2.46,19.09-5.31,27.48-1.73,5.08-3.18,8.69-3.18,8.69S1867.45,1379,1882.46,1380.85Z"/>
          <path class="cls-13" d="M1882.49,1381.1h17.37c5.85-.92,10.2-2.86,16.2-3.65,9.1-1.19,13.29,2.54,14.12,3.4l.16.17h74.1c1.87-2.66.08-8.83-1.67-13.36-2.25-2-2.89,8.69-4.13,10.39s-60.45.62-63.87-1.87-13.68-6.83-28-3.42c-12.44,3-30.78-4.65-35.32-6.67-1.73,5.08-3.18,8.69-3.18,8.69S1867.49,1379.22,1882.49,1381.1Z"/>
        </g>
        <path class="cls-14" d="M1814.36,359.05s69.43,34.17,109.56,21.51a96.26,96.26,0,0,0-27.1-22.09c1-5.84,1.77-11.18,2.39-15.93a249.65,249.65,0,0,0,2.31-27L1859,281.24l-9.55-7.69a121.05,121.05,0,0,1-1.3,22.63c-.08.55-.16,1.1-.25,1.63C1841,339.1,1814.36,359.05,1814.36,359.05Z"/>
        <path class="cls-15" d="M1774.73,722.55c-.2,4.43,8.91,9.29,12.86,11.06,17.56,7.87,34.4,14.33,51.68,18.91a229.24,229.24,0,0,0,37.21,6.75c37.17,3.81,81.11-4.56,96.18-4.36a6.53,6.53,0,0,0,4.22-1.6c1-.81,1.81-46.22,1-103.49,0-2.2,0-4.63-.2-6.83v-.8c-.2-22.32-1-45.82-2-69.13-2.21-51.44-6.22-101.08-13.06-128.61-8-32.34-26.52-53.65-43.4-69.32l-12-11.93a3.25,3.25,0,0,0-2.87-.88c-13.42,2.48-28.12,2.27-42.21-4.67-15.87-7.83-33.15-16.28-36-14.27-33,24.62-49.35,97.37-49,180.07,0,2.6,0,5.23.07,7.86.15,8.54.46,17.18,1,25.87,3.59,61-.09,113.91-2.19,144.67C1775.35,710.69,1774.87,717.71,1774.73,722.55Z"/>
        <path class="cls-16" d="M1774.73,722.55c-.2,4.43,8.91,9.29,12.86,11.06,17.56,7.87,34.4,14.33,51.68,18.91,48-154.9-9.46-305-9.46-305l-52.61,83.83c.15,8.54.46,17.18,1,25.87,3.59,61-.09,113.91-2.19,144.67C1775.35,710.69,1774.87,717.71,1774.73,722.55Z"/>
        <path class="cls-15" d="M1848.48,471.62c-17.19-10.19-51.7-28.67-80.21-31.6a9.28,9.28,0,0,1-7.56-12.94c9-20.58,34.47-63.67,65.47-83.7,2.91-1.88,5.1-.24,8.12,1.45,11.44,6.42,36.07,25.41,37.59,47.79,1.34,19.91-5.48,54.44-9.61,73A9.29,9.29,0,0,1,1848.48,471.62Z"/>
        <path class="cls-10" d="M1847.53,297.19l.34.62c2.68,4.82,21,35.83,51.34,44.73a249.65,249.65,0,0,0,2.31-27L1859,281.24a120.59,120.59,0,0,0-10.85,14.94C1847.73,296.83,1847.53,297.19,1847.53,297.19Z"/>
        <path class="cls-14" d="M1913.79,314.59s-66.28,11-72.5-30.38-19-67.82,23.09-76.61,52.67,5.78,58.11,19.08S1930.88,310.66,1913.79,314.59Z"/>
        <path class="cls-17" d="M1932.77,202.71c-13.75-6.34-80.75-38.15-109.48-9.14a79.9,79.9,0,0,1-.44-9.72c-2.09,3.79-3,9.34-3.44,13.29-2.56-3.08-7.31-3.59-7.31-3.59a10.27,10.27,0,0,1,5.43,7.27c-28.46,42.33,14.76,85.39,20.7,92.11,6.13,6.93,9.64,4.88,9.64,4.88s10.82-14.65,5.56-24.26c0,0-8.8-8.89-3.73-14.49s8,2.93,12,2.66,11.2-12,11.73-22.66,39,5.61,54.49.54S1957,213.85,1932.77,202.71Z"/>
        <path class="cls-9" d="M1775.75,568.6l-2-12.63c30.73-5,55.59-19.76,73.89-43.88,13.81-18.22,23.54-42.07,26.69-65.46,6.09-45.32-5.84-71.12-36.47-78.87-27.43-6.94-59.14,14.5-59.45,14.72l-7.26-10.55c1.48-1,36.74-24.95,69.86-16.58,25.81,6.53,54.75,28,46,93-2,15-8.48,44.22-29.17,71.49C1837.43,546.66,1809.83,563.07,1775.75,568.6Z"/>
        <ellipse class="cls-7" cx="1734.04" cy="334.34" rx="40.69" ry="42.87"/>
        <path class="cls-8" d="M1705.14,335.46a37.3,37.3,0,0,1,37.29-37.29c.91,0,1.8.05,2.69.11a37.29,37.29,0,1,0-12.36,73.2A37.3,37.3,0,0,1,1705.14,335.46Z"/>
        <g>
          <rect class="cls-18" x="2137.87" y="519.43" width="10.71" height="739.05"/>
          <rect class="cls-9" x="2133.26" y="511.46" width="19.93" height="95.17" rx="6.84"/>
          <path class="cls-9" d="M2153.75,1263.15h-21.06a5.31,5.31,0,0,1-5.31-5.31h0a5.31,5.31,0,0,1,5.31-5.31h21.06a5.31,5.31,0,0,1,5.31,5.31h0A5.31,5.31,0,0,1,2153.75,1263.15Z"/>
          <path class="cls-18" d="M2143.25,1283.67h0a3.69,3.69,0,0,1-3.67-3.32l-1.71-17.2h10.7l-1.64,17.18A3.69,3.69,0,0,1,2143.25,1283.67Z"/>
        </g>
        <g>
          <rect class="cls-18" x="1726.25" y="544.54" width="10.71" height="739.05" transform="translate(926.27 -870.7) rotate(37.89)"/>
          <path class="cls-9" d="M1907.44,693.16l-4.93-3.83a6.84,6.84,0,0,1-1.2-9.6l50-64.32a6.84,6.84,0,0,1,9.6-1.2l4.93,3.84a6.84,6.84,0,0,1,1.2,9.6L1917,692A6.83,6.83,0,0,1,1907.44,693.16Z"/>
          <path class="cls-9" d="M1510.12,1215.86l-16.62-12.93a5.3,5.3,0,0,1-.92-7.45h0a5.31,5.31,0,0,1,7.45-.93l16.61,12.93a5.3,5.3,0,0,1,.93,7.45h0A5.3,5.3,0,0,1,1510.12,1215.86Z"/>
          <path class="cls-18" d="M1489.24,1225.62h0a3.69,3.69,0,0,1-.86-4.88l9.21-14.63,8.45,6.58-11.85,12.55A3.7,3.7,0,0,1,1489.24,1225.62Z"/>
        </g>
        <path class="cls-14" d="M1953.35,655.59c-1.18-4.66-14.46-2.89-22.76-3.79a3.84,3.84,0,0,1-2.64-6.13l4.07-5.41c-6.09-1.24-13.17-2.23-16.06-1.87-3.34.43-13,4.22-19.94,7.08,0-.05,0-.08,0-.08s-84.13-60.85-99-75.68c-10.83-10.67,52.49-97.43,51.45-98-17.2-10.23-51.75-28.77-80.22-31.74a7.34,7.34,0,0,1-3.12-.74c-14.43,31.19-29.19,69.65-37.53,110a68,68,0,0,0,26.85,69.1c29.44,21.14,76.06,48.22,129.17,55.36,0,0,28.53,11,43,10.68C1946.55,683.91,1954.91,661.71,1953.35,655.59Z"/>
        <path class="cls-10" d="M2128.81,542.8s13.43-11,18.69,1.77c3.67,8.93-1.51,15.78-5,19.1a3.64,3.64,0,0,1-5.86-1.08,11.1,11.1,0,0,1-.27-7.32l-12.3,26.57Z"/>
        <path class="cls-10" d="M2153.18,539.09s-8.06-.37-8.85,13.31-2.37,33.18,9.22,22.74S2153.18,539.09,2153.18,539.09Z"/>
      </g>
      <g>
        <rect class="cls-18" x="1383.68" y="727.39" width="10.71" height="631.98" transform="translate(710.54 -555.9) rotate(30.1)"/>
        <path class="cls-11" d="M1159.22,802.33c1.44,3.49,7.7,6.6,16.72,8.83,20.21,5,54.29,5.7,79.14-3.51,26.66-9.87,46-150.74,54.21-222.94,2.86-25.18,4.38-42,4.38-42s-15.31-24-74.57-16-65.23,28-70.55,63.91S1154.56,791,1159.22,802.33Z"/>
        <polygon class="cls-16" points="1213.42 479.41 1327.55 498.71 1318.84 537.93 1214.23 562.7 1213.42 479.41"/>
        <ellipse class="cls-15" cx="1204.17" cy="521.16" rx="40.69" ry="42.87"/>
        <path class="cls-16" d="M1175.27,522.28A37.28,37.28,0,0,1,1212.56,485c.9,0,1.8,0,2.69.11a37.28,37.28,0,1,0-12.37,73.19A37.29,37.29,0,0,1,1175.27,522.28Z"/>
        <path class="cls-10" d="M1541.77,805.3c-.5-6.82-10.41-12.69-16.7-14.47-5-1.43-11.57-8.45-14-11.18-22.47-28.45-55.85-86.62-64.19-96.69-3-3.66-12.32-22.44-24.36-46.61-8.1-16.25-17.44-35-26.94-53.12-14.49,5.25-32,12.46-47.08,21.12,9.08,14.51,21.16,33.89,31.82,51.3,9.81,16,18.4,30.36,22.33,37.62,12,22.35,94.23,97.67,94.23,97.67l4.58,4.6a20.59,20.59,0,0,1,2.42,2.93c2.56,3.81,7.33,11.49,14.68,18.16,4.46,4.06,7.42,6.67,15.72,5.61C1544.77,820.92,1542.26,812.13,1541.77,805.3Z"/>
        <path class="cls-9" d="M1392.76,566.08s41,81.89,46.93,94.75c0,0-21.72,43.13-35.84,42.87S1392.76,566.08,1392.76,566.08Z"/>
        <path class="cls-9" d="M1291.11,383c-.64-2.23-8.73-27.35-47.91-19,0,0,19.62-2.47,25,5.08,0,0-15.55-7.12-25.29-1.16s-11.34,26-9.88,32.12,12.2,24.27,19.33,24.27a21.15,21.15,0,0,0,8.12-2,95.16,95.16,0,0,0-2.89,10.58c-7.56,35.59,16.1,62.64,28.34,55.95,7.84-4.28,13.78,9.45,13.78,9.45l65.13-86.33S1319.46,357.37,1291.11,383Z"/>
        <path class="cls-14" d="M1393.42,809.46c-29.55-94.46,2.84-115-.24-162.27s-39.67-98.09-39.67-98.09-1.87-.19-5-.48c-2.46-1.29-3.11-11.57-3.08-22.41,0-13,1-26.83,1-26.83l-43.89-8.69-2.61-.52c.1,30.55-7.94,50.61-13.77,55.28-5.48.63-28.86,3.57-43.27,9.6-5.43,2.26-9.58,5-11,8.14-12.06,26.51-24.09,93.39-32.55,141.11-4.71,26.59-15.1,60.19-7.37,67.33l45.5-17.25c1.71-8.09,4.64-24.84,9.52-43,.74-2.75-.22-6.07.54-8.88,8.63,23.39,13,34.21,12.79,44.31-.34,14.38-10.09,27.3-30.47,73C1218.57,845.1,1423.59,905.93,1393.42,809.46Z"/>
        <path class="cls-10" d="M1346.43,499.38s-1,13.81-1,26.83c-24.56-.7-37.54-23.1-42.86-35.52Z"/>
        <path class="cls-9" d="M1298,485.91s-12.87-20.34-16-37.73c-2.2-12.41,4.12-58.43,50.37-51.8a62.74,62.74,0,0,1,26,9.85c10,6.78,24.53,21.42,8.33,61.58l-4.21,13.56Z"/>
        <path class="cls-14" d="M1354.63,511.7s-58.11,1-58.15-35.24S1288.91,416,1326,413.87s44.33,11.66,47.28,23.74S1369.74,510.52,1354.63,511.7Z"/>
        <path class="cls-15" d="M1435.72,1355.31l-18.65,4.58a574.65,574.65,0,0,1-53.7-94.94c-15.45-34.71-28.89-74.34-31.6-111.18-1.22-16.67-.25-32.77,3.72-47.58,0,0-5.21-35-12.34-81.8-7.91-52-18.18-118.45-26.22-167.31l4.86-1.45,104.06-30.9s20.35,79.74,11,204.68c-1.91,25.64-5.07,53.17-9.91,82.31-8.27,49.81-4.87,99.87,2,141.55C1418.8,1312.87,1435.72,1355.31,1435.72,1355.31Z"/>
        <path class="cls-16" d="M1416.89,1029.41,1335.33,1180c-2.26-13.76-9.45-38.33.16-73.8,0,0-5.21-35-12.34-81.8-7.91-52-18.18-118.45-26.22-167.31l4.86-1.45,104.06-30.9S1426.2,904.47,1416.89,1029.41Z"/>
        <path class="cls-15" d="M1325.56,1114.54c-3.69,6.92-40.26,50.88-77,99.56-3.15,4.16-6.42,8.65-9.75,13.37-21.65,30.48-46.57,70.23-61.46,89.58-13.54,17.59-25.7-4.43-18.87-20.15,10.77-24.79,19.9-68.13,30.34-100a207.55,207.55,0,0,1,7.46-19.93c11.24-25.12,33.13-52.65,59.74-79.9,4.62-4.72-38.6-117.53-35.72-204.53,1.13-34.47,5.93-64.79,16.91-83.27l109.34,5.42S1361.52,1047,1325.56,1114.54Z"/>
        <path class="cls-9" d="M1371.56,417.48c-9-10.87-15.75-8.5-19.55-5.24-31.16-17.28-70.34,1.41-70.34,1.41a450,450,0,0,0-4.53,47.81s10.59,6.55,35,.27c7.45-1.92,14.11-7.21,19.77-13.63a135.72,135.72,0,0,1-23.32,28.48c29.16-13.49,40.88-54.05,42-58.34,3.55,3.18,10.54,10.11,12.67,16.89,2.9,9.22,4.2,28.19,9.74,27.55C1373.05,462.68,1385,433.81,1371.56,417.48Z"/>
        <path class="cls-19" d="M1216.13,852.84a25.83,25.83,0,0,0,.68,8.73c2.32,7.32,10.31,10.66,29.62,8.66,11.81-1.23,17.07-21,19.42-37.89q10.64,36.23,29.85,40.55c18.72,4.16,113.17,15.65,119.35-29.25,6.8-49.38-13.56-136.82-14.68-184a233.78,233.78,0,0,0,3.42-43.69c-.79-33.58-10.64-52.4-18.22-60-2.15-1.65-4.29-2.68-12.91-4.16-4.41-.75-10.51-1.62-19.15-2.75,0,0-3.73-.48-3.64-.35,1.59,2.86,18.78,28.16,17.12,36.49-1.75,8.72-67.84,7.46-73.08,2.67S1275,547,1275,547s-26.86,2.93-40,12.49l.14.17a11.06,11.06,0,0,0-3.45,3.64c-14,26.69-28,94-37.87,142.1,23.87,13.16,44.72,9.24,51.19,7.5C1236.57,768.2,1217.39,827.62,1216.13,852.84Z"/>
        <path class="cls-11" d="M1353.5,549.1l.12.19c2.58,4.08,42.88,68.5,46.75,110.39a233.78,233.78,0,0,0,3.42-43.69c-5.18-15.83-28.4-51.25-40.51-65.57C1362.41,549.4,1353.5,549.1,1353.5,549.1Z"/>
        <path class="cls-14" d="M1363.37,1265a574.18,574.18,0,0,0,53.7,95l18.65-4.59s-16.92-42.44-26.74-102C1403.13,1257.61,1390.48,1263.19,1363.37,1265Z"/>
        <g>
          <path class="cls-9" d="M1402.33,1381h12.77c4.28-.67,7.44-1.91,11.83-2.49,6.67-.87,9.73,1.86,10.35,2.49a.78.78,0,0,1,.11.13h54.27c1.37-1.95.06-6.47-1.23-9.79a7.73,7.73,0,0,0-5.08-4.65c-5.75-1.66-17.1-3.15-27.49-12.55-5.84-5.28-28.22-19.42-28.22-19.42l-.12,0c-.49,0-2.83.73-13,9.32-5.27,4.44-14.24-6.26-14.24-6.26a12.79,12.79,0,0,0-2.94,4,13.42,13.42,0,0,0-1.16,8.33c.81,4.89-1.81,14-3.89,20.12-1.27,3.72-2.33,6.37-2.33,6.37S1391.34,1379.59,1402.33,1381Z"/>
          <path class="cls-20" d="M1402.33,1381h12.77c4.28-.67,7.44-1.91,11.83-2.49,6.67-.87,9.73,1.86,10.35,2.49a.78.78,0,0,1,.11.13h54.27c1.37-1.95.06-6.47-1.23-9.79-1.65-1.47-2.11,6.36-3,7.61s-44.27.46-46.78-1.37-10-5-20.48-2.5c-9.12,2.18-22.55-3.4-25.87-4.89-1.27,3.72-2.33,6.37-2.33,6.37S1391.34,1379.59,1402.33,1381Z"/>
        </g>
        <path class="cls-9" d="M1216.13,852.84c13-4.34,29.62-15.86,49.61-41.7,52.92-68.4,4.49-148.78-2-150.28s-18.71,52-18.71,52c-1.26,11.59-4.23,23.82-6.62,35.7-.24,1.2-.56,2.3-.75,3.48-2.15,13.8-.75,27-3.85,39.8-.06.27-5.65,1.16-5.72,1.42C1222,818.46,1216.76,840.19,1216.13,852.84Z"/>
        <path class="cls-21" d="M1337.93,490.33s1.11,4.46,12.22,3.64c0,0,9.32-.69,9-5.6C1359.13,488.37,1350,485,1337.93,490.33Z"/>
        <path class="cls-14" d="M1238.83,1227.47c-21.65,30.48-46.57,70.23-61.46,89.58-13.54,17.59-25.7-4.43-18.87-20.15,10.77-24.79,19.9-68.13,30.34-100C1195.85,1207.53,1210.16,1221.29,1238.83,1227.47Z"/>
        <g>
          <path class="cls-9" d="M1206.34,1381.08s-31.83-4-39.77-14.28c-.94-1.21-3-12.35-3-12.47-.16-.9-1.23-5-7.48-8.14-4.11-2-7.71-2.5-11.62-4.71a110.25,110.25,0,0,1-11-7.4c-9-7.11-6.37-9.84-6.37-9.84s2.44-1.66,5.69-4.13c.88-.67,1.83-1.41,2.79-2.19,4.9-3.94,10.44-9,12.22-12.9a14,14,0,0,1,5.83-6.51,13.44,13.44,0,0,1,4.85-1.73s1.52,14.42,8.63,13.64c13.75-1.51,16.18-.77,16.61-.5l.09.1s7.91,22.56,9.89,30.49c3.51,14.13,9.7,20.14,13.42,25.14a12,12,0,0,1,1.95,3.94C1210.64,1375,1208.2,1380.37,1206.34,1381.08Z"/>
          <path class="cls-20" d="M1206.34,1381.08s-31.83-4-39.77-14.28c-.94-1.21-3-12.35-3-12.47-.16-.9-1.23-5-7.48-8.14-4.11-2-7.71-2.5-11.62-4.71a110.25,110.25,0,0,1-11-7.4c-9-7.11-6.37-9.84-6.37-9.84s2.44-1.66,5.69-4.13c.88-.67,1.83-1.41,2.79-2.19.47,4.18,2.33,11.79,9.52,15.8,10.26,5.73,20.9,14.58,23.5,20.88s4.08,11.83,10.4,15,23.5,6.15,24.79,5.72c1-.35,2.59-4.51,5.28-5.7C1210.64,1375,1208.2,1380.37,1206.34,1381.08Z"/>
        </g>
        <path class="cls-11" d="M1255.64,550.16l-19.34,7.32c14,14.14,37.47,42.81,47.41,84.4,14.65,61.25-40.34,81.12-40.34,81.12l-4.83,24.74-.13.82S1307,732.09,1303,655.2C1300.25,601.87,1271.61,565.87,1255.64,550.16Z"/>
        <path class="cls-9" d="M1506.47,847l-5.41-3.13a6.84,6.84,0,0,1-2.48-9.35l40.86-70.5a6.84,6.84,0,0,1,9.35-2.49l5.4,3.13a6.85,6.85,0,0,1,2.49,9.35l-40.86,70.5A6.85,6.85,0,0,1,1506.47,847Z"/>
        <path class="cls-9" d="M1237.34,1326.09l-18.22-10.56a5.3,5.3,0,0,1-1.93-7.25h0a5.31,5.31,0,0,1,7.26-1.94l18.21,10.56a5.31,5.31,0,0,1,1.93,7.26h0A5.3,5.3,0,0,1,1237.34,1326.09Z"/>
        <path class="cls-18" d="M1218,1338.58h0a3.68,3.68,0,0,1-1.51-4.71l7.14-15.74,9.26,5.37-10,14A3.69,3.69,0,0,1,1218,1338.58Z"/>
        <g>
          <rect class="cls-18" x="1108.46" y="689.64" width="10.71" height="631.98" transform="translate(1281.63 -485.58) rotate(54.34)"/>
          <path class="cls-9" d="M1301.54,874.81l-3.64-5.08a6.84,6.84,0,0,1,1.57-9.54l66.21-47.51a6.85,6.85,0,0,1,9.55,1.58l3.64,5.07a6.85,6.85,0,0,1-1.57,9.55l-66.22,47.5A6.84,6.84,0,0,1,1301.54,874.81Z"/>
          <path class="cls-9" d="M859.4,1201.11,847.13,1184a5.3,5.3,0,0,1,1.22-7.41h0a5.31,5.31,0,0,1,7.41,1.22L868,1194.92a5.31,5.31,0,0,1-1.22,7.41h0A5.31,5.31,0,0,1,859.4,1201.11Z"/>
          <path class="cls-18" d="M836.61,1204.55h0a3.7,3.7,0,0,1,.56-4.92l13-11.42,6.25,8.7-14.93,8.67A3.69,3.69,0,0,1,836.61,1204.55Z"/>
        </g>
        <path class="cls-14" d="M1215.87,733.89,1192,771.63c41.34,28.55,88.27,44.18,118.67,63.94,2.94,2.14,11.76,6.34,13.65,11.22,2.35,6.1,7.27,13.9,14.11,13.77s17.13-4.91,18.48-11.75c.59-3-2.09-1.88-8.1-7.76-5-4.87-7.07-8-7.33-11-2.34-1.8-10.89-6.11-10.89-6.11-5.31-3.12-8.75-5.22-8.75-5.22h0v0S1242.73,757.19,1215.87,733.89Z"/>
        <path class="cls-10" d="M1529.07,804.65c.2-1.78.47-3.65.83-5.36,1.22-5.71-9.32-10.78-9.32-10.78l-6,8.5s9.71,5.85,9.51,10.81a4.55,4.55,0,0,0,1.06,3.41c-2.1,5-2.83,10.56,3.56,11.11,8.67.74,12-20.65,12-20.65S1533.07,801.22,1529.07,804.65Z"/>
        <path class="cls-14" d="M1237.66,752a183.33,183.33,0,0,0,7.37-39.18S1233,739.59,1237.66,752Z"/>
      </g>
    </g>
    <rect class="cls-22" x="137.99" y="1379.87" width="2724.01" height="7.23" rx="3.09"/>
  </g>
</svg>
