<svg id="_лой_1" data-name="‘лой_1" xmlns="http://www.w3.org/2000/svg" width="3000" height="1854" viewBox="0 0 3000 1854">
  <defs>
    <style>
      .cls-1 {
        fill: #ebf3fa;
      }

      .cls-2, .cls-7 {
        fill: #aec3ff;
      }

      .cls-2 {
        opacity: 0.3;
      }

      .cls-3 {
        fill: #2e3552;
      }

      .cls-4, .cls-5 {
        fill: #cde0fb;
      }

      .cls-5 {
        opacity: 0.5;
      }

      .cls-6 {
        fill: #f78248;
      }

      .cls-8 {
        fill: #94b0ed;
      }

      .cls-9 {
        fill: #24406d;
      }

      .cls-10 {
        fill: #ff9e55;
      }

      .cls-11 {
        fill: #ed7d2b;
      }

      .cls-12 {
        fill: #ffb27d;
      }

      .cls-13 {
        fill: #ed975d;
      }

      .cls-14 {
        fill: #233862;
      }

      .cls-15 {
        fill: #163560;
      }

      .cls-16 {
        fill: #1d3356;
      }

      .cls-17 {
        fill: #f2ccaa;
      }

      .cls-18 {
        fill: #2b478b;
      }

      .cls-19 {
        fill: #fff;
      }

      .cls-20 {
        fill: #e8945b;
      }

      .cls-21 {
        fill: #ffe5d4;
      }
    </style>
  </defs>
  <g>
    <path class="cls-1" d="M399.09,1726S84.66,1420.83,284.7,1061.77,753.4,883.28,740.4,465.36s617.88-453.81,818.69-332.64,199.61,267.12,614.16,218.84S2667,705.8,2559.16,911c-153,291.07,424.7,243.06,60.67,815.06Z"/>
    <g>
      <path class="cls-2" d="M1779.87,1007.88s66.81-283.17,292.2-314.3c0,0,43.85-5.39,58.45,42.9s-72.59,48.63-126.48,68.06S1824.5,906.3,1779.87,1007.88Z"/>
      <path class="cls-2" d="M1774.75,954.89s-23.43-234.56,141-317.8c0,0,32.18-15.69,56.09,17.46s-42.79,56.39-79,85.47S1782.17,865.3,1774.75,954.89Z"/>
    </g>
    <rect class="cls-3" x="184.86" y="1721.87" width="2590.79" height="7.12" rx="2.99"/>
    <path class="cls-4" d="M558.7,1513c-34.8-79.29,91.42-147.41,91.42-147.41s166.32,53.83,190.2,39.07-133.21-73.8-133.21-73.8c38.76-37.92,187.38-72.68,187.38-72.68s100.26,138.35,119.77,118.16-95-118-95-118c50.51-20.56,126.7-3.68,126.7-3.68,109.72,39.06,53.89,177.93,53.89,177.93s35.78,47.2,106.85,77.14h0s14.29,4.59,34.19,15.93l-11.09,8.93c-3.3-2.24-6.61-4.31-9.94-6.18l-.06,0-.15-.08c-2.14-1.1-5.19-2.66-9-4.53h0c-8.73-3.9-15-7-19.27-9.33l0,0c-26.93-12.65-63.4-28-77.74-25.83a27.54,27.54,0,0,0-1.72-7l1.72,7c13.78,56-75.68,139.21-137.3,170.95s-50.58-1.73-41.6-48.88,73.78-88.82,83.76-112.51S995,1485.76,962,1516.87s-22.3,80.56-74.88,131.86-182.26-20.88-182.26-20.88c49.15-19.47,102.19-98,94-113.7s-111.53,69.71-131.08,78.75S593.49,1592.33,558.7,1513Z"/>
    <path class="cls-4" d="M2147.81,1608.37c50.77-59.9-41.29-151.77-41.29-151.77s-158.47,3.73-175.4-15.28S2066,1411.67,2066,1411.67c-23.87-43-144-111.67-144-111.67s-122.94,94.28-134.67,71.69,113.11-77.93,113.11-77.93c-38.57-30.94-109.15-36-109.15-36-105.46,5.55-92.89,140.68-92.89,140.68s-43.31,31.75-112.82,39.38h0s-13.6.28-33.83,5l7.33,10.64q5.16-1.65,10.24-2.8a.07.07,0,0,1,.06,0l.15,0c2.14-.4,5.2-1,9-1.62h0c8.6-1.13,14.81-2.17,19.16-3.12h0c26.67-4,62.35-7.92,74.24-2.32a25.27,25.27,0,0,1,3.31-5.64c-1,1.8-2.15,3.67-3.31,5.64-26.46,45.07,29.74,140.56,75.07,184.1s44.41,11.58,48.81-31.71-41.13-96.28-43.67-119.46,23.58-4.74,44.26,30.86-1.47,75.78,31,134,163.79,29,163.79,29c-37.67-29.65-63.45-111.58-52.24-123.14s78.88,89.45,93.53,102.36S2097.05,1668.26,2147.81,1608.37Z"/>
    <path class="cls-5" d="M884.94,448.14c52.32-87.79,204.31-13.23,204.31-13.23s62.32,196.71,92.87,209.54-20.43-178.59-20.43-178.59C1224.7,477.1,1360,596.07,1360,596.07s-64.19,191.18-31.42,196.09S1376.78,620,1376.78,620c54.39,34.44,90.41,119.22,90.41,119.22,37.69,132.2-134,173.77-134,173.77s-20.81,66.73-.86,155.55h0s5.39,16.88,8.14,43.77l-16.18-4.53c-.11-4.71-.39-9.31-.88-13.79a.09.09,0,0,0,0-.09c0-.06,0-.13,0-.19-.41-2.81-1-6.82-1.78-11.71v0c-2.23-11.07-3.57-19.15-4.24-24.91v0c-6.31-34.54-16.57-80.11-28.49-92.4a32.68,32.68,0,0,0,5.55-6.45l-5.55,6.45c-44.32,51.62-185.63,22.73-258.38-14.71s-33-49.79,18.44-73.49,135.92,10,165.53,3.34-4.12-31-56.69-41.47-92.69,33.81-178,18.45-104.9-189.43-104.9-189.43c52.4,33.88,164.18,31,173.68,12.34s-143.45-59.36-165.53-72S832.62,535.94,884.94,448.14Z"/>
    <path class="cls-6" d="M1469.13,608.83a40,40,0,0,1,3-15.73,36.59,36.59,0,0,1,8.59-12.51,39.29,39.29,0,0,1,13.34-8.25,49,49,0,0,1,17.57-3,50.13,50.13,0,0,1,17.7,3,39.11,39.11,0,0,1,13.47,8.25,36.73,36.73,0,0,1,8.59,12.51,40.21,40.21,0,0,1,3,15.73,39.32,39.32,0,0,1-3,15.6,37.19,37.19,0,0,1-8.59,12.38,39.27,39.27,0,0,1-13.47,8.25,50.36,50.36,0,0,1-17.7,3,49.23,49.23,0,0,1-17.57-3,39.45,39.45,0,0,1-13.34-8.25,37,37,0,0,1-8.59-12.38A39.14,39.14,0,0,1,1469.13,608.83Zm74.24-73.39H1480l-9-216.65h81.37Z"/>
    <path class="cls-7" d="M1277.68,397A30.73,30.73,0,0,1,1280,385a28.23,28.23,0,0,1,6.59-9.6,30.32,30.32,0,0,1,10.24-6.33,37.62,37.62,0,0,1,13.48-2.28,38.51,38.51,0,0,1,13.59,2.28,30.1,30.1,0,0,1,10.34,6.33,28.23,28.23,0,0,1,6.59,9.6,30.91,30.91,0,0,1,2.33,12.07,30.19,30.19,0,0,1-2.33,12,28.42,28.42,0,0,1-6.59,9.5,30,30,0,0,1-10.34,6.33,38.51,38.51,0,0,1-13.59,2.28,37.62,37.62,0,0,1-13.48-2.28,30.17,30.17,0,0,1-10.24-6.33A28.42,28.42,0,0,1,1280,409,30,30,0,0,1,1277.68,397Zm57-56.32H1286l-6.89-166.28h62.45Z"/>
    <path class="cls-7" d="M2223.05,678a30.88,30.88,0,0,1,2.33-12.07,28.37,28.37,0,0,1,6.59-9.6,30.17,30.17,0,0,1,10.24-6.33,37.68,37.68,0,0,1,13.49-2.28,38.42,38.42,0,0,1,13.58,2.28,29.86,29.86,0,0,1,10.34,6.33,28.23,28.23,0,0,1,6.59,9.6,30.7,30.7,0,0,1,2.34,12.07,30,30,0,0,1-2.34,12,28.42,28.42,0,0,1-6.59,9.5,30,30,0,0,1-10.34,6.33,38.64,38.64,0,0,1-13.58,2.28,37.9,37.9,0,0,1-13.49-2.28,30.32,30.32,0,0,1-10.24-6.33,28.57,28.57,0,0,1-6.59-9.5A30.19,30.19,0,0,1,2223.05,678Zm57-56.32h-48.66l-6.9-166.28h62.45Z"/>
    <g>
      <path class="cls-7" d="M2116,1101.15a327.7,327.7,0,0,1-35.83,53.43h0c-13.6,16.24-27.52,28.58-39.27,32.76l-.09,0c-.62.21-1.22.41-1.83.57a.15.15,0,0,1-.09,0h0a21.26,21.26,0,0,1-6.82.88c-38.56-1.73-79.2-84.45-79.2-84.45s1.06-9.8,8.56-16.73c6.54-6,11.57-7.62,11.57-7.62s41.53,42.65,51.68,45.72c6.38,1.92,14.77-27.86,26.79-65.26s54.26-46.62,54.26-46.62S2148.47,1041,2116,1101.15Z"/>
      <path class="cls-8" d="M2080.18,1154.58h0c-13.6,16.24-27.52,28.58-39.27,32.76l-.09,0-1.83.57-.1,0h0c.43-.28,13-6.8,15-18.91,2-12.36-11.07-22.48,21.82-41.61C2094.85,1116.3,2080.18,1154.58,2080.18,1154.58Z"/>
      <path class="cls-9" d="M2050.08,1721.87h90.37c6.47-4.39-1.75-47.32-1.75-47.32s-24.66-9.36-28.92,9.67-31.42,25.07-45.78,27.39C2054.17,1713.21,2051.06,1718.61,2050.08,1721.87Z"/>
      <path class="cls-10" d="M2187.89,1276.89s-2.85,52.72-6.42,113.81c-2.56,43.8-5.48,91.91-8,127.94-.33,4.78-.66,9.35-1,13.67-.09,1.34-.19,2.67-.29,4-6.47,80.79-28.11,151.57-28.11,151.57-25.4,5.35-36.88-4.44-36.88-4.44s-17.51-205.18-24-287.93c-4.77-60.91-8.84-149.6-8.84-149.6Z"/>
      <path class="cls-11" d="M2181.47,1390.7c-2.56,43.8-5.48,91.91-8,127.94-16.61-39.18-50.55-191.9-50.55-191.9Z"/>
      <path class="cls-9" d="M2184.1,1721.87h90.38c6.47-4.39-1.75-47.32-1.75-47.32s-24.67-9.36-28.93,9.67-31.41,25.07-45.78,27.39C2188.19,1713.21,2185.09,1718.61,2184.1,1721.87Z"/>
      <path class="cls-10" d="M2098.94,1266.41s64.53,160.64,85.16,221.53c14.7,43.37,56.14,195.53,56.14,195.53s18,5.49,33.17-5.11c0,0,15.42-155.46-15.72-199.29-16.53-23.26-4.11-241.76-71.11-243.63S2098.94,1266.41,2098.94,1266.41Z"/>
      <path class="cls-7" d="M2231.08,1214.74c-.27,22.84-.52,39.61-.46,43.85.18,13.82-8.66,16.94-17.77,19.05,0,0-8.41,1.81-19,3.61-10.4,1.74-23,3.46-31.81,3.4a286.77,286.77,0,0,1-83.23-13.7c-8.53,0-12.41-13.18-13.81-31.6-.95-12.46,2.9-136.75,3.38-167.78.33-22.26,12.55-42.83,16-45.84,31.64-28,125-24.45,141.81-5.15,4.16,4.77,5.37,50.78,5.51,101.19C2231.73,1154.22,2231.4,1188.48,2231.08,1214.74Z"/>
      <path class="cls-12" d="M2175,1009.5c-11.92,12.92-52,11-50.77-.27.16-1.39.42-9.64.56-10.92.1-1,.2-2,.28-3,.27-2.78.49-5.24.67-7.36.54-6.18.71-9.53.71-9.53h0c1.14-.33,26.89-7.64,39.69-10.67,4.3-1,7.15-1.55,7.1-1.17C2169.37,995.36,2178.93,1005.26,2175,1009.5Z"/>
      <path class="cls-13" d="M2167.56,976.26s-10.75,10.92-41.8,11.71c.54-6.18.71-9.53.71-9.53h0c1.14-.33,26.89-7.64,39.69-10.67C2168.46,968.7,2165.47,974.71,2167.56,976.26Z"/>
      <path class="cls-12" d="M2118.6,976.91a96.94,96.94,0,0,0,17.88,4.16c14.65,2,33.93.82,40-16.92,10.2-29.84,23.22-47.74-6.79-59.92-16.06-6.53-26.34-6.87-33.32-4.38-6.06,2.14-9.64,6.44-12.34,10.68C2118.18,919.67,2106.46,971.68,2118.6,976.91Z"/>
      <path class="cls-14" d="M2126.27,887.44c-10.72,7-7.22,23.53,5.41,25.76,7.57,1.33,13.92,1.59,17.59,3.23,7.46,3.31,13.88,6.83,12.11,18.41-.59,3.93-2.51,8.73,7.62,6.35a4.89,4.89,0,0,1,3.68.22c4.2,2.49-1.17,14.58-2.79,17.2,0,0-2.33,8.66,2.85,12.87.62.51,10.79,4.95,35.29-32.54,3.85-5.88,7.52-19.14,1.58-31.91s-22.51-28.91-53.72-28.91C2147.76,878.12,2135.55,881.34,2126.27,887.44Z"/>
      <path class="cls-8" d="M2231.08,1214.74c-4.56,21.19-3.4,21.41-10.39,15.85-28.5-22.65-20.17-34.52-13.84-54.15s-15.89-50.33,0-63.42c15.55-12.79,24.4,7.83,24.79,8.75C2231.73,1154.22,2231.4,1188.48,2231.08,1214.74Z"/>
      <path class="cls-12" d="M2230.38,1212s-10.74,17.57-17.78,17-16.55-3.25-22,2-14.33,18.74-11.86,22.34,12.41.41,19.54-3.53,18.39,1.94,24.38-2.54S2243,1225,2243,1225Z"/>
      <path class="cls-7" d="M2226.13,1020.58s89.15,83.88,77.58,139.69c-5.28,25.43-21.65,46.88-65.27,81.61,0,0-20.64-14.26-25.17-25.84,0,0,39.6-55.77,38.07-65.27-1.88-11.62-28.91-40.77-38.6-45.3S2203.93,1030.31,2226.13,1020.58Z"/>
      <path class="cls-12" d="M2212.6,1229s-9.4-4.11-12.42-5.87-2.35,1.09-1.42,2.51,3.44,4.62,7.13,5A11.75,11.75,0,0,0,2212.6,1229Z"/>
    </g>
    <g>
      <path class="cls-15" d="M645,1046.67c-3.22-6.22,70.32-28.6,71.49,32.75,0,0,137.76-3.39,72-80.18-22.77-26.58-20.43-48.56-19.74-69s-14.19-79.93-65.18-73.94c0,0-13.35-5.44-30,3.21C635.63,879.15,550.73,1069.29,645,1046.67Z"/>
      <path class="cls-12" d="M870.23,1103s9-13.65,16.2-13.92,20.61-4,19.54-1.34-9.37,3-10.17,4.55,12.31,4,16.06,4.29,12.58,0,12.31,1.87-15.92,9.64-27,8.57-24.7,3.21-24.7,3.21Z"/>
      <path class="cls-7" d="M740.54,1107.4a134.86,134.86,0,0,0,13.72,20.74c10.66,13.35,27.09,28.76,47.72,31.81,9.85,1.45,19.49-.67,28.34-4.6h0c25-11.12,43.89-36.7,43.89-36.7,4.42-12.05-2.81-20.21-2.81-20.21s-50.59,11.38-55.41,9-34.44-68.13-39.78-79.08c-11.34-23.26-29.34-29.94-29.34-29.94Z"/>
      <path class="cls-8" d="M754.26,1128.14c10.66,13.35,27.09,28.76,47.72,31.81,9.85,1.45,19.49-.67,28.34-4.6-1,.12-26,3.22-36-14.63-10.18-18.2-21.18-47.11-36.29-37.47C751.54,1107.41,751.83,1117.74,754.26,1128.14Z"/>
      <path class="cls-16" d="M551.8,1653.5s-15.44,14.09-12.43,24.1,16.94,16.69,18.83,28.92,9.41,18.91,16.19,18.91H606.7s5-8.61-7.06-11.21-16.59-17-15.84-30.31-1.13-31.15-1.13-31.15l-25.6-5.93Z"/>
      <path class="cls-16" d="M682.46,1659.49s-5.56,59.68,1.22,63l86.74-.17s0-10-13.94-12.24-38.4-10.38-42.54-28.55S682.46,1659.49,682.46,1659.49Z"/>
      <path class="cls-7" d="M615.74,1067.14a343.46,343.46,0,0,0,0,40.09c.86,14.5,15.52,33.91,17.6,38.71,5.22,12,11.1,14,11.1,14L690,1171.11l16,3.92L756.49,1160s23-64.2,13.77-100.33-23.35-61.24-23.35-61.24-34.23-13.5-94.85-3.42Z"/>
      <path class="cls-17" d="M629.07,1113.15c.86,14.49,2.19,28,4.27,32.79,5.22,12,11.1,14,11.1,14L690,1171.11l19.78-5.81s-66-10-58.71-66.82Z"/>
      <path class="cls-14" d="M753.28,1169.69s25,77.84,26.61,104.34-47.8,376.46-49.79,388.67c-1.87,11.51-16.16,18.84-16.16,18.84s-6.58,3.88-16,1.23c-13-3.67-17.13-8.07-17.13-8.07s-19.46-249.59-7.42-338.75a1411.29,1411.29,0,0,0,12.19-166.26Z"/>
      <path class="cls-18" d="M647.33,1167.37s-38.14,51.18-41.7,85.78-5.58,156.12-13.15,189.85-35.41,98.63-35.41,203.83c0,0,2.89,6,11.82,9.24a96.77,96.77,0,0,0,10.4,2.88,16.35,16.35,0,0,0,18.29-8.68c18.82-37.89,78.77-160.1,81.84-185.46,2.18-18,21.1-136.77,62.39-206.48,9.91-16.74-6.08-83.3-6.08-83.3Z"/>
      <path class="cls-14" d="M757.27,1157.68s-10,7.94-30,8.34c-23.82.48-82.84-6.07-82.84-6.07a48.58,48.58,0,0,0-2.52,15.06s72.09,18.19,113.86,2.66C755.79,1177.67,761.18,1167.53,757.27,1157.68Z"/>
      <path class="cls-19" d="M722.14,1174.24c0-6.78,4.87-12.3,10.87-12.3s10.87,5.52,10.87,12.3S739,1186.55,733,1186.55,722.14,1181,722.14,1174.24Zm3.6,0c0,4.8,3.26,8.7,7.27,8.7s7.27-3.9,7.27-8.7-3.26-8.7-7.27-8.7S725.74,1169.45,725.74,1174.24Z"/>
      <path class="cls-6" d="M574.5,1178.43l58.54,51a10.16,10.16,0,0,0,14.33-1l74.69-85.78a10.15,10.15,0,0,0-1-14.33l-58.54-51a10.14,10.14,0,0,0-14.32,1l-74.7,85.78A10.16,10.16,0,0,0,574.5,1178.43Z"/>
      <path class="cls-12" d="M661.1,1172c.84.22,31.1,3.78,31.11,10,0,7.23-8.87,16.92-17.24,16.46-3.38-.18-19-14.54-19-14.54Z"/>
      <path class="cls-12" d="M676.65,991.65c3.44-8.35,5.45-21.07,5.39-36.81l2.29.45,38.44,7.61s-.87,12.1-.9,23.5v.28c0,9.9,6.69,19.83-9.19,23.76C707.77,1011.65,669.41,1009.19,676.65,991.65Z"/>
      <path class="cls-20" d="M722.77,962.9s-.87,12.1-.9,23.5c-21.51-.61-32.88-20.23-37.54-31.11Z"/>
      <path class="cls-12" d="M730,973.69s-50.9.84-50.94-30.86-6.62-53,25.87-54.83,38.82,10.22,41.41,20.8S743.19,972.66,730,973.69Z"/>
      <path class="cls-15" d="M728.07,887.23s-13.93,37.19-35.32,42.69-30.66-.23-30.66-.23,16.4-13,19.81-35.78C681.9,893.91,717.56,869.52,728.07,887.23Z"/>
      <path class="cls-15" d="M724.62,890.25s10.33,3.86,14.59,11.4a51.33,51.33,0,0,1,6.88,29.1s10.5-25.28-1.3-39.58C732.27,876,724.62,890.25,724.62,890.25Z"/>
      <path class="cls-12" d="M661.1,1172s7.26-2.33,12.11-1.65,8.43-.1,8.43,1.26-6.26,2-7.59,2.64S661.1,1172,661.1,1172Z"/>
      <path class="cls-7" d="M652.06,995s-36.13,2.54-50,36.2S562,1121.36,562,1130.87s14.68,38.82,93.51,55.68c0,0,8.15-8.58,7.66-15.36,0,0-49.21-42.27-49.08-47.21.25-9.34,8.07-21.68,51.27-64.9C677.06,1047.33,652.06,995,652.06,995Z"/>
    </g>
    <g>
      <path class="cls-6" d="M1661.77,708.08H1271.33a35.62,35.62,0,0,0-25.17,10.42L970.08,994.58a35.6,35.6,0,0,0-10.43,25.18v390.43a35.61,35.61,0,0,0,10.43,25.18l276.08,276.07a35.59,35.59,0,0,0,25.17,10.43h390.44a35.57,35.57,0,0,0,25.17-10.43L1963,1435.37a35.61,35.61,0,0,0,10.43-25.18V1019.76A35.6,35.6,0,0,0,1963,994.58L1686.94,718.5A35.6,35.6,0,0,0,1661.77,708.08Z"/>
      <path class="cls-21" d="M1634.3,1671.12H1298.8a50.86,50.86,0,0,1-36.18-15L1025.39,1418.9a50.84,50.84,0,0,1-15-36.18v-335.5a50.87,50.87,0,0,1,15-36.18l237.23-237.23a50.86,50.86,0,0,1,36.18-15h335.5a50.83,50.83,0,0,1,36.18,15l237.23,237.24a50.79,50.79,0,0,1,15,36.17v335.5a50.8,50.8,0,0,1-15,36.18l-237.23,237.23A50.8,50.8,0,0,1,1634.3,1671.12ZM1298.8,793.61a16.3,16.3,0,0,0-11.58,4.8L1050,1035.65a16.26,16.26,0,0,0-4.8,11.57v335.5a16.27,16.27,0,0,0,4.8,11.58l237.23,237.24a16.28,16.28,0,0,0,11.58,4.79h335.5a16.28,16.28,0,0,0,11.58-4.79l237.23-237.24a16.23,16.23,0,0,0,4.8-11.58v-335.5a16.22,16.22,0,0,0-4.8-11.57L1645.88,798.41a16.29,16.29,0,0,0-11.58-4.8Z"/>
      <path class="cls-21" d="M1737.14,1227.74l-6.83-5.92a41.42,41.42,0,0,0-58.25,4.19l-38.61,44.59a9.1,9.1,0,0,1-16-6h0a100.46,100.46,0,0,0-.56-10.46V973.47A33.62,33.62,0,0,0,1583.39,940h-2.48a33.61,33.61,0,0,0-33.52,33.52v182.69a8,8,0,0,1-8,8h0a8.86,8.86,0,0,1-8.86-8.86V938.07a32.5,32.5,0,0,0-32.4-32.4h-4.71a32.5,32.5,0,0,0-32.4,32.4v218.69a7.43,7.43,0,0,1-7.43,7.43h0a9.45,9.45,0,0,1-9.46-9.46V980.4a33.61,33.61,0,0,0-33.52-33.52h-2.48a33.62,33.62,0,0,0-33.52,33.52v175.75a8,8,0,0,1-8,8h0a8.84,8.84,0,0,1-8.84-8.85v-137.5a33.63,33.63,0,0,0-33.52-33.52h-2.48a33.62,33.62,0,0,0-33.52,33.52v241.43c0,.67,0,1.33.07,2,0,1.12-.07,2.25-.07,3.38v132.89c0,54,44.19,98.2,98.2,98.2h132.89a98.34,98.34,0,0,0,82.58-45.24,208.07,208.07,0,0,1,17.41-23.5l122.07-141A41.41,41.41,0,0,0,1737.14,1227.74Z"/>
    </g>
  </g>
</svg>
