<svg id="Слой_1" data-name="Слой 1" xmlns="http://www.w3.org/2000/svg" width="3200" height="1761.56" viewBox="0 0 3200 1761.56">
  <defs>
    <style>
      .cls-1 {
        fill: #ebf3fa;
      }

      .cls-2 {
        fill: #dfebfd;
      }

      .cls-3 {
        fill: #cde0fb;
      }

      .cls-4 {
        fill: #f99746;
      }

      .cls-5 {
        fill: #2c3a64;
      }

      .cls-6 {
        fill: #ffb27d;
      }

      .cls-7 {
        fill: #ed985f;
      }

      .cls-8 {
        fill: #fff;
      }

      .cls-13, .cls-9 {
        fill: #afcdfb;
      }

      .cls-10 {
        fill: #ef7e29;
      }

      .cls-11 {
        fill: #ea6c2d;
      }

      .cls-12 {
        fill: #78acea;
      }

      .cls-13 {
        opacity: 0.5;
      }

      .cls-14 {
        fill: #95c38b;
      }

      .cls-15 {
        fill: #a8d29f;
      }

      .cls-16 {
        fill: #82b378;
      }

      .cls-17 {
        fill: #558949;
      }

      .cls-18 {
        fill: #d1f2c9;
      }

      .cls-19 {
        fill: #2e3552;
      }
    </style>
  </defs>
  <g>
    <path class="cls-1" d="M532.57,1670.28l798.83-4.14,212.93-.07,70.54,0,213.34-.06,974.66-.27s222.93-285.64-15.2-556.93c-246.9-281.28-372.25-41.14-554.57-515.1-400.18-1040.26-1968-349.6-1472.63,498.49C938.85,1397.54,409.35,1235.24,532.57,1670.28Z"/>
    <path class="cls-2" d="M1525.78,706.67s-27.43,87.86-43.46,81.74,37.62-95.69,37.62-95.69-55.24-75.16-85.87-87.83c0,0,4.58,102.46-9.45,92.59s-23.75-116.27-23.75-116.27-68.61-54.55-104.81-16-28.44,71.65-18.67,80.46,82.62,46.33,75.75,54.73-63.73-2.54-86.48-25.49c0,0-9.39,90.21,32.07,107.43s66.66-.71,92.08,10.4,39.79,27.18,24.08,27.26-54.7-26.32-83.35-20-50.12,8.12-17.47,35.12,100.91,57.27,129,36.07l3.52-2.65a16.59,16.59,0,0,1-3.52,2.65c4.66,7.54,4.8,31.73,4.17,49.9-.31,3-.53,7.23-.62,13.1h0c-.15,2.59-.3,4.7-.4,6.17-4.27,39.19-40.78,91.36-40.78,91.36l6.71,6.26c47.25-47,41.39-109.4,41.39-109.4-.25-47.14,17.67-78.58,17.67-78.58s91.45-2,87-73C1558.29,777,1549.47,730.11,1525.78,706.67Z"/>
    <path class="cls-3" d="M1256.36,1034.28s134.54,63.76,121.12,88.06-144.78-81.86-144.78-81.86S1099.83,1112,1072.63,1158.2c0,0,165.15,15.79,146.17,36s-191.6,11.8-191.6,11.8-102.87,97.59-49.2,164.27,108.34,61.74,124.66,48.07,92.87-121.88,104.77-109-18.46,101.49-60.35,132.76c0,0,142.38,35.41,179.32-27.11s13.91-106.94,37.44-145.16,52.51-57.59,49.1-32.4-54.51,81.68-50.91,129,1.71,82.11,52.32,35.91,114.51-148.71,86.91-198.57l-3.45-6.23a26.87,26.87,0,0,1,3.45,6.23c13.13-5.77,51.91-.53,80.87,4.59,4.72,1.16,11.46,2.47,20.84,3.95h0c4.12.83,7.47,1.53,9.8,2,61.81,15.68,137.13,85.95,137.13,85.95l11.55-9.34c-64.66-86.3-165.91-91-165.91-91-75.55-10.24-121.87-46-121.87-46s17.44-146.92-97.34-155.89C1376.33,998.07,1299.26,1001.62,1256.36,1034.28Z"/>
    <path class="cls-3" d="M2283.11,855.48c2.51-78.25-126.36-92.92-126.36-92.92s-121.45,101.18-146.46,96.83,86.95-106.78,86.95-106.78c-45.3-18.78-181.73,2.11-181.73,2.11S1878,904.58,1854.79,894.21s40-131,40-131c-49.31-.25-107.57,39.57-107.57,39.57-78.92,69.73,14.69,167.47,14.69,167.47s-14.13,51.65-63.68,100.71h0s-10.44,8.66-23.33,24.87l12.32,3.76c2-3,4.1-5.85,6.26-8.54l0,0,.09-.12c1.43-1.65,3.47-4,6-6.82h0c6-6.22,10.22-10.88,13-14.32l0,0c18.33-19.68,43.78-44.84,56.54-47.85a24.88,24.88,0,0,1-.91-6.46q.43,3.09.91,6.46c7.28,51.61,110.38,91.33,172.78,97.22s41.87-18.49,18.46-55-91.83-49.69-108.18-66.21,15.47-18.32,53.7-3.35,45.84,60.1,107.24,85.44S2199.14,1001,2199.14,1001c-47.8.21-118.74-47.8-117.15-63.78s117.06,21,136.51,22S2280.61,933.73,2283.11,855.48Z"/>
    <path class="cls-4" d="M1864.4,539.48c10.44,27.52,99.93,99.77,99.93,99.77s29.16-23.7,56.17-49.22c20.22-18.89,39.11-38.78,43.59-50.55,10.6-27.34-.66-66.45-39.77-73.08-39-6.63-60,34.14-60,34.14s-21-40.77-60.16-34.14a53.36,53.36,0,0,0-17.9,6.3C1861.91,486.29,1855.78,517,1864.4,539.48Z"/>
    <g>
      <path class="cls-5" d="M1553.49,291.5c-1.86-5.63-24-65.65-118.26-41.86,0,0,47.49-7.8,61.26,10.09,0,0-38.47-15.9-61.61-.52s-25.19,64.3-21.1,79,31.91,57.91,49.23,57.26c6.55-.24,13.49-2.69,19.57-5.63a229.09,229.09,0,0,0-6.07,26c-15.14,87.23,44.88,150.86,74,133.48,18.7-11.14,34.4,21.72,34.4,21.72l150.5-215.89S1620.09,226.7,1553.49,291.5Z"/>
      <path class="cls-6" d="M1764.4,1129.91c-.76,23.22,40.44,99,64.07,164.47l0,0c15.24,42.26,30.3,81.44,38.41,102.23a245,245,0,0,1,11.8,39.94c7,34.59,18.51,107.06,22.29,224.83,0,1.57.09,3.16.14,4.74l-212.93-.07-.85-4.67-4.67-25.57,0-.14,4.52-111.21-13.43-20.67-38.5,14.52-17,143.07-.54,4.65-213.34-.06c0-1.54,0-3.07,0-4.59-.07-37.28-.11-69.08-.12-96.19a768.24,768.24,0,0,1,49.1-270.83c24.75-65.8,61.38-134.65,53.69-167-1.79-7.48-27.63-73.06-39.84-135.33-1.28-6.5-2.55-13-3.8-19.54-.32,1.27-.62,2.55-.92,3.82-19.74,82.42-45.47,189.35-50.32,207.05-8.07,29.41-82.46,255.74-82.46,255.74h-36.21s22.63-221.8,43-278.38,30.39-268,49.78-359.85c10.09-47.73,26-68.57,52.1-82.27h0c13.39-7,29.45-12.16,48.8-18.08,12.21-3.75,25.73-7.8,40.72-12.83,21.63-7.25,41.73-18.35,47.76-40.37,5.37-19.61,9.24-45.44,9.44-76.4v0q.07-9.39-.34-19.42h0v0l6.41,1,6.14,1,101.39,16.17h0s0,1.24-.1,3.48c0,.34,0,.72,0,1.13v.17c0,.36,0,.74,0,1.14,0,.71,0,1.5-.07,2.33,0,.57,0,1.17,0,1.79,0,2-.09,4.28-.13,6.77,0,.65,0,1.3,0,2,0,.32,0,.65,0,1,0,1,0,2,0,3.1v.15c0,1.94,0,4-.05,6,0,4.36,0,9,0,13.87q0,3.13.06,6.34c0,.48,0,1,0,1.46,0,2.06.08,4.15.13,6.24q.09,4.18.24,8.36c.63,18.13-2,31.53,2.93,40.78,5.39,10.14,33.87,17.34,65.13,30.48,16,6.72,32.67,15,47.38,26,18.49,13.81,33.85,32,40.68,56.76,24.9,90.53,41.3,315.23,61.66,371.81s43,278.38,43,278.38h-36.21s-74.39-226.33-82.47-255.74c-2.49-9.09-10.49-41.77-20.37-82.57-9-37.26-19.6-81.29-28.95-120.33-.89-3.71-1.76-7.39-2.63-11-.49,10.25-1,20.47-1.41,30.53C1784.53,1061.28,1764.93,1113.56,1764.4,1129.91Z"/>
      <path class="cls-7" d="M1698.65,569.59s-1.17,33.68-.05,65.33c-59.8.56-93.42-52.74-107.49-82.46Z"/>
      <path class="cls-6" d="M1719.72,598.81s-141.24,7.63-144.64-80.4-23.92-146.32,66.11-154.92,108.86,24.31,117.14,53.42S1756.37,594.55,1719.72,598.81Z"/>
      <path class="cls-5" d="M1752.29,368.12c-22.84-25.66-39.13-19.23-48.08-10.92C1625.37,317.63,1578,382.29,1578,382.29c-7.08,63.52-51.28,101.41-51.28,101.41s26.36,14.95,85.17-2.55c18-5.35,33.67-18.85,46.85-35-22.52,41.18-54.14,71.44-54.14,71.44,69.7-35.46,94.48-135.18,96.93-145.72,8.92,7.42,26.56,23.61,32.36,39.92,7.89,22.15,12.79,68.18,26.18,66.1C1760,477.89,1786.55,406.6,1752.29,368.12Z"/>
      <path class="cls-6" d="M1294.19,1431.82s-31,50.31-32.17,65.09,3.14,65.32,3.14,65.32,11.54-3.19,13.93-26.92,38.81-38,46.14-53.56,4.46-47.89,4.46-47.89Z"/>
      <path class="cls-6" d="M1330.24,1437.27s10,40.39,5.69,54-9,35.1-15.8,32.94-12.63-43-12.63-43Z"/>
      <path class="cls-6" d="M1269.65,1498.05c-.36,2.1-20,58.35-20,58.35s16.25.12,17.31-7.69S1269.65,1498.05,1269.65,1498.05Z"/>
      <path class="cls-6" d="M1958.5,1437.27s31,50.31,32.18,65.1-3.15,65.32-3.15,65.32-11.53-3.19-13.93-26.93-38.81-38-46.14-53.55-4.89-49.94-4.89-49.94Z"/>
      <path class="cls-6" d="M1922.45,1442.73s-10,40.38-5.69,54,9,35.09,15.8,32.93,12.63-43,12.63-43Z"/>
      <path class="cls-6" d="M1983,1503.51c.36,2.1,20,58.35,20,58.35s-16.25.11-17.31-7.7S1983,1503.51,1983,1503.51Z"/>
    </g>
    <path class="cls-4" d="M1453.29,1294.39s146.08,44.94,375.18,0c0,0,65.11,95.35,92,367H1686.9l-21.67-131-26.59.42L1623,1661.4H1383.45S1390.21,1417.19,1453.29,1294.39Z"/>
    <path class="cls-8" d="M1793.82,851.83c2.65,28.24,11.65,55-2.44,128.65q-1.77,9.24-4,19.52s-140.06,45.64-317.61,0c0,0-1-2.94-2.59-8-1.28-4-2.93-9.42-4.72-15.72-7.26-25.28-17-65.13-14.53-90.34,3.8-39.24,30.2-117-9.58-167.37h0c13.39-7,29.45-12.16,48.8-18.08,0,0,35.34,108.37,83.57,114.07a521.11,521.11,0,0,0,90.69,2.38s57,1.92,78.55-37.32c16-29.1,25.85-69.81,26.72-73.46,16,6.72,32.67,15,47.38,26C1807.92,746.87,1789.37,804.49,1793.82,851.83Z"/>
    <path class="cls-8" d="M1914.37,729l-.12-.36C1914.36,728.57,1914.41,728.69,1914.37,729Z"/>
    <path class="cls-8" d="M1338.34,404.48c-1.89.38-21-42.88-68.61-25.08,0,0-7.52-47.64-63-44.87-45.08,2.25-49.64,51.61-49.64,51.61s-39.69-8.36-55.68,18.35Z"/>
    <path class="cls-9" d="M1175.66,440.27A105.56,105.56,0,0,0,1079,335.09a111.18,111.18,0,1,1,0,210.36A105.57,105.57,0,0,0,1175.66,440.27Z"/>
    <path class="cls-8" d="M1231.63,517.58c-3.44.69-38.31-78.39-125.39-45.84,0,0-13.75-87.09-115.24-82-82.4,4.11-90.74,94.33-90.74,94.33s-72.55-15.28-101.77,33.54Z"/>
    <g>
      <path class="cls-8" d="M1545.86,1089.52c-36.13,40.44-37.44,98.93-4,133.19,2.12,2.17,5.8,1.91,8.06-.62h0c2.24-2.5,2.38-6.14.29-8.31-29.2-30.2-28-81.49,3.76-117,33-37,86.82-43,119.91-13.47l8.14-9.1C1644.48,1040.66,1583.38,1047.52,1545.86,1089.52Z"/>
      <path class="cls-8" d="M1663.51,1090.48l25.91,1.69a3.33,3.33,0,0,0,3.38-4l-5.75-24.25c-.46-1.94-2.92-2.38-4.36-.77l-20.57,23C1660.64,1087.87,1661.44,1090.34,1663.51,1090.48Z"/>
    </g>
    <g>
      <path class="cls-8" d="M1720.81,1237.9c36.13-40.44,37.43-98.93,4-133.19-2.12-2.18-5.8-1.92-8.06.61h0c-2.24,2.51-2.38,6.15-.29,8.31,29.19,30.2,27.95,81.5-3.76,117-33,37-86.83,43-119.91,13.46l-8.14,9.11C1622.19,1286.76,1683.29,1279.89,1720.81,1237.9Z"/>
      <path class="cls-8" d="M1603.16,1236.93l-25.91-1.69a3.34,3.34,0,0,0-3.38,4l5.75,24.24c.46,2,2.92,2.38,4.36.77l20.57-23C1606,1239.54,1605.23,1237.07,1603.16,1236.93Z"/>
    </g>
    <g>
      <g>
        <path class="cls-4" d="M891.77,1568.64a90.71,90.71,0,0,0-46.85-79.43v-11.32H801a90.75,90.75,0,1,0,0,181.49h43.89v-11.31A90.72,90.72,0,0,0,891.77,1568.64Z"/>
        <circle class="cls-10" cx="844.92" cy="1568.64" r="90.75"/>
      </g>
      <path class="cls-11" d="M1126.42,1605.61H843.91a37,37,0,0,1-37-37h0a37,37,0,0,1,37-37h282.51a37,37,0,0,1,37,37h0A37,37,0,0,1,1126.42,1605.61Z"/>
      <g>
        <path class="cls-4" d="M1127.7,1568.64a90.7,90.7,0,0,0-46.86-79.43v-11.32H1037a90.75,90.75,0,0,0,0,181.49h43.89v-11.31A90.71,90.71,0,0,0,1127.7,1568.64Z"/>
        <circle class="cls-10" cx="1080.84" cy="1568.64" r="90.75"/>
        <circle class="cls-4" cx="1085.06" cy="1568.64" r="39.16" transform="translate(-149.29 114.55) rotate(-5.65)"/>
      </g>
    </g>
    <polygon class="cls-8" points="1900.34 573.04 1891.11 524.58 1887.09 545.29 1832.69 545.29 1832.69 542.01 1884.39 542.01 1891.15 507.27 1900.8 557.94 1905.14 540.83 1914.53 540.83 1920.94 511 1929.14 556.49 1933.45 539.07 1952.85 539.07 1959.99 515.66 1966.23 556.65 1971.25 539.07 1987.31 539.07 1992.02 513.37 2002.15 553.81 2005.82 539.07 2026.58 539.07 2027.66 551.35 2039.1 506.65 2046.61 539.19 2080.37 539.19 2080.37 542.46 2044 542.46 2038.93 520.5 2026.09 570.71 2023.58 542.35 2008.38 542.35 2002.16 567.31 1992.52 528.82 1990.03 542.35 1973.72 542.35 1965.26 571.99 1958.92 530.38 1955.27 542.35 1936.01 542.35 1928.64 572.15 1920.66 527.9 1917.17 544.11 1907.68 544.11 1900.34 573.04"/>
    <g>
      <path class="cls-12" d="M1097.18,925h-77.4l-38.7-67,38.7-67h77.4l38.7,67ZM1022.7,920h71.55L1130,858l-35.78-62H1022.7l-35.77,62Z"/>
      <polygon class="cls-12" points="876.99 1052.76 872.61 1050.23 909.12 987 873.34 925.04 800.33 925.04 800.33 919.97 876.26 919.97 914.96 987 876.99 1052.76"/>
      <polygon class="cls-12" points="876.26 925.04 798.87 925.04 760.9 859.28 765.28 856.74 801.79 919.97 873.34 919.97 909.12 858.01 873.34 796.04 800.33 796.04 800.33 790.98 876.26 790.98 914.96 858.01 876.26 925.04"/>
      <polygon class="cls-12" points="1130.02 988.27 1092.05 922.5 1130.75 855.48 1208.14 855.48 1246.11 921.24 1241.73 923.77 1205.22 860.54 1133.67 860.54 1097.89 922.5 1134.4 985.74 1130.02 988.27"/>
      <polygon class="cls-12" points="986.74 989.53 910.8 989.53 910.8 984.47 983.81 984.47 1019.59 922.5 983.81 860.54 912.26 860.54 875.75 923.77 871.37 921.24 909.34 855.48 986.74 855.48 1025.43 922.5 986.74 989.53"/>
      <polygon class="cls-12" points="1206.68 860.54 1130.75 860.54 1092.05 793.51 1130.75 726.49 1206.68 726.49 1206.68 731.55 1133.67 731.55 1097.89 793.51 1133.67 855.48 1206.68 855.48 1206.68 860.54"/>
      <path class="cls-12" d="M978.35,856.56a6.54,6.54,0,1,1,6.54,6.54A6.54,6.54,0,0,1,978.35,856.56Z"/>
      <path class="cls-12" d="M904.49,856.56A6.55,6.55,0,1,1,911,863.1,6.54,6.54,0,0,1,904.49,856.56Z"/>
      <path class="cls-12" d="M904.49,986.37a6.55,6.55,0,1,1,6.55,6.54A6.54,6.54,0,0,1,904.49,986.37Z"/>
      <path class="cls-12" d="M867.36,1050.26a6.54,6.54,0,1,1,6.54,6.54A6.54,6.54,0,0,1,867.36,1050.26Z"/>
      <circle class="cls-12" cx="984.89" cy="986.37" r="6.54"/>
      <path class="cls-12" d="M1015.06,921.47a6.54,6.54,0,1,1,6.54,6.54A6.54,6.54,0,0,1,1015.06,921.47Z"/>
      <path class="cls-12" d="M1088.28,921.47a6.54,6.54,0,1,1,6.54,6.54A6.54,6.54,0,0,1,1088.28,921.47Z"/>
      <circle class="cls-12" cx="875.94" cy="921.47" r="6.54"/>
      <path class="cls-12" d="M793.79,921.47a6.54,6.54,0,1,1,6.54,6.54A6.54,6.54,0,0,1,793.79,921.47Z"/>
      <path class="cls-12" d="M757.64,859.94a6.54,6.54,0,1,1,6.54,6.54A6.54,6.54,0,0,1,757.64,859.94Z"/>
      <path class="cls-12" d="M796,793.51a6.54,6.54,0,1,1,6.54,6.54A6.54,6.54,0,0,1,796,793.51Z"/>
      <path class="cls-12" d="M1088.28,793.51a6.54,6.54,0,1,1,6.54,6.54A6.54,6.54,0,0,1,1088.28,793.51Z"/>
      <path class="cls-12" d="M1015.06,793.51a6.54,6.54,0,1,1,6.54,6.54A6.54,6.54,0,0,1,1015.06,793.51Z"/>
      <path class="cls-12" d="M1125.2,858a6.55,6.55,0,1,1,6.55,6.54A6.54,6.54,0,0,1,1125.2,858Z"/>
      <path class="cls-12" d="M1200.14,858a6.54,6.54,0,1,1,6.54,6.54A6.54,6.54,0,0,1,1200.14,858Z"/>
      <path class="cls-12" d="M1237.55,921.87a6.54,6.54,0,1,1,6.54,6.54A6.54,6.54,0,0,1,1237.55,921.87Z"/>
      <path class="cls-12" d="M1200.14,728.9a6.54,6.54,0,1,1,6.54,6.55A6.54,6.54,0,0,1,1200.14,728.9Z"/>
      <circle class="cls-12" cx="1131.75" cy="986.37" r="6.54"/>
    </g>
    <path class="cls-10" d="M2396.07,1064.33c-.87-.48-21.71-11.89-42.54-33.84-27.7-29.21-41.78-63.17-40.72-98.22,1.49-49.38,22.69-78.7,40.21-94.6,21.82-19.81,50.24-30.12,77.95-28.27,53.1,3.54,51.39,60.19,51.37,60.76l-6.33-.26c.09-2.13,1.42-51-45.46-54.18-26-1.73-52.72,8-73.28,26.63-16.61,15.08-36.71,42.95-38.13,90.12-2.45,80.71,79.12,125.85,80,126.29Zm83.1-194.3-3.16-.13h0Z"/>
    <g>
      <path class="cls-8" d="M2638.94,1086.32V1616.7a44.69,44.69,0,0,1-44.71,44.7h-222a52.81,52.81,0,0,1-52.8-52.79V1088a106.81,106.81,0,0,1,73-101.3c20.81-6.92,34.87-26.36,36.07-48.25l.95-18.31H2529l1.44,17.89a56.68,56.68,0,0,0,38,49A105.15,105.15,0,0,1,2638.94,1086.32Z"/>
      <path class="cls-13" d="M2638.94,1086.32V1616.7a44.69,44.69,0,0,1-44.71,44.7H2435.82a52.81,52.81,0,0,1-52.8-52.79V1088a106.8,106.8,0,0,1,73-101.3c20.79-6.92,34.88-26.36,36-48.25l1-18.31H2529l1.44,17.89a56.68,56.68,0,0,0,38,49A105.15,105.15,0,0,1,2638.94,1086.32Z"/>
      <path class="cls-9" d="M2631.47,1149.48V1606a42.61,42.61,0,0,1-42.61,42.61h-32c-26.88,0-41.3-6.06-56.23-18s-47.78-10-58.74,4-42.32,14-42.32,14H2377.2a50.34,50.34,0,0,1-50.32-50.34V1146.14c28-5.71,69.7-8.84,123.93,1.7C2514.74,1160.26,2585,1155.45,2631.47,1149.48Z"/>
      <path class="cls-4" d="M2447.63,866.37h62.05a26.23,26.23,0,0,1,26.23,26.23v36.61a0,0,0,0,1,0,0H2422.44a0,0,0,0,1,0,0V891.56A25.19,25.19,0,0,1,2447.63,866.37Z"/>
    </g>
    <rect class="cls-4" x="2319.41" y="1077.19" width="319.52" height="475.99"/>
    <rect class="cls-10" x="2383.02" y="1077.19" width="229.7" height="475.99"/>
    <path class="cls-10" d="M2537.53,936.63H2420.21a13.12,13.12,0,0,1-13.09-13.08h0a13.12,13.12,0,0,1,13.09-13.08h117.32a13.12,13.12,0,0,1,13.08,13.08h0A13.12,13.12,0,0,1,2537.53,936.63Z"/>
    <g>
      <path class="cls-14" d="M2349.28,1633s-15.58,17.92-54.67,23.89h0c-16.42,2.5-37,2.9-62.31-1-85.61,13.31-117-22.85-117-22.85-87.76-69.92-88.76-216.69,0-249.91,26-9.71,48.69-8.15,67.21-2.17a161.61,161.61,0,0,0,99.62,0c18.52-6,41.25-7.54,67.21,2.17a92.55,92.55,0,0,1,31.22,19.37l1,1C2436,1456.27,2424.65,1573,2349.28,1633Z"/>
      <path class="cls-15" d="M2349.28,1633s-15.58,17.92-54.67,23.89h0c-45.21,3.79-25.39-14.22-74.47-14.22s-78.22-16.15-108.71-91.27-5.82-146,42.52-154.17,72.74,30,133.88-9.67c42.25-27.42,92.7,14.9,92.7,14.9l1,1C2436,1456.27,2424.65,1573,2349.28,1633Z"/>
      <g>
        <g>
          <path class="cls-15" d="M2238.12,1328.78c-17.94-10.68-36.09,4.33-57.16,12.57s-61.63,8.08-61.63,8.08a294.33,294.33,0,0,1,44-47.86C2190.68,1277.72,2238.12,1328.78,2238.12,1328.78Z"/>
          <path class="cls-16" d="M2238.12,1328.78c-16.86-13.83-48-21.77-63.25-15.54s-55.54,36.19-55.54,36.19a294.33,294.33,0,0,1,44-47.86C2190.68,1277.72,2238.12,1328.78,2238.12,1328.78Z"/>
        </g>
        <path class="cls-17" d="M2230.92,1402.31h0c-11.49-25.39-5.28-56.88,2-78.83,5.75-17.47,16.79-41,22.22-52.26a2.92,2.92,0,0,1,5.41.37l2.18,6.62a23.88,23.88,0,0,1-2.22,19.85c-11.11,18.36-33.41,61.27-23.37,96.6C2238.23,1398.63,2233,1406.85,2230.92,1402.31Z"/>
      </g>
      <path class="cls-18" d="M2335.89,1403.66s35.3,10.62,36.21,37.3-24.67,24.21-37.7,10.59S2315.06,1402.73,2335.89,1403.66Z"/>
    </g>
    <rect class="cls-19" x="356.92" y="1661.4" width="2572.65" height="7.33" rx="3.02"/>
    <path class="cls-10" d="M1455.9,1287.55s-21.08,42.39-18.55,43.24,262.49,55.7,400.07-14.35l-14.26-36.21S1681.15,1342.3,1455.9,1287.55Z"/>
    <g>
      <g>
        <path class="cls-14" d="M1689.62,904.6c-127.47-28.65-252.89,40.59-286.74,155.52-2.14,7.29,2.66,15,10.64,16.77h0c7.89,1.77,15.76-2.41,17.93-9.62,30.2-100.64,140.31-161.14,252.17-136,116.57,26.19,191.6,135.6,167.27,243.89l28.71,6.45C1907.23,1058.62,1822,934.34,1689.62,904.6Z"/>
        <path class="cls-14" d="M1823.71,1161.35l26.4,58.37a7.84,7.84,0,0,0,12.3,2.45l44.71-42.36c3.59-3.4,1.66-9.28-3.42-10.43l-72.56-16.3C1825.9,1151.9,1821.6,1156.69,1823.71,1161.35Z"/>
      </g>
      <g>
        <path class="cls-15" d="M1585.1,1434.25c127.46,28.64,252.88-40.6,286.73-155.52,2.15-7.29-2.65-15-10.63-16.77h0c-7.9-1.78-15.77,2.41-17.93,9.61-30.2,100.64-140.31,161.14-252.18,136-116.56-26.19-191.6-135.6-167.26-243.9l-28.71-6.45C1367.48,1280.22,1452.71,1404.5,1585.1,1434.25Z"/>
        <path class="cls-15" d="M1451,1177.5l-26.39-58.38a7.85,7.85,0,0,0-12.3-2.45L1367.59,1159c-3.59,3.4-1.66,9.29,3.43,10.43l72.56,16.31C1448.81,1186.94,1453.11,1182.15,1451,1177.5Z"/>
      </g>
    </g>
    <path class="cls-7" d="M1652,1207.88c0,5.07-2.31,9.18-5.17,9.18s-5.17-4.11-5.17-9.18,2.32-9.18,5.17-9.18S1652,1202.81,1652,1207.88Z"/>
  </g>
</svg>
