<svg id="_Layer_" data-name="&lt;Layer&gt;" xmlns="http://www.w3.org/2000/svg" xmlns:xlink="http://www.w3.org/1999/xlink" width="2832" height="1831.21" viewBox="0 0 2832 1831.21">
  <defs>
    <style>
      .cls-1 {
        fill: url(#linear-gradient);
      }

      .cls-2 {
        fill: url(#linear-gradient-2);
      }

      .cls-3 {
        fill: #89c4d6;
      }

      .cls-4 {
        fill: #3ba3bf;
      }

      .cls-5 {
        fill: #59bbd3;
      }

      .cls-6 {
        fill: #fff;
      }

      .cls-7 {
        fill: #b7deea;
      }

      .cls-8 {
        fill: #c69dd3;
      }

      .cls-9 {
        fill: #8957a1;
      }

      .cls-10 {
        fill: #e6794f;
      }

      .cls-11 {
        fill: #ff9f56;
      }

      .cls-12 {
        fill: #5b19af;
      }

      .cls-13 {
        fill: #ffd62b;
      }

      .cls-14 {
        fill: #f14a68;
      }

      .cls-15 {
        fill: #3c2058;
      }

      .cls-16 {
        fill: #9d5350;
      }

      .cls-17 {
        fill: #99223e;
      }
    </style>
    <linearGradient id="linear-gradient" x1="1416" y1="84.8" x2="1416" y2="1227.7" gradientUnits="userSpaceOnUse">
      <stop offset="0" stop-color="#fff"/>
      <stop offset="1" stop-color="#ace0ea"/>
    </linearGradient>
    <linearGradient id="linear-gradient-2" x1="1416" y1="246.83" x2="1416" y2="1118.32" gradientUnits="userSpaceOnUse">
      <stop offset="0" stop-color="#d3f1f8"/>
      <stop offset="1" stop-color="#aad5e4"/>
    </linearGradient>
  </defs>
  <rect class="cls-1" width="2832" height="1441.85"/>
  <polygon class="cls-2" points="2611.43 1003.81 2611.43 825.76 2276.77 825.76 2276.77 541.33 2088.2 542.1 2088.2 825.76 2029.98 825.76 2029.98 779.11 1988.65 779.11 1988.65 617.3 1947.16 617.3 1947.16 473.38 1620.43 473.38 1620.43 617.3 1578.93 617.3 1578.93 779.11 1537.61 779.11 1537.61 1003.81 1488.44 1003.81 1488.44 541.82 1226.75 541.82 1226.75 1003.81 1175.46 1003.81 1175.46 433.54 1148.35 433.54 1148.35 377.63 940.88 377.63 940.88 433.54 913.77 433.54 913.77 1003.81 866.92 1003.81 866.92 564.12 609.82 701.56 514.13 661.87 514.13 1003.81 463 1003.81 463 825.76 212.33 825.76 212.33 1003.81 0 1003.81 0 1441.85 2832 1441.85 2832 1003.81 2611.43 1003.81"/>
  <g>
    <path class="cls-3" d="M0,1297H1271.15A144.85,144.85,0,0,1,1416,1441.85H0Z"/>
    <path class="cls-3" d="M959.32,1122h0a65.47,65.47,0,0,1,65.47,65.47v221H893.85v-221A65.47,65.47,0,0,1,959.32,1122Z"/>
    <path class="cls-3" d="M828.37,1197.56h0A65.48,65.48,0,0,1,893.85,1263v145.45h-131V1263A65.47,65.47,0,0,1,828.37,1197.56Z"/>
    <path class="cls-3" d="M1102.62,1201.81h35A145.32,145.32,0,0,1,1283,1347.12H957.3A145.32,145.32,0,0,1,1102.62,1201.81Z"/>
    <path class="cls-3" d="M145.32,1179.68h35A145.32,145.32,0,0,1,325.67,1325v0a0,0,0,0,1,0,0H0a0,0,0,0,1,0,0v0A145.32,145.32,0,0,1,145.32,1179.68Z"/>
  </g>
  <g>
    <path class="cls-3" d="M2832,1297H1985.65a144.85,144.85,0,0,0-144.85,144.85H2832Z"/>
    <path class="cls-3" d="M2211.69,1122h130.95a0,0,0,0,1,0,0v221a65.47,65.47,0,0,1-65.47,65.47h0a65.47,65.47,0,0,1-65.47-65.47V1122A0,0,0,0,1,2211.69,1122Z" transform="translate(4554.33 2530.52) rotate(180)"/>
    <path class="cls-3" d="M2003.63,1197.56h0a65.48,65.48,0,0,0-65.48,65.47v145.45H2069.1V1263A65.47,65.47,0,0,0,2003.63,1197.56Z"/>
    <path class="cls-3" d="M2203.73,1201.81h-35a145.32,145.32,0,0,0-145.32,145.31h325.67A145.32,145.32,0,0,0,2203.73,1201.81Z"/>
    <path class="cls-3" d="M2506.33,1179.68H2832a0,0,0,0,1,0,0v0A145.32,145.32,0,0,1,2686.68,1325h-35a145.32,145.32,0,0,1-145.32-145.32v0A0,0,0,0,1,2506.33,1179.68Z" transform="translate(5338.33 2504.67) rotate(180)"/>
  </g>
  <path class="cls-3" d="M488.38,1179.68h35A145.32,145.32,0,0,1,668.73,1325v0a0,0,0,0,1,0,0H343.07a0,0,0,0,1,0,0v0A145.32,145.32,0,0,1,488.38,1179.68Z"/>
  <g>
    <path class="cls-4" d="M278.63,779.74c-98.36,149.77-110.77,385.66-94.4,662.11H399C430.66,1159.7,394.67,920.6,278.63,779.74Z"/>
    <g>
      <rect class="cls-5" x="278.13" y="880.52" width="14.16" height="561.37" transform="translate(-19.49 4.96) rotate(-0.96)"/>
      <path class="cls-5" d="M281.85,1109.57a112.78,112.78,0,0,1-71-49.79l12-7.55a99.9,99.9,0,0,0,62.07,43.51Z"/>
      <path class="cls-5" d="M288.51,1188.45l-1.76-14a110,110,0,0,0,72.2-40.8l11.12,8.76A124.22,124.22,0,0,1,288.51,1188.45Z"/>
      <path class="cls-5" d="M282.36,1304.15c-14.94,0-30.76-5-46-14.67-14.33-9-26.38-20.75-38-32.07l9.86-10.15c11.14,10.8,22.66,22,35.74,30.24,9.81,6.19,24.94,13.37,41.46,12.4l.83,14.13C284.91,1304.11,283.64,1304.15,282.36,1304.15Z"/>
      <path class="cls-5" d="M284.5,1015.08l-2.25-14a43.14,43.14,0,0,0,28.85-18.74L323,990.1A57.54,57.54,0,0,1,284.5,1015.08Z"/>
      <path class="cls-5" d="M290,1387.87l-1.6-14.06a128.82,128.82,0,0,0,69.08-30.3l9.27,10.71A143,143,0,0,1,290,1387.87Z"/>
    </g>
  </g>
  <g>
    <path class="cls-4" d="M1745.33,1044.06c-109.71,117.14-129,198.9-94.4,397.79h214.73C1898.9,1243,1868.12,1161.2,1745.33,1044.06Z"/>
    <g>
      <rect class="cls-5" x="1747.2" y="1163.74" width="14.16" height="278.13" transform="translate(-21.86 29.96) rotate(-0.97)"/>
      <path class="cls-5" d="M1751.23,1304.08c-12.12,0-31.59-7.08-44.92-19.65-9.91-9.34-15.14-20.44-15.14-32.1h14.16c0,7.77,3.6,15.11,10.69,21.8,11.65,11,28.43,16.13,36,15.77l.83,14.13C1752.35,1304.07,1751.79,1304.08,1751.23,1304.08Z"/>
      <path class="cls-5" d="M1756.71,1387.87l-1.59-14.06a128.85,128.85,0,0,0,69.08-30.3l9.27,10.71A143.07,143.07,0,0,1,1756.71,1387.87Z"/>
    </g>
  </g>
  <g>
    <path class="cls-4" d="M2377.6,779.74c-98.36,149.77-110.77,385.66-94.4,662.11h214.72C2529.63,1159.7,2493.64,920.6,2377.6,779.74Z"/>
    <g>
      <rect class="cls-5" x="2377.1" y="880.52" width="14.16" height="561.37" transform="translate(-19.19 40.26) rotate(-0.96)"/>
      <path class="cls-5" d="M2380.83,1109.57a112.78,112.78,0,0,1-71-49.79l12-7.55a99.9,99.9,0,0,0,62.07,43.51Z"/>
      <path class="cls-5" d="M2387.48,1188.45l-1.76-14a110,110,0,0,0,72.2-40.8l11.12,8.76A124.19,124.19,0,0,1,2387.48,1188.45Z"/>
      <path class="cls-5" d="M2381.33,1304.15c-14.93,0-30.76-5-46-14.67-14.33-9-26.38-20.75-38-32.07l9.86-10.15c11.14,10.8,22.66,22,35.74,30.24,9.81,6.19,24.92,13.34,41.46,12.4l.83,14.13C2383.88,1304.11,2382.6,1304.15,2381.33,1304.15Z"/>
      <path class="cls-5" d="M2383.47,1015.08l-2.25-14a43.18,43.18,0,0,0,28.86-18.74l11.85,7.74A57.54,57.54,0,0,1,2383.47,1015.08Z"/>
      <path class="cls-5" d="M2389,1387.87l-1.59-14.06a128.82,128.82,0,0,0,69.08-30.3l9.27,10.71A143,143,0,0,1,2389,1387.87Z"/>
    </g>
  </g>
  <g>
    <path class="cls-6" d="M486.24,1110.75c-88.62,49-130.8,186.32-115.61,331.1H585.36C600.9,1302.72,575,1181.43,486.24,1110.75Z"/>
    <g>
      <rect class="cls-7" x="371.89" y="1330.38" width="208.8" height="14.16" transform="translate(-869.04 1791.05) rotate(-89.03)"/>
      <path class="cls-7" d="M479.82,1304.08c-.52,0-1,0-1.54,0l.83-14.13c12.28.7,36.85-15.38,49.06-27.23l9.86,10.16C527.31,1283.23,499.43,1304.08,479.82,1304.08Z"/>
      <path class="cls-7" d="M474.46,1387.87a143,143,0,0,1-76.76-33.65l9.27-10.71a128.85,128.85,0,0,0,69.09,30.3Z"/>
    </g>
  </g>
  <g>
    <path class="cls-6" d="M2669.54,1110.75c-88.63,49-130.81,186.32-115.61,331.1h214.73C2784.19,1302.72,2758.29,1181.43,2669.54,1110.75Z"/>
    <g>
      <rect class="cls-7" x="2555.19" y="1330.38" width="208.8" height="14.16" transform="translate(1277.3 3974.03) rotate(-89.03)"/>
      <path class="cls-7" d="M2663.12,1304.08c-.52,0-1,0-1.54,0l.83-14.13c12.29.64,36.84-15.38,49.05-27.23l9.86,10.16C2710.61,1283.23,2682.73,1304.08,2663.12,1304.08Z"/>
      <path class="cls-7" d="M2657.75,1387.87a143,143,0,0,1-76.75-33.65l9.26-10.71a128.88,128.88,0,0,0,69.09,30.3Z"/>
    </g>
  </g>
  <g>
    <path class="cls-4" d="M566.28,779.74c-98.36,149.77-110.76,385.66-94.4,662.11H686.61C718.31,1159.7,682.32,920.6,566.28,779.74Z"/>
    <g>
      <rect class="cls-5" x="565.78" y="880.52" width="14.16" height="561.37" transform="translate(-19.45 9.8) rotate(-0.96)"/>
      <path class="cls-5" d="M569.51,1109.57a112.8,112.8,0,0,1-71.05-49.79l12-7.55a99.93,99.93,0,0,0,62.07,43.51Z"/>
      <path class="cls-5" d="M576.16,1188.45l-1.76-14a110,110,0,0,0,72.2-40.8l11.13,8.76A124.24,124.24,0,0,1,576.16,1188.45Z"/>
      <path class="cls-5" d="M570,1304.15c-14.94,0-30.76-5-46-14.67-14.31-9-26.37-20.74-38-32.07l9.87-10.15c11.14,10.81,22.66,22,35.73,30.24,9.81,6.19,24.93,13.36,41.46,12.4l.83,14.13C572.57,1304.11,571.29,1304.15,570,1304.15Z"/>
      <path class="cls-5" d="M572.15,1015.08l-2.25-14a43.18,43.18,0,0,0,28.86-18.74l11.86,7.74A57.59,57.59,0,0,1,572.15,1015.08Z"/>
      <path class="cls-5" d="M577.66,1387.87l-1.6-14.06a128.82,128.82,0,0,0,69.08-30.3l9.27,10.71A143,143,0,0,1,577.66,1387.87Z"/>
    </g>
  </g>
  <rect class="cls-8" y="1615.96" width="2832" height="136.88"/>
  <g>
    <path class="cls-9" d="M750,1701.67H242.71a16.52,16.52,0,0,1,0-33H750a16.52,16.52,0,0,1,0,33Z"/>
    <path class="cls-9" d="M1210.27,1701.67H702.94a16.52,16.52,0,0,1,0-33h507.33a16.52,16.52,0,0,1,0,33Z"/>
    <path class="cls-9" d="M1845.47,1701.67h-564a16.52,16.52,0,0,1,0-33h564a16.52,16.52,0,0,1,0,33Z"/>
    <path class="cls-9" d="M2241.64,1701.67H1899.51a16.52,16.52,0,1,1,0-33h342.13a16.52,16.52,0,0,1,0,33Z"/>
  </g>
  <g>
    <g>
      <path class="cls-10" d="M1737.34,843.34c-6,9.94-12.09,19.95-17,29.95s-9.43,20-12.16,29.47-4.21,18.38-3.31,25.29a35,35,0,0,0,2.47,9.8,38.74,38.74,0,0,0,6.11,9.39c5.25,6.41,13.86,12.63,23.3,18.46S1757,977,1768,982.39c22.07,10.8,45.41,21.66,68,34.44a19.95,19.95,0,0,1-18,35.55l-.16-.07c-21.89-10-44.73-18.33-68.47-27.48-11.88-4.63-24-9.49-36.4-15.64s-25.25-13.41-37.34-25.1a93.27,93.27,0,0,1-16.26-20.53,89.69,89.69,0,0,1-9.64-25.5c-3.85-17.75-2.06-34.22.77-49s7.58-28.29,12.68-41.13S1674.09,823,1680,811a32.94,32.94,0,0,1,59,29.28c-.41.83-.86,1.64-1.33,2.42Z"/>
      <path class="cls-11" d="M1468.32,1171.86l203.75-80.2c-11.12-169.78,25.9-166.49,46-297-67-39.56-132.22-51.16-212-44.2-54.69,56.26-28.3,111.93-30.69,208.92-3.44,27.59-14.73,89.85-17.08,111.05C1454.52,1104.25,1454.41,1133.89,1468.32,1171.86Z"/>
      <path class="cls-11" d="M1810.72,1044.64l12.88,9.46a27.41,27.41,0,0,0,36.59-3.74l15.48-17.17a23.56,23.56,0,0,0-8-37.34l-15.87-7a24.33,24.33,0,0,0-29.2,7.6l-15.84,21A19.32,19.32,0,0,0,1810.72,1044.64Z"/>
      <path class="cls-10" d="M1672.63,1147.15c-10.88,33.91-23.2,68-39.8,102.09a331.74,331.74,0,0,1-31,50.38c-12.24,16.36-27,32.5-44.25,45.73-4.24,3.39-8.44,6.66-12.77,9.82s-8.54,6.33-12.85,9.14-8.69,5.5-13,7.88a122.68,122.68,0,0,1-12.88,6.61,250.77,250.77,0,0,1-24.93,9l-23.09,7.51c-7.41,2.42-14.62,5-21.72,7.64-3.56,1.3-7.15,2.58-10.62,4s-7,2.82-10.44,4.42-6.93,3.07-10.29,4.82-7,3.14-10.35,5c-6.93,3.36-13.6,7.3-20.62,10.92l-36.15-44.78a141.69,141.69,0,0,1,16.89-23.54,170.76,170.76,0,0,1,20.61-20.35,233.22,233.22,0,0,1,47.92-30.89c8.16-4.12,16.46-7.56,24.18-10.74,8-2.93,14.73-6.67,22.62-7.11,7.34-.9,15.9,1.32,24,2.34a53.25,53.25,0,0,0,12,.58,26.88,26.88,0,0,0,10.22-3c6.05-3.27,10.4-8.74,14-14.57a61.9,61.9,0,0,0,6.76-20.53c2.3-14.93,2.48-30.23,5.48-44.73,5.24-29.52,8.64-60.62,14.37-91.87Z"/>
      <path class="cls-12" d="M1718.05,794.62c-9.2-5.44-29.92-15.44-39.23-19.82a162.39,162.39,0,0,1,4.11,28.08c1.71,32.92-28.32,58.55-60.72,52.48h0a51.29,51.29,0,0,1-41.13-41.8l-10.91-64q-11-.72-22.16-.81l-22.36,155.94c-3.72,25.93-38.23,32.32-51,9.45h0c.69,14.07,1.1,29.07.7,45.25-3.44,27.59-14.73,89.85-17.08,111.05-3.77,33.86-3.88,63.5,10,101.47l203.75-80.2C1661,921.88,1698,925.17,1718.05,794.62Z"/>
      <path class="cls-11" d="M1539.54,1094.81c19.77,14.29,39.61,29.3,59.12,46.89,9.71,9,19.39,18.17,28.58,28.81,4.67,5,9,10.84,13.43,16.33,4.17,5.92,8.48,11.62,12.19,17.93,15.48,24.81,24.7,52.75,29.68,78.1,5.27,25.57,8.24,49.51,11.76,72.77.81,5.8,2.12,11.58,3.14,17.27l3.81,17,3.73,16.89,1.86,8.41,1.53,8.45c2,11.24,3.23,22.58,4.63,33.87l4.31,33.83,8.59,67.71c1.46,11.3,3.17,22.55,4.37,33.94,1.4,11.34,3,22.65,4.13,34.09l-56,13.22c-12.16-21-21.59-42.89-29.62-65.12a593.88,593.88,0,0,1-19.76-67.74c-1.4-5.71-2.59-11.43-3.72-17.18s-2.42-11.47-3.31-17.23c-1.79-11.56-4.65-22.89-3.91-34.79.75-23.64,13.9-49,11.79-71.62a139.79,139.79,0,0,0-20.76-62.53,197.8,197.8,0,0,0-17.89-24.52c-6-7.33-11.88-13.71-17.73-20-2.75-3.22-6.12-6.13-9.13-9.16-3.46-2.89-6.58-5.79-10.23-8.67-6.81-5.84-14.91-11.25-22.78-17-16.32-11.12-34.25-22.38-52.45-34.16Z"/>
      <path class="cls-11" d="M1506.28,815.36c-26.87-1.23-53.64-.91-77.47,3.94-11.88,2.4-22.85,6-32.23,11a71.8,71.8,0,0,0-23.37,20c-6.21,8.55-11.15,19-14.83,30.81s-6.07,24.71-7.84,38c-3.49,26.66-4.31,54.84-4.91,83.08v.16a19.94,19.94,0,0,1-39.84.64c-1.55-28.81-3-57.84-1.39-88.07a279.79,279.79,0,0,1,6-46.41c3.63-15.79,9.39-32.14,18.83-47.51a126.8,126.8,0,0,1,38.13-38.59c15.1-9.73,31.2-16.15,47-20.66,31.69-8.92,62.45-11.22,92.57-12.21a32.92,32.92,0,1,1,2.17,65.81c-.84,0-1.68,0-2.51,0Z"/>
      <path class="cls-11" d="M1308.39,994.66l-.8,16a27.42,27.42,0,0,0,23.29,28.47l22.87,3.44a23.55,23.55,0,0,0,26.73-27.26l-2.93-17.09A24.32,24.32,0,0,0,1355.11,978l-26.22-1.66A19.31,19.31,0,0,0,1308.39,994.66Z"/>
      <polygon class="cls-13" points="1291.34 1403.44 1346.35 1375.76 1370.83 1431.44 1348.28 1547.68 1316.39 1569.79 1291.34 1403.44"/>
      <polygon class="cls-12" points="1291.34 1403.44 1314.88 1391.6 1333.21 1558.13 1316.39 1569.79 1291.34 1403.44"/>
      <path class="cls-13" d="M1695.13,1684.4l-19-48,51.54-52.5c49.4,12.53,81,9.6,100.86-3.59l28.72,26.09C1834.66,1637.11,1749.63,1652.88,1695.13,1684.4Z"/>
      <path class="cls-12" d="M1695.13,1684.4l-10.2-25.77c65.75-44.64,104.14-4.48,165-58.86l7.31,6.65C1834.66,1637.11,1749.63,1652.88,1695.13,1684.4Z"/>
      <path class="cls-13" d="M1458.29,1070.39c-13,58.45-12.81,114,50.77,149.5,11.79-10.47,14.68-13.51,21.69-21.93,10.81-13,12.47-32.14,4.5-47.11,11.07,12.76,26,15.89,40.94,10.87,37.93-12.76,58.18-19,88.1,63.89,5.9-63.92,7.78-133.95,7.78-133.95S1484.62,1072.83,1458.29,1070.39Z"/>
      <path class="cls-14" d="M1672.07,1091.66s-187.45-18.83-213.78-21.27c-2.06,9.27-3.78,18.47-5,27.53,35,16.15,82-32.76,138.46,26.81l41.42,51c12.19,15.78,19.17,27,31.09,49.9C1670.19,1161.69,1672.07,1091.66,1672.07,1091.66Z"/>
      <g>
        <path class="cls-11" d="M1605.13,694.78,1654,730.83a34.75,34.75,0,0,0,22,6.76h0a34.78,34.78,0,0,0,32.88-28.8c4.16-23.68,7.38-54.87,4.72-84.48a45.91,45.91,0,0,0-36.35-40.55,186.2,186.2,0,0,0-41.56-4c-30.32.43-52,29.72-44.56,59.13Z"/>
        <path class="cls-11" d="M1572.92,753.32,1658,780.77l14.85-84.43-76.44-36.16C1597.21,689.52,1587.37,726.68,1572.92,753.32Z"/>
        <path class="cls-15" d="M1582.36,594.19c21.48-18.85,78-40.08,115.22-20.38,8.44,2.87,26,16.43,16,50.5l-6.9-15.25-73.46,1,7.29,16.73c-5.7,10-13.59,27-13,42.87L1593,677.87C1597.74,644.67,1582,617,1582.36,594.19Z"/>
      </g>
      <path class="cls-10" d="M1612.81,700.24c-3.16,46.87,1.8,85,42.88,91.62l10.11-55.39C1652.08,734.64,1633.59,720.42,1612.81,700.24Z"/>
      <path class="cls-15" d="M1682.12,555.93a1.05,1.05,0,0,0-1.17,1.52c5.34,8.76,15.47,12.36,19.26,22.58,3.08,8.31,1.54,18.19,7.71,25.05a3.75,3.75,0,0,0,6.23-1.64C1719,582.5,1703.28,559.26,1682.12,555.93Z"/>
      <path class="cls-15" d="M1706.38,586.92c-22.49-31.95-62.55-35.49-95.33-18a1.49,1.49,0,0,0,.75,2.75c18.12-.12,36.7-.23,53.87,6.52,12.31,4.85,21,20.36,34.51,19.54C1705.15,597.44,1709.75,591.69,1706.38,586.92Z"/>
      <path class="cls-11" d="M1584.59,665.83c2,13.63,11,23.59,20,22.25s14.63-13.48,12.59-27.11-11-23.6-20-22.25S1582.55,652.19,1584.59,665.83Z"/>
    </g>
    <g>
      <path class="cls-14" d="M983.87,587.08c-11.15,7-23.54,18.5-27,31.81-3.68,14.17,4,29.29,2.33,44.08-1.56,14-8.69,28.08-21.1,34.77-14,7.52-31.41,4.34-45.78-2.35s-27.1-16.58-41.62-23c-28.89-12.68-64.08-9.8-90.52,7.41-21.32,13.88-38.9,37-64.25,39.07-13.91,1.15-28.2-4.49-41.63-.7-16.12,4.55-26.13,23-23.4,39.51s16.36,30.08,32.32,35.19,33.69,2.59,49-4.33c9-4.08,18-9.79,27.89-8.88,10.89,1,18.37,9.52,24.91,17.42,7.57,9.16,16.7,15.75,26.31,22.81,20.23,14.86,42.68,28.4,68.07,31.48,28.64,3.48,58.07-7.28,79.9-26.13,24-20.7,35.78-47,43.59-76.85,3.76-14.32,14.8-25.62,21.18-38.83,7.64-15.84,12.29-33.25,12.29-50.89,2.56-22.44,3.45-45,6.16-67.43,1.07-8.88-2-17.62-2-17.62S997.93,578.31,983.87,587.08Z"/>
      <path class="cls-10" d="M1108.87,784.39c13.73,18.2,28.56,36,44.16,53.64s31.8,35.12,48.09,53.48c8.13,9.22,16.29,18.62,24.26,28.91,2,2.6,4,5.13,5.92,7.94s3.91,5.49,5.8,8.51a112,112,0,0,1,10.6,20.3c.75,2.1,1.5,4.07,2.15,6.28.58,2.4,1.11,4.82,1.57,7.24A73.89,73.89,0,0,1,1252,979a52.38,52.38,0,0,1-1,9,48.21,48.21,0,0,1-3.08,9,46.65,46.65,0,0,1-4.8,7.76c-1.75,2.55-3.69,4.06-5.64,6a36,36,0,0,1-5.82,4.55c-4,2.91-7.59,4.38-11.36,6.24-3.61,1.48-7.15,2.73-10.65,3.86-3.39.89-6.84,1.89-10.17,2.62l-9.88,1.91a19.9,19.9,0,0,1-9.43-38.63l1.36-.39,7.61-2.21c2.45-.79,4.68-1.71,7-2.53,2.12-.93,4.16-1.89,6-2.84,1.47-1,3.41-2,4.09-2.86.48-.42,1.14-.84,1.11-1.12s.61-.55.35-.63,0,0-.23.06-.17.39-.35.43c-.34.76-.29-.89-2.13-4.14a70.14,70.14,0,0,0-7.23-10.81c-1.47-1.94-3.15-3.93-4.9-5.93s-3.56-4-5.4-6c-7.48-8-15.78-16.07-24.28-24.09-17.06-16.06-35.05-32.17-52.76-49s-35.33-34.31-52.24-53a32.93,32.93,0,0,1,48.8-44.23c.66.73,1.28,1.47,1.86,2.24Z"/>
      <path class="cls-11" d="M863.13,1150l163.25,3.07a39.8,39.8,0,0,0,40.48-40.81c-3.35-142.32,10.55-220.08,28.92-339.5-68-40.13-121.76-50.58-194.91-44.19-54.69,56.26.16,111.93-2.23,208.92-3.44,27.58-43.19,89.85-45.55,111C849.33,1082.41,849.22,1112.05,863.13,1150Z"/>
      <path class="cls-4" d="M1095.86,773c-10.43-7-30.5-16.85-41.31-21.67,2.31,10.06,5.73,21.25,6.18,29.94,1.72,32.92-11.24,58.55-43.64,52.48h0A51.31,51.31,0,0,1,976,791.92l-8.24-64.85c-7.36-.48-17.42.06-24.83,0L934,827.71c-12.94,42.06-33.44,46.53-46.2,23.66h0c.69,14.07,11.31,70.16,10.91,86.34-3.45,27.58-43.19,89.85-45.55,111-3.76,33.87-3.87,63.51,10,101.47l167.9,3.15c20.12.38,36-16.11,36-36.24-.18-227.6,39.09-177,53.83-247.61C1128,835.53,1095.78,805.34,1095.86,773Z"/>
      <path class="cls-10" d="M1064.92,1116c-10.71,35.85-19,72.1-29.87,108.83l-7.85,27.86c-1.22,4.65-2.61,9.47-4,14.22s-2.71,9.5-4.4,14.37c-6.24,19.27-13.88,39.23-28.3,59.32-6.8,9.94-16.74,19.91-28.44,28.35q-4.62,3.13-9.33,6c-3.42,1.75-6.87,3.41-10.31,5a98.81,98.81,0,0,1-10.77,3.78,70.76,70.76,0,0,1-10.84,2.72l-5.42,1c-1.78.23-3.51.33-5.27.47a90.68,90.68,0,0,1-10.29.4c-3.28,0-6.58-.13-9.8-.29l-9.13-1.09a182.87,182.87,0,0,1-32.12-8.07c-19.53-6.73-36.56-14.47-53.31-22-16.63-7.73-33-14.88-49.25-21.93L766.39,1281c9,2.25,17.72,5,26.42,7.64s17.26,5.44,25.68,8.23c16.8,5.58,33.19,11.27,48.13,15.09a149.29,149.29,0,0,0,20.68,4c6.37.87,11-.11,15.19.18,4.08-.24,8.61.6,13.82-1.69a28.48,28.48,0,0,0,14.2-12.51c3.69-6,6.23-13.58,7.75-21.42a123.84,123.84,0,0,0,2.33-24.84c.15-4.18,0-8.58-.05-12.91l-.28-13c-.12-8.65.2-17.18.55-25.82,1.06-17.09,1.63-34.55,2.8-51.88.87-17.47,2.26-34.91,4.27-52.36Z"/>
      <path class="cls-11" d="M943.87,1080.54c15.81,17.76,31.59,35.51,47.11,54.07s30.9,37.39,45.65,58c14.51,20.68,28.82,42.78,39.9,69.2,11.43,26,17,57.32,16.3,84.12-.18,13.43-1.17,26.23-2.51,38.19l-3.82,35.12c-2.64,22.84-4.22,45.25-5,67.82a973,973,0,0,0,4.81,136l-50.71,6.76a439.67,439.67,0,0,1-18.11-70c-2.15-11.87-3.56-23.88-5.17-35.88-1-12.06-2-24.13-2.64-36.25-.35-12.11-.41-24.25-.27-36.3a151.5,151.5,0,0,1,3.77-35.72c2.8-11.67,6.68-23,10-34.09s5.38-21.88,5.31-32.32c-.31-20.92-8.56-38.55-22.11-53.13-3.08-3.71-7-7.27-10.43-10.8l-11.38-10.45c-7.72-7-15.48-14.12-23.07-21.65-30.72-30-65.47-59.52-97.39-92Z"/>
      <path class="cls-11" d="M917.13,790.89c-26.84,10.23-53.42,19.63-79.15,29.62-25.54,10-51.12,20.45-71.89,33.29a108.52,108.52,0,0,0-13.51,9.87,52.5,52.5,0,0,0-4.91,4.77c-.74.76-1,1.4-1.61,2.08-.23.32-.62.68-.76,1a5.45,5.45,0,0,1-.37.77c-.29.49-.78,1-.7,1.28s-.56.66-.4.87-.19.43-.25.73a1.51,1.51,0,0,1,0,1c0,.45.43,1.05.51,1.63a5.38,5.38,0,0,0,1,2.12,17.87,17.87,0,0,0,1.41,2.46l2.14,2.72c6.15,7.56,16.62,15.24,27.47,22,10.88,6.95,23,13,35.18,19l.59.29a19.93,19.93,0,0,1-16.24,36.36c-13.63-5.47-27.28-11-40.83-18.16s-27.18-14.94-40.29-28.11l-4.82-5.26a65,65,0,0,1-4.56-6.25c-3-4-5.52-9.74-7.57-15.26-.81-3.07-1.51-6.2-2.08-9.34a74.62,74.62,0,0,1-.29-9.83c0-3.34.88-6.34,1.47-9.51a41.7,41.7,0,0,1,2.84-8.64l1.74-4.08c.61-1.31,1.32-2.36,2-3.55,1.37-2.25,2.77-4.75,4.26-6.72a99.16,99.16,0,0,1,9.25-10.91c6.33-6.69,12.82-11.76,19.32-16.75a338.39,338.39,0,0,1,39.15-24.42c13.07-7.1,26.14-13.58,39.16-19.82,26-12.47,51.91-23.92,77-35.76a32.92,32.92,0,0,1,28.09,59.55C918.73,790.25,917.89,790.6,917.13,790.89Z"/>
      <path class="cls-11" d="M850.14,941.26l-6.34-14.67a27.42,27.42,0,0,0-33.48-15.24l-22,7a23.55,23.55,0,0,0-11.93,36.27l10.17,14a24.33,24.33,0,0,0,29.05,8.18l24.26-10.1A19.32,19.32,0,0,0,850.14,941.26Z"/>
      <polygon class="cls-12" points="712.39 1258.85 769.28 1282.32 755.83 1335.83 702.72 1415.84 663.93 1414.64 712.39 1258.85"/>
      <polygon class="cls-14" points="737.9 1269.37 712.39 1258.85 663.93 1414.64 676.77 1415.04 737.9 1269.37"/>
      <path class="cls-12" d="M1023.58,1666.52l4.35-51.42,64.84-24.08c38.66,33.21,63.59,44.66,87.22,41.68l14.11,36.15C1160.2,1686.27,1086.42,1662.55,1023.58,1666.52Z"/>
      <path class="cls-14" d="M1026.82,1628.22l-3.24,38.3c62.84-4,136.62,19.75,170.52,2.33l-4.86-12.44C1139,1682.06,1026.82,1628.22,1026.82,1628.22Z"/>
      <path class="cls-4" d="M853.09,1048.54c-12.94,58.46-12.81,114,50.78,149.51,11.78-10.47,29.74-45.82,67.12-58.17,8.26-2.72,15.3-4.54,21.75-5.17,0,0,13.66,11.07,48,63.34,5.91-63.92,26.17-128.23,26.17-128.23S879.42,1051,853.09,1048.54Z"/>
      <path class="cls-12" d="M1066.88,1069.82S879.42,1051,853.09,1048.54c-2.05,9.28-3.77,18.48-5,27.53,35,16.16,57.33-35,113.76,24.55l30.85,34.09c9.58,8.21,38.65,56,52.94,71.59C1075.74,1162.85,1066.88,1069.82,1066.88,1069.82Z"/>
      <g>
        <path class="cls-11" d="M995.58,684.24l72.05,53.28a21.82,21.82,0,0,0,14.39,4.23h0a21.7,21.7,0,0,0,19-14.28c10.31-28.76,18.9-77.47,16.09-121.5a182.81,182.81,0,0,0-68.2-28.1c-29.77-5.77-56.94,18.48-55.71,48.78Z"/>
        <path class="cls-11" d="M967.73,731.48l85.09,27.45,13.47-59.33-67.43-51C993.63,677.47,982.18,704.84,967.73,731.48Z"/>
        <path class="cls-10" d="M1012.27,694.92l10.82,68a11.84,11.84,0,0,0,21.82,4.28l9.64-15.9,4.56-20.09Z"/>
        <path class="cls-14" d="M998.58,581.11c24.88-14.05,77.81-18.69,110.22,8.2,26,19.92,17.3,32.81,6.86,70.33,0,0,2.89-28.44-.55-44.29L1073,611.5c-20.84-1.62-25.27,122.07-103.56,116.84l9-57.13C991.22,638.37,991.68,607.13,998.58,581.11Z"/>
      </g>
      <path class="cls-11" d="M1190.44,1027.89l-12.88,9.46a27.41,27.41,0,0,1-36.59-3.74l-15.48-17.17a23.56,23.56,0,0,1,8-37.34l15.86-7a24.34,24.34,0,0,1,29.21,7.6l15.84,21A19.32,19.32,0,0,1,1190.44,1027.89Z"/>
      <path class="cls-6" d="M936.68,1160.84c-16.59-12.72-32.87-25.46-42.66-45.54-9.58-19.63-11.43-41.82-10.28-63.77l-10.61-1c-4.31,23.34-3.37,48.13,6.34,71,10.66,25,24.55,38.26,44.94,53.24Z"/>
    </g>
    <g>
      <path class="cls-16" d="M506.49,801.39c-11.91,7.44-23.27,19.83-24.16,33.84-.5,8,2,16.34-.89,23.78-3.13,8-11.81,12.51-20.28,13.78-12,1.8-24.07-1.5-35.94-4s-24.69-4-35.72,1c-14,6.38-21.87,22.68-20.88,38s9.63,29.46,21,39.8a83.82,83.82,0,0,0,121.57-9.44c15.69-19.45,21.91-44.85,24.74-69.68,2.36-20.63,3.17-41.37,5.66-62,1-8.16-1.66-18.77-1.66-18.77S519.4,793.32,506.49,801.39Z"/>
      <path class="cls-10" d="M604.85,1013.1A163.48,163.48,0,0,0,590.41,1032a106.9,106.9,0,0,0-10.08,20c-5.05,13.5-5.57,27.23-1,36.64A25.47,25.47,0,0,0,590,1099.94a38.93,38.93,0,0,0,18.12,4.72c14.14.59,30.18-4.58,45.17-12.1l.44-.22a16,16,0,0,1,15.58,27.93c-17.28,10.66-36.86,20-60.22,21.59a78,78,0,0,1-36.19-6,66.81,66.81,0,0,1-30-25.73c-7.3-11.35-10.63-24.25-11.6-36.49a108.54,108.54,0,0,1,3.44-35.24,155.44,155.44,0,0,1,12-31.16,216.82,216.82,0,0,1,17-27.27,26.45,26.45,0,0,1,43,30.87c-.46.65-1,1.27-1.46,1.86Z"/>
      <path class="cls-11" d="M407.29,1273.32l131.09,2.46A32,32,0,0,0,570.89,1243c-2.7-114.29,8.46-176.73,23.22-272.62-54.59-32.22-97.77-40.62-156.52-35.49-43.91,45.18.13,89.88-1.79,167.76-2.76,22.16-34.68,72.15-36.57,89.17C396.21,1219,396.12,1242.84,407.29,1273.32Z"/>
      <path class="cls-13" d="M594.17,970.57C585.8,965,569.68,957,561,953.17c1.85,8.07,4.6,17.06,5,24,1.38,26.43-9,47-35,42.14h0a41.19,41.19,0,0,1-33-33.57l-6.62-52.08c-5.91-.38-14,0-19.94,0l-7.14,80.82c-10.39,33.76-26.85,37.36-37.09,19h0c.55,11.3,9.08,56.34,8.76,69.33C433.1,1125,401.18,1175,399.29,1192c-3,27.2-3.11,51,8.06,81.48L542.18,1276c16.15.3,28.88-12.94,28.87-29.1-.15-182.76,11.22-134.26,23.06-191C599.8,1028.64,594.11,996.55,594.17,970.57Z"/>
      <path class="cls-10" d="M569.33,1246c-8.84,28.75-15.37,57.87-24,87.39-4.05,14.75-8.16,29.84-12.85,45.39-5.05,15.46-10.71,31.66-22,48.15A97.91,97.91,0,0,1,488,1450.63c-9.47,7.24-22.26,12.09-34.07,13.73a89.09,89.09,0,0,1-32.27-1.7,218.09,218.09,0,0,1-25.38-7.43c-15.44-5.67-29.28-11.25-42.85-17l-20.08-8.47c-6.63-2.82-13.23-5.52-19.92-8l13.74-36.75c7.53.81,15,1.9,22.28,3.17l21.63,4c7.2,1.14,14.35,1.92,21.31,2.63a146.58,146.58,0,0,1,19.09,3.33l4.25,1.33a24,24,0,0,1,4,1.25c1.38.5,2.51.94,3.72,1.48s2.49,1.34,3.53,1.76c4.64,2.61,8.5,5.66,13.26,7.72s10.21,2.51,14.85-.31a20.6,20.6,0,0,0,6.1-5.57l2.48-3.61c.75-1.31,1.36-2.77,2.05-4.12a60.45,60.45,0,0,0,4.89-18.68,151.08,151.08,0,0,0,.3-20.78c-.76-14.15-1.84-28.1-1.24-42s.88-27.83,1.81-41.73c.65-14,1.92-28,3.9-42Z"/>
      <path class="cls-11" d="M470.91,1216.38c28,28.74,55.06,60.15,78,94.79l8.48,13,7.84,13.37c5.37,8.83,9.91,18,14.65,27,4.54,9.14,8.53,18.41,12.73,27.57l5.73,13.85c1.91,4.59,3.88,9.21,5.41,13.9,7,18.54,11.93,37.66,18,56.08l4.51,13.82,4.79,13.66,9.43,27.29q18.53,54.6,39.42,108l-25.22,10.92c-20.86-32.8-39.15-66.84-55.88-101.33-4.36-8.53-8.23-17.25-12.37-25.87-4-8.68-8.55-17-11.52-26.08-6.48-17.83-8.72-37.53-17.31-54.28a110.43,110.43,0,0,0-7-12.19l-3.69-6-4-5.79c-2.71-3.8-5.69-7.42-8.69-11s-6-7.2-9.27-10.52c-6.47-6.72-12.75-13.48-19.41-19.73-3.13-3.27-6.44-6.39-9.36-9.74-3.13-3.21-6.37-6.31-9.35-9.58-12-13-25.06-25-37.73-37.45L429.29,1302c-6.66-6.17-13.56-12-20-18.48Z"/>
      <polygon class="cls-13" points="286.25 1365.44 331.93 1384.28 321.13 1422.53 278.48 1486.78 247.34 1485.82 286.25 1365.44"/>
      <path class="cls-14" d="M315.45,1377.49l-29.2-12-38.92,120.38,8.91.27C263.2,1434.81,295.21,1423.52,315.45,1377.49Z"/>
      <path class="cls-13" d="M668,1685.15l-15.25-38.53,18.4-29.68c39.67,10.07,69.17,9.39,77.27,2l23.06,21C761.21,1661.33,711.81,1659.84,668,1685.15Z"/>
      <path class="cls-14" d="M658.1,1660l9.94,25.12c43.77-25.31,93.17-23.82,103.48-45.25l-8.22-7.46C748.18,1655.81,711.72,1650.53,658.1,1660Z"/>
      <path class="cls-14" d="M399.23,1191.84c-10.39,46.94-10.29,91.55,40.77,120.05,9.46-8.41,23.88-36.78,53.9-46.7a82.43,82.43,0,0,1,17.47-4.16s11,8.89,38.52,50.86c4.74-51.33,21-103,21-103S420.37,1193.8,399.23,1191.84Z"/>
      <path class="cls-17" d="M570.9,1208.92s-150.53-15.12-171.67-17.08c-1.65,7.45-3,14.84-4,22.11,28.1,13,46-28.13,91.36,19.71L511.37,1261c7.69,6.6,31,45,42.5,57.49C578,1283.63,570.9,1208.92,570.9,1208.92Z"/>
      <g>
        <path class="cls-11" d="M517.44,892c15.64,21.16,35.48,39.88,67.42,51.55a21.94,21.94,0,0,0,27.63-12c11.62-27.48,14.42-73.61,12-111.51-19.49-13.15-35.67-21.47-57.76-25.79-27.45-5.36-52.57,16.86-51.44,44.8Z"/>
        <path class="cls-11" d="M491.28,937.24l68.33,22,10.81-47.64-54.14-41C512.08,893.87,502.89,915.85,491.28,937.24Z"/>
        <path class="cls-10" d="M526.26,903l9.48,59.54a9.51,9.51,0,0,0,17.52,3.43L561,953.17l4.18-18.42C551.07,927.47,538.19,916.61,526.26,903Z"/>
        <path class="cls-16" d="M515.85,797.22c22.88-12.92,82.52-26.37,106.44,4.07,18.33,23.32,3,60.4,3,60.4,1.65-21.51-2.69-38.37-17-47.59l-42.27,66.41a97.41,97.41,0,0,1-69,44.21h0C508.92,894.53,509.51,821.14,515.85,797.22Z"/>
      </g>
      <path class="cls-11" d="M669.14,1120.73l12.71-1.72a22,22,0,0,0,19-22.57l-.63-18.56a18.92,18.92,0,0,0-25.46-17.09l-13.06,4.82a19.52,19.52,0,0,0-12.62,20.68l2.54,20.94A15.5,15.5,0,0,0,669.14,1120.73Z"/>
      <path class="cls-11" d="M450.49,985c-18,6.64-35.28,14.53-50.91,24.31s-29.69,21.44-41,35.52a168.2,168.2,0,0,0-27,48c-6.61,17.7-10.9,36.74-13.7,56.26l0,.21a16,16,0,0,1-31.83-3.2c1.24-21.44,4.15-43.17,10.14-64.69a208.43,208.43,0,0,1,28.33-61.83c13-19.21,29.77-35.7,47.93-49.36s37.84-24.64,57.75-34a26.44,26.44,0,1,1,22.41,47.89C451.89,984.47,451.16,984.77,450.49,985Z"/>
      <path class="cls-11" d="M334.9,1179.71l4.76-11.91a22,22,0,0,0-10.29-27.69l-16.47-8.57a18.92,18.92,0,0,0-27.4,13.76L283.27,1159a19.52,19.52,0,0,0,11.8,21.16l19.49,8.09A15.51,15.51,0,0,0,334.9,1179.71Z"/>
    </g>
    <g>
      <path class="cls-10" d="M2183.54,1072a151.75,151.75,0,0,0-13.18,17.21,98.56,98.56,0,0,0-9.2,18.29c-4.6,12.32-5.08,24.85-.86,33.44a23.2,23.2,0,0,0,9.68,10.32,35.49,35.49,0,0,0,16.54,4.31c12.9.54,27.54-4.18,41.22-11l.4-.2a14.6,14.6,0,0,1,14.22,25.48c-15.77,9.73-33.64,18.23-55,19.71a71.07,71.07,0,0,1-33-5.45,60.92,60.92,0,0,1-27.43-23.48c-6.66-10.36-9.7-22.13-10.58-33.31a98.74,98.74,0,0,1,3.13-32.15c5.25-20.27,15.11-37.74,26.45-53.33a24.14,24.14,0,0,1,39,28.4c-.4.55-.82,1.07-1.25,1.58Z"/>
      <path class="cls-11" d="M2003.24,1309.48l137.41,2.82c-5.36-124.42,18.37-183.61,33.09-279.28-49.82-29.41-89.23-37.07-142.84-32.39-5.79,54.36-7.55,83.91-14.56,153.11-2.52,20.21-18.73,65.84-20.45,81.37C1993.13,1259.93,1993.05,1281.66,2003.24,1309.48Z"/>
      <path class="cls-14" d="M2173.79,1033.17c-7.64-5.1-22.34-12.35-30.27-15.88,1.69,7.37,4.2,15.57,4.53,21.94,1.26,24.12-8.23,42.91-32,38.46h0a37.6,37.6,0,0,1-30.14-30.64l-6-47.52c-5.39-.35-12.76,0-18.19,0l-6.52,73.75c-9.48,30.82-24.5,34.1-33.85,17.34h0c.5,10.31-4.64,51.42-4.93,63.27-2.52,20.22-18.73,65.84-20.46,81.38-2.76,24.82-2.84,46.54,7.36,74.36l145-58.93c7.49-71.38,13.92-123.59,17.19-147.82C2168.84,1077.67,2173.74,1056.88,2173.79,1033.17Z"/>
      <path class="cls-10" d="M2138.2,1288.87c-7.93,25.15-13.52,50.63-20.61,76.47l-10,39.71c-3.83,13.57-8,27.68-16.35,42.51-4.69,7.52-9.58,15.18-18,22.58a69.91,69.91,0,0,1-6.75,5.16c-1.21.82-2.28,1.66-3.61,2.4l-4.07,2.06-4.1,1.9c-1.41.55-2.89,1-4.33,1.48a48.65,48.65,0,0,1-8.7,2.14c-11.68,2-22.16.26-30.38-2a196,196,0,0,1-22.19-7.65c-13.28-5.58-25.06-10.81-36.82-16l-17.39-7.64c-5.76-2.52-11.51-4.89-17.36-7l12.55-33.54c13.44,1.18,26.33,4.11,39.07,6.53,6.42,1.1,12.82,1.94,19,2.71a120.88,120.88,0,0,1,17,3.59l3.72,1.34a22.68,22.68,0,0,1,3.43,1.26c1.17.48,2.19,1,3.15,1.49s2.07,1.27,2.9,1.7c3.76,2.48,6.41,5.4,9.87,7.44a10.58,10.58,0,0,0,11.72-.22c.89-.73,1.79-1.48,2.66-2.27.73-1,1.53-2,2.18-3.07a42.88,42.88,0,0,0,3.45-7.14,61,61,0,0,0,2.14-8.26,69.44,69.44,0,0,0,1-8.85,160.09,160.09,0,0,0-.73-18.62c-1.31-12.69-2.76-25.21-2.46-37.56.42-24.69.64-49.78,4.22-74.53Z"/>
      <path class="cls-11" d="M2061.3,1257.51l17.84,19.25c5.85,6.69,11.57,13.71,17.29,20.53,5.5,7.4,11,14.68,16.24,22.39l7.47,12c1.22,2,2.49,4,3.65,6l3.26,6.43,6.36,12.87,5.21,13.47,2.53,6.72,1.95,6.85,3.73,13.69c3.5,18.32,6,36.33,6.07,53.68l.09,13-.74,12.79-.74,12.71c-.4,4.18-.67,8.34-.85,12.5-.95,16.69-1.32,33-2.14,49.44-1.65,32.75-2.45,65.24-2.51,97.8l-25.06,1c-6.82-32.45-11-65.2-13.69-97.63-.83-8.15-1.28-16.17-1.93-24.25-.49-8.11-1.61-16.07-1.23-24.07l.26-6,.64-6c.34-4,.9-8,1.3-12s.74-8,1-12c-.21-3.9-.2-7.83-.74-11.7a67.15,67.15,0,0,0-2.27-11.44l-1.52-5.55-1.85-5.47a51.41,51.41,0,0,0-2-5.38l-2.51-5.11c-1.62-3.39-3.42-6.72-5.22-10l-6.09-9.14-3-4.45c-1.14-1.39-2.33-2.75-3.35-4.16-2.07-2.82-4.28-5.5-6.11-8.34-2.2-2.68-4.49-5.27-6.51-8l-3-4c-1.1-1.32-2.34-2.58-3.49-3.87-2.33-2.58-4.69-5.1-6.88-7.72-4.78-5.13-10.1-10-14.86-15.21l-16.17-15c-5.54-5.16-11.29-10.07-16.59-15.48Z"/>
      <polygon class="cls-4" points="1892.78 1393.55 1934.46 1410.74 1924.6 1445.65 1885.68 1504.29 1857.26 1503.41 1892.78 1393.55"/>
      <path class="cls-13" d="M1919.42,1404.54l-26.64-11-35.52,109.86,8.12.25C1871.74,1456.85,1901,1446.55,1919.42,1404.54Z"/>
      <path class="cls-4" d="M2120.6,1685.32l-.26-37.82,25.45-19.17c30.43,21.65,55.76,30.81,65.08,27.21l12.71,25.43C2207.73,1695.8,2166.19,1678.23,2120.6,1685.32Z"/>
      <path class="cls-13" d="M2120.43,1660.66l.17,24.66c45.59-7.09,87.13,10.48,103-4.35l-4.53-9.06C2198.47,1686.81,2169.19,1670.28,2120.43,1660.66Z"/>
      <path class="cls-12" d="M1995.89,1235.11c-9.49,42.84-9.39,83.56,37.2,109.57,8.64-7.68,21.8-33.58,49.2-42.63a75.29,75.29,0,0,1,15.94-3.79s10,8.11,35.15,46.42c4.33-46.85,14.87-94,14.87-94S2015.18,1236.9,1995.89,1235.11Z"/>
      <path class="cls-15" d="M2148.25,1250.7s-133.07-13.8-152.36-15.59c-1.51,6.8-2.77,13.54-3.64,20.18,25.64,11.84,42-25.67,83.37,18l20.88,25.19c7.42,9.21,27,37.59,36.1,57C2147.8,1313.41,2148.25,1250.7,2148.25,1250.7Z"/>
      <g>
        <path class="cls-11" d="M2079.89,1002.76l62.36,20.11,9.87-43.47L2102.71,942C2098.88,963.17,2090.49,983.23,2079.89,1002.76Z"/>
        <path class="cls-10" d="M2111.82,971.47l8.65,54.33a8.68,8.68,0,0,0,16,3.14l7.06-11.65,3.81-16.81C2134.46,993.84,2122.71,983.92,2111.82,971.47Z"/>
        <path class="cls-11" d="M2099,962.41c15.49,21,35.2,39.46,67.22,50.79a20,20,0,0,0,24.85-10.77c11.85-26.6,14.72-72.55,12.32-110.19-19-12.82-34.78-20.93-56.33-25.14-26.76-5.23-51.26,16.44-50.15,43.69Z"/>
        <path class="cls-16" d="M2103.88,862.72c22.31-12.6,74-18.48,97.35,11.2,17.87,22.75,2.92,58.9,2.92,58.9-.44-10.81-48.87-16.69-64.15-36.36l-3.22,40-12,14.47-32.27,25.48C2075.86,899.85,2084.39,875.82,2103.88,862.72Z"/>
      </g>
      <path class="cls-11" d="M2242.21,1170.22l11.61-1.57a20.09,20.09,0,0,0,17.38-20.6l-.58-16.94a17.26,17.26,0,0,0-23.23-15.6l-11.92,4.4a17.82,17.82,0,0,0-11.52,18.87l2.32,19.12A14.16,14.16,0,0,0,2242.21,1170.22Z"/>
      <path class="cls-11" d="M2042.66,1046.36c-32.86,12.08-63.07,28.91-83.91,54.61a153.55,153.55,0,0,0-24.62,43.78c-6,16.16-10,33.54-12.5,51.35l0,.18a14.61,14.61,0,0,1-29-2.91c1.13-19.57,3.78-39.4,9.26-59a190.09,190.09,0,0,1,25.85-56.43c11.83-17.53,27.17-32.57,43.74-45s34.53-22.5,52.7-31a24.13,24.13,0,1,1,20.47,43.7C2044,1045.85,2043.29,1046.13,2042.66,1046.36Z"/>
      <path class="cls-11" d="M1937.18,1224.05l4.34-10.88a20.11,20.11,0,0,0-9.39-25.27l-15-7.82a17.27,17.27,0,0,0-25,12.56l-2,12.54a17.81,17.81,0,0,0,10.77,19.31l17.78,7.38A14.16,14.16,0,0,0,1937.18,1224.05Z"/>
    </g>
  </g>
</svg>
