<svg id="Ñëîé_1" data-name="Ñëîé 1" xmlns="http://www.w3.org/2000/svg" width="3546" height="2034" viewBox="0 0 3546 2034">
  <defs>
    <style>
      .cls-1 {
        fill: #cce8fe;
      }

      .cls-2 {
        fill: #e6f2ff;
      }

      .cls-3 {
        fill: #34302f;
      }

      .cls-4 {
        fill: #667824;
      }

      .cls-5 {
        fill: #634e42;
      }

      .cls-6 {
        fill: #c6e1f7;
      }

      .cls-7 {
        fill: #fff;
      }

      .cls-8 {
        fill: #559c00;
      }

      .cls-9 {
        fill: #7bc116;
      }

      .cls-10 {
        fill: #bcdd57;
      }

      .cls-11 {
        fill: #9ac8ff;
      }

      .cls-12 {
        fill: #f8b504;
      }

      .cls-13 {
        fill: #0059c3;
      }

      .cls-14 {
        fill: #f6f6f6;
      }

      .cls-15 {
        fill: #e19003;
      }

      .cls-16 {
        fill: #fdcf3d;
      }

      .cls-17 {
        fill: #dadada;
      }

      .cls-18 {
        fill: #d99047;
      }

      .cls-19 {
        fill: #1c2f62;
      }

      .cls-20 {
        fill: #112d49;
      }

      .cls-21 {
        fill: #494949;
      }

      .cls-22 {
        fill: #515151;
      }

      .cls-23 {
        fill: #c91464;
      }

      .cls-24 {
        fill: #aa135b;
      }

      .cls-25 {
        fill: #dd8172;
      }

      .cls-26 {
        fill: #ffae96;
      }

      .cls-27 {
        fill: #ff65ab;
      }

      .cls-28 {
        fill: #f2947e;
      }

      .cls-29 {
        fill: #dd2b79;
      }

      .cls-30 {
        fill: #b71a5f;
      }

      .cls-31 {
        fill: #c97269;
      }

      .cls-32 {
        fill: #04427f;
      }

      .cls-33 {
        fill: #385c77;
      }
    </style>
  </defs>
  <circle class="cls-1" cx="2296.46" cy="965.77" r="888.44"/>
  <path class="cls-2" d="M2979.72,302.08H2229.17v1219a728.21,728.21,0,0,0,253.65,45.3c212.88,0,404.46-91.16,537.86-236.55V343.34Q3001,321.92,2979.72,302.08Z"/>
  <path class="cls-2" d="M3001.71,775.74v374H2257.23V691.16c-77.44-40.23-118-89.48-123.46-96.37-127.89-164.46-327.63-270.28-552.1-270.28-186.11,0-355.23,72.75-480.49,191.34a.1.1,0,0,1,0,0c-107.23,78.49-240,110.36-299.4,121.36q-15.79,2.13-31.37,5h0c-309.25,57-543.55,328-543.55,653.71,0,237.94,125,446.68,312.93,564.12h2712a696.17,696.17,0,0,0,161.59-447C3413.29,1129.5,3244.4,885.36,3001.71,775.74Z"/>
  <path class="cls-3" d="M2221.67,985.63l-11.5-9s.5-16.25,8.75-16.25,10.25,5,10.25,5v12.5Z"/>
  <path class="cls-4" d="M3059,442.72c-4.9-1.82-8.33,1.53-10.8,5.33a136.67,136.67,0,0,0-7.36,12.82,150,150,0,0,0-11,28.82c-1.13,4.21,3.71,8,7.29,6.14a4.21,4.21,0,0,0,4.16-1.67,134.19,134.19,0,0,0,16.51-24.88C3061.24,462.53,3070.4,446.94,3059,442.72Z"/>
  <path class="cls-4" d="M3030.82,458.7q.29-1.79.48-3.6c.49-4.61-5.91-6.64-8.85-3.66a48.5,48.5,0,0,0-4.13,4.78,18.15,18.15,0,0,0-3.65,5.55,40,40,0,0,0-4.74,13.43c-.7,4.55,1.8,9.36,6.93,9.36,4.54,0,8-3.83,10.36-7.28C3030,473.25,3033,464.3,3030.82,458.7Z"/>
  <path class="cls-4" d="M3042.38,550c-.92-2.92-3.52-4-6.38-3.62a8,8,0,0,0-4.42,2.45,8.54,8.54,0,0,0-2.09,4.19,7.34,7.34,0,0,0,.39,7.43c1.18,1.71,3.67,3.29,5.86,2.39a10.74,10.74,0,0,0,5.86-5A10.4,10.4,0,0,0,3042.38,550Z"/>
  <path class="cls-4" d="M3043.77,514.48A9.14,9.14,0,0,0,3033,510a9.46,9.46,0,0,0-6.72,11.45,9.92,9.92,0,0,0,12,6.73,5.32,5.32,0,0,0,1.58-.79,9,9,0,0,0,1.94-1.3A9.83,9.83,0,0,0,3043.77,514.48Z"/>
  <path class="cls-4" d="M3069.28,552.15a6.5,6.5,0,0,0-1.9-3.28,6.13,6.13,0,0,0-3.89-1.65,7.14,7.14,0,0,0-3.25.9,7.89,7.89,0,0,0-3,2.81,6.2,6.2,0,0,0-.34,6.29,6.88,6.88,0,0,0,3.92,3.14,6.35,6.35,0,0,0,2.08.3,5.69,5.69,0,0,0,2-.36,6.22,6.22,0,0,0,1.16-.46,6.29,6.29,0,0,0,2.85-3.27A7,7,0,0,0,3069.28,552.15Z"/>
  <path class="cls-4" d="M2252.89,1064.16a50.1,50.1,0,0,0-3.92-10.43c-1.44-2.87-3.13-6.24-6.58-7a4.73,4.73,0,0,0-4.93,2.11c-1.08,1.71-.71,3.85-.47,5.73a51.91,51.91,0,0,0,7.45,21,3.5,3.5,0,0,0,5,1.08,4.53,4.53,0,0,0,3.75-2.27C2255,1071.53,2253.64,1067.19,2252.89,1064.16Z"/>
  <path class="cls-4" d="M2239.88,1080.89a47.5,47.5,0,0,0-13.09-28.05c-1.75-1.8-5.52-1.12-6,1.58-.91,5.21.63,9.87,3.13,14.42,2.6,4.73,5.53,9.29,8.31,13.91a3.3,3.3,0,0,0,3.45,1.67,4.07,4.07,0,0,0,.61,0C2238.07,1084.47,2240.1,1082.82,2239.88,1080.89Z"/>
  <path class="cls-4" d="M2440.52,1127.85a3.66,3.66,0,0,0-3-2.57,3.58,3.58,0,0,0-3.48,1.58,8,8,0,0,0-3.53,4.35,5.48,5.48,0,0,0-.11,2.28,3.64,3.64,0,0,0,1.33,4.8,3.7,3.7,0,0,0,3.7,0,5.3,5.3,0,0,0,4.75-3A9.1,9.1,0,0,0,2440.52,1127.85Z"/>
  <path class="cls-5" d="M2609.68,1218.86c-.16-.67-.31-1.34-.46-2a2.34,2.34,0,0,0,0-.53,158.26,158.26,0,0,0-11.34-43.28c-.83-2-4.37-2.06-4.15.56a145,145,0,0,0,12.09,46.89C2606.83,1222.76,2610.18,1221.09,2609.68,1218.86Z"/>
  <polygon class="cls-6" points="2607.68 1737.1 2158.79 1737.1 2158.79 1767.02 2607.68 1767.02 2607.68 1860.5 2637.6 1860.5 2637.6 1767.02 2637.6 1737.1 2607.68 1737.1"/>
  <path class="cls-1" d="M2206.16,282.09v939.62H3069V282.09ZM3045,1197.71H2225.16V302.08H3045Z"/>
  <path class="cls-7" d="M2225.16,302.08v895.63H3045V302.08Zm776.55,847.63H2267.16V342.09h734.55Z"/>
  <path class="cls-8" d="M3001.71,429v720.67H2267.16V691.16C2531,723.22,2534,456.4,3001.71,429Z"/>
  <path class="cls-9" d="M3001.71,563.37v586.34H2267.16V922.66c72.33-39.38,110.33-85.52,115.59-92.17,127.89-164.46,327.63-270.28,552.1-270.28Q2968.68,560.21,3001.71,563.37Z"/>
  <path class="cls-10" d="M3001.71,1095.24v54.47H2267.16V985.77a699.73,699.73,0,0,1,734.55,109.47Z"/>
  <rect class="cls-7" x="2628.07" y="170.75" width="14.06" height="738.54" transform="translate(2095.07 3175.12) rotate(-90)"/>
  <rect class="cls-11" x="1079.61" y="318.77" width="31.5" height="70.5"/>
  <rect class="cls-12" x="1075.79" y="385.11" width="39.13" height="8.17"/>
  <rect class="cls-11" x="1051.98" y="393.27" width="86.75" height="53.5"/>
  <path class="cls-11" d="M1608.63,438.61c-6.34-30.47-35.35-53.5-70.21-53.5s-63.87,23-70.2,53.5Z"/>
  <rect class="cls-11" x="1522.92" y="315.94" width="31" height="68.33"/>
  <rect class="cls-13" x="1204.85" y="377.27" width="31" height="72.5"/>
  <path class="cls-12" d="M1365.12,584.11a145.35,145.35,0,0,0-289.53,0Z"/>
  <rect class="cls-13" x="896.15" y="451.77" width="30.67" height="121.33"/>
  <rect class="cls-12" x="892.3" y="569.56" width="38.38" height="7.63"/>
  <polygon class="cls-12" points="930.61 577.19 913.23 577.19 909.73 577.19 892.36 577.19 820.48 661.44 1002.48 661.44 930.61 577.19"/>
  <rect class="cls-12" x="1199.35" y="444.39" width="42" height="9.38"/>
  <rect class="cls-11" x="1087.48" y="77.36" width="15.75" height="43.08"/>
  <rect class="cls-11" x="1212.48" y="77.36" width="15.75" height="43.08"/>
  <rect class="cls-11" x="1530.55" y="77.36" width="15.75" height="43.08"/>
  <rect class="cls-11" x="903.61" y="77.36" width="15.75" height="43.08"/>
  <rect class="cls-11" x="907.48" y="120.43" width="8" height="333.34"/>
  <rect class="cls-11" x="1091.36" y="115.38" width="8" height="203.39"/>
  <rect class="cls-11" x="1217.14" y="115.38" width="8" height="261.89"/>
  <rect class="cls-11" x="1534.42" y="115.38" width="8" height="200.56"/>
  <path class="cls-11" d="M1513.06,78.44h0c0,71.22-59.43,129.16-132.47,129.16s-132.46-57.94-132.46-129.16h-6.78c0,74.95,62.47,135.93,139.24,135.93s139.24-61,139.24-135.93h-6.77Z"/>
  <path class="cls-11" d="M1062.77,78.44c-21.38,78.86-93.57,137-179.1,137S726,157.3,704.57,78.44H696.7a191.84,191.84,0,0,0,50.43,88,193.09,193.09,0,0,0,273.08,0,191.94,191.94,0,0,0,50.44-88Z"/>
  <rect class="cls-12" x="1519.83" y="379.39" width="37.19" height="7.79"/>
  <rect class="cls-11" x="469.37" y="1312.65" width="159.83" height="68.61" rx="6.08"/>
  <rect class="cls-14" x="793.43" y="859.85" width="159.83" height="68.61" rx="6.08"/>
  <rect class="cls-7" x="212.63" y="1235.65" width="159.83" height="68.61" rx="6.08"/>
  <rect class="cls-11" x="381.12" y="1235.65" width="159.83" height="68.61" rx="6.08"/>
  <rect class="cls-7" x="132.71" y="1312.65" width="159.83" height="68.61" rx="6.08"/>
  <rect class="cls-7" x="301.21" y="1312.65" width="159.83" height="68.61" rx="6.08"/>
  <rect class="cls-11" x="1076.91" y="723.22" width="334.6" height="410.2"/>
  <rect class="cls-7" x="1089.23" y="735.22" width="308.9" height="385.16"/>
  <polygon class="cls-2" points="1359.08 1067.33 1359.08 1069.24 1131.08 1069.24 1131.08 787.82 1359.08 1067.33"/>
  <rect class="cls-1" x="1461.11" y="550.72" width="334.6" height="265.6"/>
  <rect class="cls-7" x="1473.43" y="563.71" width="308.9" height="238.44" transform="translate(3255.76 1365.86) rotate(180)"/>
  <polygon class="cls-2" points="1519.08 764.02 1519.08 603.01 1650.42 764.02 1519.08 764.02"/>
  <rect class="cls-11" x="1461.11" y="866.59" width="334.6" height="265.6"/>
  <rect class="cls-7" x="1473.43" y="879.58" width="308.9" height="238.44"/>
  <polygon class="cls-2" points="1512.47 1079.91 1512.47 919.78 1643.08 1079.91 1512.47 1079.91"/>
  <rect class="cls-14" x="3004.43" y="1433.66" width="159.83" height="68.61" rx="6.08"/>
  <rect class="cls-11" x="2609.73" y="1293.71" width="159.83" height="68.61" rx="6.08"/>
  <rect class="cls-11" x="2778.22" y="1293.71" width="159.83" height="68.61" rx="6.08"/>
  <rect class="cls-11" x="2698.31" y="1370.71" width="159.83" height="68.61" rx="6.08"/>
  <polygon class="cls-6" points="3277.68 1515.65 3329.2 1515.65 3329.2 1496.78 2963.17 1496.78 2963.17 1515.65 3024.85 1515.65 2936.22 1862.68 2967.18 1862.68 3051.98 1530.65 3250.54 1530.65 3337.05 1862.68 3368.06 1862.68 3277.68 1515.65"/>
  <path class="cls-6" d="M821.16,1466.06a21.24,21.24,0,0,0-21.25-21.24H593.11a21.24,21.24,0,0,0-21.24,21.24V1839.5a21.24,21.24,0,0,0,21.24,21.24h47.26a21.24,21.24,0,0,0,21.24-21.24V1555.81a21.25,21.25,0,0,1,21.25-21.25h117a21.24,21.24,0,0,0,21.25-21.24Z"/>
  <polygon class="cls-11" points="2901.56 1860.74 2986.36 1528.71 3184.92 1528.71 3271.43 1860.74 3302.44 1860.74 3208.16 1498.71 2963.06 1498.71 2870.6 1860.74 2901.56 1860.74"/>
  <rect class="cls-7" x="2897.55" y="1494.84" width="366.04" height="18.87"/>
  <path class="cls-6" d="M674.42,1540.18h76V1380.85a20.24,20.24,0,0,1,20.18-20.18h20.7c-2.17-14.05-3.62-28.34-4.5-38.52-.66-7.74,5-14.42,12.22-14.42h432.58c6.78,0,12.27,5.92,12.27,13.22v199.77c0,7.3-5.49,13.22-12.27,13.22h-203v6.24h198a17.17,17.17,0,0,1,17.12,17.12v156.45a17.17,17.17,0,0,1-17.12,17.12H674.42a17.17,17.17,0,0,1-17.12-17.12V1557.3A17.17,17.17,0,0,1,674.42,1540.18Z"/>
  <rect class="cls-15" x="807.06" y="1360.67" width="1535.5" height="347.14" rx="20.18"/>
  <path class="cls-12" d="M846,1322.8c1.75,20.23,5.71,55.75,13,74.32a14.53,14.53,0,0,1,.9,6.51l-7.23,83.22a14.6,14.6,0,0,1-.6,3.08l-8,25.86c-2.76,8.93,3.41,18.15,12.14,18.15h434c7.07,0,12.8-6.17,12.8-13.79V1321.52c0-7.62-5.73-13.79-12.8-13.79H858.75C851.21,1307.73,845.3,1314.71,846,1322.8Z"/>
  <path class="cls-12" d="M2306.18,1322.15c-1.73,20.12-5.7,56.24-13.08,75a14.31,14.31,0,0,0-.89,6.46l7.23,83.31a13.88,13.88,0,0,0,.58,2.95l8.25,26.68c2.65,8.56-3.27,17.4-11.64,17.4H1861.38c-6.78,0-12.27-5.92-12.27-13.22V1321c0-7.3,5.49-13.22,12.27-13.22H2294C2301.18,1307.73,2306.84,1314.41,2306.18,1322.15Z"/>
  <rect class="cls-12" x="1320.97" y="1307.73" width="510.61" height="226.22" rx="10"/>
  <polygon class="cls-11" points="2652.43 1737.1 753.43 1737.1 723.52 1737.1 723.52 1767.02 723.52 1860.5 753.43 1860.5 753.43 1767.02 2652.43 1767.02 2652.43 1860.5 2682.35 1860.5 2682.35 1767.02 2682.35 1737.1 2652.43 1737.1"/>
  <rect class="cls-12" x="723.52" y="1540.18" width="1958.83" height="190.7" rx="17.12"/>
  <path class="cls-16" d="M878.49,1466.06a21.24,21.24,0,0,0-21.24-21.24H650.45a21.24,21.24,0,0,0-21.25,21.24V1839.5a21.24,21.24,0,0,0,21.25,21.24H697.7A21.24,21.24,0,0,0,719,1839.5V1555.81a21.24,21.24,0,0,1,21.24-21.25H857.25a21.24,21.24,0,0,0,21.24-21.24Z"/>
  <path class="cls-16" d="M1275.45,1422.31H937a14.54,14.54,0,0,1-14.55-14.54l-14.54-69.44a14.54,14.54,0,0,1,14.54-14.54h353a14.54,14.54,0,0,1,14.55,14.54v69.44A14.54,14.54,0,0,1,1275.45,1422.31Z"/>
  <rect class="cls-16" x="1335.42" y="1323.79" width="479.98" height="98.52" rx="11.67"/>
  <path class="cls-16" d="M1881.47,1422.31h338.42a14.54,14.54,0,0,0,14.55-14.54l14.54-69.44a14.54,14.54,0,0,0-14.54-14.54h-353a14.54,14.54,0,0,0-14.55,14.54v69.44A14.54,14.54,0,0,0,1881.47,1422.31Z"/>
  <path class="cls-6" d="M613.77,1030.25l-.46-.09H389.68v10h5.63v17h-5.63v9.18H368.19v10h5.63v17h-5.63v10H591.58l.24,0c5.19-.5,15-4.89,15-18,0-10.87-6.89-16.23-12-18.18h18.3l.23,0c5.19-.5,15-4.89,15-18C628.31,1036.4,618.8,1031.21,613.77,1030.25Z"/>
  <path class="cls-17" d="M1865.7,1487.51c-.38,7.3-1.15,12-1.15,12Z"/>
  <path class="cls-18" d="M3076,1326.5a26.85,26.85,0,0,1,3.12,5.19,43.8,43.8,0,0,0-3.83-6C3075.54,1326,3075.78,1326.22,3076,1326.5Z"/>
  <path class="cls-7" d="M3074.08,1324.34v0a11.76,11.76,0,0,1,1.18,1.29C3074.87,1325.18,3074.49,1324.76,3074.08,1324.34Z"/>
  <rect class="cls-7" x="2427.2" y="342.07" width="14.06" height="807.62"/>
  <rect class="cls-7" x="2817.53" y="342.07" width="14.06" height="807.62"/>
  <rect class="cls-7" x="2628.07" y="589.47" width="14.06" height="738.54" transform="translate(1676.36 3593.84) rotate(-90)"/>
  <path class="cls-6" d="M3031.47,1206.38c5.12,22.67,28.55,94.12,39.54,127.23H3050.4v161.17h150.25V1333.61h-24.84c10.9-32.84,34.59-105,39.74-127.84,6.74-29.85,68.87-141.58,64.29-152.17,0,0-30.58,39.49-45,66.45s-49.14,133.88-49.14,133.88h0c3.6-13.81,6.73-26,8.68-33.75,7.71-30.79,41.53-136.74,27.51-145.4,0,0-19.8,91.48-32.32,121.39-3.66,8.74-7.58,19.73-11.3,30.9,2.54-43.37-.2-229.11-.2-229.11a27.26,27.26,0,0,0-6.74,18.3c0,11.56,4.81,69.35,0,101.13-3.59,23.65-17.3,69.24-24.08,91-3.86-43.19-13-86.35-29.74-115.8-11.1-19.5-23.16-38-40.52-51.77a2.65,2.65,0,0,0-1.93-.61c.08-1.9.12-3.45.12-4.56a27.29,27.29,0,0,0-6.74-18.3s-2.09,141.72-.93,206.49c-3.33-9.84-6.78-19.35-10-27.09-12.52-29.92-32.32-121.4-32.32-121.4-14,8.67,19.8,114.62,27.51,145.41,1.94,7.78,5.08,19.94,8.68,33.75h0s-34.69-106.91-49.14-133.88-45-66.46-45-66.46C2962.6,1064.8,3024.73,1176.52,3031.47,1206.38Zm94.44-40.47c.07,7.22-.27,14.41-.85,21.58-.2-.79-20.51-80.94-39.52-94.86-2.12-1.56,4,39.36,10.76,59.88s4.81,59.24,4.81,73.59c0,2.08-.1,4.4-.28,6.82-5.94-18.85-21.78-70.41-25.67-96.09-4-26.13-1.41-69.82-.38-91a338.94,338.94,0,0,1,34.82,54.78C3120,1121.29,3125.69,1142.74,3125.91,1165.91Z"/>
  <path class="cls-6" d="M581.31,887.68c-13.08-8.12-30.35-11.77-45.16-6.66-4,1.37-10.94,4-10,9.5a7.11,7.11,0,0,0,.65,2c-5.07,2.06-9.17,6-13.11,10.08a14.89,14.89,0,0,0-5.56-1.65,8.47,8.47,0,0,0-1.12,0c-1.43-3.9-3.35-7.66-4.74-11.61a9.61,9.61,0,0,0,3.95-3.09C515.08,875,518.14,855.88,517,842c-.35-4.35-1.56-12.51-6-14.75a3.92,3.92,0,0,0-4.19.45,1.8,1.8,0,0,0-1.37.38c-12.49,9.81-16.35,26-15.64,41.24.28,6.12,1.35,13.92,6,18.43a6.74,6.74,0,0,0,3,1.77c1.3,3.83,3.18,7.48,4.63,11.24a41.82,41.82,0,0,0-4.87-4.72,42.61,42.61,0,0,0-6.07-4.16c-1.36-.77-3.17-1.36-4.77-2.11a7,7,0,0,0-.27-5.3c-2.44-5.6-8.44-10.23-13.24-13.72A95.21,95.21,0,0,0,454.46,860c-3.81-1.58-9-3.07-12.14.65a5.81,5.81,0,0,0-1,1.61,1.54,1.54,0,0,0-.61,1.31c.15,13.08,12.87,22.88,24,27.48,5.2,2.15,13,4.94,18.59,2.85a8.37,8.37,0,0,0,2.31-1.31c2.79,1.56,6,2.59,8.64,4.43a38,38,0,0,1,6.92,6.35,9.25,9.25,0,0,0-3.64,4.39,16.49,16.49,0,0,0-7.69-1.88c-.55-3-3.33-5.27-6.66-5.9-7-1.33-15.92,2-22.3,4.6a72.28,72.28,0,0,0-20,12.14c-3.19,2.73-7.18,6.35-6.74,10.5a4.49,4.49,0,0,0,.86,4.81c3.62,4.05,13.22,1,17.63,0a74.88,74.88,0,0,0,23-9.45c5-3.1,11.8-7.46,13.88-13.29a13.91,13.91,0,0,1,7.33,1.79,16.59,16.59,0,0,0,.84,5.59l0,0h-9.14v7.08c-7.13,2.38-39.14,13.81-40.91,28-1.76,14,11.48,73.66,12,76.19l.48,2.18,2.23.06c.26,0,26.35.7,39.08.52,1.43,0,3,0,4.74,0,13.57,0,34.18-.55,34.41-.55l2.22-.06.49-2.18c.56-2.53,13.8-62.15,12-76.19-1.08-8.63-13.31-16.23-24.35-21.41a11.07,11.07,0,0,0,.42-2.15c.64-6-3.13-11.4-6.77-15.79a47.74,47.74,0,0,0-8-8.1c3.45-3.63,7.13-7.07,11.61-8.8a1.63,1.63,0,0,0,.51.89c10.76,10.06,26.75,13.15,41.07,11.49,5.63-.65,13.87-2.61,16.79-8.23C589.23,894.59,585.54,890.31,581.31,887.68Z"/>
  <circle class="cls-1" cx="2018.89" cy="456.4" r="96.93" transform="translate(268.6 1561.25) rotate(-45)"/>
  <circle class="cls-7" cx="2025.89" cy="456.4" r="96.93"/>
  <path class="cls-13" d="M2113.86,456.16a88,88,0,0,1-88,88c-1.47,0-2.94,0-4.4-.11a88,88,0,0,0,0-175.71c1.46-.07,2.93-.11,4.4-.11A88,88,0,0,1,2113.86,456.16Z"/>
  <path class="cls-1" d="M2105.05,456.16a83.67,83.67,0,1,1-83.56-87.85A88,88,0,0,1,2105.05,456.16Z"/>
  <path class="cls-7" d="M2031.18,388a5.29,5.29,0,1,1-5.29-5.29A5.28,5.28,0,0,1,2031.18,388Z"/>
  <circle class="cls-7" cx="2025.89" cy="456.4" r="8.81"/>
  <path class="cls-7" d="M1960.51,456.4a5.29,5.29,0,1,1-5.29-5.29A5.28,5.28,0,0,1,1960.51,456.4Z"/>
  <path class="cls-7" d="M2102.51,456.17a5.29,5.29,0,1,1-5.29-5.29A5.28,5.28,0,0,1,2102.51,456.17Z"/>
  <path class="cls-7" d="M2031.18,523.61a5.29,5.29,0,1,1-5.29-5.28A5.29,5.29,0,0,1,2031.18,523.61Z"/>
  <rect class="cls-7" x="2022.89" y="411.81" width="5.29" height="39.3"/>
  <rect class="cls-7" x="2002.45" y="391.06" width="2.64" height="74.92" transform="translate(170.64 1344.14) rotate(-38.61)"/>
  <path class="cls-2" d="M576.87,972.57H478.21c-1.39-9.39-2.21-17.43-1.7-21.42,1.71-13.71,40-26,40-26h22.1s38.27,12.28,40,26C579.07,955.14,578.26,963.18,576.87,972.57Z"/>
  <path class="cls-11" d="M576.87,972.57c-3.4,22.89-10.29,53.8-10.29,53.8s-26.15.71-39,.53c-12.89.18-39-.53-39-.53s-6.89-30.91-10.29-53.8Z"/>
  <path class="cls-19" d="M581.41,950.8c-1.89-15.08-37.85-27-41.95-28.36l-.42-.13H527.76l-4-6.61h-9.13v7.08c-7.13,2.38-39.14,13.81-40.92,28-1.75,14,11.48,73.66,12,76.19l.49,2.18,2.23.06c.26,0,26.35.7,39.07.52,1.43,0,3,0,4.74,0,13.58,0,34.18-.55,34.41-.55l2.23-.06.49-2.18C569.93,1024.46,583.16,964.84,581.41,950.8Zm-17.14,72.77c-6.6.17-26.21.62-36.77.47-10.5.15-30.1-.3-36.69-.47-4.78-21.73-12.73-62-11.47-72.06,1.07-8.58,23.45-18.88,37.6-23.49h21.2c14.15,4.61,36.53,14.91,37.6,23.49C577,961.61,569.05,1001.84,564.27,1023.57Z"/>
  <path class="cls-8" d="M607.39,886.68c-13.08-8.12-30.35-11.77-45.16-6.66-4,1.37-11,4-10,9.5a7.46,7.46,0,0,0,.65,2c-5.07,2.06-9.17,6-13.1,10.08a14.94,14.94,0,0,0-5.56-1.65,8.62,8.62,0,0,0-1.13,0c-1.42-3.9-3.35-7.66-4.73-11.61a9.58,9.58,0,0,0,3.94-3.09c8.87-11.2,11.93-30.29,10.82-44.19-.34-4.35-1.55-12.51-6-14.75a3.94,3.94,0,0,0-4.2.45,1.78,1.78,0,0,0-1.36.38c-12.49,9.81-16.35,26-15.65,41.24.29,6.12,1.36,13.92,6,18.43a6.8,6.8,0,0,0,3,1.77c1.3,3.83,3.19,7.48,4.64,11.24A42.63,42.63,0,0,0,524.6,895a42.15,42.15,0,0,0-6.08-4.16c-1.36-.77-3.17-1.36-4.77-2.11a7,7,0,0,0-.26-5.3c-2.45-5.6-8.44-10.23-13.24-13.72A95.29,95.29,0,0,0,480.53,859c-3.8-1.58-9-3.07-12.14.65a6.06,6.06,0,0,0-1,1.61,1.55,1.55,0,0,0-.6,1.31c.15,13.08,12.86,22.88,23.95,27.48,5.21,2.15,13,4.94,18.6,2.85a8.37,8.37,0,0,0,2.31-1.31c2.78,1.56,6,2.59,8.63,4.43a37.66,37.66,0,0,1,6.92,6.35,9.31,9.31,0,0,0-3.64,4.39,16.61,16.61,0,0,0-7.69-1.88c-.55-3-3.33-5.27-6.66-5.9-7-1.33-15.91,2-22.29,4.6a72.48,72.48,0,0,0-20.05,12.14c-3.19,2.73-7.18,6.35-6.73,10.5a4.47,4.47,0,0,0,.85,4.81c3.62,4.05,13.23,1,17.64,0a75.08,75.08,0,0,0,23-9.45c5-3.1,11.79-7.46,13.87-13.29a13.89,13.89,0,0,1,7.33,1.79c-.16,3.77,1.41,8,3.62,11.7-.22,14.42-2.49,28.7-3.41,43.09a288.45,288.45,0,0,0,1,47.93c.22,2.17,3.65,2.19,3.43,0a289.54,289.54,0,0,1-1-47.93c.83-12.85,2.73-25.62,3.29-38.48.47.55.94,1.06,1.41,1.55a184.53,184.53,0,0,0,6.72,86.71,1.72,1.72,0,0,0,3.36-.45l0-1.13a1.51,1.51,0,0,0-.73-1.4,180.92,180.92,0,0,1-6.34-81.18c7.42,5,21.94,8.6,23.21-3.31.64-6-3.13-11.4-6.77-15.79a48.11,48.11,0,0,0-8-8.1c3.45-3.63,7.12-7.07,11.61-8.8a1.52,1.52,0,0,0,.51.89c10.75,10.06,26.75,13.15,41.07,11.49,5.62-.65,13.86-2.61,16.79-8.23C615.31,893.59,611.62,889.31,607.39,886.68Z"/>
  <rect class="cls-7" x="167.57" y="1104.38" width="834.91" height="29.43"/>
  <path class="cls-6" d="M1026.13,877.55c-1.66-3.09-19.33-21.57-21-23.24s2-4,4.93-1,14.43,13.3,14.43,13.3c0-3.71-4.67-13.3-8.67-20.3s-20.67-25.66-20.67-25.66-8.33-1.34-14.33-.67-9-2.33-10.33-4.67,19.78-1.66,19.78-1.66-13.78-13-26.12-16-18-4.34-24.33-8.34-11-3.66-13,1.67,4.33,10.33,4.33,10.33c-13.86,13.1-18.63,41.22-20.09,54.21-1.16,1.23-2.3,2.47-3.42,3.7a22.71,22.71,0,0,0-9.08-5.59c-3.85-7.6-11-20.66-14.4-25.65-4.34-6.33-27.34-31.66-34-37.66s-17.34-5.41-17.34-5.41,12.67-17.26,14-24.93-3.33-8-14-5.33-6.66,4-10.66,13c-3.16,7.11-7.15,16.92-10,23.3-.75,1.68-1.42,3.13-2,4.21,0,0,0,0,0,0-2.67,5.22-16.67,13.12-27.67,20.78s-17.67,13.34-20,24.34,8,17.66,8,17.66,4.67-7,8.33-13,16.34-19.33,15.67-17-6,10-10.67,16-10.66,15.34-7.33,16.16,13.33,2.18,13.33,2.18l-1.34-5c-1.35-5,0-9.67,2.79-15.67s10.89-15,11.55-14-4.33,10.33-9.33,19.67,0,12.82,0,12.82,8.67-4.16,11-9.16c1.22-2.62,3.63-12.64,5.92-22.85,2.09-9.28,4.09-18.73,5-22.88,1.9-8.73,9.61-14.93,9.61-14.93s11.81-1.34,16.81-.67,17,15,30.34,29c9.39,9.86,17.58,25.5,21.6,33.9a30.4,30.4,0,0,0-20,4.8A50,50,0,0,0,853.61,885c-3.83-1.22-8.91-2.31-8.91-2.31s-.23-10.34-6.57-14-18,1.35-19.33,4-13,2.47-17.33,4.89-8,9.1-8,9.1S818.36,883,819.08,885s-1.28,4.67-5.28,5-22.67,2.67-22.67,2.67-3.69,9.33-2.68,17.66c0,0,22-9.33,25-9.33s-5.67,6.12-6.67,6.06-17,9.61-17,9.61,2,8.66,4.33,12c0,0,12.18-12,16.26-12s-7.59,9-7.59,9l-5,5.66L806.13,943s7.71-15.33,10.36-14.33-3.69,13.33-4,14.33a41.18,41.18,0,0,1-2.08,4s12,8.89,24.21,12.28c0,0,9.53-11.28,14.2-18a41.64,41.64,0,0,0-4.1-12.66c-3.23-6-8.23-14.34-3.23-12.67s10.72,12.67,10.72,12.67l3.22,4,3.69-6.8c.72,1.95,1.52,3.88,2.42,5.79a2,2,0,0,0,3.45,0c1.28-2.54,2.56-5.1,3.91-7.63l1.87,5.62c-1.48,1.67-2.92,3.36-4.25,5.11-5.24,6.86,3.88,13.69,11.29,17.83,2.64,9.72,6.1,23.48,6.23,29.44.23,9.69-1.55,24-1.55,24H852.19v97.26h80.28V1006H903.8s5.33-19,6.67-31.67c.2-1.95.43-5.66.65-10.54,7.52-1.28,15-4.65,19.46-8.41,1.66-1.41,2.47-2.49,2.37-4.75-.2-4.56-1.21-9-1.11-13.6,0-1.54-.23-7.84.82-8.78,2.27-2,4.45,1.69,5.44,3.07A76.53,76.53,0,0,1,945,943.38c.71,1.51,2.65,1.08,3.46,0,2.7-3.59,7-5.68,8.69-10a14.71,14.71,0,0,0-.49-10.87c-3.62-8.74-13.45-13.19-16.76-21.9,4.38,1,8.44,5.35,11.44,8.17a85.57,85.57,0,0,1,10.44,11.9,2,2,0,0,0,3.14.4c6.58-5.8,12.09-13.67,5.49-21.69a39.87,39.87,0,0,0-12.19-9.54,40.83,40.83,0,0,0-6.63-2.4A56.68,56.68,0,0,1,971,895.8a41.27,41.27,0,0,0,3.79,2.48c1.47-5.91,3.48-11.68,4.5-17.65l-.09-1.2a26.57,26.57,0,0,0-6.67-5.7,32.3,32.3,0,0,0-12.42-4.13c-4.57-.59-9.3-.11-13.64-1.58,4.94-3.8,11.29-4.28,17.55-3.5,4.84.6,9.2,2.07,13.83-.06a2,2,0,0,0,.92-2.26c-5-14.13-14.43-27.4-30.88-27.27-12.46.1-22.51,6.77-31.22,15,1.69-9.42,3.75-19.46,5.12-24.24,2.67-9.34,9.33-17.34,13.33-19.92s12,3.25,22.34,9.92,28.66,26.66,32.78,32.17A89.13,89.13,0,0,1,1000.8,868c1.67,5,11.33,26.67,12.78,34s3.72,7,3.72,7,.17-10.71-1.5-16.37S1007.47,876,1010,875s4.76,6.67,9.09,13.52,4.34,18.54,4.34,18.54a12.91,12.91,0,0,0,2.66-3.21C1027.13,902,1027.8,880.65,1026.13,877.55ZM908.84,926c0,1.61,0,3,0,4,0,4.48-.14,10.78-.4,17.45a32.15,32.15,0,0,1-5.87,5.09c.54-7,.83-14,.69-20.85.31-.39.6-.78.92-1.16A27.67,27.67,0,0,1,908.84,926Zm-48.43-25.75c-.32-1.86-.74-4.16-1.15-6.33A62.87,62.87,0,0,1,871,888.24c4.39-1.56,10.49-3.82,15.41-2.71A123.46,123.46,0,0,1,860.41,900.23Zm10.51,20.1a68.85,68.85,0,0,1,6.8-10,44.24,44.24,0,0,1,7.66-7.32,32.36,32.36,0,0,1,4.69-2.9c2.1-1.06,5.55-3.37,5.61.65,0,3.17-3.61,7.38-5.53,9.58a107.88,107.88,0,0,1-7.87,7.7c-3.13,2.94-6.31,6-9.32,9.15ZM887.8,1006s1-16.67,0-25.67c-.73-6.55-4.64-19.46-6.71-26,1,.49,1.87.91,2.6,1.24,5,2.31,6.51-1.07,8.78-5.26,2.12-3.91,4-8,6.24-11.84-.1,3.81-.29,9.89-.64,16.67a41.68,41.68,0,0,1-4.73,2c-1.28.46-2.13,2.3-.88,3.34a15.26,15.26,0,0,0,5.13,2.77c-.7,10.51-1.79,21.23-3.46,27.07-4,14-4.66,15.67-4.66,15.67Zm18.33-28.76c-1.66,10.24-7.33,28.76-7.33,28.76h-4.67a369.33,369.33,0,0,0,7.28-41.89,30.67,30.67,0,0,0,6.08.13C907.11,969.42,906.65,974,906.13,977.22Zm7.09-37.54a23.6,23.6,0,0,1-1.28,2.74c.19-5.63.37-11.59.54-17.59a3.21,3.21,0,0,1,2.13,2.29C916,930.76,914.57,936.23,913.22,939.68Z"/>
  <path class="cls-20" d="M918.74,858.86h-4.41s-10.92-25.67-24.25-39.67-25.34-28.33-30.34-29-16.81.67-16.81.67-7.71,6.2-9.61,14.93c-.9,4.15-2.9,13.6-5,22.88-.48-10-.4-23.13-.23-33,.56-1.08,1.23-2.53,2-4.21,2.85-6.38,6.84-16.19,10-23.3,4-9,0-10.33,10.66-13s15.34-2.33,14,5.33-14,24.93-14,24.93,10.67-.59,17.34,5.41,29.66,31.33,34,37.66S916.74,854.19,918.74,858.86Z"/>
  <path class="cls-8" d="M828.33,828.67c-2.29,10.21-4.7,20.23-5.92,22.85-2.33,5-11,9.16-11,9.16s-5-3.49,0-12.82,10-18.67,9.33-19.67-8.77,8-11.55,14-4.14,10.67-2.79,15.67l1.34,5s-10-1.35-13.33-2.18,2.67-10.16,7.33-16.16,10-13.66,10.67-16-12,11-15.67,17-8.33,13-8.33,13-10.33-6.66-8-17.66,9-16.67,20-24.34,25-15.56,27.67-20.78l0,0C827.93,805.54,827.85,818.71,828.33,828.67Z"/>
  <path class="cls-20" d="M928.41,862.86c0-1.67,2.67-44,20.67-61,0,0-6.34-5-4.34-10.33s6.67-5.67,13-1.67,12,5.34,24.34,8.34,26.11,16,26.11,16-21.11-.67-19.78,1.66,4.33,5.34,10.33,4.67,14.34.67,14.34.67,16.66,18.66,20.66,25.66,8.67,16.59,8.67,20.3c0,0-11.52-10.3-14.43-13.3s-6.61-.66-4.92,1,19.35,20.15,21,23.24,1,24.47,0,26.28a12.83,12.83,0,0,1-2.67,3.21s0-11.69-4.33-18.54-6.52-14.52-9.1-13.52,4.1,12,5.76,17.67,1.5,16.37,1.5,16.37-2.26.29-3.71-7-11.12-29-12.79-34a88.73,88.73,0,0,0-10.55-20.16c-4.11-5.51-22.45-25.51-32.78-32.17s-18.33-12.51-22.33-9.92-10.67,10.58-13.34,19.92-8,38.66-8,44.33-2,91.67-3.33,104.33-6.67,31.67-6.67,31.67h-5s5.67-18.52,7.34-28.76,2.66-35.24,2.66-47.24S928.41,862.86,928.41,862.86Z"/>
  <path class="cls-19" d="M912.08,1006.52c.33-1,10.33-43.33,9-77.33l-4.34,5.66s-.66,42-4.66,56-4.67,15.67-4.67,15.67Z"/>
  <path class="cls-19" d="M897.74,950.85s7,21,8,30,0,25.67,0,25.67h-5.33s1.78-14.28,1.56-24-9.23-40-9.23-40-7.66-23.67-9.33-27.67,3.67,0,3.67,0Z"/>
  <path class="cls-20" d="M862.64,883.19s-.23-10.34-6.56-14-18,1.35-19.34,4-13,2.46-17.33,4.89-8,9.1-8,9.1,24.9-3.67,25.61-1.67-1.28,4.67-5.28,5-22.66,2.67-22.66,2.67-3.7,9.33-2.68,17.66c0,0,22-9.33,25-9.33s-5.67,6.12-6.67,6.06-17,9.61-17,9.61,2,8.66,4.34,12c0,0,12.17-12,16.25-12s-7.59,9-7.59,9l-5,5.66,8.34,11.67s7.7-15.33,10.35-14.33-3.69,13.33-4,14.33a39,39,0,0,1-2.08,4s12,8.89,24.21,12.28c0,0,9.54-11.28,14.2-17.95a41.64,41.64,0,0,0-4.1-12.66c-3.23-6-8.23-14.34-3.23-12.67s10.72,12.67,10.72,12.67l3.22,4,5.06-9.34s.67-17.63.5-19.48-2.59-15.18-3.21-16.85S862.64,883.19,862.64,883.19Z"/>
  <path class="cls-8" d="M992.74,898.81c1.47-5.9,3.48-11.67,4.51-17.64,0-.4-.07-.8-.1-1.2a26.53,26.53,0,0,0-6.66-5.7,32.4,32.4,0,0,0-12.43-4.13c-4.57-.59-9.3-.12-13.64-1.58,4.94-3.81,11.29-4.28,17.55-3.5,4.84.6,9.2,2.06,13.83-.06a2,2,0,0,0,.92-2.26c-5-14.13-14.43-27.4-30.88-27.27-17,.14-29.54,12.51-40.28,24.28-9-9.08-23.54-8.62-33.91-1.86-12,7.83-21.48,23-21.52,37.47a2,2,0,0,0,3,1.72,67,67,0,0,1,15.8-8.3c4.39-1.56,10.5-3.82,15.41-2.71a123.08,123.08,0,0,1-30.28,16.39,2.06,2.06,0,0,0-1.47,1.93,71.46,71.46,0,0,0,6.86,27.79,2,2,0,0,0,3.45,0c3.71-7.36,7.43-14.91,12.75-21.26a44.24,44.24,0,0,1,7.66-7.32,32.46,32.46,0,0,1,4.7-2.9c2.09-1.06,5.54-3.37,5.6.65,0,3.17-3.61,7.38-5.53,9.58-2.42,2.76-5.19,5.2-7.86,7.7-5.53,5.17-11.19,10.63-15.79,16.65-6.86,9,10.9,17.91,17.19,20.81,5,2.31,6.52-1.07,8.78-5.26,3.65-6.73,6.65-13.91,11.67-19.78,2.4-2.8,8.28-9.22,10.48-3.39,1.37,3.64,0,9.11-1.39,12.56-3.4,8.68-11.37,14.4-19.88,17.45-1.29.46-2.14,2.3-.89,3.34,9.57,8,29.5,2.17,38.12-5.11,1.66-1.41,2.47-2.49,2.37-4.75-.2-4.56-1.21-9-1.1-13.6,0-1.54-.24-7.84.81-8.78,2.27-2,4.45,1.68,5.44,3.07A76.92,76.92,0,0,1,963,943.92c.7,1.51,2.64,1.08,3.45,0,2.7-3.59,7-5.69,8.69-10a14.66,14.66,0,0,0-.49-10.87c-3.61-8.74-13.45-13.19-16.75-21.9,4.37,1,8.44,5.35,11.43,8.17a85.57,85.57,0,0,1,10.44,11.9,2,2,0,0,0,3.15.4c6.58-5.8,12.08-13.67,5.48-21.69a39.75,39.75,0,0,0-12.19-9.54,40.15,40.15,0,0,0-6.63-2.4,56.6,56.6,0,0,1,19.4,8.38A39.22,39.22,0,0,0,992.74,898.81Z"/>
  <rect class="cls-12" x="870.13" y="1006.52" width="80.28" height="97.26"/>
  <rect class="cls-15" x="870.13" y="1006.52" width="21.7" height="97.26"/>
  <rect class="cls-7" x="412.25" y="1076.34" width="224.25" height="17"/>
  <path class="cls-13" d="M630,1103.34H406.62v-10H629.46c1.51-.24,5.79-1.5,5.79-8s-4.45-8.53-6.08-9H406.62v-10H630.25l.46.09c5,1,14.54,6.15,14.54,18.91,0,13.09-9.81,17.48-15,18Z"/>
  <rect class="cls-7" x="433.75" y="1040.16" width="224.25" height="17"/>
  <path class="cls-11" d="M651.51,1067.16H428.12v-10H651c1.51-.24,5.8-1.5,5.8-8s-4.46-8.53-6.09-9H428.12v-10H651.74l.47.09c5,1,14.54,6.15,14.54,18.91,0,13.09-9.82,17.48-15,18Z"/>
  <g>
    <path class="cls-21" d="M2541.77,1361.71l27,37,11.48,2.21,6.06-2.21a18.68,18.68,0,0,0,4.36-5.62,36.18,36.18,0,0,1-12.7,3.12l-13.36-18.37s-1.34-10.13-3.34-18.57-1-15.56,2.5-25.06,11.5-18.5,11.5-18.5a19.71,19.71,0,0,1,10.61-7.11c-12-6.3-27.68,18.23-33.61,28.11S2541.77,1361.71,2541.77,1361.71Z"/>
    <path class="cls-20" d="M2561.27,1359.27c2,8.44,3.34,18.57,3.34,18.57l13.36,18.37a36.18,36.18,0,0,0,12.7-3.12c3.08-5.86,4.24-13.75,4.6-21.38.5-10.5,6.22-12.5,5.35-30.5s-2.28-25.23-14.31-32.37a4.63,4.63,0,0,0-.43-.24,19.71,19.71,0,0,0-10.61,7.11s-8,9-11.5,18.5S2559.27,1350.83,2561.27,1359.27Z"/>
    <path class="cls-21" d="M2492,1363l-27,37-11.48,2.21-6.06-2.21a18.68,18.68,0,0,1-4.36-5.62,36.18,36.18,0,0,0,12.7,3.12l13.36-18.37s1.34-10.13,3.34-18.57,1-15.56-2.5-25.06-11.5-18.5-11.5-18.5a19.71,19.71,0,0,0-10.61-7.11c12-6.3,27.68,18.23,33.61,28.11S2492,1363,2492,1363Z"/>
    <path class="cls-20" d="M2472.5,1360.54c-2,8.44-3.34,18.57-3.34,18.57l-13.36,18.37a36.18,36.18,0,0,1-12.7-3.12c-3.08-5.86-4.24-13.75-4.6-21.38-.5-10.5-6.22-12.5-5.36-30.5s2.29-25.23,14.32-32.37a4.63,4.63,0,0,1,.43-.24,19.71,19.71,0,0,1,10.61,7.11s8,9,11.5,18.5S2474.5,1352.1,2472.5,1360.54Z"/>
    <path class="cls-21" d="M2445.65,1448.76h0c0,1.45,8.4,16.24,11.87,21.69s6.5,22,12,29.5,20,9.25,26.5,9.5,13.75-2.5,20.37-3.25,13.63-1.25,21.38.75,17.5-.75,23.75-4.19,10.28-14,15-19.56,7.54-25.93,7.29-26.78a4.45,4.45,0,0,1-1.25-1.72c-1.29-4-2.08-23-2.08-23l-122.21-21.5s-3.61,3.49-3.62,3.51c-.27.76-8.88,25.24-8.88,33.79A6.54,6.54,0,0,1,2445.65,1448.76Z"/>
    <path class="cls-22" d="M2570.77,1475.71s2.9-12.39,7.2-28.2c3.3-12.15,6.08-28.85,3.68-41.37a28.07,28.07,0,0,0-3.68-9.93c-7.7-12-21.2-31.5-36.2-34.5s-44-3.5-54,0-28,27-31,36.5-3.5,42.11,0,49.3,17,29.7,17,29.7Z"/>
    <path class="cls-20" d="M2525.77,1428.21s21-1.5,29.5,17,13,24.5,15.5,30.5,2.5,17.5-4.5,21-15,7.5-22,0a43.67,43.67,0,0,1-22,4.25c-13-.75-16.5-3.25-16.5-3.25s-11.5,8.66-20,3.33-18.5-12.83-12-23.83,13-21.5,16.5-28S2502.27,1426.71,2525.77,1428.21Z"/>
    <path class="cls-22" d="M2535.25,1479.46s-6.31-14.22-9.86-14-9.47,14-9.47,14S2523,1470,2535.25,1479.46Z"/>
    <path class="cls-22" d="M2538.51,1449.33s-4-9.19-13-9.19-12.58,9.19-12.58,9.19-1.6,2.39,2.8,4.39a96.79,96.79,0,0,0,9.84,3.68S2535.71,1454.12,2538.51,1449.33Z"/>
    <path class="cls-22" d="M2449,1531.94c4.25,4.23,17.75,7.77,26.75,7.77s24.5-3.5,33.74-4.5,21,6.25,32.26,6.5,26.25-.75,30.52-2.75,11.48-10.5,15.23-14,6.5-7,14.25-11.5,16-1.25,16-1.25a28.77,28.77,0,0,0-8.5,0c-3.75.75-9.75,5-5.75,4.5s9.5,3,9.5,3-9-1-13.25,0c-3.59.85-7.9,4-11.53,7.84-.24.76-7.94,25.09-10.27,32.32s-10,25-11,30.34-.67,17.77,1.33,22.72,4.75,4.93,4.79,4.93,10.51,4.5,15.19,3.93,10.05-4.43,10.05-4.43l-1.24,8.58a25.18,25.18,0,0,0,6.21-6c4.5-6.73-1.5-29.23,0-38.23s11.5-23,16.5-31.5,7-24.5,4.5-37-8-28.77-16.5-38.88c-7.35-8.75-19.87-14-24-17.9.25.85-2.63,21.32-7.29,26.78s-8.75,16.13-15,19.56-16,6.19-23.75,4.19-14.75-1.5-21.38-.75-13.87,3.5-20.37,3.25-21-2-26.5-9.5-8.5-24-12-29.5-11.84-20.24-11.87-21.69c-1,5.64-8.66,10.56-14.81,16.67,0,0-7.57,22.44-8.57,30.77-.66,5.44-2,12.45-2.79,20.56a18.65,18.65,0,0,1,4.79-1.06c5.75-.5,9.25,2,7.5,0s-10-6.25-10-6.25a31.82,31.82,0,0,1,12.75,4.5C2441,1518,2444.77,1527.71,2449,1531.94Z"/>
    <path class="cls-22" d="M2409.6,1611.42c6.2,1.69,18.05-2.22,18.05-2.22l1.73,8c5.09-2.1,9.19-5.4,10.39-10a129.16,129.16,0,0,0,3.33-19s-.16-8,0-15.5a13.61,13.61,0,0,1,.6-3.45.18.18,0,0,1,0,0c.17-1,2.79-15.61,2.06-18.75s.25-10.25,0-14.25-7-12.5-13.5-16c-3.87-2.08-9.24-2-13-1.67-.33,3.79-.54,7.81-.5,12,.13,14-1.6,44.16-5.23,49.58s-10,21.08-10.31,22.09S2403.41,1609.73,2409.6,1611.42Z"/>
    <path class="cls-20" d="M2415,1519.21s10.75-2.5,17.25,1,13.25,12,13.5,16-.75,11,0,14.25-1.89,17.8-2.06,18.75c2.18-7.67,9.58-18,9.58-18l8-8.5s36.79,1.5,48.15-3c0,0,52.89,11.5,62.87,3.5s5.68,2.5,5.68,2.5-.3,1-.85,2.65l.85-.15s4.37-13.75,8.34-18.5,9.21-9,13.46-10,13.25,0,13.25,0-5.5-3.5-9.5-3,2-3.75,5.75-4.5a28.77,28.77,0,0,1,8.5,0s-8.25-3.25-16,1.25-10.5,8-14.25,11.5-11,12-15.23,14-19.27,3-30.52,2.75-23-7.5-32.26-6.5-24.74,4.5-33.74,4.5-22.5-3.54-26.75-7.77-8-14-14.5-18a31.82,31.82,0,0,0-12.75-4.5s8.25,4.25,10,6.25-1.75-.5-7.5,0A17.53,17.53,0,0,0,2415,1519.21Z"/>
    <path class="cls-20" d="M2557.77,1615.21s3.54,12.5,14.52,16.5c7.83,2.85,18-.93,24.77-5.77l1.24-8.58s-5.36,3.85-10.05,4.43-15.19-3.93-15.19-3.93-2.81,0-4.79-4.93-2.33-17.39-1.33-22.72,8.66-23,11-30.34,11.77-34.2,12-35c-.41.42-2.24,1.94-2.62,2.37,0,0-1.74,1.23-1.75,1.25-1.25,1.56-2.13,4.1-3.38,6.38,0,0-4.26,13.3-4.26,13.3l-.85.15c-.93,2.87-2.61,7.86-4.83,13.85-3.52,9.5-8.56,13-12,27A89.19,89.19,0,0,0,2557.77,1615.21Z"/>
    <g>
      <path class="cls-20" d="M2570.87,1627.4a2.5,2.5,0,0,1,3.89-.85c1.23,1.18.73,3.81.73,5.32a1.39,1.39,0,0,1-.27.87v.78a1.51,1.51,0,0,1-.75,1.3C2571,1636.77,2569.85,1629.41,2570.87,1627.4Z"/>
      <path class="cls-20" d="M2581.14,1630.42c.19-1.38.76-3.45,2.15-4.08s2.76.71,2.95,2.11a16,16,0,0,1-.89,6,1.38,1.38,0,0,1-1.08,1,1.36,1.36,0,0,1-2.29-.26A8.32,8.32,0,0,1,2581.14,1630.42Z"/>
      <path class="cls-20" d="M2560.87,1618.65a2.5,2.5,0,0,1,3.89-.85c1.23,1.18.73,3.81.73,5.32a1.39,1.39,0,0,1-.27.87v.78a1.51,1.51,0,0,1-.75,1.3C2561,1628,2559.85,1620.66,2560.87,1618.65Z"/>
      <path class="cls-20" d="M2596.14,1621.44c.19-1.38.76-3.45,2.15-4.08s2.76.71,2.95,2.1a16,16,0,0,1-.89,6,1.38,1.38,0,0,1-1.08,1,1.36,1.36,0,0,1-2.29-.26A8.32,8.32,0,0,1,2596.14,1621.44Z"/>
    </g>
    <path class="cls-20" d="M2393.77,1605.21c1,4,7.5,14,18,14.73a40.75,40.75,0,0,0,17.61-2.76l-1.73-8s-11.85,3.91-18.05,2.22-6.66-8.21-6.33-9.21,6.67-16.67,10.31-22.09,5.36-35.58,5.23-49.58c0-4.19.17-8.21.5-12a38,38,0,0,0-4.29.67,15.81,15.81,0,0,1,4.46-2.44c.81-8.11,2.13-15.12,2.79-20.56,1-8.33,8.57-30.77,8.57-30.77a29.56,29.56,0,0,0-6.57,8.89c-5,11.38-12,43.88-11.5,45.38s-1.05,29,0,36-1.47,17-7.47,26S2392.77,1601.21,2393.77,1605.21Z"/>
    <g>
      <path class="cls-20" d="M2402.37,1614a2.5,2.5,0,0,1,3.89-.85c1.23,1.19.73,3.82.73,5.33a1.38,1.38,0,0,1-.27.86v.79a1.5,1.5,0,0,1-.75,1.29C2402.49,1623.41,2401.35,1616.06,2402.37,1614Z"/>
      <path class="cls-20" d="M2413.64,1617.19c.19-1.38.76-3.45,2.15-4.08s2.76.71,2.95,2.1a16,16,0,0,1-.89,6,1.38,1.38,0,0,1-1.08,1,1.36,1.36,0,0,1-2.29-.26A8.32,8.32,0,0,1,2413.64,1617.19Z"/>
      <path class="cls-20" d="M2394,1603.68a2.5,2.5,0,0,1,3.89-.85c1.23,1.18.73,3.81.73,5.32a1.41,1.41,0,0,1-.27.87v.78a1.52,1.52,0,0,1-.75,1.3C2394.14,1613.05,2393,1605.69,2394,1603.68Z"/>
      <path class="cls-20" d="M2427.64,1609.21c.19-1.38.76-3.45,2.15-4.08s2.76.71,2.95,2.1a16,16,0,0,1-.89,6,2.27,2.27,0,0,1-3.37.77A8.32,8.32,0,0,1,2427.64,1609.21Z"/>
    </g>
  </g>
  <g>
    <g>
      <path class="cls-20" d="M3145.94,998a27.26,27.26,0,0,0-6.74,18.3c0,11.56,4.81,69.35,0,101.13s-27.93,103.22-27.93,103.22V1329.3s31.78-62.41,34.67-99.11S3145.94,998,3145.94,998Z"/>
      <path class="cls-20" d="M3247.74,1053.6s-30.59,39.49-45,66.45-49.14,133.88-49.14,133.88l-25.35,96.23h10s38.52-114.53,45.26-144.38S3252.31,1064.19,3247.74,1053.6Z"/>
      <path class="cls-20" d="M3043.05,1035.69a27.29,27.29,0,0,0-6.74-18.3s-2.89,195.53,0,232.22,34.68,99.11,34.68,99.11V1240.05s-23.12-71.44-27.94-103.22S3043.05,1047.25,3043.05,1035.69Z"/>
      <path class="cls-20" d="M2980.1,1120.66c-14.45-27-45-66.46-45-66.46-4.58,10.6,57.55,122.32,64.29,152.18s45.27,144.39,45.27,144.39h9.95l-25.35-96.23S2994.54,1147.63,2980.1,1120.66Z"/>
    </g>
    <path class="cls-8" d="M3189.76,1074.79s-19.8,91.48-32.32,121.39-28.12,86.21-28.12,86.21l-14.94,33.53c7.14-61,3-167.09-29-223.29-11.1-19.5-23.16-38-40.52-51.77a2.41,2.41,0,0,0-3.41,3.41,340.27,340.27,0,0,1,36,56.38c10.4,20.64,16.09,42.09,16.31,65.26.07,7.22-.26,14.41-.85,21.58-.2-.79-20.51-80.94-39.52-94.86-2.12-1.56,4,39.36,10.76,59.88s4.82,59.24,4.82,73.59-5,39.43-5,39.43l-5.76,28.22-4.79-10.75s-15.59-56.29-28.12-86.21-32.32-121.4-32.32-121.4c-14,8.67,19.8,114.62,27.51,145.41s34,130,34,130h23.56l-.06-.28,23.7.56a2.45,2.45,0,0,0,3.3.75,2.38,2.38,0,0,0,2.65-1.64h20.49s26.33-99.17,34-130S3203.79,1083.45,3189.76,1074.79Z"/>
    <rect class="cls-12" x="3018.29" y="1333.61" width="150.25" height="161.17"/>
    <rect class="cls-15" x="3135.47" y="1333.61" width="33.07" height="161.17"/>
  </g>
  <polygon class="cls-23" points="2850.9 1956.67 482.03 1956.67 605.03 1861.91 2723.34 1861.91 2850.9 1956.67"/>
  <path class="cls-24" d="M1224.14,1879.92s-17.64,3.88-41.89,9.07-60,13.42-60,20.3,17.15,23.38,115.82,27.5,465.12-8.25,488.36-8.25,216.28,1.38,312.81,2.75,300.3,2.75,350.35-1.37,92.95-24.75,59-30.25a1989.94,1989.94,0,0,0-326.42-27.29C1955.23,1872.18,1224.14,1879.92,1224.14,1879.92Z"/>
  <g>
    <polygon class="cls-25" points="1824.1 973.31 1821.51 1002.89 1787.53 988.1 1787.53 903.9 1833.45 895.67 1872.52 907.16 1824.1 973.31"/>
    <g>
      <path class="cls-26" d="M1731,883.62c11.34,14.48,26.37,22.34,40.86,30.81,10.54,6.17,25-.26,32.06-4.2l.08-.06c2.58-1.44,4.16-2.54,4.16-2.54,7.13,7.44,30.72,7.23,39.59,4.37a20.76,20.76,0,0,0,5.73-2.94c6-4.34,10-11.82,7.53-19.1a8,8,0,0,0-1.85-3c18.53-9,35.9-19.85,39.82-30.12,9.08-23.84-32.42-65.68-32.42-65.68s-17.35-7.72-36.79-1.33-31.14,15.23-31.14,15.23-.86,5.29-7.24,5.67-19.82,0-27.46-1.29-5,14.27-5,14.27,1.7,9.23-2.32,10-6.67-4.26-10.62-2.28-2.47,7.72-2.47,7.72l-5.22.31c-4.64.27-2.6,5.39-3.55,8.94s-8.67,1.09-12.06,3S1719.66,869.14,1731,883.62Z"/>
      <path class="cls-20" d="M1867.69,800.42s.38,16.29-1.47,24.55-9.86,10.71-14.42,22.23-17.68,16.37-19.12,21.7,4.2,12,4.2,12,22.41,4.51,23.47,12.6-8.49,14.19-17.13,25.77-13.49,11.16-17.16,27.67c-2.67,12-2,26.38-2,26.38s41.33-4.64,57.08-10.4c17.12-6.25,56.27-27.12,61.23-88.26,2.43-29.94-8.75-62.47-47.81-82.23,0,0-15.54-6.66-28-1.26Z"/>
      <path class="cls-20" d="M1993.77,884s13.3,9.44,13.63,26.66-15,41.59-42.07,40.58-55.92-17.71-58.78-22.43,1.78-36.79,7.58-50.63,17.23-15.06,17.23-15.06Z"/>
    </g>
    <path class="cls-25" d="M1686.35,500.22s-5.17-15.75-3.74-23.29,25.66-21.93,38.22-22.62a63.07,63.07,0,0,1,23.89,3.86s16.77,24.93,23.62,29.72,0,25.08,0,25.08l-6.17,11.93Z"/>
    <path class="cls-26" d="M1677.53,1233c-2.57,13.88-2.57,49.86-2.57,51.92,0,1.39,3.39,18.85,5.57,30,.26,1.4.52,2.7.75,3.85a165.74,165.74,0,0,1-17.62,3.72c-35.47,5.14-45.75,4.63-45.75,4.63s-7.71-43.7-9.77-51.92-14.39-36-17.47-58.6,3.6-58.42,3.6-58.42l56.54,4.45,51.09,21.69-12.22.5S1680.1,1219.15,1677.53,1233Z"/>
    <path class="cls-27" d="M1802.79,980.09l-92.69,120.28-20.42,84.43h0c-52-16.73-95.41-26.65-95.41-26.65,2.74-11.66,9.59-33.58,9.59-33.58l-4.12-9.59c-17-72.65,9.17-81.65,37.19-93.47s71.25-44.34,71.25-44.34S1771.17,970.05,1802.79,980.09Z"/>
    <path class="cls-26" d="M1784.79,512.57s-17.13,24.67-30.84,33.57c0,0-2,.94-4,4.85-2.25,4.31-4.55,12.29-4.19,26.68a753.64,753.64,0,0,0,6.73,79.68c-.9-5.24-12.26-72.54-13.57-82.42-1.38-10.28-2.06-25.35,2.73-32.21s11-32.21,11.71-41.81-12.39-9.59-22.67-9.59-28.16,6.86-28.16,6.86-2.68,17.81,0,34.26,5.55,15.76,4.17,26,5.49,27.42,5.49,27.42,2,137.06,8.68,156.94,7.08,43.86,7.08,59.63,15.08,147.34,11,183.66c-3.22,28.43-21.13,89.17-28.78,114.24-30.39-13.21-30.11-46.64-24.68-71.06,6.85-30.84,31.52-65.79,31.52-65.79s8.47-2.74,3.89-42.49-11.43-104.17-10.74-123.36-9.6-40.43-11.66-64.43-2.73-118.56.69-163.79c0,0-6.17-21.93-10.28-35s-2-45.24-2-45.24,13-13,53.45-13l13.08-52.77a6.89,6.89,0,0,1,6.79-3.42s6.86.68,4.12,17.81-6.85,41.12-6.85,41.12.65,36.32,3.74,38.38,12.71-11,12.71-11S1781.36,503.66,1784.79,512.57Z"/>
    <path class="cls-28" d="M1761.17,1244.85c-4.26,16.45,0,44.72,0,44.72h0c-1.36.62-45.21,20.13-79.86,29.17-.23-1.15-.49-2.45-.75-3.85-2.18-11.1-5.57-28.56-5.57-30,0-2.06,0-38,2.57-51.92s12.15-48.23,12.15-48.23l12.22-.5,69.18,29.37S1765.43,1228.41,1761.17,1244.85Z"/>
    <path class="cls-29" d="M1830,1073.18c-4.11,23.3-55.51,140.49-55.51,140.49h-6.85c-25.35-11-52.69-20.73-78-28.86h0l20.42-84.43,92.69-120.28c6.25,2,11.26,4.64,14.34,8.14C1835.76,1009.5,1834.13,1049.87,1830,1073.18Z"/>
    <path class="cls-26" d="M1810.55,1003.27c1.1-21.25-2.19-64.67-2.19-64.67.81,3.07,1.54,6.14,2.19,9.16,8.51,39.75,6.46,46.6,6.46,46.6s6.48,6.85,7,23.3c.3,9.66-7.35,38.67-26.07,60.84C1809.47,1035.06,1809.58,1022.13,1810.55,1003.27Z"/>
    <path class="cls-28" d="M1810.55,1003.27c-1,18.86-1.08,31.79-12.6,75.23-13.17,15.63-31.82,27.86-57,27.57-12.7-.14-22.83-2.22-30.83-5.7,7.65-25.07,25.56-85.81,28.78-114.24,4.11-36.32-11-167.9-11-183.66s-.44-39.75-7.08-59.63-8.68-156.94-8.68-156.94-6.86-17.14-5.49-27.42-1.48-9.59-4.17-26,0-34.26,0-34.26,17.88-6.86,28.16-6.86,23.41,0,22.67,9.59-6.91,34.95-11.71,41.81-4.11,21.93-2.73,32.21c1.31,9.88,12.67,77.18,13.57,82.42,0,.21,0,.32,0,.32a275,275,0,0,0,5.56,29c7.54,28.79,9.6,51.4,3.43,94.58,0,0-.69,26.73,8.23,54.14,8.22,25.32,28.84,65.86,38.64,103.23h0S1811.65,982,1810.55,1003.27Z"/>
    <path class="cls-25" d="M1707.35,747.64s-1.37,5.14,0,8.22c0,0,7.6-2.82,11.65-4.11s11.31,3.08,13,5.83,4.11,7.19,8.22,6.16,2.06-25,0-30.15S1707.35,747.64,1707.35,747.64Z"/>
    <path class="cls-30" d="M1596,1151.36s69.71,17.11,113.4,32.94,67.06,24.9,67.06,24.9l3.2-7.37s-79-28.94-119.6-40.76-62.48-15.42-62.48-15.42Z"/>
    <g>
      <path class="cls-26" d="M1350.39,1764.78c-1.5,4.69-5.44,17.27-6.27,22.53-1,6.5-12,29.46-16.45,36.66s-15.08,3.08-17.83,5.49-2.39,14-5.48,20.56-31.86,26-47.28,31.18-36.32,14.39-48.66,17.47c-13.7,2.06-20.91,2.06-24,.34s-5.48-7.87-7.88-7.87-.69,3.76-3.77,8-8.91,4.28-17.48,3.59-10.47-7.19-10.47-7.19h0a32.46,32.46,0,0,0-.15-5.14s19.88-5.83,25.36-5.48,12.69-2.75,17.83-6.17,46.6-22.62,54.82-26,15.76-5.14,22.62-11.65,19.19-22.27,24-31.18,15.08-48,15.08-48l33.24-8.57Z"/>
      <path class="cls-28" d="M1364.5,1777.37s-4.93,15.06-8.37,28.1v0c-.31.8-10.31,26.43-11,30.78s-1,25.39-1,30.53,8.49,23.64,4.46,29-10.29,7-21.6,7.36-20.56-3.08-28.44-7.37-21.24-7-33.24-7.36-43.18,8.23-56.88,10.28c12.34-3.08,33.24-12.33,48.66-17.47s44.2-24.68,47.28-31.18,2.75-18.17,5.48-20.56,13.37,1.7,17.83-5.49,15.42-30.16,16.45-36.66c.83-5.26,4.77-17.84,6.27-22.53Z"/>
      <path class="cls-31" d="M1356.12,1805.49c-.31.8-10.31,26.43-11,30.78s-1,25.39-1,30.53,8.49,23.64,4.46,29-10.29,7-21.6,7.36-20.56-3.08-28.44-7.37-21.24-7-33.24-7.36-43.18,8.23-56.88,10.28-20.91,2.06-24,.34-5.48-7.87-7.88-7.87-.69,3.76-3.77,8-8.91,4.28-17.48,3.59-10.47-7.19-10.47-7.19h0c0,1.35,0,3-.14,5.13-.35,8.56,19.87,8.91,27.41,7.1s11.31-2.3,11.31-2.3,12,1.37,23.64,2.22a58.25,58.25,0,0,0,8.55-.21c13.36-1.1,32.62-5.17,39.77-6.81,8.91-2.06,27.08.34,35.3,3.77s20.9,2.74,32.21,3.08,23.3,1,28.09-8.22-2.39-30.5-2.38-36.33,3.07-31.52,4.44-43.18A116.75,116.75,0,0,1,1356.12,1805.49Z"/>
    </g>
    <path class="cls-32" d="M1644.12,1484.9c5.14,18,5.14,29.81,0,34.43s-44.2,8.23-79.15,7.2-134.67-3.08-146.5-4.11-25.7,3.08-28.78,4.11-1.54,62.71-6.17,95.61-26.21,121.3-26.21,121.3l-8.73,26.93c-19.76-6.31-44.22-8.42-44.22-8.42s6.17-28.79,7.71-57.06,9.26-76.07,12.86-106.4,2-50.37,6.16-89.44,41.12-47.8,41.12-47.8,99.21-33.41,155.75-41.12c43.71-6,82.27-14.51,97.52-18.08C1625.68,1403,1639,1467,1644.12,1484.9Z"/>
    <path class="cls-13" d="M2323.64,1783.53c-6.1,9.17-20.73,23.94-30,32.91l-4.5-2.82c-4.21-2.61-11.24-7-20.54-12.61-15.76-9.59-132.27-90.46-154.2-95.94L2054.13,1690c-24.48-6.11-109.51-42.6-110.83-43.16h0c-27.76-18-81.73-54.49-118.74-74s-69.9-46.26-69.9-46.26-29.3-32.38-39.58-49.86-33.78-157.92-33.78-157.92c34.65-9,78.5-28.55,79.86-29.17h0l2.72,2.06c3.82,11.66,23.64,31.35,23.64,31.35s6.68,2.57,42.15,18,44.21,48.83,49.86,70.42,25.7,43.69,25.7,43.69l110,105.89s69.9,71.45,113.08,80.7,83.78,34.44,107.43,52.94S2323.64,1783.53,2323.64,1783.53Z"/>
    <path class="cls-32" d="M1754.64,1526.53s-46.27-10.79-77.62-45.23c-23.17-25.45-36.79-56-44.61-80.93-2.76-8.82-4.8-16.95-6.28-23.93-5.65-26.73-8.22-44.2-8.22-44.2v-5.14s10.28.51,45.75-4.63a165.74,165.74,0,0,0,17.62-3.72s20.6,123.09,31.65,153.14a31.32,31.32,0,0,0,2.13,4.78C1725.34,1494.15,1754.64,1526.53,1754.64,1526.53Z"/>
    <path class="cls-33" d="M2293.68,1816.44c-4.75,4.62-8.07,7.7-8.07,7.7-6.69-4.63-84.3-45.23-116.17-72.47S2087.2,1709,2087.2,1709s-21.59-2.57-25.7-4.62a162.47,162.47,0,0,0-24.67-9.77c-9.26-2.57-65.72-29.77-93.49-47.77,2.61,1.11,86.51,37.08,110.79,43.14l60.31,15.09c21.93,5.48,138.44,86.35,154.2,95.94,9.3,5.65,16.33,10,20.54,12.61l.1.07c.21.14.43.26.63.4l.3.18c.3.19.58.36.83.53l.08,0,.77.48.09.06.39.25c.57.34,1,.58,1.14.71l.09.06Z"/>
    <path class="cls-26" d="M2420.25,1882.66c-6.94-4.21-16.14-4.29-24.13-.44-13.88,6.69-12.34,9.26-28.79,12.34s-24.16,7.2-26.21,10.79-17.48,9.77-17.48,9.77a44.08,44.08,0,0,1-11.48,3.77c-6.17,1-30.84,1-36.32,0l.34-1.37s-1-6.51,2.05-8.91,11.66-8.91,11.66-8.91-10.27,3.42-13.88,4.45-15.93,0-16.28,1.72c-.3,1.5-1.38,9,2.95,13.88l-.54-.09c-4.47-.77-6.52-12.42-5.14-16.54,0,0,11.64-.68,16.78-1s32.21-15.08,39.07-19.54a68.42,68.42,0,0,0,5.66-4.08l0,0c15.45-9.82,32.34-25.36,24.81-30.85s-49.67-31.17-49.67-31.17c9.23-9,23.86-23.74,30-32.91,0,0,19.36,23,29,31.18s29.46,20.91,31.87,24.68,4.79,14,10.62,19.88C2400.6,1864.77,2416.5,1875.16,2420.25,1882.66Z"/>
    <path class="cls-28" d="M2289.89,1899.7s-8.57,6.51-11.66,8.91-2.05,8.91-2.05,8.91l-.34,1.37s-8.54,1.43-13.16.86c-4.33-4.84-3.25-12.38-2.95-13.88.35-1.72,12.69-.69,16.28-1.72S2289.89,1899.7,2289.89,1899.7Z"/>
    <path class="cls-31" d="M2402.62,1910.32c-13.7,2.4-16.78-2.4-38,1.72a190.45,190.45,0,0,1-41,3.08s15.42-6.17,17.48-9.77,9.76-7.71,26.21-10.79,14.91-5.65,28.79-12.34c8-3.85,17.19-3.77,24.13.44a8,8,0,0,1,.54,1.28C2423.18,1891.48,2416.34,1907.92,2402.62,1910.32Z"/>
    <path class="cls-28" d="M2318.54,1878.46c5.27-4.24,9.87-9.52,8.36-14-2.06-6.17-14.05-19.88-24.33-27.42s-17-12.85-17-12.85,3.32-3.08,8.07-7.7c0,0,42.12,25.69,49.67,31.17S2334,1868.64,2318.54,1878.46Z"/>
    <path class="cls-20" d="M1754.64,1526.53c-43.7,22.62-128,32.38-172.71,31.35s-142.9-8.73-155.75-7.71-11.82,10.28-11.82,10.28,4.11,19,4.11,49.86a186.83,186.83,0,0,1-18,78.65c-9.25,19-36,88.41-36,88.41a69,69,0,0,0-15.92-7l8.73-26.93s21.59-88.41,26.21-121.3,3.09-94.58,6.17-95.61,17-5.14,28.78-4.11,111.54,3.08,146.5,4.11,74-2.57,79.15-7.2,5.14-16.44,0-34.43-18.44-81.88-18.64-82.85c4.47-1.06,6.93-1.68,6.93-1.68,7.82,25,21.44,55.48,44.61,80.93C1708.37,1515.74,1754.64,1526.53,1754.64,1526.53Z"/>
  </g>
</svg>
