<svg xmlns="http://www.w3.org/2000/svg" xmlns:xlink="http://www.w3.org/1999/xlink" width="3102" height="3102" viewBox="0 0 3102 3102">
  <defs>
    <style>
      .cls-1 {
        mask: url(#mask);
        filter: url(#luminosity-noclip-6);
      }

      .cls-10, .cls-2, .cls-4, .cls-6, .cls-8 {
        mix-blend-mode: multiply;
      }

      .cls-2 {
        fill: url(#_6);
      }

      .cls-3 {
        mask: url(#mask-2);
        filter: url(#luminosity-noclip-7);
      }

      .cls-4 {
        fill: url(#_5);
      }

      .cls-5 {
        mask: url(#mask-3);
        filter: url(#luminosity-noclip-8);
      }

      .cls-6 {
        fill: url(#_4);
      }

      .cls-7 {
        mask: url(#mask-4);
        filter: url(#luminosity-noclip-9);
      }

      .cls-8 {
        fill: url(#_3);
      }

      .cls-9 {
        mask: url(#mask-5);
        filter: url(#luminosity-noclip-10);
      }

      .cls-10 {
        fill: url(#_2);
      }

      .cls-11 {
        fill: none;
      }

      .cls-12 {
        opacity: 0.3;
        fill: url(#linear-gradient);
      }

      .cls-13 {
        fill: url(#linear-gradient-2);
      }

      .cls-14 {
        fill: url(#linear-gradient-3);
      }

      .cls-15 {
        fill: url(#linear-gradient-4);
      }

      .cls-16 {
        fill: url(#linear-gradient-5);
      }

      .cls-17 {
        fill: url(#linear-gradient-6);
      }

      .cls-18 {
        fill: url(#linear-gradient-7);
      }

      .cls-19 {
        fill: url(#linear-gradient-8);
      }

      .cls-20, .cls-22, .cls-48, .cls-56 {
        fill: #fff;
      }

      .cls-21 {
        fill: url(#linear-gradient-9);
      }

      .cls-22, .cls-23 {
        opacity: 0.6;
      }

      .cls-24 {
        fill: url(#linear-gradient-10);
      }

      .cls-25 {
        fill: url(#linear-gradient-11);
      }

      .cls-26 {
        fill: url(#linear-gradient-12);
      }

      .cls-27 {
        fill: url(#linear-gradient-13);
      }

      .cls-28 {
        fill: url(#linear-gradient-14);
      }

      .cls-29 {
        clip-path: url(#clip-path);
      }

      .cls-30 {
        opacity: 0.29;
      }

      .cls-31 {
        fill: url(#linear-gradient-15);
      }

      .cls-32 {
        fill: url(#linear-gradient-16);
      }

      .cls-33 {
        fill: url(#linear-gradient-17);
      }

      .cls-34 {
        fill: url(#linear-gradient-18);
      }

      .cls-35 {
        fill: url(#linear-gradient-19);
      }

      .cls-36 {
        fill: url(#linear-gradient-20);
      }

      .cls-37 {
        fill: url(#linear-gradient-21);
      }

      .cls-38 {
        fill: url(#linear-gradient-22);
      }

      .cls-39 {
        fill: url(#linear-gradient-23);
      }

      .cls-40 {
        fill: url(#linear-gradient-24);
      }

      .cls-41 {
        fill: url(#linear-gradient-25);
      }

      .cls-42 {
        fill: url(#linear-gradient-26);
      }

      .cls-43 {
        fill: url(#linear-gradient-27);
      }

      .cls-44 {
        fill: url(#linear-gradient-28);
      }

      .cls-45 {
        fill: url(#linear-gradient-29);
      }

      .cls-46 {
        fill: url(#linear-gradient-30);
      }

      .cls-47 {
        fill: url(#linear-gradient-31);
      }

      .cls-48 {
        opacity: 0.23;
      }

      .cls-49 {
        fill: url(#linear-gradient-32);
      }

      .cls-50 {
        fill: url(#linear-gradient-33);
      }

      .cls-51 {
        fill: url(#linear-gradient-34);
      }

      .cls-52 {
        fill: url(#linear-gradient-35);
      }

      .cls-53 {
        mask: url(#mask-6);
      }

      .cls-54, .cls-56, .cls-58, .cls-60, .cls-63, .cls-65 {
        opacity: 0.37;
      }

      .cls-54 {
        fill: url(#_84);
      }

      .cls-55 {
        fill: url(#linear-gradient-36);
      }

      .cls-57 {
        mask: url(#mask-7);
      }

      .cls-58 {
        fill: url(#_84-2);
      }

      .cls-59 {
        mask: url(#mask-8);
      }

      .cls-60 {
        fill: url(#_84-3);
      }

      .cls-61 {
        fill: url(#linear-gradient-37);
      }

      .cls-62 {
        mask: url(#mask-9);
      }

      .cls-63 {
        fill: url(#_84-4);
      }

      .cls-64 {
        mask: url(#mask-10);
      }

      .cls-65 {
        fill: url(#_84-5);
      }

      .cls-66 {
        filter: url(#luminosity-noclip-5);
      }

      .cls-67 {
        filter: url(#luminosity-noclip-4);
      }

      .cls-68 {
        filter: url(#luminosity-noclip-3);
      }

      .cls-69 {
        filter: url(#luminosity-noclip-2);
      }

      .cls-70 {
        filter: url(#luminosity-noclip);
      }
    </style>
    <filter id="luminosity-noclip" x="2014.26" y="-9743" width="742.6" height="32766" filterUnits="userSpaceOnUse" color-interpolation-filters="sRGB">
      <feFlood flood-color="#fff" result="bg"/>
      <feBlend in="SourceGraphic" in2="bg"/>
    </filter>
    <mask id="mask" x="2014.26" y="-9743" width="742.6" height="32766" maskUnits="userSpaceOnUse">
      <g class="cls-70"/>
    </mask>
    <linearGradient id="_6" data-name="  6" x1="1257.9" y1="1240.42" x2="1999.9" y2="1240.42" gradientTransform="translate(698.7 1459.06) rotate(-2.77)" gradientUnits="userSpaceOnUse">
      <stop offset="0" stop-color="#1a1a1a"/>
      <stop offset="0.77" stop-color="#686868"/>
      <stop offset="0.97" stop-color="gray"/>
      <stop offset="1" stop-color="gray"/>
    </linearGradient>
    <filter id="luminosity-noclip-2" x="1791.35" y="-9743" width="241.36" height="32766" filterUnits="userSpaceOnUse" color-interpolation-filters="sRGB">
      <feFlood flood-color="#fff" result="bg"/>
      <feBlend in="SourceGraphic" in2="bg"/>
    </filter>
    <mask id="mask-2" x="1791.35" y="-9743" width="241.36" height="32766" maskUnits="userSpaceOnUse">
      <g class="cls-69"/>
    </mask>
    <linearGradient id="_5" data-name="  5" x1="1218.45" y1="974.2" x2="1159.24" y2="1138.05" xlink:href="#_6"/>
    <filter id="luminosity-noclip-3" x="1806.85" y="-9743" width="241.36" height="32766" filterUnits="userSpaceOnUse" color-interpolation-filters="sRGB">
      <feFlood flood-color="#fff" result="bg"/>
      <feBlend in="SourceGraphic" in2="bg"/>
    </filter>
    <mask id="mask-3" x="1806.85" y="-9743" width="241.36" height="32766" maskUnits="userSpaceOnUse">
      <g class="cls-68"/>
    </mask>
    <linearGradient id="_4" data-name="  4" x1="1229.39" y1="1436.95" x2="1084.41" y2="1511.57" xlink:href="#_6"/>
    <filter id="luminosity-noclip-4" x="2640.18" y="-9743" width="241.36" height="32766" filterUnits="userSpaceOnUse" color-interpolation-filters="sRGB">
      <feFlood flood-color="#fff" result="bg"/>
      <feBlend in="SourceGraphic" in2="bg"/>
    </filter>
    <mask id="mask-4" x="2640.18" y="-9743" width="241.36" height="32766" maskUnits="userSpaceOnUse">
      <g class="cls-67"/>
    </mask>
    <linearGradient id="_3" data-name="  3" x1="327.29" y1="970.17" x2="268.07" y2="1134.02" gradientTransform="matrix(-1, 0.05, 0.05, 1, 2974.5, 1349.51)" xlink:href="#_6"/>
    <filter id="luminosity-noclip-5" x="2655.69" y="-9743" width="241.36" height="32766" filterUnits="userSpaceOnUse" color-interpolation-filters="sRGB">
      <feFlood flood-color="#fff" result="bg"/>
      <feBlend in="SourceGraphic" in2="bg"/>
    </filter>
    <mask id="mask-5" x="2655.69" y="-9743" width="241.36" height="32766" maskUnits="userSpaceOnUse">
      <g class="cls-66"/>
    </mask>
    <linearGradient id="_2" data-name="  2" x1="338.25" y1="1432.92" x2="193.26" y2="1507.55" gradientTransform="matrix(-1, 0.05, 0.05, 1, 2974.5, 1349.51)" xlink:href="#_6"/>
    <linearGradient id="linear-gradient" x1="3301.45" y1="3767.45" x2="817.65" y2="682.72" gradientUnits="userSpaceOnUse">
      <stop offset="0" stop-color="#b37cff"/>
      <stop offset="1" stop-color="#f895e7"/>
    </linearGradient>
    <linearGradient id="linear-gradient-2" x1="1688.62" y1="-120.38" x2="430.07" y2="2897.38" gradientUnits="userSpaceOnUse">
      <stop offset="0" stop-color="#ce1567"/>
      <stop offset="1" stop-color="#7a1dbc"/>
    </linearGradient>
    <linearGradient id="linear-gradient-3" x1="573.22" y1="1054.58" x2="1521.15" y2="1054.58" gradientTransform="translate(30.84 107.61) rotate(9.95)" gradientUnits="userSpaceOnUse">
      <stop offset="0" stop-color="#41a362"/>
      <stop offset="1" stop-color="#204f2e"/>
    </linearGradient>
    <linearGradient id="linear-gradient-4" x1="895.16" y1="1218.11" x2="1451.69" y2="1218.11" xlink:href="#linear-gradient-3"/>
    <linearGradient id="linear-gradient-5" x1="316.67" y1="1491.66" x2="1617.98" y2="1491.66" xlink:href="#linear-gradient-3"/>
    <linearGradient id="linear-gradient-6" x1="632.72" y1="1605.21" x2="1579.29" y2="1605.21" xlink:href="#linear-gradient-3"/>
    <linearGradient id="linear-gradient-7" x1="2413.44" y1="1537.62" x2="2767.14" y2="943.12" xlink:href="#linear-gradient-2"/>
    <linearGradient id="linear-gradient-8" x1="2520.41" y1="223.38" x2="322.02" y2="3110.92" gradientTransform="translate(45.09 296.1) rotate(-0.22)" gradientUnits="userSpaceOnUse">
      <stop offset="0" stop-color="#2b3582"/>
      <stop offset="1" stop-color="#150e42"/>
    </linearGradient>
    <linearGradient id="linear-gradient-9" x1="3563.09" y1="1123.56" x2="1657.78" y2="2954.02" gradientTransform="translate(-1529.33 840.44) rotate(-22.9)" gradientUnits="userSpaceOnUse">
      <stop offset="0" stop-color="#53d8ff"/>
      <stop offset="1" stop-color="#3840f7"/>
    </linearGradient>
    <linearGradient id="linear-gradient-10" x1="1227.1" y1="682.99" x2="1000.78" y2="1069.27" gradientTransform="translate(45.09 296.1) rotate(-0.22)" gradientUnits="userSpaceOnUse">
      <stop offset="0" stop-color="#a737d5"/>
      <stop offset="1" stop-color="#ef497a"/>
    </linearGradient>
    <linearGradient id="linear-gradient-11" x1="1911.4" y1="-326.28" x2="1270.18" y2="517.23" gradientTransform="translate(25.35 87.46) rotate(7.74)" xlink:href="#linear-gradient-8"/>
    <linearGradient id="linear-gradient-12" x1="1947.89" y1="-247.07" x2="1309.97" y2="592.09" xlink:href="#linear-gradient-8"/>
    <linearGradient id="linear-gradient-13" x1="1867.5" y1="-195.74" x2="1427.03" y2="613.05" gradientTransform="translate(45.09 296.1) rotate(-0.22)" xlink:href="#linear-gradient-9"/>
    <linearGradient id="linear-gradient-14" x1="2974.49" y1="-1722.54" x2="814.24" y2="3457.29" gradientTransform="matrix(1, 0, 0, 1, 0, 0)" xlink:href="#linear-gradient-10"/>
    <clipPath id="clip-path">
      <path class="cls-11" d="M401.08,2065.83s-82.31,230.89,220.09,236.05,847-612.79,1043.76-857.24c297.91-370.12,592.46-598.37,850.66-595.71s307,265.54,228.9,401.56c0,0,5.42-253.11-153.74-222.34s-390.92,204.49-925.82,798.36C1356.1,2169.39,979.83,2435,641.34,2427S301.58,2190.88,401.08,2065.83Z"/>
    </clipPath>
    <linearGradient id="linear-gradient-15" x1="1672.55" y1="-2593.15" x2="1294.1" y2="-2296" gradientTransform="translate(-1900.65 765.71) rotate(95.66)" xlink:href="#linear-gradient-8"/>
    <linearGradient id="linear-gradient-16" x1="-2620.56" y1="-2520.13" x2="-2285.68" y2="-2630.55" gradientTransform="matrix(0.1, -1, -1, -0.1, -1803.93, -212.49)" gradientUnits="userSpaceOnUse">
      <stop offset="0" stop-color="#8d55d1"/>
      <stop offset="1" stop-color="#1c2873"/>
    </linearGradient>
    <linearGradient id="linear-gradient-17" x1="-5173.97" y1="2558.36" x2="-5111.69" y2="2558.36" gradientTransform="matrix(-1, 0, 0, 1, -4612.36, 0)" gradientUnits="userSpaceOnUse">
      <stop offset="0" stop-color="#f9b776"/>
      <stop offset="1" stop-color="#f47960"/>
    </linearGradient>
    <linearGradient id="linear-gradient-18" x1="4093.46" y1="4085.39" x2="3715.03" y2="4382.53" gradientTransform="translate(-3803.55 518.99) rotate(-21.75)" xlink:href="#linear-gradient-8"/>
    <linearGradient id="linear-gradient-19" x1="-5041.89" y1="4158.11" x2="-4707.03" y2="4047.7" gradientTransform="matrix(-0.93, 0.37, 0.37, 0.93, -4716.76, 883.91)" xlink:href="#linear-gradient-16"/>
    <linearGradient id="linear-gradient-20" x1="1711.46" y1="4309.13" x2="1773.74" y2="4309.13" gradientTransform="matrix(0.46, 0.89, 0.89, -0.46, -3235.27, 3278.29)" xlink:href="#linear-gradient-17"/>
    <linearGradient id="linear-gradient-21" x1="-5366.16" y1="2692.78" x2="-5485.04" y2="2286.63" gradientTransform="matrix(-1, 0, 0, 1, -4612.36, 0)" xlink:href="#linear-gradient-8"/>
    <linearGradient id="linear-gradient-22" x1="-6038.69" y1="2504.04" x2="-5409.19" y2="2504.04" gradientTransform="matrix(-1, 0, 0, 1, -4612.36, 0)" xlink:href="#linear-gradient-8"/>
    <linearGradient id="linear-gradient-23" x1="15.11" y1="4808.3" x2="236.32" y2="5108.1" gradientTransform="matrix(0.21, 0.98, 0.98, -0.21, -3611.33, 2911.59)" xlink:href="#linear-gradient-17"/>
    <linearGradient id="linear-gradient-24" x1="-5580.87" y1="1893.51" x2="-5655.86" y2="1666.95" xlink:href="#linear-gradient-17"/>
    <linearGradient id="linear-gradient-25" x1="-5753.21" y1="1723.85" x2="-5411.97" y2="2582.12" gradientTransform="matrix(-1, 0, 0, 1, -4612.36, 0)" gradientUnits="userSpaceOnUse">
      <stop offset="0" stop-color="#fdf53f"/>
      <stop offset="1" stop-color="#d93c65"/>
    </linearGradient>
    <linearGradient id="linear-gradient-26" x1="-5661.9" y1="1549.07" x2="-5406.34" y2="1549.07" gradientTransform="matrix(-0.99, 0.11, 0.11, 0.99, -4623.69, 561.3)" xlink:href="#linear-gradient-8"/>
    <linearGradient id="linear-gradient-27" x1="-5570.48" y1="1587.86" x2="-5427.81" y2="1993.65" gradientTransform="matrix(-0.99, 0.11, 0.11, 0.99, -4623.69, 561.3)" xlink:href="#linear-gradient-17"/>
    <linearGradient id="linear-gradient-28" x1="-5511.15" y1="1693.72" x2="-5190.35" y2="2500.57" xlink:href="#linear-gradient-17"/>
    <linearGradient id="linear-gradient-29" x1="-6021.83" y1="1983.22" x2="-5991.37" y2="1983.22" xlink:href="#linear-gradient-17"/>
    <linearGradient id="linear-gradient-30" x1="906.06" y1="1610.45" x2="840.5" y2="2378.51" gradientTransform="matrix(1, 0, 0, 1, 0, 0)" xlink:href="#linear-gradient-25"/>
    <linearGradient id="linear-gradient-31" x1="1916.21" y1="2196.09" x2="2618.61" y2="3223.98" gradientTransform="matrix(1, 0, 0, 1, 0, 0)" xlink:href="#linear-gradient-25"/>
    <linearGradient id="linear-gradient-32" x1="2113.84" y1="1901.45" x2="1971.87" y2="2079.97" gradientTransform="matrix(1, 0, 0, 1, 0, 0)" xlink:href="#linear-gradient-25"/>
    <linearGradient id="linear-gradient-33" x1="1975.97" y1="1830.4" x2="2395.27" y2="1830.4" gradientUnits="userSpaceOnUse">
      <stop offset="0" stop-color="#152c19"/>
      <stop offset="1" stop-color="#397851"/>
    </linearGradient>
    <linearGradient id="linear-gradient-34" x1="1884.56" y1="1929.87" x2="2029.79" y2="1929.87" gradientUnits="userSpaceOnUse">
      <stop offset="0" stop-color="#e40045"/>
      <stop offset="1" stop-color="#5c0e16"/>
    </linearGradient>
    <linearGradient id="linear-gradient-35" x1="964.83" y1="1483.47" x2="1887.25" y2="1899.75" gradientTransform="translate(1844.24 565.43) rotate(25.35)" gradientUnits="userSpaceOnUse">
      <stop offset="0" stop-color="#cb236d"/>
      <stop offset="1" stop-color="#4c246d"/>
    </linearGradient>
    <filter id="luminosity-noclip-6" x="2014.26" y="2579.81" width="742.6" height="79.01" filterUnits="userSpaceOnUse" color-interpolation-filters="sRGB">
      <feFlood flood-color="#fff" result="bg"/>
      <feBlend in="SourceGraphic" in2="bg"/>
    </filter>
    <mask id="mask-6" x="2014.26" y="2579.81" width="742.6" height="79.01" maskUnits="userSpaceOnUse">
      <g class="cls-1">
        <path class="cls-2" d="M2750.61,2623.63l-728,35.18a6.59,6.59,0,0,1-6.87-6.24l-1.48-30.7a6.57,6.57,0,0,1,6.24-6.87l728-35.19a6.59,6.59,0,0,1,6.87,6.24l1.48,30.7A6.58,6.58,0,0,1,2750.61,2623.63Z"/>
      </g>
    </mask>
    <linearGradient id="_84" data-name="  84" x1="1257.9" y1="1240.42" x2="1999.9" y2="1240.42" gradientTransform="translate(698.7 1459.06) rotate(-2.77)" gradientUnits="userSpaceOnUse">
      <stop offset="0" stop-color="#fff"/>
      <stop offset="0.77" stop-color="#fff"/>
      <stop offset="0.97" stop-color="#fff"/>
      <stop offset="1" stop-color="#fff"/>
    </linearGradient>
    <linearGradient id="linear-gradient-36" x1="8097.28" y1="2684.54" x2="9545.86" y2="2974.25" gradientTransform="translate(698.7 1459.06) rotate(-2.77)" xlink:href="#linear-gradient-35"/>
    <filter id="luminosity-noclip-7" x="1791.35" y="2466.13" width="241.36" height="77.8" filterUnits="userSpaceOnUse" color-interpolation-filters="sRGB">
      <feFlood flood-color="#fff" result="bg"/>
      <feBlend in="SourceGraphic" in2="bg"/>
    </filter>
    <mask id="mask-7" x="1791.35" y="2466.13" width="241.36" height="77.8" maskUnits="userSpaceOnUse">
      <g class="cls-3">
        <polygon class="cls-4" points="1791.35 2543.93 1861.81 2470.8 1958.36 2466.13 2032.7 2532.27 1791.35 2543.93"/>
      </g>
    </mask>
    <linearGradient id="_84-2" x1="1218.45" y1="974.2" x2="1159.24" y2="1138.05" xlink:href="#_84"/>
    <filter id="luminosity-noclip-8" x="1806.85" y="2853.13" width="241.36" height="76.72" filterUnits="userSpaceOnUse" color-interpolation-filters="sRGB">
      <feFlood flood-color="#fff" result="bg"/>
      <feBlend in="SourceGraphic" in2="bg"/>
    </filter>
    <mask id="mask-8" x="1806.85" y="2853.13" width="241.36" height="76.72" maskUnits="userSpaceOnUse">
      <g class="cls-5">
        <polygon class="cls-6" points="1806.86 2864.8 1874.04 2929.86 1977.68 2924.85 2048.21 2853.13 1806.86 2864.8"/>
      </g>
    </mask>
    <linearGradient id="_84-3" x1="1229.39" y1="1436.95" x2="1084.41" y2="1511.57" xlink:href="#_84"/>
    <linearGradient id="linear-gradient-37" x1="1597.23" y1="1413.64" x2="2738.5" y2="2085.23" xlink:href="#linear-gradient-35"/>
    <filter id="luminosity-noclip-9" x="2640.18" y="2421.69" width="241.36" height="77.66" filterUnits="userSpaceOnUse" color-interpolation-filters="sRGB">
      <feFlood flood-color="#fff" result="bg"/>
      <feBlend in="SourceGraphic" in2="bg"/>
    </filter>
    <mask id="mask-9" x="2640.18" y="2421.69" width="241.36" height="77.66" maskUnits="userSpaceOnUse">
      <g class="cls-7">
        <polygon class="cls-8" points="2881.54 2487.69 2804.35 2421.69 2707.81 2426.36 2640.18 2499.36 2881.54 2487.69"/>
      </g>
    </mask>
    <linearGradient id="_84-4" x1="327.29" y1="970.17" x2="268.07" y2="1134.02" gradientTransform="matrix(-1, 0.05, 0.05, 1, 2974.5, 1349.51)" xlink:href="#_84"/>
    <filter id="luminosity-noclip-10" x="2655.69" y="2808.55" width="241.36" height="76.24" filterUnits="userSpaceOnUse" color-interpolation-filters="sRGB">
      <feFlood flood-color="#fff" result="bg"/>
      <feBlend in="SourceGraphic" in2="bg"/>
    </filter>
    <mask id="mask-10" x="2655.69" y="2808.55" width="241.36" height="76.24" maskUnits="userSpaceOnUse">
      <g class="cls-9">
        <polygon class="cls-10" points="2897.04 2808.55 2836.45 2879.79 2732.81 2884.8 2655.69 2820.22 2897.04 2808.55"/>
      </g>
    </mask>
    <linearGradient id="_84-5" x1="338.25" y1="1432.92" x2="193.26" y2="1507.55" gradientTransform="matrix(-1, 0.05, 0.05, 1, 2974.5, 1349.51)" xlink:href="#_84"/>
  </defs>
  <g id="Illustration">
    <g>
      <path class="cls-12" d="M2618.14,2550.94c-57,60.07-111,98.8-153.68,129.4-501.35,359.72-1094.57,254.86-1220.65,229.26-186.17-37.82-546-110.91-806.23-416.88-393.64-462.9-332.34-1192.2-27-1673.62C466.42,731,761.43,242.29,1361.05,163.91c362.88-47.43,785.88,48.24,1092.2,304.88C3096.26,1007.5,3050.48,2095.79,2618.14,2550.94Z"/>
      <path class="cls-13" d="M1355.08,1617.69c-20-1-834.36,378.41-870.7,765,0,0-246.81-246.13,33.82-533.62s803-527.92,803-527.92Z"/>
      <g>
        <path class="cls-14" d="M1089.59,2489.47c3.38,1.5,23,10.19,43.21,3,121.78-43.35-127.26-521.77,43.24-1007.51,69.49-198,178.79-312,155.37-518.27-4.25-37.45-18.66-152.69-96.14-265.46-48.75-70.94-86-87.81-151.8-149.39C876.71,358.42,892,195.65,797.84,185.6,692.79,174.38,534.29,362.29,546.38,534.33c13.31,189.38,225.06,241.58,211.25,405.34-10.74,127.39-141.74,130-172.38,282.81-40.66,202.88,150.46,396.39,174.84,420.44,108.72,107.26,149.78,65,219.91,146C1170.59,2009,965.49,2434.49,1089.59,2489.47Z"/>
        <path class="cls-15" d="M855,603.53a538.32,538.32,0,0,1,45.22,38.54q21.64,20.35,41.57,42.54c13.26,14.77,26.09,30,38.2,45.78,12,15.9,23.72,32,34.5,48.84,5.59,8.28,10.47,17,15.74,25.5,4.83,8.76,10,17.34,14.53,26.27s9.29,17.76,13.45,26.9c2.12,4.55,4.36,9,6.37,13.65l5.84,13.89c4,9.21,7.19,18.78,10.78,28.18,3.4,9.47,6.27,19.15,9.42,28.72,2.6,9.75,5.47,19.43,7.82,29.25l3.3,14.79c1.14,4.93,2.22,9.87,2.93,14.88a536.21,536.21,0,0,1,7.41,121l-.83,15.19-1.24,14.67-2.51,29.32c-1.73,19.54-3.12,39.09-4.69,58.64q-9,117.31-13.85,234.8c-6.28,156.65-6.24,313.28,9.67,469.32,6.86,78.81,8.84,157.67,8.76,236.44s-2.66,157.45-7.68,236l-4.53-.2c.71-78.55-.5-157.14-3.06-235.56-1.44-39.21-3.25-78.4-5.85-117.49s-5.66-78.14-10.25-116.93c-10-78-15.59-157.22-18.41-236-2.43-78.92-1.84-157.85.39-236.67s7-157.51,12.58-236.08c1.5-19.64,2.81-39.29,4.46-58.91l2.4-29.44,1.19-14.71.88-14.24a503.79,503.79,0,0,0-6-113.84c-1.32-9.44-3.53-18.75-5.24-28.15-2-9.34-4.47-18.58-6.67-27.89-2.77-9.16-5.23-18.42-8.24-27.52-3.19-9-5.93-18.25-9.57-27.14a680.92,680.92,0,0,0-49.42-104.43c-9.44-16.9-19.91-33.23-30.62-49.42-11-16-22.24-31.88-34.11-47.33-23.94-30.68-49.43-60.54-77.55-87.69Z"/>
      </g>
      <g>
        <path class="cls-16" d="M1151.27,2696.24c16.4,8.61,42.59,11.46,58.89-.48,62.9-46.12-98.79-256-144.26-553.22-52.66-344.16,95.85-509-38.48-670.8-64.61-77.84-120-65.13-179.94-163.22-83.43-136.6-16.91-228.34-83.49-335C687.42,850.88,480.4,781.58,339.46,850.39c-189.53,92.53-208.73,410-107.47,574.42,65.76,106.81,190.87,162.92,176.22,193.11-14,28.81-123-32.38-184.44,15.22-80.4,62.34-61.2,297.42,57.32,379.56,109.1,75.61,291.19,13.89,299.8,50.82,3.39,14.53-24.78,24.14-25.85,42.53-1.91,32.82,83.34,79,390.52,144.79,83.2,53.09,120.81,110.35,139.73,153.66C1141.1,2532.27,1088.68,2663.38,1151.27,2696.24Z"/>
        <path class="cls-17" d="M503.08,1100.51c2.17,71.81,11.12,143,28.5,212A838.18,838.18,0,0,0,608.33,1510c17,31,35.6,61.2,55.28,90.83,10.14,14.66,20,29.45,30.51,44q15.38,21.91,31.14,43.75l63.13,87.6,15.66,22.08,15.33,22.36c10.3,14.84,20.23,30,30.23,45,20,30.14,39.19,60.82,58,91.7,9.28,15.52,18.67,31,27.51,46.76l13.45,23.55,13.12,23.75,13,23.78,12.65,24,12.62,24,12.17,24.24,12,24.31,11.53,24.56c7.68,16.37,15.44,32.69,22.56,49.33l10.92,24.83,5.46,12.41,5.15,12.55c6.7,16.8,13.59,33.52,20.12,50.37l18.76,50.9c6.14,17,11.5,34.3,17.15,51.46,21.76,68.93,39.55,139.17,50.92,210.39l-3.92.78a1880.91,1880.91,0,0,0-64.3-205.16l-9.71-25c-3.28-8.32-6.16-16.79-9.75-25l-20.72-49.51c-14.63-32.67-29.21-65.33-44.87-97.5-7.54-16.21-15.73-32.12-23.83-48.07l-12.14-23.92-12.65-23.66-12.5-23.74-12.93-23.5-13-23.49L933.2,2067.4c-35.8-61.94-73.11-123-112.88-182.41S738.76,1767.47,697,1708.66c-10.4-14.73-20.85-29.44-31-44.44s-20-30.23-30-45.39c-19.36-30.78-38-62.17-54.56-94.82-4.09-8.18-7.83-16.55-11.75-24.81l-5.79-12.44-5.25-12.69c-3.43-8.49-7.14-16.86-10.33-25.43l-9.23-25.85c-3.28-8.54-5.61-17.39-8.23-26.15L527,1383.5c-1.3-4.38-2.61-8.75-3.59-13.21-4.16-17.77-8.77-35.4-12.1-53.3a827.64,827.64,0,0,1-12.26-216.58Z"/>
      </g>
      <path class="cls-18" d="M2471.78,1173.28l18.83,145c2.63,20.28-12.1,91.39,7.55,97,49.25,14.18,171.83-27.81,227.16-114.13,56.33-87.88,52.94-334.93-64.68-349.22-41.75-5.07,15.76,102.76-156,166.47A51.37,51.37,0,0,0,2471.78,1173.28Z"/>
      <g>
        <path class="cls-19" d="M989.53,473.33l1386.87-5.42a143.67,143.67,0,0,1,144,135.81L2630.65,2614a106,106,0,0,1-103.46,111.73l-1589.41,35.1A100.58,100.58,0,0,1,835,2660.69L827.08,637.05A163.09,163.09,0,0,1,989.53,473.33Z"/>
        <path class="cls-20" d="M1170,2725.3h0l-177.87-1.6c-59.23-.54-107.6-49.16-107.83-108.39l-1.05-268.53a3.33,3.33,0,0,1,3.33-3.35h0a3.34,3.34,0,0,1,3.34,3.32l1,268.54c.22,55.59,45.62,101.22,101.21,101.72l177.87,1.61a3.34,3.34,0,0,1,0,6.68Z"/>
        <path class="cls-20" d="M886.19,2266.93a3.35,3.35,0,0,1-3.35-3.33l-.17-43.49a3.35,3.35,0,0,1,3.33-3.35h0a3.34,3.34,0,0,1,3.34,3.33l.17,43.48a3.35,3.35,0,0,1-3.33,3.36Z"/>
        <g>
          <path class="cls-21" d="M993.73,457C1183.22,482,1834.79,558.84,2373.08,515.4a43.82,43.82,0,0,1,47.34,41.13l115.23,2019.24a50.41,50.41,0,0,1-47.15,53.2c-226.41,14.29-1158.86,69.74-1491.66,36.2A40,40,0,0,1,961,2625.78L940.19,504.47A47.36,47.36,0,0,1,993.73,457Z"/>
          <path class="cls-22" d="M1014.22,509.32c182.35,24,809.39,98,1327.41,56.2a42.15,42.15,0,0,1,45.55,39.58l110.9,1943.2a48.52,48.52,0,0,1-45.38,51.2c-217.88,13.74-1115.22,67.11-1435.48,34.83a38.43,38.43,0,0,1-34.54-37.9L962.69,555A45.59,45.59,0,0,1,1014.22,509.32Z"/>
          <g class="cls-23">
            <path class="cls-20" d="M2285.4,950.43a12.38,12.38,0,0,0,12.43-13.38l-.09-1.29a14.67,14.67,0,0,0-14.3-13.39l-1177.62-4.68c-7.35,0-9.6,4.64-5,10.37l13.24,16.49c4.6,5.73,14.38,10.4,21.73,10.37Z"/>
          </g>
          <g class="cls-23">
            <path class="cls-20" d="M1106.13,995.37c-7.35,0-9.6,4.64-5,10.37l13.23,16.49c4.6,5.73,14.38,10.4,21.73,10.37l1149.61-4.49a12.38,12.38,0,0,0,12.43-13.38l-.09-1.29a14.66,14.66,0,0,0-14.3-13.39Z"/>
          </g>
          <g>
            <path class="cls-20" d="M1190.48,1204.16h-.09l-44.32-.26c-7.17,0-13.11-5-13.82-11.54l-4-37.18a9.7,9.7,0,0,1,2.25-7.31,11.39,11.39,0,0,1,7.91-4h0c3.73-.27,8.87-.73,14.52-1.23,12.36-1.1,26.37-2.35,34.64-2.48,6.58-.15,12.43,3.93,14,9.83,2.41,8.75,2.27,25,1.89,42.38C1203.33,1198.9,1197.51,1204.16,1190.48,1204.16Zm-51.62-53.58a4.69,4.69,0,0,0-3.27,1.57,3.07,3.07,0,0,0-.74,2.31l4,37.17c.35,3.17,3.45,5.57,7.22,5.59l44.32.25h0c3.42,0,6.25-2.32,6.31-5.21.28-12.71.69-31.93-1.65-40.46-.8-2.91-3.81-5-7.5-4.92-8,.13-22.51,1.42-34.15,2.46-5.7.5-10.87,1-14.63,1.24Z"/>
            <g class="cls-23">
              <path class="cls-20" d="M1239,1163.8c-7.35,0-12,5-10.4,11.07s9,11,16.32,10.87l389.79-5.6c7.35-.11,13.27-3.91,13.15-8.46s-6.22-8.26-13.57-8.25Z"/>
            </g>
            <path class="cls-24" d="M1145.43,1158.59h0a6.8,6.8,0,0,1,9.39,2.51l8.81,15.64a2.18,2.18,0,0,0,3.9-.18L1189,1128.2a2.42,2.42,0,0,1,4.63,1c-.16,14.76-4,42.84-27.47,66.43,0,0-13-5-23.58-28A7.13,7.13,0,0,1,1145.43,1158.59Z"/>
            <path class="cls-20" d="M1190.85,1299.15h-.09l-44.32-.25c-7.17,0-13.11-5-13.82-11.55l-4-37.17a9.67,9.67,0,0,1,2.26-7.32,11.34,11.34,0,0,1,7.91-3.95c3.72-.27,8.86-.73,14.51-1.24,12.36-1.1,26.37-2.34,34.64-2.48,6.58-.09,12.43,3.94,14.06,9.84,2.4,8.74,2.26,25,1.88,42.37C1203.7,1293.9,1197.88,1299.15,1190.85,1299.15Zm-51.62-53.58a4.68,4.68,0,0,0-3.26,1.57,3.06,3.06,0,0,0-.75,2.31l4,37.18c.35,3.16,3.45,5.56,7.22,5.58l44.32.26c3.55.11,6.3-2.32,6.36-5.21.28-12.72.69-31.93-1.65-40.46a7.24,7.24,0,0,0-7.5-4.93c-8,.13-22.51,1.42-34.15,2.46-5.7.51-10.87,1-14.63,1.24Z"/>
            <path class="cls-22" d="M1143.89,1247.76c9.31-.68,29.54-2.81,39.14-3,4.06-.06,7.64,2.38,8.61,5.9,1.88,6.84,1.68,20.5,1.41,33.1-.08,3.77-3.53,6.8-7.77,6.77l-35.42-.2c-4.35,0-8-3-8.4-6.84l-3.23-29.71C1137.9,1250.74,1140.44,1248,1143.89,1247.76Z"/>
            <g class="cls-23">
              <path class="cls-20" d="M1239.38,1258.79c-7.35,0-12,5-10.4,11.07s9,11,16.32,10.88l389.8-5.61c7.35-.1,13.26-3.91,13.15-8.46s-6.23-8.26-13.58-8.25Z"/>
            </g>
            <path class="cls-20" d="M1191.22,1394.14h-.09l-44.32-.25c-7.17,0-13.11-5-13.82-11.55l-4-37.17a9.65,9.65,0,0,1,2.26-7.31,11.39,11.39,0,0,1,7.91-4c3.73-.27,8.87-.73,14.53-1.23,12.35-1.1,26.36-2.35,34.62-2.49,6.7-.08,12.43,3.94,14.06,9.84,2.4,8.74,2.26,25,1.89,42.37C1204.07,1388.89,1198.25,1394.14,1191.22,1394.14Zm-51.62-53.57a4.61,4.61,0,0,0-3.26,1.57,3.07,3.07,0,0,0-.75,2.31l4.05,37.17c.34,3.16,3.44,5.57,7.21,5.59l44.32.25h0c3.42,0,6.25-2.33,6.31-5.21.28-12.72.69-31.94-1.65-40.46-.8-2.91-3.82-5-7.5-4.93-8,.14-22.5,1.43-34.14,2.46-5.7.51-10.88,1-14.64,1.25Z"/>
            <path class="cls-22" d="M1144.26,1342.75c9.31-.67,29.54-2.81,39.14-3,4.06-.07,7.64,2.37,8.61,5.9,1.88,6.84,1.69,20.49,1.41,33.09-.08,3.78-3.53,6.8-7.76,6.78l-35.43-.2c-4.35,0-8-3-8.4-6.85l-3.23-29.71C1138.27,1345.73,1140.81,1343,1144.26,1342.75Z"/>
            <g class="cls-23">
              <path class="cls-20" d="M1239.75,1353.78c-7.35,0-12,5-10.4,11.08s9,11,16.32,10.87l389.8-5.6c7.35-.11,13.26-3.91,13.15-8.46s-6.23-8.26-13.58-8.26Z"/>
            </g>
            <path class="cls-20" d="M1191.59,1489.14h-.08l-44.33-.26c-7.17,0-13.11-5-13.82-11.54l-4-37.18a9.73,9.73,0,0,1,2.26-7.31,11.39,11.39,0,0,1,7.91-4c3.72-.26,8.84-.72,14.48-1.22,12.37-1.11,26.4-2.36,34.68-2.49,6.58-.11,12.42,3.93,14,9.84,2.4,8.74,2.26,25,1.89,42.37C1204.45,1483.88,1198.62,1489.14,1191.59,1489.14Zm-2.69-57.28h-.15c-8,.13-22.53,1.42-34.19,2.46-5.68.51-10.84,1-14.59,1.24h0a4.65,4.65,0,0,0-3.26,1.57,3.09,3.09,0,0,0-.75,2.31l4,37.17c.34,3.17,3.44,5.57,7.21,5.59l44.32.25h0c3.42,0,6.25-2.32,6.32-5.21.27-12.71.69-31.92-1.66-40.45C1195.46,1433.91,1192.38,1431.86,1188.9,1431.86Z"/>
            <path class="cls-22" d="M1144.63,1437.74c9.31-.67,29.54-2.8,39.14-3,4.07-.07,7.64,2.38,8.61,5.9,1.88,6.84,1.69,20.49,1.41,33.1-.08,3.77-3.53,6.8-7.76,6.77l-35.42-.2c-4.36,0-8-3-8.41-6.85l-3.23-29.7C1138.64,1440.73,1141.18,1438,1144.63,1437.74Z"/>
            <g class="cls-23">
              <path class="cls-20" d="M1240.12,1448.78c-7.35,0-12,5-10.4,11.07s9,11,16.33,10.87l389.79-5.6c7.35-.1,13.26-3.91,13.15-8.46s-6.23-8.26-13.58-8.25Z"/>
            </g>
          </g>
          <g>
            <path class="cls-20" d="M1830.61,1191h-.08l-44.32-.25c-7.17,0-13.11-5-13.82-11.55l-4-37.17a9.71,9.71,0,0,1,2.25-7.32,11.38,11.38,0,0,1,7.91-4c3.72-.27,8.85-.73,14.48-1.23,12.38-1.1,26.4-2.35,34.68-2.49,6.62-.2,12.43,3.94,14,9.84,2.4,8.73,2.26,25,1.89,42.37C1843.47,1185.7,1837.64,1191,1830.61,1191Zm-2.69-57.28h-.14c-8,.13-22.54,1.43-34.19,2.47-5.68.5-10.85,1-14.6,1.23h0a4.72,4.72,0,0,0-3.26,1.57,3.11,3.11,0,0,0-.74,2.32l4,37.17c.35,3.16,3.44,5.56,7.21,5.59l44.33.25h0c3.43,0,6.26-2.33,6.32-5.21.27-12.72.69-31.94-1.65-40.46C1834.49,1135.73,1831.41,1133.67,1827.92,1133.67Z"/>
            <g class="cls-23">
              <path class="cls-20" d="M1879.14,1150.59c-7.35,0-12,5-10.4,11.08s9,11,16.33,10.87l389.79-5.61c7.35-.1,13.27-3.91,13.15-8.45s-6.23-8.27-13.58-8.26Z"/>
            </g>
            <path class="cls-20" d="M1831,1285.94h-.08l-44.32-.25c-7.17,0-13.11-5-13.82-11.55l-4-37.17a9.68,9.68,0,0,1,2.25-7.31,11.39,11.39,0,0,1,7.91-4h0c3.73-.27,8.87-.73,14.52-1.23,12.36-1.1,26.37-2.35,34.64-2.49,6.63-.14,12.43,3.94,14,9.84,2.4,8.75,2.27,25,1.89,42.38C1843.84,1280.69,1838,1285.94,1831,1285.94Zm-51.61-53.57a4.65,4.65,0,0,0-3.27,1.57,3.07,3.07,0,0,0-.74,2.31l4,37.17c.35,3.17,3.45,5.57,7.22,5.59l44.32.25h0c3.43,0,6.26-2.33,6.32-5.21.28-12.71.69-31.93-1.65-40.46-.79-2.87-3.87-4.93-7.36-4.93h-.14c-8,.13-22.52,1.42-34.15,2.45-5.7.51-10.88,1-14.63,1.25Z"/>
            <g class="cls-23">
              <path class="cls-20" d="M1879.51,1245.58c-7.35,0-12,5-10.4,11.08s9,11,16.33,10.87l389.79-5.6c7.35-.11,13.27-3.91,13.15-8.46s-6.22-8.26-13.57-8.25Z"/>
            </g>
            <path class="cls-20" d="M1831.35,1380.94h-.08l-44.32-.25c-7.17,0-13.11-5-13.82-11.55l-4-37.18a9.65,9.65,0,0,1,2.26-7.31,11.36,11.36,0,0,1,7.9-4c3.73-.26,8.87-.72,14.52-1.23,12.36-1.1,26.37-2.35,34.64-2.48,6.63-.1,12.43,3.94,14,9.84,2.4,8.73,2.27,25,1.89,42.37C1844.21,1375.68,1838.39,1380.94,1831.35,1380.94Zm-2.69-57.28h-.14c-8,.13-22.51,1.42-34.15,2.46-5.7.51-10.88,1-14.63,1.24h0a4.64,4.64,0,0,0-3.25,1.57,3,3,0,0,0-.75,2.31l4,37.17c.35,3.17,3.45,5.57,7.22,5.59l44.32.26h0c3.43,0,6.26-2.33,6.32-5.22.28-12.71.69-31.94-1.65-40.45C1835.23,1325.71,1832.15,1323.66,1828.66,1323.66Z"/>
            <g class="cls-23">
              <path class="cls-20" d="M1879.89,1340.58c-7.36,0-12,5-10.4,11.07s9,11,16.32,10.87l389.79-5.6c7.35-.1,13.27-3.91,13.15-8.46s-6.22-8.26-13.57-8.25Z"/>
            </g>
            <path class="cls-20" d="M1831.72,1475.93h-.07l-44.33-.25c-7.17,0-13.11-5-13.82-11.55l-4-37.17a9.67,9.67,0,0,1,2.25-7.31,11.37,11.37,0,0,1,7.92-4c3.73-.27,8.87-.73,14.53-1.23,12.35-1.1,26.36-2.35,34.62-2.49,6.7,0,12.43,3.94,14,9.84,2.41,8.74,2.27,25,1.89,42.37C1844.58,1470.67,1838.76,1475.93,1831.72,1475.93Zm-2.69-57.28h-.14c-8,.13-22.5,1.43-34.14,2.46-5.7.51-10.88,1-14.64,1.24h0a4.65,4.65,0,0,0-3.26,1.58,3.07,3.07,0,0,0-.75,2.31l4,37.17c.35,3.16,3.45,5.57,7.22,5.59l44.32.25h0c3.43,0,6.26-2.33,6.32-5.21.28-12.72.69-31.93-1.65-40.46C1835.6,1420.71,1832.52,1418.65,1829,1418.65Z"/>
            <g class="cls-23">
              <path class="cls-20" d="M1880.26,1435.57c-7.35,0-12,5-10.4,11.08s9,11,16.32,10.87l389.8-5.6c7.34-.11,13.26-3.92,13.15-8.46s-6.23-8.26-13.58-8.26Z"/>
            </g>
          </g>
          <g>
            <path class="cls-20" d="M1206.84,1665.3h-.08l-44.33-.25c-7.17,0-13.11-5-13.82-11.55l-4-37.17a9.72,9.72,0,0,1,2.26-7.31,11.35,11.35,0,0,1,7.91-4c3.72-.27,8.84-.73,14.48-1.23,12.37-1.1,26.4-2.35,34.67-2.49,6.67,0,12.44,3.94,14.06,9.84,2.4,8.73,2.26,25,1.89,42.37C1219.7,1660.05,1213.87,1665.3,1206.84,1665.3Zm-2.69-57.28H1204c-8,.14-22.53,1.43-34.19,2.47-5.68.5-10.84,1-14.59,1.24h0a4.61,4.61,0,0,0-3.26,1.57,3.07,3.07,0,0,0-.75,2.31l4,37.17c.34,3.16,3.44,5.57,7.21,5.59l44.32.25h0c3.42,0,6.25-2.33,6.32-5.21.27-12.72.68-31.94-1.66-40.46C1210.71,1610.08,1207.63,1608,1204.15,1608Z"/>
            <g class="cls-23">
              <path class="cls-20" d="M1255.37,1624.94c-7.35,0-12,5-10.4,11.08s9,11,16.33,10.87l389.79-5.6c7.35-.11,13.26-3.92,13.15-8.46s-6.23-8.26-13.58-8.26Z"/>
            </g>
            <path class="cls-20" d="M1207.21,1760.3h-.08l-44.33-.26c-7.16,0-13.1-5-13.82-11.54l-4-37.18a9.74,9.74,0,0,1,2.26-7.31,11.39,11.39,0,0,1,7.91-4h0c3.73-.27,8.87-.73,14.52-1.23,12.36-1.1,26.37-2.35,34.64-2.48,6.72-.15,12.43,3.93,14,9.83,2.4,8.75,2.26,25,1.89,42.38C1220.07,1755,1214.24,1760.3,1207.21,1760.3Zm-51.62-53.58a4.65,4.65,0,0,0-3.26,1.57,3.09,3.09,0,0,0-.75,2.31l4.05,37.17c.34,3.17,3.44,5.57,7.21,5.59l44.33.25h0c3.42,0,6.25-2.33,6.32-5.21.27-12.71.69-31.93-1.66-40.46-.79-2.91-3.84-5-7.49-4.92-8,.13-22.52,1.42-34.16,2.46-5.69.5-10.87,1-14.63,1.24Z"/>
            <g class="cls-23">
              <path class="cls-20" d="M1255.74,1719.94c-7.35,0-12,5-10.4,11.07s9,11,16.33,10.87l389.79-5.6c7.35-.11,13.27-3.91,13.15-8.46s-6.23-8.26-13.58-8.25Z"/>
            </g>
            <path class="cls-20" d="M1207.58,1855.29h-.08l-44.33-.25c-7.16,0-13.1-5-13.81-11.55l-4-37.17a9.75,9.75,0,0,1,2.26-7.32,11.34,11.34,0,0,1,7.91-4c3.73-.27,8.87-.73,14.52-1.24,12.36-1.1,26.37-2.34,34.64-2.48,6.6-.09,12.43,3.94,14,9.84,2.4,8.73,2.26,25,1.89,42.37C1220.44,1850,1214.61,1855.29,1207.58,1855.29Zm-2.69-57.28h-.14c-8,.13-22.52,1.42-34.16,2.46-5.69.51-10.87,1-14.63,1.24h0a4.7,4.7,0,0,0-3.26,1.57,3,3,0,0,0-.74,2.31l4,37.18c.34,3.11,3.5,5.56,7.21,5.59l44.33.25h0c3.43,0,6.26-2.33,6.32-5.21.27-12.72.69-31.94-1.66-40.46C1211.46,1800.07,1208.38,1798,1204.89,1798Z"/>
            <g class="cls-23">
              <path class="cls-20" d="M1256.11,1814.93c-7.35,0-12,5-10.4,11.07s9,11,16.33,10.88l389.79-5.61c7.35-.1,13.27-3.91,13.15-8.45s-6.23-8.27-13.58-8.26Z"/>
            </g>
            <path class="cls-20" d="M1208,1950.28h-.08l-44.32-.25c-7.17,0-13.11-5-13.82-11.55l-4-37.17a9.72,9.72,0,0,1,2.26-7.31,11.39,11.39,0,0,1,7.91-4c3.73-.27,8.87-.73,14.52-1.23,12.36-1.1,26.37-2.35,34.64-2.49,6.61-.16,12.43,3.94,14,9.84,2.4,8.75,2.26,25,1.89,42.38C1220.81,1945,1215,1950.28,1208,1950.28Zm-2.69-57.28h-.14c-8,.13-22.52,1.42-34.16,2.45-5.69.51-10.87,1-14.63,1.25h0a4.64,4.64,0,0,0-3.26,1.57,3,3,0,0,0-.74,2.31l4,37.17c.34,3.17,3.45,5.57,7.21,5.59l44.33.25h0c3.43,0,6.26-2.33,6.32-5.21.27-12.71.69-31.93-1.65-40.46C1211.83,1895.06,1208.75,1893,1205.26,1893Z"/>
            <g class="cls-23">
              <path class="cls-20" d="M1256.48,1909.92c-7.35,0-12,5-10.4,11.08s9,11,16.33,10.87l389.79-5.6c7.35-.11,13.27-3.91,13.15-8.46s-6.23-8.26-13.58-8.26Z"/>
            </g>
          </g>
          <g>
            <path class="cls-20" d="M1847,1652.1h-.09l-44.32-.26c-7.17,0-13.11-5-13.82-11.54l-4-37.18a9.65,9.65,0,0,1,2.26-7.31,11.36,11.36,0,0,1,7.9-4c3.74-.27,8.87-.72,14.53-1.23,12.36-1.1,26.36-2.35,34.63-2.48,6.56-.2,12.43,3.94,14,9.84,2.41,8.74,2.27,25,1.89,42.37C1859.83,1646.84,1854,1652.1,1847,1652.1Zm-2.69-57.28h-.15c-8,.13-22.51,1.42-34.15,2.46-5.7.51-10.87,1-14.63,1.24h0a4.64,4.64,0,0,0-3.25,1.57,3,3,0,0,0-.75,2.31l4,37.17c.35,3.17,3.45,5.57,7.22,5.59l44.32.25c3.42,0,6.3-2.31,6.36-5.21.28-12.71.69-31.92-1.65-40.46C1850.85,1596.87,1847.77,1594.82,1844.29,1594.82Z"/>
            <g class="cls-23">
              <path class="cls-20" d="M1895.51,1611.74c-7.35,0-12,5-10.4,11.07s9,11,16.32,10.87l389.8-5.6c7.34-.1,13.26-3.91,13.14-8.46s-6.22-8.26-13.57-8.25Z"/>
            </g>
            <path class="cls-20" d="M1847.34,1747.09h-.07l-44.33-.25c-7.16,0-13.11-5-13.82-11.55l-4-37.17a9.71,9.71,0,0,1,2.26-7.32,11.38,11.38,0,0,1,7.91-4c3.72-.27,8.84-.73,14.48-1.23,12.37-1.1,26.4-2.35,34.67-2.49,6.68-.05,12.44,3.94,14.06,9.84,2.4,8.74,2.26,25,1.88,42.37C1860.2,1741.83,1854.38,1747.09,1847.34,1747.09Zm-2.68-57.28h-.15c-8,.13-22.53,1.43-34.19,2.47-5.68.5-10.84,1-14.59,1.23h0a4.68,4.68,0,0,0-3.26,1.57,3.12,3.12,0,0,0-.75,2.32l4,37.17c.35,3.16,3.45,5.56,7.22,5.59l44.32.25h0c3.43,0,6.26-2.33,6.32-5.21.28-12.72.69-31.93-1.65-40.46C1851.22,1691.87,1848.14,1689.81,1844.66,1689.81Z"/>
            <g class="cls-23">
              <path class="cls-20" d="M1895.88,1706.73c-7.35,0-12,5-10.4,11.08s9,11,16.32,10.87l389.8-5.61c7.35-.1,13.26-3.91,13.15-8.45s-6.23-8.26-13.58-8.26Z"/>
            </g>
            <path class="cls-20" d="M1847.71,1842.08h-.07l-44.33-.25c-7.17,0-13.11-5-13.82-11.55l-4-37.17a9.69,9.69,0,0,1,2.26-7.31,11.39,11.39,0,0,1,7.91-4h0c3.73-.27,8.87-.73,14.52-1.23,12.36-1.1,26.37-2.35,34.63-2.49,6.78-.14,12.44,3.94,14.06,9.84,2.4,8.75,2.26,25,1.89,42.38C1860.57,1836.83,1854.75,1842.08,1847.71,1842.08Zm-51.61-53.57a4.61,4.61,0,0,0-3.26,1.57,3.07,3.07,0,0,0-.75,2.31l4.05,37.17c.34,3.17,3.44,5.57,7.21,5.59l44.32.25h0c3.43,0,6.26-2.33,6.32-5.21.28-12.71.7-31.93-1.65-40.46-.79-2.91-3.81-5.07-7.5-4.92-8,.13-22.51,1.42-34.15,2.45-5.69.51-10.87,1-14.63,1.25Z"/>
            <g class="cls-23">
              <path class="cls-20" d="M1896.25,1801.72c-7.35,0-12,5-10.4,11.08s9,11,16.33,10.87l389.79-5.6c7.35-.11,13.26-3.91,13.15-8.46s-6.23-8.26-13.58-8.25Z"/>
            </g>
            <path class="cls-20" d="M1848.09,1937.08H1848l-44.33-.25c-7.16,0-13.1-5-13.82-11.55l-4-37.18a9.74,9.74,0,0,1,2.26-7.31,11.39,11.39,0,0,1,7.91-4h0c3.73-.26,8.87-.72,14.52-1.23,12.36-1.1,26.37-2.35,34.64-2.48,6.65-.09,12.43,3.94,14,9.84,2.4,8.74,2.26,25,1.89,42.37C1861,1931.82,1855.12,1937.08,1848.09,1937.08Zm-51.62-53.58a4.65,4.65,0,0,0-3.26,1.57,3,3,0,0,0-.74,2.31l4,37.18c.34,3.11,3.5,5.56,7.21,5.58l44.33.26h0c3.42,0,6.25-2.33,6.31-5.21.28-12.72.7-31.94-1.65-40.46-.79-2.91-3.82-5-7.5-4.93-8,.13-22.51,1.42-34.15,2.46-5.7.51-10.87,1-14.63,1.24Z"/>
            <g class="cls-23">
              <path class="cls-20" d="M1896.62,1896.72c-7.35,0-12,5-10.4,11.07s9,11,16.33,10.87l389.79-5.6c7.35-.1,13.27-3.91,13.15-8.46s-6.23-8.26-13.58-8.25Z"/>
            </g>
          </g>
          <g>
            <path class="cls-20" d="M1223.2,2126.45h-.08l-44.33-.25c-7.16,0-13.1-5-13.81-11.55l-4-37.18a9.74,9.74,0,0,1,2.26-7.31,11.34,11.34,0,0,1,7.91-3.95c3.73-.27,8.87-.73,14.52-1.23,12.36-1.11,26.37-2.36,34.64-2.49,6.6-.16,12.43,3.94,14,9.84,2.4,8.74,2.26,25,1.89,42.37C1236.06,2121.2,1230.23,2126.45,1223.2,2126.45Zm-2.69-57.28h-.14c-8,.13-22.52,1.42-34.16,2.46-5.69.51-10.87,1-14.63,1.24h0a4.7,4.7,0,0,0-3.26,1.57,3,3,0,0,0-.74,2.31l4,37.18c.34,3.16,3.44,5.56,7.21,5.58l44.33.26h0c3.43,0,6.26-2.33,6.32-5.21.27-12.72.69-31.93-1.65-40.46C1227.08,2071.23,1224,2069.17,1220.51,2069.17Z"/>
            <g class="cls-23">
              <path class="cls-20" d="M1271.73,2086.09c-7.35,0-12,5-10.4,11.07s9,11,16.33,10.87l389.79-5.6c7.35-.1,13.27-3.91,13.15-8.46s-6.23-8.26-13.58-8.25Z"/>
            </g>
            <path class="cls-20" d="M1223.57,2221.44h-.08l-44.32-.25c-7.17,0-13.11-5-13.82-11.55l-4-37.17a9.68,9.68,0,0,1,2.25-7.31,11.35,11.35,0,0,1,7.91-4c3.73-.27,8.88-.73,14.53-1.23,12.36-1.1,26.36-2.35,34.63-2.49,6.63-.12,12.43,3.94,14,9.84,2.4,8.73,2.26,25,1.89,42.37C1236.43,2216.19,1230.61,2221.44,1223.57,2221.44Zm-2.69-57.28h-.14c-8,.14-22.51,1.43-34.14,2.46-5.7.51-10.88,1-14.65,1.25h0a4.63,4.63,0,0,0-3.26,1.57,3.07,3.07,0,0,0-.74,2.31l4,37.17c.34,3.16,3.45,5.57,7.21,5.59l44.33.25h0c3.43,0,6.26-2.33,6.32-5.21.27-12.72.69-31.94-1.65-40.46C1227.45,2166.22,1224.37,2164.16,1220.88,2164.16Z"/>
            <g class="cls-23">
              <path class="cls-20" d="M1272.1,2181.08c-7.35,0-12,5-10.4,11.08s9,11,16.33,10.87l389.79-5.6c7.35-.11,13.27-3.92,13.15-8.46s-6.23-8.26-13.58-8.26Z"/>
            </g>
            <path class="cls-20" d="M1223.94,2316.44h-.08l-44.32-.26c-7.17,0-13.11-5-13.82-11.54l-4-37.18a9.68,9.68,0,0,1,2.25-7.31,11.39,11.39,0,0,1,7.91-4h0c3.73-.27,8.87-.73,14.53-1.23,12.36-1.1,26.36-2.35,34.63-2.48,6.53-.16,12.43,3.93,14,9.83,2.4,8.75,2.27,25,1.89,42.38C1236.8,2311.18,1231,2316.44,1223.94,2316.44Zm-51.62-53.58a4.68,4.68,0,0,0-3.26,1.57,3.07,3.07,0,0,0-.74,2.31l4,37.17c.35,3.17,3.45,5.57,7.22,5.59l44.32.25c3.46,0,6.3-2.31,6.36-5.21.28-12.71.69-31.93-1.65-40.46-.79-2.87-3.87-4.92-7.36-4.92h-.14c-8,.13-22.51,1.42-34.15,2.46-5.7.5-10.88,1-14.64,1.24Z"/>
            <g class="cls-23">
              <path class="cls-20" d="M1272.47,2276.08c-7.35,0-12,5-10.4,11.07s9,11,16.33,10.87l389.79-5.6c7.35-.11,13.27-3.91,13.15-8.46s-6.22-8.26-13.57-8.25Z"/>
            </g>
            <path class="cls-20" d="M1224.31,2411.43h-.08l-44.32-.25c-7.17,0-13.11-5-13.82-11.55l-4-37.17a9.67,9.67,0,0,1,2.25-7.31,11.35,11.35,0,0,1,7.91-4h0c3.73-.27,8.87-.73,14.53-1.23,12.35-1.11,26.36-2.35,34.63-2.49,6.62-.06,12.43,3.94,14.05,9.84,2.4,8.73,2.27,25,1.89,42.37C1237.17,2406.18,1231.35,2411.43,1224.31,2411.43Zm-51.61-53.58a4.7,4.7,0,0,0-3.27,1.58,3.06,3.06,0,0,0-.74,2.3l4,37.18c.35,3.16,3.45,5.56,7.22,5.59l44.32.25h0c3.43,0,6.26-2.33,6.32-5.21.28-12.72.69-31.94-1.65-40.46-.79-2.87-3.87-4.93-7.35-4.93h-.15c-8,.13-22.51,1.42-34.15,2.46-5.7.51-10.88,1-14.63,1.24Z"/>
            <g class="cls-23">
              <path class="cls-20" d="M1272.85,2371.07c-7.36,0-12,5-10.4,11.07s9,11,16.32,10.88l389.79-5.61c7.35-.1,13.27-3.91,13.15-8.45s-6.22-8.27-13.57-8.26Z"/>
            </g>
          </g>
          <g>
            <path class="cls-20" d="M1863.34,2113.24h-.08l-44.33-.25c-7.16,0-13.1-5-13.82-11.55l-4-37.17a9.72,9.72,0,0,1,2.25-7.31,11.43,11.43,0,0,1,7.92-4h0c3.73-.27,8.87-.73,14.52-1.23,12.36-1.1,26.37-2.35,34.64-2.49,6.66-.17,12.43,3.94,14,9.84,2.4,8.75,2.26,25,1.89,42.38C1876.2,2108,1870.37,2113.24,1863.34,2113.24Zm-51.62-53.57a4.61,4.61,0,0,0-3.26,1.57,3.07,3.07,0,0,0-.75,2.31l4,37.17c.34,3.17,3.44,5.57,7.21,5.59l44.33.25h0c3.43,0,6.25-2.33,6.31-5.21.28-12.71.7-31.93-1.65-40.46-.8-2.91-3.84-5-7.5-4.92-8,.13-22.51,1.42-34.15,2.45-5.7.51-10.87,1-14.63,1.25Z"/>
            <g class="cls-23">
              <path class="cls-20" d="M1911.87,2072.88c-7.35,0-12,5-10.4,11.08s9,11,16.33,10.87l389.79-5.6c7.35-.11,13.26-3.91,13.15-8.46s-6.23-8.26-13.58-8.26Z"/>
            </g>
            <path class="cls-20" d="M1863.71,2208.24h-.08l-44.33-.26c-7.16,0-13.11-5-13.82-11.54l-4-37.18a9.73,9.73,0,0,1,2.26-7.31,11.39,11.39,0,0,1,7.91-4c3.73-.27,8.87-.72,14.52-1.23,12.36-1.1,26.37-2.35,34.64-2.48,6.66-.12,12.43,3.93,14,9.84,2.4,8.74,2.26,25,1.89,42.37C1876.57,2203,1870.74,2208.24,1863.71,2208.24ZM1861,2151h-.15c-8,.13-22.51,1.42-34.15,2.46-5.69.51-10.87,1-14.63,1.24h0a4.65,4.65,0,0,0-3.26,1.57,3,3,0,0,0-.74,2.31l4,37.17c.34,3.17,3.44,5.57,7.21,5.59l44.33.25c3.5.09,6.3-2.31,6.36-5.21.27-12.71.69-31.93-1.66-40.45C1867.59,2153,1864.51,2151,1861,2151Z"/>
            <g class="cls-23">
              <path class="cls-20" d="M1912.24,2167.88c-7.35,0-12,5-10.4,11.07s9,11,16.33,10.87l389.79-5.6c7.35-.1,13.27-3.91,13.15-8.46s-6.23-8.26-13.58-8.25Z"/>
            </g>
            <path class="cls-20" d="M1864.08,2303.23H1864l-44.33-.25c-7.16,0-13.1-5-13.81-11.55l-4-37.17a9.72,9.72,0,0,1,2.26-7.31,11.31,11.31,0,0,1,7.91-4c3.73-.27,8.88-.73,14.53-1.23,12.36-1.11,26.36-2.35,34.63-2.49,6.64-.08,12.43,3.94,14,9.84,2.4,8.74,2.26,25,1.89,42.37C1876.94,2298,1871.12,2303.23,1864.08,2303.23Zm-51.62-53.58a4.68,4.68,0,0,0-3.26,1.57,3.07,3.07,0,0,0-.74,2.32l4,37.17c.34,3.16,3.45,5.56,7.21,5.59l44.33.25h0c3.43,0,6.26-2.33,6.32-5.21.27-12.72.69-31.93-1.65-40.46-.8-2.91-3.85-5-7.5-4.93-8,.13-22.51,1.42-34.14,2.46-5.7.51-10.89,1-14.65,1.24Z"/>
            <g class="cls-23">
              <path class="cls-20" d="M1912.61,2262.87c-7.35,0-12,5-10.4,11.08s9,11,16.33,10.87l389.79-5.61c7.35-.1,13.27-3.91,13.15-8.45s-6.23-8.26-13.58-8.26Z"/>
            </g>
            <path class="cls-20" d="M1864.45,2398.22h-.08L1820,2398c-7.16,0-13.1-5-13.81-11.55l-4-37.17a9.72,9.72,0,0,1,2.26-7.31,11.39,11.39,0,0,1,7.91-4c3.72-.27,8.85-.72,14.49-1.23,12.37-1.1,26.39-2.35,34.67-2.49,6.63-.05,12.43,3.94,14,9.84,2.4,8.75,2.26,25,1.89,42.38C1877.31,2393,1871.48,2398.22,1864.45,2398.22Zm-2.69-57.28h-.14c-8,.13-22.54,1.42-34.19,2.46-5.68.5-10.85,1-14.6,1.24h0a4.63,4.63,0,0,0-3.26,1.57,3,3,0,0,0-.74,2.31l4,37.17c.34,3.17,3.44,5.57,7.21,5.59l44.33.25c3.28,0,6.3-2.32,6.36-5.21.27-12.71.69-31.93-1.65-40.46C1868.33,2343,1865.25,2340.94,1861.76,2340.94Z"/>
            <g class="cls-23">
              <path class="cls-20" d="M1913,2357.86c-7.35,0-12,5-10.4,11.08s9,11,16.33,10.87l389.79-5.6c7.35-.11,13.27-3.91,13.15-8.46s-6.23-8.26-13.58-8.25Z"/>
            </g>
          </g>
        </g>
        <path class="cls-25" d="M1767.91,196.13c-50.24-34.65-93.79-33.79-124.42-24.62A61.16,61.16,0,0,0,1600.3,236l13.79,144.28,157.41,13.35S1866.42,264.1,1767.91,196.13Zm-68.75,116.72a39.24,39.24,0,1,1,39.08-39.39A39.25,39.25,0,0,1,1699.16,312.85Z"/>
        <path class="cls-20" d="M1629.56,319a3.34,3.34,0,0,1-3.33-3L1624,293a3.34,3.34,0,1,1,6.65-.64l2.2,23a3.34,3.34,0,0,1-3,3.64Zm-4.31-45a3.34,3.34,0,0,1-3.32-3l-1.67-17.45a57.91,57.91,0,0,1,40.83-60.93,117.15,117.15,0,0,1,57.28-2.58,3.34,3.34,0,0,1-1.31,6.55,110.47,110.47,0,0,0-54,2.43,51.22,51.22,0,0,0-36.1,53.9l1.67,17.44a3.34,3.34,0,0,1-3,3.65Z"/>
        <path class="cls-26" d="M1399.69,474.38l-.28-72.57A44.27,44.27,0,0,1,1445,357.38l500.39,15.18a43.08,43.08,0,0,1,41.68,40.31l4.45,69.71Z"/>
        <path class="cls-20" d="M1564.37,383.8a3.34,3.34,0,0,1,0-6.68l21.52-.09h0a3.34,3.34,0,0,1,0,6.68l-21.52.09Z"/>
        <path class="cls-20" d="M1426.67,451a3.35,3.35,0,0,1-3.35-3.33l-.11-29.35a40.68,40.68,0,0,1,40.52-40.84l79.1-.31h0a3.34,3.34,0,0,1,0,6.68l-79.1.31a34,34,0,0,0-33.87,34.13l.12,29.36a3.35,3.35,0,0,1-3.33,3.35Z"/>
        <path class="cls-27" d="M1242.82,448.43,2117.73,445a64.67,64.67,0,0,1,63.93,53.39l.75,4.27A55.54,55.54,0,0,1,2128,567.88l-897.61,3.5a36.1,36.1,0,0,1-36.21-37.7l1.77-40.18A47.16,47.16,0,0,1,1242.82,448.43Z"/>
        <rect class="cls-22" x="1131.49" y="658.28" width="1156.73" height="192.41" rx="12"/>
      </g>
      <g>
        <path class="cls-28" d="M390.27,2072.5s-39,217.15,230.9,229.38c302.13,13.69,847-612.79,1043.76-857.24,297.91-370.12,592.46-598.37,850.66-595.71s307,265.54,228.9,401.56c0,0,5.42-253.11-153.74-222.34s-390.92,204.49-925.82,798.36C1356.1,2169.39,979.46,2444.58,641.34,2427,314.53,2410,290.77,2197.55,390.27,2072.5Z"/>
        <g class="cls-29">
          <g class="cls-30">
            <path class="cls-20" d="M2399.76,1012.32a3.92,3.92,0,0,1-3.33-1.88L2287.37,836.35a4.26,4.26,0,0,1,1.16-5.74,3.89,3.89,0,0,1,5.51,1.21l109.05,174.09a4.25,4.25,0,0,1-1.16,5.74A3.87,3.87,0,0,1,2399.76,1012.32Z"/>
            <path class="cls-20" d="M2204.92,1135.31a3.94,3.94,0,0,1-3.32-1.85l-109-170.61a4.26,4.26,0,0,1,1.11-5.75,3.89,3.89,0,0,1,5.52,1.15l109,170.62a4.25,4.25,0,0,1-1.1,5.75A3.86,3.86,0,0,1,2204.92,1135.31Z"/>
            <path class="cls-20" d="M2045.54,1247.86a3.9,3.9,0,0,1-3.14-1.6l-106.29-142a4.27,4.27,0,0,1,.69-5.82,3.86,3.86,0,0,1,5.58.71l106.29,142a4.27,4.27,0,0,1-.69,5.82A3.87,3.87,0,0,1,2045.54,1247.86Z"/>
            <path class="cls-20" d="M1916.64,1367.53a3.85,3.85,0,0,1-2.63-1l-118.49-109.35a4.26,4.26,0,0,1-.34-5.85,3.86,3.86,0,0,1,5.61-.36l118.49,109.35a4.26,4.26,0,0,1,.34,5.85A3.88,3.88,0,0,1,1916.64,1367.53Z"/>
            <path class="cls-20" d="M2503.79,976.81a4,4,0,0,1-3.93-3.49c-.25-1.6-24.76-160.33-26.49-168.73a4.16,4.16,0,0,1,3.06-4.93,4,4,0,0,1,4.72,3.19c1.77,8.61,25.56,162.6,26.57,169.15a4.14,4.14,0,0,1-3.3,4.76A4.58,4.58,0,0,1,2503.79,976.81Z"/>
            <path class="cls-20" d="M2647,976.81a4.07,4.07,0,0,1-4-4.15V834.08a4,4,0,1,1,8,0V972.66A4.07,4.07,0,0,1,2647,976.81Z"/>
            <path class="cls-20" d="M1764.17,1552.94a3.84,3.84,0,0,1-2.71-1.11C1739.91,1531,1632.22,1426.62,1628.6,1421a4.25,4.25,0,0,1,1.11-5.75,3.87,3.87,0,0,1,5.47,1.08c4,5.27,80.88,80.26,131.69,129.45a4.27,4.27,0,0,1,.21,5.86A3.88,3.88,0,0,1,1764.17,1552.94Z"/>
            <path class="cls-20" d="M1619.54,1721.39a4,4,0,0,1-2.91-1.3l-120.25-133.42a4.27,4.27,0,0,1,.17-5.86,3.88,3.88,0,0,1,5.63.18l120.25,133.42a4.27,4.27,0,0,1-.17,5.86A3.89,3.89,0,0,1,1619.54,1721.39Z"/>
            <path class="cls-20" d="M1459.68,1931.58a3.94,3.94,0,0,1-3.14-1.59l-124.87-165.81a4.27,4.27,0,0,1,.68-5.82,3.88,3.88,0,0,1,5.59.71l124.87,165.8a4.27,4.27,0,0,1-.68,5.82A3.84,3.84,0,0,1,1459.68,1931.58Z"/>
            <path class="cls-20" d="M1304.74,2078.26a3.92,3.92,0,0,1-3.24-1.74L1193.62,1918.7a4.25,4.25,0,0,1,.93-5.78,3.87,3.87,0,0,1,5.55,1L1308,2071.71a4.25,4.25,0,0,1-.93,5.78A3.86,3.86,0,0,1,1304.74,2078.26Z"/>
            <path class="cls-20" d="M1177.41,2173.46a3.94,3.94,0,0,1-3.2-1.68l-111.42-157.19a4.27,4.27,0,0,1,.84-5.8,3.88,3.88,0,0,1,5.56.87l111.42,157.19a4.27,4.27,0,0,1-.84,5.8A3.9,3.9,0,0,1,1177.41,2173.46Z"/>
            <path class="cls-20" d="M1021.34,2278a3.91,3.91,0,0,1-3.2-1.68l-88.66-124.64a4.28,4.28,0,0,1,.82-5.81,3.89,3.89,0,0,1,5.57.86l88.66,124.65a4.26,4.26,0,0,1-.82,5.8A3.9,3.9,0,0,1,1021.34,2278Z"/>
            <path class="cls-20" d="M878.53,2349.86a3.94,3.94,0,0,1-3.42-2l-65.43-114.5a4.23,4.23,0,0,1,1.38-5.68,3.88,3.88,0,0,1,5.45,1.44L882,2343.6a4.25,4.25,0,0,1-1.39,5.68A3.75,3.75,0,0,1,878.53,2349.86Z"/>
            <path class="cls-20" d="M774.19,2377.51a4,4,0,0,1-3.57-2.3l-53-111.23a4.23,4.23,0,0,1,1.79-5.56,3.9,3.9,0,0,1,5.34,1.86l53,111.24a4.23,4.23,0,0,1-1.79,5.56A3.88,3.88,0,0,1,774.19,2377.51Z"/>
            <path class="cls-20" d="M655.69,2395.94a4,4,0,0,1-3.92-3.51l-17.69-117.95a4.14,4.14,0,0,1,3.32-4.74,4,4,0,0,1,4.54,3.46l17.69,118a4.13,4.13,0,0,1-3.32,4.74A4.32,4.32,0,0,1,655.69,2395.94Z"/>
            <path class="cls-20" d="M563.74,2386.72a4.26,4.26,0,0,1-.61,0,4.14,4.14,0,0,1-3.33-4.73l17.69-120.45A4,4,0,0,1,582,2258a4.13,4.13,0,0,1,3.33,4.73L567.67,2383.2A4,4,0,0,1,563.74,2386.72Z"/>
            <path class="cls-20" d="M478.85,2359.08a3.83,3.83,0,0,1-1.4-.27,4.19,4.19,0,0,1-2.33-5.33l33.6-93.43a3.94,3.94,0,0,1,5.12-2.43,4.21,4.21,0,0,1,2.33,5.34l-33.6,93.43A4,4,0,0,1,478.85,2359.08Z"/>
            <path class="cls-20" d="M395.72,2256.37a3.85,3.85,0,0,1-2.68-1.09,4.28,4.28,0,0,1-.25-5.86L456.46,2177a3.87,3.87,0,0,1,5.62-.25,4.27,4.27,0,0,1,.24,5.86L398.66,2255A3.92,3.92,0,0,1,395.72,2256.37Z"/>
            <path class="cls-20" d="M379.38,2151.49a4,4,0,0,1-3.51-2.19,4.23,4.23,0,0,1,1.63-5.61c20.9-11.68,61.5-34.49,65.6-37.23a3.89,3.89,0,0,1,5.5,1.26,4.26,4.26,0,0,1-1.21,5.73c-5.37,3.58-63.65,36.16-66.13,37.55A3.88,3.88,0,0,1,379.38,2151.49Z"/>
            <path class="cls-20" d="M2537.39,906.14a2.69,2.69,0,0,1-2.63-2.45l-9.29-85.07a2.75,2.75,0,0,1,2.34-3.06,2.68,2.68,0,0,1,2.93,2.44l9.29,85.06a2.74,2.74,0,0,1-2.34,3.06Z"/>
            <path class="cls-20" d="M2574.53,902.56a2.71,2.71,0,0,1-2.65-2.58l-5.3-81.48a2.65,2.65,0,1,1,5.29-.38l5.31,81.48a2.73,2.73,0,0,1-2.47,2.95Z"/>
            <path class="cls-20" d="M2614.32,906.14a2.71,2.71,0,0,1-2.65-2.77V834.08a2.65,2.65,0,1,1,5.3,0v69.29A2.71,2.71,0,0,1,2614.32,906.14Z"/>
            <path class="cls-20" d="M2469.74,912.3a2.66,2.66,0,0,1-2.54-2c-20.72-72.89-18.88-76.33-18.28-77.46a3.14,3.14,0,0,1,1.76-1.45,2.64,2.64,0,0,1,3.26,1.94,2.83,2.83,0,0,1-.18,1.95c.07,5.62,9.47,41.59,18.53,73.44a2.79,2.79,0,0,1-1.79,3.44A2.5,2.5,0,0,1,2469.74,912.3Zm-17.66-75.55Z"/>
            <path class="cls-20" d="M2435.26,923.89a2.66,2.66,0,0,1-2.53-1.94l-23.88-80.71a2.79,2.79,0,0,1,1.75-3.46,2.64,2.64,0,0,1,3.32,1.83l23.88,80.7a2.79,2.79,0,0,1-1.76,3.46A2.35,2.35,0,0,1,2435.26,923.89Z"/>
            <path class="cls-20" d="M2399.76,933a2.63,2.63,0,0,1-2.23-1.27l-44.08-71.22a2.83,2.83,0,0,1,.79-3.82,2.59,2.59,0,0,1,3.67.82L2402,928.78a2.84,2.84,0,0,1-.79,3.82A2.59,2.59,0,0,1,2399.76,933Z"/>
            <path class="cls-20" d="M2315.89,975.43a2.64,2.64,0,0,1-2.26-1.31l-46.42-78a2.84,2.84,0,0,1,.85-3.81,2.61,2.61,0,0,1,3.66.89l46.42,78a2.83,2.83,0,0,1-.86,3.81A2.56,2.56,0,0,1,2315.89,975.43Z"/>
            <path class="cls-20" d="M2254.87,1001a2.64,2.64,0,0,1-2.2-1.22l-50-77.05a2.83,2.83,0,0,1,.72-3.84,2.58,2.58,0,0,1,3.68.74l50,77a2.84,2.84,0,0,1-.71,3.84A2.59,2.59,0,0,1,2254.87,1001Z"/>
            <path class="cls-20" d="M2204.91,1033.94a2.6,2.6,0,0,1-2.2-1.22l-54.49-84.31a2.83,2.83,0,0,1,.72-3.84,2.58,2.58,0,0,1,3.68.75l54.49,84.32a2.82,2.82,0,0,1-.72,3.83A2.55,2.55,0,0,1,2204.91,1033.94Z"/>
            <path class="cls-20" d="M2120.91,1089.24a2.63,2.63,0,0,1-2.17-1.17l-53-78.3a2.84,2.84,0,0,1,.63-3.85,2.59,2.59,0,0,1,3.7.66l53.05,78.29a2.85,2.85,0,0,1-.63,3.86A2.6,2.6,0,0,1,2120.91,1089.24Z"/>
            <path class="cls-20" d="M2074.4,1115.56a2.63,2.63,0,0,1-2.21-1.23l-47.66-74.71a2.82,2.82,0,0,1,.74-3.83,2.58,2.58,0,0,1,3.67.77l47.67,74.7a2.85,2.85,0,0,1-.74,3.84A2.58,2.58,0,0,1,2074.4,1115.56Z"/>
            <path class="cls-20" d="M2037.35,1155.58a2.59,2.59,0,0,1-2.14-1.13l-54.39-77.37a2.85,2.85,0,0,1,.58-3.87,2.58,2.58,0,0,1,3.7.6l54.39,77.38a2.84,2.84,0,0,1-.58,3.86A2.56,2.56,0,0,1,2037.35,1155.58Z"/>
            <path class="cls-20" d="M1960.42,1226.08a2.61,2.61,0,0,1-2.06-1l-59.27-76a2.84,2.84,0,0,1,.39-3.89,2.58,2.58,0,0,1,3.73.41l59.26,76a2.85,2.85,0,0,1-.38,3.89A2.57,2.57,0,0,1,1960.42,1226.08Z"/>
            <path class="cls-20" d="M1916.64,1268.93a2.58,2.58,0,0,1-1.73-.67l-71.63-64.63a2.85,2.85,0,0,1-.27-3.9,2.59,2.59,0,0,1,3.75-.28l71.62,64.63a2.83,2.83,0,0,1,.27,3.89A2.57,2.57,0,0,1,1916.64,1268.93Z"/>
            <path class="cls-20" d="M1835.73,1358.78a2.64,2.64,0,0,1-1.74-.68l-71.57-65a2.84,2.84,0,0,1-.25-3.9,2.58,2.58,0,0,1,3.74-.27l71.57,65a2.85,2.85,0,0,1,.26,3.9A2.62,2.62,0,0,1,1835.73,1358.78Z"/>
            <path class="cls-20" d="M1810.53,1397.12a2.56,2.56,0,0,1-1.58-.54l-78.26-60.76a2.85,2.85,0,0,1-.54-3.87,2.58,2.58,0,0,1,3.71-.57l78.26,60.76a2.85,2.85,0,0,1,.54,3.87A2.61,2.61,0,0,1,1810.53,1397.12Z"/>
            <path class="cls-20" d="M1771.4,1445.73a2.59,2.59,0,0,1-1.73-.68l-73.37-66.21a2.85,2.85,0,0,1-.26-3.9,2.57,2.57,0,0,1,3.74-.28l73.36,66.21a2.84,2.84,0,0,1,.27,3.9A2.6,2.6,0,0,1,1771.4,1445.73Z"/>
            <path class="cls-20" d="M1683.2,1537.09a2.56,2.56,0,0,1-1.87-.81l-63.67-66.35a2.84,2.84,0,0,1,0-3.91,2.58,2.58,0,0,1,3.75,0l63.67,66.35a2.86,2.86,0,0,1,0,3.91A2.6,2.6,0,0,1,1683.2,1537.09Z"/>
            <path class="cls-20" d="M1651.37,1578.84a2.64,2.64,0,0,1-2-.93L1585.72,1503a2.84,2.84,0,0,1,.22-3.9,2.59,2.59,0,0,1,3.75.24l63.66,74.92a2.85,2.85,0,0,1-.22,3.91A2.63,2.63,0,0,1,1651.37,1578.84Z"/>
            <path class="cls-20" d="M1611.89,1621.41a2.63,2.63,0,0,1-1.83-.76c-24.53-24.33-62.07-61.26-65-63.29a2.84,2.84,0,0,1-.72-3.84,2.59,2.59,0,0,1,3.67-.76c4,2.82,59.37,57.64,65.66,63.88a2.85,2.85,0,0,1,.09,3.91A2.59,2.59,0,0,1,1611.89,1621.41Z"/>
            <path class="cls-20" d="M1534.65,1705.73a2.62,2.62,0,0,1-2-.9c-6-6.81-58.58-66.64-61.27-70.91a2.83,2.83,0,0,1,.76-3.83,2.6,2.6,0,0,1,3.67.79c1.9,3,37.37,43.64,60.75,70.21a2.85,2.85,0,0,1-.16,3.91A2.57,2.57,0,0,1,1534.65,1705.73Z"/>
            <path class="cls-20" d="M1486.9,1755.49a2.62,2.62,0,0,1-2.22-1.25l-43.77-69.68a2.83,2.83,0,0,1,.76-3.83,2.59,2.59,0,0,1,3.68.8l43.77,69.68a2.84,2.84,0,0,1-.77,3.83A2.61,2.61,0,0,1,1486.9,1755.49Z"/>
            <path class="cls-20" d="M1459.62,1809.4a2.59,2.59,0,0,1-1.92-.86l-70.88-77.41a2.84,2.84,0,0,1,.09-3.9,2.57,2.57,0,0,1,3.75.09l70.88,77.4a2.85,2.85,0,0,1-.09,3.91A2.62,2.62,0,0,1,1459.62,1809.4Z"/>
            <path class="cls-20" d="M1376.81,1896.48a2.61,2.61,0,0,1-2.17-1.17l-54.46-80.17a2.83,2.83,0,0,1,.63-3.85,2.59,2.59,0,0,1,3.7.66l54.46,80.17a2.83,2.83,0,0,1-.63,3.85A2.53,2.53,0,0,1,1376.81,1896.48Z"/>
            <path class="cls-20" d="M1334.81,1930.2a2.63,2.63,0,0,1-2.21-1.23l-53.49-82.9a2.84,2.84,0,0,1,.72-3.84,2.59,2.59,0,0,1,3.68.76l53.5,82.9a2.85,2.85,0,0,1-.73,3.84A2.52,2.52,0,0,1,1334.81,1930.2Z"/>
            <path class="cls-20" d="M1294.57,1966.82a2.58,2.58,0,0,1-2.07-1l-59.69-78.08a2.84,2.84,0,0,1,.42-3.88,2.58,2.58,0,0,1,3.73.44l59.69,78.08a2.84,2.84,0,0,1-.43,3.88A2.58,2.58,0,0,1,1294.57,1966.82Z"/>
            <path class="cls-20" d="M1223,2032.86a2.62,2.62,0,0,1-2.16-1.15l-53-76.94a2.84,2.84,0,0,1,.6-3.86,2.59,2.59,0,0,1,3.71.63l53,76.94a2.84,2.84,0,0,1-.61,3.86A2.53,2.53,0,0,1,1223,2032.86Z"/>
            <path class="cls-20" d="M1188.46,2061.92a2.6,2.6,0,0,1-2.15-1.15l-53.06-77a2.85,2.85,0,0,1,.61-3.86,2.58,2.58,0,0,1,3.7.64l53,77a2.82,2.82,0,0,1-.6,3.85A2.52,2.52,0,0,1,1188.46,2061.92Z"/>
            <path class="cls-20" d="M1161.94,2085.85a2.59,2.59,0,0,1-2.12-1.09l-51.73-71a2.84,2.84,0,0,1,.51-3.87,2.58,2.58,0,0,1,3.72.53l51.73,71a2.85,2.85,0,0,1-.51,3.87A2.58,2.58,0,0,1,1161.94,2085.85Z"/>
            <path class="cls-20" d="M1110.21,2138a2.61,2.61,0,0,1-2.06-1l-60-76.07a2.85,2.85,0,0,1,.36-3.89,2.59,2.59,0,0,1,3.74.38l60,76.07a2.85,2.85,0,0,1-.36,3.89A2.55,2.55,0,0,1,1110.21,2138Z"/>
            <path class="cls-20" d="M1066,2167.49a2.64,2.64,0,0,1-2.2-1.22l-53-81.63a2.84,2.84,0,0,1,.71-3.84,2.58,2.58,0,0,1,3.68.74l53.06,81.63a2.84,2.84,0,0,1-.71,3.84A2.59,2.59,0,0,1,1066,2167.49Z"/>
            <path class="cls-20" d="M1027.49,2197.35a2.61,2.61,0,0,1-2.13-1.11l-50.48-70.69a2.83,2.83,0,0,1,.54-3.86,2.58,2.58,0,0,1,3.71.56l50.49,70.69a2.85,2.85,0,0,1-.55,3.87A2.54,2.54,0,0,1,1027.49,2197.35Z"/>
            <path class="cls-20" d="M945.74,2255a2.62,2.62,0,0,1-2.24-1.26l-51.28-82.91A2.83,2.83,0,0,1,893,2167a2.59,2.59,0,0,1,3.66.82L948,2250.72a2.83,2.83,0,0,1-.79,3.82A2.53,2.53,0,0,1,945.74,2255Z"/>
            <path class="cls-20" d="M894.45,2276.6a2.63,2.63,0,0,1-2.24-1.27l-48.63-79.25a2.84,2.84,0,0,1,.8-3.82,2.6,2.6,0,0,1,3.67.84l48.63,79.25a2.83,2.83,0,0,1-.81,3.82A2.57,2.57,0,0,1,894.45,2276.6Z"/>
            <path class="cls-20" d="M813.1,2313.94a2.64,2.64,0,0,1-2.34-1.46l-38.91-75.58a2.82,2.82,0,0,1,1.08-3.74,2.61,2.61,0,0,1,3.6,1.13l38.9,75.58a2.82,2.82,0,0,1-1.08,3.74A2.6,2.6,0,0,1,813.1,2313.94Z"/>
            <path class="cls-20" d="M784.8,2325.77a2.63,2.63,0,0,1-2.25-1.29L745.42,2263a2.82,2.82,0,0,1,.83-3.81,2.58,2.58,0,0,1,3.65.87l37.14,61.5a2.83,2.83,0,0,1-.83,3.81A2.55,2.55,0,0,1,784.8,2325.77Z"/>
            <path class="cls-20" d="M721.13,2348.48a2.66,2.66,0,0,1-2.5-1.83l-24.76-72.34a2.79,2.79,0,0,1,1.61-3.53,2.62,2.62,0,0,1,3.39,1.67l24.76,72.34a2.79,2.79,0,0,1-1.61,3.53A2.5,2.5,0,0,1,721.13,2348.48Z"/>
            <path class="cls-20" d="M687.49,2357.7a2.67,2.67,0,0,1-2.57-2.1l-19.42-81.09a2.78,2.78,0,0,1,1.93-3.35,2.66,2.66,0,0,1,3.22,2l19.42,81.09a2.79,2.79,0,0,1-1.93,3.36A3,3,0,0,1,687.49,2357.7Z"/>
            <path class="cls-20" d="M618.56,2357.7a2.72,2.72,0,0,1-2.66-2.77v-81.09a2.66,2.66,0,1,1,5.31,0v81.09A2.71,2.71,0,0,1,618.56,2357.7Z"/>
            <path class="cls-20" d="M595.4,2357.7a2.71,2.71,0,0,1-2.65-2.77v-81.55a2.65,2.65,0,1,1,5.3,0v81.55A2.71,2.71,0,0,1,595.4,2357.7Z"/>
            <path class="cls-20" d="M540.75,2348.48a2.83,2.83,0,0,1-.41,0,2.75,2.75,0,0,1-2.22-3.15l10.61-71.88a2.67,2.67,0,0,1,3-2.31,2.75,2.75,0,0,1,2.22,3.15l-10.61,71.88A2.7,2.7,0,0,1,540.75,2348.48Z"/>
            <path class="cls-20" d="M512.45,2335.58a2.48,2.48,0,0,1-.8-.13,2.78,2.78,0,0,1-1.73-3.46c9.07-30.09,17.37-63.9,15.56-68.39a2.77,2.77,0,0,1,.67-3.79,2.65,2.65,0,0,1,3.74.73c4.45,6.58-8.94,53.32-14.91,73.1A2.67,2.67,0,0,1,512.45,2335.58Z"/>
            <path class="cls-20" d="M460.41,2313.94a2.57,2.57,0,0,1-1.4-.42,2.82,2.82,0,0,1-.85-3.81l35.24-58.95a2.59,2.59,0,0,1,3.65-.89,2.84,2.84,0,0,1,.85,3.81l-35.24,59A2.63,2.63,0,0,1,460.41,2313.94Z"/>
            <path class="cls-20" d="M436.4,2276.15a2.6,2.6,0,0,1-1.25-.33,2.83,2.83,0,0,1-1.09-3.74l31.84-61.87a2.6,2.6,0,0,1,3.59-1.13,2.83,2.83,0,0,1,1.08,3.75l-31.83,61.86A2.64,2.64,0,0,1,436.4,2276.15Z"/>
            <path class="cls-20" d="M395.73,2197.35a2.65,2.65,0,0,1-2.39-1.55,2.81,2.81,0,0,1,1.22-3.69l49.52-25.28a2.6,2.6,0,0,1,3.55,1.27,2.81,2.81,0,0,1-1.22,3.69l-49.52,25.28A2.54,2.54,0,0,1,395.73,2197.35Z"/>
            <path class="cls-20" d="M395.73,2165.89a2.63,2.63,0,0,1-2.22-1.25,2.83,2.83,0,0,1,.76-3.83l40.67-27.89a2.58,2.58,0,0,1,3.68.79,2.85,2.85,0,0,1-.76,3.83l-40.68,27.89A2.54,2.54,0,0,1,395.73,2165.89Z"/>
          </g>
        </g>
      </g>
      <g>
        <g>
          <g>
            <path class="cls-31" d="M451.57,2555c3.22-25.25,7.5-38.06,10.94-44.56-2.51-.26-5.08-.5-7.74-.68a5,5,0,0,0-5.56,4.27l-12.88,139.14c-.41,4.44,4.48,7.54,8.74,6C445.37,2640.85,446.6,2594.08,451.57,2555Z"/>
            <path class="cls-32" d="M508.78,2521.06a25.63,25.63,0,0,1,16.09,27.21l-1.51,11.58c-20.95,60.33-58.22,88.22-76.59,98.8a6.06,6.06,0,0,1-1.1.45c.3-18.38,1.53-65.15,6.5-104.19,3.22-25.25,7.5-38.06,10.94-44.56A176,176,0,0,1,508.78,2521.06Z"/>
          </g>
          <path class="cls-33" d="M499.51,2557.68l4.28-21.91c1-5.13,7.34-8.67,14.17-7.92l43.65,4.81-2.06,56.3-50.77-14.86C502,2573.35,498.51,2562.8,499.51,2557.68Z"/>
        </g>
        <g>
          <g>
            <path class="cls-34" d="M1425.61,2912.84c-23.9,8.77-37.23,10.86-44.59,10.8.93,2.36,1.89,4.74,3,7.19a5,5,0,0,0,6.35,3l129.45-52.62c4.13-1.67,4.63-7.44,1.32-10.53C1504.65,2878.85,1462.56,2899.29,1425.61,2912.84Z"/>
            <path class="cls-35" d="M1369.11,2877.7a25.63,25.63,0,0,1,16.75-26.81l11-4c63.2-9.18,105.12,11.07,123,22.51a6.65,6.65,0,0,1,.9.77c-16.46,8.2-58.54,28.63-95.49,42.19-23.9,8.77-37.24,10.86-44.59,10.8A176.19,176.19,0,0,1,1369.11,2877.7Z"/>
          </g>
          <path class="cls-36" d="M1405.89,2869.07l-21.42,6.29c-5,1.47-11.08-2.53-13.55-8.94l-15.84-41,50.94-24.09,10.18,51.91C1418.68,2859.69,1410.89,2867.6,1405.89,2869.07Z"/>
        </g>
        <path class="cls-37" d="M1100.26,2395.68S934.75,2671,850,2669.44s-316.9-70-316.9-70l12.55-82.2,244.74,15.3,78.44-209.83Z"/>
        <path class="cls-38" d="M808,2150.41s-59.29,213.87,95.29,254.1,281.63,78.35,281.63,78.35l169.41,374.81,72-16.94s-38.11-374.81-110.11-457.39-142-139-142-139Z"/>
        <path class="cls-39" d="M1069.33,1994.76c-4.68-6.78-162.24-152.42-59.84-214.86S1197.33,1967,1197.33,1967l159.73,1.8s18-32.19,31.47-24,32.5-.36,41.56,20.76-1.87,42.85-18.82,54S1157.6,2122.41,1069.33,1994.76Z"/>
        <path class="cls-40" d="M1069,1695.14s59.82,69.87,66.17,73c-104.82,12.71-235.25-45.6-235.25-45.6s85.86-40.16,90.68-96.27c26.29,1.27,73.63,0,73.63,0Z"/>
        <path class="cls-41" d="M935.88,1701.1s163.68,67.31,188.9,57.14c25.21,23.72,109.91,139.12,78.15,177.24-.66.79,26.75,299.77,1.23,328.62-9.52,10.75-35.7-.18-49.3-.36-37.62-.48-74.54-8.95-111.08-17.14-47.17-10.58-94.16-22.71-140.54-37.6-20.23-6.5-40.32-13.46-60.14-21.14-14.75-5.72-36.73-10.53-46.5-23.76-9.66-13.07,2.5-52.29,4.74-68.33,13.18-94.28,32.28-191.88,32.28-287.33C833.62,1738.56,935.88,1701.1,935.88,1701.1Z"/>
        <g>
          <path class="cls-42" d="M981.73,1620.67c-9.09,8.45-19.73,16.09-28,11.32-11.33-6.55-18.82-40.53-19.64-48.18s-32.07-92-17.54-112.88c8.11-11.66,17.53-13.52,28.5-4.55,1.89-2.18,2.78-5.73,5-7.88a241.92,241.92,0,0,1,94.12-55.51l-4.13,23.37a199.66,199.66,0,0,1,77.27-23.33,121.49,121.49,0,0,0-32.33,31.2c15.39-4.68,31.22-9.4,47.25-8.13,17.17,1.36,40.3,11.29,29.53,27.92-11.17,17.24-37.49,34.88-52.72,49.61q-54.86,53.05-112.79,102.79C992.8,1609.42,987.59,1615.21,981.73,1620.67Z"/>
          <path class="cls-43" d="M1116.38,1494.71s138.2,182.59,7.1,211.2c-113.05,24.66-137.82-83.12-137.82-83.12s-15.5-.28-25.6-22.41,1.51-58.18,28-52,31.54,41.76,31.54,41.76-6.16-81.87,19.06-87.14S1116.38,1494.71,1116.38,1494.71Z"/>
        </g>
        <path class="cls-44" d="M761.66,1805.63c7.56-3.12,182.1-125.33,221.12-12.81S761.66,1935.7,761.66,1935.7l-35.41,154.63s27.46,24.2,16.62,35.59-6.5,31.61-28.9,35.95-41.19-10.84-48.41-29.63S619.18,1864.39,761.66,1805.63Z"/>
        <path class="cls-45" d="M1380.87,1988.56a7.92,7.92,0,0,0,5.63-3.29c3.51-5,1.85-13.69,1.83-13.77a2.19,2.19,0,0,1,.77-2.08,2.23,2.23,0,0,1,2.21-.36s3.37,1.19,12.47-1.45c.93-.27,1.3-.59,1.32-.73.3-1.94-5.44-7.67-12.3-12.28a2.18,2.18,0,0,1,2.43-3.62c3.57,2.38,15.11,10.64,14.19,16.57-.23,1.42-1.17,3.31-4.43,4.25-1.85.54-3.43.9-4.9,1.19-.51,10-.45,32.13,4.92,37.54a2.63,2.63,0,0,0,2.15.93,2.18,2.18,0,1,1,.26,4.36H1407a7,7,0,0,1-5.08-2.22c-7.07-7.11-6.62-31.54-6.24-40a23.4,23.4,0,0,1-2.68.08c.28,3.61.17,9.68-2.92,14.08a12.24,12.24,0,0,1-8.57,5.11l-.32,0a2.18,2.18,0,0,1-.32-4.34Z"/>
        <path class="cls-46" d="M982.78,1792.82c-29.52-85.12-136.54-35.93-190.2-5.57,20.85,42,38.17,87.39,47.66,133.33C913.27,1902,1007.35,1863.69,982.78,1792.82Z"/>
      </g>
      <g>
        <path class="cls-47" d="M2094.59,1961.06a233.36,233.36,0,0,1-155.59,2.21c-56.29-18.85-147.66-22.89-286.13,39.17-271.48,121.67-261.89,652.56,123.46,732,503.28,103.7,739.36-145.59,782.8-324.93s-71.51-407.37-294.88-456.1C2191.1,1937.41,2134.94,1946,2094.59,1961.06Z"/>
        <path class="cls-48" d="M1746.78,2042.29c44.22,2.86,126.65,21.74,51.08,118.37s-138.95,256.21-106.68,359.68-177.64-24.42-189.62-162S1609.45,2033.4,1746.78,2042.29Z"/>
        <path class="cls-49" d="M2162.45,2021.52c0,25.16-64.86,45.56-144.86,45.56s-144.86-20.4-144.86-45.56,64.85,0,144.86,0S2162.45,1996.36,2162.45,2021.52Z"/>
        <path class="cls-50" d="M1980,2015.34s-46.09-191.32,172.43-313.79S2366.05,1568,2378,1632.78s77.87,294.38-161.58,393S1980,2015.34,1980,2015.34Z"/>
        <path class="cls-48" d="M2338.55,1639.89c-34.28,55.82-193.46,307.73-333.54,407.3,0,0,166.14,21.44,285.32-90.17,101.93-95.44,69.7-267.68,58.23-315.55A5.48,5.48,0,0,0,2338.55,1639.89Z"/>
        <path class="cls-51" d="M2007.75,2050.74c4.52,31.42,31.27-3.22,18.73-65.63s-25.42-210.83-115.52-184.89S1988.7,1918.14,2007.75,2050.74Z"/>
      </g>
      <g>
        <path class="cls-52" d="M2737.11,2752.15l-688.65,33.28a26.33,26.33,0,0,1-27.5-25L2015,2637.68a26.32,26.32,0,0,1,25-27.49l688.65-33.28a26.32,26.32,0,0,1,27.49,25l5.94,122.79A26.34,26.34,0,0,1,2737.11,2752.15Z"/>
        <g class="cls-53">
          <path class="cls-54" d="M2750.61,2623.63l-728,35.18a6.59,6.59,0,0,1-6.87-6.24l-1.48-30.7a6.57,6.57,0,0,1,6.24-6.87l728-35.19a6.59,6.59,0,0,1,6.87,6.24l1.48,30.7A6.58,6.58,0,0,1,2750.61,2623.63Z"/>
        </g>
        <g>
          <polygon class="cls-55" points="1791.35 2543.93 1861.81 2470.8 1958.36 2466.13 2032.7 2532.27 2048.21 2853.13 1977.68 2924.85 1874.04 2929.86 1806.86 2864.8 1791.35 2543.93"/>
          <polygon class="cls-56" points="1977.68 2924.85 1958.36 2466.13 2032.7 2532.27 2048.21 2853.13 1977.68 2924.85"/>
          <g class="cls-57">
            <polygon class="cls-58" points="1791.35 2543.93 1861.81 2470.8 1958.36 2466.13 2032.7 2532.27 1791.35 2543.93"/>
          </g>
          <g class="cls-59">
            <polygon class="cls-60" points="1806.86 2864.8 1874.04 2929.86 1977.68 2924.85 2048.21 2853.13 1806.86 2864.8"/>
          </g>
        </g>
        <g>
          <polygon class="cls-61" points="2881.54 2487.69 2804.35 2421.69 2707.81 2426.36 2640.18 2499.36 2655.69 2820.22 2732.81 2884.8 2836.45 2879.79 2897.04 2808.55 2881.54 2487.69"/>
          <polygon class="cls-56" points="2732.81 2884.8 2707.81 2426.36 2640.18 2499.36 2655.69 2820.22 2732.81 2884.8"/>
          <g class="cls-62">
            <polygon class="cls-63" points="2881.54 2487.69 2804.35 2421.69 2707.81 2426.36 2640.18 2499.36 2881.54 2487.69"/>
          </g>
          <g class="cls-64">
            <polygon class="cls-65" points="2897.04 2808.55 2836.45 2879.79 2732.81 2884.8 2655.69 2820.22 2897.04 2808.55"/>
          </g>
        </g>
      </g>
    </g>
  </g>
</svg>
