<svg xmlns="http://www.w3.org/2000/svg" xmlns:xlink="http://www.w3.org/1999/xlink" width="3700" height="2450.42" viewBox="0 0 3700 2450.42">
  <defs>
    <style>
      .cls-1 {
        fill: none;
      }

      .cls-2 {
        clip-path: url(#clip-path);
      }

      .cls-3 {
        fill: url(#Áåçûìÿííûé_ãðàäèåíò_36);
      }

      .cls-24, .cls-25, .cls-26, .cls-27, .cls-4 {
        fill: #fff;
      }

      .cls-5 {
        fill: #a5c6f1;
      }

      .cls-15, .cls-53, .cls-6 {
        fill: #6ca6d2;
      }

      .cls-27, .cls-6 {
        opacity: 0.61;
      }

      .cls-7 {
        fill: url(#Áåçûìÿííûé_ãðàäèåíò_36-2);
      }

      .cls-8 {
        fill: #c3e3f7;
      }

      .cls-9 {
        fill: #ab8974;
      }

      .cls-10 {
        fill: #2c4951;
      }

      .cls-11 {
        fill: #4b807f;
      }

      .cls-12 {
        fill: #6dada8;
      }

      .cls-13 {
        fill: #f0c7b7;
      }

      .cls-14 {
        fill: #f6e1da;
      }

      .cls-15, .cls-19 {
        opacity: 0.75;
      }

      .cls-16 {
        fill: #fcfbff;
      }

      .cls-17 {
        fill: #6e9de1;
      }

      .cls-18 {
        fill: #e4f8ff;
      }

      .cls-20 {
        fill: #f5e636;
      }

      .cls-21 {
        fill: #f6ea67;
      }

      .cls-22 {
        fill: #fcf892;
      }

      .cls-23 {
        fill: #f8e652;
      }

      .cls-24 {
        opacity: 0.32;
      }

      .cls-25 {
        opacity: 0.51;
      }

      .cls-26 {
        opacity: 0.46;
      }

      .cls-28 {
        fill: #4a80c9;
      }

      .cls-29 {
        fill: #dc8d82;
      }

      .cls-30 {
        fill: #ebb3a3;
      }

      .cls-31 {
        fill: #e7dab5;
      }

      .cls-32 {
        fill: #90bcd8;
      }

      .cls-33 {
        fill: #875c35;
      }

      .cls-34 {
        fill: #2a4a8f;
      }

      .cls-35 {
        fill: #b5885d;
      }

      .cls-36 {
        fill: #85512e;
      }

      .cls-37 {
        fill: #a87f55;
      }

      .cls-38 {
        fill: #3762b8;
      }

      .cls-39 {
        fill: #467bcc;
      }

      .cls-40 {
        fill: #e8b286;
      }

      .cls-41 {
        fill: #d89d75;
      }

      .cls-42 {
        fill: #2b4b99;
      }

      .cls-43 {
        fill: #3d65ae;
      }

      .cls-44 {
        fill: #f9f9f9;
      }

      .cls-45 {
        fill: #132247;
      }

      .cls-46 {
        fill: #4f81bb;
      }

      .cls-47 {
        fill: #3761b8;
      }

      .cls-48 {
        fill: #060a6d;
      }

      .cls-49 {
        fill: #1d2274;
      }

      .cls-50 {
        fill: #fbf370;
      }

      .cls-51 {
        fill: #edba92;
      }

      .cls-52 {
        fill: #5995bd;
      }

      .cls-54 {
        fill: #efe76a;
      }

      .cls-55 {
        fill: #d79924;
      }

      .cls-56 {
        fill: #ca946e;
      }
    </style>
    <clipPath id="clip-path">
      <rect class="cls-1" y="-107.58" width="3700" height="2713.58"/>
    </clipPath>
    <linearGradient id="Áåçûìÿííûé_ãðàäèåíò_36" data-name="Áåçûìÿííûé ãðàäèåíò 36" x1="-817.98" y1="1543.64" x2="2708.82" y2="981.99" gradientUnits="userSpaceOnUse">
      <stop offset="0" stop-color="#fff"/>
      <stop offset="1" stop-color="#8fb9f0"/>
    </linearGradient>
    <linearGradient id="Áåçûìÿííûé_ãðàäèåíò_36-2" x1="2650.37" y1="757.26" x2="1284.55" y2="768.41" xlink:href="#Áåçûìÿííûé_ãðàäèåíò_36"/>
  </defs>
  <g class="cls-2">
    <g>
      <path class="cls-3" d="M3437.47,1115.18c-75.68,450.76-387.66,743.19-466.12,814.78-374.21,341.42-832.82,404.13-1145.39,398.88-166.55-2.8-291.64-24.89-340.43-34.4-118-23-226.65-57.45-326.59-101a1523.56,1523.56,0,0,1-304.07-176.74c-114.46-85.42-213.09-183.3-297.72-286.8-315.67-386-436.47-850.07-456.72-1036.6-16-147.38-6.54-308,78.39-425.38,78.25-108.11,216.1-181,361.36-164.16,54.48,6.3,127.26,19,417.39,283.87,226.49,206.81,273.83,280.23,422.22,326.2,129.7,40.18,235.32,28,268.22,23.36,35-4.94,153.81-24.81,304.15-124.75,214.49-142.58,198-252,359.34-377.26,196-152.28,482.95-194.74,702.18-108.47,185.57,73,274.71,219.41,317.61,289.87C3503,698.56,3454.61,1013.09,3437.47,1115.18Z"/>
      <g id="light">
        <g>
          <polygon class="cls-4" points="2904.31 570.39 2904.31 865.54 3005.39 996.72 3005.39 672.42 2904.31 570.39"/>
          <polygon class="cls-4" points="2904.31 1200.77 3005.39 1393.89 3005.39 1029.51 2904.31 898.33 2904.31 1200.77"/>
          <path class="cls-4" d="M2904.31,1521.22V1255.43l101.08,192.91q-.13,50.85-.25,101.68Z"/>
          <polygon class="cls-4" points="3032.14 690.64 3032.14 1029.51 3158.87 1240.85 3158.87 821.81 3032.14 690.64"/>
          <path class="cls-4" d="M3118.36,1587l-86.22-173.18V1062.3s126.73,196.77,126.73,207.7v333.82Z"/>
          <path class="cls-4" d="M3019.94,1558.9q3-65.87,5.92-131.72l78.44,155.4Z"/>
        </g>
        <g>
          <path class="cls-4" d="M1129.5,1460.27l359.58,259.23,321.27-.23L1333,1461Z"/>
          <path class="cls-4" d="M1850,1754.94l918.5,446.78-473.85,100.34L1515,1754.94Z"/>
          <path class="cls-4" d="M1477.37,1521.06h170.45c-7.93,0-158.56-59.46-158.56-59.46H1370.34Z"/>
          <polygon class="cls-4" points="1594.31 1588.45 1495.2 1536.92 1675.57 1536.92 1859.9 1588.45 1594.31 1588.45"/>
          <path class="cls-4" d="M1832.15,1703.41c-15.86,0-200.18-97.12-200.18-97.12h259.64l287.4,97.12Z"/>
          <path class="cls-4" d="M1859.9,1731.16l885.6,414.11,254.07-150.5-792.81-263.61Z"/>
          <polygon class="cls-4" points="1648.08 1461.6 2062.73 1577.88 1867.17 1577.88 1515.69 1461.6 1648.08 1461.6"/>
          <polygon class="cls-4" points="1883.86 1588.45 2225.74 1703.41 2478.44 1703.41 2094.94 1588.45 1883.86 1588.45"/>
          <polygon class="cls-4" points="3135.45 1994.77 2258.45 1717.44 2564.66 1717.44 3358.42 1928.52 3135.45 1994.77"/>
          <path class="cls-4" d="M1714.41,1461.6c8.91,6.12,362.69,101.09,362.69,101.09h651.07l-615.4-101.09Z"/>
          <polygon class="cls-4" points="2221.28 1588.45 3170.02 1806.63 3188.97 1731.16 2463.58 1588.45 2221.28 1588.45"/>
          <path class="cls-4" d="M2838.16,1574.74h-330L3189,1703.41q34.7-40.74,69.41-81.47Z"/>
          <path class="cls-4" d="M2185,1459.62l410.28,61.44,285.59,6.76-440.18-68.2Z"/>
          <path class="cls-4" d="M3136.86,1601.82l-488.11-64.9h266.71Z"/>
        </g>
        <path class="cls-4" d="M1826,2328.84c-166.55-2.8-291.64-24.89-340.43-34.4-118-23-226.65-57.45-326.59-101L960.17,1459.57H1107.9Z"/>
        <path class="cls-4" d="M854.87,2016.75c-114.46-85.42-213.09-183.3-297.72-286.8l109.64-270.38L834,1461.66Z"/>
      </g>
      <ellipse class="cls-5" cx="624.19" cy="1654.73" rx="348.17" ry="86.21"/>
      <ellipse class="cls-6" cx="3381.06" cy="1711.34" rx="318.94" ry="46.62"/>
      <g id="window">
        <rect class="cls-7" x="1195.97" y="462.64" width="1389.62" height="601.64"/>
        <path class="cls-8" d="M1154.21,486.92V1092H2632.49V495.86c0-46.2-37-83.65-82.56-83.65H1228C1187.22,412.21,1154.21,445.65,1154.21,486.92Zm106.91,560.28V531.73h261.74V1047.2Zm336.08,0V531.73H1859V1047.2Zm336.09,0V531.73H2195V1047.2Zm597.83,0H2269.37V531.73h261.75Z"/>
        <path class="cls-4" d="M1202.77,475.71v586.43h1382V475.71Zm325,571.49h-265.2V531.73h265.2Zm340.53,0h-265.2V531.73h265.2Zm340.53,0h-265.2V531.73h265.2Zm340.53,0H2284.11V531.73h265.21Z"/>
        <g>
          <rect class="cls-4" x="1387.66" y="531.73" width="14.94" height="530.4"/>
          <rect class="cls-4" x="1262.53" y="696.08" width="265.2" height="14.94"/>
          <rect class="cls-4" x="1262.53" y="879.11" width="265.2" height="14.94"/>
        </g>
        <g>
          <rect class="cls-4" x="1728.19" y="531.73" width="14.94" height="530.4"/>
          <rect class="cls-4" x="1603.06" y="696.08" width="265.2" height="14.94"/>
          <rect class="cls-4" x="1603.06" y="879.11" width="265.2" height="14.94"/>
        </g>
        <g>
          <rect class="cls-4" x="2068.72" y="531.73" width="14.94" height="530.4"/>
          <rect class="cls-4" x="1943.59" y="696.08" width="265.2" height="14.94"/>
          <rect class="cls-4" x="1943.59" y="879.11" width="265.2" height="14.94"/>
        </g>
        <g>
          <rect class="cls-4" x="2409.25" y="531.73" width="14.94" height="530.4"/>
          <rect class="cls-4" x="2284.12" y="696.08" width="265.2" height="14.94"/>
          <rect class="cls-4" x="2284.12" y="879.11" width="265.2" height="14.94"/>
        </g>
        <rect class="cls-8" x="1053.49" y="1082.44" width="1660.7" height="87.25" rx="43.62"/>
      </g>
      <g id="the_plant" data-name="the plant">
        <path class="cls-9" d="M3169.9,1515.39c0,3.41,5.29,6.67,14.94,9.66,15.07,4.69,40.75,8.72,73.44,11.68,36.15,3.26,80.86,5.2,129.28,5.22,100.44,0,185-8.2,210.09-19.44,4.94-2.21,7.58-4.54,7.58-7s-3-5-8.49-7.35c-26.19-11-109.92-19.16-209.16-19.2-53.53,0-102.55,2.31-140.46,6.19-26.52,2.72-47.61,6.19-61,10.16C3175.67,1508.45,3169.91,1511.84,3169.9,1515.39Z"/>
        <g>
          <path class="cls-10" d="M3289.28,627.59c-2.56.58,27.7,121.09,51,272.93a3024,3024,0,0,1,34.59,404.77l14.32-18.39A2427.57,2427.57,0,0,0,3349.49,878C3324.94,744.22,3291.81,627,3289.28,627.59Z"/>
          <g>
            <path class="cls-11" d="M3332.55,648c-4.73,5.18-9.76,10.21-15,15q-3.41,3.18-7,6.16c-2.67,2.3-5.37,4.51-8.16,6.69-1,.76-2,1.53-3,2.3q-4.47,3.44-9.11,6.65c-20.94-4.06-81.78-18.71-128.76-73.65-73.07-85.43-48.81-193.57-45.92-205.47,50-15,62-24.5,61.34-30.64-.76-7.14-18.27-7-30.65-21.47-11.13-13-12.2-31-10.72-46l65.49,25.11c1,.36,2,.73,2.94,1.13l3.62,1.38c1.72-1.13,3.47-2.23,5.18-3.37l11-7.17c4.2-2.73,8.43-5.45,12.63-8.21.62-.37,1.2-.77,1.81-1.17l18.39,32.21c-2.85,3-5.71,6-8.59,9-3.9,4.11-7.79,8.25-11.69,12.35l-7.33,7.73a64.15,64.15,0,0,0,10.21,2.61,68.31,68.31,0,0,0,15.67.92,54.94,54.94,0,0,0,26.25-8.11,57,57,0,0,0,19.94-21.46c16.65,10.77,67.41,46.7,84.28,112C3401.68,525.42,3381.11,595,3332.55,648Z"/>
            <path class="cls-10" d="M3299.39,678.18q-4.47,3.44-9.11,6.65c-20.94-4.06-81.78-18.71-128.76-73.65-73.07-85.43-48.81-193.57-45.92-205.47,50-15,62-24.5,61.34-30.64-.76-7.14-18.27-7-30.65-21.47-11.13-13-12.2-31-10.72-46l65.49,25.11Z"/>
            <path class="cls-10" d="M3332.55,648c-4.73,5.18-9.76,10.21-15,15q-3.41,3.18-7,6.16L3212.8,331.85l11-7.17c4.2-2.73,8.43-5.45,12.63-8.21l11.61,40.08c-3.9,4.11-7.79,8.25-11.69,12.35l-7.33,7.73a64.15,64.15,0,0,0,10.21,2.61,68.31,68.31,0,0,0,15.67.92Z"/>
          </g>
          <path class="cls-10" d="M3437.57,418.11a28.2,28.2,0,0,1-49.84,16.08,88.54,88.54,0,0,0-36,16.08c-27,20.41-33.12,50.17-34.52,58.25a134,134,0,0,0,12.25,22.23c19.42,28.43,45.53,42.9,61.31,49.86a213.85,213.85,0,0,1,11.52-56c4.52-12.68,8.35-19.19,11.51-23.76,8.74-12.62,16.11-15.86,21.48-22.22C3442.43,470.15,3448,453.62,3437.57,418.11Z"/>
          <path class="cls-10" d="M3390.74,580.61q-6.57,116.13-13.12,232.27l-1.26-.09a55,55,0,0,1-15.6-3.75c-14.14-5.74-22.75-16.47-30.2-29.2-6.28-10.71-11.7-22.79-18.84-34.44-9.19-15-24.89-35.09-52.88-54.45a336.12,336.12,0,0,1,36.86-149.48,175.65,175.65,0,0,0,41.39,25.32c4.78,2.08,9.44,3.83,13.95,5.34a176.15,176.15,0,0,0,39.64,8.48Z"/>
          <path class="cls-11" d="M3477.42,450.32A306.52,306.52,0,0,1,3505,527c2.19,10.2,8.6,42.53,6.1,85.86-2.38,41.08-4,68.72-22.27,95-11.88,17.09-20.55,18.91-49.85,43.68a520.28,520.28,0,0,0-61.35,61.3c7.47-114.3,13.46-200.21,14.66-246.07.4-15.34.63-40.08,17.21-58.91,9.26-10.53,18.32-13.19,38.79-30A285.08,285.08,0,0,0,3477.42,450.32Z"/>
          <path class="cls-12" d="M3390.68,580.61q-7.12,116.08-14.32,232.18a55,55,0,0,1-15.6-3.75c-14.14-5.74-22.75-16.47-30.2-29.2L3351,572.13A176.15,176.15,0,0,0,3390.68,580.61Z"/>
          <path class="cls-11" d="M3413.77,500.89c-3.95,21.24-9.35,53.09-13.83,92a1360.49,1360.49,0,0,0-7.75,212.34c3.71,107.23,3.53,312.1,1.3,595.65l-19.93,4.59c5-126.49,5.33-228.19,4.71-298.2-.46-52.73-1.66-108-1.45-206.22.08-39.06.43-107.65,4.67-188.58,5.18-98.8,8.59-71.84,8.48-108.09,0-14.93-.69-39,8.77-68.79A187.63,187.63,0,0,1,3413.77,500.89Z"/>
          <path class="cls-12" d="M3105.52,713.12a31.63,31.63,0,0,1,3.05,18.4,32.43,32.43,0,0,1-12.27,20.69L3146.12,776c3.24-1.42,16.62-7.73,23-23,9.09-21.75-4.41-41.6-5.35-42.94Z"/>
          <path class="cls-12" d="M3251.93,737.71a57.94,57.94,0,0,1-1.55,24.53c-9.46,32.61-45.76,44-49.84,45.21l-45.22-30.69a45.66,45.66,0,0,0,16.1-15.32c8.94-14.25,6.85-29,6.15-33Z"/>
          <path class="cls-12" d="M3261.11,783.71a76.21,76.21,0,0,1-15.34,16.09c-20.27,15.77-43.07,16.67-52.18,16.5q26.43,39,54.44,78.56,14.56,20.55,29.12,40.64c13.33-1,21.91-5.69,26.83-9.19,22.9-16.27,30.6-53.17,18.44-92Z"/>
          <path class="cls-10" d="M3057.21,735.84A735,735,0,0,0,3143,813.56c24.91,19.13,52.25,37.42,77.65,73.62a250,250,0,0,1,18.39,30.67l46.5,25.32c-6.25-27.67-21-74.57-58.73-119.36-12.75-15.15-37.91-44.34-81.74-65.45A232.78,232.78,0,0,0,3057.21,735.84Z"/>
          <path class="cls-11" d="M3374.77,1565.94a1980.93,1980.93,0,0,0-103.6-668.6l-44.32-73.53a691.73,691.73,0,0,1,75.59,124.73C3339,1026.4,3348,1096,3367.76,1199c28.18,147,32.86,281.13,32.56,367Z"/>
          <path class="cls-11" d="M3328,979.21a212.55,212.55,0,0,0,83.78,86.92,182.47,182.47,0,0,1,9.22-49.06c21.79-64.79,74.58-98.66,94.86-110.22-5,2.82-26.54,14.38-53.93,8A75.43,75.43,0,0,1,3421,889.3c-2,3.19-7.58,13-5.12,24.53,3.23,15.11,19,27.08,38.83,27.61-2.44,1.08-17.61,7.45-33.73,0a40.71,40.71,0,0,1-18.39-17.38l-20.45,20.43a52.08,52.08,0,0,0,43.94,34.77c-3.3,1.08-20.8,6.41-39.26-3-19.93-10.22-25.35-29.69-26.15-32.75Z"/>
          <path class="cls-10" d="M3558,894.47a161.5,161.5,0,0,1-11.26,63.37c-32.39,80.8-121.7,104.92-135,108.29-.34-17,1.29-55.49,25.59-94C3477.37,908.66,3546.46,896.33,3558,894.47Z"/>
          <path class="cls-10" d="M3422.45,1002.28c2.71.43-3.47,47.9-7.63,90.43-10.61,108.48-8.83,202.47-5.26,390.45.68,35.95,1.47,65.27,2,83.81l-20.45,6.13c1.66-163.52,3.66-289.43,3.6-364.91a803.87,803.87,0,0,1,12.81-144.54C3412.33,1037.07,3420.1,1001.91,3422.45,1002.28Z"/>
          <path class="cls-12" d="M3429.15,1029.34a115.19,115.19,0,0,0,48,94.05,763.46,763.46,0,0,1,75.68-122.62c12.26-16.2,24.61-31.17,36.82-45-11.61-2.68-54.21-11-99.16,12.22C3453.08,987.41,3435.22,1017.75,3429.15,1029.34Z"/>
          <path class="cls-10" d="M3608.07,914.93c16.37,23.78,16.84,43.52,16.33,52.13-2.57,43.7-47.14,85.19-111.45,96a58.89,58.89,0,0,0,51.11-3l-86.9,63.33a338.73,338.73,0,0,1,24.56-76.65C3532.62,979.3,3579,937.15,3608.07,914.93Z"/>
          <path class="cls-10" d="M3420.77,1566c.87-61.09,4.05-112.57,7.21-151.28,6.63-81.22,12.48-148.79,35.87-233,9.83-35.41,20.09-64.15,27.63-83.8a371.39,371.39,0,0,0-26.6,42.91c-36.24,68.52-40,128.1-47.1,218.72-3.27,41.93-8.88,111.66-17.46,206.47Z"/>
          <path class="cls-10" d="M3119.42,1088.5c-12.05,4.29-30.36-10.71-37.81-26.59-2.7-5.76-6.25-13.35-3.05-19.42,5.33-10.12,25.82-9.08,44-8.16a172.41,172.41,0,0,1,29.64,4.1,272,272,0,0,0-15.34,23.5C3126,1080.51,3125.6,1086.3,3119.42,1088.5Z"/>
          <path class="cls-12" d="M3289.07,1160.12c-4.59,10.46-15.73,16-16.36,16.34-14.07,6.83-28.68,1.54-35.78-1-30.35-11-43.13-42.54-46-50.1q-1.53-28.62-3.05-57.24l-65.4-33.76,34.75-2c27.61,6.3,63.73,19.9,94,50.12C3258.58,1089.7,3301.27,1132.3,3289.07,1160.12Z"/>
          <path class="cls-11" d="M3278.86,1134.56c5.69,2.69,15.52,6.19,25.55,3.08,25.09-7.78,28.23-49.68,28.64-55.19.67-9,.52-25.39-8.16-45l-31.68-11.25c-.36,1-6.77,18.15-10.23,17.37-3.23-.73-2.15-16.74-2-18.4L3231.87,1064l25.57-37.8-29.64-6.15c1.2,1.9,4.95,8.34,3.06,15.33-2.51,9.25-14,16.17-27.61,14.3.92-.62,10.27-7.22,10.23-18.39a21.45,21.45,0,0,0-4.08-12.27l-52.14,13.27a258.5,258.5,0,0,1,23.51,11.25C3228.13,1069.24,3259.24,1105.32,3278.86,1134.56Z"/>
          <path class="cls-11" d="M3208.11,1060.68c-.23.22,41.34,34.32,74.83,94.32,18.5,33.14,27,60.78,31.66,75.65,35.78,115.61,34.84,311.36,34.62,337.32l24.52,5.12c-1.06-71.65-6.21-131.29-11.17-174.79-12.41-108.93-19.28-164.59-52-222.84C3268.07,1099.94,3208.36,1060.43,3208.11,1060.68Z"/>
        </g>
        <path class="cls-13" d="M3605.87,1533.67a189.51,189.51,0,0,1-2,27.2c-14.45,98.2-105.77,173.87-216.24,173.82-120.48,0-218.11-90.12-218.07-201.19q0-1.5,0-3,.11-6.83.7-13.52c1.4,2.83,6.43,5.53,14.54,8,13.11,4.08,34.25,7.66,61.06,10.47q6,.63,12.38,1.2c36.14,3.27,80.86,5.21,129.28,5.23,100.44,0,185-8.2,210.09-19.44,4.28-1.91,6.83-3.92,7.44-6,.35,3.78.57,7.58.69,11.41v0c0,.16,0,.33,0,.5C3605.84,1530.21,3605.87,1531.93,3605.87,1533.67Z"/>
        <path class="cls-14" d="M3586.37,1587.93a198.7,198.7,0,0,1-60.47,52.22c-40,22.28-88.84,31.55-133.42,19.39-62.47-17-114.49-69.38-146.92-123.93l.34-.09q6,.63,12.38,1.2c36.14,3.27,80.86,5.21,129.28,5.23,100.44,0,185-8.2,210.09-19.44,4.28-1.91,6.83-3.92,7.44-6-.08-.86-.16-1.72-.26-2.58l0-.11s0,0,0-.08,0,.13,0,.21c.09.85.18,1.71.25,2.55.37,4,.6,7.74.69,11.42v0c0,.16,0,.33,0,.5C3606.25,1550.62,3601.35,1568.46,3586.37,1587.93Z"/>
      </g>
      <g id="shadow">
        <g>
          <path class="cls-15" d="M1120.18,631.66a94.65,94.65,0,0,1-37.84,8.62,95.6,95.6,0,0,1-34.55-5.75L982,597.2,819.09,681.92,954,964.78l-29.61,4.31L792.76,693.4q-2.46-8.61-4.94-17.23L986.91,569.92a288.69,288.69,0,0,1,77.33-18.67,295.92,295.92,0,0,1,70.75,1.44Q1127.58,592.17,1120.18,631.66Z"/>
          <g id="lamp">
            <path class="cls-4" d="M1051.21,567.34,877.16,674.55l9.36,11.62,175-109.14Z"/>
            <circle class="cls-4" cx="877.16" cy="687.78" r="13.24"/>
            <path class="cls-4" d="M964,920.6,870.38,695.21l12.27-.64,93.64,222.16Z"/>
            <circle class="cls-4" cx="970.32" cy="920.76" r="10.49" transform="translate(-134.96 167.32) rotate(-9.22)"/>
            <path class="cls-4" d="M915.91,959.35h112.37a9.37,9.37,0,0,0,0-18.73H915.91a9.37,9.37,0,1,0,0,18.73Z"/>
            <path class="cls-4" d="M1153.89,611.26a135.77,135.77,0,0,0-62.64-59.42l-29.71,18.73c.06,4.18.26,8.49.65,12.92a188.22,188.22,0,0,0,22.6,73.62Z"/>
            <path class="cls-4" d="M1063.1,569.43l25.17-15.79a8.39,8.39,0,0,0-8.92-14.22l-25.17,15.78a8.4,8.4,0,0,0,8.92,14.23Z"/>
            <path class="cls-16" d="M886.45,719.86a4.7,4.7,0,0,0,6.62.21l58.22-54.51a4.69,4.69,0,0,0-6.41-6.84l-58.22,54.52A4.7,4.7,0,0,0,886.45,719.86Z"/>
          </g>
          <rect class="cls-17" x="96.77" y="949.99" width="930.27" height="19.05" transform="translate(1123.81 1919.03) rotate(180)"/>
          <rect class="cls-18" x="96.77" y="979.37" width="930.27" height="14.85" transform="translate(1123.81 1973.6) rotate(180)"/>
        </g>
        <g class="cls-19">
          <path class="cls-6" d="M537.67,706.57c.22.73.47,1.41.66,1.91a28.56,28.56,0,0,0,7.51,10.93c3.63,3.43,6.57,6.21,11.47,7.24a17.88,17.88,0,0,0,11.79-1.47,19.73,19.73,0,0,0,2.74-1.66,19.37,19.37,0,0,1,4,5.66c.51,1.16,2.84,6.79,6.69,14.92,2.59,5.49,5.59,11.82,7.2,14.4,3.4,5.46,9.2,8,15.82,9.43.69,3.08,1.4,6.23,2.12,9.43-3.1-.78-6-1.59-8.68-2.4q5.28,34.1,10.58,68.2a63.9,63.9,0,0,0,13.35,99,63,63,0,0,0,11.18,5.31,192.43,192.43,0,0,0,42.9.12A63.89,63.89,0,0,0,701.42,842.7q5.37-33.87,10.73-67.74c-1.56.47-3.2.95-4.92,1.42a242.17,242.17,0,0,1,54.4-45.5c30-18.3,58.49-26.37,57.87-28.16-.2-.56-3.15-.18-7.91.91a12,12,0,0,0,4.46-4.28,15.56,15.56,0,0,0,1.61-3.66,11.59,11.59,0,0,0,4.92-2.61c.65-.6,4.37-4,3.09-7.33-1.13-2.93-5.2-3.45-5.4-3.48a10.1,10.1,0,0,0-.39-7.71c-1.92-3.7-6.43-5.79-11.19-5,4.21-5,3.34-7.22,3.09-7.71-1-1.91-4.53-2.53-9.63-1.84a15.26,15.26,0,0,0-5.13-2.31c-9.41-2.44-18.48,4.81-22.12,7.72-3.11,2.49-11.48,9.38-13.37,20.58-.68,4-.61,9.18.57,11.78a15,15,0,0,0-.71,2.94Q732,718.83,702.66,737c9.22-47,8-49.79,7.43-50-2.06-.51-10.6,26.36-18,50.93q-2.28,4.2-4.48,8.31l-8.11,5a599.48,599.48,0,0,1,22.12-72.4c2-2.4,4.9-5.83,9.09-10.84,3.56-4.26,6-7.17,5.79-11.19a10,10,0,0,0-1.49-4.72c-.3-.55-.7-1.21-1.09-2.09,2.06-4.34,4.09-8.36,6.05-12.09,4.09-7.76,17.79-33,14.66-35.1-2.66-1.8-16.14,13.89-20.45,18.9a150,150,0,0,0-11.88,16,41.82,41.82,0,0,0-11.93,5.49c1.74-2.71,3-6.23,4.5-11.72,4-14.9,6-22.46,2.34-28.08a16,16,0,0,0-2.58-3,11.54,11.54,0,0,0-.17-5.57c-.25-.85-1.67-5.68-5.22-6-3.12-.29-5.39,3.14-5.5,3.31a10.07,10.07,0,0,0-7.09-3.06c-4.17.1-8,3.23-9.44,7.83-2.68-6-5-6.17-5.56-6.17-2.14,0-4.27,2.95-5.9,7.84a14.94,14.94,0,0,0-4.33,3.58c-6.34,7.37-3.84,18.7-2.83,23.25.86,3.9,3.35,14.45,12.57,21.08a32.91,32.91,0,0,0,5,2.92q-2.24,21.43-4.44,42.87c-1-4.67-2-9-3.06-13.06-3.3-12.85-8.93-31.25-10.8-30.86-1.62.33.91,14.47.77,38.19-.07,12.46-.84,20.93-1.16,25.46-.63,9.24-.79,23.18.42,45.24l-.63-.29c-1.23-5.08-2.4-9.49-3.49-13.34-1.29-4.52-2.73-9.18-4.16-14,.74-4.86-.6-10.58-2.17-17.19-1.49-6.31-3.1-9.22-4.39-10.64a145.83,145.83,0,0,1-1.63-29.12c.4-9.08,1.76-21.4-.55-21.94,4.25-.19,7.26-9,8.11-13.67.43-2.36.22-3.14-4.56-22.48-1.33-5.39-2.24-9.06-5.59-11.28a10,10,0,0,0-4.69-1.6,15.36,15.36,0,0,1-5.14-1.31c-4.72-2.16-5.74-5.41-8.24-5.08-1.63.21-2.85,1.82-4,4.21-3.25,6.49-5.64,17.3-3.5,21.76l0,.57.15,2.56a22.79,22.79,0,0,1-4.82-6c-3.65-6.8-2.47-12.56-4.45-12.84-1.42-.2-3.44,2.55-3.88,5.29-.57,3.53,1.76,5.3,3.27,10.53,1.07,3.7.42,4.59,1,8.4,1.3,8.35,6.51,17.55,14.43,22.07a32.2,32.2,0,0,0,6.2,2.64,35.64,35.64,0,0,0,10.74,1.66A14.84,14.84,0,0,0,626,652a6.55,6.55,0,0,0,1.92-.75,6,6,0,0,0,1.27-1,3.71,3.71,0,0,0,1.39.38c-2.9.48-9.09,16.09-12,26.06-.88,3-1.59,6-2.19,8.95-12.92-35.8-27.21-61.4-32.27-59.88-1.61.49-2.53,3.8-2.27,11.48-2.86-5.27-5.54-8.32-9.35-9.57a15.22,15.22,0,0,0-3.92-.78,11.63,11.63,0,0,0-3.62-4.23c-.72-.5-4.86-3.38-7.83-1.41-2.61,1.73-2.23,5.83-2.21,6a10,10,0,0,0-7.44,2.06c-3.19,2.67-4.25,7.54-2.46,12-5.85-3-7.77-1.68-8.2-1.33-1.66,1.35-1.48,5,.3,9.8a15.13,15.13,0,0,0-1.13,5.5c-.33,9.72,8.72,17,12.35,19.91,3.12,2.5,11.66,9.16,23,8.56,4.1-.21,9.1-1.41,11.37-3.12a9.86,9.86,0,0,0,4.82-.39c1.7,9.57,3.82,20.67,6.43,33.48a103,103,0,0,0-14.72-7.2,15.91,15.91,0,0,0,.16-4.64c-.9-7.26-7.45-11.64-15.59-17.09-8.41-5.64-11.41-5-12.66-4.57-3,1-4.6,3.83-5.39,5.54l.55,0a7.87,7.87,0,0,1-2.75.44c-2.36,0-2.79-.91-4.13-.5-2.72.84-4,5.49-3.82,8.94a11.2,11.2,0,0,0,.68,3.23c-12.51-.38-21,1.15-21.1,1.9S525.38,702.81,537.67,706.57ZM678.09,684.8c-3.56,8.42-7.23,17.81-11,28.29q1.53-15.06,3.2-30.1c.64,1.07,1.27,2,1.82,2.76a14.92,14.92,0,0,0,3.34-2.34,6.71,6.71,0,0,0,1.73,1.1A7.69,7.69,0,0,0,678.09,684.8ZM680,760.7c-1.65,3.19-3.27,6.33-4.83,9.4q1.27-5.85,2.58-11.43Zm46.43-27.42,37.37-27.91a8.92,8.92,0,0,0,3,.73c1.55,1.75,4.31,2.84,6.1,3.54,4.44,1.74,8.66,1.61,17,0l.37-.08c-7.05,2.18-14.76,4.72-22.39,7.43C749.9,723.37,737,728,726.41,733.28ZM701.35,843.16l-1,.47,1-.47Z"/>
          <path class="cls-6" d="M779.75,648.34a15.68,15.68,0,0,1,.41,4c-.14,6.69-6,11.86-17.71,21.92-6.42,5.52-10,7.72-14.75,8.4-1.9.28-4.83.7-7.05,0-2,.89-3.75,1.12-5.13.48-1.69-.78-2.46-2.66-3-5.43-2.3-1.67-4.91-6.1-6.32-10-3.9-10.66,0-20.79,1.44-24.5,1.72-4.33,6-15.11,15.4-17.65a15.23,15.23,0,0,1,5.6-.53c4.09-3.12,7.5-4.35,9.28-3.17.46.31,2.29,1.76,1.13,8.23,3.75-3,8.71-3.44,12.21-1.17a10.06,10.06,0,0,1,4.15,6.51c.18-.08,4-1.64,6.41.34,2.76,2.26,1.21,7.06,1,7.9A11.85,11.85,0,0,1,779.75,648.34Z"/>
        </g>
      </g>
      <g id="flower">
        <path class="cls-11" d="M741,797.71a234.52,234.52,0,0,1,61.82-55.21c28.64-17.45,55.8-25.16,55.21-26.86s-25.35,5.08-49.32,13.62c-29.78,10.6-45,16.16-59.62,28.7-8.38,7.18-20.93,20.17-30.54,41.95Z"/>
        <path class="cls-11" d="M777.08,620.32c3,2-10.08,26.08-14,33.49-14.55,27.62-32.41,72-46.74,145.37L689.86,801c27.15-105.19,53-145.54,67.72-162.67C761.69,633.57,774.55,618.61,777.08,620.32Z"/>
        <path class="cls-11" d="M694.28,663.75c-1.54.32.87,13.81.73,36.43-.07,11.89-.8,20-1.1,24.29-1,15.07-.76,43.24,5.15,100.84l15.09,1.47c4.18-63.36-2.5-106.1-9.57-133.59C701.43,680.93,696.06,663.38,694.28,663.75Z"/>
        <path class="cls-11" d="M567.69,712.91c-.27,1.84,49.72,9.54,57.91,28,.49,1.11,2.71,6.48,6.38,14.24,2.48,5.23,5.33,11.27,6.87,13.74,8,12.87,30.08,8.71,43.18,13.74,13.37,5.13,26.94,23.48,30.42,79,17.58-28.6,16.54-61.82-1-81.46-11.64-13-27.41-16.57-34.84-17.66a88,88,0,0,0-14.72-21.1C626.22,703.63,568,711,567.69,712.91Z"/>
        <path class="cls-11" d="M678.06,666c2.21.52.91,12.27.54,20.94-1.27,29,6.6,49.49,11.77,67.71,6.13,21.58,14.6,61.54,24.54,142.31H694.79c-6.1-58.06-15.51-98.9-24-127.58-4.27-14.36-14.14-45.26-4.41-78.52C669.21,681,675.44,665.36,678.06,666Z"/>
        <path class="cls-11" d="M633.45,642.25C641,640,670.05,700.91,682,763.46a360.22,360.22,0,0,1,4.91,100.1l-12.76,1C631.61,687.75,627.39,644.08,633.45,642.25Z"/>
        <path class="cls-11" d="M753.68,700.65c.59.15,1.77,3-7.86,51.52-7,35.29-17.71,84.63-33.86,145.25q-16.9,5.91-24,0-22-18.17,48.58-148.19C743.56,725.79,751.71,700.15,753.68,700.65Z"/>
        <path class="cls-11" d="M806.67,716.84l-77.53,57.9-10.31-9.32,85.88-53C805.36,713.9,806,715.37,806.67,716.84Z"/>
        <path class="cls-11" d="M711.72,664.75l-15,144.84,8.34,2.45q4.3-58.51,10.8-116.79,1.64-14.71,3.42-29.42Z"/>
        <g>
          <path class="cls-20" d="M852.16,709.38a12.64,12.64,0,0,0,8.83-2.94c.62-.57,4.16-3.82,2.94-7-1.07-2.79-5-3.29-5.15-3.32a9.57,9.57,0,0,0-.37-7.36c-1.83-3.52-6.13-5.51-10.67-4.78,4-4.83,3.18-6.89,3-7.36-1.35-2.68-8.07-2.7-16.93,0C837.42,695.49,844.71,708.92,852.16,709.38Z"/>
          <path class="cls-21" d="M842,704.08c2.79-2.46,10-8.84,8.35-13.74-.15-.43-.84-2.23-4.42-3.92-9.82-4.64-21.58.92-24.54,2.45-2.61,1.35-12.3,6.75-16.68,18.16-1.77,4.61-3,7.72-1.47,9.81C807.37,722.61,828.67,715.87,842,704.08Z"/>
          <path class="cls-22" d="M804.71,712.42c2.08.62,3.64-4,9.32-9.32,7.77-7.3,12.27-5.65,21.59-13.74,3.73-3.23,9-7.77,7.86-11.78-.93-3.36-5.87-4.64-6.87-4.9-9-2.33-17.63,4.58-21.1,7.36-3,2.37-11,9-12.76,19.62C801.88,704.78,802.29,711.71,804.71,712.42Z"/>
          <path class="cls-23" d="M806.67,716.84c.54,2.91,4.56,4.49,6.87,5.4,4.24,1.66,8.27,1.54,16.2,0,14.45-2.81,21.75-4.33,25-9.82a13.75,13.75,0,0,0,2-8.83,8.69,8.69,0,0,0-2.46-5.4c-2.26-2-5.46-1.79-8.34-1.47-8.53,1-12.79,1.43-18.65,3.93C824.78,701.71,805.41,710,806.67,716.84Z"/>
        </g>
        <g>
          <path class="cls-20" d="M816.75,666.2a12.69,12.69,0,0,0,6.22-6.93c.25-.8,1.73-5.38-.9-7.54-2.31-1.89-5.94-.4-6.12-.32a9.6,9.6,0,0,0-4-6.22c-3.34-2.15-8.07-1.76-11.64,1.13,1.09-6.18-.65-7.56-1.09-7.86-2.5-1.66-8.35,1.65-14.71,8.38C797.07,661.42,810.05,669.48,816.75,666.2Z"/>
          <path class="cls-21" d="M805.3,666.61c1.2-3.51,4.32-12.63.45-16.06-.34-.31-1.82-1.53-5.78-1.23-10.83.83-18.29,11.48-20.1,14.27-1.61,2.47-7.35,12-5.52,24,.74,4.89,1.24,8.18,3.58,9.25C784.38,699.86,799.55,683.45,805.3,666.61Z"/>
          <path class="cls-22" d="M777,692.32c2.12-.5,1.19-5.26,3.49-12.72,3.14-10.18,7.86-11,12-22.62,1.64-4.65,3.94-11.19,1-14.12-2.47-2.47-7.4-1.14-8.4-.87-9,2.42-13.05,12.71-14.69,16.84-1.41,3.54-5.1,13.2-1.38,23.37C770.78,687.07,774.57,692.9,777,692.32Z"/>
          <path class="cls-23" d="M780.91,695.19c1.91,2.26,6.19,1.64,8.65,1.29,4.5-.66,7.94-2.75,14.07-8,11.17-9.6,16.76-14.53,16.89-20.91a13.8,13.8,0,0,0-2.67-8.65,8.61,8.61,0,0,0-4.8-3.47c-3-.63-5.64,1.14-8,2.85-6.93,5-10.4,7.57-14.26,12.63C789.16,673.08,776.41,689.83,780.91,695.19Z"/>
        </g>
        <g>
          <path class="cls-20" d="M737.5,621.91a12.62,12.62,0,0,0,1.26-9.23c-.24-.8-1.59-5.42-5-5.72-3-.27-5.14,3-5.24,3.16a9.65,9.65,0,0,0-6.77-2.92c-4,.09-7.66,3.08-9,7.47-2.56-5.73-4.78-5.89-5.31-5.89-3,0-6,6.05-7.47,15.2C718.54,629,733.81,628.39,737.5,621.91Z"/>
          <path class="cls-23" d="M728.27,628.68c-1-3.58-3.53-12.88-8.65-13.54-.45-.06-2.37-.24-5.47,2.23-8.5,6.77-8.69,19.77-8.62,23.1.06,2.94.63,14,8.93,23,3.36,3.63,5.63,6.07,8.16,5.65C729.63,667.94,733,645.84,728.27,628.68Z"/>
          <path class="cls-22" d="M719.31,665.83c1.47-1.6-2-5-4.26-12.48-3.12-10.19.34-13.49-2.81-25.44-1.25-4.76-3-11.46-7.1-12.24-3.44-.65-6.76,3.22-7.44,4-6.05,7-3.66,17.84-2.7,22.18.83,3.72,3.2,13.78,12,20.11C711.2,665,717.6,667.69,719.31,665.83Z"/>
          <path class="cls-20" d="M724.14,666c2.85.8,6-2.11,7.87-3.79,3.37-3.07,5-6.73,7.14-14.53,3.86-14.22,5.71-21.44,2.23-26.79a13.82,13.82,0,0,0-7.06-5.66,8.68,8.68,0,0,0-5.93-.18c-2.8,1.15-4,4.12-5,6.84-2.9,8.08-4.35,12.11-4.7,18.47C718.55,643.1,717.4,664.12,724.14,666Z"/>
        </g>
        <g>
          <path class="cls-20" d="M620,647.27a12.62,12.62,0,0,0-4.8-8c-.69-.48-4.63-3.23-7.47-1.34-2.48,1.65-2.13,5.56-2.11,5.75a9.6,9.6,0,0,0-7.1,2c-3,2.56-4,7.19-2.34,11.46-5.58-2.87-7.42-1.61-7.83-1.27-2.32,1.9-.87,8.46,3.69,16.52C609.62,664.68,621.14,654.64,620,647.27Z"/>
          <path class="cls-21" d="M617,658.34c-3-2.18-10.81-7.84-15.23-5.15-.39.24-2,1.3-2.87,5.17-2.38,10.59,5.61,20.85,7.75,23.41,1.88,2.25,9.27,10.53,21.35,12.32,4.89.73,8.19,1.22,9.9-.7C642.64,688.09,631.42,668.78,617,658.34Z"/>
          <path class="cls-22" d="M633.28,692.92c.15-2.17-4.68-2.68-11.13-7.07-8.82-6-8.18-10.74-18.12-18.08-4-2.93-9.54-7-13.2-5.09-3.09,1.64-3.26,6.74-3.3,7.77-.31,9.27,8.32,16.21,11.79,19,3,2.39,11.12,8.74,21.94,8.17C626.43,697.34,633.11,695.43,633.28,692.92Z"/>
          <path class="cls-23" d="M637.16,690c2.73-1.16,3.39-5.43,3.77-7.88.7-4.51-.29-8.41-3.53-15.81-5.89-13.5-9-20.29-15-22.28a13.76,13.76,0,0,0-9,0,8.56,8.56,0,0,0-4.73,3.57c-1.47,2.64-.56,5.72.38,8.46,2.79,8.11,4.18,12.17,7.9,17.34C618.45,675.66,630.72,692.77,637.16,690Z"/>
        </g>
        <g>
          <path class="cls-20" d="M758.68,669.27c.68-1.53-1.34-2.43-2.21-6.63-1-4.85.93-7.46-.73-9.2-1.09-1.13-3-1.16-5.52-.73-8,1.36-20,7-19.14,11.77.64,3.52,8,4.87,13.62,5.89C746.23,670.65,757.17,672.65,758.68,669.27Z"/>
          <path class="cls-21" d="M731.08,662.64c1.48-1.22,3.33-2.5,5.52-2.2a6.48,6.48,0,0,1,4,2.57,7,7,0,0,1,5.15,0c4,1.9,4,8.48,4.05,10.31.08,12.72-14.32,20.8-16.56,22.08-3.78,2.16-7.56,4.32-11,2.86-5.75-2.43-5.6-13-5.57-13.9C717,674.26,724.38,668.17,731.08,662.64Z"/>
          <path class="cls-23" d="M747.64,668.53c3.84-2.55,7-3.75,9.2-2.57,2.67,1.39,2.93,5.49,2.94,5.88.19,3.84-2.12,6.61-5.52,10.68-12.17,14.59-12.65,15.19-14.72,16.19-4,1.95-12.53,4.64-15.09,1.47C720.1,694.78,736.17,676.18,747.64,668.53Z"/>
          <path class="cls-22" d="M711.21,684a30.52,30.52,0,0,0,1.47,6.26,34.44,34.44,0,0,0,4.78,9.2c.49-.24,6.39-3.21,7.36-9.94a13.55,13.55,0,0,0-3.31-10.67,30.52,30.52,0,0,0,6.26-9.57c2.21-5.46,1-7.33,3.31-12.15,3.17-6.64,8.26-9,7.36-10.67-.65-1.21-3.9-1.2-6.26,0-3,1.56-3.08,4.34-6.25,8.47-2.24,2.91-3.29,2.91-5.89,5.52C714.35,666.15,710.22,675.35,711.21,684Z"/>
        </g>
        <g>
          <path class="cls-20" d="M673.39,620.09c-.83-1.45-2.76-.35-6.65-2.14-4.5-2.06-5.47-5.16-7.85-4.85-1.56.21-2.72,1.74-3.86,4-3.65,7.28-6.17,20.28-1.83,22.39,3.22,1.57,8.67-3.58,12.81-7.49C667.14,631,675.22,623.31,673.39,620.09Z"/>
          <path class="cls-21" d="M651.72,638.43c-.11-1.92,0-4.17,1.48-5.76a6.52,6.52,0,0,1,4.48-1.74,6.93,6.93,0,0,1,3-4.16c3.9-2.09,9.22,1.76,10.71,2.84,10.31,7.46,8.3,23.84,8,26.41-.49,4.32-1,8.65-4.19,10.56-5.36,3.19-13.76-3.16-14.51-3.74C652.75,656.66,652.21,647.1,651.72,638.43Z"/>
          <path class="cls-20" d="M666.26,628.56c.21-4.61,1.09-7.83,3.37-8.94,2.7-1.33,6.16.89,6.49,1.1,3.2,2.12,4.07,5.63,5.34,10.77,4.55,18.45,4.76,19.19,4.34,21.45-.81,4.4-3.67,12.85-7.74,13C671.14,666.29,665.64,642.33,666.26,628.56Z"/>
          <path class="cls-22" d="M657.17,667.08a31.45,31.45,0,0,0,5.92,2.51,34.28,34.28,0,0,0,10.24,1.59c.1-.54,1.2-7-3.65-11.82a13.58,13.58,0,0,0-10.57-3.64,30.24,30.24,0,0,0-4-10.71c-3.09-5-5.31-5.15-7.83-9.85-3.49-6.48-2.36-12-4.25-12.25-1.36-.19-3.28,2.43-3.7,5.05-.55,3.37,1.67,5,3.12,10,1,3.53.4,4.37,1,8C644.65,654,649.62,662.76,657.17,667.08Z"/>
        </g>
        <g>
          <path class="cls-20" d="M674.77,715.64c-1-1.25-3.1-.65-5.52-2.95-1.63-1.54-1.36-2.45-2.56-3-2.44-1.18-6.39,1.22-8.48,3.77a11.91,11.91,0,0,0-2.57,7.36c1.34,6.27,5.75,10.63,9.93,10.67C672.81,731.54,677.31,718.69,674.77,715.64Z"/>
          <path class="cls-21" d="M665.2,727.78c-.82-.75-3.13-2.73-2.94-5.15.18-2.21,2.39-4.1,4.42-4.78,4.28-1.44,9.35,2,11.77,4.78,8.24,9.51.9,29.1-2.57,29.07C672.74,751.68,673.77,735.67,665.2,727.78Z"/>
          <path class="cls-23" d="M675.88,751.7c-1.1-.8.42-3.23.36-7.72-.07-5.6-2.48-5.75-2.94-11-.56-6.44,2.77-8.85,1.1-14a12.64,12.64,0,0,0-3.31-5.15c1.66-.68,4.63-1.58,7.36-.37,1.16.51,3.67,2,5.89,11.41,2.15,9.09,3.88,16.41-.21,22.07C681.6,750.41,677.24,752.7,675.88,751.7Z"/>
          <path class="cls-22" d="M671.09,756.12a12.69,12.69,0,0,1-9.2.37,17.09,17.09,0,0,1-9.2-6.63c-2.75-3.9-3-7.75-3.31-12.51a27.18,27.18,0,0,1,1.84-12.51c.68-1.64,2.15-5.18,4-5.15,1.32,0,1.8,1.75,4.05,4s3.81,2.5,5.88,4c1,.78,2.83,2.37,6.79,12.64,1.08,2.8,2.47,6.63,3.89,11.28A11.68,11.68,0,0,1,671.09,756.12Z"/>
        </g>
        <g>
          <path class="cls-20" d="M600.81,698.37c-1.62-.21-2.72,1.63-6,1.6-2.25,0-2.67-.88-3.94-.48-2.6.8-3.85,5.24-3.65,8.53a12,12,0,0,0,3.12,7.15c5.25,3.68,11.45,3.87,14.55,1.05C610.19,711.35,604.74,698.88,600.81,698.37Z"/>
          <path class="cls-21" d="M602.06,713.78c-1.11,0-4.16.13-5.66-1.77-1.38-1.74-1-4.64,0-6.51,2.16-4,8.2-4.91,11.88-4.51,12.51,1.36,20.47,20.7,17.9,23C623.84,726.16,613.7,713.73,602.06,713.78Z"/>
          <path class="cls-23" d="M626.16,724c-1.35.16-1.89-2.66-5-5.91-3.86-4-5.73-2.53-9.67-6.09-4.79-4.33-4-8.36-8.71-11a12.64,12.64,0,0,0-5.93-1.53c.75-1.63,2.31-4.3,5.14-5.27,1.19-.42,4-1,12.08,4.35,7.76,5.2,14,9.38,14.87,16.31C629.47,719.2,627.84,723.84,626.16,724Z"/>
          <path class="cls-22" d="M625.66,730.53c-1.54,4-4.93,5.72-6.49,6.53a17.1,17.1,0,0,1-11.25,1.41c-4.68-1-7.47-3.63-10.94-6.91a27.3,27.3,0,0,1-7.17-10.42c-.61-1.66-1.94-5.26-.54-6.53,1-.89,2.51.06,5.72.21,3.39.16,4.5-.77,7.07-1,1.29-.14,3.68-.2,13.57,4.64,2.7,1.32,6.32,3.18,10.53,5.62A11.61,11.61,0,0,1,625.66,730.53Z"/>
        </g>
        <path class="cls-11" d="M722.27,935.7q-4.9-25.28-9.82-50.54l-13.74,2q6.63,26,13.25,52Z"/>
        <polygon class="cls-11" points="696.75 934.23 704.44 873.38 689.86 870.43 682.22 931.77 696.75 934.23"/>
        <path class="cls-11" d="M736.5,928.34c0-2-25.52-47.6-26-50.55s5-16.19,5-16.19,23.67,42.69,23.1,44.66S736.5,928.34,736.5,928.34Z"/>
        <path class="cls-11" d="M675.49,931.77s-10.21-3.43-9.93-3.43,13.29-81.46,13.29-81.46l9.56,1.65Z"/>
        <path class="cls-24" d="M681.18,949.13a60,60,0,0,1-10.67-5.06,61,61,0,0,1-12.74-94.45,96.41,96.41,0,0,0,87.56,0c0-.14,0-.29.07-.44a61,61,0,0,1-23.29,100.06Z"/>
        <path class="cls-25" d="M733.4,943.89c-3.72-2.17-16.33-3.78-31.31-3.78-15.38,0-28.25,1.69-31.58,4l10.65,5.06a183.75,183.75,0,0,0,41,.11Z"/>
        <path class="cls-26" d="M657.77,849.62a96.41,96.41,0,0,0,87.56,0q5.16-32.54,10.31-65.06a186.64,186.64,0,0,1-108,0Q652.72,817.1,657.77,849.62Z"/>
        <path class="cls-27" d="M683.78,869.21c1.76,4.69-2.09,9-4.27,14.42-2.94,7.28-3.88,19.09,6.41,38.46a38.29,38.29,0,0,1-18.16-11.75c-13.22-15.94-10.83-43.32-1.07-48.08C672.28,859.54,681.67,863.56,683.78,869.21Z"/>
        <path class="cls-27" d="M678.75,849.17a4.55,4.55,0,0,0,3.83-5.15l-6.24-42.81a4.54,4.54,0,0,0-9,1.31l6.25,42.81A4.55,4.55,0,0,0,678.75,849.17Z"/>
      </g>
      <g id="radio">
        <path class="cls-15" d="M146.3,770.2h3.37a4.08,4.08,0,0,1,4,4.1V751.47a53.8,53.8,0,0,1,32.36-49.4A6.62,6.62,0,0,1,186,701a11.21,11.21,0,0,1,6-9.57l2.14-.34,4.6-207.53h2.67V690a783.55,783.55,0,0,1,227.34.06,20.4,20.4,0,0,1,4.69,11.23,53.76,53.76,0,0,1,34.32,50.19V913.61c0,17.37-13.85,31.45-30.94,31.45H182.62a29.17,29.17,0,0,1-28.92-29.4V794.46a4.08,4.08,0,0,1-4,4.1H146.3a4.08,4.08,0,0,1-4-4.1V774.3A4.08,4.08,0,0,1,146.3,770.2Z"/>
        <path class="cls-28" d="M470.64,851.38H262a54.64,54.64,0,0,1-54.58-54.58V760A54.65,54.65,0,0,1,262,705.37H470.64A54.64,54.64,0,0,1,525.22,760V796.8A54.64,54.64,0,0,1,470.64,851.38ZM262,709.11A50.9,50.9,0,0,0,211.12,760V796.8A50.9,50.9,0,0,0,262,847.64H470.64a50.9,50.9,0,0,0,50.84-50.84V760a50.9,50.9,0,0,0-50.84-50.84Z"/>
        <polygon class="cls-28" points="257 496.37 257 757.65 248.45 757.65 254.33 496.37 257 496.37"/>
        <rect class="cls-29" x="243.91" y="732.2" width="17.63" height="42.73" rx="8.66" transform="translate(505.45 1507.13) rotate(-180)"/>
        <path class="cls-30" d="M238.17,950.4H492.41a30.94,30.94,0,0,0,30.94-30.94V796.71a47.9,47.9,0,0,0-14.09-34c-11.19-11.2-25.68-13.11-34-14.09-78-9.19-103.24-9.41-103.24-9.41s-32.23-.28-119.39,9.41c-6.31.7-20.43,2.47-30.67,12.71A43.24,43.24,0,0,0,209.25,792V921.48A28.92,28.92,0,0,0,238.17,950.4Z"/>
        <path class="cls-29" d="M484.34,699.52a796.17,796.17,0,0,0-236.75,1.35,11,11,0,0,0-6.05,9.41s-.18,4.3,4,8.75c10.11,10.68,73.51-12.85,128.47-11.44,49.51,1.28,105.67,23.15,112.32,12.78a18.56,18.56,0,0,0,2.69-8.07C489.36,706.33,486.07,701.65,484.34,699.52Z"/>
        <path class="cls-31" d="M530.07,806.43h-3.55a4.19,4.19,0,0,1-4.18-4.19V782.41a4.19,4.19,0,0,1,4.18-4.19h3.55a4.2,4.2,0,0,1,4.19,4.19v19.83A4.2,4.2,0,0,1,530.07,806.43Zm-3.55-27.9a3.88,3.88,0,0,0-3.88,3.88v19.83a3.88,3.88,0,0,0,3.88,3.88h3.55a3.89,3.89,0,0,0,3.89-3.88V782.41a3.89,3.89,0,0,0-3.89-3.88Z"/>
        <rect class="cls-29" x="197.82" y="778.38" width="11.43" height="27.9" rx="5.45" transform="translate(407.07 1584.65) rotate(180)"/>
        <path class="cls-29" d="M310.48,936.61h192V844.8h-105c.08,1.56.13,3.13.13,4.71A87.11,87.11,0,0,1,310.48,936.61Z"/>
        <g>
          <rect class="cls-30" x="209.25" y="844.8" width="313.24" height="4.71"/>
          <rect class="cls-30" x="209.25" y="853.22" width="313.24" height="4.71"/>
          <rect class="cls-30" x="209.25" y="861.65" width="313.24" height="4.71"/>
          <rect class="cls-30" x="209.25" y="870.07" width="313.24" height="4.71"/>
          <rect class="cls-30" x="209.25" y="878.5" width="313.24" height="4.71"/>
          <rect class="cls-30" x="209.25" y="886.92" width="313.24" height="4.71"/>
          <rect class="cls-30" x="209.25" y="895.34" width="313.24" height="4.71"/>
          <rect class="cls-30" x="209.25" y="903.77" width="313.24" height="4.71"/>
          <rect class="cls-30" x="209.25" y="912.19" width="313.24" height="4.71"/>
          <rect class="cls-30" x="209.25" y="920.61" width="313.24" height="4.71"/>
          <rect class="cls-30" x="209.25" y="929.04" width="313.24" height="4.71"/>
        </g>
        <g>
          <circle class="cls-29" cx="303.1" cy="843.93" r="66.33"/>
          <path class="cls-28" d="M303.1,912.13a68.2,68.2,0,1,1,68.2-68.2A68.28,68.28,0,0,1,303.1,912.13Zm0-132.66a64.47,64.47,0,1,0,64.47,64.46A64.54,64.54,0,0,0,303.1,779.47Z"/>
        </g>
        <circle class="cls-32" cx="303.1" cy="843.93" r="52.95" transform="translate(-143.72 66.47) rotate(-10.13)"/>
        <circle class="cls-4" cx="303.1" cy="843.93" r="43.63" transform="translate(-189.16 94.42) rotate(-13.54)"/>
        <circle class="cls-32" cx="303.1" cy="843.93" r="13.37"/>
        <path class="cls-32" d="M304.34,803.55c-.23,1.57.89,26,.89,26H301v-26Z"/>
        <rect class="cls-32" x="472.9" y="825.3" width="29.59" height="13.45" rx="3.75" transform="translate(975.4 1664.05) rotate(180)"/>
        <rect class="cls-4" x="443.31" y="825.3" width="29.59" height="13.45" rx="3.75" transform="translate(916.22 1664.05) rotate(180)"/>
        <rect class="cls-29" x="413.72" y="825.3" width="29.59" height="13.45" rx="3.75" transform="translate(857.03 1664.05) rotate(180)"/>
        <rect class="cls-4" x="384.12" y="825.3" width="29.59" height="13.45" rx="3.75" transform="translate(797.84 1664.05) rotate(180)"/>
        <rect class="cls-29" x="434.57" y="734.5" width="18.83" height="18.83" rx="4.88" transform="translate(887.97 1487.83) rotate(180)"/>
        <rect class="cls-29" x="276.51" y="734.5" width="18.83" height="18.83" rx="4.88" transform="translate(571.85 1487.83) rotate(180)"/>
      </g>
      <g id="chair">
        <polygon class="cls-33" points="679.93 1404.61 704.23 1638.35 692.08 1638.35 655.63 1404.61 679.93 1404.61"/>
        <g>
          <path class="cls-34" d="M681.08,1510.49a2.9,2.9,0,0,1-1.63-.51L536,1411.63a2.89,2.89,0,0,1,3.27-4.77l143.48,98.35a2.89,2.89,0,0,1-1.64,5.28Z"/>
          <path class="cls-34" d="M489,1534.79a2.89,2.89,0,0,1-1.78-5.18l147.53-114.55a2.89,2.89,0,0,1,3.55,4.57L490.78,1534.18A2.88,2.88,0,0,1,489,1534.79Z"/>
        </g>
        <path class="cls-35" d="M441.78,1627a53,53,0,0,0,5.92,0,51.34,51.34,0,0,0,9.62-1.48l35.52-88.06L541,1418.6l2.41-5.4,9-20.26,2.54-5.69-18.52-8.1-3.77,9Z"/>
        <polygon class="cls-36" points="854.65 1706.62 734.31 1410.4 750.51 1404.61 869.69 1706.62 854.65 1706.62"/>
        <g>
          <path class="cls-34" d="M490.16,1537.1a2.89,2.89,0,0,1-1.79-5.16l121.49-96a2.89,2.89,0,1,1,3.59,4.54l-121.49,96A2.91,2.91,0,0,1,490.16,1537.1Z"/>
          <path class="cls-34" d="M588.51,1568.35a2.9,2.9,0,0,1-2.75-2L533.69,1405.5a2.9,2.9,0,0,1,5.51-1.78l52.07,160.84a2.89,2.89,0,0,1-1.86,3.64A2.83,2.83,0,0,1,588.51,1568.35Z"/>
        </g>
        <g>
          <path class="cls-34" d="M677.61,1514a2.82,2.82,0,0,1-1.66-.53,2.89,2.89,0,0,1-.7-4l66-93.72a2.89,2.89,0,0,1,4.73,3.33L680,1512.73A2.89,2.89,0,0,1,677.61,1514Z"/>
          <path class="cls-34" d="M791,1559.09a2.9,2.9,0,0,1-2.27-1.1l-113.4-143.48a2.89,2.89,0,1,1,4.54-3.59l113.4,143.48a2.9,2.9,0,0,1-2.27,4.69Z"/>
        </g>
        <g>
          <path class="cls-34" d="M602.4,1575.29a2.9,2.9,0,0,1-2-4.94c6.81-6.81,139.72-153.47,141.06-154.95a2.89,2.89,0,0,1,4.29,3.88c-5.48,6-134.35,148.25-141.26,155.16A2.93,2.93,0,0,1,602.4,1575.29Z"/>
          <path class="cls-34" d="M793.32,1555.62a2.93,2.93,0,0,1-1.59-.48L615.85,1439.43a2.89,2.89,0,0,1,3.18-4.83l175.88,115.71a2.89,2.89,0,0,1-1.59,5.31Z"/>
        </g>
        <polygon class="cls-37" points="582.52 1715.78 602.67 1572.12 617.82 1464.22 621.28 1439.53 622.91 1427.92 624.39 1417.34 605.87 1417.34 602.54 1443.73 602.31 1445.55 601.38 1452.96 587.58 1562.58 569.92 1702.79 582.52 1715.78"/>
        <path class="cls-38" d="M461.23,1337.5c-7.69,1.08-23.92-47-39.34-92.57a277.72,277.72,0,0,1-9.26-32.4c-7.75-36-4.82-60-2.31-72.89,3.69-18.93,8.61-24.67,10.41-26.62,12.16-13.08,31-13,37-12.73C471.67,1282.7,469.16,1336.39,461.23,1337.5Z"/>
        <path class="cls-39" d="M633.64,1091c-41.18-5-128.28,6-135.38,6.94-12.94,1.63-32.51,3.89-56.7,5.78-2.43-.18-8.19-.27-12.73,3.48-4.05,3.34-5.22,8.18-5.78,11.57-4.26,25.82,4.63,56.7,4.63,56.7,9.45,32.86-12.09-33.08,13.88,56.69,16.81,58.09,25.31,87.27,30.09,93.73,17.48,23.65,44.3,31.92,93.72,41.66,144.2,28.39,275.68,28.77,285.81,0a49.09,49.09,0,0,0,2.31-17.36c-.73-10.5-5.18-17.65-13.88-31.24-7-11-11.23-17.39-19.67-23.15a42.83,42.83,0,0,0-15.05-6.94c-6.21-1.42-13.82-1.51-25.45,2.32-16.94,5.56-29.58,15.2-42.81,25.45-12.58,9.74-17.77,15.48-26.62,15-4.37-.22-5.08-1.72-16.2-3.48-8.94-1.41-11.84-1-15-3.47-4.92-3.84-5.54-10.73-5.79-13.88-1-12.46,5.39-22,11.58-32.4a391.76,391.76,0,0,0,27.77-60.17c3.46-9.57,5.27-16.11,4.62-24.3-.56-7.17-2.73-12-11.57-27.77a507.74,507.74,0,0,0-32.4-50.91c-4.63-6.46-8-10.86-13.88-15C649.29,1093.33,639.14,1091.71,633.64,1091Z"/>
        <path class="cls-38" d="M655.63,1347.91c5.39-1.23,27.2-2.76,70.58-5.78,49.58-3.45,54.19-3.6,62.49-2.31,26.08,4,47,15.9,62.48,27.77a239.31,239.31,0,0,1-23.14,9.25c-17.44,5.93-31.49,8.43-44,10.42-32.23,5.13-55.05,8.76-89.1,10.41-37.8,1.83-20.82-2.11-85.63-3.47-4-.08-13.42-.27-23.14-5.79-17.28-9.81-26.91-31.71-22-37,3.9-4.22,13.86,5.31,33.55,8.1C618.61,1362.43,626.82,1354.5,655.63,1347.91Z"/>
        <path class="cls-38" d="M465.86,1309.73c-8.63,5.59-8.36,23-8.1,40.5.16,10.57.35,17.58,4.63,25.46,5.84,10.74,17.44,19.67,30.09,20.82,12,1.1,12.49-5.89,27.77-8.1,15.52-2.24,28.89,3,50.91,11.57,11.38,4.45,10.44,5.07,18.51,8.1,18,6.76,34.14,8,55.54,8.1a645.85,645.85,0,0,0,69.43-3.47c58.32-5.86,42.79-9.68,87.94-13.88,19.91-1.86,36.77-2.4,47.44-15,2.24-2.65,10-12.65,6.94-23.15-2.6-9.05-12.44-15.88-16.19-13.88-3.26,1.73.39,8.83-2.32,16.2-4.34,11.8-21.8,15.64-37,18.51-39.21,7.4-65.95,9.26-65.95,9.26-22.21,1.54-19.43,1-94.88,3.47-24,.79-31.06,1.06-41.66-2.31-20.53-6.55-28.61-18.63-47.44-35.88C547.55,1352.41,486,1296.67,465.86,1309.73Z"/>
      </g>
      <g id="mother">
        <path class="cls-40" d="M1273,519.2q40.05,18.06,80.09,36,29,13,58.07,26c14.13,40.63,14.49,71.31,12,92.11-.67,5.64-3.79,24.45-10,62.07-2.51,15.14-4.6,27.62-6,36a318.91,318.91,0,0,0,124.15,70.09c-3.84-11.38-8.45-23.46-14-36.05a422.8,422.8,0,0,0-30-56.06,617.93,617.93,0,0,0-20-224.27C1447,519.48,1359.33,494.9,1287,483.16c-29.75-4.83-48-6-67.08-5-34.52,1.85-35.75,9-58.07,7-2.72-.24-15.94-1.56-29,5-2.55,1.28-9.45,4.74-9,8,.6,4.4,14.17,5.95,24,7,23.25,2.5,30.13-.9,49.06,2,10.61,1.63,26.16,5.41,26,9-.11,3-10.87,5.25-17,6-14.71,1.81-21.21-2.87-30,2-3.14,1.74-7.63,5.27-7,8,.18.78,1.26,3.63,19,5,9.81.75,16.54,1.27,27,0C1240,534.17,1263.67,523.62,1273,519.2Z"/>
        <path class="cls-41" d="M1295,806.55c1,.46,16.75,8.13,19,26s-11.18,29.35-12,30a166.5,166.5,0,0,0,14,26c13.17,20,26.82,40.65,51.06,47.06,29.2,7.71,54.75-10.32,57.07-12,24.42-17.8,32.26-48.13,29-72.08-4.51-33.49-31.64-61.69-68.08-70.08-6.22,4.37-10.16,3.27-11,3-6.53-2.11-10.91-13.94-7-29q-5-10.5-10-21Z"/>
        <g>
          <path class="cls-42" d="M1230.85,1904.06c13.58,5.27,19,2.23,32.68,6.4,5.24,1.61,10.55,3.29,16,7.69,4.39,3.54,4.85,5.59,6.41,5.45,6.24-.58-3.1-33.4,13.77-58.3,4.71-7,20.81-27.07,26.59-39.08.77-1.61,2.3-5,1-8-1.22-2.7-4.31-4-9-5.77s-5.35-1.4-8.33-2.56c-8.08-3.16-9-8.6-13.13-9-5.81-.52-11.16,9.71-13.14,13.45,0,0-14.43,27.3-42.6,67.59-3.17,4.54-8.31,11.58-15.37,19.86C1226.84,1902.36,1228.62,1903.19,1230.85,1904.06Z"/>
          <path class="cls-4" d="M1283.06,1922.64c1-3.79-.82-7.91-1.6-9.61-2.39-5.25-6.54-7.86-9.93-9.93-7.37-4.51-14.39-5.23-20.18-5.77s-11.06-1-17.29,1.28c-3.24,1.2-7.79,2.88-10.89,7.37-4.37,6.31-4.29,15.85.32,21.78,4.46,5.74,11.55,6,21.78,6.41C1256.24,1934.59,1280.14,1933.22,1283.06,1922.64Z"/>
          <path class="cls-43" d="M1343.6,1807.65c-.23,0,.62,6.11-.32,14.41-.27,2.41-.77,5.67-3.2,8.33-.91,1-2,2.19-3.52,2.24-2.53.09-3.19-3.08-7.37-6.41a15.62,15.62,0,0,0-9-3.84,12.42,12.42,0,0,0-6.09,1.28,13,13,0,0,0-5.12,5.13,127.83,127.83,0,0,0-8.65,17.61c-1.59,3.86-3.3,7.38-6.73,14.42-3.87,8-5.81,12-8.64,17-.68,1.19-2.38,4.18-4.49,8.33-3.41,6.72-3.72,8.26-3.84,9-.66,4,.92,5.55,2.56,11.85,2.77,10.69.54,15.32,3.52,17s7.7-1.57,10.57-3.53c6.88-4.68,10.42-10.63,13.14-15.37,9.74-17,7.7-16.71,12.49-23.7a117,117,0,0,1,20.18-22.75c2.88-2.34,7.53-5.78,8.65-11.53.32-1.65.17-2.6-.32-8.64-.83-10-.51-8.37-1-12.82C1345.43,1815.26,1343.86,1807.61,1343.6,1807.65Z"/>
          <path class="cls-4" d="M1347.77,1843.84a76.17,76.17,0,0,1-7.37,9.93c-5,5.65-6.82,6-12.17,11.85a96.27,96.27,0,0,0-10.25,13.45c-1.35,2.08-1.4,2.32-7.37,12.82-4.3,7.57-6.47,11.37-7.37,12.49-4.58,5.71-9.73,8.49-15.37,11.53-3.34,1.8-9.17,3.76-20.82,7.69-4.75,1.6-7.31,2.37-10.89,2.56-2.47.13-5.38-.23-11.21-1a60,60,0,0,1-9-1.6,22.67,22.67,0,0,1-7-2.89,18.45,18.45,0,0,1-4.16-3.84c-2.8-4-1.7-10.89,2.24-17.3l-7,9.93a43.76,43.76,0,0,0-2.24,10.89c-.38,5.2-.87,11.89,3.2,17.94a22,22,0,0,0,6.41,6.09c5.07,3.4,9.94,4.1,14.73,4.8a64.72,64.72,0,0,0,13.78.32,69.82,69.82,0,0,0,11.53-1.28c3.74-.8,5.38-1.64,21.14-9.93,7.92-4.17,11.94-6.33,14.41-10.25.59-.93.87-1.54,2.89-7.37,3.41-9.85,4.77-14.31,7-20.5,3.84-10.46,5.27-12.21,6.09-13.13,1.83-2,4.77-4,10.57-7.69,7.29-4.68,8.33-4.74,10.89-7a30.55,30.55,0,0,0,7.69-11.21Q1347.93,1852.48,1347.77,1843.84Z"/>
          <g>
            <path class="cls-44" d="M1266.57,1839c-.25-.24.55-1.8,5.6-8a43.27,43.27,0,0,1,5.93,2.72c3.22,1.78,4.17,2.84,8,5.13,3.31,2,3.1,1.48,5.92,3.2,4.34,2.64,6.72,4.09,8,6.89,1.19,2.57,1.8,6,.64,6.72-.5.31-1.37.15-6.89-4-4.84-3.65-4.75-4-7.2-5.61-4.56-3-4.83-1.91-9-4.8-3.45-2.41-4.68-4.18-7-4S1266.86,1839.31,1266.57,1839Z"/>
            <path class="cls-44" d="M1262.4,1849.77c-1-1.25-.11-3.43,0-3.69a6,6,0,0,1,4.33-3.2c1.64.52,3.78,1.25,6.24,2.24a75.85,75.85,0,0,1,8,3.69c3.81,2,6.53,3.48,9.45,6.24a30,30,0,0,1,4.33,5.13q-1,3-1.93,6.08c-.92-.86-2.11-2-3.52-3.2-.77-.68-2.59-2.27-5.13-4.33-2.74-2.22-4.11-3.33-5.12-4-3.25-2.15-6.33-4.19-10.41-4.48C1265.38,1850,1263.44,1851,1262.4,1849.77Z"/>
            <path class="cls-44" d="M1253.76,1862.58c-.41-.19-.09-2.43,1.12-4.33a9,9,0,0,1,3.68-3.2,32,32,0,0,1,4,1,38.23,38.23,0,0,1,6.89,3c4.19,2.19,6.29,3.29,7.69,4.16a62.44,62.44,0,0,1,11,8.81c-.27,2-.53,4-.8,6.08a40.74,40.74,0,0,1-5.77-3.2c-4.2-2.79-4.28-3.94-8.49-6.89s-4.74-2.25-9-5.12a23.63,23.63,0,0,0-4.65-2.24,4.53,4.53,0,0,0-2.56-.48C1255,1860.55,1254.18,1862.78,1253.76,1862.58Z"/>
            <path class="cls-44" d="M1244.47,1875.71c-.42-.37.54-2.33,1.76-3.84.61-.76,3-3.75,6.73-4.33,2.56-.39,5.21,1.07,10.41,4a62.7,62.7,0,0,1,8.48,5.44c3.74,2.89,10.28,8.66,9.45,9.93s-9.26-2.58-13-4.48c-8.08-4.15-12.12-6.23-13.45-7.21a7.57,7.57,0,0,0-4.65-1.92C1247.1,1873.37,1245,1876.19,1244.47,1875.71Z"/>
          </g>
          <g>
            <path class="cls-45" d="M1292.88,1896.19a4.07,4.07,0,1,1-4.07-4.07A4.07,4.07,0,0,1,1292.88,1896.19Z"/>
            <circle class="cls-45" cx="1295.06" cy="1883.7" r="4.07"/>
            <path class="cls-45" d="M1306,1871.22a4.07,4.07,0,1,1-4.07-4.07A4.07,4.07,0,0,1,1306,1871.22Z"/>
            <path class="cls-45" d="M1312.57,1857.11a4.1,4.1,0,1,1-5.22-3.27A4.38,4.38,0,0,1,1312.57,1857.11Z"/>
            <path class="cls-45" d="M1319.24,1843.93c1.34,2.33.86,5.12-1.09,6.25s-4.61.14-6-2.19-.86-5.12,1.08-6.24S1317.89,1841.6,1319.24,1843.93Z"/>
            <path class="cls-45" d="M1323.53,1831.88c1.06,2.52.24,5.26-1.84,6.13s-4.6-.47-5.66-3-.23-5.27,1.84-6.13S1322.48,1829.36,1323.53,1831.88Z"/>
          </g>
          <path class="cls-44" d="M1235.82,1888.36l6.08-5.76a39.83,39.83,0,0,1,4.81-.32c6.43-.06,9.56,1.42,17.78,3.36,11.49,2.71,11.82,1.33,14.09,3.36s4.24,5.58,8.81,8c.76.41,1.87.93,2.72.48,1.41-.74,1.38-3.81.8-5.76-.89-3-3.56-5-8.17-7.21-10.64-5.21-20.07-6.39-26.58-7.21a58,58,0,0,0-8.49-.32,17.27,17.27,0,0,0-5.28.64,10.84,10.84,0,0,0-4.17,2.09C1235.08,1882.56,1235.71,1887.59,1235.82,1888.36Z"/>
          <path class="cls-44" d="M1314.29,1848a6.41,6.41,0,0,0,.16-3.2c-.68-3.22-3.86-5-6.56-6.4-1.28-.68-2.76-1.35-9.29-3.21-5.54-1.57-8.36-2.36-10.89-2.56-3.42-.27-5.85-.46-8.81.64a20.72,20.72,0,0,0-9,7.85,15.48,15.48,0,0,0-1.6,3.2,12.58,12.58,0,0,0-.48,1.92,37.7,37.7,0,0,1,4.16-3.52,27.46,27.46,0,0,1,5.61-3.36c3.61-1.47,6.79-1,12.17-.32a83.31,83.31,0,0,1,9.45,2.08c6.65,1.68,8.91,2.67,10.89,3.84A27.17,27.17,0,0,1,1314.29,1848Z"/>
          <path class="cls-44" d="M1306.61,1859.7c.78-.49.64-2.89.64-2.89a3.57,3.57,0,0,0,2.08-.64c.64-.69.08-2.17,0-2.4-.3-.81-1.41-2.85-11.85-5.45a55.73,55.73,0,0,0-8.33-1.6,68.22,68.22,0,0,0-8.17-.16c-8.5.13-10.47.74-11.53,1.12-2,.74-4.13,1.5-5.6,3.53-.74,1-.58,1.31-2.41,5.28-1.1,2.4-1.66,3.36-1.44,3.53s1.7-1.53,4.17-3.53a25.28,25.28,0,0,1,5.44-3.52c3.18-1.4,6-1.28,9.45-1.12.52,0,.56,0,9.93,1.6a63.56,63.56,0,0,1,7,1.44,25.52,25.52,0,0,1,4.8,1.6C1304.24,1858.16,1305.74,1860.24,1306.61,1859.7Z"/>
          <path class="cls-44" d="M1300.2,1872.67a4.07,4.07,0,0,1,1.12-3.2c.75-.63,1.57-.57,1.76-1.13s-.76-1.69-1.6-2.4a19.64,19.64,0,0,0-6.24-3.52,56,56,0,0,0-10.57-2.08,52.77,52.77,0,0,0-9.45-.64,41.44,41.44,0,0,0-10.09,1.92c-3.58,1.05-5.37,1.57-7.05,2.72-1.37.94-4.88,3.72-6.41,10.41a21.76,21.76,0,0,1,8.49-6.41c2.07-.84,4.21-1.15,8.49-1.76a75,75,0,0,1,11.53-1c5.06,0,7.65,0,10.89,1.12A22.87,22.87,0,0,1,1300.2,1872.67Z"/>
          <path class="cls-44" d="M1293.31,1884.52c.45-.25-.1-1.34.64-2.24s2.1-.58,2.41-1.28c.23-.54-.26-1.34-1.28-2.41a17.66,17.66,0,0,0-5.13-3.68A40.85,40.85,0,0,0,1280,1872a51.62,51.62,0,0,0-8.65-.64,37,37,0,0,0-9.77,1,27.91,27.91,0,0,0-11.21,6.08c7.93-.34,14-.78,18.1-1.12a46.79,46.79,0,0,1,11.21.16c3.69.54,6,.89,8.33,2.57C1290.77,1882,1292.55,1884.94,1293.31,1884.52Z"/>
        </g>
        <g>
          <path class="cls-42" d="M1730.59,1916.71c-13.58,5.27-19,2.23-32.67,6.4-5.25,1.61-10.56,3.29-16,7.69-4.39,3.54-4.85,5.59-6.41,5.45-6.24-.58,3.1-33.4-13.77-58.3-4.71-7-20.81-27.07-26.58-39.08-.78-1.61-2.31-5-1-8,1.22-2.7,4.31-3.95,9-5.77s5.35-1.4,8.33-2.56c8.08-3.16,9-8.6,13.13-9,5.82-.52,11.16,9.71,13.14,13.45,0,0,14.43,27.3,42.6,67.59,3.17,4.54,8.31,11.58,15.37,19.86C1734.6,1915,1732.82,1915.84,1730.59,1916.71Z"/>
          <path class="cls-4" d="M1678.38,1935.29c-1.05-3.79.82-7.91,1.6-9.61,2.39-5.25,6.54-7.86,9.93-9.93,7.37-4.5,14.39-5.23,20.18-5.77s11.06-1,17.29,1.28c3.24,1.2,7.79,2.88,10.89,7.37,4.37,6.31,4.29,15.85-.32,21.78-4.46,5.74-11.55,6-21.78,6.41C1705.2,1947.24,1681.31,1945.87,1678.38,1935.29Z"/>
          <path class="cls-43" d="M1617.84,1820.3c.23,0-.61,6.11.32,14.41.27,2.41.77,5.67,3.2,8.33.91,1,2,2.19,3.53,2.24,2.52.09,3.18-3.08,7.36-6.41a15.62,15.62,0,0,1,9-3.84,12.39,12.39,0,0,1,6.09,1.28,13,13,0,0,1,5.12,5.13,127.83,127.83,0,0,1,8.65,17.61c1.59,3.86,3.3,7.38,6.73,14.42,3.87,8,5.81,12,8.65,17,.67,1.19,2.37,4.18,4.48,8.33,3.42,6.72,3.73,8.26,3.84,9,.67,4-.92,5.55-2.56,11.85-2.77,10.69-.54,15.32-3.52,17s-7.69-1.57-10.57-3.53c-6.88-4.68-10.42-10.63-13.14-15.37-9.74-17.05-7.7-16.71-12.49-23.7a116.33,116.33,0,0,0-20.18-22.74c-2.88-2.35-7.53-5.79-8.64-11.54-.33-1.65-.18-2.6.32-8.64.82-10,.5-8.37,1-12.82C1616,1827.91,1617.58,1820.26,1617.84,1820.3Z"/>
          <path class="cls-4" d="M1613.68,1856.49a75,75,0,0,0,7.36,9.93c5,5.65,6.82,6,12.17,11.85a95.47,95.47,0,0,1,10.25,13.45c1.35,2.08,1.41,2.32,7.37,12.82,4.3,7.57,6.47,11.38,7.37,12.49,4.58,5.71,9.74,8.49,15.37,11.53,3.34,1.8,9.17,3.76,20.82,7.69,4.75,1.6,7.31,2.37,10.89,2.56,2.47.13,5.38-.23,11.21-1a60,60,0,0,0,9-1.6,22.67,22.67,0,0,0,7-2.89,18.23,18.23,0,0,0,4.16-3.84c2.8-4,1.7-10.89-2.24-17.3l7,9.93a43.76,43.76,0,0,1,2.24,10.89c.38,5.2.87,11.89-3.2,17.94a21.89,21.89,0,0,1-6.41,6.09c-5.07,3.4-9.94,4.11-14.73,4.8a64.72,64.72,0,0,1-13.78.32,69.94,69.94,0,0,1-11.53-1.28c-3.73-.8-5.38-1.64-21.14-9.93-7.92-4.17-11.94-6.33-14.41-10.25-.59-.93-.87-1.54-2.88-7.37-3.42-9.85-4.78-14.31-7.05-20.5-3.84-10.46-5.27-12.21-6.09-13.13-1.83-2-4.77-4-10.57-7.69-7.29-4.68-8.33-4.74-10.89-7a30.55,30.55,0,0,1-7.69-11.21Z"/>
          <g>
            <path class="cls-44" d="M1694.87,1851.69c.25-.24-.55-1.8-5.6-8a43.82,43.82,0,0,0-5.93,2.72c-3.22,1.78-4.17,2.84-8,5.13-3.31,2-3.1,1.48-5.92,3.2-4.33,2.64-6.72,4.09-8,6.89-1.19,2.57-1.8,6-.64,6.72.5.31,1.37.15,6.89-4,4.84-3.65,4.75-4,7.2-5.61,4.56-3,4.83-1.91,9-4.8,3.45-2.41,4.68-4.18,7-4S1694.58,1852,1694.87,1851.69Z"/>
            <path class="cls-44" d="M1699,1862.42c1-1.25.11-3.43,0-3.69a6,6,0,0,0-4.33-3.2c-1.64.52-3.78,1.25-6.24,2.24a76.8,76.8,0,0,0-8,3.69c-3.81,2-6.53,3.48-9.45,6.24a29.44,29.44,0,0,0-4.32,5.13l1.92,6.08c.92-.86,2.11-2,3.52-3.2.78-.68,2.59-2.27,5.13-4.32,2.74-2.23,4.11-3.34,5.12-4,3.25-2.15,6.33-4.19,10.41-4.48C1696.06,1862.66,1698,1863.69,1699,1862.42Z"/>
            <path class="cls-44" d="M1707.69,1875.23c.4-.19.09-2.42-1.13-4.33a9,9,0,0,0-3.68-3.2,32.38,32.38,0,0,0-4,1,38.23,38.23,0,0,0-6.89,3c-4.19,2.19-6.29,3.29-7.69,4.16a62.44,62.44,0,0,0-11,8.81q.4,3,.8,6.08a40.74,40.74,0,0,0,5.77-3.2c4.2-2.79,4.29-3.94,8.49-6.89s4.74-2.25,9-5.12a23.63,23.63,0,0,1,4.65-2.24,4.53,4.53,0,0,1,2.56-.48C1706.47,1873.2,1707.26,1875.43,1707.69,1875.23Z"/>
            <path class="cls-44" d="M1717,1888.36c.42-.37-.54-2.33-1.76-3.84-.61-.76-3-3.75-6.72-4.33-2.57-.39-5.22,1.07-10.41,4a62.78,62.78,0,0,0-8.49,5.44c-3.73,2.89-10.28,8.67-9.45,9.93s9.26-2.58,13-4.48c8.08-4.15,12.12-6.23,13.45-7.21a7.57,7.57,0,0,1,4.65-1.92C1714.34,1886,1716.44,1888.84,1717,1888.36Z"/>
          </g>
          <g>
            <circle class="cls-45" cx="1672.63" cy="1908.84" r="4.07"/>
            <circle class="cls-45" cx="1666.38" cy="1896.35" r="4.07"/>
            <path class="cls-45" d="M1655.43,1883.87a4.07,4.07,0,1,0,4.07-4.07A4.07,4.07,0,0,0,1655.43,1883.87Z"/>
            <path class="cls-45" d="M1648.87,1869.76a4.1,4.1,0,1,0,5.22-3.27A4.39,4.39,0,0,0,1648.87,1869.76Z"/>
            <path class="cls-45" d="M1642.2,1856.58c-1.34,2.33-.85,5.12,1.09,6.25s4.61.14,6-2.19.86-5.12-1.08-6.24S1643.55,1854.25,1642.2,1856.58Z"/>
            <path class="cls-45" d="M1637.91,1844.53c-1.06,2.52-.23,5.26,1.84,6.13s4.6-.47,5.66-3,.23-5.27-1.84-6.13S1639,1842,1637.91,1844.53Z"/>
          </g>
          <path class="cls-44" d="M1725.62,1901l-6.08-5.76a39.83,39.83,0,0,0-4.81-.32c-6.42-.06-9.56,1.42-17.78,3.36-11.49,2.71-11.82,1.33-14.09,3.36s-4.24,5.58-8.81,8c-.76.41-1.87.93-2.72.48-1.41-.74-1.38-3.81-.8-5.76.89-3,3.56-5,8.17-7.21,10.64-5.21,20.08-6.39,26.58-7.21a58,58,0,0,1,8.49-.32,17.38,17.38,0,0,1,5.29.64,10.81,10.81,0,0,1,4.16,2.09C1726.37,1895.21,1725.73,1900.24,1725.62,1901Z"/>
          <path class="cls-44" d="M1647.15,1860.65a6.53,6.53,0,0,1-.16-3.2c.68-3.22,3.86-5,6.56-6.4,1.28-.68,2.76-1.35,9.29-3.21,5.54-1.57,8.36-2.36,10.89-2.56,3.42-.27,5.85-.46,8.81.64a20.72,20.72,0,0,1,9,7.85,14.9,14.9,0,0,1,1.6,3.2,11.48,11.48,0,0,1,.48,1.92,37.7,37.7,0,0,0-4.16-3.52,27.46,27.46,0,0,0-5.61-3.36c-3.61-1.47-6.79-1-12.17-.32a83.31,83.31,0,0,0-9.45,2.08c-6.65,1.68-8.91,2.67-10.89,3.84A27.17,27.17,0,0,0,1647.15,1860.65Z"/>
          <path class="cls-44" d="M1654.83,1872.35c-.78-.49-.64-2.89-.64-2.89a3.57,3.57,0,0,1-2.08-.64c-.64-.69-.08-2.17,0-2.4.31-.81,1.41-2.85,11.85-5.44a54.51,54.51,0,0,1,8.33-1.61,68.28,68.28,0,0,1,8.17-.16c8.5.13,10.47.74,11.53,1.12,2,.74,4.13,1.5,5.61,3.53.73,1,.57,1.31,2.4,5.28,1.1,2.4,1.66,3.36,1.44,3.53s-1.69-1.53-4.17-3.53a25.28,25.28,0,0,0-5.44-3.52c-3.18-1.4-6-1.28-9.45-1.12-.52,0-.56,0-9.93,1.6a63.56,63.56,0,0,0-7,1.44,25.52,25.52,0,0,0-4.8,1.6C1657.2,1870.81,1655.7,1872.89,1654.83,1872.35Z"/>
          <path class="cls-44" d="M1661.24,1885.32a4.07,4.07,0,0,0-1.12-3.2c-.75-.63-1.57-.57-1.76-1.13s.76-1.69,1.6-2.4a19.63,19.63,0,0,1,6.25-3.52,55.79,55.79,0,0,1,10.57-2.08,52.62,52.62,0,0,1,9.44-.64,41.92,41.92,0,0,1,10.09,1.92c3.58,1,5.37,1.58,7,2.72,1.37.94,4.88,3.72,6.41,10.41a21.76,21.76,0,0,0-8.49-6.41c-2.07-.84-4.21-1.15-8.49-1.76a75,75,0,0,0-11.53-1c-5.06,0-7.65,0-10.89,1.12A22.87,22.87,0,0,0,1661.24,1885.32Z"/>
          <path class="cls-44" d="M1668.13,1897.17c-.45-.25.1-1.34-.64-2.24s-2.1-.58-2.41-1.28c-.23-.53.26-1.34,1.29-2.41a17.54,17.54,0,0,1,5.12-3.68,41,41,0,0,1,9.93-2.88,51.62,51.62,0,0,1,8.65-.64,36.93,36.93,0,0,1,9.77,1,27.84,27.84,0,0,1,11.21,6.08c-7.93-.34-14-.78-18.1-1.12a46.78,46.78,0,0,0-11.21.16c-3.69.54-6,.89-8.33,2.57C1670.67,1894.63,1668.89,1897.59,1668.13,1897.17Z"/>
        </g>
        <path class="cls-46" d="M1444.32,1153.77q31.67-6,64.94-13.83a1441.66,1441.66,0,0,0,165.87-50.06,206.6,206.6,0,0,1,13.34,22c31.13,59.45,25.47,119.77,20,162.19-18.4,143.29-43.31,151.35-48.06,247.29-2.76,55.67,5.49,55.67,7,153.19a1718.46,1718.46,0,0,1-6,173.2h-43a831.17,831.17,0,0,1-27-105.12c-11.67-62.09-13.9-113.53-17-192.23-.66-16.66-1.3-36.47-2-79.1-.88-53.18-1.64-128.43-1-221.26a90,90,0,0,0-28,44c-13.3,45.52-34.34,88.42-50.06,133.16-9.58,27.28-24.08,65.5-45,111.13a627.15,627.15,0,0,1-107.13,285.34l-47.06-7c.49-25.73,2.44-46.49,4-60.07,0,0,12.48-107.88,57.07-212.25a351.32,351.32,0,0,0,24-81.1c10.28-59.44,15.43-89.16,18-112.13C1401.51,1312.28,1412.94,1250.94,1444.32,1153.77Z"/>
        <path class="cls-47" d="M1407.14,771.5c21.86,24.69,42.92,36.15,58.07,42,25.61,10,46.21,8.72,66.08,28,8.3,8.07,12.88,15.66,18,25a1035.61,1035.61,0,0,1,46,96.11c14.85,21.09,27.39,37.79,36.05,49.06,14.69,19.14,20.86,26.19,28,39a170,170,0,0,1,18,49.05l-232.22,69.37q-3.52-59.22-7.06-118.42a88.82,88.82,0,0,1-75.09-41c-3.61-8.46-9.15-22-15-39-12.53-36.37-13.33-50.24-26-64.08-6.42-7-17.9-16.17-39-21l19-23c11.35,11.53,20.11,21.26,26,28,11.46,13.1,17.16,20.72,29,28,6.48,4,11.57,7.12,19,8,14.94,1.78,26.84-7,35-13,8.68-6.38,24.89-18.32,28-38,.81-5.1,1.41-14.88-8-35-6.6-14.12-19.74-36.83-46.06-59.07Z"/>
        <g>
          <path class="cls-40" d="M1283,885.64A298.2,298.2,0,0,0,1250.74,957c-14.31,48-3.86,59.19-20.81,112.84-6.23,19.71-8.16,30.49-12,52.06,0,0-3.15,17.61,1,44,.82,5.26,2.08,11.45,7,15,6.83,4.94,16.71,2,20,1,38.2-10.92,142.44-18.22,169.2-12a57.87,57.87,0,0,0,22,1c4.51-.68,9.87-1.55,15-5,10.29-6.91,12.5-19.33,13-23a150.36,150.36,0,0,0-10.26-37c-4.4-10.36-9.46-22-15.77-21.78-5.55.19-9.7,9.46-10.52,11.27-3.8,8.48-.29,11.9-4.5,20.27a28.88,28.88,0,0,1-9,10.51,28.22,28.22,0,0,1-10.51,4.51c-18.09,1.47-37.68,2.34-58.57,2.25a690,690,0,0,1-69.09-3.75,734.42,734.42,0,0,0,30-77.34c8-24.51,14.06-47.69,18.77-69.09,5.91,2.52,12.21,5.49,18.77,9a231.16,231.16,0,0,1,21,12.76c-.2-9-2.74-77.29-52.56-107.38A92.9,92.9,0,0,0,1283,885.64Z"/>
          <path class="cls-40" d="M1485.93,1064.41l-42.26,34.74a7.75,7.75,0,1,1-9.84-12l42.25-34.74a7.75,7.75,0,0,1,9.85,12Z"/>
          <path class="cls-40" d="M1505.32,1073.89l-44.08,32.39a7.75,7.75,0,1,1-9.18-12.5l44.08-32.39a7.75,7.75,0,1,1,9.18,12.5Z"/>
          <path class="cls-40" d="M1509.46,1088l-44.08,32.39a7.75,7.75,0,1,1-9.18-12.5l44.07-32.39a7.76,7.76,0,0,1,9.19,12.5Z"/>
          <path class="cls-40" d="M1505.32,1112l-44.08,32.39a7.75,7.75,0,1,1-9.18-12.5l44.08-32.38a7.75,7.75,0,1,1,9.18,12.49Z"/>
        </g>
        <path class="cls-48" d="M1233.57,736.79c9.82,34,11.55,45.44,9.67,46.14-2.32.86-10.2-14.55-9.67-14.89.83-.53,19.51,38.37,29,35.72,11.28-3.14,12.46-65.62-8.19-72.92C1247.15,728.27,1238.78,733.07,1233.57,736.79Z"/>
        <path class="cls-48" d="M1242.94,770.5c2.49,25-3.78,39.45-10,48.06-12.68,17.52-28,14.67-44,35-4.64,5.89-19.7,25-15,44,3.91,15.88,17.84,16.61,28,41.05,3.86,9.28,6.82,16.35,5,25-3,14.34-15.34,15.47-19,31-.5,2.1-3.51,15.79,5,27a31.33,31.33,0,0,0,17,11c-3.11-6.63-6.33-16.46-3-26,3.16-9.08,10.14-12,20-23,1.13-1.26,11.52-13,17-26,6.07-14.35,4.13-31.45,0-65.07-3.17-25.76-4.81-25.55-4-35,1.79-21.22,10.42-27.63,12-46.06C1252.76,802.28,1251.92,788.34,1242.94,770.5Z"/>
        <path class="cls-48" d="M1257,781.52c10.5,31,5.9,48.72,0,59.07-10.63,18.66-27.66,17.22-39,39-1.18,2.26-13.28,26.26-4.44,49.06,6.5,16.77,18.27,17.64,28,41,3.86,9.27,6.82,16.35,5,25-3,14.34-15.34,15.47-19,31-.5,2.1-3.51,15.79,5,27a31.38,31.38,0,0,0,17,11c-3.12-6.64-6.34-16.46-3-26,3.16-9.09,10.14-12,20-23a117,117,0,0,0,17-26c2.83-6.06,14.73-31.56,7.44-58.07-.33-1.2-3.11-8.62-8.66-23.47-7.27-19.39-7.61-19.7-8.36-22.58-4.52-17.39,2.11-28.89,4-42C1279.93,829.07,1277.55,809,1257,781.52Z"/>
        <ellipse class="cls-40" cx="1302.21" cy="736.22" rx="58.11" ry="82.56" transform="translate(-188.74 614.41) rotate(-24.81)"/>
        <path class="cls-48" d="M1299.05,663.87a91.3,91.3,0,0,1,1.49,29.76c-5,42.59-39.23,67.82-47.63,73.67a69.79,69.79,0,0,1-19.34-30.51c-7.23-24-2.79-60,22.32-72.92C1273.66,654.72,1293.21,661.56,1299.05,663.87Z"/>
        <path class="cls-49" d="M1249.94,671.31c11.07,9,32,23.12,61,26.79,11.2,1.41,30.52,3.85,34.23-3.73,5.42-11.08-21.08-46.69-53.58-46.13C1268.13,648.64,1252.72,667.74,1249.94,671.31Z"/>
      </g>
      <g id="boy">
        <g>
          <path class="cls-50" d="M2081.25,1916.7a17.82,17.82,0,0,1,12.44,5c6,6.28.08,14.06,2.46,33.28,1.28,10.41,3.44,11.54,2.52,18.14-1.64,11.82-10.05,19.28-10.79,19.91-15.42,13.3-38,5.23-44.63.93a25.94,25.94,0,0,1-4.63-3.94c-2.92-3.44-4.16-7.51-5.64-12.35a35.08,35.08,0,0,1-.78-18,23.45,23.45,0,0,1,1.61-4.82,100.38,100.38,0,0,1,5.49-10.3c5.28-8,3.67-10.19,9.6-20.33,3.19-5.45,8.23-14.08,12.44-13.27,3.25.63,2.73,6.26,7.17,8C2072.51,1920.46,2075.19,1916.76,2081.25,1916.7Z"/>
          <path class="cls-50" d="M1919.66,1913.87a17.82,17.82,0,0,0-12.44,5c-6,6.29-.08,14.07-2.46,33.29-1.29,10.41-3.44,11.54-2.52,18.14,1.64,11.82,10,19.28,10.78,19.91,15.43,13.3,38,5.23,44.64.93a26.09,26.09,0,0,0,4.62-3.94c2.93-3.44,4.16-7.51,5.64-12.35a35.24,35.24,0,0,0,.79-18,22.81,22.81,0,0,0-1.62-4.82,98.35,98.35,0,0,0-5.49-10.3c-5.28-8-3.66-10.19-9.59-20.33-3.19-5.45-8.24-14.08-12.44-13.27-3.26.63-2.74,6.26-7.18,8C1928.39,1917.63,1925.71,1913.93,1919.66,1913.87Z"/>
          <path class="cls-51" d="M2009.78,1737.46c4.26,6.53,14.44,2.08,22.37,9.21,7.42,6.66,6.13,17.39,6.58,32.9.48,16.37,4.57,32.43,6.58,48.69,6.22,50.35,9.16,57.08,9.47,64.49a46.93,46.93,0,0,1-.26,6.57c-1.65,19.1-8.3,26-6.13,36,1.52,7,7.26,15.18,15.71,17s17.78-2.83,23.56-11.78a224.7,224.7,0,0,1,14.24-64.95c9.07-23.5,19.58-48.29,19.57-76.43a38.45,38.45,0,0,0-2.46-13c-5.28-14.8-15.62-23.83-13.16-40.8,1.44-9.95,6-13.78,5.26-23.68-1.2-16.17-14.91-27-15.79-27.64-22-16.81-60.78-5.94-77.64,15.79C2012.07,1717.05,2005.13,1730.32,2009.78,1737.46Z"/>
          <path class="cls-51" d="M1980.83,1751.93c3.07-8,9.26-7.48,11.84-14.47,4.62-12.51-8.63-32.09-25-40.8-12.57-6.69-24.71-5.76-30.26-5.26-6.05.54-34.43,4-46.06,27.63-5.58,11.33-4.95,22.53-3.95,29,2.76-3,15-15.94,19.74-13.16,1.1.64,3,2.86,0,19.73-2.25,12.64-3.38,19-7.9,30.27-8.83,22.15,1.32,77.64,1.32,77.64,3.75,20.64,8.79,44.75,15.64,71.57a19.69,19.69,0,0,0,36.2-1.43c2.68-7.26-1.93-10.85-3.72-21.58-4-23.71,11.51-48.06,17.68-57.77.57-.9,2.29-3.55,4.3-7.34a107.55,107.55,0,0,0,7-16.74c4.78-14,7.16-21,8.18-29.77a77.08,77.08,0,0,0,.22-19.84C1984.12,1764.12,1977.78,1759.91,1980.83,1751.93Z"/>
        </g>
        <path class="cls-52" d="M2110.15,1509.94q.61,44.49,3.14,91.56c3.46,63.26,9.41,123.1,17,179.22l-101.12-12-16-133.16c-34.3-40-28.49-96.49,4-122.62C2041.32,1493.46,2078.83,1492,2110.15,1509.94Z"/>
        <path class="cls-53" d="M1918.06,1530.42c-11.57,14.54-27.09,38.34-32,70.08-4.46,28.57,2.59,44.68,4,80.1.84,20.88-.13,52.14-10.13,91.2a119.46,119.46,0,0,0,36.17,17.93c40.65,12.06,76-1.63,88.1-7l16-125.15c18.51-26.94,23.13-48.87,23.75-64.28.53-13.22-1.43-33.13,8.93-56.56a101.92,101.92,0,0,1,6.69-12.65Z"/>
        <path class="cls-54" d="M1935.08,1278.12c-9.39,3-25.49,9.92-34.54,25.53-8.88,15.31-6.6,31.45-3,51.06,11.23,61.31,20.87,78.27,24,105.13,2.45,20.78,1.51,51.67-16.52,91.6a105.82,105.82,0,0,0,43.55,13.52c41.7,3.12,66.87-22.33,111.14-40.55,22.16-9.12,56.31-19.39,103.62-19.52a879.85,879.85,0,0,1-58.57-163.7c-6.39-25.65-11.29-50.26-15-73.58-4.38-5.52-26.73-32.48-64.57-36C1990,1228.25,1955.19,1246.39,1935.08,1278.12Z"/>
        <path class="cls-40" d="M2003.9,1183.81c17.84,36.82,9.91,77.52-17.7,90.9s-64.47-5.62-82.31-42.45-9.92-77.52,17.7-90.9S1986.06,1147,2003.9,1183.81Z"/>
        <path class="cls-48" d="M1897.53,1106.92c-7.52,4.08-23.8,12.92-32.28,32.28-10,22.77-2.21,44.21,0,50.31,9.9,27.36,32.74,39.77,38.64,42.75-1.5-2.61-13.69-24.73-3.35-49.5,10.91-26.17,37.41-32.37,40.55-33,24-5.17,42.38,7.09,45.55,9.27a39.89,39.89,0,0,0,2.5-19.79c-3.26-23.08-28.84-39.75-51.81-42C1918.91,1095.32,1904.76,1103,1897.53,1106.92Z"/>
        <path class="cls-49" d="M1937.16,1116c2,0,26.72-.19,34.66,14.54a21.59,21.59,0,0,1-6.09,27.12c-10.81,8.38-24,3.56-36.19,10.45-8.29,4.66-16.56,14.92-14.87,39.91l-.71-.21c-12.29-3.69-28.54-12.76-33.88-28.93-.91-2.78-6.77-22,10.8-40.73C1893.75,1135.11,1911.21,1116.5,1937.16,1116Z"/>
        <path class="cls-55" d="M2094.27,1238.32c3.58-1.59-.17-10-3-16.52-5.86-13.4-18.35-18.82-33.79-25.53-13.68-5.94-30.94-13.44-39-6-3.59,3.29-4,8.22-4.11,9.93-1.41,18,22.22,39.36,47.09,43.07C2074.54,1245.22,2086.07,1242,2094.27,1238.32Z"/>
        <path class="cls-40" d="M1917.81,1029.57a568.71,568.71,0,0,1,49.56,63.83c25.22,37.8,37.84,56.71,43.55,84.85,3.1,15.28,2.32,23.57,8.26,42a178.85,178.85,0,0,0,24,48.06l36,11.26a108.74,108.74,0,0,0,4.5-38.29c-.4-6.24-1.83-19.55-18.77-55.57-11.94-25.38-17-31.08-37.54-71.33-6.72-13.18-9.15-18.39-11.27-22.53-11.59-22.66-34.59-53.41-84.85-87.86l-97.61-33c-4.82,1.42-10.33,3.66-10.51,6.75-.22,3.59,6.83,6.45,15.76,10.52,15.51,7.06,39.32,17.91,38.3,22.52-.64,2.91-11.2,3.5-15.77,3.76-8.71.48-14.14-1-15,1-.73,1.65,2.12,4.71,4.52,6.56,7.13,5.49,13.44,2.83,28.53,4.5,11.65,1.29,12.94,3.44,24,3.76A88,88,0,0,0,1917.81,1029.57Z"/>
        <path class="cls-22" d="M2014.32,1200.2a113.13,113.13,0,0,0,26.63,27.61c10.45,7.63,20.88,15.24,35.31,15a43,43,0,0,0,18-4.46q-1.28,20.49-2.56,41a101.6,101.6,0,0,1-22.47-2.78c-26.2-6.3-43.65-21.66-52.31-30.67Z"/>
        <path class="cls-40" d="M1838.21,1410.28a40.8,40.8,0,0,0-10.51,15.77,31.64,31.64,0,0,0-2.25,14.26,31.16,31.16,0,0,0,5.25,14.27c8.23,12.79,20.45,22.83,30,31.54,17.47,15.86,30.6,31.32,41.54,31.42,1.54,0,5.3,0,8.39-2.51,3.36-2.79,4-7,4.13-8.64,5.08,1.71,9.08,3.17,11.64,4.13,6.56,2.45,10.82,4.25,16.52,3.75,3.56-.3,4.49-1.23,4.88-1.87,1.43-2.35-1-6.43-3-8.64-1.27-1.42-3.33-3.15-12-6-2.83-.93-6.68-2.09-11.35-3.15,7-2,11.89-1.29,15.1-.23,3,1,5.27,2.49,16.14,7.51,3,1.38,5.14,2.33,6,1.5,1.46-1.4-1.62-6.79-2.25-7.89-2.12-3.7-8.15-11.65-27-16.52l35.66,11.64a13.47,13.47,0,0,0,0-7.13c-.81-2.83-2.76-5.67-8.63-9.39a60.28,60.28,0,0,0-21.78-8.26c22.36,8.35,27.8,8.56,28.54,7.14.62-1.22-2.28-4-8.1-9.44-8.48-8-12.5-9-14.05-9.34a19.88,19.88,0,0,0-7.51,0c-13.5,2.23-24.74,17.59-26.66,20.28Z"/>
        <path class="cls-22" d="M1832,1401l53.52,45.29,18.77-14.27a214.3,214.3,0,0,0,9-38.29c5.67-40.54-1.48-74.64-8.28-96.51Z"/>
      </g>
      <g id="father">
        <path class="cls-22" d="M2445.66,981.25a1012.33,1012.33,0,0,0-73.83,363,752.87,752.87,0,0,0-65.63,143.55c-40.75,121.53-42.3,229.78-36.91,301.47l73.83,4.1a779.93,779.93,0,0,1,28.71-86.13c31.61-79.22,57.87-107.2,94.33-180.47,28.3-56.87,42.78-100.89,61.53-157.91A1572.44,1572.44,0,0,0,2579,1169.93l28.71-207.13Z"/>
        <path class="cls-22" d="M2579,1169.93A782.1,782.1,0,0,0,2663,1388.34a1042.26,1042.26,0,0,0,0,396.83l84.08-4.1c8.53-54.35,19.41-131,28.72-223.54,9.11-90.55,13.66-135.82,14.35-196.88,1.79-158-22.34-274-30.76-311.72a1263.09,1263.09,0,0,0-39-137.4l-157.91,34.86A782,782,0,0,0,2579,1169.93Z"/>
        <g>
          <path class="cls-42" d="M2190.09,1861.69c16.87,6.55,23.63,2.77,40.59,8,6.52,2,13.11,4.08,19.9,9.55,5.45,4.39,6,6.94,8,6.76,7.75-.71-3.85-41.49,17.11-72.42,5.85-8.64,25.85-33.63,33-48.54,1-2,2.87-6.26,1.2-10-1.51-3.35-5.35-4.91-11.14-7.17s-6.65-1.73-10.35-3.18c-10-3.92-11.21-10.69-16.31-11.14-7.22-.64-13.86,12.06-16.32,16.71,0,0-17.93,33.91-52.92,84-3.94,5.64-10.33,14.4-19.1,24.67C2185.11,1859.58,2187.32,1860.61,2190.09,1861.69Z"/>
          <path class="cls-4" d="M2255,1884.77c1.3-4.71-1-9.83-2-11.94-3-6.52-8.13-9.76-12.34-12.33-9.16-5.6-17.88-6.5-25.07-7.17s-13.74-1.27-21.49,1.59c-4,1.49-9.67,3.58-13.53,9.16-5.42,7.83-5.32,19.69.4,27.06,5.54,7.12,14.35,7.46,27.06,7.95C2221.63,1899.62,2251.32,1897.91,2255,1884.77Z"/>
          <path class="cls-43" d="M2330.16,1741.92c-.28,0,.76,7.59-.4,17.9-.33,3-1,7-4,10.35-1.13,1.23-2.5,2.72-4.38,2.78-3.13.12-4-3.82-9.15-8-1.93-1.54-5.81-4.54-11.15-4.78a15.46,15.46,0,0,0-7.56,1.59,16.23,16.23,0,0,0-6.36,6.37,159.84,159.84,0,0,0-10.75,21.88c-2,4.8-4.1,9.17-8.35,17.91-4.82,9.9-7.23,14.85-10.75,21.09-.83,1.48-2.94,5.19-5.57,10.35-4.24,8.34-4.63,10.25-4.77,11.14-.83,5,1.15,6.89,3.18,14.72,3.45,13.28.67,19,4.38,21.09s9.55-1.94,13.13-4.38c8.55-5.82,12.94-13.2,16.31-19.1,12.11-21.18,9.58-20.76,15.52-29.44a145.44,145.44,0,0,1,25.07-28.26c3.58-2.9,9.36-7.18,10.75-14.32.39-2,.22-3.24-.4-10.74-1-12.43-.63-10.39-1.2-15.92C2332.44,1751.37,2330.48,1741.87,2330.16,1741.92Z"/>
          <path class="cls-4" d="M2335.34,1786.88a93.78,93.78,0,0,1-9.16,12.34c-6.16,7-8.47,7.5-15.12,14.72a119.35,119.35,0,0,0-12.73,16.71c-1.67,2.58-1.74,2.88-9.15,15.92-5.35,9.4-8,14.13-9.16,15.52-5.69,7.09-12.09,10.55-19.1,14.32-4.15,2.24-11.38,4.68-25.86,9.55-5.9,2-9.08,3-13.53,3.19-3.06.16-6.68-.29-13.93-1.2a75.22,75.22,0,0,1-11.14-2c-5.36-1.45-7.65-2.84-8.75-3.58a23.22,23.22,0,0,1-5.18-4.77c-3.47-5-2.11-13.53,2.79-21.49l-8.75,12.33a53.78,53.78,0,0,0-2.79,13.53c-.47,6.46-1.08,14.76,4,22.29a27.26,27.26,0,0,0,8,7.56c6.3,4.22,12.34,5.1,18.3,6a80.45,80.45,0,0,0,17.11.39,86.81,86.81,0,0,0,14.33-1.59c4.64-1,6.68-2,26.26-12.33,9.85-5.18,14.83-7.87,17.91-12.74.73-1.15,1.07-1.91,3.58-9.15,4.24-12.24,5.93-17.78,8.75-25.47,4.77-13,6.55-15.17,7.56-16.31,2.28-2.55,5.93-4.92,13.13-9.55,9.07-5.83,10.36-5.9,13.53-8.75a37.8,37.8,0,0,0,9.55-13.93Z"/>
          <g>
            <path class="cls-44" d="M2234.46,1780.91c-.31-.29.69-2.23,7-10a54.89,54.89,0,0,1,7.36,3.39c4,2.21,5.18,3.52,9.95,6.36,4.11,2.46,3.85,1.85,7.36,4,5.38,3.28,8.34,5.08,10,8.56,1.47,3.2,2.23,7.46.79,8.35-.62.39-1.71.19-8.55-5-6-4.53-5.91-4.93-9-7-5.65-3.78-6-2.38-11.14-6-4.28-3-5.82-5.2-8.75-5S2234.83,1781.25,2234.46,1780.91Z"/>
            <path class="cls-44" d="M2229.29,1794.24c-1.26-1.55-.14-4.26,0-4.57,1.38-3.22,5-3.92,5.37-4,2,.65,4.7,1.56,7.76,2.78a96.33,96.33,0,0,1,9.95,4.58c4.73,2.52,8.11,4.33,11.74,7.76a37.63,37.63,0,0,1,5.37,6.36c-.8,2.52-1.59,5-2.39,7.56-1.14-1.07-2.62-2.43-4.37-4-1-.85-3.23-2.83-6.37-5.38-3.41-2.76-5.11-4.14-6.37-5-4-2.68-7.86-5.21-12.93-5.57C2233,1794.55,2230.57,1795.82,2229.29,1794.24Z"/>
            <path class="cls-44" d="M2218.55,1810.16c-.51-.24-.12-3,1.39-5.37a11.07,11.07,0,0,1,4.57-4,38.28,38.28,0,0,1,5,1.19,48.12,48.12,0,0,1,8.55,3.78c5.21,2.73,7.82,4.09,9.55,5.17a77.21,77.21,0,0,1,13.73,11l-1,7.56a51.66,51.66,0,0,1-7.16-4c-5.22-3.46-5.33-4.9-10.55-8.56s-5.89-2.8-11.14-6.36a29.48,29.48,0,0,0-5.77-2.79c-1.7-.63-2.42-.74-3.18-.6C2220.06,1807.64,2219.07,1810.41,2218.55,1810.16Z"/>
            <path class="cls-44" d="M2207,1826.47c-.52-.46.68-2.89,2.18-4.77.76-.94,3.75-4.66,8.36-5.37,3.19-.5,6.48,1.32,12.93,5a77.36,77.36,0,0,1,10.55,6.77c4.64,3.58,12.77,10.76,11.74,12.33s-11.51-3.2-16.12-5.57c-10-5.16-15.06-7.74-16.71-8.95-1.28-1-3.19-2.44-5.77-2.39C2210.28,1823.56,2207.67,1827.07,2207,1826.47Z"/>
          </g>
          <g>
            <path class="cls-45" d="M2267.15,1851.91a5.06,5.06,0,1,1-5.05-5.05A5,5,0,0,1,2267.15,1851.91Z"/>
            <path class="cls-45" d="M2274.91,1836.4a5.06,5.06,0,1,1-5-5.05A5,5,0,0,1,2274.91,1836.4Z"/>
            <path class="cls-45" d="M2283.46,1820.89a5.05,5.05,0,1,1-5.05-5.05A5,5,0,0,1,2283.46,1820.89Z"/>
            <path class="cls-45" d="M2291.61,1803.37c.9,3-.53,6.15-3.2,7s-5.58-1-6.48-4.07.52-6.15,3.19-7S2290.7,1800.32,2291.61,1803.37Z"/>
            <path class="cls-45" d="M2299.9,1787c1.67,2.89,1.06,6.37-1.36,7.76s-5.72.18-7.39-2.71-1.07-6.37,1.35-7.76S2298.23,1784.1,2299.9,1787Z"/>
            <path class="cls-45" d="M2305.23,1772c1.31,3.13.29,6.54-2.28,7.62s-5.73-.59-7-3.72-.28-6.54,2.29-7.62S2303.92,1768.89,2305.23,1772Z"/>
          </g>
          <path class="cls-44" d="M2196.26,1842.19l7.56-7.16a51.82,51.82,0,0,1,6-.4c8-.07,11.87,1.77,22.09,4.18,14.27,3.36,14.69,1.65,17.51,4.18s5.26,6.93,10.94,10c.94.5,2.33,1.15,3.38.59,1.75-.93,1.71-4.74,1-7.16-1.1-3.73-4.42-6.15-10.14-8.95-13.23-6.47-24.95-7.94-33-9a70.88,70.88,0,0,0-10.54-.39,20.87,20.87,0,0,0-6.57.79,13.29,13.29,0,0,0-5.17,2.59C2195.34,1835,2196.13,1841.24,2196.26,1842.19Z"/>
          <path class="cls-44" d="M2293.75,1792.05a8.15,8.15,0,0,0,.2-4c-.84-4-4.8-6.17-8.16-8-1.58-.85-3.42-1.67-11.54-4-6.87-2-10.37-2.94-13.52-3.19-4.25-.33-7.27-.56-10.95.8,0,0-6.18,2.29-11.14,9.75a19.16,19.16,0,0,0-2,4,16.37,16.37,0,0,0-.6,2.38,46.41,46.41,0,0,1,5.18-4.37,34.21,34.21,0,0,1,7-4.18c4.49-1.82,8.44-1.29,15.12-.4a105.71,105.71,0,0,1,11.74,2.59c8.26,2.08,11.07,3.32,13.53,4.77A33.64,33.64,0,0,1,2293.75,1792.05Z"/>
          <path class="cls-44" d="M2284.2,1806.58c1-.61.8-3.58.8-3.58a4.55,4.55,0,0,0,2.59-.8c.79-.86.1-2.7,0-3-.38-1-1.75-3.55-14.73-6.77a67.72,67.72,0,0,0-10.34-2,82.71,82.71,0,0,0-10.15-.2c-10.56.16-13,.92-14.33,1.4-2.53.91-5.13,1.86-7,4.37-.91,1.26-.71,1.64-3,6.57-1.38,3-2.07,4.17-1.79,4.38s2.1-1.9,5.17-4.38a31.79,31.79,0,0,1,6.76-4.38c4-1.74,7.44-1.58,11.74-1.39.65,0,.69,0,12.34,2a77.66,77.66,0,0,1,8.75,1.79,32.08,32.08,0,0,1,6,2C2281.26,1804.66,2283.13,1807.25,2284.2,1806.58Z"/>
          <path class="cls-44" d="M2276.24,1822.69a5.08,5.08,0,0,1,1.4-4c.92-.77,1.94-.7,2.19-1.39.3-.88-.95-2.1-2-3a24.56,24.56,0,0,0-7.76-4.38,69.64,69.64,0,0,0-13.13-2.59c-5.6-.65-8.4-1-11.74-.79a52,52,0,0,0-12.54,2.39c-4.44,1.3-6.67,2-8.75,3.38-1.7,1.16-6.06,4.62-8,12.93a26.89,26.89,0,0,1,10.54-8c2.58-1,5.24-1.43,10.55-2.19a92.11,92.11,0,0,1,14.32-1.19c6.29,0,9.5,0,13.53,1.39A28.45,28.45,0,0,1,2276.24,1822.69Z"/>
          <path class="cls-44" d="M2267.69,1837.42c.56-.31-.13-1.66.8-2.79s2.6-.72,3-1.59c.29-.66-.32-1.66-1.59-3a22,22,0,0,0-6.37-4.57,50.53,50.53,0,0,0-12.33-3.58,64.83,64.83,0,0,0-10.75-.8,45.74,45.74,0,0,0-12.13,1.2,34.37,34.37,0,0,0-13.93,7.56c9.85-.43,17.38-1,22.48-1.4a57.67,57.67,0,0,1,13.93.2c4.59.66,7.41,1.11,10.34,3.19C2264.53,1834.26,2266.75,1837.94,2267.69,1837.42Z"/>
        </g>
        <g>
          <path class="cls-42" d="M2810.92,1877.4c-16.87,6.56-23.63,2.77-40.59,8-6.52,2-13.11,4.09-19.9,9.55-5.45,4.4-6,6.95-7.95,6.77-7.76-.71,3.84-41.5-17.12-72.42-5.85-8.64-25.85-33.63-33-48.55-1-2-2.87-6.25-1.2-10,1.52-3.35,5.35-4.9,11.15-7.16s6.64-1.74,10.34-3.18c10-3.93,11.21-10.69,16.32-11.14,7.22-.65,13.85,12.06,16.31,16.71,0,0,17.94,33.91,52.92,84,4,5.64,10.34,14.39,19.1,24.67C2815.9,1875.29,2813.7,1876.33,2810.92,1877.4Z"/>
          <path class="cls-4" d="M2746.06,1900.48c-1.31-4.7,1-9.82,2-11.93,3-6.52,8.12-9.77,12.33-12.34,9.16-5.59,17.88-6.5,25.07-7.16s13.75-1.27,21.49,1.59c4,1.49,9.67,3.58,13.53,9.15,5.42,7.84,5.32,19.7-.4,27.06-5.54,7.13-14.35,7.47-27.06,8C2779.38,1915.34,2749.7,1913.63,2746.06,1900.48Z"/>
          <path class="cls-43" d="M2670.85,1757.63c.29,0-.76,7.59.4,17.91.34,3,.95,7,4,10.34,1.13,1.23,2.49,2.72,4.37,2.79,3.14.11,4-3.83,9.16-8,1.92-1.53,5.8-4.53,11.14-4.77a15.31,15.31,0,0,1,7.56,1.59,16.19,16.19,0,0,1,6.37,6.36,159.36,159.36,0,0,1,10.74,21.89c2,4.79,4.1,9.16,8.36,17.91,4.81,9.9,7.22,14.85,10.74,21.09.83,1.47,2.94,5.18,5.57,10.34,4.24,8.34,4.63,10.26,4.77,11.14.83,5-1.15,6.89-3.18,14.73-3.44,13.27-.67,19-4.38,21.09s-9.55-1.95-13.13-4.38c-8.54-5.82-12.94-13.21-16.31-19.1-12.11-21.18-9.57-20.76-15.52-29.45a145.17,145.17,0,0,0-25.07-28.25c-3.58-2.91-9.36-7.19-10.74-14.32-.4-2.06-.22-3.24.39-10.75,1-12.43.64-10.39,1.2-15.92C2668.57,1767.09,2670.53,1757.59,2670.85,1757.63Z"/>
          <path class="cls-4" d="M2665.68,1802.6a93.56,93.56,0,0,0,9.15,12.33c6.17,7,8.47,7.51,15.12,14.72a119.09,119.09,0,0,1,12.73,16.72c1.68,2.58,1.75,2.88,9.16,15.91,5.34,9.41,8,14.14,9.15,15.52,5.69,7.1,12.1,10.55,19.1,14.33,4.15,2.23,11.39,4.67,25.86,9.55,5.9,2,9.08,3,13.53,3.18,3.06.16,6.69-.29,13.93-1.19a75,75,0,0,0,11.14-2c5.36-1.46,7.65-2.85,8.76-3.58a23.36,23.36,0,0,0,5.17-4.78c3.47-5,2.11-13.53-2.79-21.49l8.76,12.34a53.51,53.51,0,0,1,2.78,13.53c.47,6.45,1.08,14.76-4,22.28a27,27,0,0,1-8,7.56c-6.3,4.23-12.34,5.11-18.3,6a80.47,80.47,0,0,1-17.11.4,86.81,86.81,0,0,1-14.33-1.59c-4.64-1-6.68-2-26.26-12.34-9.84-5.18-14.83-7.87-17.9-12.73-.74-1.16-1.08-1.91-3.59-9.15-4.24-12.24-5.93-17.79-8.75-25.47-4.77-13-6.54-15.17-7.56-16.31-2.27-2.55-5.92-4.92-13.13-9.55-9.06-5.83-10.36-5.9-13.53-8.76a37.62,37.62,0,0,1-9.55-13.93Q2665.47,1813.34,2665.68,1802.6Z"/>
          <g>
            <path class="cls-44" d="M2766.55,1796.63c.31-.29-.69-2.23-7-10a54.09,54.09,0,0,0-7.37,3.38c-4,2.21-5.18,3.53-9.94,6.37-4.12,2.45-3.86,1.84-7.37,4-5.38,3.28-8.34,5.08-9.94,8.55-1.48,3.2-2.24,7.47-.8,8.36.62.38,1.71.18,8.56-5,6-4.54,5.9-4.94,8.95-7,5.66-3.77,6-2.37,11.14-6,4.28-3,5.82-5.19,8.76-5S2766.19,1797,2766.55,1796.63Z"/>
            <path class="cls-44" d="M2771.72,1810c1.26-1.55.14-4.26,0-4.58-1.38-3.21-5-3.91-5.37-4-2,.65-4.7,1.56-7.76,2.79a95.74,95.74,0,0,0-10,4.57c-4.72,2.53-8.11,4.34-11.74,7.76a37.62,37.62,0,0,0-5.37,6.37c.8,2.52,1.59,5,2.39,7.56,1.15-1.07,2.62-2.43,4.38-4,1-.85,3.22-2.82,6.36-5.37,3.41-2.76,5.11-4.14,6.37-5,4-2.68,7.87-5.21,12.93-5.58C2768,1810.26,2770.44,1811.54,2771.72,1810Z"/>
            <path class="cls-44" d="M2782.47,1825.87c.5-.24.11-3-1.4-5.37a11.22,11.22,0,0,0-4.57-4,38.59,38.59,0,0,0-5,1.2,47,47,0,0,0-8.55,3.78c-5.21,2.72-7.81,4.09-9.55,5.17a77.9,77.9,0,0,0-13.73,10.94l1,7.56a51.66,51.66,0,0,0,7.17-4c5.22-3.46,5.32-4.89,10.54-8.55s5.89-2.8,11.14-6.37a29.87,29.87,0,0,1,5.77-2.78,5.78,5.78,0,0,1,3.19-.6C2781,1823.36,2781.94,1826.13,2782.47,1825.87Z"/>
            <path class="cls-44" d="M2794,1842.19c.51-.46-.68-2.9-2.19-4.78-.76-.94-3.74-4.66-8.36-5.37-3.19-.49-6.48,1.33-12.93,5a78.85,78.85,0,0,0-10.55,6.76c-4.63,3.59-12.77,10.76-11.73,12.34s11.5-3.21,16.11-5.57c10-5.16,15.06-7.74,16.71-9,1.29-.94,3.19-2.43,5.77-2.39C2790.73,1839.28,2793.34,1842.79,2794,1842.19Z"/>
          </g>
          <g>
            <path class="cls-45" d="M2733.86,1867.63a5.06,5.06,0,1,0,5.06-5.05A5.06,5.06,0,0,0,2733.86,1867.63Z"/>
            <path class="cls-45" d="M2726.11,1852.12a5,5,0,1,0,5-5A5,5,0,0,0,2726.11,1852.12Z"/>
            <path class="cls-45" d="M2717.55,1836.61a5.05,5.05,0,1,0,5-5A5,5,0,0,0,2717.55,1836.61Z"/>
            <path class="cls-45" d="M2709.4,1819.08c-.9,3,.53,6.15,3.2,7s5.58-1,6.49-4.06-.53-6.16-3.2-7S2710.31,1816,2709.4,1819.08Z"/>
            <path class="cls-45" d="M2701.12,1802.7c-1.67,2.9-1.07,6.37,1.35,7.77s5.73.18,7.4-2.71,1.06-6.37-1.36-7.77S2702.79,1799.81,2701.12,1802.7Z"/>
            <path class="cls-45" d="M2695.78,1787.74c-1.31,3.13-.29,6.54,2.29,7.61s5.72-.58,7-3.71.29-6.55-2.29-7.62S2697.09,1784.6,2695.78,1787.74Z"/>
          </g>
          <path class="cls-44" d="M2804.75,1857.91l-7.56-7.17a52.07,52.07,0,0,0-6-.39c-8-.07-11.87,1.77-22.08,4.17-14.28,3.37-14.69,1.66-17.51,4.18s-5.27,6.93-11,10c-.94.5-2.33,1.16-3.38.6-1.75-.93-1.71-4.74-1-7.16,1.1-3.74,4.42-6.16,10.14-9,13.23-6.47,25-7.94,33-9a71,71,0,0,1,10.55-.4,21.13,21.13,0,0,1,6.56.8,13.28,13.28,0,0,1,5.18,2.58C2805.67,1850.7,2804.88,1857,2804.75,1857.91Z"/>
          <path class="cls-44" d="M2707.26,1807.77a8.15,8.15,0,0,1-.2-4c.84-4,4.8-6.18,8.16-8,1.58-.84,3.42-1.67,11.54-4,6.87-1.95,10.38-2.94,13.53-3.18,4.25-.33,7.26-.57,10.94.79,0,0,6.18,2.29,11.14,9.75a18.58,18.58,0,0,1,2,4,16.77,16.77,0,0,1,.6,2.39,47.42,47.42,0,0,0-5.18-4.38,33.77,33.77,0,0,0-7-4.17c-4.49-1.83-8.44-1.3-15.12-.4a103.37,103.37,0,0,0-11.74,2.58c-8.26,2.09-11.07,3.32-13.53,4.78A33.47,33.47,0,0,0,2707.26,1807.77Z"/>
          <path class="cls-44" d="M2716.81,1822.29c-1-.61-.8-3.58-.8-3.58s-1.88,0-2.58-.79-.11-2.7,0-3c.37-1,1.75-3.54,14.72-6.76a67.62,67.62,0,0,1,10.35-2,82.53,82.53,0,0,1,10.14-.2c10.56.15,13,.91,14.33,1.39,2.53.92,5.13,1.86,7,4.38.92,1.26.71,1.63,3,6.56,1.37,3,2.06,4.18,1.79,4.38s-2.11-1.89-5.18-4.38a30.93,30.93,0,0,0-6.76-4.37c-3.95-1.74-7.44-1.59-11.74-1.4-.65,0-.69,0-12.33,2a82.05,82.05,0,0,0-8.76,1.79,32.34,32.34,0,0,0-6,2C2719.75,1820.38,2717.89,1823,2716.81,1822.29Z"/>
          <path class="cls-44" d="M2724.77,1838.41a5.08,5.08,0,0,0-1.39-4c-.93-.78-2-.7-2.19-1.39-.31-.88.94-2.11,2-3a24.31,24.31,0,0,1,7.76-4.37,68.69,68.69,0,0,1,13.13-2.59c5.59-.66,8.39-1,11.74-.8a52.35,52.35,0,0,1,12.53,2.39c4.45,1.31,6.67,2,8.75,3.38,1.71,1.16,6.06,4.62,8,12.94a26.81,26.81,0,0,0-10.54-8c-2.58-1.06-5.23-1.43-10.55-2.19a92,92,0,0,0-14.32-1.2c-6.29,0-9.5,0-13.53,1.4A28.45,28.45,0,0,0,2724.77,1838.41Z"/>
          <path class="cls-44" d="M2733.32,1853.13c-.56-.31.13-1.66-.79-2.78s-2.6-.72-3-1.6c-.29-.66.32-1.65,1.59-3a21.89,21.89,0,0,1,6.37-4.58,51.37,51.37,0,0,1,12.34-3.58,65,65,0,0,1,10.74-.79,45.83,45.83,0,0,1,12.14,1.19,34.66,34.66,0,0,1,13.92,7.56c-9.85-.43-17.38-1-22.48-1.39a57.66,57.66,0,0,0-13.93.2c-4.58.66-7.41,1.1-10.34,3.18C2736.49,1850,2734.27,1853.66,2733.32,1853.13Z"/>
        </g>
        <g>
          <path class="cls-40" d="M2158.13,269.9c3,3.41,10.42-1.55,27.51-3,8.67-.77,12.48,0,18.33,0,10.12,0,24.8-2.36,43.8-13.25l131.4,98.81a169.75,169.75,0,0,0,14.26,119.18c-4,14.44-7.8,29.73-11.2,45.84A742.65,742.65,0,0,0,2370,595.86c1.9,9.21,7.2,28.1,23.42,43.8,21.71,21,48.76,22.54,64.18,23.43,40.93,2.34,71.92-15.92,84.54-24.45-12.68-15.16-29-39.14-35.65-71.3-5.94-28.82-1.51-51.7,0-61.12,5.56-34.69,4.08-90.1-29.54-179.27a484.39,484.39,0,0,0-62.13-48.9,492.06,492.06,0,0,0-149.74-66.21,195.61,195.61,0,0,0-68.25-42.78,193.31,193.31,0,0,0-52-11.2,41.68,41.68,0,0,0-23.43,8.14c-9.24,7-18.25,20.62-14.26,28.53,2.27,4.48,7.05,3.82,23.43,9.16,10.21,3.33,16.85,6.35,27.5,11.21,22.19,10.1,26.31,15.24,28.53,19.35.64,1.2,5.71,10.86,2,15.28-4.31,5.19-15.62-2.89-24.44,3.06C2158,256.81,2155.25,266.58,2158.13,269.9Z"/>
          <path class="cls-53" d="M2370,595.86c-12.49,3.68-18.73,5.53-22.41,7.13-41,17.87-60.42,60.41-80.47,105.94a471.63,471.63,0,0,0-23.43,66.21,209.67,209.67,0,0,0,60.1,59.08c10.35,6.63,18.42,10.45,28.52,15.28,22.65,10.82,55.42,26.69,97.79,47.87q-15.26,85.65-30.49,171.3c67.58,7.41,112.19-6.87,140.64-21.58,40.29-20.81,56.7-46.87,107.16-67a258,258,0,0,1,89.29-17.86c-13.88-61.13-34.46-106.43-50.44-136.13-9-16.66-26.89-42.93-62.72-95.46-51.24-75.13-61.66-86.11-71.21-95.08-30.23-28.42-61.38-59.31-101.86-57.05C2433.39,579.5,2398,587.59,2370,595.86Z"/>
          <path class="cls-40" d="M2243.7,775.14c-13.5,4-18.46,22.45-25.47,49.91-14.8,58-2.95,82.75-4.07,183.35-.28,25.33-1.09,28.31,2,34.63,24.05,48.72,151.31,32.71,230.2,18.34q-3.09-26.86-6.19-53.71-23.76-.18-48.81-1.3c-34.38-1.56-67-4.41-97.79-8.15A153.86,153.86,0,0,0,2314,965.62c5.36-11.61,25.21-58.45,8.15-110C2307.85,812.43,2268.3,767.82,2243.7,775.14Z"/>
        </g>
        <path class="cls-40" d="M2553.35,950.69a9,9,0,0,0-7-3.66l.25-.18a9,9,0,1,0-10.69-14.54L2484.62,970a9.06,9.06,0,0,0-2,2.11c-.26-.52-.53-1-.8-1.55L2524,935.82a9,9,0,0,0-11.46-13.94l-45.82,37.67a13.5,13.5,0,0,0-3.9,3.25,9.08,9.08,0,0,0-1.52,2,43.39,43.39,0,0,0-3.94,7.12c-4.42,9.87-.35,13.85-5.24,23.59a33.76,33.76,0,0,1-10.49,12.24,32.78,32.78,0,0,1-12.23,5.24c-1.6,2-7.93,10.16-6.84,21.37,1.1,11.36,20.31,24.66,21.59,24.92a66.9,66.9,0,0,0,23.11.61c5.24-.8,11.49-1.8,17.48-5.83,12-8,14.54-22.49,15.15-26.8-.08-.53-.17-1-.25-1.56l46.93-34.48a9,9,0,0,0-10.69-14.55l-40.32,29.63c-.32-1.2-.65-2.38-1-3.52a9,9,0,0,0,5.51-1.73l51.29-37.69A9.06,9.06,0,0,0,2553.35,950.69Zm-64.49,35.52c.27,0,.55,0,.83.06l-.25.19c-.13.09-.24.19-.36.29C2489,986.57,2488.93,986.39,2488.86,986.21Z"/>
        <g>
          <path class="cls-56" d="M2253.92,728.69a60.17,60.17,0,0,0,5.73-15.47c3.76-17.13-1.09-31.5-3.81-38a76.56,76.56,0,0,0,26.35,5.25c50.68.9,84-51,87.82-57.15a42.34,42.34,0,0,0,14.32,8c6.55,2.09,9.51,1.14,13.05,4.13,5.56,4.68,5.45,13,5.43,14.64a26.11,26.11,0,0,1-4.8,14.19c-5.22,7.79-27.71,32.58-78.82,44.56-14.84,3.48-30.77,5.57-54.65,15.29C2260,725.92,2256.33,727.57,2253.92,728.69Z"/>
          <path class="cls-41" d="M2215.18,635.27a316.48,316.48,0,0,0,26.41,27.28c10.36,9.49,20.7,19,36,28.17a175.75,175.75,0,0,0,43.71,18.66,154,154,0,0,0,78.15-46.1q-12.23-10-24.44-20.11a62,62,0,0,0-3.82-17c-4-10.39-9.7-16.62-21.62-29.29-11.57-12.29-20.63-21.78-25.95-27.33Z"/>
          <ellipse class="cls-40" cx="2248.79" cy="577.73" rx="65.98" ry="102.4" transform="translate(343.5 1904.65) rotate(-49.26)"/>
          <path class="cls-40" d="M2296.13,531.36q-42.57,49.42-85.13,98.84a172.78,172.78,0,0,1-31.37-20,174.56,174.56,0,0,1-40.45-46.32l67.88-75.73c17.75-8.52,30.9-5.87,35.71-4.56,10.19,2.77,16.78,8.9,29.55,21A217.5,217.5,0,0,1,2296.13,531.36Z"/>
          <path class="cls-48" d="M2221.9,481.57a26.84,26.84,0,0,0-10.17-8.76c-14.52-7-29.88,2.92-31,3.67-6.08,1.68-14.4,5-20.83,12.43-5.87,6.74-6.14,12.21-10.76,19.83-3.77,6.22-10.65,14.22-24.28,20.85a86.35,86.35,0,0,0,5.55,28.82,88.31,88.31,0,0,0,13.1,23c19.53,25.8,54,44.92,62.32,49.4-51-45.15-57.22-66.4-52.43-77.42,1.67-3.82,4.34-5.7,11.43-12.44a283.48,283.48,0,0,0,33.5-38.07,40.21,40.21,0,0,1,17.9-13.06c15.7-5.48,30.61,1.66,40.06,6.19,20.76,9.95,30.84,24.26,31.66,23.47s-11.5-15.76-28.36-29.33c-12.92-10.39-20.53-13.6-28.2-12.43A23.08,23.08,0,0,0,2221.9,481.57Z"/>
        </g>
      </g>
    </g>
  </g>
</svg>
