<svg id="_лой_1" data-name="‘лой_1" xmlns="http://www.w3.org/2000/svg" width="2825.11" height="1653.33" viewBox="0 0 2825.11 1653.33">
  <defs>
    <style>
      .cls-1 {
        fill: #ebf3fa;
      }

      .cls-2 {
        opacity: 0.3;
      }

      .cls-3 {
        fill: #aec3ff;
      }

      .cls-4 {
        fill: #bbd0ff;
      }

      .cls-5 {
        fill: #d2e0ff;
      }

      .cls-6 {
        fill: #c0d4ff;
      }

      .cls-7 {
        fill: #86a2e2;
      }

      .cls-8 {
        fill: #b3c2ff;
      }

      .cls-9 {
        fill: #8c9df4;
      }

      .cls-10 {
        fill: #7187e2;
      }

      .cls-11 {
        fill: #4c6ac9;
      }

      .cls-12 {
        fill: #2c3a64;
      }

      .cls-13 {
        fill: #abddda;
      }

      .cls-14 {
        fill: #2b478b;
      }

      .cls-15 {
        fill: #233862;
      }

      .cls-16 {
        fill: #ffb27d;
      }

      .cls-17 {
        fill: #ed985f;
      }

      .cls-18 {
        fill: #6bb7bf;
      }

      .cls-19 {
        fill: #91cecf;
      }

      .cls-20 {
        fill: #739af0;
      }

      .cls-21 {
        fill: #f3faff;
      }

      .cls-22 {
        fill: #ffa561;
      }

      .cls-23 {
        fill: #afcdfb;
      }

      .cls-24 {
        fill: #f99746;
      }

      .cls-25 {
        fill: #ffc9a4;
      }

      .cls-26 {
        fill: #e8945b;
      }

      .cls-27 {
        fill: #e5803c;
      }

      .cls-28 {
        fill: #f49656;
      }

      .cls-29 {
        fill: #f4a671;
      }

      .cls-30 {
        fill: #163560;
      }
    </style>
  </defs>
  <g>
    <path class="cls-1" d="M2514.33,1564.29c-157,0-2156.23.22-2156.23,0-.87-1.74-448.29-182.59,56.12-700.86C584.6,688.37,360,555.37,530.1,407c195.47-170.45,297.21-29.7,514.57-107,38.4-13.65,76.94-35.61,115.51-69.31,90.08-78.6,213.38-114.27,339-122.3C1742,93,2015.33,179.84,2156.38,306.75c28.39,25.55,157.52,157.79,55.73,339.54-64.26,114.75,205,224.35,300.64,355.39C2756,1334.84,2516.54,1560,2514.33,1564.29Z"/>
    <g class="cls-2">
      <path class="cls-3" d="M733.34,863.66s132.79,87.86,114.91,111.56-140.9-108.57-140.9-108.57S555.86,922.28,520.07,967.07c0,0,172.46,41.7,149.31,60.27s-204.63-16.49-204.63-16.49-123.68,87.76-76.94,166.47,105.35,81.76,124.7,69.75,116.76-115,127.41-99.52S605,1252.21,556,1279c0,0,145.38,59,193.94-1.57s30.9-111.12,61.6-148,64.3-53,56.88-26.88-70.06,78.23-73.4,128.86-10.15,87.86,50,45.93c164.51-114.77,100.37-254,100.37-254S986,870.33,865.83,843.47C865.83,843.47,783.69,835.58,733.34,863.66Z"/>
    </g>
    <g class="cls-2">
      <path class="cls-3" d="M870.81,525.94S914,607.19,898.42,614.3s-41.64-94-41.64-94-92.29-13.51-122.82-.63c0,0,76.11,68.74,59.22,71.79s-99.4-64.8-99.4-64.8-87,10.47-85,63.34,31,70.59,44.12,69.82,91-26.21,92.16-15.42S698.48,687.93,666.18,688c0,0,57.57,70.07,99,52.67s46.34-47.92,72.11-58.2,47.28-9.21,36.3,2-57.16,20.42-72.82,45.22-29.38,41.83,12.72,37.1c115.21-12.93,121-101.37,121-101.37s62.83-66.45,9.2-113.23C943.68,552.22,904.13,525.56,870.81,525.94Z"/>
    </g>
    <g class="cls-2">
      <path class="cls-3" d="M1233.53,367.49s-1,160.35,28.88,158.68-11.8-178.75-11.8-178.75,131.47-95.53,189-100.35c0,0-61.82,167.65-33.3,158.69s101-180.43,101-180.43,142.76-54.25,182.41,29,9.31,134-11.58,143.44-161.67,33.19-154.7,50.77,107.12,29.49,157,3.45c0,0-32.14,154.72-110.07,161.36S1460.08,576.87,1412,581.86s-80.41,24.06-54.38,32.51,104.73-14.74,149,10.85S1585.76,666,1517,692.77c-188.26,73.27-268.8-58.48-268.8-58.48S1097.44,582.58,1142.35,467C1142.35,467,1181.8,393.87,1233.53,367.49Z"/>
    </g>
    <g>
      <g>
        <path class="cls-4" d="M2346.83,1387.77s-28.17-32.85-1.74-53.72c0,0,19.3-11.69,35-10.74,0,0-22.3,37.4-15.08,41.12s21.84-43.46,21.84-43.46,43.93-4.26,58.06,2.53c0,0-37.55,30.73-29.64,32.56s48.47-28.33,48.47-28.33,40.88,7,38.7,31.89-16.26,32.65-22.46,32-42.41-14.49-43.2-9.41,21,21.65,36.28,22.43c0,0-28.82,31.78-48,22.61s-20.79-23.72-32.73-29.17-22.14-5.44-17.21.12,26.55,11,33.38,23,13,20.23-6.87,17.24-52-17.48-53.45-34.09Z"/>
        <g>
          <path class="cls-4" d="M2482.39,1360.3s-111-4.28-135.56,27.47c0,0-5.43,16.25-22.12,31l-2.6,7.09s19.25-20.29,26.13-21.52C2348.24,1404.38,2337.47,1365,2482.39,1360.3Z"/>
          <path class="cls-4" d="M2324.71,1418.81s-23.83,17.63-25.49,49.12l4.33.39s7.61-32.57,21.37-45.3S2324.71,1418.81,2324.71,1418.81Z"/>
        </g>
      </g>
      <g>
        <path class="cls-3" d="M2248.36,1346.45s44.8-25.08,23.89-59.13c0,0-16.72-20.91-34.64-26.29,0,0,9.55,50.78,0,52s-6.58-57.34-6.58-57.34-47.19-22.7-65.7-20.91c0,0,29.27,49.58,19.71,48.39s-42.41-51.38-42.41-51.38-48.39-9-56.15,19.72,4.78,43,11.94,44.8,53.17,1.19,52,7.17-32.25,15.53-49.58,10.15c0,0,19.12,47.19,44.21,44.8s32.85-17.92,48.38-19.11,26.88,3,19.12,7.16-34.05,1.37-46.6,12-22.69,17.23.6,22,65.11,1.8,73.47-16.13Z"/>
        <g>
          <path class="cls-3" d="M2108.58,1260.44s125.44,40.62,139.78,86c0,0-.6,20.31,11.94,43.61v9s-13.14-30.46-20.31-34.65C2240,1364.37,2268.07,1325,2108.58,1260.44Z"/>
          <path class="cls-3" d="M2260.3,1390.06s19.35,29.38,8.32,65.14l-5-1.34s4.84-39.39-5.29-59.2S2260.3,1390.06,2260.3,1390.06Z"/>
        </g>
      </g>
      <g>
        <path class="cls-5" d="M2319.63,1311.85s-59.05-33.07-31.49-77.95c0,0,22-27.56,45.67-34.65,0,0-12.6,66.93,0,68.51s8.66-75.59,8.66-75.59,62.2-29.92,86.61-27.56c0,0-38.58,65.35-26,63.78s55.9-67.72,55.9-67.72,63.78-11.81,74,26-6.3,56.69-15.75,59-70.08,1.58-68.5,9.45,42.52,20.47,65.35,13.39c0,0-25.19,62.2-58.27,59s-43.3-23.62-63.78-25.2-35.43,3.94-25.19,9.45,44.88,1.81,61.42,15.87,29.92,22.72-.79,29-85.83,2.36-96.85-21.26Z"/>
        <g>
          <path class="cls-5" d="M2503.89,1198.47s-165.36,53.54-184.26,113.38c0,0,.79,26.78-15.75,57.49v11.81s17.33-40.16,26.78-45.67C2330.66,1335.48,2293.65,1283.51,2503.89,1198.47Z"/>
          <path class="cls-5" d="M2303.88,1369.34s-25.5,38.72-11,85.86l6.56-1.77s-6.37-51.91,7-78S2303.88,1369.34,2303.88,1369.34Z"/>
        </g>
      </g>
      <path class="cls-6" d="M2317.64,1557.42a115.68,115.68,0,0,0,115.68-115.68H2202A115.68,115.68,0,0,0,2317.64,1557.42Z"/>
      <path class="cls-6" d="M2434.92,1563.3H2200.36a14.27,14.27,0,0,1,14.28-14.27h206a14.27,14.27,0,0,1,14.27,14.27Z"/>
      <rect class="cls-7" x="2198.16" y="1441.74" width="237.8" height="3.55"/>
    </g>
    <g>
      <path class="cls-8" d="M1876,563.3H1730.86V487.8c0-28.87,22.66-52.28,50.6-52.28H1876Z"/>
      <rect class="cls-9" x="1677.37" y="563.3" width="268.76" height="1002.46" rx="55.83"/>
      <rect class="cls-10" x="1767.65" y="563.3" width="268.76" height="1002.46" rx="55.83"/>
      <rect class="cls-8" x="1823.39" y="435.52" width="195.64" height="261.22" rx="48.69"/>
      <rect class="cls-9" x="1892.57" y="435.52" width="195.64" height="261.22" rx="48.69"/>
      <rect class="cls-8" x="1581.68" y="1481.17" width="563.87" height="84.58" rx="29.07"/>
      <path class="cls-11" d="M1761.84,1481.17h359a24.75,24.75,0,0,1,24.75,24.75V1541a24.74,24.74,0,0,1-24.74,24.74h-359A24.75,24.75,0,0,1,1737.1,1541v-35.09A24.74,24.74,0,0,1,1761.84,1481.17Z"/>
    </g>
    <g>
      <path class="cls-12" d="M767.18,747.75c-.08-2-1.63-23.6-34.51-24.72,0,0,16.17,1.92,19,9,0,0-11-8.78-20-6s-14.23,18.54-14.29,23.71,4.93,21.82,10.62,23.24a17.37,17.37,0,0,0,6.89,0,79.59,79.59,0,0,0-4.41,7.89c-13.12,26.93.41,53.26,11.52,50.35,7.12-1.87,9.14,10.29,9.14,10.29l69.21-56S794.92,732.94,767.18,747.75Z"/>
      <path class="cls-13" d="M885.66,1033.75a99.62,99.62,0,0,1-8.29,15.55c-3.83,5.76-8.86,11.59-14.82,14.59-4.57-2.2-12.82-5.45-16.31-7.6-12.64-7.72-30.66-29.61-45.38-53.09-2.25-3.58-4.42-7.19-6.48-10.8a19.24,19.24,0,0,1-1.12-2c-5.24-9.34-9.47-18.64-11.92-27.13l26.75-57.17c.1.09,8.31,4.95,15.55,25.77,10.78,31,28.25,75,40.38,88.46,2.83,3.13,11.12,7.88,21.15,12.92h0C885.38,1033.58,885.55,1033.75,885.66,1033.75Z"/>
      <path class="cls-14" d="M791.28,1541.25l-14.71,5.48s-63.85-88.57-71.71-166.49c-1.41-13.91,1.47-43.4.38-49.7-.5-2.94-1.13-6.49-1.84-10.54-2.07-11.9-4.93-28.17-8.19-46.71-7.52-42.64-17.25-97.16-24.81-137.23l4-1.28L717.22,1121l8.86-28.14,31.91-8.4s7.13,13.95,13.51,79.83c1.17,8.64,2.24,18.17,3,28.51a563.72,563.72,0,0,1-3,115.4c-1.47,11.45-7.54,56.46-6.83,70.4C767.89,1442.26,791.28,1541.25,791.28,1541.25Z"/>
      <path class="cls-15" d="M774.54,1192.76l-69.3,137.78c-.5-2.94-1.13-6.49-1.84-10.54-2.07-11.9-4.93-28.17-8.19-46.71-7.52-42.64-17.25-97.16-24.81-137.23l4-1.28L717.22,1121l8.86-28.14,31.91-8.4s7.13,13.95,13.51,79.83C772.67,1172.89,773.74,1182.42,774.54,1192.76Z"/>
      <path class="cls-14" d="M744.06,1102.1l-1.61-13.76c-26.88,7.14-98.69-19.95-98.69-19.95s-26,22.89-22.62,77.76c1.67,26.78,4.71,140.57,7.9,174.25,1.15,12.2-6.77,43.61-10,52.08-31.24,83.27,4.82,185.81,4.82,185.81l9.35-3.77s59.2-214.64,65.31-237.37c11.54-43,20.83-98.92,27-142.08C726.43,1175.11,744.06,1102.1,744.06,1102.1Z"/>
      <path class="cls-16" d="M764.45,942.47c-46.21,2.54-36.06-66.35-33.24-66,5.66-3,15.81-17.29,21.68-41.29l2,.93,33.35,15.67s-3.54,10.85-6.16,21.23c-2,8.13-3.5,16-2.28,18.18,2.63,1.06,4.2,1.74,4.2,1.74a.08.08,0,0,0,0,0C784.34,893.81,776.78,941.8,764.45,942.47Z"/>
      <path class="cls-17" d="M788.23,851.79s-3.55,10.84-6.16,21.23c-19.49-5.44-25.41-25.92-27.19-36.91Z"/>
      <path class="cls-16" d="M792.33,863.27s-46.63-10.79-39.46-39.73,6-49.81,36-44.15S822,797.53,822,807.77,804.65,865.33,792.33,863.27Z"/>
      <path class="cls-12" d="M824.6,791.34c-5-10.49-10.91-9.93-14.6-8.07-21.91-20.27-43.4-3.71-43.4-3.71a57,57,0,0,1-26.2,28.15s7.16,7.33,27.93,7.17c6.34,0,12.71-3,18.52-7A111.81,111.81,0,0,1,762.53,826c26-5,43.42-35.06,45.21-38.26,2.2,3.25,6.41,10.18,6.76,16,.48,7.94-2.25,23.37,2.3,24C816.8,827.75,832.12,807.07,824.6,791.34Z"/>
      <path class="cls-15" d="M678.3,1565.93h-74s-1.77-11.28,2.09-19.84c3.71-8.22,9.51-11.95,8.13-21.89,4.7,4.84,12.37,10.27,23.07,8.83,1.32,2.12,8.47,13.5,12.85,16.65C655.23,1553.16,676.81,1551.92,678.3,1565.93Z"/>
      <path class="cls-15" d="M837.29,1565.93h-74s-2.77-11.81,2.09-19.84c4.31-7.11,2.66-11.16-.53-17a28.55,28.55,0,0,0,12.47,2.35c3.69-.21,7.59-1.88,11-3.87,3.19,3.63,16.84,19.1,21.1,22.16C814.22,1553.16,835.8,1551.92,837.29,1565.93Z"/>
      <path class="cls-13" d="M808.09,906.1,796,1069.15,788.52,1169c-11.42,3.55-22.29,6.33-32.61,8.46a121.08,121.08,0,0,0-3.38-18.38c.12,5.25-6,15.3-9.67,20.76C648,1195,603.59,1153.67,603.59,1153.67c3.69-36.61,19.67-110.67,38.79-172.75,4-12.91,8.1-25.31,12.27-36.74,9.48-26,15.5-39.57,20.61-50.08,9.73-20,53.2-18.75,53.2-18.75,8.37,30.18,31.38,49,31.38,49,12.27-7.2,21.4-32.53,21.4-32.53Z"/>
      <path class="cls-18" d="M738,869.78s-7.88.53-9.58,5.57c0,0,10.3,41.44,31.38,49Z"/>
      <path class="cls-18" d="M759.84,924.33s19.67-32.72,19.59-37.63c0,0,8.13,3.16,7.62,8.2C787.05,894.9,770.09,922.07,759.84,924.33Z"/>
      <path class="cls-19" d="M705.84,909.59c.57,2,71.56,115.3,73.11,137.87s-29.85,9.81-30.35,6.87S705.84,909.59,705.84,909.59Z"/>
      <path class="cls-19" d="M796,1069.15,788.52,1169C687,1139.75,681.39,925.46,681.39,925.46l62.76,113.3,51.25,29.63S795.6,1068.65,796,1069.15Z"/>
      <path class="cls-13" d="M862.57,1033.57q0,.18-.15.18l.09-.21C862.6,1033.37,862.62,1033.37,862.57,1033.57Z"/>
      <g>
        <g>
          <g>
            <rect class="cls-20" x="840.35" y="366.51" width="740.74" height="1012.98"/>
            <rect class="cls-21" x="871.92" y="393.84" width="677.62" height="957.73"/>
            <path class="cls-22" d="M1070.24,366.51V401a34.5,34.5,0,0,0,34.48,34.51h185.17A34.5,34.5,0,0,0,1324.37,401v-34.5Z"/>
          </g>
          <g>
            <rect class="cls-3" x="950.58" y="1258.05" width="83.84" height="8.49"/>
            <rect class="cls-3" x="1053.83" y="1258.05" width="83.84" height="8.49"/>
            <rect class="cls-3" x="950.58" y="1276.88" width="116.27" height="8.49"/>
          </g>
          <g>
            <g>
              <rect class="cls-3" x="929.02" y="712.83" width="569.09" height="11.96"/>
              <rect class="cls-3" x="929.02" y="766.23" width="524.47" height="11.96"/>
              <g>
                <rect class="cls-3" x="1136" y="739.53" width="155.13" height="11.96"/>
                <rect class="cls-3" x="1318" y="739.53" width="180.11" height="11.96"/>
                <rect class="cls-3" x="929.02" y="739.53" width="183.89" height="11.96"/>
              </g>
              <g>
                <rect class="cls-3" x="1136" y="682.53" width="155.13" height="11.96"/>
                <rect class="cls-3" x="1318" y="682.53" width="180.11" height="11.96"/>
                <rect class="cls-3" x="929.02" y="682.53" width="183.89" height="11.96"/>
              </g>
            </g>
            <g>
              <rect class="cls-3" x="929.02" y="872.7" width="569.09" height="11.96"/>
              <rect class="cls-3" x="929.02" y="926.1" width="439.1" height="11.96"/>
              <g>
                <rect class="cls-3" x="1136" y="842.4" width="155.13" height="11.96"/>
                <rect class="cls-3" x="1318" y="842.4" width="180.11" height="11.96"/>
                <rect class="cls-3" x="929.02" y="842.4" width="183.89" height="11.96"/>
              </g>
              <g>
                <rect class="cls-3" x="1329.73" y="514.93" width="136.6" height="11.96"/>
                <rect class="cls-3" x="1147.48" y="540.03" width="114.51" height="11.96"/>
                <rect class="cls-3" x="1281.11" y="540.03" width="155.39" height="11.96"/>
                <rect class="cls-3" x="1147.48" y="569.03" width="139.68" height="11.96"/>
                <rect class="cls-3" x="1309.93" y="569.03" width="76.19" height="11.96"/>
                <rect class="cls-3" x="1147.48" y="514.93" width="161.92" height="11.96"/>
              </g>
            </g>
          </g>
          <g>
            <rect class="cls-3" x="1077.12" y="1036.84" width="128.63" height="7.74"/>
            <rect class="cls-3" x="1077.12" y="1071.43" width="118.55" height="7.74"/>
            <g>
              <rect class="cls-3" x="1170.69" y="1054.14" width="35.07" height="7.74"/>
              <rect class="cls-3" x="1077.12" y="1054.14" width="83.85" height="7.74"/>
            </g>
          </g>
          <g>
            <rect class="cls-3" x="1379.57" y="1036.84" width="128.64" height="7.74"/>
            <rect class="cls-3" x="1379.57" y="1071.43" width="118.55" height="7.74"/>
            <g>
              <rect class="cls-3" x="1473.14" y="1054.14" width="35.07" height="7.74"/>
              <rect class="cls-3" x="1379.57" y="1054.14" width="83.85" height="7.74"/>
            </g>
          </g>
          <g>
            <path class="cls-3" d="M1260.61,1285.15a52.13,52.13,0,0,1-50.93-41.51,3.56,3.56,0,1,1,7-1.42,44.87,44.87,0,0,0,87.8.42,3.56,3.56,0,0,1,7,1.5A52.24,52.24,0,0,1,1260.61,1285.15Z"/>
            <path class="cls-3" d="M1213.08,1227.48a4,4,0,0,1-.69-.07,3.55,3.55,0,0,1-2.81-4.17,52,52,0,0,1,101.44-2.76,3.56,3.56,0,1,1-6.9,1.73,44.87,44.87,0,0,0-87.55,2.38A3.57,3.57,0,0,1,1213.08,1227.48Z"/>
            <path class="cls-3" d="M1260.61,1307.06a73.89,73.89,0,1,1,73.89-73.89A74,74,0,0,1,1260.61,1307.06Zm0-137.66a63.77,63.77,0,1,0,63.77,63.77A63.84,63.84,0,0,0,1260.61,1169.4Z"/>
            <g>
              <rect class="cls-3" x="1245.97" y="1223.92" width="29.27" height="4.68"/>
              <rect class="cls-3" x="1245.97" y="1243.09" width="29.27" height="4.68"/>
              <rect class="cls-3" x="1239.07" y="1233.17" width="43.08" height="4.68"/>
            </g>
          </g>
          <g>
            <path class="cls-23" d="M1049.59,1109.66h-88v-88h88Zm-83.82-4.15h79.68v-79.67H965.77Z"/>
            <path class="cls-24" d="M1007.79,1092a6.18,6.18,0,0,1-4.78-2.26l-27.15-32.83a6.21,6.21,0,1,1,9.58-7.92l21.53,26,38.94-65.36a6.22,6.22,0,0,1,10.68,6.36l-43.46,72.93a6.2,6.2,0,0,1-4.86,3Z"/>
          </g>
          <g>
            <path class="cls-23" d="M1358,1109.66h-88v-88h88Zm-83.81-4.15h79.67v-79.67h-79.67Z"/>
            <path class="cls-24" d="M1316.17,1092a6.19,6.19,0,0,1-4.79-2.26l-27.14-32.83a6.21,6.21,0,1,1,9.58-7.92l21.52,26,38.94-65.36A6.22,6.22,0,0,1,1365,1016l-43.45,72.93a6.24,6.24,0,0,1-4.87,3Z"/>
          </g>
        </g>
        <g>
          <path class="cls-22" d="M1105.66,551.16A89.71,89.71,0,1,1,1016,461.45,89.31,89.31,0,0,1,1105.66,551.16Z"/>
          <path class="cls-14" d="M1016.16,482.14s-33.73-2.64-51.48,33.36c-15.88,32.2-22,34.42-15.11,44.62s72.56,28.69,121.16,7.67c0,0,17.62-7.67,10.86-21S1056.74,478.74,1016.16,482.14Z"/>
          <circle class="cls-25" cx="1015.95" cy="534.05" r="37.29" transform="translate(262.77 1400.13) rotate(-76.72)"/>
          <path class="cls-25" d="M1079.85,614.1a89.7,89.7,0,0,1-127.8,0,65.51,65.51,0,0,1,127.8,0Z"/>
          <path class="cls-14" d="M1019,494.87s-11.42,29.91-40.35,28.77C978.66,523.64,974.71,489.19,1019,494.87Z"/>
          <path class="cls-14" d="M1012.8,494.87s11.42,29.91,40.35,28.77C1053.15,523.64,1057.1,489.19,1012.8,494.87Z"/>
        </g>
      </g>
      <path class="cls-16" d="M884.19,1076.88c-6.13,0-15.8-.45-21.39-2.59,0,0,17.86-.25,14.06-5.9-.69-1-9.57-.25-19.48-.25-4.06,0-14.1,5.57-13.58,5.83-7.18-1-13.71-2.34-15.82-2.8a3.44,3.44,0,0,1-.78-.22l-6.34,18.47s1.33.33,3.67.78a247.76,247.76,0,0,1,29.48,9c16,6.34,27.81-1.54,33.16-7.12,3.39-3.53,6.06-8.23,5.87-11.63C892.84,1076.73,887.92,1076.9,884.19,1076.88Z"/>
      <path class="cls-16" d="M841.11,1078.3l-3.9,14.24-12.68-2.34c-2.34-.45-3.68-.78-3.68-.78-6.23-1.22-13.67-2.89-21.8-4.67h-.12c-13.9-3.34-29.47-7.34-42.6-11.8l-3.47-1.23c-7.76-2.87,7.24-42.27,14-37.37,1.79,1.3,3.72,2.65,5.75,4,11.25,7.65,25.58,16.16,38.3,23.34,6.23,3.56,12.13,6.79,17,9.46C835.88,1075.51,841.11,1078.3,841.11,1078.3Z"/>
      <path class="cls-13" d="M772.65,1038.38s.81,26.9-24.37,40c-29.11-10.51-44.69-53.92-56.71-83.74-1.67-4.11-3.23-8.24-4.78-12.24a304.48,304.48,0,0,1-12.68-42.28,120.4,120.4,0,0,1-3-20.14,49.61,49.61,0,0,1-.1-5.67c.21-32.26,23-35.6,26-31.93,3.78,4.56,7.78,12,11.9,21,6.34,14.34,13,32.93,19.24,51.4,3.46,10.12,6.79,20.25,10.13,29.59,1.89,5.67,3.79,11,5.56,15.91,3.46,9.35,6.57,16.92,9.35,21.69,1.78,3.12,6.89,7.46,13.69,12.36C768.69,1035.65,770.62,1037,772.65,1038.38Z"/>
    </g>
    <rect class="cls-14" x="1803.45" y="967.21" width="194.92" height="21.71"/>
    <g>
      <path class="cls-16" d="M2067.81,1044.24c-7,17.34-38.31,80.88-38.31,80.88l-16-11s23.43-73.63,22.17-84.17-9.52-55.5-9.52-55.5L2024,876.53s22.75,9,27.15,33.34S2074.84,1026.89,2067.81,1044.24Z"/>
      <path class="cls-16" d="M2035.71,932.25l-29.62,131.43-105-4.87s-7.42-92.07,7.76-128.08,24.71-49.88,24.71-49.88,17.42-19.5,90.42-4.33Z"/>
      <path class="cls-16" d="M1889.07,1265.85c0,12.21,9.91,78.64,14.87,246.93.1,3.37,3.31,6,13.14,3.17,13.64-3.85,15.25-1.41,15.25-1.41s15.7-107,18.81-214.18C1952.7,1246.61,1889,1239.1,1889.07,1265.85Z"/>
      <path class="cls-16" d="M1999.39,877c-1.83-9.29-2.37-33,.13-49.26l-2.44.11-41,1.93s-1,12.67-2.71,24.48c0,.1,0,.2,0,.3-1.48,10.26-2.81,18.5-2.15,21.45C1953.48,886.44,2000.91,884.73,1999.39,877Z"/>
      <path class="cls-26" d="M1956.06,829.8s-1,12.67-2.71,24.48c22.39,2.71,37.21-15.86,43.73-26.41Z"/>
      <path class="cls-16" d="M1947,839.87s52.61,8.76,57.56-24.09,15.07-53.84-18.31-60.82-41.81,4.56-46.13,15.13S1933.39,836.74,1947,839.87Z"/>
      <path class="cls-16" d="M1962.43,1266.54c-.29,12.21,7.9,78.87,8.6,247.23,0,3.38,3.15,6,13,3.5,13.73-3.5,15.28-1,15.28-1s18.41-106.58,24.24-213.64C2026.52,1248.93,1963.06,1239.8,1962.43,1266.54Z"/>
      <path class="cls-16" d="M2004.43,1551c-.49,11-11.69,8.92-29.4,7.38s-11.16,1.76-35.87,2.83-28.9-3-30.2-6.48c-1.16-3.1,3.83-5.31,16.48-8.79,1.59-.43,35-14.2,42.15-23.11,9.56-12,8.65-98.61,8.65-98.61l25.27,33.16s-1,39.5-2.15,58.91c-.47,8,5.81,17.32,7.38,24.18C2007.58,1544.16,2004.6,1547.07,2004.43,1551Z"/>
      <path class="cls-27" d="M1974.49,1562c-17.72-1.53-12.89,2.8-37.6,3.87s-33.47-6.86-34.77-10.35c-1.16-3.11,10.67-6.09,23.32-9.57l.16.23a69.27,69.27,0,0,0,36.46,5.44c16.54-2.15,33.27-9.57,44.68-11.14a43.54,43.54,0,0,1,1.51,11.43C2007.76,1562.91,1992.2,1563.49,1974.49,1562Z"/>
      <path class="cls-16" d="M1938.28,1549.11c-.21,11.06-11.46,9.21-29.2,8.13s-11.12,2-35.79,3.73-29-2.25-30.36-5.71c-1.23-3.07,3.7-5.41,16.25-9.2,1.58-.47,34.68-15.09,41.55-24.17,9.26-12.25,6.15-98.8,6.15-98.8l26.1,32.5s0,39.52-.65,59c-.27,8,6.25,17.17,8,24C1941.26,1542.23,1938.35,1545.22,1938.28,1549.11Z"/>
      <path class="cls-28" d="M1908.63,1560.86c-17.75-1.08-12.82,3.12-37.49,4.82s-33.64-6-35-9.47c-1.23-3.07,10.52-6.36,23.07-10.15l.17.22a69.23,69.23,0,0,0,36.59,4.51c16.48-2.56,33-10.4,44.38-12.27a43.41,43.41,0,0,1,1.8,11.4C1941.91,1561,1926.37,1561.94,1908.63,1560.86Z"/>
      <path class="cls-29" d="M1938.19,1063.68s-13.44-29.59-11.77-53.16c2.2-31,10.27-76.72-.52-72.33-24.15,9.83-25.52,117.68-25.52,117.68Z"/>
      <path class="cls-24" d="M1900.38,1055.87s-29.06,166.58-40.49,262.47-20.07,133-20.07,133,73.53,16.1,130.54,10,65.15,15.55,107.84-8.84c0,0-33.61-90.51-25.9-190.47,10.95-141.89-42.34-208.14-42.34-208.14S1988.66,1063.92,1900.38,1055.87Z"/>
      <path class="cls-29" d="M1975.22,1046.21a2,2,0,0,1-1.83-1.22c-.36-.87-8.58-21.37-2-43.82a2,2,0,0,1,3.79,1.11c-6.19,21.08,1.77,41,1.86,41.21a2,2,0,0,1-1.09,2.57A1.92,1.92,0,0,1,1975.22,1046.21Z"/>
      <path class="cls-16" d="M1852.43,1157.09c-2.61,7.82-18,18.88-18,27.66s4.72,31.79,7.76,31.84c11.45.18,7.83-16.25,12.22-21.52s13.61-8.34,14-12.74,2-26.12,2-26.12S1854.85,1149.84,1852.43,1157.09Z"/>
      <path class="cls-16" d="M1868.46,1182.33s-10.54,22-10.87,20.64,0-13.83,0-13.83Z"/>
      <path class="cls-14" d="M2010,1053.88s-13.72,19.34-101.32,2.54v-9.55s76.6,11.64,101.84-2.63Z"/>
      <path class="cls-16" d="M1935.21,872.56s-31,8.09-40,34.89c-8.31,24.72-8.47,116-15.53,132.94-5.59,13.41-28.82,119.79-28.82,119.79l19.54-4s41.17-96.17,47.1-116.59,1.65-68.5,10.87-85.62S1935.21,872.56,1935.21,872.56Z"/>
      <path class="cls-29" d="M2035.71,1030c-1.27-10.54-9.52-55.5-9.52-55.5s7.37-27,11.77-26.6S2040.49,1024.7,2035.71,1030Z"/>
      <path class="cls-30" d="M1959,748.5s-20.73,2-28,15.15-.27,27,20,38.86,19.5,40.67,3.35,44.38-46.51,19.71-37.14,34,40.25,4.95,33.79,25.3c-12.27,38.64,43.27,51.61,65,41.73s24.92-37.14,42.15-36.9c31.62.44,21.77-48.64,2-71.25-26.81-30.63-.66-42.84-20.51-66.85C2020.92,750.25,1992.92,735.32,1959,748.5Z"/>
    </g>
    <rect class="cls-15" x="174.09" y="1560.16" width="2476.93" height="8.24" rx="3.14"/>
  </g>
</svg>
